/* XPM */
static char * foxy_head_icon_xpm[] = {
"32 32 356 2",
"  	c None",
". 	c #FAA629",
"+ 	c #FBA72A",
"@ 	c #F99A2A",
"# 	c #F7962A",
"$ 	c #FBA62A",
"% 	c #F8972A",
"& 	c #F99E2A",
"* 	c #F7922A",
"= 	c #EE6828",
"- 	c #F38029",
"; 	c #FAA729",
"> 	c #FBA829",
", 	c #F48529",
"' 	c #EE6928",
") 	c #F06E2A",
"! 	c #EF6D29",
"~ 	c #F69129",
"{ 	c #F89929",
"] 	c #EF6C29",
"^ 	c #F06F29",
"/ 	c #F27D29",
"( 	c #F27A29",
"_ 	c #F06E28",
": 	c #F17B28",
"< 	c #F9A432",
"[ 	c #F8A338",
"} 	c #F8A131",
"| 	c #F99C26",
"1 	c #F89B22",
"2 	c #F99A22",
"3 	c #F89823",
"4 	c #F89621",
"5 	c #F89B25",
"6 	c #F27E27",
"7 	c #EF6E29",
"8 	c #F06E29",
"9 	c #F17429",
"0 	c #F3812C",
"a 	c #F2792C",
"b 	c #F17328",
"c 	c #F4832A",
"d 	c #F7A23D",
"e 	c #F8A840",
"f 	c #F8A234",
"g 	c #F99E24",
"h 	c #FA9D1E",
"i 	c #FAA020",
"j 	c #FAA021",
"k 	c #FA9F21",
"l 	c #F99D22",
"m 	c #F99A23",
"n 	c #F89622",
"o 	c #F89422",
"p 	c #F68C24",
"q 	c #F27A26",
"r 	c #F47F2C",
"s 	c #F27727",
"t 	c #F59738",
"u 	c #F79D37",
"v 	c #F79726",
"w 	c #F89920",
"x 	c #F99D21",
"y 	c #FAA121",
"z 	c #FAA420",
"A 	c #FAA620",
"B 	c #F79522",
"C 	c #F69223",
"D 	c #F68E24",
"E 	c #F58425",
"F 	c #F27A2B",
"G 	c #F5912F",
"H 	c #F68F24",
"I 	c #F79322",
"J 	c #F89C22",
"K 	c #FAA520",
"L 	c #FBA81E",
"M 	c #FCAB1E",
"N 	c #FBA91E",
"O 	c #FAA41F",
"P 	c #FBA021",
"Q 	c #F89822",
"R 	c #F78F23",
"S 	c #F68A25",
"T 	c #F38524",
"U 	c #F48625",
"V 	c #F68A24",
"W 	c #F69023",
"X 	c #F79422",
"Y 	c #F99923",
"Z 	c #F99E21",
"` 	c #FBA220",
" .	c #FBA81F",
"..	c #FCAC1E",
"+.	c #FCAF1E",
"@.	c #FCAF1F",
"#.	c #FAA21F",
"$.	c #FA9D21",
"%.	c #F79023",
"&.	c #F68B24",
"*.	c #F58624",
"=.	c #F48125",
"-.	c #F58324",
";.	c #F48724",
">.	c #F58C24",
",.	c #F89123",
"'.	c #F79523",
").	c #F89A22",
"!.	c #FB9C19",
"~.	c #FBA31D",
"{.	c #FBAA1F",
"].	c #FCAE1F",
"^.	c #FDB21E",
"/.	c #FDB21D",
"(.	c #FDAE1F",
"_.	c #FCAA1F",
":.	c #FA9E1F",
"<.	c #F9981B",
"[.	c #F89522",
"}.	c #F79123",
"|.	c #F48725",
"1.	c #F48124",
"2.	c #F37E24",
"3.	c #F48224",
"4.	c #F58B24",
"5.	c #F79626",
"6.	c #F0BD7C",
"7.	c #EDCDA1",
"8.	c #F0C688",
"9.	c #F7B341",
"0.	c #FDAB17",
"a.	c #FDB01D",
"b.	c #FDB01F",
"c.	c #FDAD1F",
"d.	c #FCA513",
"e.	c #F6B24E",
"f.	c #EFC58C",
"g.	c #EDCA9F",
"h.	c #F0B878",
"i.	c #F78D1D",
"j.	c #F58C25",
"k.	c #F37D25",
"l.	c #F17726",
"m.	c #F37C25",
"n.	c #F58625",
"o.	c #F68B25",
"p.	c #F39E46",
"q.	c #E8EBED",
"r.	c #EEEFEF",
"s.	c #F5F5F5",
"t.	c #EFF0F1",
"u.	c #E9EFF8",
"v.	c #F2C67B",
"w.	c #FCAB1A",
"x.	c #FCAC1F",
"y.	c #FCA818",
"z.	c #EFCD98",
"A.	c #EAEFF6",
"B.	c #F1F1F2",
"C.	c #EEEFF0",
"D.	c #E8E9EA",
"E.	c #F4953A",
"F.	c #F48626",
"G.	c #F48025",
"H.	c #F37C26",
"I.	c #F27725",
"J.	c #F07426",
"K.	c #F27B26",
"L.	c #F48525",
"M.	c #F6861F",
"N.	c #E8EAEA",
"O.	c #F4F3F2",
"P.	c #D9D8D8",
"Q.	c #696868",
"R.	c #E7E8E9",
"S.	c #F7F7F7",
"T.	c #EAF1FD",
"U.	c #F6B549",
"V.	c #FBA71E",
"W.	c #F4BB62",
"X.	c #EBEFF6",
"Y.	c #F8F9F9",
"Z.	c #A6A6A5",
"`.	c #7F7F7F",
" +	c #F1F1F0",
".+	c #E9E2DC",
"++	c #F67E18",
"@+	c #F48024",
"#+	c #F17625",
"$+	c #F17525",
"%+	c #F37A26",
"&+	c #F37F25",
"*+	c #F48325",
"=+	c #EFA96A",
"-+	c #ECEFF0",
";+	c #E7E7E7",
">+	c #000000",
",+	c #C8C9C9",
"'+	c #BEBEBE",
")+	c #F3F3F2",
"!+	c #EDD1AB",
"~+	c #FB9F18",
"{+	c #EBDBC6",
"]+	c #F5F4F3",
"^+	c #878787",
"/+	c #272827",
"(+	c #C9C9CA",
"_+	c #F3F4F3",
":+	c #ECF0F2",
"<+	c #F09E5B",
"[+	c #F27F26",
"}+	c #F37926",
"|+	c #F17526",
"1+	c #F27826",
"2+	c #EEB17E",
"3+	c #F1F2F2",
"4+	c #A7A8A8",
"5+	c #535353",
"6+	c #FEFDFD",
"7+	c #EAE0D3",
"8+	c #FB9813",
"9+	c #EAE4DB",
"0+	c #FFFFFF",
"a+	c #292929",
"b+	c #DEDEDE",
"c+	c #EDF1F2",
"d+	c #EEAA74",
"e+	c #F37B24",
"f+	c #F27825",
"g+	c #F07425",
"h+	c #EFA569",
"i+	c #E8E8E8",
"j+	c #020202",
"k+	c #959595",
"l+	c #F4F4F2",
"m+	c #EDCEAA",
"n+	c #F9951B",
"o+	c #EBDAC6",
"p+	c #F4F3F3",
"q+	c #868686",
"r+	c #070707",
"s+	c #F5F4F4",
"t+	c #ECF0F3",
"u+	c #EF9A5B",
"v+	c #F17825",
"w+	c #F27C26",
"x+	c #F47D1F",
"y+	c #E8E9E9",
"z+	c #D7D7D7",
"A+	c #797978",
"B+	c #ACACAC",
"C+	c #FDFDFC",
"D+	c #EBF3FC",
"E+	c #F3A44A",
"F+	c #F89321",
"G+	c #F2AD60",
"H+	c #EBF1F6",
"I+	c #A0A0A0",
"J+	c #7B7C7B",
"K+	c #E5E5E5",
"L+	c #EAE0DB",
"M+	c #F47519",
"N+	c #F27925",
"O+	c #F27D26",
"P+	c #F18F42",
"Q+	c #E9EBEB",
"R+	c #EDEFF1",
"S+	c #F6F5F5",
"T+	c #F0F1F1",
"U+	c #EAF3FB",
"V+	c #EFB479",
"W+	c #F68D1F",
"X+	c #F78C1F",
"Y+	c #EEBE91",
"Z+	c #EAF2FA",
"`+	c #F0F0F1",
" @	c #F6F5F4",
".@	c #EDF0F2",
"+@	c #E8E7E7",
"@@	c #F18739",
"#@	c #F27926",
"$@	c #F17323",
"%@	c #F17221",
"&@	c #F17220",
"*@	c #F27621",
"=@	c #F27B22",
"-@	c #F38026",
";@	c #EFAA72",
">@	c #EDBE99",
",@	c #EFB582",
"'@	c #F3923B",
")@	c #F68721",
"!@	c #F58924",
"~@	c #F58925",
"{@	c #F5841E",
"]@	c #F29544",
"^@	c #EEB586",
"/@	c #ECBD98",
"(@	c #EEA56C",
"_@	c #F27921",
":@	c #F27722",
"<@	c #F07220",
"[@	c #F17121",
"}@	c #F17222",
"|@	c #F17425",
"1@	c #F4DBB8",
"2@	c #F4D0A6",
"3@	c #F4BE8C",
"4@	c #F39953",
"5@	c #F3822C",
"6@	c #F47C1D",
"7@	c #F48225",
"8@	c #F48424",
"9@	c #F48524",
"0@	c #F38224",
"a@	c #F27A1E",
"b@	c #F3812F",
"c@	c #F3A264",
"d@	c #F4C293",
"e@	c #F3D3AC",
"f@	c #F4DEBB",
"g@	c #F4DCB8",
"h@	c #F4DBB7",
"i@	c #F4E1C0",
"j@	c #F4B982",
"k@	c #F38531",
"l@	c #F37C22",
"m@	c #F2781D",
"n@	c #F38D3F",
"o@	c #F4C597",
"p@	c #F4E0BE",
"q@	c #F4DFBC",
"r@	c #F3DBB7",
"s@	c #F3DDB9",
"t@	c #F4DDBA",
"u@	c #F29C58",
"v@	c #F27620",
"w@	c #F37B26",
"x@	c #F3B57E",
"y@	c #F3DCB8",
"z@	c #F4E1BE",
"A@	c #F2A468",
"B@	c #F07323",
"C@	c #F17626",
"D@	c #F17423",
"E@	c #F3BF8F",
"F@	c #F4DDB9",
"G@	c #F4D5AE",
"H@	c #F3D5AF",
"I@	c #F4E3C2",
"J@	c #F09859",
"K@	c #FB7824",
"L@	c #F1B682",
"M@	c #FFF2CD",
"N@	c #542A10",
"O@	c #FFF3D2",
"                                                                ",
"                                                                ",
"                                                                ",
"                  .                           +                 ",
"                @ # $                       + % &               ",
"                * = - ;                   > , ' *               ",
"                - ) ! ~                   { ] ^ /               ",
"                ( ) _ : < [ } | 1 2 3 4 5 6 7 8 9 0             ",
"              a b c d e f g h i j k l m n o p q ! r             ",
"              s t u v w x y z A A z i x m B C D E F             ",
"              G H I 3 J i K L M M N O P J Q I R S T             ",
"            U V W X Y Z `  ...+.@... .#.$.m X %.&.*.=.          ",
"          -.;.>.,.'.).!.~.{.].^./.(._.z :.<.[.}.>.|.1.2.        ",
"          3.|.4.%.5.6.7.8.9.0.a.b.c.d.e.f.g.h.i.j.;.=.k.        ",
"      l.m.=.n.o.p.q.r.s.t.u.v.w.x.y.z.A.B.s.C.D.E.F.G.H.I.J.    ",
"        K.G.L.M.N.O.P.Q.R.S.T.U.V.W.X.Y.Z.`.t. +.+++@+K.#+      ",
"      $+%+&+*+=+-+;+>+>+,+'+)+!+~+{+]+^+>+/+(+_+:+<+[+}+$+$+    ",
"    |+J.1+m.@+2+3+4+>+>+>+5+6+7+8+9+0+a+>+>+>+b+c+d+e+f+|+|+g+  ",
"    |+|+#+%+&+h+-+i+j+>+>+k+l+m+n+o+p+q+>+>+r+s+t+u+q $+|+|+|+  ",
"  g+|+|+|+v+w+x+y+O.z+A+B+C+D+E+F+G+H+0+I+J+K+ +L+M+1+J.|+|+g+  ",
"  |+g+|+  J.N+O+P+Q+R+S+T+U+V+W+H X+Y+Z+`+ @.@+@@@#@$+g+  g+g+|+",
"        $@%@&@*@=@-@;@>@,@'@)@!@~@~@{@]@^@/@(@_@:@<@[@}@|@      ",
"            1@2@3@4@5@6@7@*+8@9@9@8@-.0@-@a@b@c@d@e@f@          ",
"            g@g@h@i@h@j@k@l@&+G.@+&+&+m@n@o@p@q@h@g@g@          ",
"                g@r@r@s@t@u@v@w@w@K.:@x@f@y@g@g@r@              ",
"                        g@z@A@B@C@D@E@F@G@H@                    ",
"                            I@J@K@L@F@                          ",
"                              M@N@O@                            ",
"                                >+                              ",
"                                                                ",
"                                                                ",
"                                                                "};
