<svg xmlns="http://www.w3.org/2000/svg" width="400" height="400">
  <path fill="#92a5ab" d="M76 25v170h247.5l76.5 40v-95l-86.4-49.65C304 82.22 304.1 73.38 300 65V0H101C89.21 0 76 13.21 76 25zm0 350c0 12.8 13.29 25 25 25h94L76 335"/>
  <path fill="#84949c" d="M400 140V96.03l-87-5.6m27.1 221.07L325 335H76l119 65h180c11.8 0 25-13.2 25-25V235l-64.8-36.3"/>
  <path fill="#6c7c84" d="M300 65c0 20.05 15 31 35 31h65L300 0m98.2 139.9c.7.7.8.7.3 0M0 215v100c0 10 9.99 20 20 20h305c9.4 0 20-10.6 20-20V215c0-9.4-10.6-20-20-20H20c-9.43 0-20 10.6-20 20zm42 10v25h34v-25c0-8 17-8 17 0v70c0 8-17 7.9-17 0v-30H42v30c0 8-16 7.6-16 0v-70c0-8 16-8 16 0zm246 0v59h37c8 0 7.9 16 0 16h-46c-3.5 0-8-3.5-8-7v-68c0-7.7 17-8 17 0zm-123 10h-22v60c0 8-16 7.9-16 0v-60h-22c-5 0-5-15 0-15h60c5 0 5 15 0 15zm39-10l12.9 45 14.1-45c2.7-8.5 24-8.6 24 0v70c0 7.9-15 7.9-15 0v-50l-16 50c-2.1 6.6-14.1 6.8-16 0l-14-50v50c0 6.9-16 5.9-16 0v-70c0-8.9 23.5-8.8 26 0z"/>
</svg>

