<svg xmlns:dc="http://purl.org/dc/elements/1.1/" xmlns:cc="http://creativecommons.org/ns#" xmlns:rdf="http://www.w3.org/1999/02/22-rdf-syntax-ns#" xmlns="http://www.w3.org/2000/svg" width="96" height="96" viewBox="0 0 25.399999 25.400001"><title>Classic Password Editor logo</title><metadata><rdf:RDF><cc:Work><dc:format>image/svg+xml</dc:format><dc:type rdf:resource="http://purl.org/dc/dcmitype/StillImage"/><dc:title>Classic Password Editor logo</dc:title><dc:date>2017-10-23</dc:date><dc:creator><cc:Agent><dc:title>Daniel Dawson</dc:title></cc:Agent></dc:creator></cc:Work></rdf:RDF></metadata><path d="M3.175 9.525V12.7h2.117v-1.323h2.116V12.7h2.117V9.525zm14.817-7.408a5.292 5.292 0 0 0-4.843 3.175H2.117v4.233h11.027a5.292 5.292 0 0 0 4.848 3.175 5.292 5.292 0 0 0 5.291-5.292 5.292 5.292 0 0 0-5.291-5.291zm0 3.704a1.587 1.587 0 0 1 1.587 1.587 1.587 1.587 0 0 1-1.587 1.588 1.587 1.587 0 0 1-1.588-1.588 1.587 1.587 0 0 1 1.588-1.587z" fill="#ff9600" stroke="#000" stroke-width="1.058"/><g stroke="#000" stroke-width="1.058"><path d="M21.96 19.05a2.117 2.117 0 0 1 1.497 2.592 2.117 2.117 0 0 1-2.592 1.497l.548-2.044z" fill="#ff9600"/><path d="M3.012 16.164l4.637-.949.255.069-1.095 4.089-.256-.069z" fill="#c4c4c4"/><path fill="#ff0" d="M8.16 15.352l13.8 3.698-1.096 4.089-13.8-3.698z"/><path d="M5.33 15.69l-.548 2.044-1.77-1.57z" fill="#070700"/></g><g style="line-height:125%;-inkscape-font-specification:'DejaVu Sans Bold';text-align:center"><path d="M23.716 17.32q-.292.151-.61.228-.316.078-.66.078-1.029 0-1.63-.574-.6-.576-.6-1.56 0-.986.6-1.56.601-.576 1.63-.576.344 0 .66.078.318.077.61.228v.852q-.295-.201-.582-.295-.286-.094-.603-.094-.568 0-.893.364-.325.364-.325 1.003 0 .637.325 1 .325.365.893.365.317 0 .603-.094.287-.094.582-.295z" style="-inkscape-font-specification:'DejaVu Sans Bold'" font-weight="700" font-size="5.644" font-family="DejaVu Sans" letter-spacing="0" word-spacing="0" text-anchor="middle" stroke-width=".265"/></g></svg>