<!-- This Source Code Form is subject to the terms of the Mozilla Public
   - License, v. 2.0. If a copy of the MPL was not distributed with this
   - file, You can obtain one at http://mozilla.org/MPL/2.0/. -->

<svg fill="context-fill" fill-opacity="context-fill-opacity" viewBox="0 0 16 16" xmlns="http://www.w3.org/2000/svg">
	<path
		style="fill:#cc0000;stroke-width:1.13985622"
		d="M 12.394032,7.5731646 A 2.6532174,1.6651553 60.448668 0 0 12.253227,7.8122664 L 3.3576503,4.4860091 a 2.6735366,1.6779075 60.448663 0 0 2.137495,3.0895247 l 3.4722443,1.2978507 0.5608152,2.3603865 a 2.6585647,1.6685113 60.448668 0 0 -0.1937854,0.179197 2.6970636,1.692673 60.448665 1 0 2.0706526,0.04352 l -0.436808,-1.8328705 1.455028,0.5402545 a 2.6735366,1.6779075 60.448663 1 0 -0.02923,-2.5906903 z m -0.606229,6.9187374 a 1.3367683,0.83895371 60.448663 1 1 -0.271438,-1.711998 1.3378376,0.83962489 60.448667 0 1 0.271438,1.711998 z m 3.059629,-3.839771 A 1.3367683,0.83895371 60.448663 1 1 14.575995,8.9401364 1.3378376,0.83962489 60.448667 0 1 14.847432,10.652131 Z M 9.338916,2.7516872 A 2.6735366,1.6779075 60.448663 0 0 6.8770985,0.06917464 l 1.306726,5.51150096 2.0021645,0.7485698 z"
	/>
	<g transform="translate(-3.9669421,0.01322315)">
		<path
			d="M 3.1210938 0.013671875 A 3 3 0 0 0 0.033203125 3.0136719 L 0.033203125 12.013672 A 4 4 0 1 0 8.0332031 12.013672 L 8.0332031 9.0605469 L 7.0332031 8.6152344 L 7.0332031 12.013672 A 3 3 0 0 1 1.0332031 12.013672 L 1.0332031 3.0136719 A 2 2 0 0 1 5.03125 2.9394531 L 6.0332031 3.3808594 L 6.0332031 3.0136719 A 3 3 0 0 0 3.1210938 0.013671875 z M 2.5195312 5.0117188 A 0.5 0.5 0 0 0 2.4980469 5.0136719 A 0.5 0.5 0 0 0 2.0332031 5.5136719 L 2.0332031 11.013672 A 2 2 0 0 0 6.0332031 11.013672 L 6.0332031 8.1679688 L 5.0332031 7.7226562 L 5.0332031 11.013672 A 1 1 0 0 1 3.0332031 11.013672 L 3.0332031 5.5136719 A 0.5 0.5 0 0 0 2.5195312 5.0117188 z "
			transform="translate(3.9669421,-0.01322315)"
		/>
	</g>
</svg>
