<?xml version="1.0" encoding="UTF-8" standalone="no"?>
<!-- Generator: Adobe Illustrator 23.0.1, SVG Export Plug-In . SVG Version: 6.00 Build 0)  -->

<svg
   xmlns:ns="&amp;ns_sfw;"
   xmlns:dc="http://purl.org/dc/elements/1.1/"
   xmlns:cc="http://creativecommons.org/ns#"
   xmlns:rdf="http://www.w3.org/1999/02/22-rdf-syntax-ns#"
   xmlns:svg="http://www.w3.org/2000/svg"
   xmlns="http://www.w3.org/2000/svg"
   xmlns:sodipodi="http://sodipodi.sourceforge.net/DTD/sodipodi-0.dtd"
   xmlns:inkscape="http://www.inkscape.org/namespaces/inkscape"
   version="1.1"
   id="Content"
   x="0px"
   y="0px"
   viewBox="0 0 6596.059 6596.0593"
   enable-background="new 0 0 6596.059 6592.51"
   xml:space="preserve"
   sodipodi:docname="google_keep_icon.svg"
   width="6596.0591"
   height="6596.0591"
   inkscape:version="0.92.5 (2060ec1f9f, 2020-04-08)"><defs
   id="defs40" /><sodipodi:namedview
   pagecolor="#ffffff"
   bordercolor="#666666"
   borderopacity="1"
   objecttolerance="10"
   gridtolerance="10"
   guidetolerance="10"
   inkscape:pageopacity="0"
   inkscape:pageshadow="2"
   inkscape:window-width="1848"
   inkscape:window-height="1015"
   id="namedview38"
   showgrid="false"
   inkscape:zoom="0.035798203"
   inkscape:cx="4457.3056"
   inkscape:cy="3296.2549"
   inkscape:window-x="72"
   inkscape:window-y="28"
   inkscape:window-maximized="1"
   inkscape:current-layer="Content" />
<metadata
   id="metadata85">
	<rdf:RDF>
		<cc:Work
   rdf:about="">
			<dc:format>image/svg+xml</dc:format>
			<dc:type
   rdf:resource="http://purl.org/dc/dcmitype/StillImage" />
			<dc:title>Google Keep</dc:title>
		</cc:Work>
	</rdf:RDF>
	<ns:sfw>
		<ns:slices />
		<ns:sliceSourceBounds
   bottomLeftOrigin="true"
   height="7890.146"
   width="7894.421"
   x="-3201.925"
   y="-4497.927">
			</ns:sliceSourceBounds>
	</ns:sfw>
</metadata>
<filter
   height="192"
   id="material-drop-shadow"
   width="192"
   x="-24"
   y="-24">
	<feGaussianBlur
   id="feGaussianBlur10"
   in="SourceGraphic"
   result="blur"
   stdDeviation="4" />
	<feOffset
   dx="4"
   dy="4"
   id="feOffset12"
   in="blur"
   result="offsetBlurredGraphic" />
</filter>
<g
   id="g76"
   transform="translate(0,3.5493231)">
	<g
   id="g72">
		<path
   id="path24"
   inkscape:connector-curvature="0"
   d="M 4686.673,6592.51 H 520.742 C 233.493,6591.67 0.841,6359.143 0,6072.048 V 520.461 C 0.841,233.367 233.493,0.84 520.742,0 h 5554.576 c 287.249,0.84 519.901,233.367 520.742,520.461 v 4163.69 l -1128.273,780.692 z"
   style="fill:#f4b400" />
		
			<linearGradient
   id="SVGID_1_"
   gradientUnits="userSpaceOnUse"
   x1="1975.772"
   y1="4033.5845"
   x2="4798.5518"
   y2="6856.3638"
   gradientTransform="matrix(1.2639,0,0,1.2632,-389.1291,-3094.8689)">
			<stop
   offset="0"
   style="stop-color:#BF360C;stop-opacity:0.1"
   id="stop7" />
			<stop
   offset="1"
   style="stop-color:#BF360C;stop-opacity:0.02"
   id="stop9" />
		</linearGradient>
		<path
   d="m 2194.058,1496.728 c -610.435,609.131 -611.226,1597.517 -1.768,2207.623 0.3,0.3 0.6,0.6 0.9,0.9 l 323.728,324.421 V 5204.613 L 3905.561,6592.51 h 781.113 L 6596.059,4684.152 V 3690.504 L 4402.87,1498.495 C 3793.411,888.389 2804.492,887.598 2194.058,1496.728 Z"
   id="path12"
   inkscape:connector-curvature="0"
   style="fill:url(#SVGID_1_)" />
		<g
   id="g38">
			<g
   id="g34"
   style="opacity:0.2;filter:url(#material-drop-shadow)">
				<path
   id="path32_1_"
   inkscape:connector-curvature="0"
   d="M 4686.673,6592.51 V 5204.613 c -0.079,-287.364 232.936,-520.382 520.455,-520.461 0.096,0 0.191,0 0.287,0 h 1388.644 z"
   style="fill:#3e2723" />
			</g>
			<path
   id="path36"
   inkscape:connector-curvature="0"
   d="M 4686.673,6592.51 V 5204.613 c -0.079,-287.364 232.936,-520.382 520.455,-520.461 0.096,0 0.191,0 0.287,0 h 1388.644 z"
   style="fill:#fada80" />
		</g>
		<path
   d="m 5207.128,4684.152 c -287.519,0.079 -520.534,233.097 -520.454,520.461 v 43.084 c 0.079,-287.364 233.223,-520.253 520.741,-520.174 h 1345.249 l 43.395,-43.372 H 5207.415 c -0.096,0 -0.191,0 -0.287,0 z"
   id="path18"
   inkscape:connector-curvature="0"
   style="fill:#ffffff;fill-opacity:0.2" />
		<g
   id="g56">
			<g
   id="g50">
				<path
   id="path46"
   inkscape:connector-curvature="0"
   enable-background="new    "
   d="m 3298.03,1040.923 c -862.688,-0.105 -1562.119,698.781 -1562.224,1561.005 -0.068,557.867 297.704,1073.377 781.112,1352.277 v 1250.408 h 347.161 v 346.975 h 954.693 v -346.975 h 347.161 V 3900.424 c 717.367,-479.021 910.376,-1448.572 431.097,-2165.553 -289.867,-433.629 -777.216,-693.979 -1299,-693.948 z m 520.741,3816.716 h -954.693 v -346.974 h 954.693 z m 0,-1158.46 v 464.512 h -954.693 v -427.212 c -627.01,-239.395 -941.129,-941.48 -701.605,-1568.153 239.523,-626.672 941.987,-940.622 1568.997,-701.228 627.01,239.394 941.129,941.48 701.605,1568.153 -111.638,292.082 -331.671,529.889 -614.304,663.928 z"
   style="opacity:0.1;fill:#3e2723" />
				<path
   id="path48"
   inkscape:connector-curvature="0"
   d="m 3298.03,1040.923 c -862.688,-0.105 -1562.119,698.781 -1562.224,1561.005 -0.068,557.867 297.704,1073.377 781.112,1352.277 v 1250.408 h 347.161 v 346.975 h 954.693 v -346.975 h 347.161 V 3900.424 c 717.367,-479.021 910.376,-1448.572 431.097,-2165.553 -289.867,-433.629 -777.216,-693.979 -1299,-693.948 z m 520.741,3816.716 h -954.693 v -346.974 h 954.693 z m 0,-1158.46 v 464.512 h -954.693 v -427.212 c -627.01,-239.395 -941.129,-941.48 -701.605,-1568.153 239.523,-626.672 941.987,-940.622 1568.997,-701.228 627.01,239.394 941.129,941.48 701.605,1568.153 -111.638,292.082 -331.671,529.889 -614.304,663.928 z"
   style="fill:#f1f1f1" />
			</g>
			<path
   id="path52"
   inkscape:connector-curvature="0"
   d="m 2864.078,4901.011 h 954.693 v -43.372 h -954.693 z m 0,-693.949 h 954.693 v -43.372 h -954.693 z m 0,-470.583 C 2400.106,3558.516 2091.162,3116.3 2083.833,2619.656 c 0,8.674 -0.868,17.349 -0.868,26.457 0.711,503.105 311.166,953.885 781.112,1134.172 v -43.806 z m 954.693,-37.3 v 43.372 c 423.652,-201.276 693.797,-628.044 694.322,-1096.872 0,-8.674 -0.434,-16.915 -0.868,-25.589 -6.843,462.284 -275.667,880.604 -693.454,1079.089 z M 3298.03,1040.923 c -862.764,0.069 -1562.156,699.084 -1562.224,1561.384 0,6.072 0.434,12.144 0.434,18.65 13.526,-862.087 723.726,-1549.988 1586.277,-1536.47 843.655,13.222 1524.309,693.699 1537.304,1536.903 0,-6.506 0.434,-12.578 0.434,-19.084 -0.07,-862.299 -699.461,-1561.314 -1562.225,-1561.383 z"
   style="fill:#ffffff;fill-opacity:0.4" />
			<path
   id="path54"
   inkscape:connector-curvature="0"
   d="M 2516.917,3954.205 C 2039.48,3678.661 1742.772,3171.94 1736.239,2620.957 c 0,8.241 -0.434,16.481 -0.434,24.722 -0.21,557.806 297.619,1073.27 781.112,1351.898 z m 347.161,599.832 h 954.693 v -43.372 H 2864.078 Z M 3298.03,1431.269 c 660.686,0.729 1199.871,528.645 1214.196,1188.821 0,-6.072 0.868,-11.71 0.868,-17.783 0,-670.7 -544.002,-1214.41 -1215.063,-1214.41 -671.061,0 -1215.064,543.71 -1215.064,1214.41 0,5.638 0.434,11.277 0.868,16.915 14.7,-659.874 553.802,-1187.324 1214.195,-1187.953 z m 520.741,3816.716 h 347.161 v -43.372 H 3818.771 Z M 4859.82,2621.39 c -5.779,514.709 -265.458,993.371 -693.888,1279.034 v 43.372 c 434.085,-289.424 694.654,-776.588 694.322,-1298.117 0,-8.241 -0.434,-16.048 -0.434,-24.289 z M 2864.078,5204.613 h -347.161 v 43.372 h 347.161 z m 0,390.346 h 954.693 v -43.372 h -954.693 z"
   style="fill:#bf360c;fill-opacity:0.1" />
		</g>
		<g
   id="g68">
			<path
   id="path64"
   inkscape:connector-curvature="0"
   d="M 6075.317,0 H 520.742 C 233.493,0.84 0.841,233.367 0,520.461 v 43.372 C 0.841,276.739 233.493,44.212 520.742,43.372 h 5554.576 c 287.249,0.84 519.901,233.367 520.742,520.461 V 520.461 C 6595.219,233.367 6362.566,0.84 6075.317,0 Z"
   style="fill:#ffffff;fill-opacity:0.2" />
			<path
   id="path66"
   inkscape:connector-curvature="0"
   d="M 520.742,6549.138 C 233.493,6548.298 0.841,6315.771 0,6028.677 v 43.372 c 0.841,287.095 233.493,519.622 520.742,520.461 H 4686.674 L 6596.06,4684.152 h -43.395 L 4686.673,6549.138 Z"
   style="fill:#bf360c;fill-opacity:0.1" />
		</g>
	</g>
	
		<radialGradient
   id="path74_1_"
   cx="465.31589"
   cy="2618.032"
   r="6080.5532"
   gradientTransform="matrix(1.2639,0,0,1.2632,-389.1291,-3094.8689)"
   gradientUnits="userSpaceOnUse">
		<stop
   offset="0"
   style="stop-color:#FFFFFF;stop-opacity:0.1"
   id="stop30" />
		<stop
   offset="1"
   style="stop-color:#FFFFFF;stop-opacity:0"
   id="stop32" />
	</radialGradient>
	<path
   id="path74"
   inkscape:connector-curvature="0"
   d="M 4686.673,6592.51 H 520.742 C 233.493,6591.67 0.841,6359.143 0,6072.048 V 520.461 C 0.841,233.367 233.493,0.84 520.742,0 h 5554.576 c 287.249,0.84 519.901,233.367 520.742,520.461 v 4163.69 z"
   style="fill:url(#path74_1_)" />
</g>
</svg>