<?xml version="1.0" encoding="UTF-8"?>
<svg width="32" height="32" version="1.1" viewBox="0 0 32 32" xmlns="http://www.w3.org/2000/svg" xmlns:cc="http://creativecommons.org/ns#" xmlns:dc="http://purl.org/dc/elements/1.1/" xmlns:rdf="http://www.w3.org/1999/02/22-rdf-syntax-ns#">
 <metadata>
  <rdf:RDF>
   <cc:Work rdf:about="">
    <dc:format>image/svg+xml</dc:format>
    <dc:type rdf:resource="http://purl.org/dc/dcmitype/StillImage"/>
    <dc:title/>
   </cc:Work>
  </rdf:RDF>
 </metadata>
 <path d="m12.9 4a8.91 8.91 0 0 1 8.91 8.91c0 2.21-0.809 4.24-2.14 5.8l0.37 0.37h1.08l6.86 6.86-2.06 2.06-6.86-6.86v-1.08l-0.37-0.37c-1.56 1.33-3.59 2.14-5.8 2.14a8.91 8.91 0 0 1-8.91-8.91 8.91 8.91 0 0 1 8.91-8.91m0 2.74c-3.43 0-6.17 2.74-6.17 6.17 0 3.43 2.74 6.17 6.17 6.17 3.43 0 6.17-2.74 6.17-6.17 0-3.43-2.74-6.17-6.17-6.17z" stroke-width="1.37"/>
</svg>
