<svg id="svg" version="1.1" xmlns="http://www.w3.org/2000/svg" xmlns:xlink="http://www.w3.org/1999/xlink" width="400" height="400" viewBox="0, 0, 400,400"><g id="svgg"><path id="path0" d="M268.180 0.372 C 267.807 0.737,262.470 1.204,258.681 1.204 C 257.626 1.204,255.696 1.563,254.394 2.002 C 253.091 2.441,251.440 2.800,250.725 2.800 C 250.009 2.800,248.069 3.238,246.412 3.772 C 244.755 4.307,241.870 5.225,240.000 5.813 C 236.466 6.923,235.229 7.402,231.691 9.030 C 230.531 9.563,229.262 10.000,228.871 10.000 C 228.480 10.000,227.989 10.156,227.780 10.347 C 227.571 10.538,226.500 11.021,225.400 11.419 C 224.300 11.817,222.950 12.445,222.400 12.815 C 221.850 13.184,220.410 14.024,219.200 14.680 C 210.982 19.137,210.404 19.493,205.424 23.173 C 199.080 27.859,190.300 35.873,185.292 41.549 C 183.811 43.227,182.496 44.690,182.369 44.800 C 181.379 45.656,176.187 52.473,174.438 55.213 C 173.249 57.076,171.764 59.349,171.138 60.265 C 170.512 61.181,170.000 62.049,170.000 62.194 C 170.000 62.733,164.304 73.032,163.567 73.826 C 163.116 74.312,162.800 75.225,162.800 76.046 C 162.800 76.813,162.636 77.611,162.437 77.820 C 162.063 78.211,160.944 81.496,159.039 87.800 C 158.441 89.780,157.589 92.570,157.147 94.001 C 156.181 97.125,155.182 102.764,154.919 106.583 C 154.788 108.495,154.488 109.670,153.962 110.339 C 153.442 111.000,153.321 111.464,153.587 111.784 C 153.815 112.059,154.045 117.488,154.140 124.827 C 154.230 131.742,154.510 138.840,154.763 140.600 C 155.016 142.360,155.304 144.422,155.401 145.183 C 155.499 145.944,155.847 147.384,156.174 148.383 C 156.710 150.021,157.239 152.148,158.468 157.600 C 158.692 158.590,159.033 159.760,159.226 160.200 C 159.420 160.640,159.832 161.720,160.141 162.600 C 160.450 163.480,161.160 165.280,161.717 166.600 C 162.274 167.920,163.111 169.947,163.578 171.104 C 168.056 182.217,179.099 199.758,185.000 205.130 C 187.431 207.343,193.299 213.247,194.412 214.600 C 194.956 215.260,195.940 216.208,196.600 216.706 C 197.260 217.204,199.870 219.174,202.400 221.084 C 206.451 224.143,214.317 229.378,216.000 230.137 C 216.330 230.285,217.140 230.735,217.800 231.137 C 218.460 231.539,219.900 232.365,221.000 232.973 C 222.100 233.582,223.270 234.301,223.600 234.571 C 223.930 234.841,225.100 235.353,226.200 235.707 C 227.300 236.062,229.460 236.834,231.000 237.424 C 236.908 239.686,240.237 240.874,241.200 241.063 C 241.750 241.172,242.560 241.414,243.000 241.603 C 243.440 241.791,244.340 242.026,245.000 242.125 C 245.660 242.224,248.342 242.866,250.959 243.552 C 253.577 244.238,255.993 244.800,256.328 244.800 C 256.663 244.800,257.251 245.084,257.635 245.432 C 258.175 245.920,258.517 245.966,259.140 245.632 C 261.042 244.614,264.400 245.966,264.400 247.750 C 264.400 248.134,264.809 247.929,265.579 247.159 L 266.759 245.980 278.211 246.012 C 285.049 246.032,289.852 245.889,290.132 245.658 C 290.389 245.446,291.860 245.185,293.400 245.080 C 298.007 244.766,303.657 243.769,306.000 242.857 C 307.210 242.386,308.659 242.000,309.220 242.000 C 309.781 242.000,310.411 241.852,310.620 241.671 C 310.829 241.490,312.080 241.014,313.400 240.615 C 314.720 240.215,316.160 239.734,316.600 239.545 C 318.873 238.572,323.098 237.200,323.822 237.200 C 324.276 237.200,325.716 236.553,327.024 235.762 C 328.331 234.971,331.470 233.244,334.000 231.923 C 347.062 225.106,360.109 214.757,369.203 204.001 C 370.411 202.572,371.818 200.952,372.328 200.401 C 375.965 196.477,382.348 186.631,387.528 176.956 C 388.168 175.760,389.067 173.561,389.748 171.521 C 390.094 170.487,390.714 168.867,391.127 167.921 C 391.540 166.974,392.191 165.210,392.573 164.000 C 393.328 161.611,393.580 160.926,394.486 158.800 C 394.814 158.030,395.311 156.410,395.590 155.200 C 395.870 153.990,396.249 152.640,396.433 152.200 C 396.617 151.760,397.069 149.827,397.438 147.904 C 397.806 145.982,398.333 144.222,398.608 143.993 C 398.986 143.679,399.009 143.183,398.700 141.967 C 398.409 140.820,398.422 140.069,398.746 139.359 C 398.996 138.811,399.200 136.851,399.200 135.005 C 399.200 133.158,399.380 131.536,399.600 131.400 C 399.845 131.249,400.000 128.070,400.000 123.200 C 400.000 118.330,399.845 115.151,399.600 115.000 C 399.086 114.682,399.073 108.800,399.587 108.800 C 399.799 108.800,399.634 108.215,399.219 107.500 C 398.799 106.776,398.346 104.959,398.195 103.400 C 398.047 101.860,397.564 99.250,397.123 97.600 C 396.682 95.950,396.237 93.970,396.135 93.200 C 396.034 92.430,395.790 91.440,395.593 91.000 C 394.669 88.930,394.000 87.049,394.000 86.519 C 394.000 85.918,392.249 81.136,391.579 79.905 C 391.370 79.523,391.200 78.888,391.200 78.494 C 391.200 78.100,390.962 77.423,390.671 76.989 C 390.380 76.555,389.901 75.570,389.606 74.800 C 388.588 72.143,384.276 63.395,383.001 61.400 C 382.298 60.300,381.297 58.680,380.777 57.800 C 370.403 40.262,349.045 21.330,329.600 12.435 C 326.630 11.077,323.865 9.779,323.457 9.552 C 323.048 9.325,321.698 8.799,320.457 8.383 C 319.215 7.967,316.940 7.179,315.400 6.631 C 313.860 6.082,312.373 5.626,312.096 5.617 C 311.818 5.608,310.828 5.254,309.896 4.832 C 308.963 4.409,307.570 3.977,306.800 3.872 C 306.030 3.767,304.050 3.306,302.400 2.848 C 300.750 2.390,298.012 1.896,296.315 1.751 C 294.132 1.565,292.997 1.270,292.432 0.744 C 291.574 -0.055,290.400 -0.254,290.400 0.400 C 290.400 0.626,289.267 0.800,287.800 0.800 C 286.333 0.800,285.200 0.626,285.200 0.400 C 285.200 -0.117,268.707 -0.144,268.180 0.372 M290.400 27.230 C 294.363 27.807,296.730 28.250,299.800 28.986 C 301.340 29.356,303.230 29.794,304.000 29.961 C 307.276 30.668,318.744 35.686,323.923 38.677 C 328.469 41.304,341.427 52.183,344.177 55.684 C 345.264 57.068,346.723 58.920,347.420 59.800 C 353.331 67.268,357.048 72.899,359.650 78.328 C 364.082 87.575,365.687 92.920,368.080 106.400 C 368.295 107.610,368.564 113.460,368.679 119.400 C 368.896 130.687,368.670 133.968,367.120 142.000 C 366.674 144.310,366.159 147.010,365.976 148.000 C 363.783 159.857,356.870 172.500,344.215 187.800 C 340.675 192.079,331.106 200.277,324.400 204.774 C 321.096 206.990,311.678 211.829,308.282 213.056 C 305.289 214.137,299.043 215.901,297.400 216.129 C 296.520 216.251,294.180 216.647,292.200 217.008 C 286.539 218.040,269.721 218.292,263.922 217.431 C 255.932 216.246,251.974 215.420,248.000 214.110 C 240.308 211.574,228.840 205.437,223.163 200.820 C 215.154 194.307,210.887 190.380,208.426 187.261 C 206.924 185.357,204.405 182.180,202.828 180.200 C 198.831 175.183,194.564 168.047,191.585 161.400 C 190.275 158.476,186.456 146.632,185.986 144.034 C 183.112 128.147,183.460 109.408,186.862 96.800 C 188.207 91.815,188.291 91.530,189.521 87.745 C 193.733 74.790,206.120 56.864,216.893 48.134 C 217.934 47.290,220.549 45.146,222.703 43.370 C 227.983 39.016,230.117 37.697,236.600 34.784 C 242.060 32.330,253.987 28.771,260.600 27.622 C 262.140 27.355,264.300 26.979,265.400 26.786 C 267.818 26.363,286.755 26.699,290.400 27.230 " stroke="none" fill="#f34545" fill-rule="evenodd"></path><path id="path1" d="M170.545 201.000 C 170.383 201.420,169.728 201.600,168.357 201.600 C 167.281 201.600,166.400 201.780,166.400 202.000 C 166.400 202.220,166.034 202.400,165.587 202.400 C 165.141 202.400,164.671 202.670,164.545 203.000 C 164.418 203.330,163.974 203.600,163.557 203.600 C 163.141 203.600,162.800 203.780,162.800 204.000 C 162.800 204.220,162.530 204.400,162.200 204.400 C 161.870 204.400,161.600 204.670,161.600 205.000 C 161.600 205.330,161.407 205.600,161.171 205.600 C 160.618 205.600,159.600 206.618,159.600 207.171 C 159.600 207.407,159.407 207.600,159.171 207.600 C 158.618 207.600,157.600 208.618,157.600 209.171 C 157.600 209.407,157.395 209.600,157.144 209.600 C 156.610 209.600,155.631 210.793,155.613 211.466 C 155.606 211.723,154.880 212.705,154.000 213.649 C 153.120 214.592,152.400 215.598,152.400 215.882 C 152.400 216.167,152.220 216.400,152.000 216.400 C 151.780 216.400,151.600 216.670,151.600 217.000 C 151.600 217.330,151.330 217.600,151.000 217.600 C 150.627 217.600,150.400 217.978,150.400 218.600 C 150.400 219.150,150.220 219.600,150.000 219.600 C 149.780 219.600,149.600 220.050,149.600 220.600 C 149.600 221.150,149.373 221.600,149.095 221.600 C 148.817 221.600,148.252 222.050,147.839 222.600 C 147.426 223.150,146.819 223.600,146.490 223.600 C 146.161 223.600,145.475 224.050,144.965 224.600 C 144.191 225.435,143.672 225.600,141.819 225.600 C 140.599 225.600,139.600 225.780,139.600 226.000 C 139.600 226.220,138.970 226.400,138.200 226.400 C 137.358 226.400,136.497 226.703,136.039 227.161 C 135.621 227.579,134.901 228.041,134.439 228.187 C 133.978 228.334,133.600 228.712,133.600 229.027 C 133.600 229.372,133.201 229.600,132.600 229.600 C 132.050 229.600,131.600 229.780,131.600 230.000 C 131.600 230.220,131.150 230.400,130.600 230.400 C 129.959 230.400,129.600 230.625,129.600 231.027 C 129.600 231.472,129.368 231.580,128.798 231.399 C 128.265 231.230,127.915 231.355,127.755 231.772 C 127.623 232.118,127.084 232.400,126.557 232.400 C 125.973 232.400,125.600 232.634,125.600 233.000 C 125.600 233.330,125.407 233.600,125.171 233.600 C 124.618 233.600,123.600 234.618,123.600 235.171 C 123.600 235.407,123.407 235.600,123.171 235.600 C 122.618 235.600,121.600 236.618,121.600 237.171 C 121.600 237.407,121.442 237.600,121.250 237.600 C 120.872 237.600,110.986 247.108,99.520 258.500 C 95.589 262.405,92.311 265.600,92.235 265.600 C 92.046 265.600,85.600 272.059,85.600 272.249 C 85.600 272.332,84.655 273.355,83.500 274.522 C 80.839 277.212,79.600 278.699,79.600 279.203 C 79.600 279.421,79.150 279.600,78.600 279.600 C 77.800 279.600,77.600 279.800,77.600 280.600 C 77.600 281.400,77.400 281.600,76.600 281.600 C 75.800 281.600,75.600 281.800,75.600 282.600 C 75.600 283.400,75.400 283.600,74.600 283.600 C 73.800 283.600,73.600 283.800,73.600 284.600 C 73.600 285.400,73.400 285.600,72.600 285.600 C 71.800 285.600,71.600 285.800,71.600 286.600 C 71.600 287.222,71.373 287.600,71.000 287.600 C 70.670 287.600,70.400 287.780,70.400 288.000 C 70.400 288.220,70.136 288.400,69.813 288.400 C 69.011 288.400,56.103 301.277,55.613 302.566 C 55.369 303.208,54.913 303.600,54.410 303.600 C 53.813 303.600,53.600 303.863,53.600 304.600 C 53.600 305.310,53.383 305.600,52.852 305.600 C 52.440 305.600,51.675 306.229,51.152 306.997 C 50.628 307.766,50.065 308.396,49.900 308.397 C 49.735 308.399,49.600 308.670,49.600 309.000 C 49.600 309.330,49.407 309.600,49.171 309.600 C 48.618 309.600,47.600 310.618,47.600 311.171 C 47.600 311.407,47.407 311.600,47.171 311.600 C 46.618 311.600,45.600 312.618,45.600 313.171 C 45.600 313.407,45.407 313.600,45.171 313.600 C 44.618 313.600,43.600 314.618,43.600 315.171 C 43.600 315.407,43.169 315.600,42.643 315.600 C 42.116 315.600,41.590 315.850,41.473 316.155 C 41.323 316.544,41.490 316.649,42.030 316.508 C 42.611 316.356,42.800 316.515,42.800 317.153 C 42.800 317.619,42.530 318.027,42.200 318.060 C 41.870 318.093,41.375 318.138,41.100 318.160 C 40.825 318.182,40.655 317.945,40.723 317.632 C 40.824 317.163,40.737 317.154,40.223 317.581 C 39.880 317.865,39.600 318.423,39.600 318.821 C 39.600 319.267,39.254 319.593,38.700 319.672 C 38.130 319.753,37.754 320.121,37.675 320.675 C 37.598 321.221,37.221 321.598,36.675 321.675 C 36.121 321.754,35.753 322.130,35.672 322.700 C 35.580 323.351,35.276 323.600,34.572 323.600 C 33.500 323.600,33.255 324.293,34.200 324.655 C 34.966 324.949,34.962 325.495,34.190 326.267 C 33.557 326.900,32.400 326.735,32.400 326.013 C 32.400 325.786,32.220 325.600,32.000 325.600 C 31.780 325.600,31.600 326.050,31.600 326.600 C 31.600 327.323,31.385 327.600,30.824 327.600 C 29.891 327.600,29.314 328.376,29.953 328.771 C 30.741 329.258,30.008 331.617,28.944 332.021 C 28.425 332.219,28.000 332.659,28.000 333.000 C 28.000 333.341,27.550 333.791,27.000 334.000 C 26.450 334.209,26.000 334.659,26.000 335.000 C 26.000 335.341,25.550 335.791,25.000 336.000 C 24.450 336.209,24.000 336.660,24.000 337.003 C 24.000 337.346,23.657 337.755,23.239 337.913 C 22.820 338.071,21.785 339.007,20.939 339.994 C 19.597 341.557,17.444 343.849,10.600 350.998 C 4.491 357.380,1.454 361.161,1.044 362.900 C 0.902 363.505,0.608 364.000,0.392 364.000 C -0.302 364.000,-0.102 371.075,0.600 371.345 C 0.930 371.471,1.200 371.823,1.200 372.127 C 1.200 375.396,10.445 386.739,18.465 393.311 C 20.604 395.064,26.979 398.800,27.831 398.800 C 28.158 398.800,28.529 399.070,28.655 399.400 C 28.915 400.077,36.000 400.309,36.000 399.640 C 36.000 399.443,36.765 398.884,37.700 398.399 C 40.107 397.151,43.772 394.421,46.759 391.653 C 48.167 390.349,50.452 388.408,51.836 387.341 C 53.221 386.273,54.364 385.175,54.377 384.900 C 54.391 384.598,54.965 384.400,55.829 384.400 C 57.226 384.400,58.400 383.683,58.400 382.829 C 58.400 382.593,58.593 382.400,58.829 382.400 C 59.382 382.400,60.400 381.382,60.400 380.829 C 60.400 380.593,60.593 380.400,60.829 380.400 C 61.382 380.400,62.400 379.382,62.400 378.829 C 62.400 378.593,62.593 378.400,62.829 378.400 C 63.382 378.400,64.400 377.382,64.400 376.829 C 64.400 376.593,64.593 376.400,64.829 376.400 C 65.382 376.400,66.400 375.382,66.400 374.829 C 66.400 374.593,66.690 374.400,67.043 374.400 C 67.524 374.400,67.625 374.155,67.444 373.433 C 67.311 372.901,67.336 372.406,67.501 372.333 C 67.665 372.260,68.070 371.718,68.400 371.128 C 69.590 369.002,138.952 298.951,143.804 294.976 C 145.162 293.863,146.052 293.440,147.039 293.440 C 147.889 293.440,148.400 293.245,148.400 292.920 C 148.400 292.634,148.593 292.400,148.829 292.400 C 149.382 292.400,150.400 291.382,150.400 290.829 C 150.400 290.593,150.593 290.400,150.829 290.400 C 151.382 290.400,152.400 289.382,152.400 288.829 C 152.400 288.593,152.593 288.400,152.829 288.400 C 153.382 288.400,154.400 287.382,154.400 286.829 C 154.400 286.593,154.593 286.400,154.829 286.400 C 155.382 286.400,156.400 285.382,156.400 284.829 C 156.400 284.593,156.593 284.400,156.829 284.400 C 157.382 284.400,158.400 283.382,158.400 282.829 C 158.400 282.593,158.593 282.400,158.829 282.400 C 159.382 282.400,160.400 281.382,160.400 280.829 C 160.400 280.593,160.593 280.400,160.829 280.400 C 161.382 280.400,162.400 279.382,162.400 278.829 C 162.400 278.593,162.593 278.400,162.829 278.400 C 163.254 278.400,164.400 277.429,164.400 277.069 C 164.400 276.965,165.750 275.535,167.400 273.890 C 169.050 272.246,170.400 270.627,170.400 270.293 C 170.400 269.959,170.670 269.582,171.000 269.455 C 171.410 269.298,171.600 268.657,171.600 267.436 C 171.600 266.452,171.780 265.536,172.000 265.400 C 172.220 265.264,172.400 264.823,172.400 264.419 C 172.400 264.016,172.670 263.582,173.000 263.455 C 173.330 263.329,173.600 262.859,173.600 262.413 C 173.600 261.966,173.780 261.600,174.000 261.600 C 174.220 261.600,174.400 261.330,174.400 261.000 C 174.400 260.670,174.605 260.400,174.856 260.400 C 175.398 260.400,176.369 259.203,176.387 258.514 C 176.406 257.794,178.674 255.600,179.399 255.600 C 179.743 255.600,180.129 255.330,180.255 255.000 C 180.382 254.670,180.659 254.400,180.871 254.400 C 181.390 254.400,182.400 253.362,182.400 252.829 C 182.400 252.593,182.593 252.400,182.829 252.400 C 183.382 252.400,184.400 251.382,184.400 250.829 C 184.400 250.593,184.593 250.400,184.829 250.400 C 185.382 250.400,186.400 249.382,186.400 248.829 C 186.400 248.593,186.593 248.400,186.829 248.400 C 187.382 248.400,188.400 247.382,188.400 246.829 C 188.400 246.593,188.593 246.400,188.829 246.400 C 189.382 246.400,190.400 245.382,190.400 244.829 C 190.400 244.593,190.735 244.400,191.144 244.400 C 192.099 244.400,195.600 241.157,195.600 240.272 C 195.600 239.902,195.780 239.600,196.000 239.600 C 196.220 239.600,196.400 239.330,196.400 239.000 C 196.400 238.670,196.670 238.400,197.000 238.400 C 197.373 238.400,197.600 238.022,197.600 237.400 C 197.600 236.850,197.780 236.400,198.000 236.400 C 198.220 236.400,198.400 235.950,198.400 235.400 C 198.400 234.778,198.627 234.400,199.000 234.400 C 199.841 234.400,199.897 223.815,199.058 223.320 C 198.360 222.908,197.601 221.456,197.597 220.526 C 197.595 220.127,196.965 219.137,196.197 218.327 C 195.428 217.516,194.800 216.593,194.800 216.274 C 194.800 215.685,188.585 208.402,188.077 208.397 C 187.925 208.396,187.080 207.684,186.200 206.817 C 185.320 205.949,184.326 205.230,183.991 205.220 C 183.656 205.209,182.756 204.688,181.991 204.063 C 181.226 203.437,180.119 202.807,179.531 202.663 C 178.943 202.518,177.927 201.950,177.273 201.400 C 175.829 200.185,170.968 199.896,170.545 201.000 " stroke="none" fill="#1c4444" fill-rule="evenodd"></path><path id="path2" d="M250.957 0.633 C 251.091 0.981,251.200 1.341,251.200 1.433 C 251.200 1.815,253.078 1.562,253.520 1.120 C 254.351 0.289,254.051 -0.000,252.357 0.000 C 251.024 0.000,250.760 0.119,250.957 0.633 M295.920 0.480 C 296.293 0.853,296.507 0.853,296.880 0.480 C 297.253 0.107,297.147 0.000,296.400 0.000 C 295.653 0.000,295.547 0.107,295.920 0.480 M300.357 0.824 C 301.220 1.542,301.381 1.561,301.990 1.009 C 302.361 0.673,302.785 0.519,302.932 0.666 C 303.080 0.813,303.200 0.723,303.200 0.467 C 303.200 0.175,302.489 0.005,301.300 0.013 L 299.400 0.027 300.357 0.824 M243.600 1.000 C 243.600 1.435,243.153 1.600,241.976 1.600 C 240.996 1.600,240.451 1.758,240.600 2.000 C 240.749 2.242,240.204 2.400,239.224 2.400 C 238.047 2.400,237.600 2.565,237.600 3.000 C 237.600 3.373,237.222 3.600,236.600 3.600 C 235.373 3.600,235.251 4.635,236.435 5.011 C 237.572 5.372,239.811 4.909,240.409 4.189 C 240.678 3.865,241.191 3.599,241.549 3.598 C 241.907 3.596,242.728 3.320,243.374 2.983 C 244.019 2.646,244.767 2.455,245.036 2.559 C 245.305 2.662,245.784 2.443,246.102 2.073 C 247.387 0.573,247.317 0.400,245.424 0.400 C 244.069 0.400,243.600 0.554,243.600 1.000 M248.278 0.656 C 247.904 1.029,248.355 1.600,249.024 1.600 C 249.341 1.600,249.600 1.330,249.600 1.000 C 249.600 0.398,248.756 0.178,248.278 0.656 M304.071 1.021 C 304.252 1.890,304.961 1.943,305.124 1.100 C 305.208 0.662,305.012 0.400,304.600 0.400 C 304.216 0.400,303.995 0.659,304.071 1.021 M307.009 1.672 C 307.384 3.422,308.400 3.791,308.400 2.176 C 308.400 1.859,308.685 1.600,309.033 1.600 C 310.228 1.600,309.339 0.600,308.031 0.472 C 306.744 0.346,306.728 0.364,307.009 1.672 M309.836 1.941 C 309.328 2.764,310.599 3.656,311.691 3.242 C 312.598 2.896,312.795 2.953,313.006 3.618 C 313.207 4.253,313.400 4.321,314.033 3.982 C 314.636 3.660,314.865 3.705,315.049 4.183 C 315.352 4.974,317.043 4.987,317.345 4.200 C 317.517 3.750,317.279 3.600,316.387 3.600 C 315.722 3.600,315.244 3.404,315.300 3.155 C 315.355 2.910,314.950 2.635,314.400 2.543 C 313.850 2.452,313.340 2.202,313.267 1.988 C 313.103 1.510,310.128 1.469,309.836 1.941 M231.600 4.771 C 231.600 5.416,229.138 6.400,227.526 6.400 C 226.516 6.400,225.895 6.609,225.745 7.000 C 225.618 7.330,225.084 7.600,224.557 7.600 C 223.885 7.600,223.600 7.825,223.600 8.357 C 223.600 9.938,226.997 9.691,230.600 7.848 C 231.700 7.285,232.786 6.819,233.012 6.813 C 233.239 6.806,233.628 6.260,233.878 5.600 C 234.326 4.413,234.316 4.400,232.965 4.400 C 232.214 4.400,231.600 4.567,231.600 4.771 M318.000 4.584 C 318.000 4.963,320.211 6.800,320.667 6.800 C 320.929 6.800,321.381 7.035,321.671 7.322 C 323.145 8.779,324.381 8.406,324.394 6.500 C 324.399 5.805,324.172 5.600,323.400 5.600 C 322.778 5.600,322.400 5.373,322.400 5.000 C 322.400 4.539,321.889 4.400,320.200 4.400 C 318.990 4.400,318.000 4.483,318.000 4.584 M325.200 7.633 C 325.200 8.442,325.372 8.809,325.700 8.700 C 326.391 8.470,326.428 6.400,325.740 6.400 C 325.403 6.400,325.200 6.864,325.200 7.633 M326.875 8.300 C 327.268 10.364,336.109 14.642,337.000 13.200 C 337.136 12.980,337.591 12.800,338.011 12.800 C 339.184 12.800,338.525 11.669,337.266 11.523 C 336.673 11.455,336.244 11.178,336.300 10.900 C 336.365 10.576,335.907 10.400,335.000 10.400 C 334.230 10.400,333.600 10.220,333.600 10.000 C 333.600 9.780,333.169 9.600,332.643 9.600 C 332.116 9.600,331.582 9.330,331.455 9.000 C 331.329 8.670,330.859 8.400,330.413 8.400 C 329.966 8.400,329.600 8.220,329.600 8.000 C 329.600 7.780,328.957 7.600,328.171 7.600 C 327.025 7.600,326.768 7.739,326.875 8.300 M219.600 10.138 C 219.600 11.063,221.066 12.096,221.971 11.809 C 223.635 11.281,223.048 9.600,221.200 9.600 C 220.126 9.600,219.600 9.777,219.600 10.138 M214.545 13.000 C 214.418 13.330,213.899 13.600,213.391 13.600 C 212.882 13.600,212.403 13.790,212.326 14.022 C 212.249 14.254,211.829 14.503,211.393 14.575 C 210.957 14.647,210.645 14.907,210.700 15.153 C 210.755 15.399,210.337 15.600,209.771 15.600 C 208.851 15.600,207.548 16.426,207.586 16.986 C 207.668 18.223,207.509 18.400,206.313 18.400 C 205.425 18.400,204.750 18.720,204.139 19.432 C 203.652 19.999,202.978 20.503,202.642 20.553 C 202.305 20.602,201.709 21.012,201.315 21.464 C 200.922 21.916,200.195 22.413,199.700 22.570 C 199.205 22.726,198.800 23.022,198.800 23.227 C 198.800 23.432,198.530 23.600,198.200 23.600 C 197.870 23.600,197.600 23.780,197.600 24.000 C 197.600 24.220,197.330 24.400,197.000 24.400 C 196.670 24.400,196.400 24.591,196.400 24.824 C 196.400 25.057,196.253 25.156,196.073 25.045 C 195.893 24.934,195.493 25.193,195.185 25.621 C 194.876 26.050,194.393 26.400,194.112 26.400 C 193.830 26.400,193.600 26.670,193.600 27.000 C 193.600 27.330,193.345 27.600,193.033 27.600 C 192.258 27.600,192.025 28.483,192.639 29.096 C 193.904 30.361,197.213 29.069,197.999 27.004 C 198.211 26.446,198.805 26.019,199.585 25.863 C 200.271 25.726,201.320 25.103,201.916 24.479 C 202.512 23.855,203.927 22.765,205.061 22.056 C 206.335 21.259,207.216 20.392,207.368 19.783 C 207.504 19.243,207.890 18.800,208.225 18.800 C 208.909 18.800,213.857 16.224,214.831 15.360 C 215.179 15.052,215.656 14.800,215.892 14.800 C 216.129 14.800,216.510 14.260,216.740 13.600 C 217.208 12.258,215.055 11.670,214.545 13.000 M338.900 13.492 C 337.562 13.959,340.620 18.000,342.311 18.000 C 342.609 18.000,343.439 18.446,344.154 18.992 C 344.869 19.537,345.892 20.032,346.427 20.092 C 346.997 20.155,347.711 20.694,348.151 21.393 C 349.696 23.849,352.060 25.115,353.428 24.218 C 354.821 23.306,354.189 21.600,352.458 21.600 C 352.018 21.600,351.304 21.150,350.871 20.600 C 350.439 20.050,349.706 19.600,349.242 19.600 C 348.779 19.600,348.400 19.409,348.400 19.176 C 348.400 18.943,348.220 18.864,348.000 19.000 C 347.780 19.136,347.600 19.057,347.600 18.824 C 347.600 18.591,347.351 18.400,347.047 18.400 C 346.742 18.400,346.396 18.027,346.276 17.570 C 346.157 17.114,345.686 16.643,345.230 16.524 C 344.773 16.404,344.400 16.148,344.400 15.953 C 344.400 15.759,343.950 15.600,343.400 15.600 C 342.778 15.600,342.400 15.373,342.400 15.000 C 342.400 14.627,342.022 14.400,341.400 14.400 C 340.850 14.400,340.400 14.239,340.400 14.043 C 340.400 13.582,339.543 13.268,338.900 13.492 M354.400 25.591 C 354.400 27.114,355.777 28.067,357.782 27.932 C 359.801 27.796,359.889 27.409,358.270 25.790 C 356.384 23.904,354.400 23.802,354.400 25.591 M266.400 27.790 C 259.130 28.553,254.394 29.411,249.800 30.797 C 238.854 34.099,229.825 38.562,223.200 43.944 C 217.115 48.887,211.130 54.177,210.329 55.320 C 209.835 56.024,207.984 58.373,206.215 60.540 C 197.118 71.689,192.191 80.758,188.799 92.600 C 188.610 93.260,188.169 94.790,187.819 96.000 C 184.160 108.653,183.852 134.397,187.228 145.438 C 187.437 146.119,187.977 148.099,188.430 149.838 C 195.911 178.598,225.366 208.475,252.200 214.524 C 274.448 219.539,296.370 217.877,313.600 209.871 C 323.491 205.276,337.609 194.671,343.738 187.233 C 358.157 169.736,363.272 159.299,366.787 140.200 C 369.769 124.000,367.399 97.811,361.793 85.000 C 361.504 84.340,360.528 82.103,359.624 80.029 C 357.166 74.385,354.148 69.813,345.520 58.660 C 342.117 54.261,339.133 51.413,330.868 44.677 C 320.052 35.862,306.093 30.255,289.400 28.021 C 284.424 27.355,271.753 27.228,266.400 27.790 M360.243 29.033 C 359.641 30.602,360.141 31.409,364.193 35.402 C 369.391 40.525,371.797 41.947,371.465 39.700 C 371.375 39.095,371.099 38.645,370.851 38.700 C 370.603 38.755,370.400 38.596,370.400 38.347 C 370.400 38.098,369.770 37.300,369.000 36.574 C 368.230 35.848,367.600 35.062,367.600 34.827 C 367.600 34.592,367.407 34.400,367.171 34.400 C 366.618 34.400,365.600 33.382,365.600 32.829 C 365.600 32.593,365.410 32.400,365.177 32.400 C 364.945 32.400,363.892 31.500,362.837 30.400 C 360.717 28.189,360.592 28.123,360.243 29.033 M190.255 31.000 C 190.129 31.330,189.649 31.600,189.189 31.600 C 188.729 31.600,188.464 31.780,188.600 32.000 C 188.736 32.220,188.567 32.400,188.224 32.400 C 187.881 32.400,187.600 32.670,187.600 33.000 C 187.600 33.330,187.330 33.600,187.000 33.600 C 186.670 33.600,186.400 33.881,186.400 34.224 C 186.400 34.567,186.220 34.736,186.000 34.600 C 185.767 34.456,185.600 34.863,185.600 35.576 C 185.600 36.615,185.751 36.800,186.600 36.800 C 187.948 36.800,190.800 33.948,190.800 32.600 C 190.800 32.050,190.980 31.600,191.200 31.600 C 191.420 31.600,191.600 31.330,191.600 31.000 C 191.600 30.670,191.349 30.400,191.043 30.400 C 190.736 30.400,190.382 30.670,190.255 31.000 M180.300 40.157 C 179.915 40.449,179.600 40.994,179.600 41.368 C 179.600 41.741,179.439 41.948,179.242 41.826 C 178.812 41.560,178.303 42.719,178.622 43.236 C 178.746 43.436,178.689 43.600,178.496 43.600 C 177.741 43.600,175.600 45.918,175.600 46.736 C 175.600 47.211,175.395 47.600,175.144 47.600 C 174.472 47.600,173.627 48.868,173.613 49.900 C 173.606 50.395,173.399 50.755,173.153 50.700 C 172.907 50.645,172.647 50.957,172.575 51.393 C 172.503 51.829,172.254 52.249,172.022 52.326 C 171.790 52.403,171.600 52.722,171.600 53.033 C 171.600 53.345,171.330 53.600,171.000 53.600 C 170.643 53.600,170.400 53.967,170.400 54.505 C 170.400 55.004,169.951 55.747,169.400 56.161 C 168.850 56.574,168.400 57.247,168.400 57.656 C 168.400 58.065,168.220 58.400,168.000 58.400 C 167.780 58.400,167.600 58.670,167.600 59.000 C 167.600 59.330,167.375 59.601,167.100 59.603 C 166.606 59.606,165.600 61.347,165.600 62.200 C 165.600 62.442,165.386 62.854,165.125 63.115 C 164.864 63.376,164.589 63.997,164.514 64.495 C 164.439 64.993,164.202 65.460,163.988 65.533 C 163.775 65.607,163.600 66.102,163.600 66.633 C 163.600 67.165,163.375 67.601,163.100 67.603 C 162.545 67.607,161.600 69.387,161.600 70.431 C 161.600 70.800,161.342 71.316,161.027 71.578 C 160.220 72.248,160.405 73.600,161.303 73.600 C 162.175 73.600,164.000 71.880,164.000 71.059 C 164.000 70.741,164.448 69.698,164.995 68.741 C 165.543 67.783,165.993 66.752,165.995 66.449 C 165.998 66.146,166.900 64.684,168.000 63.200 C 169.100 61.716,170.000 60.361,170.000 60.189 C 170.000 60.017,170.450 59.286,171.000 58.564 C 171.550 57.843,172.000 57.067,172.000 56.839 C 172.000 56.314,175.213 51.547,175.962 50.960 C 176.344 50.661,176.443 50.115,176.272 49.260 C 176.036 48.082,176.094 48.000,177.161 48.000 C 178.679 48.000,179.295 47.162,179.133 45.319 C 179.009 43.897,179.065 43.808,180.023 43.918 C 181.610 44.102,183.200 42.628,183.200 40.971 C 183.200 39.448,181.765 39.045,180.300 40.157 M371.959 40.900 C 371.724 43.800,372.606 45.600,374.262 45.600 C 375.027 45.600,375.200 45.811,375.200 46.744 C 375.200 47.882,376.645 50.454,377.928 51.600 C 378.783 52.364,381.254 56.141,382.183 58.105 C 382.966 59.757,384.912 61.600,385.875 61.600 C 386.357 61.600,386.434 61.893,386.233 62.965 C 385.852 64.998,389.534 72.471,391.174 72.992 C 392.037 73.265,392.592 75.487,391.982 76.222 C 391.688 76.575,391.688 76.807,391.981 76.988 C 392.212 77.131,392.593 78.011,392.828 78.945 C 393.248 80.613,394.462 81.856,395.216 81.390 C 395.856 80.995,395.678 78.005,395.000 77.745 C 394.670 77.618,394.400 77.084,394.400 76.557 C 394.400 76.031,394.166 75.600,393.880 75.600 C 393.522 75.600,393.411 75.166,393.524 74.204 C 393.643 73.185,393.513 72.741,393.043 72.561 C 392.650 72.410,392.400 71.848,392.400 71.115 C 392.400 70.312,392.070 69.655,391.400 69.129 C 390.824 68.675,390.400 67.930,390.400 67.371 C 390.400 66.837,390.220 66.400,390.000 66.400 C 389.780 66.400,389.600 65.770,389.600 65.000 C 389.600 64.022,389.419 63.600,389.000 63.600 C 388.627 63.600,388.400 63.222,388.400 62.600 C 388.400 61.800,388.200 61.600,387.400 61.600 C 386.600 61.600,386.400 61.400,386.400 60.600 C 386.400 60.050,386.220 59.600,386.000 59.600 C 385.780 59.600,385.600 59.150,385.600 58.600 C 385.600 57.978,385.373 57.600,385.000 57.600 C 384.670 57.600,384.400 57.330,384.400 57.000 C 384.400 56.670,384.220 56.400,384.000 56.400 C 383.780 56.400,383.600 56.055,383.600 55.633 C 383.600 54.336,383.150 53.600,382.357 53.600 C 381.863 53.600,381.600 53.318,381.600 52.787 C 381.600 52.341,381.330 51.871,381.000 51.745 C 380.670 51.618,380.400 51.155,380.400 50.715 C 380.400 50.275,379.950 49.561,379.400 49.129 C 378.850 48.696,378.400 47.982,378.400 47.542 C 378.400 46.586,377.696 45.851,376.600 45.662 C 375.578 45.486,375.617 45.539,375.518 44.168 C 375.386 42.352,372.087 39.323,371.959 40.900 M159.600 76.000 C 159.600 77.736,159.670 77.805,160.826 77.186 C 161.780 76.676,161.799 76.241,160.911 75.205 C 159.902 74.025,159.600 74.208,159.600 76.000 M157.600 79.951 C 157.600 80.842,157.345 81.714,157.000 82.000 C 156.655 82.286,156.400 83.158,156.400 84.049 C 156.400 84.902,156.220 85.600,156.000 85.600 C 155.780 85.600,155.600 86.211,155.600 86.957 C 155.600 87.795,155.370 88.403,155.000 88.545 C 154.137 88.876,154.130 94.000,154.992 94.000 C 155.734 94.000,156.165 92.372,155.884 90.637 C 155.724 89.651,155.863 89.153,156.435 88.663 C 156.856 88.303,157.200 87.668,157.200 87.253 C 157.200 86.838,157.448 86.292,157.750 86.041 C 158.053 85.790,158.527 84.774,158.805 83.782 C 159.083 82.791,159.465 81.883,159.655 81.766 C 160.288 81.374,159.997 80.210,159.037 79.300 C 157.752 78.082,157.600 78.151,157.600 79.951 M395.700 82.696 C 394.975 82.944,395.086 84.671,395.845 84.962 C 396.371 85.164,396.398 85.321,395.990 85.812 C 395.584 86.302,395.614 86.553,396.151 87.146 C 396.515 87.548,396.765 88.309,396.706 88.837 C 396.625 89.568,396.815 89.828,397.500 89.927 C 398.307 90.042,398.400 89.888,398.400 88.428 C 398.400 87.533,398.220 86.800,398.000 86.800 C 397.780 86.800,397.600 86.359,397.600 85.820 C 397.600 85.281,397.347 84.696,397.038 84.520 C 396.730 84.344,396.415 83.823,396.338 83.362 C 396.262 82.901,395.975 82.601,395.700 82.696 M398.400 90.967 C 398.400 91.315,398.141 91.600,397.824 91.600 C 396.746 91.600,396.726 92.435,397.777 93.486 C 399.077 94.786,399.706 94.318,399.527 92.184 C 399.406 90.732,398.400 89.646,398.400 90.967 M153.600 96.000 C 153.600 97.170,153.765 97.600,154.213 97.600 C 155.073 97.600,155.386 96.527,154.861 95.374 C 154.193 93.908,153.600 94.202,153.600 96.000 M398.400 95.433 C 398.400 95.782,398.614 95.995,398.875 95.908 C 399.617 95.661,399.740 94.800,399.033 94.800 C 398.685 94.800,398.400 95.085,398.400 95.433 M399.200 98.167 C 399.200 98.478,398.988 98.804,398.728 98.891 C 398.071 99.110,398.635 100.400,399.387 100.400 C 399.821 100.400,400.000 99.991,400.000 99.000 C 400.000 98.230,399.820 97.600,399.600 97.600 C 399.380 97.600,399.200 97.855,399.200 98.167 M152.688 98.700 C 152.250 99.527,152.403 102.399,152.884 102.387 C 154.374 102.351,155.426 100.326,154.200 99.855 C 153.870 99.729,153.600 99.349,153.600 99.013 C 153.600 98.382,152.971 98.166,152.688 98.700 M399.467 102.667 C 399.048 103.085,399.155 104.800,399.600 104.800 C 399.820 104.800,400.000 104.260,400.000 103.600 C 400.000 102.357,399.919 102.215,399.467 102.667 M151.600 105.800 C 151.600 108.140,151.876 108.442,152.938 107.269 C 154.109 105.975,153.579 103.600,152.120 103.600 C 151.756 103.600,151.600 104.262,151.600 105.800 M150.678 110.700 C 150.306 111.360,150.377 116.400,150.758 116.400 C 151.459 116.400,153.135 114.597,153.394 113.565 C 153.701 112.341,151.225 109.729,150.678 110.700 M150.900 129.493 C 150.562 129.611,150.400 130.609,150.400 132.584 C 150.400 135.783,150.777 136.430,152.400 136.021 C 153.868 135.650,154.029 132.976,152.680 131.355 C 152.151 130.720,151.647 130.002,151.560 129.760 C 151.472 129.518,151.175 129.398,150.900 129.493 M151.648 141.400 C 151.750 143.925,151.710 143.878,152.784 142.725 C 154.074 141.340,153.658 139.200,152.099 139.200 C 151.700 139.200,151.582 139.775,151.648 141.400 M399.200 142.576 C 399.200 142.893,399.380 143.264,399.600 143.400 C 399.820 143.536,400.000 143.277,400.000 142.824 C 400.000 142.371,399.820 142.000,399.600 142.000 C 399.380 142.000,399.200 142.259,399.200 142.576 M152.451 146.180 C 152.535 148.744,153.185 149.102,153.945 147.002 C 154.497 145.476,154.362 145.022,153.167 144.382 C 152.423 143.984,152.382 144.086,152.451 146.180 M398.935 147.026 C 398.803 147.370,398.886 148.072,399.121 148.586 C 399.601 149.640,399.400 150.000,398.333 150.000 C 397.472 150.000,397.426 150.338,398.157 151.300 C 399.238 152.724,400.000 151.088,400.000 147.344 C 400.000 146.280,399.301 146.071,398.935 147.026 M153.677 150.469 C 153.835 152.612,154.665 152.927,155.030 150.982 C 155.228 149.927,155.150 149.414,154.753 149.162 C 153.756 148.531,153.552 148.778,153.677 150.469 M397.962 153.767 C 397.661 154.225,397.368 154.870,397.310 155.200 C 397.253 155.530,397.095 156.430,396.958 157.200 C 396.822 157.970,396.335 158.898,395.875 159.263 C 394.762 160.145,394.602 164.099,395.671 164.313 C 396.151 164.409,396.379 164.127,396.471 163.324 C 396.544 162.687,396.817 162.243,397.100 162.300 C 397.433 162.367,397.600 161.867,397.600 160.800 C 397.600 159.920,397.780 159.200,398.000 159.200 C 398.220 159.200,398.379 159.065,398.353 158.900 C 398.170 157.744,398.483 156.400,398.935 156.400 C 399.290 156.400,399.492 155.815,399.536 154.667 C 399.609 152.731,398.906 152.329,397.962 153.767 M154.458 156.513 C 154.515 158.011,154.674 158.359,155.364 158.491 C 156.619 158.731,156.563 156.140,155.295 155.297 C 154.397 154.700,154.390 154.710,154.458 156.513 M156.400 162.598 C 156.400 164.564,156.551 165.283,157.000 165.455 C 157.366 165.596,157.600 166.202,157.600 167.009 C 157.600 167.738,157.788 168.396,158.018 168.473 C 158.248 168.549,158.466 169.014,158.503 169.506 C 158.540 169.998,158.802 170.400,159.085 170.400 C 159.368 170.400,159.600 170.835,159.600 171.367 C 159.600 171.898,159.791 172.397,160.024 172.475 C 160.257 172.552,160.465 173.214,160.486 173.944 C 160.507 174.675,160.766 175.366,161.062 175.479 C 161.358 175.593,161.600 176.101,161.600 176.609 C 161.600 177.118,161.790 177.597,162.022 177.674 C 162.254 177.751,162.503 178.171,162.575 178.607 C 162.647 179.043,162.907 179.355,163.153 179.300 C 163.399 179.245,163.600 179.639,163.600 180.176 C 163.600 180.713,163.780 181.264,164.000 181.400 C 164.220 181.536,164.400 181.946,164.400 182.311 C 164.400 182.676,164.860 183.370,165.422 183.853 C 165.985 184.336,166.473 185.107,166.507 185.566 C 166.542 186.025,166.802 186.400,167.085 186.400 C 167.368 186.400,167.600 186.850,167.600 187.400 C 167.600 187.950,167.777 188.400,167.992 188.400 C 168.208 188.400,168.497 188.849,168.635 189.397 C 168.773 189.946,169.046 190.295,169.243 190.174 C 169.439 190.052,169.600 190.503,169.600 191.176 C 169.600 192.301,169.710 192.400,170.957 192.400 C 172.963 192.400,172.954 191.642,170.908 188.141 C 169.898 186.413,168.629 184.100,168.087 183.000 C 167.545 181.900,166.856 180.719,166.556 180.375 C 165.875 179.593,162.800 173.420,162.800 172.834 C 162.800 172.597,162.236 171.208,161.546 169.748 C 160.856 168.288,160.148 166.532,159.973 165.847 C 158.537 160.229,156.400 158.286,156.400 162.598 M394.284 166.311 C 393.670 166.690,393.061 167.450,392.931 168.000 C 392.801 168.550,392.355 169.375,391.940 169.833 C 391.083 170.780,390.133 174.726,390.519 175.733 C 390.942 176.834,392.400 176.576,392.400 175.400 C 392.400 174.832,392.631 174.400,392.934 174.400 C 393.281 174.400,393.491 173.837,393.532 172.799 C 393.593 171.234,394.096 169.980,395.100 168.887 C 395.506 168.446,395.856 165.573,395.500 165.611 C 395.445 165.616,394.898 165.931,394.284 166.311 M385.024 184.287 C 383.739 185.674,381.820 190.155,382.147 191.007 C 382.582 192.140,384.165 191.573,384.401 190.200 C 384.515 189.540,384.782 189.000,384.995 189.000 C 385.208 189.000,385.422 188.733,385.469 188.407 C 385.517 188.081,385.746 187.751,385.978 187.674 C 386.210 187.597,386.400 187.118,386.400 186.609 C 386.400 186.101,386.670 185.582,387.000 185.455 C 387.330 185.329,387.600 184.769,387.600 184.213 C 387.600 182.833,386.339 182.870,385.024 184.287 M380.343 192.851 C 379.483 193.166,379.297 193.474,379.343 194.506 C 379.393 195.612,379.249 195.801,378.225 195.987 C 377.319 196.151,376.976 196.488,376.724 197.461 C 376.491 198.359,376.052 198.843,375.199 199.141 C 374.539 199.370,374.000 199.774,374.000 200.038 C 374.000 200.301,373.190 201.383,372.200 202.441 C 370.420 204.344,370.189 204.973,370.645 206.672 C 370.897 207.612,372.400 207.820,372.400 206.915 C 372.400 206.632,372.593 206.400,372.829 206.400 C 373.534 206.400,374.400 205.314,374.400 204.429 C 374.400 203.959,374.660 203.600,375.000 203.600 C 375.330 203.600,375.600 203.330,375.600 203.000 C 375.600 202.670,375.780 202.400,376.000 202.400 C 376.220 202.400,376.400 202.130,376.400 201.800 C 376.400 201.470,376.562 201.200,376.761 201.200 C 376.959 201.200,377.316 200.644,377.552 199.965 C 377.789 199.285,378.337 198.637,378.770 198.524 C 379.338 198.375,379.590 197.913,379.678 196.859 C 379.774 195.713,379.970 195.400,380.591 195.400 C 381.217 195.400,381.406 195.088,381.498 193.900 C 381.561 193.075,381.566 192.414,381.507 192.432 C 381.448 192.449,380.924 192.637,380.343 192.851 M172.500 194.998 C 172.500 195.544,172.785 196.007,173.184 196.112 C 173.715 196.251,173.829 196.085,173.693 195.372 C 173.450 194.101,172.500 193.804,172.500 194.998 M174.400 197.404 C 174.400 197.956,174.751 198.708,175.180 199.075 C 175.608 199.442,175.849 199.936,175.715 200.171 C 175.581 200.407,175.615 200.470,175.791 200.312 C 175.966 200.153,176.580 200.349,177.155 200.747 C 179.681 202.495,180.834 201.902,178.870 199.865 C 178.198 199.169,177.462 198.105,177.234 197.500 C 176.649 195.947,174.400 195.871,174.400 197.404 M364.220 211.338 C 362.772 213.236,362.850 214.400,364.424 214.400 C 365.137 214.400,365.544 214.233,365.400 214.000 C 365.264 213.780,365.412 213.600,365.730 213.600 C 366.047 213.600,366.406 213.222,366.526 212.760 C 366.647 212.298,366.900 212.015,367.088 212.131 C 367.276 212.247,367.465 211.925,367.507 211.416 C 367.561 210.760,367.323 210.419,366.692 210.250 C 365.345 209.889,365.316 209.902,364.220 211.338 M357.224 217.576 C 356.311 218.489,356.122 220.221,356.900 220.536 C 357.280 220.691,357.262 220.835,356.822 221.142 C 356.457 221.396,355.986 221.407,355.548 221.172 C 353.705 220.186,352.000 221.006,352.000 222.880 C 352.000 224.050,351.647 224.287,350.946 223.586 C 350.660 223.300,349.893 223.610,348.475 224.586 C 347.345 225.364,346.263 226.000,346.072 226.000 C 345.880 226.000,345.406 226.351,345.018 226.780 C 344.630 227.209,343.657 227.895,342.856 228.305 C 340.028 229.753,337.391 231.309,336.600 231.995 C 335.829 232.664,333.583 233.854,328.200 236.448 C 327.443 236.813,326.948 237.391,326.860 238.013 C 326.782 238.556,326.512 239.150,326.260 239.333 C 326.000 239.521,326.447 239.577,327.288 239.460 C 328.106 239.347,329.175 238.882,329.663 238.427 C 330.151 237.972,330.967 237.600,331.475 237.600 C 332.031 237.600,332.400 237.360,332.400 237.000 C 332.400 236.627,332.778 236.400,333.400 236.400 C 333.950 236.400,334.400 236.220,334.400 236.000 C 334.400 235.780,334.837 235.600,335.371 235.600 C 335.906 235.600,336.613 235.330,336.943 235.000 C 337.273 234.670,337.799 234.400,338.113 234.400 C 338.427 234.400,339.169 233.950,339.762 233.400 C 340.356 232.850,341.012 232.400,341.221 232.400 C 341.429 232.400,341.600 232.220,341.600 232.000 C 341.600 231.780,341.909 231.600,342.287 231.600 C 342.665 231.600,343.370 231.140,343.853 230.578 C 344.336 230.015,345.107 229.527,345.566 229.493 C 346.025 229.458,346.400 229.198,346.400 228.915 C 346.400 228.632,346.655 228.400,346.967 228.400 C 347.278 228.400,347.597 228.210,347.674 227.978 C 347.751 227.746,348.171 227.497,348.607 227.425 C 349.043 227.353,349.355 227.093,349.300 226.847 C 349.245 226.601,349.605 226.394,350.100 226.387 C 351.132 226.373,352.400 225.528,352.400 224.856 C 352.400 224.448,353.240 224.208,354.130 224.363 C 354.311 224.394,354.345 224.235,354.206 224.010 C 354.067 223.784,354.158 223.600,354.408 223.600 C 354.658 223.600,355.554 222.880,356.400 222.000 C 357.246 221.120,358.281 220.400,358.701 220.400 C 359.480 220.400,360.275 219.240,360.484 217.800 C 360.655 216.618,358.340 216.460,357.224 217.576 M198.400 220.838 C 198.400 221.299,198.755 222.175,199.188 222.783 C 199.622 223.392,199.847 224.034,199.688 224.209 C 199.530 224.385,199.601 224.414,199.847 224.274 C 200.092 224.133,200.615 224.375,201.009 224.809 C 202.173 226.097,203.600 225.860,203.600 224.379 C 203.600 223.397,203.377 223.081,202.462 222.762 C 201.837 222.544,200.931 221.833,200.450 221.183 C 199.431 219.803,198.400 219.630,198.400 220.838 M203.686 226.752 C 203.827 227.484,205.253 227.641,205.483 226.950 C 205.566 226.702,205.167 226.411,204.597 226.302 C 203.797 226.149,203.590 226.251,203.686 226.752 M207.600 227.492 C 205.936 228.125,206.960 230.365,208.924 230.387 C 209.542 230.394,209.948 230.561,209.826 230.757 C 209.705 230.954,210.054 231.227,210.603 231.365 C 211.151 231.503,211.600 231.792,211.600 232.008 C 211.600 232.223,212.050 232.400,212.600 232.400 C 213.222 232.400,213.600 232.627,213.600 233.000 C 213.600 233.330,213.870 233.600,214.200 233.600 C 214.530 233.600,214.800 233.780,214.800 234.000 C 214.800 234.220,215.141 234.400,215.557 234.400 C 215.974 234.400,216.418 234.670,216.545 235.000 C 216.671 235.330,217.231 235.600,217.787 235.600 C 218.344 235.600,218.800 235.780,218.800 236.000 C 218.800 236.220,219.141 236.400,219.557 236.400 C 219.974 236.400,220.418 236.670,220.545 237.000 C 220.958 238.076,223.591 237.798,223.386 236.700 C 223.163 235.506,221.662 234.334,217.855 232.380 C 216.125 231.493,213.785 230.185,212.655 229.474 C 210.847 228.337,208.514 227.141,208.281 227.232 C 208.237 227.249,207.930 227.366,207.600 227.492 M224.750 237.400 C 224.383 238.867,224.949 239.600,226.449 239.600 C 227.082 239.600,227.600 239.780,227.600 240.000 C 227.600 240.220,228.050 240.400,228.600 240.400 C 229.222 240.400,229.600 240.627,229.600 241.000 C 229.600 241.373,229.978 241.600,230.600 241.600 C 231.150 241.600,231.600 241.780,231.600 242.000 C 231.600 242.220,232.211 242.400,232.957 242.400 C 233.795 242.400,234.403 242.630,234.545 243.000 C 234.714 243.442,235.412 243.600,237.187 243.600 C 238.529 243.600,239.600 243.778,239.600 244.000 C 239.600 244.220,240.050 244.400,240.600 244.400 C 241.168 244.400,241.600 244.631,241.600 244.935 C 241.600 245.293,242.198 245.493,243.400 245.538 C 247.178 245.681,244.958 243.425,241.000 243.099 C 240.340 243.045,239.440 242.607,239.000 242.126 C 238.560 241.645,236.580 240.711,234.600 240.050 C 232.620 239.389,230.244 238.478,229.319 238.024 C 227.814 237.286,224.879 236.885,224.750 237.400 M321.919 238.672 C 321.544 238.771,321.129 239.193,320.996 239.611 C 320.808 240.206,320.505 240.321,319.601 240.140 C 318.684 239.957,318.236 240.135,317.432 241.004 C 316.713 241.779,316.166 242.032,315.556 241.873 C 315.055 241.742,314.445 241.898,314.096 242.247 C 313.767 242.576,313.270 242.759,312.992 242.652 C 312.715 242.546,312.082 242.837,311.585 243.300 C 310.864 243.972,310.253 244.120,308.540 244.041 C 306.906 243.965,306.340 244.090,306.159 244.564 C 305.982 245.023,305.436 245.162,304.075 245.093 C 302.594 245.018,302.201 245.138,302.086 245.700 C 301.965 246.286,302.240 246.400,303.771 246.400 C 304.777 246.400,305.600 246.220,305.600 246.000 C 305.600 245.771,306.804 245.600,308.413 245.600 C 310.544 245.600,311.281 245.455,311.455 245.000 C 311.597 244.630,312.205 244.400,313.043 244.400 C 313.789 244.400,314.400 244.220,314.400 244.000 C 314.400 243.780,315.036 243.600,315.813 243.600 C 316.699 243.600,317.311 243.377,317.455 243.000 C 317.617 242.578,318.275 242.400,319.666 242.400 C 320.885 242.400,321.552 242.246,321.400 242.000 C 321.253 241.762,321.724 241.600,322.562 241.600 C 323.569 241.600,324.096 241.368,324.406 240.789 C 324.645 240.343,325.016 240.086,325.230 240.219 C 325.844 240.598,325.468 239.458,324.800 238.914 C 324.197 238.423,323.186 238.338,321.919 238.672 M246.400 244.800 C 246.400 245.020,246.670 245.200,247.000 245.200 C 247.330 245.200,247.600 245.470,247.600 245.800 C 247.600 246.244,248.067 246.400,249.400 246.400 C 251.201 246.400,251.411 246.216,250.957 245.033 C 250.694 244.348,248.800 244.143,248.800 244.800 C 248.800 245.020,248.530 245.200,248.200 245.200 C 247.870 245.200,247.600 245.020,247.600 244.800 C 247.600 244.580,247.330 244.400,247.000 244.400 C 246.670 244.400,246.400 244.580,246.400 244.800 M253.200 245.800 C 252.926 246.130,252.454 246.400,252.151 246.400 C 250.327 246.400,251.863 247.474,253.800 247.552 C 256.193 247.649,256.655 247.117,255.269 245.862 C 254.363 245.042,253.842 245.027,253.200 245.800 M298.080 246.080 C 297.038 247.122,297.539 247.641,299.467 247.519 C 301.632 247.381,302.052 246.813,300.517 246.100 C 299.174 245.476,298.688 245.472,298.080 246.080 M257.133 247.188 C 256.234 248.194,256.561 248.400,259.054 248.400 C 261.084 248.400,261.160 248.362,260.844 247.500 C 260.405 246.305,258.097 246.110,257.133 247.188 M266.071 247.400 C 265.639 247.950,265.071 248.400,264.809 248.400 C 264.547 248.400,264.408 248.625,264.499 248.900 C 264.762 249.697,269.837 249.803,270.138 249.017 C 270.268 248.678,270.199 248.400,269.985 248.400 C 269.770 248.400,269.203 247.950,268.725 247.400 C 268.247 246.850,267.631 246.400,267.357 246.400 C 267.083 246.400,266.504 246.850,266.071 247.400 M284.231 247.567 C 282.726 249.139,283.173 249.637,286.012 249.552 C 288.244 249.485,288.375 249.424,288.611 248.350 C 289.126 246.005,286.225 245.487,284.231 247.567 M292.662 247.131 C 291.647 248.253,291.826 248.400,294.200 248.400 C 295.738 248.400,296.400 248.244,296.400 247.880 C 296.400 246.383,293.809 245.864,292.662 247.131 M1.276 356.224 C 0.988 356.550,0.583 356.713,0.376 356.585 C 0.158 356.450,0.000 357.315,0.000 358.643 L 0.000 360.933 1.383 359.367 C 2.225 358.414,2.773 357.369,2.783 356.700 C 2.802 355.495,2.112 355.277,1.276 356.224 M-0.000 376.757 C -0.000 378.526,0.156 379.174,0.625 379.354 C 0.969 379.486,1.139 379.776,1.002 379.997 C 0.865 380.219,0.943 380.400,1.176 380.400 C 1.409 380.400,1.600 380.789,1.600 381.265 C 1.600 381.751,2.221 382.682,3.019 383.392 C 3.800 384.087,4.468 385.047,4.505 385.527 C 4.541 386.007,4.710 386.400,4.881 386.400 C 5.431 386.400,6.766 387.732,6.556 388.071 C 6.444 388.252,6.633 388.400,6.976 388.400 C 7.319 388.400,7.600 388.593,7.600 388.829 C 7.600 389.382,8.618 390.400,9.171 390.400 C 9.407 390.400,9.600 390.593,9.600 390.829 C 9.600 391.382,10.618 392.400,11.171 392.400 C 11.407 392.400,11.600 392.670,11.600 393.000 C 11.600 393.330,11.881 393.600,12.224 393.600 C 12.567 393.600,12.736 393.780,12.600 394.000 C 12.464 394.220,12.633 394.400,12.976 394.400 C 13.319 394.400,13.600 394.670,13.600 395.000 C 13.600 395.347,13.962 395.600,14.460 395.600 C 14.932 395.600,15.931 396.230,16.679 397.000 C 17.427 397.770,18.300 398.400,18.619 398.400 C 18.939 398.400,19.560 398.760,20.000 399.200 C 20.865 400.065,25.919 400.439,25.400 399.600 C 25.264 399.380,24.915 399.200,24.625 399.200 C 24.335 399.200,23.857 398.910,23.563 398.555 C 22.824 397.665,21.494 397.216,20.932 397.668 C 20.610 397.928,20.300 397.700,19.932 396.934 C 19.640 396.323,19.040 395.632,18.600 395.398 C 17.657 394.896,4.800 382.078,4.800 381.640 C 4.800 381.475,4.350 380.917,3.800 380.400 C 3.250 379.883,2.800 379.157,2.800 378.786 C 2.800 378.415,2.350 377.449,1.800 376.638 C 1.250 375.828,0.800 374.992,0.800 374.782 C 0.800 374.572,0.620 374.400,0.400 374.400 C 0.179 374.400,-0.000 375.452,-0.000 376.757 M52.846 387.509 C 52.051 388.348,50.199 389.976,48.731 391.126 C 47.264 392.277,45.161 394.260,44.059 395.531 C 42.958 396.803,41.414 398.190,40.628 398.613 C 38.655 399.675,38.835 400.000,41.397 400.000 C 43.160 400.000,43.692 399.842,44.093 399.200 C 44.368 398.760,44.789 398.400,45.029 398.400 C 45.269 398.400,45.706 397.950,46.000 397.400 C 46.294 396.850,46.698 396.400,46.896 396.400 C 47.395 396.400,48.400 395.350,48.400 394.829 C 48.400 394.593,48.593 394.400,48.829 394.400 C 49.382 394.400,50.400 393.382,50.400 392.829 C 50.400 392.593,50.593 392.400,50.829 392.400 C 51.350 392.400,52.400 391.395,52.400 390.896 C 52.400 390.698,52.850 390.294,53.400 390.000 C 53.950 389.706,54.400 389.302,54.400 389.104 C 54.400 388.905,54.670 388.473,55.000 388.143 C 55.785 387.357,55.763 386.548,54.946 386.235 C 54.507 386.066,53.818 386.484,52.846 387.509 " stroke="none" fill="#ece3eb" fill-rule="evenodd"></path><path id="path3" d="M250.100 0.288 C 249.825 0.386,249.600 0.735,249.600 1.063 C 249.600 1.422,249.322 1.598,248.900 1.506 C 248.515 1.421,248.245 1.138,248.300 0.876 C 248.492 -0.037,247.344 0.409,246.473 1.587 C 245.991 2.239,245.360 2.683,245.072 2.572 C 244.783 2.461,244.019 2.646,243.374 2.983 C 242.728 3.320,241.944 3.596,241.631 3.598 C 241.319 3.599,240.720 3.911,240.300 4.290 C 239.492 5.021,236.932 5.188,235.284 4.616 C 234.501 4.344,234.301 4.479,233.897 5.549 C 233.637 6.237,233.239 6.802,233.012 6.805 C 232.786 6.808,231.520 7.358,230.200 8.027 C 228.616 8.830,227.052 9.290,225.600 9.378 C 224.390 9.451,223.265 9.531,223.100 9.556 C 222.935 9.580,222.800 10.038,222.800 10.573 C 222.800 11.953,221.397 12.324,220.251 11.248 L 219.370 10.420 218.246 11.463 C 217.628 12.036,216.942 13.021,216.722 13.652 C 216.502 14.284,216.129 14.800,215.892 14.800 C 215.656 14.800,215.179 15.052,214.831 15.360 C 213.857 16.224,208.909 18.800,208.225 18.800 C 207.890 18.800,207.504 19.243,207.368 19.783 C 207.216 20.392,206.335 21.259,205.061 22.056 C 203.927 22.765,202.512 23.855,201.916 24.479 C 201.320 25.103,200.271 25.726,199.585 25.863 C 198.805 26.019,198.211 26.446,197.999 27.004 C 197.290 28.867,192.800 30.764,192.800 29.200 C 192.800 28.980,192.530 28.800,192.200 28.800 C 191.781 28.800,191.600 29.222,191.600 30.200 C 191.600 30.970,191.420 31.600,191.200 31.600 C 190.980 31.600,190.800 32.050,190.800 32.600 C 190.800 34.164,187.869 36.889,186.357 36.730 C 185.135 36.602,181.796 39.199,182.767 39.522 C 184.647 40.149,182.141 44.164,180.023 43.918 C 179.065 43.808,179.009 43.897,179.133 45.319 C 179.295 47.162,178.679 48.000,177.161 48.000 C 176.094 48.000,176.036 48.082,176.272 49.260 C 176.443 50.115,176.344 50.661,175.962 50.960 C 175.213 51.547,172.000 56.314,172.000 56.839 C 172.000 57.067,171.550 57.843,171.000 58.564 C 170.450 59.286,170.000 60.017,170.000 60.189 C 170.000 60.361,169.100 61.716,168.000 63.200 C 166.900 64.684,166.000 66.121,166.000 66.395 C 166.000 66.668,165.534 67.816,164.963 68.946 C 164.393 70.076,163.714 71.450,163.455 72.000 C 163.182 72.578,162.438 73.162,161.691 73.383 C 160.266 73.805,160.068 74.411,161.039 75.382 C 161.909 76.252,161.465 77.167,160.035 77.453 C 158.538 77.752,158.186 78.624,159.208 79.500 C 160.026 80.200,160.261 81.392,159.655 81.766 C 159.465 81.883,159.083 82.791,158.805 83.782 C 158.527 84.774,158.053 85.790,157.750 86.041 C 157.448 86.292,157.200 86.838,157.200 87.253 C 157.200 87.668,156.856 88.303,156.435 88.663 C 155.863 89.153,155.724 89.651,155.884 90.637 C 156.171 92.408,155.729 94.000,154.950 94.000 C 154.499 94.000,154.400 94.204,154.609 94.700 C 155.356 96.478,155.313 97.245,154.451 97.471 C 153.447 97.733,153.261 99.495,154.200 99.855 C 155.220 100.247,154.880 101.498,153.600 102.064 C 152.274 102.651,152.090 103.245,153.000 104.000 C 153.950 104.788,153.741 106.631,152.600 107.529 C 151.218 108.615,151.233 110.596,152.630 111.695 C 154.079 112.835,152.701 116.400,150.811 116.400 C 150.140 116.400,150.310 128.253,150.991 128.934 C 151.326 129.269,151.600 129.665,151.600 129.814 C 151.600 129.963,152.059 130.630,152.620 131.297 C 153.984 132.918,153.911 135.727,152.500 135.928 C 151.189 136.114,151.187 138.829,152.498 139.405 C 154.057 140.091,153.603 143.553,152.025 143.015 C 151.681 142.898,152.111 143.416,152.979 144.168 C 154.446 145.435,154.524 145.609,154.079 146.585 C 153.391 148.096,153.484 148.709,154.446 149.014 C 155.179 149.247,155.254 149.477,155.008 150.741 C 154.259 154.599,154.253 154.486,155.246 155.235 C 155.995 155.799,156.211 156.357,156.250 157.823 C 156.292 159.345,156.503 159.852,157.393 160.562 C 158.434 161.392,159.274 163.113,159.973 165.847 C 160.148 166.532,160.856 168.288,161.546 169.748 C 162.236 171.208,162.800 172.597,162.800 172.834 C 162.800 173.450,165.897 179.623,166.590 180.389 C 166.909 180.741,167.449 181.699,167.791 182.516 C 168.133 183.334,169.014 184.948,169.751 186.102 C 172.442 190.322,172.882 191.461,172.116 192.227 C 171.481 192.862,171.508 192.962,172.562 193.869 C 173.307 194.509,173.617 195.093,173.483 195.603 C 173.373 196.026,173.399 196.357,173.541 196.339 C 175.567 196.075,176.849 196.479,177.234 197.500 C 177.462 198.105,178.198 199.169,178.870 199.865 C 179.541 200.561,179.966 201.331,179.815 201.576 C 179.650 201.843,180.032 202.192,180.770 202.449 C 181.446 202.685,182.000 203.041,182.000 203.239 C 182.000 203.438,182.255 203.600,182.567 203.600 C 182.878 203.600,183.224 203.825,183.335 204.100 C 183.471 204.437,183.547 204.449,183.568 204.137 C 183.586 203.882,182.819 202.712,181.865 201.537 C 174.462 192.418,167.494 180.821,163.578 171.104 C 163.111 169.947,162.274 167.920,161.717 166.600 C 161.160 165.280,160.450 163.480,160.141 162.600 C 159.832 161.720,159.420 160.640,159.226 160.200 C 159.033 159.760,158.692 158.590,158.468 157.600 C 157.239 152.148,156.710 150.021,156.174 148.383 C 155.847 147.384,155.499 145.944,155.401 145.183 C 155.304 144.422,155.016 142.360,154.763 140.600 C 154.510 138.840,154.230 131.742,154.140 124.827 C 154.045 117.488,153.815 112.059,153.587 111.784 C 153.321 111.464,153.442 111.000,153.962 110.339 C 154.488 109.670,154.788 108.495,154.919 106.583 C 155.182 102.764,156.181 97.125,157.147 94.001 C 157.589 92.570,158.441 89.780,159.039 87.800 C 160.944 81.496,162.063 78.211,162.437 77.820 C 162.636 77.611,162.800 76.813,162.800 76.046 C 162.800 75.225,163.116 74.312,163.567 73.826 C 164.304 73.032,170.000 62.733,170.000 62.194 C 170.000 62.049,170.512 61.181,171.138 60.265 C 171.764 59.349,173.249 57.076,174.438 55.213 C 176.187 52.473,181.379 45.656,182.369 44.800 C 182.496 44.690,183.811 43.227,185.292 41.549 C 190.300 35.873,199.080 27.859,205.424 23.173 C 210.404 19.493,210.982 19.137,219.200 14.680 C 220.410 14.024,221.850 13.184,222.400 12.815 C 222.950 12.445,224.300 11.817,225.400 11.419 C 226.500 11.021,227.571 10.538,227.780 10.347 C 227.989 10.156,228.480 10.000,228.871 10.000 C 229.262 10.000,230.531 9.563,231.691 9.030 C 235.229 7.402,236.466 6.923,240.000 5.813 C 241.870 5.225,244.755 4.307,246.412 3.772 C 248.069 3.238,250.009 2.800,250.725 2.800 C 251.440 2.800,253.091 2.441,254.394 2.002 C 255.696 1.563,257.626 1.204,258.681 1.204 C 262.470 1.204,267.807 0.737,268.180 0.372 C 268.414 0.142,265.809 -0.000,261.376 -0.000 C 254.626 -0.000,254.162 0.048,253.693 0.800 C 253.064 1.807,251.439 1.840,250.961 0.855 C 250.763 0.445,250.375 0.190,250.100 0.288 M285.200 0.400 C 285.200 0.626,286.333 0.800,287.800 0.800 C 289.267 0.800,290.400 0.626,290.400 0.400 C 290.400 0.174,289.267 0.000,287.800 0.000 C 286.333 0.000,285.200 0.174,285.200 0.400 M292.000 0.332 C 292.000 0.970,293.820 1.545,296.601 1.786 C 298.142 1.920,300.752 2.401,302.401 2.855 C 304.051 3.309,306.030 3.767,306.800 3.872 C 307.570 3.977,308.963 4.409,309.896 4.832 C 310.828 5.254,311.818 5.608,312.096 5.617 C 312.373 5.626,313.860 6.082,315.400 6.631 C 316.940 7.179,319.215 7.967,320.457 8.383 C 321.698 8.799,323.048 9.325,323.457 9.552 C 323.865 9.779,326.630 11.077,329.600 12.435 C 349.045 21.330,370.403 40.262,380.777 57.800 C 381.297 58.680,382.298 60.300,383.001 61.400 C 384.276 63.395,388.588 72.143,389.606 74.800 C 389.901 75.570,390.380 76.555,390.671 76.989 C 390.962 77.423,391.200 78.100,391.200 78.494 C 391.200 78.888,391.370 79.523,391.579 79.905 C 392.249 81.136,394.000 85.918,394.000 86.519 C 394.000 87.049,394.669 88.930,395.593 91.000 C 395.790 91.440,396.034 92.430,396.135 93.200 C 396.237 93.970,396.682 95.950,397.123 97.600 C 397.564 99.250,398.051 101.860,398.205 103.400 C 398.358 104.940,398.780 106.740,399.142 107.400 L 399.800 108.600 399.927 106.809 C 400.001 105.782,399.873 104.958,399.627 104.876 C 399.087 104.696,399.066 102.930,399.600 102.600 C 400.252 102.197,400.079 100.400,399.387 100.400 C 398.607 100.400,398.131 99.214,398.756 98.827 C 399.567 98.326,399.845 95.531,399.054 95.835 C 398.616 96.003,398.400 95.873,398.400 95.443 C 398.400 95.089,398.670 94.800,399.000 94.800 C 399.330 94.800,399.600 94.609,399.600 94.376 C 399.600 94.143,399.411 94.069,399.181 94.212 C 398.950 94.354,398.304 94.014,397.745 93.455 C 396.722 92.431,396.757 91.600,397.824 91.600 C 398.799 91.600,398.504 90.071,397.500 89.927 C 396.815 89.828,396.625 89.568,396.706 88.837 C 396.765 88.309,396.515 87.548,396.151 87.146 C 395.614 86.553,395.584 86.302,395.990 85.812 C 396.398 85.321,396.371 85.164,395.845 84.962 C 395.174 84.705,394.926 82.800,395.563 82.800 C 395.762 82.800,395.834 82.452,395.723 82.028 C 395.612 81.603,395.314 81.328,395.061 81.416 C 394.251 81.700,393.289 80.617,392.827 78.901 C 392.580 77.984,392.194 77.120,391.970 76.981 C 391.693 76.810,391.697 76.565,391.982 76.222 C 392.592 75.487,392.037 73.265,391.174 72.992 C 389.534 72.471,385.852 64.998,386.233 62.965 C 386.434 61.893,386.357 61.600,385.875 61.600 C 384.912 61.600,382.966 59.757,382.183 58.105 C 381.254 56.141,378.783 52.364,377.928 51.600 C 376.645 50.454,375.200 47.882,375.200 46.744 C 375.200 45.811,375.027 45.600,374.262 45.600 C 372.862 45.600,372.022 44.402,371.942 42.291 C 371.903 41.269,371.711 40.531,371.516 40.652 C 369.977 41.603,359.790 32.014,360.099 29.906 C 360.342 28.248,359.754 27.720,357.875 27.907 C 355.600 28.133,354.400 27.192,354.400 25.182 L 354.400 23.582 353.430 24.217 C 352.060 25.115,349.697 23.851,348.151 21.393 C 347.711 20.694,346.997 20.155,346.427 20.092 C 345.892 20.032,344.869 19.537,344.154 18.992 C 343.439 18.446,342.609 18.000,342.311 18.000 C 341.449 18.000,338.400 15.141,338.400 14.333 C 338.400 13.930,338.580 13.600,338.800 13.600 C 339.020 13.600,339.200 13.420,339.200 13.200 C 339.200 12.679,337.322 12.679,337.000 13.200 C 336.662 13.746,335.072 13.703,333.719 13.110 C 331.365 12.079,327.155 9.148,326.852 8.328 C 326.580 7.593,326.499 7.566,326.280 8.136 C 325.864 9.221,325.200 8.892,325.200 7.600 C 325.200 6.134,324.582 6.021,324.230 7.423 C 323.953 8.525,322.835 8.492,321.690 7.347 C 321.389 7.046,320.916 6.800,320.638 6.800 C 320.360 6.800,319.473 6.140,318.667 5.333 C 317.860 4.527,317.200 4.077,317.200 4.333 C 317.200 5.029,315.323 4.898,315.049 4.183 C 314.865 3.705,314.636 3.660,314.033 3.982 C 313.400 4.321,313.207 4.253,313.006 3.618 C 312.795 2.953,312.598 2.896,311.691 3.242 C 310.599 3.656,309.328 2.764,309.836 1.941 C 309.952 1.753,309.698 1.600,309.270 1.600 C 308.830 1.600,308.403 1.946,308.284 2.400 C 307.958 3.648,307.316 3.342,307.026 1.800 C 306.725 0.194,305.443 -0.173,305.074 1.240 C 304.838 2.139,304.000 1.935,304.000 0.979 C 304.000 0.314,302.768 0.397,301.896 1.121 C 301.430 1.507,301.109 1.444,300.293 0.802 C 299.150 -0.098,297.603 -0.243,296.880 0.480 C 296.507 0.853,296.293 0.853,295.920 0.480 C 295.382 -0.058,292.000 -0.185,292.000 0.332 M265.400 26.786 C 264.300 26.979,262.140 27.355,260.600 27.622 C 253.987 28.771,242.060 32.330,236.600 34.784 C 230.117 37.697,227.983 39.016,222.703 43.370 C 220.549 45.146,217.934 47.290,216.893 48.134 C 206.120 56.864,193.733 74.790,189.521 87.745 C 188.291 91.530,188.207 91.815,186.862 96.800 C 183.460 109.408,183.112 128.147,185.986 144.034 C 187.962 154.956,195.341 170.802,202.828 180.200 C 204.405 182.180,206.924 185.357,208.426 187.261 C 210.887 190.380,215.154 194.307,223.163 200.820 C 227.551 204.389,234.730 208.506,243.200 212.312 C 248.200 214.558,253.675 215.911,263.922 217.431 C 269.721 218.292,286.539 218.040,292.200 217.008 C 294.180 216.647,296.520 216.251,297.400 216.129 C 298.280 216.007,300.710 215.402,302.800 214.785 C 315.447 211.052,323.896 206.094,337.684 194.317 C 344.996 188.072,354.787 175.190,359.814 165.200 C 362.051 160.755,365.287 151.721,365.976 148.000 C 366.159 147.010,366.674 144.310,367.120 142.000 C 368.670 133.968,368.896 130.687,368.679 119.400 C 368.564 113.460,368.295 107.610,368.080 106.400 C 365.687 92.920,364.082 87.575,359.650 78.328 C 357.048 72.899,353.331 67.268,347.420 59.800 C 346.723 58.920,345.264 57.068,344.177 55.684 C 341.427 52.183,328.469 41.304,323.923 38.677 C 318.744 35.686,307.276 30.668,304.000 29.961 C 303.230 29.794,301.340 29.356,299.800 28.986 C 296.730 28.250,294.363 27.807,290.400 27.230 C 286.755 26.699,267.818 26.363,265.400 26.786 M289.400 28.021 C 306.093 30.255,320.052 35.862,330.868 44.677 C 339.133 51.413,342.117 54.261,345.520 58.660 C 354.148 69.813,357.166 74.385,359.624 80.029 C 360.528 82.103,361.504 84.340,361.793 85.000 C 367.399 97.811,369.769 124.000,366.787 140.200 C 363.272 159.299,358.157 169.736,343.738 187.233 C 337.609 194.671,323.491 205.276,313.600 209.871 C 296.370 217.877,274.448 219.539,252.200 214.524 C 232.567 210.098,208.448 190.627,196.784 169.785 C 193.263 163.495,189.881 155.420,188.430 149.838 C 187.977 148.099,187.437 146.119,187.228 145.438 C 183.852 134.397,184.160 108.653,187.819 96.000 C 188.169 94.790,188.610 93.260,188.799 92.600 C 192.191 80.758,197.118 71.689,206.215 60.540 C 207.984 58.373,209.835 56.024,210.329 55.320 C 211.130 54.177,217.115 48.887,223.200 43.944 C 229.825 38.562,238.854 34.099,249.800 30.797 C 260.045 27.707,277.769 26.464,289.400 28.021 M399.200 111.776 C 399.200 113.413,399.380 114.864,399.600 115.000 C 399.854 115.157,400.000 114.071,400.000 112.024 C 400.000 110.141,399.834 108.800,399.600 108.800 C 399.369 108.800,399.200 110.059,399.200 111.776 M399.500 131.432 C 399.335 131.598,399.200 133.225,399.200 135.048 C 399.200 136.871,398.996 138.811,398.746 139.359 C 398.422 140.069,398.409 140.820,398.700 141.967 C 399.009 143.183,398.986 143.679,398.608 143.993 C 398.333 144.222,397.806 145.982,397.438 147.904 C 397.069 149.827,396.617 151.760,396.433 152.200 C 396.249 152.640,395.870 153.990,395.590 155.200 C 395.311 156.410,394.814 158.030,394.486 158.800 C 393.580 160.926,393.328 161.611,392.573 164.000 C 392.191 165.210,391.540 166.974,391.127 167.921 C 390.714 168.867,390.094 170.487,389.748 171.521 C 389.067 173.561,388.168 175.760,387.528 176.956 C 382.348 186.631,375.965 196.477,372.328 200.401 C 371.818 200.952,370.411 202.572,369.203 204.001 C 360.109 214.757,347.062 225.106,334.000 231.923 C 331.470 233.244,328.331 234.971,327.024 235.762 C 325.716 236.553,324.276 237.200,323.822 237.200 C 323.098 237.200,318.873 238.572,316.600 239.545 C 316.160 239.734,314.720 240.215,313.400 240.615 C 312.080 241.014,310.829 241.490,310.620 241.671 C 310.411 241.852,309.781 242.000,309.220 242.000 C 308.659 242.000,307.210 242.386,306.000 242.857 C 303.657 243.769,298.007 244.766,293.400 245.080 C 291.860 245.185,290.389 245.446,290.132 245.658 C 289.852 245.889,285.068 246.032,278.266 246.013 L 266.868 245.980 265.734 246.956 C 265.110 247.493,264.732 248.065,264.894 248.227 C 265.056 248.389,265.564 248.045,266.023 247.461 C 267.062 246.141,267.619 246.128,268.725 247.400 C 269.203 247.950,269.770 248.400,269.985 248.400 C 270.199 248.400,270.277 248.655,270.157 248.968 C 269.975 249.443,271.046 249.543,276.762 249.580 C 282.259 249.616,283.545 249.522,283.382 249.097 C 283.271 248.807,283.702 248.069,284.340 247.458 C 285.852 246.009,288.520 246.035,288.728 247.500 C 288.918 248.841,291.390 248.775,292.471 247.400 C 293.369 246.259,295.212 246.050,296.000 247.000 C 296.695 247.837,297.468 247.748,297.715 246.802 C 297.986 245.766,299.108 245.350,300.048 245.937 C 301.160 246.632,301.881 246.498,302.129 245.551 C 302.327 244.792,302.539 244.730,304.126 244.968 C 305.555 245.182,305.950 245.108,306.149 244.588 C 306.342 244.086,306.874 243.964,308.540 244.041 C 310.253 244.120,310.864 243.972,311.585 243.300 C 312.082 242.837,312.715 242.546,312.992 242.652 C 313.270 242.759,313.767 242.576,314.096 242.247 C 314.445 241.898,315.055 241.742,315.556 241.873 C 316.166 242.032,316.713 241.779,317.432 241.004 C 318.236 240.135,318.684 239.957,319.601 240.140 C 320.504 240.321,320.808 240.206,320.996 239.613 C 321.312 238.617,323.408 238.162,324.643 238.823 C 325.429 239.244,325.506 239.435,325.095 239.946 C 324.792 240.324,325.016 240.260,325.675 239.781 C 326.266 239.352,326.806 238.556,326.875 238.013 C 326.955 237.380,327.431 236.818,328.200 236.448 C 333.526 233.885,335.829 232.664,336.600 231.995 C 337.391 231.309,340.028 229.753,342.856 228.305 C 343.657 227.895,344.630 227.209,345.018 226.780 C 345.406 226.351,345.880 226.000,346.072 226.000 C 346.263 226.000,347.345 225.364,348.475 224.586 C 349.893 223.610,350.660 223.300,350.946 223.586 C 351.647 224.287,352.000 224.050,352.000 222.880 C 352.000 221.006,353.705 220.186,355.548 221.172 C 355.986 221.407,356.457 221.396,356.822 221.142 C 357.262 220.835,357.280 220.691,356.900 220.536 C 354.951 219.745,357.332 216.605,359.646 216.915 C 360.501 217.030,361.200 216.961,361.200 216.762 C 361.200 216.563,361.427 216.400,361.704 216.400 C 362.439 216.400,363.377 214.747,363.248 213.679 C 363.041 211.955,365.032 209.932,366.639 210.234 C 368.718 210.624,370.914 208.251,370.554 206.003 C 370.327 204.582,370.449 204.313,372.154 202.491 C 373.169 201.405,374.000 200.301,374.000 200.038 C 374.000 199.774,374.539 199.370,375.199 199.141 C 376.052 198.843,376.491 198.359,376.724 197.461 C 376.976 196.488,377.319 196.151,378.225 195.987 C 379.253 195.801,379.393 195.614,379.341 194.491 C 379.288 193.326,379.428 193.164,380.858 192.735 C 382.294 192.305,382.412 192.166,382.194 191.173 C 381.745 189.126,385.052 183.200,386.644 183.200 C 387.498 183.200,388.400 182.209,388.400 181.271 C 388.400 180.839,388.670 180.382,389.000 180.255 C 389.330 180.129,389.600 179.674,389.600 179.246 C 389.600 178.817,389.798 178.401,390.039 178.320 C 390.290 178.237,390.469 177.238,390.456 175.987 C 390.429 173.314,391.033 170.868,391.983 169.800 C 392.375 169.360,392.801 168.548,392.931 167.996 C 393.061 167.444,393.714 166.669,394.384 166.273 C 395.628 165.538,395.949 164.663,395.154 164.172 C 394.402 163.707,394.967 159.984,395.902 159.242 C 396.607 158.683,397.082 157.276,397.267 155.200 C 397.332 154.466,398.775 152.550,399.126 152.730 C 399.266 152.802,399.445 152.667,399.523 152.430 C 399.602 152.194,399.447 152.000,399.177 152.000 C 398.686 152.000,397.636 150.860,397.613 150.300 C 397.606 150.135,397.930 150.000,398.333 150.000 C 399.423 150.000,399.561 149.682,399.057 148.345 C 398.669 147.319,398.706 147.058,399.300 146.624 C 400.117 146.026,400.215 144.336,399.500 143.182 C 399.098 142.534,399.101 142.313,399.512 142.057 C 399.896 141.818,399.996 140.410,399.912 136.435 C 399.850 133.518,399.665 131.267,399.500 131.432 M195.838 216.884 C 196.257 217.370,196.915 218.124,197.300 218.559 C 197.685 218.995,198.021 219.812,198.046 220.375 C 198.077 221.053,198.155 221.163,198.276 220.700 C 198.550 219.651,199.468 219.854,200.450 221.183 C 200.931 221.833,201.825 222.540,202.436 222.753 C 203.353 223.072,203.570 223.410,203.674 224.670 C 203.777 225.922,203.969 226.224,204.731 226.332 C 205.343 226.419,205.587 226.658,205.443 227.032 C 205.316 227.364,205.469 227.600,205.813 227.600 C 206.136 227.600,206.403 227.825,206.406 228.100 C 206.410 228.436,206.509 228.459,206.706 228.171 C 207.595 226.873,209.013 227.184,212.655 229.474 C 213.785 230.185,216.125 231.493,217.855 232.380 C 221.621 234.313,223.200 235.522,223.363 236.600 C 223.469 237.299,223.738 237.383,225.494 237.268 C 226.944 237.172,227.991 237.374,229.252 237.992 C 230.213 238.463,232.620 239.389,234.600 240.050 C 236.580 240.711,238.560 241.645,239.000 242.126 C 239.440 242.607,240.340 243.045,241.000 243.099 C 243.558 243.310,245.200 244.079,245.200 245.067 C 245.200 245.811,248.471 245.587,248.725 244.826 C 249.023 243.930,250.776 244.366,251.036 245.400 C 251.328 246.563,252.219 246.688,253.292 245.717 C 254.170 244.922,255.152 245.321,255.795 246.733 C 256.251 247.734,257.120 247.874,257.455 247.000 C 257.866 245.929,260.354 246.226,260.800 247.400 C 261.258 248.606,264.400 248.938,264.400 247.781 C 264.400 245.970,261.059 244.605,259.140 245.632 C 258.517 245.966,258.175 245.920,257.635 245.432 C 257.251 245.084,256.663 244.800,256.328 244.800 C 255.993 244.800,253.577 244.238,250.959 243.552 C 248.342 242.866,245.660 242.224,245.000 242.125 C 244.340 242.026,243.440 241.791,243.000 241.603 C 242.560 241.414,241.750 241.172,241.200 241.063 C 240.237 240.874,236.908 239.686,231.000 237.424 C 229.460 236.834,227.300 236.062,226.200 235.707 C 225.100 235.353,223.930 234.841,223.600 234.571 C 223.270 234.301,222.100 233.582,221.000 232.973 C 219.900 232.365,218.460 231.539,217.800 231.137 C 217.140 230.735,216.330 230.284,216.000 230.134 C 213.207 228.862,200.886 220.337,197.499 217.332 C 195.810 215.833,194.666 215.525,195.838 216.884 M247.600 244.800 C 247.600 245.020,247.330 245.200,247.000 245.200 C 246.670 245.200,246.400 245.020,246.400 244.800 C 246.400 244.580,246.670 244.400,247.000 244.400 C 247.330 244.400,247.600 244.580,247.600 244.800 M146.400 294.000 C 146.400 294.220,146.207 294.400,145.971 294.400 C 145.735 294.400,144.640 295.255,143.537 296.300 C 142.434 297.345,141.007 298.533,140.366 298.939 C 139.725 299.346,139.200 299.918,139.200 300.210 C 139.200 300.503,138.705 301.125,138.100 301.594 C 136.007 303.215,115.911 323.392,112.297 327.500 C 111.475 328.435,110.691 329.200,110.554 329.200 C 110.418 329.200,108.081 331.450,105.361 334.200 C 102.641 336.950,100.307 339.200,100.175 339.200 C 100.042 339.200,98.644 340.591,97.067 342.291 C 92.617 347.087,87.976 351.907,80.900 359.079 C 77.325 362.702,74.400 365.832,74.400 366.033 C 74.400 366.235,74.207 366.400,73.971 366.400 C 73.418 366.400,72.400 367.418,72.400 367.971 C 72.400 368.207,72.130 368.400,71.800 368.400 C 71.470 368.400,71.200 368.604,71.200 368.853 C 71.200 369.102,70.873 369.597,70.472 369.953 C 69.669 370.667,68.989 372.145,69.560 371.933 C 70.452 371.604,84.400 357.599,84.400 357.034 C 84.400 356.685,84.664 356.400,84.986 356.400 C 85.309 356.400,88.291 353.700,91.613 350.400 C 94.936 347.100,97.709 344.400,97.777 344.400 C 97.973 344.400,108.720 333.581,110.186 331.909 C 110.913 331.079,111.599 330.400,111.710 330.400 C 112.011 330.400,134.400 308.102,134.400 307.802 C 134.400 307.385,135.504 306.400,135.971 306.400 C 136.207 306.400,136.400 306.207,136.400 305.971 C 136.400 305.418,137.418 304.400,137.971 304.400 C 138.207 304.400,138.400 304.207,138.400 303.971 C 138.400 303.507,139.384 302.400,139.798 302.400 C 140.130 302.400,144.400 298.130,144.400 297.798 C 144.400 297.462,145.469 296.400,145.807 296.400 C 146.222 296.400,147.572 294.655,147.587 294.100 C 147.594 293.825,147.330 293.600,147.000 293.600 C 146.670 293.600,146.400 293.780,146.400 294.000 M27.600 331.000 C 27.600 331.330,27.416 331.600,27.191 331.600 C 26.967 331.600,25.825 332.545,24.655 333.700 C 23.485 334.855,21.420 336.790,20.065 338.000 C 18.710 339.210,17.599 340.380,17.596 340.600 C 17.593 340.820,16.693 341.780,15.595 342.734 C 14.498 343.688,13.600 344.723,13.600 345.034 C 13.600 345.345,13.420 345.600,13.200 345.600 C 12.679 345.600,9.600 348.679,9.600 349.200 C 9.600 349.420,9.420 349.600,9.200 349.600 C 8.679 349.600,5.600 352.679,5.600 353.200 C 5.600 353.420,5.261 353.600,4.846 353.600 C 3.904 353.600,2.800 355.231,2.800 356.622 C 2.800 357.245,2.229 358.339,1.400 359.308 C 0.079 360.851,-0.479 362.800,0.400 362.800 C 0.620 362.800,0.806 362.395,0.813 361.900 C 0.820 361.405,1.045 360.714,1.313 360.364 C 2.097 359.341,6.474 354.377,8.032 352.744 C 8.819 351.919,10.461 350.108,11.681 348.719 C 12.900 347.330,15.451 344.605,17.349 342.664 C 19.247 340.723,20.800 339.051,20.800 338.949 C 20.800 338.581,22.774 336.800,23.182 336.800 C 23.412 336.800,23.600 336.530,23.600 336.200 C 23.600 335.870,23.793 335.600,24.029 335.600 C 24.582 335.600,25.600 334.582,25.600 334.029 C 25.600 333.793,25.793 333.600,26.029 333.600 C 26.582 333.600,27.600 332.582,27.600 332.029 C 27.600 331.793,27.780 331.600,28.000 331.600 C 28.220 331.600,28.400 331.330,28.400 331.000 C 28.400 330.670,28.220 330.400,28.000 330.400 C 27.780 330.400,27.600 330.670,27.600 331.000 M0.000 373.176 C 0.000 373.849,0.180 374.400,0.400 374.400 C 0.620 374.400,0.800 374.572,0.800 374.782 C 0.800 374.992,1.250 375.828,1.800 376.638 C 2.350 377.449,2.800 378.415,2.800 378.786 C 2.800 379.157,3.250 379.883,3.800 380.400 C 4.350 380.917,4.800 381.475,4.800 381.640 C 4.800 382.078,17.657 394.896,18.600 395.398 C 19.040 395.632,19.640 396.323,19.932 396.934 C 20.300 397.700,20.610 397.928,20.932 397.668 C 21.443 397.258,22.960 397.688,23.376 398.361 C 23.826 399.089,26.305 400.070,27.271 399.902 C 28.154 399.749,28.160 399.725,27.400 399.428 C 25.808 398.804,24.165 397.937,22.400 396.788 C 21.410 396.143,20.223 395.448,19.762 395.242 C 18.568 394.708,6.406 382.759,4.971 380.711 C 4.312 379.770,3.456 378.370,3.069 377.600 C 2.681 376.830,2.026 375.660,1.611 375.000 C 1.197 374.340,0.845 373.496,0.829 373.124 C 0.775 371.869,0.000 371.919,0.000 373.176 M55.067 385.467 C 54.560 385.974,54.803 386.400,55.600 386.400 C 56.044 386.400,56.400 386.133,56.400 385.800 C 56.400 385.191,55.554 384.979,55.067 385.467 M50.000 389.469 C 48.570 390.694,46.410 392.625,45.200 393.760 C 42.322 396.459,40.170 398.077,38.200 399.023 L 36.600 399.792 37.757 399.928 C 38.393 400.003,39.023 399.905,39.157 399.711 C 39.290 399.517,40.044 398.967,40.832 398.489 C 41.619 398.010,43.181 396.564,44.304 395.274 C 45.426 393.983,47.693 391.895,49.341 390.632 C 50.990 389.369,52.437 388.080,52.557 387.768 C 52.848 387.008,52.950 386.940,50.000 389.469 " stroke="none" fill="#eea1a0" fill-rule="evenodd"></path><path id="path4" d="M177.319 201.365 C 177.934 201.931,178.924 202.514,179.519 202.660 C 180.114 202.806,181.226 203.437,181.991 204.063 C 182.756 204.688,183.656 205.209,183.991 205.220 C 184.326 205.230,185.320 205.949,186.200 206.817 C 187.080 207.684,187.925 208.396,188.077 208.397 C 188.585 208.402,194.800 215.685,194.800 216.274 C 194.800 216.593,195.428 217.516,196.197 218.327 C 196.965 219.137,197.595 220.107,197.597 220.481 C 197.601 221.368,198.439 223.200,198.840 223.200 C 199.012 223.200,198.894 222.705,198.579 222.100 C 198.263 221.495,198.004 220.638,198.002 220.196 C 198.001 219.753,197.373 218.673,196.608 217.796 C 195.842 216.918,195.212 216.066,195.208 215.903 C 195.187 215.114,190.031 209.617,186.600 206.728 C 182.842 203.563,182.892 203.600,182.417 203.600 C 182.188 203.600,182.000 203.427,182.000 203.216 C 182.000 203.005,181.235 202.614,180.300 202.347 C 179.365 202.080,178.330 201.650,178.000 201.392 C 176.737 200.402,176.252 200.383,177.319 201.365 M145.778 293.584 C 143.439 294.531,70.180 367.948,68.400 371.128 C 68.070 371.718,67.622 372.328,67.403 372.483 C 66.859 372.872,67.795 373.774,68.372 373.418 C 68.614 373.267,68.707 372.973,68.577 372.762 C 68.447 372.552,68.554 372.430,68.816 372.490 C 69.077 372.551,69.363 372.169,69.452 371.641 C 69.540 371.114,69.970 370.373,70.406 369.994 C 70.843 369.616,71.200 369.102,71.200 368.853 C 71.200 368.604,71.470 368.400,71.800 368.400 C 72.130 368.400,72.400 368.207,72.400 367.971 C 72.400 367.418,73.418 366.400,73.971 366.400 C 74.207 366.400,74.400 366.235,74.400 366.033 C 74.400 365.832,77.325 362.702,80.900 359.079 C 87.976 351.907,92.617 347.087,97.067 342.291 C 98.644 340.591,100.042 339.200,100.175 339.200 C 100.307 339.200,102.641 336.950,105.361 334.200 C 108.081 331.450,110.418 329.200,110.554 329.200 C 110.691 329.200,111.475 328.435,112.297 327.500 C 115.911 323.392,136.007 303.215,138.100 301.594 C 138.705 301.125,139.200 300.503,139.200 300.210 C 139.200 299.918,139.725 299.346,140.366 298.939 C 141.007 298.533,142.434 297.345,143.537 296.300 C 144.640 295.255,145.735 294.400,145.971 294.400 C 146.207 294.400,146.400 294.233,146.400 294.029 C 146.400 293.825,146.715 293.576,147.100 293.476 C 147.578 293.351,147.609 293.286,147.200 293.272 C 146.870 293.260,146.230 293.401,145.778 293.584 M41.553 316.700 C 41.527 316.865,41.527 317.135,41.553 317.300 C 41.579 317.465,41.438 317.555,41.240 317.500 C 41.042 317.445,40.862 317.580,40.840 317.800 C 40.818 318.020,40.980 318.182,41.200 318.160 C 41.420 318.138,41.870 318.093,42.200 318.060 C 42.530 318.027,42.800 317.640,42.800 317.200 C 42.800 316.465,41.662 316.009,41.553 316.700 M33.600 325.013 C 33.600 325.336,33.330 325.600,33.000 325.600 C 32.228 325.600,32.220 326.356,32.990 326.651 C 33.594 326.883,34.800 325.964,34.800 325.271 C 34.800 325.059,34.530 324.782,34.200 324.655 C 33.835 324.515,33.600 324.655,33.600 325.013 M29.100 329.557 C 28.715 329.948,28.400 330.567,28.400 330.934 C 28.400 331.300,28.220 331.600,28.000 331.600 C 27.780 331.600,27.600 331.793,27.600 332.029 C 27.600 332.582,26.582 333.600,26.029 333.600 C 25.793 333.600,25.600 333.793,25.600 334.029 C 25.600 334.582,24.582 335.600,24.029 335.600 C 23.793 335.600,23.600 335.870,23.600 336.200 C 23.600 336.530,23.412 336.800,23.182 336.800 C 22.774 336.800,20.800 338.581,20.800 338.949 C 20.800 339.051,19.247 340.723,17.349 342.664 C 15.451 344.605,12.900 347.330,11.681 348.719 C 10.461 350.108,8.819 351.919,8.032 352.744 C 6.474 354.377,2.097 359.341,1.313 360.364 C 1.045 360.714,0.820 361.405,0.813 361.900 C 0.806 362.395,0.620 362.800,0.400 362.800 C 0.180 362.800,0.000 363.070,0.000 363.400 C 0.000 364.427,0.771 364.057,1.044 362.900 C 1.454 361.161,4.491 357.380,10.600 350.998 C 11.480 350.079,13.820 347.633,15.801 345.563 C 17.781 343.494,20.121 340.945,21.001 339.900 C 21.880 338.855,22.829 338.000,23.110 338.000 C 23.390 338.000,23.791 337.550,24.000 337.000 C 24.209 336.450,24.659 336.000,25.000 336.000 C 25.341 336.000,25.791 335.550,26.000 335.000 C 26.209 334.450,26.659 334.000,27.000 334.000 C 27.341 334.000,27.791 333.550,28.000 333.000 C 28.209 332.450,28.644 332.000,28.966 332.000 C 29.679 332.000,29.827 331.769,30.185 330.100 C 30.494 328.657,30.155 328.488,29.100 329.557 M0.000 371.405 C 0.000 371.518,0.165 371.923,0.366 372.305 C 0.568 372.687,1.033 373.630,1.399 374.400 C 2.445 376.598,3.720 378.856,4.924 380.644 C 6.231 382.583,18.545 394.697,19.762 395.242 C 20.223 395.448,21.410 396.143,22.400 396.788 C 23.390 397.432,24.830 398.254,25.600 398.613 C 26.370 398.973,27.333 399.445,27.739 399.661 C 28.145 399.878,28.568 399.965,28.679 399.854 C 29.007 399.526,28.398 398.800,27.795 398.800 C 22.100 398.800,3.791 380.384,1.051 371.900 C 0.851 371.279,0.000 370.879,0.000 371.405 M54.377 384.900 C 54.364 385.175,53.221 386.273,51.836 387.341 C 50.452 388.408,48.167 390.349,46.759 391.653 C 43.772 394.421,40.107 397.151,37.700 398.399 C 36.331 399.109,35.459 400.000,36.132 400.000 C 37.313 400.000,42.015 396.768,45.200 393.767 C 46.410 392.627,48.660 390.642,50.200 389.355 C 51.740 388.069,53.221 386.804,53.491 386.545 C 53.761 386.287,54.526 385.834,55.191 385.540 C 55.856 385.246,56.400 384.869,56.400 384.702 C 56.400 384.179,54.401 384.375,54.377 384.900 " stroke="none" fill="#7c6c6c" fill-rule="evenodd"></path></g></svg>