<?xml version="1.0" encoding="UTF-8" standalone="no"?>
<!DOCTYPE svg PUBLIC "-//W3C//DTD SVG 1.1//EN" "http://www.w3.org/Graphics/SVG/1.1/DTD/svg11.dtd">
<svg version="1.1" xmlns="http://www.w3.org/2000/svg" xmlns:html="http://www.w3.org/1999/xhtml" xmlns:xlink="http://www.w3.org/1999/xlink" preserveAspectRatio="xMidYMid meet" viewBox="0 0 19 19" width="19" height="19"><defs><path d="M18.41 9.5C18.41 14.75 14.16 19 8.91 19C3.67 19 -0.59 14.75 -0.59 9.5C-0.59 4.25 3.67 0 8.91 0C14.16 0 18.41 4.25 18.41 9.5" id="brNrlmAS3"></path><path d="M13.05 14.86C12.93 14.72 12.75 14.26 12.48 14.14C12.48 14.38 12.37 14.81 11.87 14.73C10.25 14.47 10.02 15.59 10.02 15.59C10.02 15.59 10.84 15.29 11.61 15.71C11.22 16.45 9.86 16.36 9.86 16.36C9.86 16.36 10.31 17.19 11.72 16.85C11.42 17.55 10.31 17.19 10.31 17.19C10.31 17.19 10.47 17.79 11.5 17.88C12.53 17.96 13.01 17.37 13.15 16.98C13.44 16.12 13.38 15.25 13.05 14.86" id="i2FWrv0KpR"></path><path d="M15.2 15.56C13.32 15.56 11.65 14.31 11.1 12.53C11.31 12.58 11.53 12.61 11.77 12.61C13.11 12.61 14.73 11.77 16.16 11.04C16.53 10.84 16.88 10.66 17.22 10.5C17.76 10.24 18.43 9.95 18.89 9.95C19.19 9.95 19.35 10.08 19.41 10.4C19.89 12.72 18.4 14.99 16.08 15.47C15.79 15.53 15.5 15.56 15.2 15.56" id="a1a4hrWL6N"></path><path d="M19.37 9.87L19.52 10.07L19.63 10.35L19.63 12.14L18.98 13.75L17.77 14.98L16.12 15.69L15.89 15.73L15.66 15.76L15.43 15.78L15.2 15.78L13.7 15.52L12.38 14.79L11.38 13.66L10.79 12.2L10.82 12.2L11.04 12.29L11.28 12.34L11.52 12.38L11.77 12.39L13.06 12.18L14.44 11.64L15.83 10.96L17.12 10.31L17.63 10.08L18.1 9.89L18.52 9.77L18.89 9.73L19.15 9.76L19.37 9.87ZM18.12 10.35L17.7 10.52L17.31 10.7L17.06 10.82L16.8 10.95L16.54 11.09L16.26 11.23L15.14 11.79L13.99 12.31L12.86 12.68L11.77 12.83L11.69 12.82L11.6 12.82L11.52 12.82L11.43 12.81L12.05 13.84L12.93 14.64L14 15.16L15.2 15.35L15.41 15.34L15.62 15.33L15.83 15.3L16.04 15.26L17.52 14.62L18.61 13.51L19.21 12.06L19.2 10.44L19.16 10.3L19.1 10.22L19.01 10.18L18.89 10.16L18.53 10.22L18.12 10.35Z" id="a9XGFhoL5"></path><path d="M11.24 12.33C10.84 12.33 10.62 12.33 10.58 12.33C11.13 13.14 12.06 13.68 13.12 13.68C13.88 13.68 14.58 13.4 15.11 12.95C14.65 13.28 14.09 13.48 13.48 13.48C12.56 13.48 11.74 13.03 11.24 12.33" id="d1Z5VLJxFY"></path><path d="M13.09 15.19C13.4 17.35 10.3 13.87 6.44 14.12C3.67 14.29 3.15 15.78 3.16 16.61C2.85 14.46 4.82 12.4 7.57 12.01C10.31 11.61 12.78 13.04 13.09 15.19" id="bd5e9uPUp"></path><path d="M11.23 2C10.39 1.41 9.34 1.12 8.29 1.13C8.88 1.23 9.45 1.44 9.94 1.78C11.56 2.91 11.68 5 10.21 6.44C8.74 7.88 6.24 8.13 4.62 7C3.67 6.33 3.24 5.34 3.34 4.34C2.85 5.8 3.33 7.38 4.74 8.36C6.72 9.75 9.77 9.44 11.57 7.68C13.36 5.92 13.21 3.38 11.23 2" id="cacnK8xDvo"></path><path d="M7.22 13.58C6.2 13.58 5.21 13.3 4.33 12.78C4.32 12.74 4.31 12.7 4.3 12.65C3.53 10.06 4.07 7.24 5.74 5.1C6.49 4.14 7.62 3.58 8.85 3.58C10.55 3.58 11.99 4.61 12.53 6.2C12.57 6.33 12.61 6.47 12.65 6.61C13.34 9.36 11.8 12.27 9.14 13.24C8.52 13.47 7.87 13.58 7.22 13.58C7.22 13.58 7.22 13.58 7.22 13.58" id="i1mmn6qU1L"></path><path d="M10.49 3.61L11.23 4.01L11.88 4.56L12.42 5.26L12.8 6.11L12.83 6.18L12.85 6.25L12.87 6.32L12.89 6.39L12.91 6.47L12.93 6.54L13.11 8L12.93 9.41L12.42 10.73L11.62 11.9L10.55 12.84L9.25 13.51L8.91 13.63L8.57 13.72L8.23 13.79L7.89 13.84L7.55 13.86L7.22 13.87L6.66 13.85L6.11 13.77L5.58 13.64L5.06 13.46L4.57 13.24L4.09 12.97L4.08 12.93L4.06 12.9L4.05 12.86L4.04 12.82L4.03 12.78L4.01 12.74L3.72 11.34L3.66 9.94L3.83 8.58L4.2 7.28L4.76 6.05L5.51 4.92L5.97 4.42L6.48 4.01L7.04 3.69L7.63 3.47L8.23 3.33L8.85 3.29L9.68 3.37L10.49 3.61ZM7.55 4.11L6.96 4.4L6.43 4.79L5.97 5.28L5.13 6.59L4.57 8.02L4.28 9.52L4.28 11.05L4.58 12.57L4.58 12.58L4.58 12.58L5.07 12.83L5.59 13.03L6.12 13.17L6.66 13.26L7.22 13.29L7.59 13.28L7.96 13.24L8.32 13.17L8.69 13.08L9.04 12.96L10.42 12.21L11.49 11.11L12.21 9.76L12.51 8.25L12.36 6.69L12.34 6.61L12.32 6.53L12.3 6.45L12.27 6.37L12.25 6.29L11.86 5.48L11.29 4.81L10.58 4.3L9.76 3.98L8.85 3.87L8.18 3.93L7.55 4.11Z" id="i8tl4g9LRA"></path><path d="M8.11 11.48C8.1 11.49 8.1 11.5 8.09 11.51C7.55 12.46 5.94 12.92 4.49 12.53C4.38 12.5 4.27 12.47 4.17 12.43C4.38 12.7 4.71 12.91 5.13 13.02C6.2 13.31 7.45 12.85 7.93 12C8.03 11.83 8.09 11.65 8.11 11.48" id="d2PQbkLgkE"></path><path d="M9.21 8.6C8.53 9.49 7.55 9.88 7.01 9.47C6.48 9.06 6.6 8.01 7.27 7.12C7.95 6.23 8.94 5.84 9.47 6.25C10.01 6.66 9.89 7.71 9.21 8.6" id="f53hboo5m"></path><path d="M10.22 6.56C9.82 5.34 8.21 5.28 7.05 6.16C4.95 7.75 4.65 10.74 4.65 10.74C4.65 10.74 4.66 10.74 4.67 10.74C4.86 10.1 5.53 8.1 6.74 7.18C7.76 6.41 9.16 6.28 9.47 7.3C9.72 8.1 9.12 9.21 8.11 9.98C8.03 10.03 7.94 10.09 7.85 10.14C8.18 10.02 8.48 9.87 8.71 9.7C9.87 8.83 10.54 7.52 10.22 6.56" id="cejLE4Tua"></path><path d="M7.29 8.47C7.09 8.74 6.79 8.86 6.62 8.73C6.46 8.61 6.5 8.29 6.7 8.02C6.91 7.75 7.21 7.63 7.37 7.75C7.54 7.88 7.5 8.2 7.29 8.47" id="d7qJZ38MN"></path></defs><g><g><g><use xlink:href="#brNrlmAS3" opacity="1" fill="#ffffff" fill-opacity="1"></use><g><use xlink:href="#brNrlmAS3" opacity="1" fill-opacity="0" stroke="#000000" stroke-width="1" stroke-opacity="0"></use></g></g><path></path><g><use xlink:href="#i2FWrv0KpR" opacity="1" fill="#1c486d" fill-opacity="1"></use><g><use xlink:href="#i2FWrv0KpR" opacity="1" fill-opacity="0" stroke="#000000" stroke-width="1" stroke-opacity="0"></use></g></g><path></path><g><use xlink:href="#a1a4hrWL6N" opacity="1" fill="#ffffff" fill-opacity="1"></use><g><use xlink:href="#a1a4hrWL6N" opacity="1" fill-opacity="0" stroke="#000000" stroke-width="1" stroke-opacity="0"></use></g></g><g><use xlink:href="#a9XGFhoL5" opacity="1" fill="#154265" fill-opacity="1"></use><g><use xlink:href="#a9XGFhoL5" opacity="1" fill-opacity="0" stroke="#000000" stroke-width="1" stroke-opacity="0"></use></g></g><g><use xlink:href="#d1Z5VLJxFY" opacity="1" fill="#1c486d" fill-opacity="1"></use><g><use xlink:href="#d1Z5VLJxFY" opacity="1" fill-opacity="0" stroke="#000000" stroke-width="1" stroke-opacity="0"></use></g></g><g><use xlink:href="#bd5e9uPUp" opacity="1" fill="#1c486d" fill-opacity="1"></use><g><use xlink:href="#bd5e9uPUp" opacity="1" fill-opacity="0" stroke="#000000" stroke-width="1" stroke-opacity="0"></use></g></g><g><use xlink:href="#cacnK8xDvo" opacity="1" fill="#154265" fill-opacity="1"></use><g><use xlink:href="#cacnK8xDvo" opacity="1" fill-opacity="0" stroke="#000000" stroke-width="1" stroke-opacity="0"></use></g></g><g><use xlink:href="#i1mmn6qU1L" opacity="1" fill="#ffffff" fill-opacity="1"></use><g><use xlink:href="#i1mmn6qU1L" opacity="1" fill-opacity="0" stroke="#000000" stroke-width="1" stroke-opacity="0"></use></g></g><g><use xlink:href="#i8tl4g9LRA" opacity="1" fill="#154265" fill-opacity="1"></use><g><use xlink:href="#i8tl4g9LRA" opacity="1" fill-opacity="0" stroke="#000000" stroke-width="1" stroke-opacity="0"></use></g></g><g><use xlink:href="#d2PQbkLgkE" opacity="1" fill="#154265" fill-opacity="1"></use><g><use xlink:href="#d2PQbkLgkE" opacity="1" fill-opacity="0" stroke="#000000" stroke-width="1" stroke-opacity="0"></use></g></g><g><use xlink:href="#f53hboo5m" opacity="1" fill="#154265" fill-opacity="1"></use><g><use xlink:href="#f53hboo5m" opacity="1" fill-opacity="0" stroke="#000000" stroke-width="1" stroke-opacity="0"></use></g></g><g><use xlink:href="#cejLE4Tua" opacity="1" fill="#154265" fill-opacity="1"></use><g><use xlink:href="#cejLE4Tua" opacity="1" fill-opacity="0" stroke="#000000" stroke-width="1" stroke-opacity="0"></use></g></g><g><use xlink:href="#d7qJZ38MN" opacity="1" fill="#ffffff" fill-opacity="1"></use><g><use xlink:href="#d7qJZ38MN" opacity="1" fill-opacity="0" stroke="#000000" stroke-width="1" stroke-opacity="0"></use></g></g></g></g></svg>