<?xml version="1.0" encoding="UTF-8" standalone="no"?>
<!-- Created with Inkscape (http://www.inkscape.org/) -->

<svg
     xmlns:dc="http://purl.org/dc/elements/1.1/"
     xmlns:cc="http://creativecommons.org/ns#"
     xmlns:rdf="http://www.w3.org/1999/02/22-rdf-syntax-ns#"
     xmlns:svg="http://www.w3.org/2000/svg"
     xmlns="http://www.w3.org/2000/svg"
     xmlns:xlink="http://www.w3.org/1999/xlink"
     xmlns:sodipodi="http://sodipodi.sourceforge.net/DTD/sodipodi-0.dtd"
     xmlns:inkscape="http://www.inkscape.org/namespaces/inkscape"
     width="512"
     height="512"
     viewBox="0 0 135.46666 135.46666"
     version="1.1"
     id="svg8"
     inkscape:version="0.92+devel (unknown)"
     sodipodi:docname="piece.svg.2019_02_04_00_40_26.0.svg"
     inkscape:export-filename="piece64.png"
     inkscape:export-xdpi="24"
     inkscape:export-ydpi="24">
    <defs
         id="defs2">
        <clipPath
             clipPathUnits="userSpaceOnUse"
             id="clipPath43">
            <path
                 id="path45"
                 style="opacity:1;vector-effect:none;fill:none;stroke:#ffcc00;stroke-width:0.25;stroke-linecap:square;paint-order:markers stroke fill;stop-color:#000000;stop-opacity:1"
                 d="m 14.780105,21.115156 c 0.492922,2.367242 1.204508,5.858858 -0.800627,7.209768 -0.80443,0.541964 -2.800756,-0.75124 -2.800756,-0.75124 -1.036566,-0.522007 -2.1959919,-0.81544 -3.3740381,-0.81603 -3.9255359,0 -7.10781289,3.182815 -7.10781289,7.109012 0,3.926198 3.18227699,7.109013 7.10781289,7.109013 1.1785412,-0.0024 2.3379961,-0.297796 3.3740381,-0.818922 0,0 1.996326,-1.290315 2.800756,-0.74835 2.005135,1.350912 1.293549,4.842528 0.800627,7.209769 -0.811249,3.896 -2.23688,8.575526 -2.23688,8.575526 0,0 4.678736,1.425866 8.574079,2.237253 2.366843,0.493004 5.857872,1.204712 7.208554,-0.800761 0.541872,-0.804566 -0.748224,-2.801228 -0.748224,-2.801228 -0.521038,-1.036217 -0.816432,-2.195867 -0.818784,-3.374607 0,-3.9262 3.182278,-7.109013 7.107814,-7.109013 3.925535,0 7.107814,3.182813 7.107814,7.109013 -5.29e-4,1.178245 -0.293973,2.337866 -0.815893,3.374607 0,0 -1.292987,1.996662 -0.751112,2.801228 1.350682,2.005473 4.841708,1.293765 7.208551,0.800761 3.895344,-0.811387 8.574083,-2.237253 8.574083,-2.237253 0,0 -1.425631,-4.679524 -2.23688,-8.575524 -0.492922,-2.367243 -1.204508,-5.858856 0.800626,-7.209769 0.804431,-0.541964 2.800757,0.75124 2.800757,0.75124 1.036567,0.522007 2.195992,0.815443 3.374039,0.81603 3.925535,0 7.107811,-3.182813 7.107811,-7.10901 0,-3.9262 -3.182276,-7.109015 -7.107811,-7.109015 -1.178542,0.0024 -2.337996,0.297799 -3.374039,0.818925 0,0 -1.996326,1.290312 -2.800757,0.748347 -2.005134,-1.350909 -1.293548,-4.842526 -0.800626,-7.209768 0.811249,-3.896 2.236877,-8.575528 2.236877,-8.575528 0,0 -4.678738,-1.425871 -8.574082,-2.237257 -2.366844,-0.493005 -5.85787,-1.2047111 -7.208552,0.800762 -0.541875,0.804566 0.748221,2.801228 0.748221,2.801228 0.521038,1.036217 0.816435,2.195867 0.818784,3.374607 0,3.926198 -3.182278,7.109012 -7.107814,7.109012 -3.925535,0 -7.107814,-3.182814 -7.107814,-7.109012 5.29e-4,-1.178244 0.293973,-2.337866 0.815893,-3.374607 0,0 1.292987,-1.996662 0.751115,-2.801228 -1.350685,-2.0054731 -4.841711,-1.293767 -7.208554,-0.800762 -3.895344,0.811386 -8.574078,2.237255 -8.574078,2.237255 0,0 1.425633,4.679527 2.236882,8.575528 z"
                 inkscape:connector-curvature="0"
                 sodipodi:nodetypes="ssccsccsscssccscccscssccsccsscssccscccscs" />
        </clipPath>
        <filter
             inkscape:collect="always"
             style="color-interpolation-filters:sRGB"
             id="filter853"
             x="-0.010422129"
             width="1.0208443"
             y="-0.014140876"
             height="1.0282818">
            <feGaussianBlur
                 inkscape:collect="always"
                 stdDeviation="1.0628739"
                 id="feGaussianBlur855" />
        </filter>
        <filter
             inkscape:collect="always"
             style="color-interpolation-filters:sRGB"
             id="filter874"
             x="-0.02083512"
             width="1.0416702"
             y="-0.028298588"
             height="1.0565972">
            <feGaussianBlur
                 inkscape:collect="always"
                 stdDeviation="2.116813"
                 id="feGaussianBlur876" />
        </filter>
        <clipPath
             clipPathUnits="userSpaceOnUse"
             id="clipPath880">
            <path
                 id="path882"
                 style="opacity:1;vector-effect:none;fill:#d8d8d8;fill-opacity:1;stroke:none;stroke-width:0.944882;stroke-linecap:square;paint-order:markers stroke fill;stop-color:#000000;stop-opacity:1"
                 d="m 55.861814,79.805315 c 1.863013,8.947057 4.552472,22.143715 -3.025991,27.249515 -3.040366,2.04837 -10.585535,-2.83933 -10.585535,-2.83933 -3.91773,-1.97294 -8.299812,-3.08198 -12.75227,-3.08421 -14.836671,0 -26.8641748,12.02954 -26.8641748,26.86871 0,14.83917 12.0275038,26.86871 26.8641748,26.86871 4.454329,-0.009 8.836521,-1.12553 12.75227,-3.09514 0,0 7.545169,-4.87678 10.585535,-2.82841 7.578463,5.10581 4.889004,18.30247 3.025991,27.24952 -3.066138,14.72504 -8.454349,32.41144 -8.454349,32.41144 0,0 17.683412,5.3891 32.405969,8.45576 8.945548,1.86332 22.139986,4.55324 27.244926,-3.0265 2.04802,-3.04088 -2.82793,-10.58732 -2.82793,-10.58732 -1.96928,-3.91641 -3.08573,-8.29934 -3.09462,-12.75442 0,-14.83918 12.02751,-26.86871 26.86418,-26.86871 14.83667,0 26.86418,12.02953 26.86418,26.86871 -0.002,4.45321 -1.11108,8.83603 -3.08369,12.75442 0,0 -4.88688,7.54644 -2.83885,10.58732 5.10494,7.57974 18.29937,4.88982 27.24492,3.0265 14.72256,-3.06666 32.40598,-8.45576 32.40598,-8.45576 0,0 -5.38821,-17.68639 -8.45435,-32.41143 -1.86301,-8.94706 -4.55247,-22.14371 3.02599,-27.24952 3.04037,-2.04837 10.58554,2.83933 10.58554,2.83933 3.91773,1.97294 8.29981,3.08199 12.75227,3.08421 14.83667,0 26.86417,-12.02953 26.86417,-26.8687 0,-14.83918 -12.0275,-26.86872 -26.86417,-26.86872 -4.45433,0.009 -8.83652,1.12554 -12.75227,3.09515 0,0 -7.54517,4.87677 -10.58554,2.8284 -7.57846,-5.1058 -4.889,-18.302461 -3.02599,-27.249517 3.06614,-14.72504 8.45434,-32.411446 8.45434,-32.411446 0,0 -17.68342,-5.389118 -32.40598,-8.455774 -8.94555,-1.863326 -22.13998,-4.553239 -27.24492,3.026502 -2.04803,3.040879 2.82792,10.587318 2.82792,10.587318 1.96928,3.916411 3.08574,8.29934 3.09462,12.754422 0,14.839173 -12.02751,26.868707 -26.86418,26.868707 -14.83667,0 -26.86418,-12.029534 -26.86418,-26.868707 0.002,-4.453207 1.11108,-8.83603 3.08369,-12.754422 0,0 4.88688,-7.546439 2.83886,-10.587318 -5.10495,-7.579741 -18.299379,-4.889828 -27.244928,-3.026502 -14.722561,3.066656 -32.405965,8.455767 -32.405965,8.455767 0,0 5.388219,17.686401 8.454357,32.411445 z"
                 inkscape:connector-curvature="0"
                 sodipodi:nodetypes="ssccsccsscssccscccscssccsccsscssccscccscs" />
        </clipPath>
        <filter
             inkscape:collect="always"
             style="color-interpolation-filters:sRGB"
             id="filter876-3"
             x="-0.010359594"
             width="1.0207192"
             y="-0.01425765"
             height="1.0285153">
            <feGaussianBlur
                 inkscape:collect="always"
                 stdDeviation="0.28635467"
                 id="feGaussianBlur878-6" />
        </filter>
        <filter
             inkscape:collect="always"
             style="color-interpolation-filters:sRGB"
             id="filter876"
             x="-0.010359594"
             width="1.0207192"
             y="-0.01425765"
             height="1.0285153">
            <feGaussianBlur
                 inkscape:collect="always"
                 stdDeviation="0.28635467"
                 id="feGaussianBlur878" />
        </filter>
        <clipPath
             clipPathUnits="userSpaceOnUse"
             id="clipPath82">
            <path
                 id="path84"
                 style="opacity:1;vector-effect:none;fill:#d8d8d8;fill-opacity:1;stroke:none;stroke-width:0.944882;stroke-linecap:square;paint-order:markers stroke fill;stop-color:#000000;stop-opacity:1"
                 d="m 55.861813,178.4045 c 1.863013,-8.94706 4.552472,-22.14372 -3.025991,-27.24952 -3.040366,-2.04837 -10.585535,2.83933 -10.585535,2.83933 -3.917729,1.97294 -8.299811,3.08198 -12.752269,3.08421 -14.836671,0 -26.864175,-12.02954 -26.864175,-26.86871 0,-14.83917 12.027504,-26.86871 26.864175,-26.86871 4.454329,0.009 8.836521,1.12553 12.752269,3.09514 0,0 7.545169,4.87678 10.585535,2.82841 7.578463,-5.10581 4.889004,-18.302464 3.025991,-27.249517 -3.066138,-14.72504 -8.454349,-32.411438 -8.454349,-32.411438 0,0 17.683411,-5.389099 32.405968,-8.455759 8.945548,-1.863322 22.139988,-4.553242 27.244928,3.026498 2.04802,3.04088 -2.82793,10.587319 -2.82793,10.587319 -1.96928,3.916411 -3.08573,8.29934 -3.09462,12.75442 0,14.839182 12.02751,26.868712 26.86418,26.868712 14.83667,0 26.86418,-12.02953 26.86418,-26.868712 -0.002,-4.453209 -1.11108,-8.836029 -3.08369,-12.75442 0,0 -4.88688,-7.546439 -2.83885,-10.587319 5.10494,-7.57974 18.29937,-4.88982 27.24491,-3.026498 14.72257,3.06666 32.40599,8.455759 32.40599,8.455759 0,0 -5.38821,17.68639 -8.45436,32.411431 -1.863,8.94706 -4.55246,22.143704 3.026,27.249514 3.04037,2.04837 10.58553,-2.83933 10.58553,-2.83933 3.91773,-1.97294 8.29982,-3.08199 12.75227,-3.08421 14.83668,0 26.86418,12.02953 26.86418,26.8687 0,14.83918 -12.0275,26.86872 -26.86418,26.86872 -4.45432,-0.009 -8.83651,-1.12554 -12.75227,-3.09515 0,0 -7.54516,-4.87677 -10.58553,-2.8284 -7.57846,5.1058 -4.889,18.30246 -3.026,27.24952 3.06615,14.72504 8.45435,32.41144 8.45435,32.41144 0,0 -17.68342,5.38912 -32.40598,8.45578 -8.94555,1.86332 -22.13998,4.55324 -27.24492,-3.0265 -2.04803,-3.04088 2.82792,-10.58732 2.82792,-10.58732 1.96928,-3.91641 3.08574,-8.29934 3.09461,-12.75443 0,-14.83917 -12.0275,-26.8687 -26.86417,-26.8687 -14.83667,0 -26.86418,12.02953 -26.86418,26.8687 0.002,4.45321 1.11108,8.83604 3.08369,12.75443 0,0 4.88688,7.54644 2.83886,10.58732 -5.10495,7.57974 -18.299381,4.88982 -27.24493,3.0265 -14.72256,-3.06666 -32.405964,-8.45577 -32.405964,-8.45577 0,0 5.388219,-17.6864 8.454357,-32.41144 z"
                 inkscape:connector-curvature="0"
                 sodipodi:nodetypes="ssccsccsscssccscccscssccsccsscssccscccscs" />
        </clipPath>
        <clipPath
             clipPathUnits="userSpaceOnUse"
             id="clipPath22-3">
            <path
                 id="path24-5"
                 style="opacity:1;vector-effect:none;fill:#d8d8d8;fill-opacity:1;stroke:none;stroke-width:0.944882;stroke-linecap:square;paint-order:markers stroke fill;stop-color:#000000;stop-opacity:1"
                 d="m 55.861814,79.805315 c 1.863013,8.947057 4.552472,22.143715 -3.025991,27.249515 -3.040366,2.04837 -10.585535,-2.83933 -10.585535,-2.83933 -3.91773,-1.97294 -8.299812,-3.08198 -12.75227,-3.08421 -14.836671,0 -26.8641748,12.02954 -26.8641748,26.86871 0,14.83917 12.0275038,26.86871 26.8641748,26.86871 4.454329,-0.009 8.836521,-1.12553 12.75227,-3.09514 0,0 7.545169,-4.87678 10.585535,-2.82841 7.578463,5.10581 4.889004,18.30247 3.025991,27.24952 -3.066138,14.72504 -8.454349,32.41144 -8.454349,32.41144 0,0 17.683412,5.3891 32.405969,8.45576 8.945548,1.86332 22.139986,4.55324 27.244926,-3.0265 2.04802,-3.04088 -2.82793,-10.58732 -2.82793,-10.58732 -1.96928,-3.91641 -3.08573,-8.29934 -3.09462,-12.75442 0,-14.83918 12.02751,-26.86871 26.86418,-26.86871 14.83667,0 26.86418,12.02953 26.86418,26.86871 -0.002,4.45321 -1.11108,8.83603 -3.08369,12.75442 0,0 -4.88688,7.54644 -2.83885,10.58732 5.10494,7.57974 18.29937,4.88982 27.24492,3.0265 14.72256,-3.06666 32.40598,-8.45576 32.40598,-8.45576 0,0 -5.38821,-17.68639 -8.45435,-32.41143 -1.86301,-8.94706 -4.55247,-22.14371 3.02599,-27.24952 3.04037,-2.04837 10.58554,2.83933 10.58554,2.83933 3.91773,1.97294 8.29981,3.08199 12.75227,3.08421 14.83667,0 26.86417,-12.02953 26.86417,-26.8687 0,-14.83918 -12.0275,-26.86872 -26.86417,-26.86872 -4.45433,0.009 -8.83652,1.12554 -12.75227,3.09515 0,0 -7.54517,4.87677 -10.58554,2.8284 -7.57846,-5.1058 -4.889,-18.302461 -3.02599,-27.249517 3.06614,-14.72504 8.45434,-32.411446 8.45434,-32.411446 0,0 -17.68342,-5.389118 -32.40598,-8.455774 -8.94555,-1.863326 -22.13998,-4.553239 -27.24492,3.026502 -2.04803,3.040879 2.82792,10.587318 2.82792,10.587318 1.96928,3.916411 3.08574,8.29934 3.09462,12.754422 0,14.839173 -12.02751,26.868707 -26.86418,26.868707 -14.83667,0 -26.86418,-12.029534 -26.86418,-26.868707 0.002,-4.453207 1.11108,-8.83603 3.08369,-12.754422 0,0 4.88688,-7.546439 2.83886,-10.587318 -5.10495,-7.579741 -18.299379,-4.889828 -27.244928,-3.026502 -14.722561,3.066656 -32.405965,8.455767 -32.405965,8.455767 0,0 5.388219,17.686401 8.454357,32.411445 z"
                 inkscape:connector-curvature="0"
                 sodipodi:nodetypes="ssccsccsscssccscccscssccsccsscssccscccscs" />
        </clipPath>
        <clipPath
             clipPathUnits="userSpaceOnUse"
             id="clipPath176">
            <path
                 id="path178"
                 style="opacity:1;vector-effect:none;fill:#d8d8d8;fill-opacity:1;stroke:none;stroke-width:0.944882;stroke-linecap:square;paint-order:markers stroke fill;stop-color:#000000;stop-opacity:1"
                 d="m 57.861815,81.805315 c 1.863012,8.94705 4.552471,22.143725 -3.025992,27.249525 -3.040365,2.04836 -10.585534,-2.83934 -10.585534,-2.83934 -3.91773,-1.97294 -8.299813,-3.08197 -12.752271,-3.0842 -14.836671,0 -26.8641748,12.02954 -26.8641748,26.86871 0,14.83917 12.0275038,26.8687 26.8641748,26.8687 4.45433,-0.009 8.836522,-1.12552 12.752271,-3.09513 0,0 7.545169,-4.87679 10.585534,-2.82841 7.578463,5.10581 4.889004,18.30246 3.025992,27.24952 -3.066138,14.72504 -8.454349,32.41143 -8.454349,32.41143 0,0 17.683411,5.3891 32.405967,8.45576 8.945549,1.86333 22.139987,4.55325 27.244927,-3.02649 2.04802,-3.04088 -2.82793,-10.58732 -2.82793,-10.58732 -1.96928,-3.91641 -3.08573,-8.29934 -3.09462,-12.75442 0,-14.83918 12.0275,-26.86871 26.86418,-26.86871 14.83666,0 26.86416,12.02953 26.86416,26.86871 -0.002,4.45321 -1.11106,8.83603 -3.08368,12.75442 0,0 -4.88688,7.54644 -2.83884,10.58732 5.10494,7.57974 18.29937,4.88982 27.24491,3.02649 14.72257,-3.06666 32.40601,-8.45576 32.40601,-8.45576 0,0 -5.38822,-17.68639 -8.45437,-32.41143 -1.863,-8.94706 -4.55246,-22.1437 3.026,-27.24952 3.04037,-2.04836 10.58553,2.83934 10.58553,2.83934 3.91773,1.97294 8.29982,3.08199 12.75227,3.0842 14.83668,0 26.86418,-12.02953 26.86418,-26.8687 0,-14.83917 -12.0275,-26.86871 -26.86418,-26.86871 -4.45432,0.009 -8.8365,1.12554 -12.75227,3.09515 0,0 -7.54516,4.87677 -10.58553,2.82839 -7.57846,-5.10579 -4.889,-18.302465 -3.026,-27.249515 3.06615,-14.72504 8.45436,-32.41145 8.45436,-32.41145 0,0 -17.68343,-5.38912 -32.406,-8.45577 -8.94556,-1.86333 -22.13999,-4.55324 -27.24494,3.0265 -2.04801,3.04088 2.82794,10.58732 2.82794,10.58732 1.96927,3.91641 3.08574,8.29934 3.09461,12.75442 0,14.83917 -12.0275,26.86871 -26.86418,26.86871 -14.83666,0 -26.86417,-12.02954 -26.86417,-26.86871 0.002,-4.45321 1.11108,-8.83603 3.08369,-12.75442 0,0 4.88688,-7.54644 2.83886,-10.58732 -5.10495,-7.57974 -18.299379,-4.88983 -27.244928,-3.0265 -14.72256,3.06665 -32.405964,8.45576 -32.405964,8.45576 0,0 5.388219,17.68641 8.454357,32.41145 z"
                 inkscape:connector-curvature="0"
                 sodipodi:nodetypes="ssccsccsscssccscccscssccsccsscssccscccscs" />
        </clipPath>
        <clipPath
             clipPathUnits="userSpaceOnUse"
             id="clipPath176-1">
            <path
                 id="path178-2"
                 style="opacity:1;vector-effect:none;fill:#d8d8d8;fill-opacity:1;stroke:none;stroke-width:0.944882;stroke-linecap:square;paint-order:markers stroke fill;stop-color:#000000;stop-opacity:1"
                 d="m 57.861815,81.805315 c 1.863012,8.94705 4.552471,22.143725 -3.025992,27.249525 -3.040365,2.04836 -10.585534,-2.83934 -10.585534,-2.83934 -3.91773,-1.97294 -8.299813,-3.08197 -12.752271,-3.0842 -14.836671,0 -26.8641748,12.02954 -26.8641748,26.86871 0,14.83917 12.0275038,26.8687 26.8641748,26.8687 4.45433,-0.009 8.836522,-1.12552 12.752271,-3.09513 0,0 7.545169,-4.87679 10.585534,-2.82841 7.578463,5.10581 4.889004,18.30246 3.025992,27.24952 -3.066138,14.72504 -8.454349,32.41143 -8.454349,32.41143 0,0 17.683411,5.3891 32.405967,8.45576 8.945549,1.86333 22.139987,4.55325 27.244927,-3.02649 2.04802,-3.04088 -2.82793,-10.58732 -2.82793,-10.58732 -1.96928,-3.91641 -3.08573,-8.29934 -3.09462,-12.75442 0,-14.83918 12.0275,-26.86871 26.86418,-26.86871 14.83666,0 26.86416,12.02953 26.86416,26.86871 -0.002,4.45321 -1.11106,8.83603 -3.08368,12.75442 0,0 -4.88688,7.54644 -2.83884,10.58732 5.10494,7.57974 18.29937,4.88982 27.24491,3.02649 14.72257,-3.06666 32.40601,-8.45576 32.40601,-8.45576 0,0 -5.38822,-17.68639 -8.45437,-32.41143 -1.863,-8.94706 -4.55246,-22.1437 3.026,-27.24952 3.04037,-2.04836 10.58553,2.83934 10.58553,2.83934 3.91773,1.97294 8.29982,3.08199 12.75227,3.0842 14.83668,0 26.86418,-12.02953 26.86418,-26.8687 0,-14.83917 -12.0275,-26.86871 -26.86418,-26.86871 -4.45432,0.009 -8.8365,1.12554 -12.75227,3.09515 0,0 -7.54516,4.87677 -10.58553,2.82839 -7.57846,-5.10579 -4.889,-18.302465 -3.026,-27.249515 3.06615,-14.72504 8.45436,-32.41145 8.45436,-32.41145 0,0 -17.68343,-5.38912 -32.406,-8.45577 -8.94556,-1.86333 -22.13999,-4.55324 -27.24494,3.0265 -2.04801,3.04088 2.82794,10.58732 2.82794,10.58732 1.96927,3.91641 3.08574,8.29934 3.09461,12.75442 0,14.83917 -12.0275,26.86871 -26.86418,26.86871 -14.83666,0 -26.86417,-12.02954 -26.86417,-26.86871 0.002,-4.45321 1.11108,-8.83603 3.08369,-12.75442 0,0 4.88688,-7.54644 2.83886,-10.58732 -5.10495,-7.57974 -18.299379,-4.88983 -27.244928,-3.0265 -14.72256,3.06665 -32.405964,8.45576 -32.405964,8.45576 0,0 5.388219,17.68641 8.454357,32.41145 z"
                 inkscape:connector-curvature="0"
                 sodipodi:nodetypes="ssccsccsscssccscccscssccsccsscssccscccscs" />
        </clipPath>
        <clipPath
             clipPathUnits="userSpaceOnUse"
             id="clipPath207">
            <path
                 sodipodi:nodetypes="ssccsccsscssccscccscssccsccsscssccscccscs"
                 inkscape:connector-curvature="0"
                 d="m 173.54727,53.227977 c -8.94705,1.863013 -22.14373,4.552472 -27.24952,-3.02599 -2.04838,-3.040368 2.83932,-10.585536 2.83932,-10.585536 1.97294,-3.917731 3.08199,-8.299812 3.08422,-12.75227 C 152.22129,12.02751 140.19174,0 125.35257,0 110.51341,0 98.483861,12.02751 98.483861,26.864181 c 0.009,4.454329 1.12553,8.836521 3.095139,12.75227 0,0 4.87678,7.545168 2.82842,10.585536 -5.105819,7.578462 -18.302475,4.889003 -27.249524,3.02599 -14.725039,-3.066138 -32.411442,-8.454349 -32.411442,-8.454349 0,0 -5.3891,17.683411 -8.455759,32.405968 -1.863319,8.945548 -4.553239,22.139985 3.026498,27.244924 3.040883,2.04802 10.587323,-2.82793 10.587323,-2.82793 3.916411,-1.969279 8.29934,-3.085729 12.754421,-3.094619 14.839177,0 26.868706,12.027509 26.868706,26.864179 0,14.83667 -12.029529,26.86418 -26.868706,26.86418 -4.45321,-0.002 -8.836033,-1.11108 -12.754421,-3.08369 0,0 -7.54644,-4.88688 -10.587323,-2.83885 -7.579737,5.10494 -4.889817,18.29937 -3.026498,27.24492 3.066659,14.72256 8.455759,32.40598 8.455759,32.40598 0,0 17.686391,-5.38821 32.411431,-8.45435 8.94706,-1.86301 22.143716,-4.55247 27.249515,3.02599 2.04837,3.04037 -2.83932,10.58554 -2.83932,10.58554 -1.972939,3.91773 -3.081999,8.29981 -3.084219,12.75227 0,14.83667 12.029529,26.86417 26.868699,26.86417 14.83918,0 26.86873,-12.0275 26.86873,-26.86417 -0.009,-4.45433 -1.12555,-8.83652 -3.09516,-12.75227 0,0 -4.87677,-7.54517 -2.8284,-10.58554 5.10581,-7.57846 18.30245,-4.889 27.24954,-3.02599 14.72504,3.06614 32.41141,8.45434 32.41141,8.45434 0,0 5.38912,-17.68342 8.45579,-32.40598 1.86334,-8.94555 4.55323,-22.13998 -3.0265,-27.24492 -3.04089,-2.04803 -10.58732,2.82792 -10.58732,2.82792 -3.91643,1.96928 -8.29939,3.08574 -12.75444,3.09462 -14.83914,0 -26.86873,-12.02751 -26.86873,-26.86418 0,-14.83667 12.02959,-26.864179 26.86873,-26.864179 4.45323,0.002 8.83605,1.11108 12.75444,3.083689 0,0 7.54643,4.88688 10.58732,2.83886 7.57973,-5.104949 4.88984,-18.299377 3.0265,-27.244926 -3.06667,-14.72256 -8.45575,-32.405965 -8.45575,-32.405965 0,0 -17.68641,5.38822 -32.41145,8.454358 z"
                 style="opacity:1;vector-effect:none;fill:#d8d8d8;fill-opacity:1;stroke:none;stroke-width:0.944882;stroke-linecap:square;paint-order:markers stroke fill;stop-color:#000000;stop-opacity:1"
                 id="path209" />
        </clipPath>
        <clipPath
             clipPathUnits="userSpaceOnUse"
             id="clipPath227">
            <path
                 id="path229"
                 style="opacity:1;vector-effect:none;fill:#d8d8d8;fill-opacity:1;stroke:none;stroke-width:0.944882;stroke-linecap:square;paint-order:markers stroke fill;stop-color:#000000;stop-opacity:1"
                 d="m 175.54727,55.227978 c -8.94705,1.863013 -22.14373,4.552472 -27.24952,-3.025991 -2.04838,-3.040367 2.83932,-10.585536 2.83932,-10.585536 1.97294,-3.91773 3.08199,-8.299812 3.08422,-12.75227 0,-14.836671 -12.02955,-26.8641744 -26.86872,-26.8641744 -14.83916,0 -26.86871,12.0275034 -26.86871,26.8641744 0.009,4.454329 1.12553,8.836521 3.09514,12.75227 0,0 4.87678,7.545169 2.82842,10.585536 -5.10582,7.578463 -18.302474,4.889004 -27.249523,3.025991 -14.725039,-3.066138 -32.411441,-8.45435 -32.411441,-8.45435 0,0 -5.3891,17.683412 -8.455759,32.405968 -1.863319,8.945548 -4.553239,22.139984 3.026498,27.244924 3.040883,2.04802 10.587322,-2.82793 10.587322,-2.82793 3.916411,-1.96928 8.29934,-3.08573 12.754421,-3.09462 14.839177,0 26.868706,12.02751 26.868706,26.86418 0,14.83667 -12.029529,26.86418 -26.868706,26.86418 -4.45321,-0.002 -8.836033,-1.11108 -12.754421,-3.08369 0,0 -7.546439,-4.88688 -10.587322,-2.83885 -7.579737,5.10494 -4.889817,18.29937 -3.026498,27.24492 3.066659,14.72256 8.455759,32.40598 8.455759,32.40598 0,0 17.68639,-5.38821 32.41143,-8.45435 8.94706,-1.86301 22.143714,-4.55247 27.249514,3.02599 2.04837,3.04037 -2.83932,10.58554 -2.83932,10.58554 -1.97294,3.91773 -3.082,8.29981 -3.08422,12.75227 0,14.83667 12.02953,26.86417 26.8687,26.86417 14.83918,0 26.86873,-12.0275 26.86873,-26.86417 -0.009,-4.45433 -1.12555,-8.83652 -3.09516,-12.75227 0,0 -4.87677,-7.54517 -2.8284,-10.58554 5.10581,-7.57846 18.30245,-4.889 27.24954,-3.02599 14.72504,3.06614 32.41141,8.45434 32.41141,8.45434 0,0 5.38912,-17.68342 8.45579,-32.40598 1.86334,-8.94555 4.55323,-22.13998 -3.0265,-27.24492 -3.04089,-2.04803 -10.58732,2.82792 -10.58732,2.82792 -3.91643,1.96928 -8.29936,3.08574 -12.75444,3.09462 -14.83914,0 -26.8687,-12.02751 -26.8687,-26.86418 0,-14.83667 12.02956,-26.86418 26.8687,-26.86418 4.45323,0.002 8.83605,1.11108 12.75444,3.08369 0,0 7.54643,4.88688 10.58732,2.83886 7.57973,-5.10495 4.88984,-18.299377 3.0265,-27.244926 -3.06667,-14.722559 -8.45575,-32.405964 -8.45575,-32.405964 0,0 -17.68641,5.38822 -32.41145,8.454358 z"
                 inkscape:connector-curvature="0"
                 sodipodi:nodetypes="ssccsccsscssccscccscssccsccsscssccscccscs" />
        </clipPath>
        <clipPath
             clipPathUnits="userSpaceOnUse"
             id="clipPath880-3">
            <path
                 id="path882-6"
                 style="opacity:1;vector-effect:none;fill:#d8d8d8;fill-opacity:1;stroke:none;stroke-width:0.944882;stroke-linecap:square;paint-order:markers stroke fill;stop-color:#000000;stop-opacity:1"
                 d="m 55.861814,79.805315 c 1.863013,8.947057 4.552472,22.143715 -3.025991,27.249515 -3.040366,2.04837 -10.585535,-2.83933 -10.585535,-2.83933 -3.91773,-1.97294 -8.299812,-3.08198 -12.75227,-3.08421 -14.836671,0 -26.8641748,12.02954 -26.8641748,26.86871 0,14.83917 12.0275038,26.86871 26.8641748,26.86871 4.454329,-0.009 8.836521,-1.12553 12.75227,-3.09514 0,0 7.545169,-4.87678 10.585535,-2.82841 7.578463,5.10581 4.889004,18.30247 3.025991,27.24952 -3.066138,14.72504 -8.454349,32.41144 -8.454349,32.41144 0,0 17.683412,5.3891 32.405969,8.45576 8.945548,1.86332 22.139986,4.55324 27.244926,-3.0265 2.04802,-3.04088 -2.82793,-10.58732 -2.82793,-10.58732 -1.96928,-3.91641 -3.08573,-8.29934 -3.09462,-12.75442 0,-14.83918 12.02751,-26.86871 26.86418,-26.86871 14.83667,0 26.86418,12.02953 26.86418,26.86871 -0.002,4.45321 -1.11108,8.83603 -3.08369,12.75442 0,0 -4.88688,7.54644 -2.83885,10.58732 5.10494,7.57974 18.29937,4.88982 27.24492,3.0265 14.72256,-3.06666 32.40598,-8.45576 32.40598,-8.45576 0,0 -5.38821,-17.68639 -8.45435,-32.41143 -1.86301,-8.94706 -4.55247,-22.14371 3.02599,-27.24952 3.04037,-2.04837 10.58554,2.83933 10.58554,2.83933 3.91773,1.97294 8.29981,3.08199 12.75227,3.08421 14.83667,0 26.86417,-12.02953 26.86417,-26.8687 0,-14.83918 -12.0275,-26.86872 -26.86417,-26.86872 -4.45433,0.009 -8.83652,1.12554 -12.75227,3.09515 0,0 -7.54517,4.87677 -10.58554,2.8284 -7.57846,-5.1058 -4.889,-18.302461 -3.02599,-27.249517 3.06614,-14.72504 8.45434,-32.411446 8.45434,-32.411446 0,0 -17.68342,-5.389118 -32.40598,-8.455774 -8.94555,-1.863326 -22.13998,-4.553239 -27.24492,3.026502 -2.04803,3.040879 2.82792,10.587318 2.82792,10.587318 1.96928,3.916411 3.08574,8.29934 3.09462,12.754422 0,14.839173 -12.02751,26.868707 -26.86418,26.868707 -14.83667,0 -26.86418,-12.029534 -26.86418,-26.868707 0.002,-4.453207 1.11108,-8.83603 3.08369,-12.754422 0,0 4.88688,-7.546439 2.83886,-10.587318 -5.10495,-7.579741 -18.299379,-4.889828 -27.244928,-3.026502 -14.722561,3.066656 -32.405965,8.455767 -32.405965,8.455767 0,0 5.388219,17.686401 8.454357,32.411445 z"
                 inkscape:connector-curvature="0"
                 sodipodi:nodetypes="ssccsccsscssccscccscssccsccsscssccscccscs" />
        </clipPath>
        <clipPath
             clipPathUnits="userSpaceOnUse"
             id="clipPath281">
            <path
                 id="path283"
                 style="opacity:1;vector-effect:none;fill:#d8d8d8;fill-opacity:1;stroke:none;stroke-width:0.25;stroke-linecap:square;paint-order:markers stroke fill;stop-color:#000000;stop-opacity:1"
                 d="m 46.614586,-27.870373 c -2.36724,0.492922 -5.858862,1.204508 -7.209769,-0.800627 -0.541967,-0.80443 0.751237,-2.800756 0.751237,-2.800756 0.522007,-1.036566 0.815443,-2.195992 0.816033,-3.374038 0,-3.925536 -3.182818,-7.107813 -7.109015,-7.107813 -3.926195,0 -7.109013,3.182277 -7.109013,7.107813 0.0024,1.178541 0.297796,2.337996 0.818922,3.374038 0,0 1.290315,1.996326 0.748353,2.800756 -1.350915,2.005135 -4.84253,1.293549 -7.20977,0.800627 -3.896,-0.811249 -8.575527,-2.23688 -8.575527,-2.23688 0,0 -1.425866,4.678736 -2.237253,8.574079 -0.4930031,2.366843 -1.2047111,5.857871 0.800761,7.208553 0.804567,0.541872 2.801229,-0.748223 2.801229,-0.748223 1.036217,-0.521039 2.195867,-0.816433 3.374607,-0.818785 3.926199,0 7.109012,3.182279 7.109012,7.1078144 0,3.9255356 -3.182813,7.1078143 -7.109012,7.1078143 -1.178245,-5.292e-4 -2.337867,-0.2939732 -3.374607,-0.815893 0,0 -1.996662,-1.292987 -2.801229,-0.7511124 -2.0054721,1.3506821 -1.2937641,4.8417083 -0.800761,7.2085518 0.811387,3.8953439 2.237253,8.5740819 2.237253,8.5740819 0,0 4.679524,-1.42563 8.575524,-2.23688 2.367243,-0.4929212 5.858858,-1.2045075 7.209768,0.800627 0.541964,0.804431 -0.751237,2.800757 -0.751237,2.800757 -0.522007,1.036566 -0.815446,2.195992 -0.816033,3.374038 0,3.925536 3.182813,7.107812 7.10901,7.107812 3.9262,0 7.109018,-3.182276 7.109018,-7.107812 -0.0024,-1.178541 -0.297802,-2.337996 -0.818928,-3.374038 0,0 -1.290312,-1.996326 -0.748347,-2.800757 1.350912,-2.0051345 4.842523,-1.2935482 7.209774,-0.800627 3.896,0.81125 8.575519,2.236878 8.575519,2.236878 0,0 1.425871,-4.6787386 2.237261,-8.5740826 0.493009,-2.3668434 1.204709,-5.8578697 -0.800761,-7.2085517 -0.804569,-0.5418746 -2.801229,0.7482205 -2.801229,0.7482205 -1.036222,0.5210386 -2.195872,0.8164354 -3.374612,0.8187849 -3.926189,0 -7.10901,-3.1822787 -7.10901,-7.1078143 0,-3.9255358 3.182821,-7.1078138 7.10901,-7.1078138 1.17825,5.29e-4 2.337871,0.293973 3.374612,0.815892 0,0 1.99666,1.292987 2.801229,0.751116 2.00547,-1.350685 1.29377,-4.841711 0.800761,-7.208554 -0.81139,-3.895344 -2.23725,-8.574078 -2.23725,-8.574078 0,0 -4.67953,1.425633 -8.57553,2.236882 z"
                 inkscape:connector-curvature="0"
                 sodipodi:nodetypes="ssccsccsscssccscccscssccsccsscssccscccscs" />
        </clipPath>
        <clipPath
             clipPathUnits="userSpaceOnUse"
             id="clipPath319">
            <path
                 sodipodi:nodetypes="ssccsccsscssccscccscssccsccsscssccscccscs"
                 inkscape:connector-curvature="0"
                 d="M 3.9681399,14.776558 C 1.6009,15.26948 -1.89072,15.981066 -3.2416289,13.975929 -3.783594,13.171501 -2.49039,11.175174 -2.49039,11.175174 c 0.522007,-1.036566 0.815441,-2.1959909 0.816031,-3.3740377 0,-3.9255355 -3.182816,-7.10781422 -7.1090131,-7.10781422 -3.9261969,0 -7.1090129,3.18227872 -7.1090129,7.10781422 0.0024,1.1785415 0.297796,2.3379957 0.818922,3.3740377 0,0 1.290315,1.996327 0.748351,2.800755 -1.350913,2.005137 -4.842529,1.293551 -7.209769,0.800629 -3.896,-0.811249 -8.575527,-2.23688 -8.575527,-2.23688 0,0 -1.425866,4.678736 -2.237253,8.574077 -0.493003,2.366844 -1.204711,5.857873 0.800761,7.208555 0.804567,0.541872 2.801229,-0.748224 2.801229,-0.748224 1.036217,-0.521038 2.195867,-0.816432 3.374607,-0.818784 3.926199,0 7.109012,3.182278 7.109012,7.107814 0,3.925535 -3.182813,7.107814 -7.109012,7.107814 -1.178245,-5.29e-4 -2.337867,-0.293973 -3.374607,-0.815893 0,0 -1.996662,-1.292987 -2.801229,-0.751112 -2.005472,1.350682 -1.293764,4.841708 -0.800761,7.208551 0.811387,3.895344 2.237253,8.574083 2.237253,8.574083 0,0 4.679524,-1.425631 8.575524,-2.23688 2.367243,-0.492922 5.858857,-1.204508 7.209769,0.800626 0.541964,0.804431 -0.751239,2.800758 -0.751239,2.800758 -0.522007,1.036566 -0.815444,2.195991 -0.816031,3.374038 0,3.925535 3.182813,7.107811 7.10901,7.107811 3.9262,0 7.109016,-3.182276 7.109016,-7.107811 -0.0024,-1.178542 -0.2978,-2.337996 -0.8189261,-3.374038 0,0 -1.2903118,-1.996327 -0.748347,-2.800758 1.3509101,-2.005134 4.8425221,-1.293548 7.209772,-0.800626 3.8960002,0.811249 8.5755201,2.236877 8.5755201,2.236877 0,0 1.42587,-4.678738 2.23726,-8.574082 0.49301,-2.366844 1.20471,-5.85787 -0.80076,-7.208552 -0.80457,-0.541875 -2.80123,0.748221 -2.80123,0.748221 -1.03622,0.521038 -2.1958699,0.816435 -3.3746101,0.818784 -3.9261899,0 -7.10900991,-3.182278 -7.10900991,-7.107814 0,-3.925535 3.18282001,-7.107814 7.10900991,-7.107814 1.1782502,5.29e-4 2.3378701,0.293973 3.3746101,0.815893 0,0 1.99666,1.292987 2.80123,0.751115 2.00547,-1.350685 1.29377,-4.841711 0.80076,-7.208554 -0.81139,-3.895344 -2.23725,-8.574077 -2.23725,-8.574077 0,0 -4.6795299,1.425633 -8.5755301,2.236882 z"
                 style="opacity:1;vector-effect:none;fill:#d8d8d8;fill-opacity:1;stroke:none;stroke-width:0.25;stroke-linecap:square;paint-order:markers stroke fill;stop-color:#000000;stop-opacity:1"
                 id="path321" />
        </clipPath>
    </defs>
    <sodipodi:namedview
         id="base"
         pagecolor="#26242f"
         bordercolor="#666666"
         borderopacity="1.0"
         gridtolerance="10"
         inkscape:snap-perpendicular="true"
         inkscape:snap-tangential="true"
         inkscape:pageopacity="0"
         inkscape:pageshadow="2"
         inkscape:zoom="0.5"
         inkscape:cx="489"
         inkscape:cy="256"
         inkscape:document-units="px"
         inkscape:current-layer="layer1"
         inkscape:document-rotation="0"
         showgrid="false"
         units="px"
         inkscape:snap-global="true"
         inkscape:snap-smooth-nodes="false"
         inkscape:object-paths="false">
        <inkscape:grid
             type="xygrid"
             id="grid10"
             originx="33.698963"
             originy="33.866667"
             units="px"
             spacingx="2.1166667"
             spacingy="2.1166667" />
    </sodipodi:namedview>
    <metadata
         id="metadata5">
        <rdf:RDF>
            <cc:Work
                 rdf:about="">
                <dc:format>image/svg+xml</dc:format>
                <dc:type
                     rdf:resource="http://purl.org/dc/dcmitype/StillImage" />
                <dc:title></dc:title>
            </cc:Work>
        </rdf:RDF>
    </metadata>
    <g
         inkscape:label="Layer 1"
         inkscape:groupmode="layer"
         id="layer1"
         transform="translate(-0.16770434,42.482774)">
        <g
             id="g355"
             transform="translate(50.29611,11.648993)">
            <path
                 inkscape:connector-curvature="0"
                 d="m 15.309272,22.17349 c 0.492922,2.367242 1.204508,5.858857 -0.800627,7.209768 -0.80443,0.541965 -2.800756,-0.75124 -2.800756,-0.75124 -1.036566,-0.522007 -2.1959922,-0.815441 -3.3740382,-0.81603 -3.925536,0 -7.1078131,3.182815 -7.1078131,7.109012 0,3.926198 3.1822771,7.109013 7.1078131,7.109013 1.178541,-0.0024 2.3379962,-0.297797 3.3740382,-0.818923 0,0 1.996326,-1.290313 2.800756,-0.748348 2.005135,1.35091 1.293549,4.842526 0.800627,7.209768 -0.811249,3.896 -2.23688,8.575525 -2.23688,8.575525 0,0 4.678736,1.425868 8.574079,2.237254 2.366843,0.493005 5.857871,1.204711 7.208553,-0.800762 0.541873,-0.804566 -0.748222,-2.801228 -0.748222,-2.801228 -0.521038,-1.036217 -0.816434,-2.195867 -0.818785,-3.374607 0,-3.926198 3.182278,-7.109011 7.107815,-7.109011 3.925535,0 7.107813,3.182813 7.107813,7.109011 -5.89e-4,1.178245 -0.293973,2.337866 -0.815892,3.374607 0,0 -1.292987,1.996662 -0.751114,2.801228 1.350684,2.005473 4.84171,1.293767 7.208553,0.800762 3.895344,-0.811386 8.574082,-2.237253 8.574082,-2.237253 0,0 -1.425631,-4.679523 -2.23688,-8.575524 -0.492922,-2.367242 -1.204508,-5.858857 0.800627,-7.209768 0.80443,-0.541965 2.800756,0.75124 2.800756,0.75124 1.036566,0.522007 2.195992,0.815441 3.374038,0.81603 3.925536,0 7.107813,-3.182815 7.107813,-7.109012 0,-3.926198 -3.182277,-7.109013 -7.107813,-7.109013 -1.178541,0.0024 -2.337996,0.297797 -3.374038,0.818923 0,0 -1.996326,1.290313 -2.800756,0.748348 -2.005135,-1.35091 -1.293549,-4.842526 -0.800627,-7.209768 0.811249,-3.896 2.236878,-8.575529 2.236878,-8.575529 0,0 -4.67874,-1.425871 -8.574083,-2.237257 -2.366843,-0.493005 -5.857871,-1.204712 -7.208553,0.800762 -0.541873,0.804566 0.748222,2.801228 0.748222,2.801228 0.521038,1.036217 0.816434,2.195868 0.818785,3.374608 0,3.926198 -3.182278,7.109012 -7.107815,7.109012 -3.925535,0 -7.107813,-3.182814 -7.107813,-7.109012 5.89e-4,-1.178244 0.293973,-2.337867 0.815892,-3.374608 0,0 1.292987,-1.996662 0.751114,-2.801228 -1.350684,-2.005474 -4.84171,-1.293767 -7.208553,-0.800762 -3.895344,0.811386 -8.574078,2.237255 -8.574078,2.237255 0,0 1.425633,4.679528 2.236882,8.575529 z m 31.83448,-48.985526 c -2.36724,0.492922 -5.85886,1.204508 -7.209769,-0.800627 -0.541965,-0.80443 0.751239,-2.800756 0.751239,-2.800756 0.522007,-1.036566 0.815441,-2.195992 0.816031,-3.374038 0,-3.925536 -3.182816,-7.107813 -7.109013,-7.107813 -3.926197,0 -7.109013,3.182277 -7.109013,7.107813 0.0024,1.178541 0.297796,2.337996 0.818922,3.374038 0,0 1.290315,1.996326 0.748351,2.800756 -1.350913,2.005135 -4.842529,1.293549 -7.209769,0.800627 -3.896,-0.811249 -8.575527,-2.23688 -8.575527,-2.23688 0,0 -1.425866,4.678736 -2.237253,8.574079 -0.493003,2.366843 -1.204711,5.857871 0.800761,7.208553 0.804567,0.541872 2.801229,-0.748223 2.801229,-0.748223 1.036217,-0.521038 2.195867,-0.816432 3.374607,-0.818785 3.926199,0 7.109012,3.182279 7.109012,7.107815 0,3.925535 -3.182813,7.107814 -7.109012,7.107814 -1.178245,-5.29e-4 -2.337867,-0.293973 -3.374607,-0.815893 0,0 -1.996662,-1.292987 -2.801229,-0.751113 -2.005472,1.350682 -1.293764,4.841709 -0.800761,7.208552 0.811387,3.895344 2.237253,8.574082 2.237253,8.574082 0,0 4.679524,-1.42563 8.575524,-2.23688 2.367243,-0.492921 5.858857,-1.204508 7.209769,0.800627 0.541964,0.804431 -0.751239,2.800757 -0.751239,2.800757 -0.522007,1.036566 -0.815444,2.195991 -0.816031,3.374038 0,3.925536 3.182813,7.107812 7.10901,7.107812 3.9262,0 7.109016,-3.182276 7.109016,-7.107812 -0.0024,-1.178541 -0.2978,-2.337996 -0.818926,-3.374038 0,0 -1.290312,-1.996326 -0.748347,-2.800757 1.35091,-2.005135 4.842522,-1.293548 7.209772,-0.800627 3.896,0.81125 8.57552,2.236878 8.57552,2.236878 0,0 1.42587,-4.678739 2.23726,-8.574083 0.49301,-2.366843 1.20471,-5.857869 -0.80076,-7.208551 -0.80457,-0.541875 -2.80123,0.74822 -2.80123,0.74822 -1.03622,0.521039 -2.19587,0.816436 -3.37461,0.818785 -3.92619,0 -7.10901,-3.182278 -7.10901,-7.107814 0,-3.925536 3.18282,-7.107814 7.10901,-7.107814 1.17825,5.29e-4 2.33787,0.293973 3.37461,0.815893 0,0 1.99666,1.292987 2.80123,0.751115 2.00547,-1.350685 1.29377,-4.841711 0.80076,-7.208554 -0.81139,-3.895344 -2.23725,-8.574078 -2.23725,-8.574078 0,0 -4.67953,1.425633 -8.57553,2.236882 z M 4.4968708,15.842035 c -2.367241,0.492922 -5.85886,1.204508 -7.209769,-0.800627 -0.541965,-0.80443 0.751239,-2.800756 0.751239,-2.800756 0.522007,-1.036566 0.815441,-2.195992 0.816031,-3.3740382 0,-3.925536 -3.182816,-7.107813 -7.109013,-7.107813 -3.9261968,0 -7.1090128,3.182277 -7.1090128,7.107813 0.0024,1.1785412 0.297796,2.3379962 0.818922,3.3740382 0,0 1.290315,1.996326 0.748351,2.800756 -1.350913,2.005135 -4.842529,1.293549 -7.209769,0.800627 -3.896,-0.811249 -8.575527,-2.23688 -8.575527,-2.23688 0,0 -1.425866,4.678736 -2.237253,8.574079 -0.493003,2.366843 -1.204711,5.857871 0.800761,7.208552 0.804567,0.541872 2.801229,-0.748223 2.801229,-0.748223 1.036217,-0.521037 2.195867,-0.816431 3.374607,-0.818784 3.926199,0 7.109012,3.182278 7.109012,7.107816 0,3.925533 -3.182813,7.107814 -7.109012,7.107814 -1.178245,-5.29e-4 -2.337867,-0.293973 -3.374607,-0.815892 0,0 -1.996662,-1.292987 -2.801229,-0.751116 -2.005472,1.350683 -1.293764,4.841711 -0.800761,7.208552 0.811387,3.895344 2.237253,8.574082 2.237253,8.574082 0,0 4.679524,-1.425628 8.575524,-2.23688 2.367243,-0.492918 5.858857,-1.204507 7.209769,0.800629 0.541964,0.804431 -0.751239,2.800755 -0.751239,2.800755 -0.522007,1.036566 -0.815444,2.195991 -0.816031,3.374038 0,3.925538 3.182813,7.107814 7.1090098,7.107814 3.9262,0 7.109016,-3.182276 7.109016,-7.107814 -0.0024,-1.178539 -0.297799,-2.337996 -0.818925,-3.374038 0,0 -1.290312,-1.996324 -0.748348,-2.800755 1.35091,-2.005136 4.842521,-1.293547 7.209772,-0.800629 3.896,0.811252 8.5755212,2.23688 8.5755212,2.23688 0,0 1.425869,-4.67874 2.237259,-8.574084 0.493011,-2.366844 1.204711,-5.857867 -0.800759,-7.20855 -0.804572,-0.541877 -2.801231,0.748218 -2.801231,0.748218 -1.03622,0.521042 -2.1958702,0.816438 -3.3746102,0.818785 -3.926189,0 -7.1090101,-3.182276 -7.1090101,-7.107811 0,-3.925539 3.1828211,-7.107816 7.1090101,-7.107816 1.178251,5.29e-4 2.3378692,0.293973 3.3746102,0.815894 0,0 1.996659,1.292987 2.801231,0.751115 2.00547,-1.350686 1.29377,-4.841712 0.800759,-7.208555 -0.81139,-3.895344 -2.237251,-8.574078 -2.237251,-8.574078 0,0 -4.6795292,1.425633 -8.5755292,2.236882 z"
                 style="opacity:1;vector-effect:none;fill:#000000;fill-opacity:0.667905;stroke:none;stroke-width:0.25;stroke-linecap:square;paint-order:markers stroke fill;filter:url(#filter876);stop-color:#000000;stop-opacity:1"
                 id="path47" />
            <g
                 transform="translate(-58.314865,-34.28336)"
                 id="g100">
                <path
                     id="path102"
                     style="opacity:1;vector-effect:none;fill:#d8d8d8;fill-opacity:1;stroke:none;stroke-width:0.25;stroke-linecap:square;paint-order:markers stroke fill;stop-color:#000000;stop-opacity:1"
                     d="m 104.92945,6.4129883 c -2.36724,0.492922 -5.85886,1.204508 -7.209769,-0.800627 -0.541965,-0.80443 0.751239,-2.800756 0.751239,-2.800756 0.522007,-1.036566 0.815441,-2.1959919 0.816031,-3.3740381 0,-3.9255358 -3.182816,-7.1078128 -7.109013,-7.1078128 -3.926197,0 -7.109013,3.182277 -7.109013,7.1078128 0.0024,1.1785412 0.297796,2.3379961 0.818922,3.3740381 0,0 1.290315,1.996326 0.748351,2.800756 -1.350913,2.005135 -4.842529,1.293549 -7.209769,0.800627 -3.896,-0.811249 -8.575527,-2.23688 -8.575527,-2.23688 0,0 -1.425866,4.678736 -2.237253,8.5740787 -0.493003,2.366843 -1.204711,5.857871 0.800761,7.208553 0.804567,0.541872 2.801229,-0.748223 2.801229,-0.748223 1.036217,-0.521038 2.195867,-0.816432 3.374607,-0.818785 3.926199,0 7.109012,3.182279 7.109012,7.107815 0,3.925535 -3.182813,7.107814 -7.109012,7.107814 -1.178245,-5.29e-4 -2.337867,-0.293973 -3.374607,-0.815893 0,0 -1.996662,-1.292987 -2.801229,-0.751113 -2.005472,1.350682 -1.293764,4.841709 -0.800761,7.208552 0.811387,3.895344 2.237253,8.574082 2.237253,8.574082 0,0 4.679524,-1.42563 8.575524,-2.23688 2.367243,-0.492921 5.858857,-1.204508 7.209769,0.800627 0.541964,0.804431 -0.751239,2.800757 -0.751239,2.800757 -0.522007,1.036566 -0.815444,2.195991 -0.816031,3.374038 0,3.925536 3.182813,7.107812 7.10901,7.107812 3.9262,0 7.109016,-3.182276 7.109016,-7.107812 -0.0024,-1.178541 -0.2978,-2.337996 -0.818926,-3.374038 0,0 -1.290312,-1.996326 -0.748347,-2.800757 1.35091,-2.005135 4.842522,-1.293548 7.209772,-0.800627 3.896,0.81125 8.57552,2.236878 8.57552,2.236878 0,0 1.42587,-4.678739 2.23726,-8.574083 0.49301,-2.366843 1.20471,-5.857869 -0.80076,-7.208551 -0.80457,-0.541875 -2.80123,0.74822 -2.80123,0.74822 -1.03622,0.521039 -2.19587,0.816436 -3.37461,0.818785 -3.92619,0 -7.10901,-3.182278 -7.10901,-7.107814 0,-3.925536 3.18282,-7.107814 7.10901,-7.107814 1.17825,5.29e-4 2.33787,0.293973 3.37461,0.815893 0,0 1.99666,1.292987 2.80123,0.751115 2.00547,-1.350685 1.29377,-4.841711 0.80076,-7.208554 -0.81139,-3.8953437 -2.23725,-8.5740777 -2.23725,-8.5740777 0,0 -4.67953,1.425633 -8.57553,2.236882 z"
                     inkscape:connector-curvature="0"
                     sodipodi:nodetypes="ssccsccsscssccscccscssccsccsscssccscccscs" />
                <image
                     sodipodi:absref="/home/geoff/mozilla/mozilla-central/comm/mail/branding/thunderbird/default256.png"
                     xlink:href="../../../../mozilla/mozilla-central/comm/mail/branding/thunderbird/default256.png"
                     y="7.5784979"
                     x="7.5784979"
                     width="52.576336"
                     height="52.576336"
                     preserveAspectRatio="none"
                     id="image22-8"
                     style="opacity:1;stroke-width:1.28829;stop-opacity:1"
                     clip-path="url(#clipPath281)"
                     transform="translate(58.314865,34.283361)" />
                <path
                     inkscape:connector-curvature="0"
                     clip-path="url(#clipPath207)"
                     id="path133"
                     transform="matrix(0.26458333,0,0,0.26458333,59.011736,-7.6702473)"
                     d="m 125.35156,0 c -14.83917,0 -26.869138,12.028564 -26.869138,26.865234 0.0091,4.454329 1.126093,8.836204 3.095698,12.751954 0,0 4.8765,7.545572 2.82813,10.585937 -5.105813,7.578463 -18.302951,4.888403 -27.25,3.025391 -14.725039,-3.066138 -32.410156,-8.455078 -32.410156,-8.455078 0,0 -5.390372,17.683695 -8.457032,32.40625 -1.829408,8.782749 -4.447553,21.65602 2.63086,26.953122 -4.517173,-6.072124 -2.257482,-17.134546 -0.628906,-24.953122 3.066659,-14.722556 8.455078,-32.40625 8.455078,-32.40625 0,-10e-7 17.68707,5.38894 32.412109,8.455078 8.947049,1.863012 22.144187,4.551119 27.249997,-3.027344 2.04837,-3.040365 -2.83008,-10.583984 -2.83008,-10.583984 -1.96961,-3.91575 -3.08467,-8.299578 -3.09374,-12.753907 C 100.48438,14.02661 112.51435,2 127.35352,2 134.26106,2 140.55644,4.6080844 145.31641,8.890625 140.39854,3.4337153 133.27667,0 125.35156,0 Z m 80.60547,44.773438 c 0,0 -17.68512,5.38894 -32.41015,8.455078 -7.81805,1.627924 -18.88101,3.885215 -24.95508,-0.626954 5.29959,7.07294 18.17227,4.455765 26.95508,2.626954 13.13529,-2.735112 27.9272,-7.112642 31.11914,-8.070313 -0.36643,-1.239159 -0.70899,-2.384765 -0.70899,-2.384765 z M 82.623047,107.39258 c 4.290426,4.76074 6.904297,11.06175 6.904297,17.97461 0,14.83667 -12.029964,26.86328 -26.869141,26.86328 -4.453209,-0.002 -8.835519,-1.11137 -12.753906,-3.08399 0,0 -7.547008,-4.88591 -10.587891,-2.83789 -7.579736,5.10494 -4.890662,18.2986 -3.027344,27.24414 3.06666,14.72256 8.457032,32.40625 8.457032,32.40625 0,0 0.906828,-0.26695 1.292968,-0.38281 -1.473212,-4.98184 -5.291504,-18.22996 -7.748046,-30.02344 -1.863319,-8.94554 -4.554346,-22.1392 3.02539,-27.24414 3.040883,-2.04802 10.587891,2.83789 10.587891,2.83789 3.918387,1.97262 8.300697,3.08199 12.753906,3.08399 14.839177,0 26.869141,-12.02857 26.869141,-26.86524 0,-7.93028 -3.438642,-15.0552 -8.904297,-19.97265 z m 87.451173,37.9414 c 4.91812,5.46167 12.0436,8.89649 19.97266,8.89649 4.45508,-0.009 8.83748,-1.12642 12.7539,-3.0957 0,0 7.547,-4.87421 10.58789,-2.82618 0.1382,0.0931 0.26505,0.19459 0.39649,0.29297 -0.65141,-0.87612 -1.44275,-1.64931 -2.39844,-2.29297 -3.0409,-2.04803 -10.58594,2.82813 -10.58594,2.82813 -3.91642,1.96928 -8.30078,3.08487 -12.75586,3.09375 -6.91104,0 -13.20988,-2.61007 -17.9707,-6.89649 z m -65.96289,54.79688 c 0.0991,0.13227 0.20119,0.26127 0.29492,0.40039 2.04837,3.04037 -2.83984,10.58594 -2.83984,10.58594 -1.972944,3.91773 -3.08177,8.29949 -3.083988,12.75195 0,7.92673 3.435098,15.04957 8.896488,19.9668 -4.28604,-4.75978 -6.89453,-11.05986 -6.89453,-17.96875 0.002,-4.45246 1.11104,-8.83423 3.08398,-12.75196 0,0 4.88821,-7.54361 2.83984,-10.58398 -0.64429,-0.95632 -1.4197,-1.74878 -2.29687,-2.40039 z"
                     style="font-variation-settings:normal;opacity:1;vector-effect:none;fill:#ffffff;fill-opacity:0.693776;stroke:none;stroke-width:0.944882;stroke-linecap:square;stroke-linejoin:miter;stroke-miterlimit:4;stroke-dasharray:none;stroke-dashoffset:0;stroke-opacity:1;paint-order:markers stroke fill;filter:url(#filter853);stop-color:#000000;stop-opacity:1" />
                <path
                     inkscape:connector-curvature="0"
                     clip-path="url(#clipPath227)"
                     id="path211"
                     transform="matrix(0.26458333,0,0,0.26458333,58.482569,-8.199414)"
                     d="m 145.33008,8.9023438 c 4.28326,4.7591632 6.89062,11.0545552 6.89062,17.9609372 -0.002,4.452458 -1.11104,8.836177 -3.08398,12.753907 0,0 -4.88822,7.543619 -2.83984,10.583984 0.64322,0.954734 1.41759,1.745491 2.29296,2.396484 -0.0982,-0.131185 -0.20005,-0.258565 -0.29296,-0.396484 -2.04838,-3.040365 2.83984,-10.583985 2.83984,-10.583984 1.97294,-3.91773 3.08175,-8.301449 3.08398,-12.753907 0,-7.923812 -3.43274,-15.043897 -8.89062,-19.9609372 z m 62.6289,37.8710942 c 0,0 -0.90573,0.269168 -1.29101,0.384765 1.47389,4.984309 5.29003,18.230346 7.74609,30.021485 1.86335,8.945548 4.55434,22.139189 -3.02539,27.244142 -3.04089,2.04802 -10.58789,-2.83789 -10.58789,-2.83789 -3.91839,-1.972614 -8.30068,-3.081988 -12.7539,-3.083987 -14.83915,0 -26.86915,12.026607 -26.86915,26.863277 0,7.92679 3.43504,15.05152 8.89649,19.96875 -4.2861,-4.75978 -6.89649,-11.05981 -6.89649,-17.96875 0,-14.83667 12.03,-26.86328 26.86915,-26.86328 4.45322,0.002 8.83551,1.11138 12.7539,3.08399 0,0 7.547,4.88591 10.58789,2.83789 7.57973,-5.10495 4.88874,-18.298594 3.02539,-27.244142 -3.06667,-14.722559 -8.45508,-32.406251 -8.45508,-32.40625 z M 62.658203,98.501953 c -4.45508,0.0089 -8.837495,1.124473 -12.753906,3.093747 0,0 -7.547008,4.87615 -10.587891,2.82813 -0.139731,-0.0941 -0.26757,-0.19735 -0.40039,-0.29688 0.651901,0.87758 1.443427,1.65237 2.40039,2.29688 3.040883,2.04802 10.587891,-2.82813 10.587891,-2.82813 3.916411,-1.96927 8.298826,-3.08485 12.753906,-3.09375 6.911053,0 13.211838,2.61007 17.972656,6.89649 -4.918117,-5.46167 -12.043586,-8.896487 -19.972656,-8.896487 z M 213.78906,148.60547 c 4.51156,6.07334 2.25309,17.13112 0.625,24.94726 -3.06667,14.72256 -8.45508,32.40625 -8.45508,32.40625 0,0 -17.68707,-5.38893 -32.4121,-8.45507 -8.94709,-1.86301 -22.1442,-4.55112 -27.25,3.02734 -2.04838,3.04037 2.83007,10.58398 2.83007,10.58398 1.96961,3.91575 3.08468,8.29763 3.09375,12.75196 0,14.83667 -12.028,26.86523 -26.86718,26.86523 -6.91403,0 -13.21698,-2.61264 -17.97852,-6.90234 4.91828,5.46473 12.04689,8.90234 19.97852,8.90234 14.83918,0 26.86718,-12.02856 26.86718,-26.86523 -0.009,-4.45433 -1.12414,-8.83621 -3.09375,-12.75196 0,0 -4.87845,-7.54361 -2.83007,-10.58398 5.1058,-7.57846 18.30291,-4.89035 27.25,-3.02734 14.72503,3.06614 32.4121,8.45507 32.4121,8.45507 0,0 5.38841,-17.68369 8.45508,-32.40625 1.829,-8.78063 4.44705,-21.64779 -2.625,-26.94726 z M 92.222656,195.47656 c -5.055771,-0.0421 -10.590923,1.09584 -15.064453,2.02735 -13.135295,2.73511 -27.927205,7.11264 -31.119141,8.07031 0.3664,1.23905 0.707032,2.38476 0.707032,2.38476 0,0 17.68707,-5.38893 32.412109,-8.45507 7.819911,-1.62831 18.883884,-3.88559 24.957027,0.63086 -2.5999,-3.47302 -7.020821,-4.61767 -11.892574,-4.65821 z"
                     style="font-variation-settings:normal;opacity:1;vector-effect:none;fill:#000000;fill-opacity:0.352513;stroke:none;stroke-width:0.944882;stroke-linecap:square;stroke-linejoin:miter;stroke-miterlimit:4;stroke-dasharray:none;stroke-dashoffset:0;stroke-opacity:1;paint-order:markers stroke fill;filter:url(#filter874);stop-color:#000000;stop-opacity:1" />
            </g>
            <g
                 id="g38">
                <path
                     sodipodi:nodetypes="csccsccsscssccsccccccccccscscccccccsccscccscscc"
                     inkscape:connector-curvature="0"
                     d="m 14.780105,21.115156 c 0.492922,2.367242 1.204508,5.858857 -0.800627,7.209768 -0.80443,0.541965 -2.800756,-0.75124 -2.800756,-0.75124 -1.036566,-0.522007 -2.195992,-0.815441 -3.374038,-0.81603 -3.925536,0 -7.107813,3.182815 -7.107813,7.109012 0,3.926198 3.182277,7.109013 7.107813,7.109013 1.178541,-0.0024 2.337996,-0.297797 3.374038,-0.818923 0,0 1.996326,-1.290313 2.800756,-0.748348 2.005135,1.35091 1.293549,4.842526 0.800627,7.209768 -0.811249,3.896 -2.23688,8.575525 -2.23688,8.575525 0,0 4.678736,1.425868 8.574079,2.237254 2.366843,0.493005 5.857871,1.204711 7.208553,-0.800762 0.541873,-0.804566 -0.748222,-2.801228 -0.748222,-2.801228 -0.521038,-1.036217 -0.816434,-2.195867 -0.818785,-3.374607 0,-3.926198 3.182278,-7.109011 7.107815,-7.109011 3.925535,0 7.107813,3.182813 7.107813,7.109011 -5.89e-4,1.178245 -0.293973,2.337866 -0.815892,3.374607 0,0 -1.292987,1.996662 -0.751114,2.801228 0.632075,0.938494 1.732868,1.281946 2.967829,1.331228 l 2.272609,-0.690468 1.396347,0.277753 c 0.196377,-0.03965 0.38748,-0.07937 0.571768,-0.117751 3.895344,-0.811386 8.574082,-2.237253 8.574082,-2.237253 0,0 -0.502123,-1.64818 -1.079949,-3.802611 l -3.559262,-7.549565 3.19891,-6.013386 5.709292,3.131867 c 0.137091,0.0752 0.312621,0.0156 0.46955,0.01567 3.925536,0 7.107813,-3.182815 7.107813,-7.109012 0,-3.926198 -3.182277,-7.109013 -7.107813,-7.109013 -0.444794,9.06e-4 -0.886869,0.04355 -1.320618,0.124304 l -5.059892,3.449437 -2.743961,-6.540461 2.756474,-5.320989 c 0.765502,-3.094453 1.629454,-5.930316 1.629454,-5.930316 0,0 -4.67874,-1.425871 -8.574083,-2.237257 -2.366843,-0.493005 -5.857871,-1.204711 -7.208553,0.800762 -0.541873,0.804566 0.748222,2.801228 0.748222,2.801228 0.521038,1.036217 0.816434,2.195867 0.818785,3.374607 0,3.926198 -3.182278,7.109012 -7.107815,7.109012 -3.925535,0 -7.107813,-3.182814 -7.107813,-7.109012 5.89e-4,-1.178244 0.293973,-2.337866 0.815892,-3.374607 0,0 1.292987,-1.996662 0.751114,-2.801228 -1.350684,-2.005473 -4.84171,-1.293767 -7.208553,-0.800762 -3.895344,0.811386 -8.574078,2.237255 -8.574078,2.237255 0,0 1.425633,4.679527 2.236882,8.575528 z"
                     style="opacity:1;vector-effect:none;fill:#d8d8d8;fill-opacity:1;stroke:none;stroke-width:0.25;stroke-linecap:square;paint-order:markers stroke fill;stop-color:#000000;stop-opacity:1"
                     id="path41" />
                <image
                     sodipodi:absref="/home/geoff/mozilla/mozilla-central/comm/mail/branding/thunderbird/default256.png"
                     xlink:href="../../../../mozilla/mozilla-central/comm/mail/branding/thunderbird/default256.png"
                     clip-path="url(#clipPath43)"
                     style="opacity:1;stroke-width:1.28829;stop-opacity:1"
                     id="image22"
                     preserveAspectRatio="none"
                     height="52.576336"
                     width="52.576336"
                     x="7.5784979"
                     y="7.5784979" />
                <path
                     style="opacity:1;vector-effect:none;fill:#ffffff;fill-opacity:0.693776;stroke:none;stroke-width:0.944882;stroke-linecap:square;paint-order:markers stroke fill;filter:url(#filter853);stop-color:#000000;stop-opacity:1"
                     d="M 94.876953,36.910156 C 89.822034,36.868083 84.285274,38.005837 79.8125,38.9375 c -14.72256,3.066656 -32.404297,8.457031 -32.404297,8.457031 0,0 5.386987,17.685113 8.453125,32.410157 1.863012,8.947056 4.553073,22.144192 -3.02539,27.250002 C 49.795572,109.10306 42.25,104.21484 42.25,104.21484 c -3.91773,-1.97294 -8.299496,-3.08175 -12.751953,-3.08398 -14.836672,0 -26.8632814,12.02997 -26.8632814,26.86914 0,8.43745 3.8902752,15.96277 9.9726564,20.88867 C 8.873269,144.27385 6.6347656,138.39922 6.6347656,132 c 0,-14.83917 12.0266094,-26.86914 26.8632814,-26.86914 4.452456,0.002 8.834223,1.11104 12.751953,3.08398 0,0 7.545572,4.88822 10.585938,2.83985 7.578463,-5.10581 4.888402,-18.302946 3.02539,-27.250002 -3.066138,-14.725044 -8.453125,-32.410157 -8.453125,-32.410157 0,0 17.681737,-5.390375 32.404297,-8.457031 7.25876,-1.511974 17.31432,-3.566271 23.57617,-0.238281 -0.0801,-0.263844 -0.18129,-0.513467 -0.33008,-0.734375 -2.55247,-3.789871 -7.126718,-5.012614 -12.181637,-5.054688 z m 66.246097,0 c -5.05492,0.04207 -9.62917,1.264817 -12.18164,5.054688 -2.04803,3.040879 2.82812,10.58789 2.82812,10.58789 1.96928,3.916411 3.08487,8.298826 3.09375,12.753907 0,14.839173 -12.0266,26.86914 -26.86328,26.86914 -6.3991,0 -12.27236,-2.242721 -16.88672,-5.978515 4.92505,6.084197 12.45005,9.978515 20.88672,9.978515 14.83668,0 26.86328,-12.029967 26.86328,-26.86914 -0.009,-4.455081 -1.12447,-8.837496 -3.09375,-12.753907 0,0 -4.87615,-7.547011 -2.82812,-10.58789 5.10494,-7.579745 18.30054,-4.89067 27.24609,-3.027344 10.18941,2.122418 21.44877,5.269701 27.63086,7.060547 0.43057,-1.46129 0.77344,-2.603516 0.77344,-2.603516 0,0 -17.68174,-5.390375 -32.4043,-8.457031 -4.47277,-0.931663 -10.00953,-2.069417 -15.06445,-2.027344 z m 65.3789,64.220704 c -4.45433,0.009 -8.8362,1.12609 -12.75195,3.0957 0,0 -6.48408,4.18441 -9.85156,3.16016 0.77316,1.45472 1.83711,2.70554 3.26562,3.66797 3.04037,2.04837 10.58594,-2.82813 10.58594,-2.82813 3.91575,-1.96961 8.29762,-3.08663 12.75195,-3.0957 6.40064,0 12.27577,2.24306 16.89063,5.98047 -4.92499,-6.08651 -12.4521,-9.98047 -20.89063,-9.98047 z M 56.101562,152.61328 c 3.328567,6.2628 1.271608,16.32146 -0.240234,23.58203 -3.066138,14.72504 -8.453125,32.41016 -8.453125,32.41016 0,0 2.023103,0.59976 4.773438,1.39648 1.548784,-5.25633 5.280528,-18.28475 7.679687,-29.80664 1.863012,-8.94705 4.553073,-22.1442 -3.02539,-27.25 -0.220872,-0.1488 -0.470576,-0.25179 -0.734376,-0.33203 z m 92.785158,21.18945 c 3.73611,4.61544 5.97656,10.48955 5.97656,16.89063 -0.002,4.45321 -1.10942,8.83551 -3.08203,12.75391 0,0 -4.88787,7.54701 -2.83984,10.58789 0.96259,1.42925 2.21479,2.49226 3.66992,3.26562 -1.02271,-3.36805 3.16992,-9.85351 3.16992,-9.85351 1.97261,-3.9184 3.07981,-8.3007 3.08203,-12.75391 0,-8.43899 -3.89227,-15.96478 -9.97656,-20.89063 z"
                     transform="matrix(0.26458333,0,0,0.26458333,-0.52916666,-0.52916666)"
                     id="path15"
                     clip-path="url(#clipPath176)"
                     inkscape:connector-curvature="0" />
                <path
                     inkscape:connector-curvature="0"
                     style="opacity:1;vector-effect:none;fill:#000000;fill-opacity:0.352513;stroke:none;stroke-width:0.944882;stroke-linecap:square;paint-order:markers stroke fill;filter:url(#filter874);stop-color:#000000;stop-opacity:1"
                     d="m 104.76367,39.564453 c 0.0991,0.132294 0.20121,0.261244 0.29492,0.400391 2.04803,3.040879 -2.83984,10.58789 -2.83984,10.58789 -1.97261,3.918392 -3.079805,8.300701 -3.082031,12.753907 0,7.928653 3.435321,15.052611 8.896481,19.970703 -4.28593,-4.760713 -6.89648,-11.060087 -6.89648,-17.970703 0.002,-4.453206 1.10942,-8.835515 3.08203,-12.753907 0,0 4.88787,-7.547011 2.83984,-10.58789 -0.64417,-0.956463 -1.41791,-1.748682 -2.29492,-2.400391 z m 101.44531,7.121094 c -0.95688,3.189285 -5.33486,17.982219 -8.07031,31.119141 -1.82867,8.782119 -4.44586,21.652757 2.625,26.953122 -4.51085,-6.074351 -2.2528,-17.135635 -0.625,-24.953122 3.06614,-14.72504 8.45313,-32.410157 8.45313,-32.410157 0,0 -1.14401,-0.342656 -2.38282,-0.708984 z M 244.4707,108.0293 c 4.28537,4.76059 6.89453,11.06059 6.89453,17.9707 0,14.83917 -12.02661,26.86914 -26.86328,26.86914 -4.45245,-0.002 -8.83422,-1.11104 -12.75195,-3.08398 0,0 -7.54557,-4.88822 -10.58594,-2.83985 -7.57846,5.10581 -4.8884,18.30295 -3.02539,27.25 3.06614,14.72505 8.45313,32.41016 8.45313,32.41016 0,0 -17.68174,5.39037 -32.4043,8.45703 -7.81674,1.6282 -18.87812,3.88598 -24.95117,-0.62695 5.29871,7.07413 18.16984,4.45607 26.95117,2.62695 14.72256,-3.06666 32.4043,-8.45703 32.4043,-8.45703 0,0 -5.38699,-17.68511 -8.45313,-32.41016 -1.86301,-8.94705 -4.55307,-22.14419 3.02539,-27.25 3.04037,-2.04837 10.58594,2.83985 10.58594,2.83985 3.91773,1.97294 8.2995,3.08175 12.75195,3.08398 14.83667,0 26.86328,-12.02997 26.86328,-26.86914 0,-7.92812 -3.434,-15.05264 -8.89453,-19.9707 z M 9.5292969,145.9707 c 4.9172891,5.46259 12.0410191,8.89844 19.9687501,8.89844 4.454328,-0.009 8.836204,-1.12609 12.751953,-3.0957 0,0 7.545572,-4.8765 10.585938,-2.82813 0.139707,0.0941 0.267592,0.19733 0.40039,0.29688 -0.651785,-0.8777 -1.443607,-1.65227 -2.40039,-2.29688 C 47.795572,144.89694 40.25,149.77344 40.25,149.77344 c -3.915748,1.96961 -8.297625,3.08663 -12.751953,3.0957 -6.909886,0 -13.208734,-2.6113 -17.9687501,-6.89844 z M 126,161.82422 c -14.83668,0 -26.863281,12.02997 -26.863281,26.86914 0.0089,4.45508 1.124471,8.83749 3.093751,12.75391 0,0 4.87615,7.54701 2.82812,10.58789 -5.104936,7.57974 -18.300542,4.89067 -27.24609,3.02734 -11.791587,-2.45615 -25.037647,-6.27428 -30.021484,-7.74805 -0.115678,0.38555 -0.382813,1.29102 -0.382813,1.29102 0,0 17.681741,5.39037 32.404297,8.45703 8.945548,1.86333 22.14115,4.5524 27.24609,-3.02734 2.04803,-3.04088 -2.82812,-10.58789 -2.82812,-10.58789 -1.96928,-3.91642 -3.08487,-8.29883 -3.09375,-12.75391 0,-14.83917 12.0266,-26.86914 26.86328,-26.86914 6.90935,0 13.20691,2.61189 17.9668,6.89844 -4.91726,-5.46197 -12.03958,-8.89844 -19.9668,-8.89844 z"
                     transform="scale(0.26458333)"
                     id="path857"
                     clip-path="url(#clipPath880)" />
            </g>
            <g
                 id="g293"
                 transform="translate(-100.96131,8.36357)">
                <path
                     sodipodi:nodetypes="ssccsccsscssccscccscssccsccsscssccscccscs"
                     inkscape:connector-curvature="0"
                     d="m 104.92945,6.4129883 c -2.36724,0.492922 -5.85886,1.204508 -7.209769,-0.800627 -0.541965,-0.80443 0.751239,-2.800756 0.751239,-2.800756 0.522007,-1.036566 0.815441,-2.1959919 0.816031,-3.3740381 0,-3.9255358 -3.182816,-7.1078128 -7.109013,-7.1078128 -3.926197,0 -7.109013,3.182277 -7.109013,7.1078128 0.0024,1.1785412 0.297796,2.3379961 0.818922,3.3740381 0,0 1.290315,1.996326 0.748351,2.800756 -1.350913,2.005135 -4.842529,1.293549 -7.209769,0.800627 -3.896,-0.811249 -8.575527,-2.23688 -8.575527,-2.23688 0,0 -1.425866,4.678736 -2.237253,8.5740787 -0.493003,2.366843 -1.204711,5.857871 0.800761,7.208553 0.804567,0.541872 2.801229,-0.748223 2.801229,-0.748223 1.036217,-0.521038 2.195867,-0.816432 3.374607,-0.818785 3.926199,0 7.109012,3.182279 7.109012,7.107815 0,3.925535 -3.182813,7.107814 -7.109012,7.107814 -1.178245,-5.29e-4 -2.337867,-0.293973 -3.374607,-0.815893 0,0 -1.996662,-1.292987 -2.801229,-0.751113 -2.005472,1.350682 -1.293764,4.841709 -0.800761,7.208552 0.811387,3.895344 2.237253,8.574082 2.237253,8.574082 0,0 4.679524,-1.42563 8.575524,-2.23688 2.367243,-0.492921 5.858857,-1.204508 7.209769,0.800627 0.541964,0.804431 -0.751239,2.800757 -0.751239,2.800757 -0.522007,1.036566 -0.815444,2.195991 -0.816031,3.374038 0,3.925536 3.182813,7.107812 7.10901,7.107812 3.9262,0 7.109016,-3.182276 7.109016,-7.107812 -0.0024,-1.178541 -0.2978,-2.337996 -0.818926,-3.374038 0,0 -1.290312,-1.996326 -0.748347,-2.800757 1.35091,-2.005135 4.842522,-1.293548 7.209772,-0.800627 3.896,0.81125 8.57552,2.236878 8.57552,2.236878 0,0 1.42587,-4.678739 2.23726,-8.574083 0.49301,-2.366843 1.20471,-5.857869 -0.80076,-7.208551 -0.80457,-0.541875 -2.80123,0.74822 -2.80123,0.74822 -1.03622,0.521039 -2.19587,0.816436 -3.37461,0.818785 -3.92619,0 -7.10901,-3.182278 -7.10901,-7.107814 0,-3.925536 3.18282,-7.107814 7.10901,-7.107814 1.17825,5.29e-4 2.33787,0.293973 3.37461,0.815893 0,0 1.99666,1.292987 2.80123,0.751115 2.00547,-1.350685 1.29377,-4.841711 0.80076,-7.208554 -0.81139,-3.8953437 -2.23725,-8.5740777 -2.23725,-8.5740777 0,0 -4.67953,1.425633 -8.57553,2.236882 z"
                     style="opacity:1;vector-effect:none;fill:#d8d8d8;fill-opacity:1;stroke:none;stroke-width:0.25;stroke-linecap:square;paint-order:markers stroke fill;stop-color:#000000;stop-opacity:1"
                     id="path285" />
                <image
                     sodipodi:absref="/home/geoff/mozilla/mozilla-central/comm/mail/branding/thunderbird/default256.png"
                     xlink:href="../../../../mozilla/mozilla-central/comm/mail/branding/thunderbird/default256.png"
                     y="7.5784979"
                     x="7.5784979"
                     width="52.576336"
                     height="52.576336"
                     preserveAspectRatio="none"
                     id="image22-2"
                     style="opacity:1;stroke-width:1.28829;stop-opacity:1"
                     clip-path="url(#clipPath319)"
                     transform="translate(100.96131,-8.3635688)" />
                <path
                     style="font-variation-settings:normal;opacity:1;vector-effect:none;fill:#ffffff;fill-opacity:0.693776;stroke:none;stroke-width:0.944882;stroke-linecap:square;stroke-linejoin:miter;stroke-miterlimit:4;stroke-dasharray:none;stroke-dashoffset:0;stroke-opacity:1;paint-order:markers stroke fill;filter:url(#filter853);stop-color:#000000;stop-opacity:1"
                     d="m 125.35156,0 c -14.83917,0 -26.869138,12.028564 -26.869138,26.865234 0.0091,4.454329 1.126093,8.836204 3.095698,12.751954 0,0 4.8765,7.545572 2.82813,10.585937 -5.105813,7.578463 -18.302951,4.888403 -27.25,3.025391 -14.725039,-3.066138 -32.410156,-8.455078 -32.410156,-8.455078 0,0 -5.390372,17.683695 -8.457032,32.40625 -1.829408,8.782749 -4.447553,21.65602 2.63086,26.953122 -4.517173,-6.072124 -2.257482,-17.134546 -0.628906,-24.953122 3.066659,-14.722556 8.455078,-32.40625 8.455078,-32.40625 0,-10e-7 17.68707,5.38894 32.412109,8.455078 8.947049,1.863012 22.144187,4.551119 27.249997,-3.027344 2.04837,-3.040365 -2.83008,-10.583984 -2.83008,-10.583984 -1.96961,-3.91575 -3.08467,-8.299578 -3.09374,-12.753907 C 100.48438,14.02661 112.51435,2 127.35352,2 134.26106,2 140.55644,4.6080844 145.31641,8.890625 140.39854,3.4337153 133.27667,0 125.35156,0 Z m 80.60547,44.773438 c 0,0 -17.68512,5.38894 -32.41015,8.455078 -7.81805,1.627924 -18.88101,3.885215 -24.95508,-0.626954 5.29959,7.07294 18.17227,4.455765 26.95508,2.626954 13.13529,-2.735112 27.9272,-7.112642 31.11914,-8.070313 -0.36643,-1.239159 -0.70899,-2.384765 -0.70899,-2.384765 z M 82.623047,107.39258 c 4.290426,4.76074 6.904297,11.06175 6.904297,17.97461 0,14.83667 -12.029964,26.86328 -26.869141,26.86328 -4.453209,-0.002 -8.835519,-1.11137 -12.753906,-3.08399 0,0 -7.547008,-4.88591 -10.587891,-2.83789 -7.579736,5.10494 -4.890662,18.2986 -3.027344,27.24414 3.06666,14.72256 8.457032,32.40625 8.457032,32.40625 0,0 0.906828,-0.26695 1.292968,-0.38281 -1.473212,-4.98184 -5.291504,-18.22996 -7.748046,-30.02344 -1.863319,-8.94554 -4.554346,-22.1392 3.02539,-27.24414 3.040883,-2.04802 10.587891,2.83789 10.587891,2.83789 3.918387,1.97262 8.300697,3.08199 12.753906,3.08399 14.839177,0 26.869141,-12.02857 26.869141,-26.86524 0,-7.93028 -3.438642,-15.0552 -8.904297,-19.97265 z m 87.451173,37.9414 c 4.91812,5.46167 12.0436,8.89649 19.97266,8.89649 4.45508,-0.009 8.83748,-1.12642 12.7539,-3.0957 0,0 7.547,-4.87421 10.58789,-2.82618 0.1382,0.0931 0.26505,0.19459 0.39649,0.29297 -0.65141,-0.87612 -1.44275,-1.64931 -2.39844,-2.29297 -3.0409,-2.04803 -10.58594,2.82813 -10.58594,2.82813 -3.91642,1.96928 -8.30078,3.08487 -12.75586,3.09375 -6.91104,0 -13.20988,-2.61007 -17.9707,-6.89649 z m -65.96289,54.79688 c 0.0991,0.13227 0.20119,0.26127 0.29492,0.40039 2.04837,3.04037 -2.83984,10.58594 -2.83984,10.58594 -1.972944,3.91773 -3.08177,8.29949 -3.083988,12.75195 0,7.92673 3.435098,15.04957 8.896488,19.9668 -4.28604,-4.75978 -6.89453,-11.05986 -6.89453,-17.96875 0.002,-4.45246 1.11104,-8.83423 3.08398,-12.75196 0,0 4.88821,-7.54361 2.83984,-10.58398 -0.64429,-0.95632 -1.4197,-1.74878 -2.29687,-2.40039 z"
                     transform="matrix(0.26458333,0,0,0.26458333,59.011736,-7.6702473)"
                     id="path289"
                     clip-path="url(#clipPath207)"
                     inkscape:connector-curvature="0" />
                <path
                     inkscape:connector-curvature="0"
                     style="font-variation-settings:normal;opacity:1;vector-effect:none;fill:#000000;fill-opacity:0.352513;stroke:none;stroke-width:0.944882;stroke-linecap:square;stroke-linejoin:miter;stroke-miterlimit:4;stroke-dasharray:none;stroke-dashoffset:0;stroke-opacity:1;paint-order:markers stroke fill;filter:url(#filter874);stop-color:#000000;stop-opacity:1"
                     d="m 145.33008,8.9023438 c 4.28326,4.7591632 6.89062,11.0545552 6.89062,17.9609372 -0.002,4.452458 -1.11104,8.836177 -3.08398,12.753907 0,0 -4.88822,7.543619 -2.83984,10.583984 0.64322,0.954734 1.41759,1.745491 2.29296,2.396484 -0.0982,-0.131185 -0.20005,-0.258565 -0.29296,-0.396484 -2.04838,-3.040365 2.83984,-10.583985 2.83984,-10.583984 1.97294,-3.91773 3.08175,-8.301449 3.08398,-12.753907 0,-7.923812 -3.43274,-15.043897 -8.89062,-19.9609372 z m 62.6289,37.8710942 c 0,0 -0.90573,0.269168 -1.29101,0.384765 1.47389,4.984309 5.29003,18.230346 7.74609,30.021485 1.86335,8.945548 4.55434,22.139189 -3.02539,27.244142 -3.04089,2.04802 -10.58789,-2.83789 -10.58789,-2.83789 -3.91839,-1.972614 -8.30068,-3.081988 -12.7539,-3.083987 -14.83915,0 -26.86915,12.026607 -26.86915,26.863277 0,7.92679 3.43504,15.05152 8.89649,19.96875 -4.2861,-4.75978 -6.89649,-11.05981 -6.89649,-17.96875 0,-14.83667 12.03,-26.86328 26.86915,-26.86328 4.45322,0.002 8.83551,1.11138 12.7539,3.08399 0,0 7.547,4.88591 10.58789,2.83789 7.57973,-5.10495 4.88874,-18.298594 3.02539,-27.244142 -3.06667,-14.722559 -8.45508,-32.406251 -8.45508,-32.40625 z M 62.658203,98.501953 c -4.45508,0.0089 -8.837495,1.124473 -12.753906,3.093747 0,0 -7.547008,4.87615 -10.587891,2.82813 -0.139731,-0.0941 -0.26757,-0.19735 -0.40039,-0.29688 0.651901,0.87758 1.443427,1.65237 2.40039,2.29688 3.040883,2.04802 10.587891,-2.82813 10.587891,-2.82813 3.916411,-1.96927 8.298826,-3.08485 12.753906,-3.09375 6.911053,0 13.211838,2.61007 17.972656,6.89649 -4.918117,-5.46167 -12.043586,-8.896487 -19.972656,-8.896487 z M 213.78906,148.60547 c 4.51156,6.07334 2.25309,17.13112 0.625,24.94726 -3.06667,14.72256 -8.45508,32.40625 -8.45508,32.40625 0,0 -17.68707,-5.38893 -32.4121,-8.45507 -8.94709,-1.86301 -22.1442,-4.55112 -27.25,3.02734 -2.04838,3.04037 2.83007,10.58398 2.83007,10.58398 1.96961,3.91575 3.08468,8.29763 3.09375,12.75196 0,14.83667 -12.028,26.86523 -26.86718,26.86523 -6.91403,0 -13.21698,-2.61264 -17.97852,-6.90234 4.91828,5.46473 12.04689,8.90234 19.97852,8.90234 14.83918,0 26.86718,-12.02856 26.86718,-26.86523 -0.009,-4.45433 -1.12414,-8.83621 -3.09375,-12.75196 0,0 -4.87845,-7.54361 -2.83007,-10.58398 5.1058,-7.57846 18.30291,-4.89035 27.25,-3.02734 14.72503,3.06614 32.4121,8.45507 32.4121,8.45507 0,0 5.38841,-17.68369 8.45508,-32.40625 1.829,-8.78063 4.44705,-21.64779 -2.625,-26.94726 z M 92.222656,195.47656 c -5.055771,-0.0421 -10.590923,1.09584 -15.064453,2.02735 -13.135295,2.73511 -27.927205,7.11264 -31.119141,8.07031 0.3664,1.23905 0.707032,2.38476 0.707032,2.38476 0,0 17.68707,-5.38893 32.412109,-8.45507 7.819911,-1.62831 18.883884,-3.88559 24.957027,0.63086 -2.5999,-3.47302 -7.020821,-4.61767 -11.892574,-4.65821 z"
                     transform="matrix(0.26458333,0,0,0.26458333,58.482569,-8.199414)"
                     id="path291"
                     clip-path="url(#clipPath227)" />
            </g>
        </g>
    </g>
</svg>
