<?xml version="1.0" encoding="UTF-8" standalone="no"?>
<!DOCTYPE svg PUBLIC "-//W3C//DTD SVG 1.1//EN" "http://www.w3.org/Graphics/SVG/1.1/DTD/svg11.dtd">
<svg version="1.1" xmlns="http://www.w3.org/2000/svg"  xmlns:html="http://www.w3.org/1999/xhtml" xmlns:xlink="http://www.w3.org/1999/xlink" preserveAspectRatio="xMidYMid meet" viewBox="0 0 19 19" width="19" height="19"><defs><path d="M17.84 9.96C17.84 14.95 13.79 19 8.8 19C3.8 19 -0.25 14.95 -0.25 9.96C-0.25 4.96 3.8 0.91 8.8 0.91C13.79 0.91 17.84 4.96 17.84 9.96" id="hvm0NqO6A"></path><path d="M12.73 15.06C12.62 14.92 12.45 14.49 12.19 14.37C12.19 14.6 12.09 15.01 11.6 14.94C10.07 14.69 9.85 15.75 9.85 15.75C9.85 15.75 10.63 15.46 11.36 15.87C10.99 16.58 9.7 16.49 9.7 16.49C9.7 16.49 10.12 17.27 11.47 16.95C11.18 17.62 10.12 17.27 10.12 17.27C10.12 17.27 10.28 17.85 11.26 17.93C12.23 18.01 12.7 17.45 12.82 17.08C13.1 16.26 13.05 15.43 12.73 15.06" id="mnctBqyf4"></path><path d="M14.78 15.73C12.99 15.73 11.4 14.53 10.88 12.84C11.08 12.89 11.29 12.92 11.52 12.92C12.79 12.92 14.33 12.12 15.69 11.42C16.05 11.24 16.38 11.06 16.7 10.91C17.21 10.67 17.86 10.38 18.29 10.38C18.58 10.38 18.73 10.51 18.79 10.81C19.25 13.02 17.82 15.19 15.62 15.64C15.34 15.7 15.06 15.73 14.78 15.73" id="a43hnNrfg"></path><path d="M18.74 10.31L18.9 10.5L18.99 10.77L19 12.47L18.38 14L17.23 15.18L15.66 15.85L15.44 15.89L15.22 15.91L15 15.93L14.78 15.94L13.35 15.69L12.1 14.99L11.14 13.91L10.58 12.53L10.61 12.53L10.82 12.61L11.04 12.67L11.28 12.7L11.52 12.71L12.74 12.5L14.06 12L15.38 11.35L16.61 10.73L17.09 10.5L17.54 10.33L17.94 10.22L18.29 10.18L18.54 10.21L18.74 10.31ZM17.56 10.76L17.16 10.93L16.79 11.1L16.55 11.22L16.3 11.34L16.05 11.47L15.79 11.6L14.72 12.14L13.63 12.63L12.55 12.99L11.52 13.12L11.43 13.12L11.35 13.12L11.27 13.11L11.19 13.11L11.78 14.09L12.61 14.85L13.63 15.35L14.78 15.52L14.98 15.52L15.18 15.5L15.38 15.48L15.57 15.44L16.99 14.84L18.03 13.77L18.59 12.39L18.59 10.85L18.54 10.72L18.49 10.64L18.4 10.6L18.29 10.59L17.95 10.64L17.56 10.76Z" id="h12pWv11Ep"></path><path d="M11.01 12.65C10.63 12.65 10.42 12.65 10.38 12.65C10.9 13.43 11.79 13.94 12.8 13.94C13.52 13.94 14.18 13.67 14.69 13.24C14.26 13.56 13.72 13.75 13.14 13.75C12.26 13.75 11.48 13.32 11.01 12.65" id="b7PkNnnG3l"></path><path d="M12.77 15.38C13.06 17.42 10.12 14.12 6.44 14.35C3.8 14.52 3.31 15.94 3.32 16.73C3.02 14.68 4.9 12.72 7.51 12.34C10.12 11.97 12.48 13.33 12.77 15.38" id="c1pVpVF4sb"></path><path d="M11 2.81C10.2 2.25 9.2 1.98 8.2 1.99C8.77 2.08 9.31 2.29 9.77 2.61C11.31 3.69 11.43 5.67 10.03 7.04C8.63 8.41 6.25 8.65 4.71 7.57C3.8 6.94 3.39 5.99 3.49 5.04C3.02 6.44 3.48 7.94 4.82 8.88C6.7 10.19 9.61 9.9 11.32 8.23C13.03 6.55 12.88 4.13 11 2.81" id="b67FGdh0VE"></path><path d="M7.18 13.84C6.21 13.84 5.27 13.58 4.44 13.08C4.42 13.04 4.41 13 4.4 12.96C3.67 10.49 4.18 7.8 5.77 5.77C6.49 4.85 7.57 4.32 8.73 4.32C10.35 4.32 11.73 5.3 12.23 6.81C12.28 6.94 12.32 7.08 12.35 7.21C13.01 9.82 11.54 12.59 9.01 13.52C8.42 13.73 7.8 13.84 7.18 13.84C7.18 13.84 7.18 13.84 7.18 13.84" id="j72DoFPin"></path><path d="M10.29 4.35L11 4.73L11.62 5.26L12.13 5.92L12.5 6.73L12.52 6.79L12.54 6.86L12.56 6.93L12.58 7L12.6 7.07L12.62 7.14L12.79 8.53L12.62 9.87L12.13 11.13L11.37 12.24L10.35 13.14L9.11 13.78L8.79 13.88L8.47 13.97L8.14 14.04L7.82 14.08L7.5 14.11L7.18 14.12L6.65 14.1L6.13 14.02L5.62 13.9L5.13 13.73L4.66 13.52L4.2 13.26L4.19 13.23L4.18 13.19L4.17 13.15L4.15 13.11L4.14 13.08L4.13 13.04L3.85 11.7L3.8 10.38L3.95 9.08L4.3 7.84L4.84 6.67L5.55 5.6L5.99 5.12L6.48 4.73L7.01 4.43L7.57 4.21L8.15 4.09L8.73 4.04L9.53 4.12L10.29 4.35ZM7.49 4.83L6.93 5.1L6.43 5.48L5.99 5.94L5.2 7.19L4.66 8.55L4.39 9.97L4.39 11.43L4.67 12.88L4.67 12.88L4.67 12.89L4.67 12.89L5.14 13.13L5.63 13.32L6.14 13.45L6.65 13.54L7.18 13.56L7.53 13.55L7.88 13.51L8.23 13.45L8.58 13.36L8.92 13.25L10.23 12.53L11.25 11.49L11.93 10.2L12.22 8.77L12.08 7.28L12.06 7.2L12.04 7.13L12.02 7.05L11.99 6.98L11.97 6.9L11.6 6.13L11.06 5.49L10.38 5.01L9.6 4.71L8.73 4.6L8.1 4.66L7.49 4.83Z" id="a7L7eZLsP"></path><path d="M8.03 11.84C8.02 11.85 8.02 11.86 8.01 11.87C7.5 12.78 5.97 13.21 4.59 12.84C4.48 12.82 4.38 12.78 4.27 12.75C4.48 13 4.79 13.2 5.19 13.31C6.21 13.58 7.4 13.15 7.86 12.34C7.95 12.17 8.01 12.01 8.03 11.84" id="d2mdIiqmQR"></path><path d="M9.08 9.1C8.43 9.94 7.5 10.32 6.99 9.93C6.48 9.54 6.59 8.54 7.23 7.69C7.88 6.84 8.82 6.47 9.33 6.86C9.83 7.25 9.72 8.25 9.08 9.1" id="g4M4nTjIq1"></path><path d="M10.04 7.16C9.66 5.99 8.13 5.94 7.02 6.78C5.02 8.3 4.73 11.14 4.73 11.14C4.73 11.14 4.74 11.13 4.76 11.13C4.94 10.52 5.57 8.62 6.73 7.75C7.7 7.02 9.03 6.89 9.33 7.86C9.56 8.62 8.99 9.69 8.03 10.41C7.95 10.47 7.87 10.52 7.79 10.57C8.1 10.45 8.38 10.31 8.6 10.15C9.71 9.32 10.34 8.07 10.04 7.16" id="al5IaMLcx"></path><path d="M7.25 8.97C7.06 9.23 6.77 9.34 6.62 9.23C6.46 9.11 6.49 8.8 6.69 8.55C6.89 8.29 7.17 8.18 7.33 8.29C7.48 8.41 7.45 8.72 7.25 8.97" id="f2k4ZEadZE"></path></defs><g><g><g><use xlink:href="#hvm0NqO6A" opacity="1" fill="#ffffff" fill-opacity="1"></use><g><use xlink:href="#hvm0NqO6A" opacity="1" fill-opacity="0" stroke="#000000" stroke-width="1" stroke-opacity="0"></use></g></g><path></path><g><use xlink:href="#mnctBqyf4" opacity="1" fill="#767c80" fill-opacity="1"></use><g><use xlink:href="#mnctBqyf4" opacity="1" fill-opacity="0" stroke="#000000" stroke-width="1" stroke-opacity="0"></use></g></g><path></path><g><use xlink:href="#a43hnNrfg" opacity="1" fill="#ffffff" fill-opacity="1"></use><g><use xlink:href="#a43hnNrfg" opacity="1" fill-opacity="0" stroke="#000000" stroke-width="1" stroke-opacity="0"></use></g></g><g><use xlink:href="#h12pWv11Ep" opacity="1" fill="#767c80" fill-opacity="1"></use><g><use xlink:href="#h12pWv11Ep" opacity="1" fill-opacity="0" stroke="#000000" stroke-width="1" stroke-opacity="0"></use></g></g><g><use xlink:href="#b7PkNnnG3l" opacity="1" fill="#767c80" fill-opacity="1"></use><g><use xlink:href="#b7PkNnnG3l" opacity="1" fill-opacity="0" stroke="#000000" stroke-width="1" stroke-opacity="0"></use></g></g><g><use xlink:href="#c1pVpVF4sb" opacity="1" fill="#767c80" fill-opacity="1"></use><g><use xlink:href="#c1pVpVF4sb" opacity="1" fill-opacity="0" stroke="#000000" stroke-width="1" stroke-opacity="0"></use></g></g><g><use xlink:href="#b67FGdh0VE" opacity="1" fill="#767c80" fill-opacity="1"></use><g><use xlink:href="#b67FGdh0VE" opacity="1" fill-opacity="0" stroke="#000000" stroke-width="1" stroke-opacity="0"></use></g></g><g><use xlink:href="#j72DoFPin" opacity="1" fill="#ffffff" fill-opacity="1"></use><g><use xlink:href="#j72DoFPin" opacity="1" fill-opacity="0" stroke="#000000" stroke-width="1" stroke-opacity="0"></use></g></g><g><use xlink:href="#a7L7eZLsP" opacity="1" fill="#767c80" fill-opacity="1"></use><g><use xlink:href="#a7L7eZLsP" opacity="1" fill-opacity="0" stroke="#000000" stroke-width="1" stroke-opacity="0"></use></g></g><g><use xlink:href="#d2mdIiqmQR" opacity="1" fill="#767c80" fill-opacity="1"></use><g><use xlink:href="#d2mdIiqmQR" opacity="1" fill-opacity="0" stroke="#000000" stroke-width="1" stroke-opacity="0"></use></g></g><g><use xlink:href="#g4M4nTjIq1" opacity="1" fill="#767c80" fill-opacity="1"></use><g><use xlink:href="#g4M4nTjIq1" opacity="1" fill-opacity="0" stroke="#000000" stroke-width="1" stroke-opacity="0"></use></g></g><g><use xlink:href="#al5IaMLcx" opacity="1" fill="#767c80" fill-opacity="1"></use><g><use xlink:href="#al5IaMLcx" opacity="1" fill-opacity="0" stroke="#000000" stroke-width="1" stroke-opacity="0"></use></g></g><g><use xlink:href="#f2k4ZEadZE" opacity="1" fill="#ffffff" fill-opacity="1"></use><g><use xlink:href="#f2k4ZEadZE" opacity="1" fill-opacity="0" stroke="#000000" stroke-width="1" stroke-opacity="0"></use></g></g></g></g></svg>