<?xml version="1.0" encoding="utf-8"?>
<!-- DeepDark custom icon -->
<!DOCTYPE svg PUBLIC "-//W3C//DTD SVG 1.1//EN" "http://www.w3.org/Graphics/SVG/1.1/DTD/svg11.dtd">
<svg version="1.1" id="ablist" xmlns="http://www.w3.org/2000/svg" xmlns:xlink="http://www.w3.org/1999/xlink" x="0px" y="0px"
	 width="17px" height="14px" viewBox="0 0 17 14" enable-background="new 0 0 17 14" xml:space="preserve" fill="context-fill">
<g>
	<g>
		<rect x="11.021" y="9" width="3.488" height="1"/>
	</g>
	<g>
		<rect x="11.021" y="7" width="3.488" height="1"/>
	</g>
	<g>
		<rect x="11.021" y="11" width="3.488" height="1"/>
	</g>
	<circle cx="7.99" cy="8.016" r="0.99"/>
	<path d="M9.99,11.99V12H6v-0.01C6,10.891,6.89,10,7.99,10C9.09,10,9.99,10.891,9.99,11.99z"/>
	<path d="M15,5H5H4v1v7v1h1h11v-0.5V13V6V5H15z M15,13H5V6h10V13z"/>
	<polygon points="14,3 3,3 2,3 2,4 2,12 3,12 3,4 14,4 	"/>
	<polygon points="12,1 1,1 0,1 0,2 0,10 1,10 1,2 12,2 	"/>
</g>
</svg>
