<?xml version="1.0" encoding="utf-8"?>
<!-- DeepDark custom icon -->
<!DOCTYPE svg PUBLIC "-//W3C//DTD SVG 1.1//EN" "http://www.w3.org/Graphics/SVG/1.1/DTD/svg11.dtd">
<svg version="1.1" id="online" xmlns="http://www.w3.org/2000/svg" xmlns:xlink="http://www.w3.org/1999/xlink" x="0px" y="0px"
	 width="13px" height="13px" viewBox="0 0 13 13" enable-background="new 0 0 13 13" xml:space="preserve">
<g>
	<rect x="1.999" y="3" opacity="0.2" fill="#F9F9FA" enable-background="new    " width="8.982" height="5"/>
	<path fill="#F9F9FA" d="M11.918,2.622C11.764,2.255,11.402,2,10.982,2H10.98H2.02H2.018c-0.14,0-0.272,0.029-0.394,0.08
		C1.258,2.233,1.001,2.595,1.001,3.021v5.097c0,0.426,0.257,0.647,0.623,0.803C1.746,8.973,1.878,9,2.018,9H2.02h3.979v1h-2
		c-0.318,0-0.572,0.174-0.572,0.5c0,0.324,0.254,0.5,0.572,0.5h5c0.32,0,0.57-0.176,0.57-0.5c0-0.326-0.25-0.5-0.57-0.5h-2V9h3.982
		h0.002c0.42,0,0.781-0.117,0.936-0.484c0.051-0.121,0.08-0.256,0.08-0.398V3.021C11.998,2.878,11.969,2.743,11.918,2.622z M10.98,8
		H1.999V3.002h8.982V8z"/>
</g>
</svg>
