<?xml version="1.0" encoding="utf-8"?>
<!-- DeepDark custom icon -->
<!DOCTYPE svg PUBLIC "-//W3C//DTD SVG 1.1//EN" "http://www.w3.org/Graphics/SVG/1.1/DTD/svg11.dtd">
<svg version="1.1" id="contact-generic-tiny" xmlns="http://www.w3.org/2000/svg" xmlns:xlink="http://www.w3.org/1999/xlink"
	 x="0px" y="0px" width="12.801px" height="12.801px" viewBox="0 0 12.801 12.801" enable-background="new 0 0 12.801 12.801"
	 xml:space="preserve" fill="context-fill">
<g>
	<circle cx="6.429" cy="5.455" r="2.192"/>
	<path d="M6.4,0.752c-3.115,0-5.648,2.533-5.648,5.648c0,1.809,0.853,3.419,2.179,4.454c0.736,0.574,1.617,0.971,2.578,1.123
		c0.29,0.048,0.589,0.071,0.892,0.071s0.602-0.023,0.893-0.071c0.98-0.156,1.876-0.564,2.62-1.157c1.3-1.035,2.136-2.632,2.136-4.42
		C12.049,3.285,9.515,0.752,6.4,0.752z M9.696,10.302C9.087,9.115,7.853,8.305,6.429,8.305c-1.438,0-2.683,0.826-3.286,2.03
		C2.01,9.396,1.289,7.982,1.289,6.4c0-2.818,2.293-5.111,5.111-5.111c2.817,0,5.11,2.293,5.11,5.111
		C11.511,7.964,10.806,9.365,9.696,10.302z"/>
</g>
</svg>
