<?xml version="1.0" encoding="utf-8"?>
<!-- DeepDark custom icon -->
<!DOCTYPE svg PUBLIC "-//W3C//DTD SVG 1.1//EN" "http://www.w3.org/Graphics/SVG/1.1/DTD/svg11.dtd">
<svg version="1.1" id="contact-generic" xmlns="http://www.w3.org/2000/svg" xmlns:xlink="http://www.w3.org/1999/xlink" x="0px"
	 y="0px" width="120.011px" height="120.011px" viewBox="0 0 120.011 120.011" enable-background="new 0 0 120.011 120.011"
	 xml:space="preserve" fill="context-fill">
<g>
	<path d="M60.266,30.819c-11.263,0-20.39,9.133-20.39,20.39c0,11.27,9.127,20.389,20.39,20.389c11.264,0,20.389-9.119,20.389-20.389
		C80.654,39.953,71.529,30.819,60.266,30.819z"/>
	<path d="M60.01,7.46C31.03,7.46,7.46,31.03,7.46,60.01c0,16.82,7.94,31.811,20.27,41.43c6.84,5.352,15.04,9.031,23.98,10.451
		c2.7,0.439,5.48,0.66,8.299,0.66c2.82,0,5.6-0.221,8.301-0.66c9.119-1.451,17.459-5.25,24.379-10.77
		c12.09-9.631,19.861-24.48,19.861-41.111C112.551,31.03,88.98,7.46,60.01,7.46z M90.67,96.301C85,85.27,73.51,77.73,60.27,77.73
		c-13.379,0-24.959,7.68-30.569,18.879c-10.53-8.729-17.24-21.889-17.24-36.6c0-26.22,21.33-47.549,47.549-47.549
		c26.211,0,47.541,21.33,47.541,47.549C107.551,74.551,100.99,87.59,90.67,96.301z"/>
</g>
</svg>
