<?xml version="1.0" encoding="utf-8"?>
<!-- DeepDark custom icon -->
<!DOCTYPE svg PUBLIC "-//W3C//DTD SVG 1.1//EN" "http://www.w3.org/Graphics/SVG/1.1/DTD/svg11.dtd">
<svg version="1.1" id="remote-addrbook" xmlns="http://www.w3.org/2000/svg" xmlns:xlink="http://www.w3.org/1999/xlink" x="0px"
	 y="0px" width="16px" height="16px" viewBox="0 0 16 16" enable-background="new 0 0 16 16" xml:space="preserve" fill="context-fill">
<path d="M14.983,4.974v-2.94h-0.987V1.02H1.984v2.005H1V4.01h0.983v2.003H1v0.985h0.983v2.003H1v0.983h0.983v2.005H1v0.983h0.983
	v2.006h12.013V13h0.987v-2.979h-0.987V9.007h0.987V5.982h-0.987V4.974H14.983z M13.011,13.996H2.97v-1.021h1V11.99h-1V9.986h1V9.002
	h-1V6.999h1V6.013h-1V4.01h1V3.025h-1v-1.02h10.041V13.996z"/>
</svg>
