<?xml version="1.0" encoding="utf-8"?>
<!-- DeepDark custom icon -->
<!DOCTYPE svg PUBLIC "-//W3C//DTD SVG 1.1//EN" "http://www.w3.org/Graphics/SVG/1.1/DTD/svg11.dtd">
<svg version="1.1" id="addrbook" xmlns="http://www.w3.org/2000/svg" xmlns:xlink="http://www.w3.org/1999/xlink" x="0px" y="0px"
	 width="16px" height="16px" viewBox="0 0 16 16" enable-background="new 0 0 16 16" xml:space="preserve" fill="context-fill">
<path d="M14.98,4.97V2.03H14V1.02H1.98v2H1v0.99h0.98v2H1V7h0.98v2H1v0.98h0.98v2.01H1v0.979h0.98v2.011H7.3V14H2.97v-1.03h1V11.99
	h-1v-2h1V9h-1V7h1V6.01h-1v-2h1V3.02h-1V2h10.04v6.1c0.521,0.45,0.851,1.08,0.92,1.77H14V9.01h0.98V5.98H14V4.97H14.98z"/>
<g>
	<g>
		<g>
			<g>
				<g>
					<path d="M12.95,10.87v-0.69c0-0.67-0.37-1.26-0.92-1.56c-0.05-0.04-0.12-0.061-0.181-0.09c-0.22-0.1-0.46-0.15-0.699-0.15
						h-0.17C10.26,8.45,9.65,8.96,9.43,9.64c0,0,0,0,0,0.011C9.38,9.81,9.35,10,9.35,10.18v0.69H8.3v4.11H14v-4.11H12.95z
						 M10.04,10.18c0-0.09,0-0.17,0.02-0.25c0.12-0.5,0.57-0.87,1.091-0.87h0.02c0.35,0.011,0.67,0.181,0.86,0.44
						c0.149,0.19,0.239,0.42,0.239,0.68v0.69H10.04V10.18z"/>
				</g>
			</g>
		</g>
	</g>
</g>
</svg>
