/* XPM */
static char * F:\Development\workspace\gecko\znotes\src\addon\icons\updater16_xpm[] = {
"16 16 126 2",
"   c None",
".  c #645854",
"+  c #64B1E3",
"@  c #CAD8E4",
"#  c #D3DCE7",
"$  c #D3DDE7",
"%  c #D4DDE7",
"&  c #D7E0E9",
"*  c #91B4D2",
"=  c #A4BCD2",
"-  c #9DC3E1",
";  c #EAF1F6",
">  c #DDDDDC",
",  c #E4E4E3",
"'  c #ECECEB",
")  c #F9F9F8",
"!  c #FDFCFA",
"~  c #A1BFD9",
"{  c #665B54",
"]  c #6DB3E8",
"^  c #F2F8FB",
"/  c #A1A1A1",
"(  c #696B6C",
"_  c #494B4C",
":  c #F7F8F8",
"<  c #F3F3F3",
"[  c #F7F5F4",
"}  c #9FBDD7",
"|  c #A6BDD2",
"1  c #9CC5E1",
"2  c #E6ECF2",
"3  c #F1F3F4",
"4  c #43474A",
"5  c #FFFFFF",
"6  c #F8F8F7",
"7  c #F8F8F8",
"8  c #FCFBFA",
"9  c #6DB4E9",
"0  c #F8FDFF",
"a  c #383D41",
"b  c #646667",
"c  c #959595",
"d  c #9FBED7",
"e  c #A7BED2",
"f  c #9CC4E0",
"g  c #F3FBFF",
"h  c #686666",
"i  c #838383",
"j  c #9B9B9B",
"k  c #665C54",
"l  c #6CB3E8",
"m  c #E6EAEF",
"n  c #F9F9F9",
"o  c #F7F7F7",
"p  c #F8F6F5",
"q  c #FAF6F7",
"r  c #F5F4F3",
"s  c #A0BED7",
"t  c #9AC1DD",
"u  c #E7EEF3",
"v  c #EEF3F5",
"w  c #CAE6E0",
"x  c #B3DDD4",
"y  c #CDE4D8",
"z  c #FFFEFF",
"A  c #69AFE5",
"B  c #E7EBEF",
"C  c #F2F3F3",
"D  c #FFFFFB",
"E  c #8BC1DD",
"F  c #C0EE9F",
"G  c #82D37B",
"H  c #44B199",
"I  c #C5DDC2",
"J  c #A1BEDA",
"K  c #A7BFD3",
"L  c #96BCD9",
"M  c #E7EDF3",
"N  c #1F94D0",
"O  c #A1E750",
"P  c #8BDD27",
"Q  c #1195F5",
"R  c #9AD47C",
"S  c #A4C0DD",
"T  c #675D56",
"U  c #66A9DF",
"V  c #FFFEFB",
"W  c #54A4CA",
"X  c #49B6BD",
"Y  c #5ABE90",
"Z  c #36B25E",
"`  c #99BBE9",
" . c #A3C0D8",
".. c #AABFD3",
"+. c #92B7D5",
"@. c #E6EDF2",
"#. c #F7F7F8",
"$. c #DBE4E9",
"%. c #51A8D6",
"&. c #419BA2",
"*. c #90B6B1",
"=. c #A1BFDA",
"-. c #695D56",
";. c #63A5DC",
">. c #F3F2F2",
",. c #F3F3F2",
"'. c #F4F4F4",
"). c #D1D1D1",
"!. c #B2B2B1",
"~. c #B4AEAE",
"{. c #BF9D60",
"]. c #B5B4B7",
"^. c #C0BEBD",
"/. c #9EBBD5",
"(. c #A5C1D7",
"_. c #8EB2D2",
":. c #CEDEEB",
"<. c #DEE9F3",
"[. c #DEE8F2",
"}. c #E2EEF7",
"|. c #E7F2FC",
"1. c #E8F3FD",
"2. c #DEF0FF",
"3. c #E8F2FB",
"4. c #EAF3FC",
"5. c #96B7D6",
"                                ",
"  . + @ # $ $ % % % % % & *     ",
"  = - ; > , ' ) ) ) ) ) ! ~     ",
"  { ] ^ / ( _ : < < < < [ }     ",
"  | 1 2 3 4 5 6 7 7 7 7 8 ~     ",
"  { 9 0 a b c < < < < < [ d     ",
"  e f g h i j 7 7 7 7 7 8 ~     ",
"  k l m n 7 o < < p q r [ s     ",
"  | t u 7 7 7 7 v w x y z ~     ",
"  k A B C < < D E F G H I J     ",
"  K L M 7 7 7 5 N O P Q R S     ",
"  T U B C < < V W X Y Z `  .    ",
"  ..+.@.7 7 7 #.$.%.&.*.5 =.    ",
"  -.;.m >.,.'.).!.~.{.].^./.    ",
"  (._.:.<.<.[.}.|.1.2.3.4.5.    ",
"                                "};
