/* XPM */
static char * F:\Development\workspace\gecko\znotes\src\addon\icons\updater48_xpm[] = {
"48 48 457 2",
"   c None",
".  c #5386B5",
"+  c #6293BF",
"@  c #6092BE",
"#  c #6192BE",
"$  c #5287B7",
"%  c #5F91BE",
"&  c #5C8FBD",
"*  c #5D8FBD",
"=  c #5E90BD",
"-  c #5689B8",
";  c #95B7C8",
">  c #8BBBD6",
",  c #B8E4FA",
"'  c #4981B4",
")  c #F5FCFF",
"!  c #DDE1E4",
"~  c #DEE2E6",
"{  c #EFF4F8",
"]  c #5F92BF",
"^  c #282925",
"/  c #D4CECB",
"(  c #574943",
"_  c #5CA9D6",
":  c #7EC2E9",
"<  c #447EB1",
"[  c #EFF9FF",
"}  c #FAF9F8",
"|  c #F9F8F8",
"1  c #F9F9F8",
"2  c #F7FCFF",
"3  c #5D90BE",
"4  c #1B4C7A",
"5  c #E6F3FE",
"6  c #DEEDF8",
"7  c #77BBE4",
"8  c #457EB2",
"9  c #FFFFFF",
"0  c #FBFFFF",
"a  c #306393",
"b  c #6298C0",
"c  c #4B88B7",
"d  c #80C2E8",
"e  c #457FB2",
"f  c #ECF6FE",
"g  c #E2E1E1",
"h  c #E2E2E2",
"i  c #ECF1F4",
"j  c #D2CCC8",
"k  c #574C47",
"l  c #69AADD",
"m  c #80C1E8",
"n  c #F7F7F7",
"o  c #FAFAFA",
"p  c #F8F8F8",
"q  c #1B4D7A",
"r  c #DDEDF7",
"s  c #75B9E2",
"t  c #467FB2",
"u  c #000000",
"v  c #DFE0E0",
"w  c #316393",
"x  c #4B89B8",
"y  c #81C4EA",
"z  c #4680B3",
"A  c #EAEAEA",
"B  c #5B5B5B",
"C  c #636363",
"D  c #6D6D6C",
"E  c #2A2A2A",
"F  c #323334",
"G  c #D6D6D7",
"H  c #5E90BE",
"I  c #574C46",
"J  c #69AADC",
"K  c #7EBEE4",
"L  c #4680B2",
"M  c #EFF8FF",
"N  c #FBFBFB",
"O  c #FEFEFD",
"P  c #B9C2C9",
"Q  c #111315",
"R  c #080B0E",
"S  c #BBCAD7",
"T  c #FAFAF9",
"U  c #F8FBFF",
"V  c #5E91BE",
"W  c #DDEDF8",
"X  c #76BEE6",
"Y  c #4780B3",
"Z  c #F1FBFF",
"`  c #E2E9EE",
" . c #222E38",
".. c #99ACBC",
"+. c #FCFFFF",
"@. c #316493",
"#. c #81C1E7",
"$. c #F6F3F2",
"%. c #42515E",
"&. c #788087",
"*. c #F0EEED",
"=. c #ECF0F4",
"-. c #574D46",
";. c #7EC2E8",
">. c #4781B4",
",. c #646E77",
"'. c #57636F",
"). c #F3F5F8",
"!. c #1C4D7A",
"~. c #4881B4",
"{. c #9FABB6",
"]. c #010304",
"^. c #252D34",
"/. c #DBEAF6",
"(. c #326593",
"_. c #4882B3",
":. c #D4D5D6",
"<. c #10171E",
"[. c #2B2929",
"}. c #C5D0DA",
"|. c #FAF8F7",
"1. c #F2F2F2",
"2. c #F3F3F3",
"3. c #E4E4E4",
"4. c #7FC1E7",
"5. c #4882B4",
"6. c #232A2F",
"7. c #0B0B0B",
"8. c #1A1A1A",
"9. c #181818",
"0. c #0A0A0A",
"a. c #DDDDDD",
"b. c #4881B3",
"c. c #F0F9FF",
"d. c #111010",
"e. c #1F1F1F",
"f. c #111111",
"g. c #E5E5E5",
"h. c #3E6991",
"i. c #6499C0",
"j. c #4882B5",
"k. c #EDF7FE",
"l. c #E1E1E1",
"m. c #EDF1F4",
"n. c #584D46",
"o. c #7EBDE4",
"p. c #EEF8FF",
"q. c #1F4E76",
"r. c #E7F4FE",
"s. c #DDECF8",
"t. c #76BDE6",
"u. c #4E87B8",
"v. c #447EB2",
"w. c #EDF6FD",
"x. c #D1CCC8",
"y. c #7CBCE3",
"z. c #447DB0",
"A. c #DDECF7",
"B. c #73B7DF",
"C. c #457DB1",
"D. c #FEFEFF",
"E. c #F0F7FA",
"F. c #E3F0F7",
"G. c #E9F3F9",
"H. c #F8FBFD",
"I. c #4B87B6",
"J. c #7AB9DF",
"K. c #EDF6FE",
"L. c #E8E5E4",
"M. c #D0DAE1",
"N. c #92C3D1",
"O. c #8DC5B8",
"P. c #7FC097",
"Q. c #7DC08F",
"R. c #69B98C",
"S. c #79BF94",
"T. c #91C4D1",
"U. c #AFCDE2",
"V. c #E7E5E4",
"W. c #68A9DB",
"X. c #76B4DA",
"Y. c #F0FAFF",
"Z. c #FAF9F9",
"`. c #CDDFE7",
" + c #469AC7",
".+ c #C2E8DA",
"++ c #E3FAA0",
"@+ c #C5EAD8",
"#+ c #ABDFE6",
"$+ c #81CBFC",
"%+ c #91DC2A",
"&+ c #A4E520",
"*+ c #72B8AE",
"=+ c #82B5D7",
"-+ c #FFFEFC",
";+ c #DCEBF6",
">+ c #6CADD8",
",+ c #F3F8FA",
"'+ c #64ACD1",
")+ c #C8EDFD",
"!+ c #DBF4DC",
"~+ c #CCF1AF",
"{+ c #A6DDF9",
"]+ c #92D3F5",
"^+ c #95D8A2",
"/+ c #50B4F2",
"(+ c #5AC075",
"_+ c #ACEC18",
":+ c #56ABA6",
"<+ c #ACCEE5",
"[+ c #4A87B6",
"}+ c #77B5DC",
"|+ c #457EB1",
"1+ c #E4E3E3",
"2+ c #ACC7D5",
"3+ c #7DC3E6",
"4+ c #CDEDFF",
"5+ c #C0E9E5",
"6+ c #CBF471",
"7+ c #B5EB80",
"8+ c #A2E275",
"9+ c #A3E71A",
"0+ c #9FE509",
"a+ c #3DACDB",
"b+ c #3BADA3",
"c+ c #98DE2F",
"d+ c #5EA9B2",
"e+ c #D6DBE1",
"f+ c #E3E3E2",
"g+ c #68A8DB",
"h+ c #72AFD8",
"i+ c #4B9AC2",
"j+ c #9CD8F7",
"k+ c #B8E4FB",
"l+ c #B0E3FE",
"m+ c #B7ED8F",
"n+ c #B6F02B",
"o+ c #A5EA1A",
"p+ c #81D560",
"q+ c #55BBBA",
"r+ c #34A7F7",
"s+ c #28A1EA",
"t+ c #33A8A9",
"u+ c #88CC4A",
"v+ c #A1C7E4",
"w+ c #DBEBF5",
"x+ c #68A5D2",
"y+ c #1E8AC1",
"z+ c #9ADBFC",
"A+ c #A3DCF8",
"B+ c #99D8FE",
"C+ c #A8E773",
"D+ c #A9ED0B",
"E+ c #9AE70B",
"F+ c #93E022",
"G+ c #9CE500",
"H+ c #45B0C9",
"I+ c #29A1E6",
"J+ c #1495E6",
"K+ c #84D01E",
"L+ c #89BEE2",
"M+ c #4A86B5",
"N+ c #70ABD4",
"O+ c #E3E3E3",
"P+ c #E8E2DF",
"Q+ c #1C8AC4",
"R+ c #73CAFA",
"S+ c #8BD1F4",
"T+ c #7DCCF1",
"U+ c #A4EB31",
"V+ c #A3EC00",
"W+ c #9CE700",
"X+ c #9EE700",
"Y+ c #6CC873",
"Z+ c #30A4F3",
"`+ c #28A1DD",
" @ c #1394E4",
".@ c #55B960",
"+@ c #7AADC7",
"@@ c #E3E2E1",
"#@ c #67A7DA",
"$@ c #6CA5D0",
"%@ c #F9F9F9",
"&@ c #FFF9F6",
"*@ c #1E8BB3",
"=@ c #6FCEAE",
"-@ c #61BEEF",
";@ c #5CBDF7",
">@ c #8ADC6A",
",@ c #A5ED00",
"'@ c #ABF100",
")@ c #8EDD26",
"!@ c #3CABE0",
"~@ c #30A5E0",
"{@ c #239EDB",
"]@ c #1696D7",
"^@ c #048CD3",
"/@ c #88BBD7",
"(@ c #DAEAF5",
"_@ c #609BC9",
":@ c #467DB1",
"<@ c #4094B8",
"[@ c #56BDB9",
"}@ c #46B3EA",
"|@ c #49B3ED",
"1@ c #5BBEBF",
"2@ c #ABF106",
"3@ c #48B3D5",
"4@ c #55BB9E",
"5@ c #37AAD5",
"6@ c #249EE4",
"7@ c #1A98DB",
"8@ c #0D93D7",
"9@ c #0D8CCB",
"0@ c #A3C7D8",
"a@ c #4985B5",
"b@ c #69A2CD",
"c@ c #457EB0",
"d@ c #EDF7FF",
"e@ c #E2E1E0",
"f@ c #8CA8B9",
"g@ c #259ADD",
"h@ c #3AABE5",
"i@ c #3DACE5",
"j@ c #38A9F3",
"k@ c #56BDAE",
"l@ c #69C773",
"m@ c #6AC85F",
"n@ c #7ED42B",
"o@ c #52B97C",
"p@ c #4CB576",
"q@ c #47B46A",
"r@ c #1D83CF",
"s@ c #C7CAC9",
"t@ c #EDF0F4",
"u@ c #66A7D9",
"v@ c #659DC7",
"w@ c #DEE2E4",
"x@ c #4A98C0",
"y@ c #2BA6E3",
"z@ c #2FA4DF",
"A@ c #2FA5E0",
"B@ c #2BA2E3",
"C@ c #28A1E1",
"D@ c #47B39F",
"E@ c #92DF0D",
"F@ c #92DE00",
"G@ c #99E500",
"H@ c #249696",
"I@ c #93B3CC",
"J@ c #F8F5F3",
"K@ c #F8FDFF",
"L@ c #DAE9F4",
"M@ c #5893C1",
"N@ c #457DB0",
"O@ c #FFFEFE",
"P@ c #C3D2D9",
"Q@ c #3790BE",
"R@ c #229DDB",
"S@ c #209DDC",
"T@ c #1F9CDB",
"U@ c #1A99DA",
"V@ c #2BA3B6",
"W@ c #89DB19",
"X@ c #89DA11",
"Y@ c #3FA482",
"Z@ c #73A4C4",
"`@ c #FEFAF7",
" # c #4884B4",
".# c #6297C4",
"+# c #E2E0DF",
"@# c #B2BABD",
"## c #5B8EA8",
"$# c #2989B9",
"%# c #0E8ACA",
"&# c #0A92D6",
"*# c #058ED9",
"=# c #31988D",
"-# c #4E9196",
";# c #7E9DB9",
"># c #D8D6D5",
",# c #D4CCC7",
"'# c #66A6D9",
")# c #649BC6",
"!# c #E7E7E7",
"~# c #CAD1D4",
"{# c #C4D1D8",
"]# c #72747A",
"^# c #868D93",
"/# c #C1CBD2",
"(# c #D8DBDE",
"_# c #F1F1F0",
":# c #F8FCFF",
"<# c #FCFCFC",
"[# c #F2F3F3",
"}# c #F4F5F7",
"|# c #F0E6D9",
"1# c #B28F65",
"2# c #C8B092",
"3# c #F4F3F2",
"4# c #F3F3F4",
"5# c #F2F2F3",
"6# c #F1F1F2",
"7# c #6398C5",
"8# c #C3C3C3",
"9# c #666669",
"0# c #616164",
"a# c #5B5F67",
"b# c #88694B",
"c# c #FFEB6E",
"d# c #CFAC5A",
"e# c #616062",
"f# c #626264",
"g# c #5D5D60",
"h# c #919192",
"i# c #E6E6E6",
"j# c #66A5D8",
"k# c #5D93BF",
"l# c #EDEDED",
"m# c #CECDCE",
"n# c #CACACA",
"o# c #CACBCD",
"p# c #C4B9AC",
"q# c #C69F67",
"r# c #C4AA85",
"s# c #C9C8C7",
"t# c #CAC9C9",
"u# c #DDDCDC",
"v# c #1D4E7A",
"w# c #D9E8F3",
"x# c #5288B8",
"y# c #F9FAFA",
"z# c #EEF0F2",
"A# c #F3F4F5",
"B# c #FEFEFE",
"C# c #456E94",
"D# c #6498C0",
"E# c #4783B3",
"F# c #5B8EBC",
"G# c #467EB1",
"H# c #F9FFFF",
"I# c #FAFFFF",
"J# c #FAFEFF",
"K# c #6193BF",
"L# c #548BBC",
"M# c #555252",
"N# c #6DAADC",
"O# c #588CBA",
"P# c #558AB9",
"Q# c #5D8FBB",
"R# c #5D90BD",
"S# c #6192BF",
"T# c #6494BF",
"U# c #5D91BE",
"V# c #6393BE",
"W# c #6092BF",
"X# c #568AB8",
"                                                                                                ",
"                                                                                                ",
"                                                                                                ",
"        . + @ # $ % & * * * * * * * * * & % & * * * * * * * * * * * * * * * * * = -             ",
"          ; > , ' ) ! ~ ~ ~ ~ ~ ~ ~ ~ ~ ~ ~ ~ ~ ~ ~ ~ ~ ~ ~ ~ ~ ~ ~ ~ ~ ~ ~ ~ ~ { ]             ",
"      ^ / ( _ : < [ } | | | | | | | | | | | | | | | | | | | | | | | | | | | | 1 2 3             ",
"        4 5 6 7 8 [ 9 9 9 9 9 9 9 9 9 9 9 9 9 9 9 9 9 9 9 9 9 9 9 9 9 9 9 9 9 9 0 3             ",
"        a b c d e f g h h h h h h h h h h h h h h h h h h h h h h h h h h h h h i 3             ",
"      ^ j k l m e [ } n 9 9 9 9 9 9 9 9 o p p p p p p p p p p p p p p p p p p | 2 3             ",
"        q 5 r s t [ 9 9 u u u u u u u u v 9 9 9 9 9 9 9 9 9 9 9 9 9 9 9 9 9 9 9 0 3             ",
"        w b x y z f g A B C C C D E u F G h h h h h h h h h h h h h h h h h h h i H             ",
"      ^ j I J K L M } p N N N O P Q R S T p p p p p p p p p p p p p p p p p p | U V             ",
"        q 5 W X Y Z 9 9 9 9 9 `  .u ..9 9 9 9 9 9 9 9 9 9 9 9 9 9 9 9 9 9 9 9 9 +.V             ",
"        @.b c #.Y f g h h h $.%.u &.*.h h h h h h h h h h h h h h h h h h h h h =.V             ",
"      ^ j -.l ;.>.M } p p 9 ,.u '.).p p p p p p p p p p p p p p p p p p p p p | 2 V             ",
"        !.5 r 7 ~.[ 9 9 9 {.].^./.9 9 9 9 9 9 9 9 9 9 9 9 9 9 9 9 9 9 9 9 9 9 9 0 V             ",
"        (.b c d _.f g h :.<.[.}.|.1.1.2.3.h h h h h h h h h h h h h h h h h h h i V             ",
"      ^ j -.l 4.5.M } 9 6.u 7.8.9.9.9.0.a.p p p p p p p p p p p p p p p p p p | 2 V             ",
"        !.5 r s b.c.9 9 d.e.e.e.e.e.e.f.g.9 9 9 9 9 9 9 9 9 9 9 9 9 9 9 9 9 9 9 0 V             ",
"        h.i.x y j.k.g l.2.1.1.1.1.1.1.2.3.h h h h h h h h h h h h h h h h h h h m.V             ",
"      ^ j n.J o.5.p.} p p p p p p p p p p p p p p p p p p p p p p p p p p p p | U V             ",
"        q.r.s.t.u.[ 9 9 9 9 9 9 9 9 9 9 9 9 9 9 9 9 9 9 9 9 9 9 9 9 9 9 9 9 9 9 +.V             ",
"        w b c #.v.w.g h h h h h h h h h h h h h h h h h h h h h h h h h h h h h =.V             ",
"      ^ x.k J y.z.[ } p p p p p p p p p p p p p p p p p p p p p p p p p p p p | 2 V             ",
"        4 5 A.B.C.c.9 9 9 9 9 9 9 9 9 9 9 9 9 9 9 9 9 D.E.F.F.F.G.H.9 9 9 9 9 9 0 V             ",
"        a b I.J.< K.g h h h h h h h h h h h h h h L.M.N.O.P.Q.R.S.T.U.V.h h h h i V             ",
"      ^ j k W.X.z.Y.1 p p p p p p p p p p p p p Z.`. +.+++@+#+$+%+&+*+=+-+p p | 2 V             ",
"        q 5 ;+>+C.c.9 9 9 9 9 9 9 9 9 9 9 9 9 9 ,+'+)+!+~+{+]+^+/+(+_+:+<+9 9 9 0 V             ",
"        w b [+}+|+f g h h h h h h h h h h h h 1+2+3+4+5+6+7+8+9+0+a+b+c+d+e+f+h i H             ",
"      ^ j I g+h+|+p.} p p p p p p p p p p p p -+i+j+k+l+m+n+o+p+q+r+s+t+u+v+Z.| 2 V             ",
"        q 5 w+x+C.c.9 9 9 9 9 9 9 9 9 9 9 9 9 9 y+z+A+B+C+D+E+F+G+H+I+J+K+L+9 9 0 V             ",
"        @.b M+N+|+f g h h h h h h h h h h h O+P+Q+R+S+T+U+V+W+X+Y+Z+`+ @.@+@@@h i V             ",
"      ^ j -.#@$@|+p.} p p p p p p p p p p p %@&@*@=@-@;@>@,@'@)@!@~@{@]@^@/@} | 2 V             ",
"        !.5 (@_@:@c.9 9 9 9 9 9 9 9 9 9 9 9 9 -+<@[@}@|@1@2@3@4@5@6@7@8@9@0@9 9 0 V             ",
"        (.b a@b@c@d@g h h h h h h h h h h h O+e@f@g@h@i@j@k@l@m@n@o@p@q@r@s@h h t@V             ",
"      ^ j -.u@v@c@[ } p p p p p p p p p p p p %@w@x@y@z@A@B@C@D@E@F@G@H@I@J@p p K@V             ",
"        !.5 L@M@N@[ 9 9 9 9 9 9 9 9 9 9 9 9 9 9 O@P@Q@R@S@T@U@V@W@X@Y@Z@`@9 9 9 0 V             ",
"        h.i. #.#C.f g h h h h h h h h h h h h h h +#@###$#%#&#*#=#-#;#>#l.h h h i V             ",
"      ^ ,#n.'#)#c@M } p p p p p p p p p p p p p p p n !#~#{#]#^#/#(#_#p p p p p :#V             ",
"        !.5 L@M@N@[ 9 9 9 9 9 9 9 9 9 9 9 9 <#[#1.1.1.[#}#|#1#2#3#4#5#1.1.6#n 9 0 V             ",
"        h.i. #7#C.f g h h h h h h h h h h O+8#9#0#0#0#0#a#b#c#d#e#f#0#0#0#g#h#i#i V             ",
"      ^ j n.j#k#z.M } p p p p p p p p p p p l#m#n#n#n#n#o#p#q#r#s#n#n#n#n#t#u#%@:#V             ",
"        v#r.w#x#z.c.9 9 9 9 9 9 9 9 9 9 9 9 9 9 9 9 9 9 9 y#z#A#B#9 9 9 9 9 9 9 0 V             ",
"        C#D#E#F#G#H#+.I#I#I#I#I#I#I#I#0 I#I#I#0 J#0 I#I#0 0 +.+.I#I#0 0 0 0 0 I#9 K#            ",
"        L#M#N#O#P#+ V V V V V V V V V Q#R#V V V V V S#T#U#V V U#S#T#3 V V U#S#V#W#X#            ",
"                                                                                                ",
"                                                                                                ",
"                                                                                                "};
