/* XPM */
static char * F:\Development\workspace\gecko\znotes\src\addon\icons\updater32_xpm[] = {
"32 32 255 2",
"   c None",
".  c #6999C2",
"+  c #6C9CC4",
"@  c #558AB9",
"#  c #7DA6CA",
"$  c #749EC4",
"%  c #759EC4",
"&  c #76A0C5",
"*  c #77A0C5",
"=  c #5E90BD",
"-  c #4C4D4A",
";  c #736762",
">  c #69B8E4",
",  c #4886B9",
"'  c #FFFFFF",
")  c #F6F5F4",
"!  c #F6F5F5",
"~  c #FAFAF8",
"{  c #7CA7CC",
"]  c #B7D5EE",
"^  c #B9D6EA",
"/  c #4281B7",
"(  c #FCFFFF",
"_  c #F9F9F9",
":  c #FCFCFB",
"<  c #7BA6CB",
"[  c #4C4D49",
"}  c #666261",
"|  c #62ABE1",
"1  c #4685B8",
"2  c #FBFFFF",
"3  c #F0F0F0",
"4  c #FBFBFB",
"5  c #F2F2F2",
"6  c #F7F6F6",
"7  c #7AA5CB",
"8  c #B7D6E9",
"9  c #4282B7",
"0  c #000000",
"a  c #AAABAB",
"b  c #62AAE0",
"c  c #4785B8",
"d  c #F6F6F5",
"e  c #DBDBDB",
"f  c #DEDEDE",
"g  c #DEDFDF",
"h  c #393C3F",
"i  c #191D20",
"j  c #E4E7E9",
"k  c #B7D7EA",
"l  c #4383B8",
"m  c #FEFFFF",
"n  c #98A3AB",
"o  c #040608",
"p  c #CFDCE8",
"q  c #FCFBFA",
"r  c #FDFCFB",
"s  c #7CA6CB",
"t  c #666361",
"u  c #4887BA",
"v  c #F3F2F2",
"w  c #F8F7F7",
"x  c #AAB0B7",
"y  c #05090C",
"z  c #BBC0C5",
"A  c #F9F8F7",
"B  c #B8D5EE",
"C  c #4484B8",
"D  c #141618",
"E  c #727D86",
"F  c #FCFCFC",
"G  c #4988BA",
"H  c #2B3135",
"I  c #080808",
"J  c #454748",
"K  c #444444",
"L  c #3D3D3D",
"M  c #BABABA",
"N  c #F4F4F4",
"O  c #B8D6EE",
"P  c #FDFFFF",
"Q  c #333232",
"R  c #4C4C4C",
"S  c #4A4A4A",
"T  c #C2C2C2",
"U  c #4D4D49",
"V  c #676361",
"W  c #61AAE0",
"X  c #4887B9",
"Y  c #F2F2F1",
"Z  c #F5F5F5",
"`  c #B9D6ED",
" . c #B7D5EA",
".. c #4888BC",
"+. c #61AADF",
"@. c #4482B6",
"#. c #F3F3F2",
"$. c #F4F3F3",
"%. c #B6D4E8",
"&. c #407FB5",
"*. c #FAF9F9",
"=. c #FBFAFA",
"-. c #E4F0F4",
";. c #CEE6E4",
">. c #CBE5DF",
",. c #E6F1FA",
"'. c #5FA7DC",
"). c #4381B4",
"!. c #6BA9CD",
"~. c #C1E6CC",
"{. c #BEE5BD",
"]. c #97D3DB",
"^. c #87D354",
"/. c #9BD858",
"(. c #8AB8D8",
"_. c #FFFDF8",
":. c #B4D1E6",
"<. c #3F7DB3",
"[. c #C7DFEB",
"}. c #B8E3FA",
"|. c #D6F3CD",
"1. c #AFE3D6",
"2. c #95D7C8",
"3. c #6BC3BF",
"4. c #5FC374",
"5. c #6CBF6C",
"6. c #ADCEE7",
"7. c #5EA5DC",
"8. c #4380B4",
"9. c #FFFDF9",
"0. c #60A7CB",
"a. c #B8E4FC",
"b. c #B5E7E4",
"c. c #BAF04A",
"d. c #9FE630",
"e. c #6BC889",
"f. c #2EA4FA",
"g. c #40B09D",
"h. c #89C578",
"i. c #E7EBF3",
"j. c #B2CFE3",
"k. c #3E7BB2",
"l. c #FFFFFC",
"m. c #2391CA",
"n. c #9FDBFA",
"o. c #96D8DF",
"p. c #A8EC15",
"q. c #98E50B",
"r. c #9EE600",
"s. c #37A8E1",
"t. c #0E92F7",
"u. c #82CB3C",
"v. c #E2ECF7",
"w. c #5CA2D9",
"x. c #427EB2",
"y. c #F2F3F3",
"z. c #FFFBF5",
"A. c #1D91B2",
"B. c #6FC6E6",
"C. c #6CC7D8",
"D. c #A1EA0E",
"E. c #ACF100",
"F. c #56BBA7",
"G. c #2DA3E4",
"H. c #1998DC",
"I. c #279ABF",
"J. c #E0E8EC",
"K. c #AFCCE2",
"L. c #3D79B0",
"M. c #FFFFFB",
"N. c #4397B4",
"O. c #43B2E1",
"P. c #46B1E9",
"Q. c #92E13D",
"R. c #47B2CE",
"S. c #4AB5AA",
"T. c #28A0D3",
"U. c #1B9CC1",
"V. c #2B93CD",
"W. c #EDF0F2",
"X. c #5AA0D7",
"Y. c #407CAF",
"Z. c #ACC5D3",
"`. c #2BA3DF",
" + c #33A6E1",
".+ c #32A6E0",
"++ c #3BACBF",
"@+ c #85D727",
"#+ c #8BDA11",
"$+ c #37A969",
"%+ c #92B3D5",
"&+ c #F4F3F1",
"*+ c #F6F6F6",
"=+ c #B9D6EE",
"-+ c #ADC9DF",
";+ c #3B77AD",
">+ c #6BA2BE",
",+ c #2497D1",
"'+ c #1896D6",
")+ c #1398D9",
"!+ c #62C34D",
"~+ c #6DBF3F",
"{+ c #74A4BF",
"]+ c #FFFFF9",
"^+ c #686361",
"/+ c #599ED6",
"(+ c #407BAF",
"_+ c #F3F3F3",
":+ c #F0EFEF",
"<+ c #C2CED4",
"[+ c #A2C5D7",
"}+ c #55758C",
"|+ c #91B2BD",
"1+ c #C1CED6",
"2+ c #F0EFF0",
"3+ c #F8F8F8",
"4+ c #D8D9DA",
"5+ c #D2D2D2",
"6+ c #D3D5D6",
"7+ c #DDD1C6",
"8+ c #C7A464",
"9+ c #D6CFC5",
"0+ c #D4D4D6",
"a+ c #D2D2D3",
"b+ c #D1D1D2",
"c+ c #DBDBDC",
"d+ c #FFFFFE",
"e+ c #589CD4",
"f+ c #3E79AE",
"g+ c #BCBBBC",
"h+ c #ADADAE",
"i+ c #AEAEAE",
"j+ c #ADAEB0",
"k+ c #AEA39A",
"l+ c #D1AA5E",
"m+ c #B1AAA0",
"n+ c #ADADAD",
"o+ c #C0BFBF",
"p+ c #FBFBFA",
"q+ c #BAD7EE",
"r+ c #ABC6DC",
"s+ c #3874AB",
"t+ c #F7FBFF",
"u+ c #7EA8CC",
"v+ c #535E68",
"w+ c #62A2D7",
"x+ c #5187B7",
"y+ c #82ABCE",
"z+ c #7CA7CB",
"A+ c #7BA6CA",
"B+ c #7EA7CC",
"C+ c #80A9CC",
"D+ c #7DA7CC",
"E+ c #81A9CC",
"F+ c #6193BF",
"                                                                ",
"                                                                ",
"      . + @ # $ % % % % % $ & % % % % % % % % % % % * =         ",
"    - ; > , ' ) ! ! ! ! ! ! ! ! ! ! ! ! ! ! ! ! ! ! ~ {         ",
"      ] ^ / ( _ _ _ _ _ _ _ _ _ _ _ _ _ _ _ _ _ _ _ : <         ",
"    [ } | 1 2 3 ' ' ' ' ' 4 5 5 5 5 5 5 5 5 5 5 5 5 6 7         ",
"      ] 8 9 ( ' 0 0 0 0 0 a 4 _ _ _ _ _ _ _ _ _ _ _ : <         ",
"    [ } b c 2 d e f g h i j 5 5 5 5 5 5 5 5 5 5 5 5 6 <         ",
"      ] k l m _ _ ' n o p q _ _ _ _ _ _ _ _ _ _ _ _ r s         ",
"    [ t | u 2 v w x y z A 5 5 5 5 5 5 5 5 5 5 5 5 5 6 <         ",
"      B 8 C ( _ j D E ' ' F _ _ _ _ _ _ _ _ _ _ _ _ : s         ",
"    [ t | G 2 ' H I J K L M N 5 5 5 5 5 5 5 5 5 5 5 6 <         ",
"      O 8 C P ' Q R S S K T 4 _ _ _ _ _ _ _ _ _ _ _ : s         ",
"    U V W X 2 Y F 4 4 4 F Z 5 5 5 5 5 5 5 5 5 5 5 5 6 s         ",
"      `  ...( _ _ _ _ _ _ _ _ _ _ _ _ _ _ _ _ _ _ _ r s         ",
"    [ } +.@.( v 5 5 5 5 5 5 5 5 5 5 #.$.$.$.#.5 5 5 6 <         ",
"      ] %.&.P _ _ _ _ _ _ _ _ _ *.=.-.;.>.;.,.4 _ _ : s         ",
"    [ } '.).( v 5 5 5 5 5 5 5 5 v !.~.{.].^./.(._.5 6 <         ",
"      B :.<.P _ _ _ _ _ _ _ _ =.[.}.|.1.2.3.4.5.6.=.: s         ",
"    [ } 7.8.2 v 5 5 5 5 5 5 5 9.0.a.b.c.d.e.f.g.h.i.6 <         ",
"      O j.k.P _ _ _ _ _ _ _ _ l.m.n.o.p.q.r.s.t.u.v.: s         ",
"    [ t w.x.2 v 5 5 5 5 5 5 y.z.A.B.C.D.E.F.G.H.I.J.6 <         ",
"      O K.L.P _ _ _ _ _ _ _ _ M.N.O.P.Q.R.S.T.U.V.W.: s         ",
"    [ t X.Y.( v 5 5 5 5 5 5 5 ! Z.`. +.+++@+#+$+%+&+*+s         ",
"      =+-+;+( _ _ _ _ _ _ _ _ _ ) >+,+'+)+!+~+{+]+_ : {         ",
"    U ^+/+(+2 v 5 5 5 5 5 5 5 _+N :+<+[+}+|+1+2+_+_+*+s         ",
"      =+-+;+( _ _ _ _ _ _ _ 3+4+5+5+6+7+8+9+0+a+b+c+d+s         ",
"    U V e+f+2 v 5 5 5 5 5 5 3 g+h+i+j+k+l+m+i+i+n+o+p+<         ",
"      q+r+s+' ' ' ' ' ' ' ' ' ' ' ' ' ' t+' ' ' ' ' ' u+        ",
"      v+w+x+y+{ { { { { z+A+{ { { B+C+{ D+u+C+{ { B+E+F+        ",
"                                                                ",
"                                                                "};
