/* XPM */
static char * F:\Development\workspace\gecko\znotes\src\addon\icons\updater24_xpm[] = {
"24 24 225 2",
"   c None",
".  c #6A96BE",
"+  c #6192BE",
"@  c #6594BF",
"#  c #6593BE",
"$  c #6794BE",
"%  c #5C8EBB",
"&  c #6B605D",
"*  c #5FB0E1",
"=  c #9BBBD7",
"-  c #E8ECEF",
";  c #E5E9EE",
">  c #E5EAEE",
",  c #EEF0F2",
"'  c #85ADCF",
")  c #AAC4DC",
"!  c #A3C7E3",
"~  c #98BCD8",
"{  c #FAFAF9",
"]  c #FDFDFD",
"^  c #F9F9F9",
"/  c #F8F8F8",
"(  c #FFFFFC",
"_  c #8AB0D1",
":  c #87909A",
"<  c #81BAE2",
"[  c #9BBED9",
"}  c #FFFFFF",
"|  c #6A6A6A",
"1  c #717171",
"2  c #7B7B7B",
"3  c #888887",
"4  c #E8E8E8",
"5  c #F6F6F6",
"6  c #F5F5F5",
"7  c #FFFCFA",
"8  c #89AFD0",
"9  c #686360",
"0  c #62ABE2",
"a  c #9FC0D9",
"b  c #FDFDFB",
"c  c #B9B9B9",
"d  c #CBCBCA",
"e  c #46494B",
"f  c #1F2224",
"g  c #F4F5F6",
"h  c #F3F3F3",
"i  c #F2F2F2",
"j  c #FDFAF7",
"k  c #ABC5DC",
"l  c #A1C9E3",
"m  c #9ABDD9",
"n  c #FBFAFA",
"o  c #FCFCFC",
"p  c #C3CACE",
"q  c #16191C",
"r  c #EEF9FF",
"s  c #FCFBF9",
"t  c #FFFFFD",
"u  c #8BB0D1",
"v  c #88919A",
"w  c #82BAE2",
"x  c #9DBFDA",
"y  c #F8F7F6",
"z  c #E7E8EA",
"A  c #32393F",
"B  c #DBDFE2",
"C  c #F7F7F7",
"D  c #8AB0D0",
"E  c #62ACE3",
"F  c #A0C1DA",
"G  c #2D3337",
"H  c #232425",
"I  c #5A5B5B",
"J  c #606060",
"K  c #E2E2E2",
"L  c #ACC6DC",
"M  c #A1C8E2",
"N  c #454343",
"O  c #646464",
"P  c #676767",
"Q  c #899299",
"R  c #82B9E3",
"S  c #9EC1DB",
"T  c #F7F7F6",
"U  c #F5F5F6",
"V  c #8BB0D0",
"W  c #61ABE1",
"X  c #9FBFD9",
"Y  c #F7F5F5",
"Z  c #F2F2F3",
"`  c #F7F5F4",
" . c #F6F4F4",
".. c #F3F3F2",
"+. c #A0C6E0",
"@. c #98BAD7",
"#. c #FBFBFA",
"$. c #E4EFF3",
"%. c #CDE6E0",
"&. c #C2E2DC",
"*. c #CFE8DA",
"=. c #ECF2F7",
"-. c #FBFBF9",
";. c #7EB5DE",
">. c #9BBCD7",
",. c #F9F8F8",
"'. c #F5F6F6",
"). c #F5F6F5",
"!. c #F7F6F6",
"~. c #D6E5EE",
"{. c #A6D5D3",
"]. c #BAE6CE",
"^. c #8CD1D1",
"/. c #76CC62",
"(. c #72B88E",
"_. c #E2EBFB",
":. c #FFFEFA",
"<. c #5EA6DE",
"[. c #9DBED8",
"}. c #F2F3F3",
"|. c #FFFFFB",
"1. c #70B1D2",
"2. c #BFEAFA",
"3. c #BBEF6F",
"4. c #97E04C",
"5. c #48B4CD",
"6. c #41B19D",
"7. c #9CCB95",
"8. c #FEF9FE",
"9. c #9CC0DB",
"0. c #97B8D6",
"a. c #FFFFFE",
"b. c #2092CA",
"c. c #9ADAFA",
"d. c #A4E92A",
"e. c #9BE703",
"f. c #6AC675",
"g. c #0A90FF",
"h. c #89CD53",
"i. c #FDFBFF",
"j. c #88929A",
"k. c #7AB0DA",
"l. c #9ABAD6",
"m. c #F6F5F5",
"n. c #2290B2",
"o. c #56BBF1",
"p. c #99E52E",
"q. c #74CE75",
"r. c #33A7D8",
"s. c #1A9AD6",
"t. c #359CD1",
"u. c #FFFDF8",
"v. c #696461",
"w. c #5AA0D8",
"x. c #9DBCD5",
"y. c #F7F6F5",
"z. c #FCF9F8",
"A. c #88B6CD",
"B. c #28A4E5",
"C. c #3EADD1",
"D. c #45B2B0",
"E. c #89D920",
"F. c #35AD60",
"G. c #92B3DC",
"H. c #FFFEF8",
"I. c #8AAFD0",
"J. c #AEC6DC",
"K. c #97BAD7",
"L. c #95B7D3",
"M. c #EDEFF0",
"N. c #549FC6",
"O. c #289BD5",
"P. c #2097C3",
"Q. c #71C349",
"R. c #7EAAB9",
"S. c #8BB1D2",
"T. c #8A929B",
"U. c #78ACD7",
"V. c #99B9D4",
"W. c #E9E9EA",
"X. c #E6E6E5",
"Y. c #E2E0DF",
"Z. c #D0D6D7",
"`. c #938C78",
" + c #C6CDDB",
".+ c #E9E6E7",
"++ c #E3E4E5",
"@+ c #FAF7F5",
"#+ c #6A6461",
"$+ c #579CD5",
"%+ c #9BBAD5",
"&+ c #F4F5F4",
"*+ c #C2C2C3",
"=+ c #ACACAC",
"-+ c #ADAEB0",
";+ c #AEA5A0",
">+ c #CDA65A",
",+ c #AEACAB",
"'+ c #ADADAE",
")+ c #AEAEAE",
"!+ c #E7E3E0",
"~+ c #ACC8DF",
"{+ c #97B8D5",
"]+ c #8EB0D0",
"^+ c #F1F6FA",
"/+ c #EFF4F9",
"(+ c #EEF4F9",
"_+ c #F1F7FC",
":+ c #F3F8FD",
"<+ c #F3F9FE",
"[+ c #EAF5FF",
"}+ c #F4F9FD",
"|+ c #F8FAFD",
"1+ c #88AED0",
"2+ c #569AD3",
"3+ c #6292BB",
"4+ c #6B9AC3",
"5+ c #6A99C2",
"6+ c #6A99C1",
"7+ c #6999C1",
"8+ c #6D9BC2",
"9+ c #6A9AC2",
"0+ c #6C9AC2",
"a+ c #6F9BC3",
"b+ c #6092BE",
"                                                ",
"      . + @ # # # # @ # # # # # # # # $ %       ",
"    & * = - ; ; ; ; > ; ; ; ; ; ; ; ; , '       ",
"    ) ! ~ { ] ] ] ] ^ / / / / / / / / ( _       ",
"    : < [ } | 1 2 3 4 5 5 5 5 5 5 5 6 7 8       ",
"    9 0 a b c d e f g h h h h h h h i j 8       ",
"    k l m n o p q r s / / / / / / / / t u       ",
"    v w x y z A B } C 6 5 5 5 5 5 5 6 7 D       ",
"    9 E F } G H I J K h h h h h h h i j 8       ",
"    L M m } N O J P 4 ^ / / / / / / / t u       ",
"    Q R S T } } } } C 6 5 U 6 6 6 U 6 7 V       ",
"    9 W X Y i i i i h h Z h ` Y  ...i j 8       ",
"    k +.@.#./ / / / / / / $.%.&.*.=.-.( u       ",
"    v ;.>.,.'.5 5 5 ).!.~.{.].^./.(._.:.D       ",
"    9 <.[.Y }.h h h i |.1.2.3.4.5.6.7.8.8       ",
"    L 9.0.#./ / / / / a.b.c.d.e.f.g.h.i.u       ",
"    j.k.l.,.'.5 5 m.U ( n.o.p.q.r.s.t.u.D       ",
"    v.w.x.y.}.h h h i z.A.B.C.D.E.F.G.H.I.      ",
"    J.K.L.#./ / / / / ^ M.N.O.P.Q.R.t t S.      ",
"    T.U.V.,.'.5 5 5 5 W.X.Y.Z.`. +.+++@+u       ",
"    #+$+%+m.i i i i &+*+=+-+;+>+,+'+)+!+_       ",
"    ~+{+]+^+/+/+/+/+(+_+:+:+<+[+}+:+:+|+1+      ",
"      2+3+4+5+5+5+6+7+5+5+8+9+0+8+9+5+a+b+      ",
"                                                "};
