/* XPM */
static char * F:\Development\workspace\gecko\znotes\src\addon\icons\updater64_xpm[] = {
"64 64 478 2",
"   c None",
".  c #5588B6",
"+  c #5387B7",
"@  c #5085B5",
"#  c #5084B5",
"$  c #5186B6",
"%  c #5287B7",
"&  c #4E84B5",
"*  c #4B82B4",
"=  c #5588B7",
"-  c #5388B9",
";  c #D7F4FF",
">  c #D3EFFE",
",  c #D2EDFA",
"'  c #D4EFFC",
")  c #487FB2",
"!  c #E3F1FD",
"~  c #5089BD",
"{  c #567485",
"]  c #3378A2",
"^  c #7ABDE4",
"/  c #467CAF",
"(  c #E4F1FC",
"_  c #CCCCCC",
":  c #121410",
"<  c #CEC7C2",
"[  c #B8B0AA",
"}  c #574943",
"|  c #68ACD5",
"1  c #477DAF",
"2  c #E3F1FC",
"3  c #FFFFFF",
"4  c #4E86BA",
"5  c #F5FBFF",
"6  c #7BBBE3",
"7  c #7BBCE3",
"8  c #487DB0",
"9  c #5187B9",
"0  c #8DBADA",
"a  c #649ECA",
"b  c #79B7DF",
"c  c #7ABAE1",
"d  c #487EB0",
"e  c #5189BD",
"f  c #4A7A9E",
"g  c #427AA8",
"h  c #B9B0AA",
"i  c #594B43",
"j  c #73ADDB",
"k  c #4E87BA",
"l  c #497EB1",
"m  c #000000",
"n  c #5288B9",
"o  c #497FB1",
"p  c #232B31",
"q  c #4C82B4",
"r  c #E4F1FD",
"s  c #373637",
"t  c #141314",
"u  c #C0BDBE",
"v  c #B9B0A9",
"w  c #4D5E6D",
"x  c #030405",
"y  c #829FB8",
"z  c #4C83B4",
"A  c #4A7FB1",
"B  c #E5F3FE",
"C  c #738B9F",
"D  c #697F92",
"E  c #95B1CA",
"F  c #08090B",
"G  c #4A5865",
"H  c #518ABD",
"I  c #4A80B2",
"J  c #CCC9CA",
"K  c #202020",
"L  c #363636",
"M  c #35414B",
"N  c #15191D",
"O  c #BFD4E8",
"P  c #4F87BA",
"Q  c #4B80B2",
"R  c #5A6D7E",
"S  c #07080A",
"T  c #8CAAC3",
"U  c #5389B9",
"V  c #4B81B2",
"W  c #819AB0",
"X  c #020202",
"Y  c #778EA1",
"Z  c #528ABD",
"`  c #BCBABB",
" . c #100F0F",
".. c #686767",
"+. c #21292F",
"@. c #5289BA",
"#. c #4B81B3",
"$. c #6A93B9",
"%. c #CBC6C2",
"&. c #4B82B3",
"*. c #5388B6",
"=. c #F5FAFF",
"-. c #77B6DF",
";. c #78B8E0",
">. c #78B7DE",
",. c #77B7DE",
"'. c #76B4DB",
"). c #76B5DB",
"!. c #F1F6FB",
"~. c #B3D4E5",
"{. c #59A5C5",
"]. c #268CB6",
"^. c #278CB7",
"/. c #298CB7",
"(. c #298DB8",
"_. c #5AA5C7",
":. c #B1D3E7",
"<. c #72B0D8",
"[. c #73B2DA",
"}. c #8AAEC1",
"|. c #4A9DB1",
"1. c #88C6AA",
"2. c #CBEE98",
"3. c #EAFF88",
"4. c #E7FF7F",
"5. c #CFF77F",
"6. c #B2EA76",
"7. c #B0E568",
"8. c #7CBFA1",
"9. c #4E9DBC",
"0. c #8BAEC4",
"a. c #72AFD7",
"b. c #87BBD4",
"c. c #459FCD",
"d. c #C8ECE6",
"e. c #ECFFA9",
"f. c #DBF6AA",
"g. c #B7E3ED",
"h. c #A3DAF5",
"i. c #90D1F5",
"j. c #67BEFF",
"k. c #8EDC13",
"l. c #A2E80A",
"m. c #B7E76D",
"n. c #429CCF",
"o. c #88BBD9",
"p. c #72AED8",
"q. c #70AED7",
"r. c #ABCEE0",
"s. c #449ECC",
"t. c #D1F3FF",
"u. c #DCF4E8",
"v. c #DDFB8F",
"w. c #BBE6E7",
"x. c #A4DBFF",
"y. c #95D3FF",
"z. c #8BD1DA",
"A. c #8CD4A9",
"B. c #46AEFF",
"C. c #5ABF7F",
"D. c #8FDE00",
"E. c #C1F151",
"F. c #479FBE",
"G. c #ABCEE4",
"H. c #EEF3F6",
"I. c #4DA0CA",
"J. c #A9DEF9",
"K. c #D5F0FF",
"L. c #C3E9F3",
"M. c #CFF48F",
"N. c #C6F086",
"O. c #A7E0CD",
"P. c #95D8CC",
"Q. c #B1EC29",
"R. c #A2E528",
"S. c #80D251",
"T. c #4EB7AD",
"U. c #44B1AB",
"V. c #73CD17",
"W. c #8DD27F",
"X. c #52A1C4",
"Y. c #EEF3F7",
"Z. c #86A9BB",
"`. c #58AFDB",
" + c #C7EBFD",
".+ c #C2E8FE",
"++ c #BDE8F0",
"@+ c #C5F09B",
"#+ c #C5F648",
"$+ c #BBF240",
"%+ c #ADEA3B",
"&+ c #A6E915",
"*+ c #84D64C",
"=+ c #A4E900",
"-+ c #3BABEA",
";+ c #2CA3EF",
">+ c #33A7C0",
",+ c #97DF00",
"'+ c #6AB881",
")+ c #86A9BE",
"!+ c #6FABD5",
"~+ c #6FACD5",
"{+ c #4899C1",
"]+ c #7CC9F0",
"^+ c #B9E4FA",
"/+ c #B4E2FB",
"(+ c #AEE2FF",
"_+ c #AAE1FE",
":+ c #BEF527",
"<+ c #B2EE28",
"[+ c #ABEE02",
"}+ c #6EC9B7",
"|+ c #90DF11",
"1+ c #44B1E4",
"2+ c #37A9F4",
"3+ c #32A6E2",
"4+ c #229DEB",
"5+ c #2DA4B4",
"6+ c #91D536",
"7+ c #499AC0",
"8+ c #6DA7D2",
"9+ c #6EA9D3",
"0+ c #FEFEFE",
"a+ c #2289BE",
"b+ c #82D0F8",
"c+ c #AADEF9",
"d+ c #A4DDF9",
"e+ c #9DDAFF",
"f+ c #99DAEC",
"g+ c #B7F30E",
"h+ c #A8EC10",
"i+ c #9EE904",
"j+ c #87DA4C",
"k+ c #9CE500",
"l+ c #92DF07",
"m+ c #4EB6B5",
"n+ c #2FA4E9",
"o+ c #26A0DE",
"p+ c #1B99D9",
"q+ c #8ED817",
"r+ c #258BB5",
"s+ c #6CA6D0",
"t+ c #6CA7D1",
"u+ c #F9F9F9",
"v+ c #2189BE",
"w+ c #67C4F5",
"x+ c #98D7F7",
"y+ c #93D4F6",
"z+ c #86D0FF",
"A+ c #9DE18A",
"B+ c #AFF100",
"C+ c #A2EB01",
"D+ c #9DE800",
"E+ c #9BE600",
"F+ c #9DE600",
"G+ c #8CDB18",
"H+ c #36A7EF",
"I+ c #2DA4E3",
"J+ c #259FDC",
"K+ c #1897D9",
"L+ c #79CE32",
"M+ c #288DB1",
"N+ c #ECECEC",
"O+ c #6BA5CF",
"P+ c #C7C7C7",
"Q+ c #2089BF",
"R+ c #56BEEB",
"S+ c #70C5F3",
"T+ c #7FCCF3",
"U+ c #6FC4FF",
"V+ c #8CDB78",
"W+ c #AAF200",
"X+ c #A1EB00",
"Y+ c #8FDE1B",
"Z+ c #39AAF5",
"`+ c #33A7E7",
" @ c #2BA2DE",
".@ c #219CDA",
"+@ c #1395DF",
"@@ c #35AA8F",
"#@ c #248BB3",
"$@ c #C6C6C6",
"%@ c #69A2CE",
"&@ c #69A3CE",
"*@ c #2088BE",
"=@ c #81DA79",
"-@ c #53B9DE",
";@ c #5EBDEF",
">@ c #5ABCF5",
",@ c #57BBEC",
"'@ c #B2F600",
")@ c #A3EC01",
"!@ c #A7EF00",
"~@ c #9FE800",
"{@ c #6DC973",
"]@ c #35A7EB",
"^@ c #30A5E0",
"/@ c #27A0DD",
"(@ c #1D9BD9",
"_@ c #1495D6",
":@ c #008CDE",
"<@ c #1C86C0",
"[@ c #669ECA",
"}@ c #67A0CB",
"|@ c #F7F7F7",
"1@ c #3C90C0",
"2@ c #68C68F",
"3@ c #4DB6DC",
"4@ c #48B4EB",
"5@ c #4CB5EA",
"6@ c #45B1FF",
"7@ c #84D858",
"8@ c #ADF200",
"9@ c #4DB6CE",
"0@ c #3FADD6",
"a@ c #64C47B",
"b@ c #28A1F8",
"c@ c #28A0E1",
"d@ c #209CDC",
"e@ c #1897D8",
"f@ c #0D93D6",
"g@ c #078DD0",
"h@ c #3C91BA",
"i@ c #669FCA",
"j@ c #679FCB",
"k@ c #F8F8F8",
"l@ c #91B4C6",
"m@ c #299ADD",
"n@ c #3BACEA",
"o@ c #40AEE6",
"p@ c #42AFE7",
"q@ c #42B0E9",
"r@ c #3EACF2",
"s@ c #8CDE44",
"t@ c #83D846",
"u@ c #8ADC24",
"v@ c #5ABE84",
"w@ c #75CF3A",
"x@ c #1F9BE6",
"y@ c #1D9AD4",
"z@ c #1194D7",
"A@ c #1194C6",
"B@ c #0D89CD",
"C@ c #92B4C5",
"D@ c #659EC9",
"E@ c #649DC8",
"F@ c #CACACA",
"G@ c #AAAFB2",
"H@ c #328BB9",
"I@ c #31A8E1",
"J@ c #35A8E3",
"K@ c #38A9E3",
"L@ c #38AAE3",
"M@ c #36A9E7",
"N@ c #2EA4F3",
"O@ c #3DACCA",
"P@ c #62C36F",
"Q@ c #58BD7E",
"R@ c #85D821",
"S@ c #8CDB0A",
"T@ c #8AD907",
"U@ c #7CD121",
"V@ c #6CC72A",
"W@ c #1F80CB",
"X@ c #ABB0B2",
"Y@ c #639BC6",
"Z@ c #F3F3F3",
"`@ c #94B4C5",
" # c #238DC4",
".# c #2CA8E4",
"+# c #2DA3DF",
"@# c #2DA4DF",
"## c #2BA2DF",
"$# c #27A0E2",
"%# c #209CE5",
"&# c #6CC95A",
"*# c #98E300",
"=# c #91DE00",
"-# c #93DF00",
";# c #89DB00",
"># c #1687C1",
",# c #94B4C8",
"'# c #5F97C3",
")# c #6099C5",
"!# c #FDFDFD",
"~# c #EFEFEF",
"{# c #73A3BB",
"]# c #218CC2",
"^# c #239FDD",
"/# c #229DDC",
"(# c #219DDB",
"_# c #1E9BD9",
":# c #1797DD",
"<# c #55BB73",
"[# c #98E303",
"}# c #95E100",
"|# c #7BD21F",
"1# c #1888BE",
"2# c #73A3BF",
"3# c #6096C2",
"4# c #FAFAFA",
"5# c #EBEBEB",
"6# c #8EAEBE",
"7# c #338EBC",
"8# c #1D93CF",
"9# c #1897D6",
"0# c #1497DA",
"a# c #1296D9",
"b# c #0C94DC",
"c# c #0D94D2",
"d# c #58BC59",
"e# c #4BAD77",
"f# c #2E8CBC",
"g# c #8BADC4",
"h# c #6095C3",
"i# c #5F94C2",
"j# c #C8C8C8",
"k# c #BCBCBC",
"l# c #9CA0A3",
"m# c #6A8D9E",
"n# c #3386B0",
"o# c #1D89C0",
"p# c #128BC7",
"q# c #158FCB",
"r# c #1E8ABF",
"s# c #3587AC",
"t# c #678AA4",
"u# c #9BA0A4",
"v# c #F4F4F4",
"w# c #E5E5E5",
"x# c #D7D7D7",
"y# c #D8D8D8",
"z# c #8D7F7C",
"A# c #5E4C48",
"B# c #E5F1FC",
"C# c #F3E9DC",
"D# c #AD8B6C",
"E# c #967454",
"F# c #F5EBDE",
"G# c #C2C3C4",
"H# c #898C8E",
"I# c #8B8D90",
"J# c #878B92",
"K# c #AD8C69",
"L# c #FBE481",
"M# c #FBE582",
"N# c #AD8C68",
"O# c #8A898A",
"P# c #565456",
"Q# c #575557",
"R# c #515358",
"S# c #8F6D47",
"T# c #F5D157",
"U# c #5C92BF",
"V# c #EEEEEE",
"W# c #DEDEDE",
"X# c #DDDDDD",
"Y# c #CEC3B5",
"Z# c #C29F76",
"`# c #5088BA",
" $ c #5A8EBB",
".$ c #5B8FBD",
"+$ c #FCFCFC",
"@$ c #E9E9E9",
"#$ c #568AB9",
"$$ c #598DBB",
"%$ c #598DBC",
"&$ c #588BBA",
"*$ c #5A8DBB",
"=$ c #588CBA",
"-$ c #E5F2FE",
";$ c #E2F0FC",
">$ c #5586B2",
",$ c #598CBA",
"'$ c #5589B8",
")$ c #4A7FAF",
"!$ c #5487B5",
"~$ c #5386B4",
"                                                                                                                                ",
"                                                                                                                                ",
"                                                                                                                                ",
"                                                                                                                                ",
"            . + @ # $ % & * * * * * * * * * * * * * * * & * * * * * * * * * * * * * * * * * * * * * * * * * & =                 ",
"            - ; > , ' ) ! ! ! ! ! ! ! ! ! ! ! ! ! ! ! ! ! ! ! ! ! ! ! ! ! ! ! ! ! ! ! ! ! ! ! ! ! ! ! ! ! ! ! &                 ",
"            ~ { ] ^ ^ / ( _ _ _ _ _ _ _ _ _ _ _ _ _ _ _ _ _ _ _ _ _ _ _ _ _ _ _ _ _ _ _ _ _ _ _ _ _ _ _ _ _ ( *                 ",
"        : < [ } | ^ ^ 1 2 3 3 3 3 3 3 3 3 3 3 3 3 3 3 3 3 3 3 3 3 3 3 3 3 3 3 3 3 3 3 3 3 3 3 3 3 3 3 3 3 3 2 *                 ",
"            4 3 5 6 7 8 ! 3 3 3 3 3 3 3 3 3 3 3 3 3 3 3 3 3 3 3 3 3 3 3 3 3 3 3 3 3 3 3 3 3 3 3 3 3 3 3 3 3 ! *                 ",
"            9 0 a b c d ! 3 3 3 3 3 3 3 3 3 3 3 3 3 3 3 3 3 3 3 3 3 3 3 3 3 3 3 3 3 3 3 3 3 3 3 3 3 3 3 3 3 ! *                 ",
"            e f g ^ ^ d ( _ _ _ _ _ _ _ _ _ _ _ _ _ _ _ _ _ _ _ _ _ _ _ _ _ _ _ _ _ _ _ _ _ _ _ _ _ _ _ _ _ ( *                 ",
"        : < h i j 6 7 d 2 3 3 3 3 3 3 3 3 3 3 3 3 3 3 3 3 3 3 3 3 3 3 3 3 3 3 3 3 3 3 3 3 3 3 3 3 3 3 3 3 3 2 *                 ",
"            k 3 5 b c l ! 3 3 3 m m m m m m m m m m m 3 3 3 3 3 3 3 3 3 3 3 3 3 3 3 3 3 3 3 3 3 3 3 3 3 3 3 ! *                 ",
"            n 0 a ^ ^ o ! 3 3 3 m m m m m m m m m m p 3 3 3 3 3 3 3 3 3 3 3 3 3 3 3 3 3 3 3 3 3 3 3 3 3 3 3 ! q                 ",
"            e f g 6 7 o r _ _ _ _ _ _ _ _ _ _ s m t u _ _ _ _ _ _ _ _ _ _ _ _ _ _ _ _ _ _ _ _ _ _ _ _ _ _ _ r q                 ",
"        : < v i j b c o r 3 3 3 3 3 3 3 3 3 w m x y 3 3 3 3 3 3 3 3 3 3 3 3 3 3 3 3 3 3 3 3 3 3 3 3 3 3 3 3 r z                 ",
"            k 3 5 ^ ^ A B 3 3 3 3 3 3 3 3 C m m D 3 3 3 3 3 3 3 3 3 3 3 3 3 3 3 3 3 3 3 3 3 3 3 3 3 3 3 3 3 B z                 ",
"            - 0 a 6 7 A ! 3 3 3 3 3 3 3 E F m G 3 3 3 3 3 3 3 3 3 3 3 3 3 3 3 3 3 3 3 3 3 3 3 3 3 3 3 3 3 3 ( z                 ",
"            H f g b c I ! _ _ _ _ _ _ J K m L _ _ _ _ _ _ _ _ _ _ _ _ _ _ _ _ _ _ _ _ _ _ _ _ _ _ _ _ _ _ _ 2 z                 ",
"        : < v i j ^ ^ I ( 3 3 3 3 3 3 M m N O 3 3 3 3 3 3 3 3 3 3 3 3 3 3 3 3 3 3 3 3 3 3 3 3 3 3 3 3 3 3 3 ! z                 ",
"            P 3 5 6 7 Q 2 3 3 3 3 3 R m S T 3 3 3 3 3 3 3 3 3 3 3 3 3 3 3 3 3 3 3 3 3 3 3 3 3 3 3 3 3 3 3 3 ! z                 ",
"            U 0 a b c V ! 3 3 3 3 W X m Y 3 3 3 3 3 3 3 3 3 3 3 3 3 3 3 3 3 3 3 3 3 3 3 3 3 3 3 3 3 3 3 3 3 ( z                 ",
"            Z f g ^ ^ V ! _ _ _ `  .m .._ _ _ _ _ _ _ _ _ _ _ _ _ _ _ _ _ _ _ _ _ _ _ _ _ _ _ _ _ _ _ _ _ _ 2 z                 ",
"        : < v i j 6 7 V r 3 3 3 +.m m m m m m m m m m 3 3 3 3 3 3 3 3 3 3 3 3 3 3 3 3 3 3 3 3 3 3 3 3 3 3 3 ! z                 ",
"            P 3 5 b c V r 3 3 3 m m m m m m m m m m m 3 3 3 3 3 3 3 3 3 3 3 3 3 3 3 3 3 3 3 3 3 3 3 3 3 3 3 ! z                 ",
"            @.0 a ^ ^ #.B 3 3 3 3 3 3 3 3 3 3 3 3 3 3 3 3 3 3 3 3 3 3 3 3 3 3 3 3 3 3 3 3 3 3 3 3 3 3 3 3 3 r z                 ",
"            $.f g 6 7 #.2 _ _ _ _ _ _ _ _ _ _ _ _ _ _ _ _ _ _ _ _ _ _ _ _ _ _ _ _ _ _ _ _ _ _ _ _ _ _ _ _ _ r z                 ",
"        : %.[ i j b c &.! 3 3 3 3 3 3 3 3 3 3 3 3 3 3 3 3 3 3 3 3 3 3 3 3 3 3 3 3 3 3 3 3 3 3 3 3 3 3 3 3 3 r z                 ",
"            *.3 =.^ ^ % ! 3 3 3 3 3 3 3 3 3 3 3 3 3 3 3 3 3 3 3 3 3 3 3 3 3 3 3 3 3 3 3 3 3 3 3 3 3 3 3 3 3 B z                 ",
"            - 0 a 6 7 ) ( 3 3 3 3 3 3 3 3 3 3 3 3 3 3 3 3 3 3 3 3 3 3 3 3 3 3 3 3 3 3 3 3 3 3 3 3 3 3 3 3 3 ( z                 ",
"            ~ f g b c / 2 _ _ _ _ _ _ _ _ _ _ _ _ _ _ _ _ _ _ _ _ _ _ _ _ _ _ _ _ _ _ _ _ _ _ _ _ _ _ _ _ _ 2 z                 ",
"        : < [ i j -.;.1 ! 3 3 3 3 3 3 3 3 3 3 3 3 3 3 3 3 3 3 3 3 3 3 3 3 3 3 3 3 3 3 3 3 3 3 3 3 3 3 3 3 3 ! z                 ",
"            4 3 =.>.,.8 ! 3 3 3 3 3 3 3 3 3 3 3 3 3 3 3 3 3 3 3 3 3 3 3 3 3 3 3 3 3 3 3 3 3 3 3 3 3 3 3 3 3 ! z                 ",
"            9 0 a '.).d r 3 3 3 3 3 3 3 3 3 3 3 3 3 3 3 3 3 3 3 3 3 3 3 !.~.{.].^./.(._.:.!.3 3 3 3 3 3 3 3 ( z                 ",
"            e f g <.[.d r _ _ _ _ _ _ _ _ _ _ _ _ _ _ _ _ _ _ _ _ _ _ }.|.1.2.3.4.5.6.7.8.9.0._ _ _ _ _ _ _ 2 z                 ",
"        : < h i j a.<.d B 3 3 3 3 3 3 3 3 3 3 3 3 3 3 3 3 3 3 3 3 3 b.c.d.e.f.g.h.i.j.k.l.m.n.o.3 3 3 3 3 3 ! z                 ",
"            k 3 5 p.q.l ( 3 3 3 3 3 3 3 3 3 3 3 3 3 3 3 3 3 3 3 3 r.s.t.u.v.w.x.y.z.A.B.C.D.E.F.G.3 3 3 3 3 ! z                 ",
"            n 0 a a.<.o 2 3 3 3 3 3 3 3 3 3 3 3 3 3 3 3 3 3 3 3 H.I.J.K.L.M.N.O.P.Q.R.S.T.U.V.W.X.Y.3 3 3 3 r z                 ",
"            e f g p.q.o ! _ _ _ _ _ _ _ _ _ _ _ _ _ _ _ _ _ _ _ Z.`. +.+++@+#+$+%+&+*+=+-+;+>+,+'+)+_ _ _ _ 2 q                 ",
"        : < v i j !+~+o ! 3 3 3 3 3 3 3 3 3 3 3 3 3 3 3 3 3 3 3 {+]+^+/+(+_+:+<+[+}+|+1+2+3+4+5+6+7+3 3 3 3 ! z                 ",
"            k 3 5 8+9+A ( 3 3 3 3 3 3 3 3 3 3 3 3 3 3 3 3 3 3 0+a+b+c+d+e+f+g+h+i+j+k+l+m+n+o+p+q+r+0+3 3 3 ! z                 ",
"            - 0 a s+t+A 2 3 3 3 3 3 3 3 3 3 3 3 3 3 3 3 3 3 3 u+v+w+x+y+z+A+B+C+D+E+F+G+H+I+J+K+L+M+N+3 3 3 ( z                 ",
"            H f g s+O+I ! _ _ _ _ _ _ _ _ _ _ _ _ _ _ _ _ _ _ P+Q+R+S+T+U+V+W+X+D+F+Y+Z+`+ @.@+@@@#@$@_ _ _ 2 z                 ",
"        : < v i j %@&@I ! 3 3 3 3 3 3 3 3 3 3 3 3 3 3 3 3 3 3 u+*@=@-@;@>@,@'@)@!@~@{@]@^@/@(@_@:@<@u+3 3 3 ! z                 ",
"            P 3 5 [@}@Q r 3 3 3 3 3 3 3 3 3 3 3 3 3 3 3 3 3 3 |@1@2@3@4@5@6@7@8@9@0@a@b@c@d@e@f@g@h@|@3 3 3 ! z                 ",
"            U 0 a i@j@V r 3 3 3 3 3 3 3 3 3 3 3 3 3 3 3 3 3 3 k@l@m@n@o@p@q@r@s@t@u@v@w@x@y@z@A@B@C@k@3 3 3 r z                 ",
"            Z f g D@E@V B _ _ _ _ _ _ _ _ _ _ _ _ _ _ _ _ _ _ F@G@H@I@J@K@L@M@N@O@P@Q@R@S@T@U@V@W@X@F@_ _ _ r z                 ",
"        : < v i j Y@Y@V ( 3 3 3 3 3 3 3 3 3 3 3 3 3 3 3 3 3 3 3 Z@`@ #.#+#@#@###$#%#&#*#=#-#;#>#,#Z@3 3 3 3 B z                 ",
"            P 3 5 '#)#V 2 3 3 3 3 3 3 3 3 3 3 3 3 3 3 3 3 3 3 3 !#~#{#]#^#^#/#(#_#:#<#[#}#|#1#2#~#!#3 3 3 3 2 z                 ",
"            @.0 a 3#'##.! 3 3 3 3 3 3 3 3 3 3 3 3 3 3 3 3 3 3 3 3 4#5#6#7#8#9#0#a#b#c#d#e#f#g#5#4#3 3 3 3 3 ! z                 ",
"            $.f g h#i##.! _ _ _ _ _ _ _ _ _ _ _ _ _ _ _ _ _ _ _ _ _ j#k#l#m#n#o#p#q#r#s#t#u#k#j#_ _ _ _ _ _ ! z                 ",
"        : < v i j Y@Y@V ( 3 3 3 3 3 3 3 3 3 3 3 3 3 3 3 3 3 3 3 3 3 3 0+v#w#x#y#z#A#y#x#w#v#0+3 3 3 3 3 3 3 B#z                 ",
"            P 3 5 '#)#V 2 3 3 3 3 3 3 3 3 3 3 3 3 3 3 3 3 3 3 3 3 3 3 3 3 3 3 C#D#E#F#3 3 3 3 3 3 3 3 3 3 3 2 z                 ",
"            @.0 a 3#'##.! 3 3 3 3 3 3 3 3 3 3 3 3 3 3 3 3 3 G#H#I#I#I#I#I#I#J#K#L#M#N#J#I#I#I#I#I#I#H#G#3 3 ! z                 ",
"            $.f g h#i##.! _ _ _ _ _ _ _ _ _ _ _ _ _ _ _ _ _ O#P#Q#Q#Q#Q#Q#Q#R#S#T#T#S#R#Q#Q#Q#Q#Q#Q#P#O#_ _ ! z                 ",
"        : %.[ i j U#U#&.r 3 3 3 3 3 3 3 3 3 3 3 3 3 3 3 3 0+V#W#X#X#X#X#X#X#X#Y#Z#Z#Y#X#X#X#X#X#X#X#W#V#0+3 r z                 ",
"            `#3 5  $.$&.r 3 3 3 3 3 3 3 3 3 3 3 3 3 3 3 3 3 0+!#!#!#!#!#!#!#+$v#@$@$v#+$!#!#!#!#!#!#!#0+3 3 r z                 ",
"            #$0 a $$%$z B 3 3 3 3 3 3 3 3 3 3 3 3 3 3 3 3 3 3 3 3 3 3 3 3 3 3 3 3 3 3 3 3 3 3 3 3 3 3 3 3 3 B z                 ",
"            &$f g *$=$@ B -$! ! ! ! ! ! ! ! ! ! ! ! ! ! ! ! ! ! ;$! ! ! ! -$! ! ! ! ! ! ! ! ! ! ! ! ! -$! -$B @                 ",
"            >$i j ,$=$'$@ z z z z z z z z z z z z z )$z z z z z z z z @ !$z z z z z z @ !$z z z z z z @ ~$z @ ~$                ",
"                                                                                                                                ",
"                                                                                                                                ",
"                                                                                                                                ",
"                                                                                                                                "};
