/* XPM */
static char * icon16_xpm[] = {
"16 16 118 2",
"   c None",
".  c #615752",
"+  c #63AFE0",
"@  c #C8D6E3",
"#  c #D0DBE5",
"$  c #D1DBE5",
"%  c #D1DCE6",
"&  c #D5DEE7",
"*  c #8FB1D1",
"=  c #A3BBD1",
"-  c #9AC1DE",
";  c #E9EFF4",
">  c #DCDBDB",
",  c #E2E2E2",
"'  c #EAEAE9",
")  c #F9F8F8",
"!  c #F8F8F8",
"~  c #FDFBFA",
"{  c #9FBDD8",
"]  c #645952",
"^  c #6AB1E6",
"/  c #F1F6FA",
"(  c #9F9F9F",
"_  c #69696B",
":  c #484A4C",
"<  c #F6F6F6",
"[  c #F2F2F2",
"}  c #F6F5F3",
"|  c #9EBBD6",
"1  c #A4BBD0",
"2  c #9AC3DE",
"3  c #E4EBEF",
"4  c #F0F1F3",
"5  c #404448",
"6  c #FFFFFF",
"7  c #F8F7F7",
"8  c #F7F7F7",
"9  c #FCFBF9",
"0  c #6BB2E6",
"a  c #F7FCFF",
"b  c #373C40",
"c  c #636465",
"d  c #949393",
"e  c #A5BCD0",
"f  c #99C2DE",
"g  c #F2FAFF",
"h  c #666665",
"i  c #818182",
"j  c #9A9A9A",
"k  c #FCF9F8",
"l  c #9EB9D5",
"m  c #E4E9EC",
"n  c #F3F2F2",
"o  c #E4EDFE",
"p  c #C4A4D3",
"q  c #A5BCD1",
"r  c #97BFDB",
"s  c #E6ECF1",
"t  c #F7F7F8",
"u  c #F8ECD5",
"v  c #D19D50",
"w  c #9188A6",
"x  c #655953",
"y  c #67ADE2",
"z  c #E4EAED",
"A  c #F1F1F2",
"B  c #F2F2F1",
"C  c #F2F3F5",
"D  c #EFE5D0",
"E  c #FBBC65",
"F  c #E59B36",
"G  c #84A6C2",
"H  c #A6BDD2",
"I  c #95BAD8",
"J  c #F6EAD6",
"K  c #E99E35",
"L  c #E29834",
"M  c #AEC6E5",
"N  c #A2C0D9",
"O  c #655B53",
"P  c #63A8DE",
"Q  c #F1F1F1",
"R  c #F2F4F5",
"S  c #EFE4CF",
"T  c #FBBC64",
"U  c #E19834",
"V  c #CFD7DD",
"W  c #FCF9F7",
"X  c #9EBCD6",
"Y  c #A8BED3",
"Z  c #90B5D3",
"`  c #F7F8F8",
" . c #F5EDDF",
".. c #EBA437",
"+. c #AAC4E3",
"@. c #FCFBFA",
"#. c #9FBED8",
"$. c #665C54",
"%. c #61A5DB",
"&. c #E5EAEC",
"*. c #E7EAEB",
"=. c #F5D28E",
"-. c #AB8047",
";. c #D2D8DD",
">. c #F8F7F5",
",. c #F7F5F3",
"'. c #A4BFD6",
"). c #8CB0CF",
"!. c #CCDCEA",
"~. c #DCE8F1",
"{. c #DDE9F2",
"]. c #C6CFD5",
"^. c #6A7F90",
"/. c #BCDFFF",
"(. c #E1EAF2",
"_. c #DDE8F1",
":. c #E0EBF2",
"<. c #93B6D4",
"                                ",
"  . + @ # $ $ % % % % % & *     ",
"  = - ; > , ' ) ! ! ! ! ~ {     ",
"  ] ^ / ( _ : < [ [ [ [ } |     ",
"  1 2 3 4 5 6 7 8 8 8 8 9 {     ",
"  ] 0 a b c d [ [ [ [ [ } |     ",
"  e f g h i j ! 8 8 8 8 k l     ",
"  ] ^ m ! 8 < [ [ [ [ n o p     ",
"  q r s 8 8 8 8 8 8 t u v w     ",
"  x y z A [ [ [ B C D E F G     ",
"  H I s 8 8 8 8 t J K L M N     ",
"  O P z Q [ [ R S T U V W X     ",
"  Y Z s 8 8 `  ...L +.@.9 #.    ",
"  $.%.&.[ B *.=.-.;.>.[ ,.|     ",
"  '.).!.~.{.].^./.(._._.:.<.    ",
"                                "};
