/* XPM */
static char * icon64_xpm[] = {
"64 64 304 2",
"   c None",
".  c #5588B6",
"+  c #5387B7",
"@  c #5085B5",
"#  c #5084B5",
"$  c #5186B6",
"%  c #5287B7",
"&  c #4E84B5",
"*  c #4B82B4",
"=  c #5588B7",
"-  c #5388B9",
";  c #D7F4FF",
">  c #D3EFFE",
",  c #D2EDFA",
"'  c #D4EFFC",
")  c #487FB2",
"!  c #E3F1FD",
"~  c #5089BD",
"{  c #567485",
"]  c #3378A2",
"^  c #7ABDE4",
"/  c #467CAF",
"(  c #E4F1FC",
"_  c #CCCCCC",
":  c #121410",
"<  c #CEC7C2",
"[  c #B8B0AA",
"}  c #574943",
"|  c #68ACD5",
"1  c #477DAF",
"2  c #E3F1FC",
"3  c #FFFFFF",
"4  c #4E86BA",
"5  c #F5FBFF",
"6  c #7BBBE3",
"7  c #7BBCE3",
"8  c #487DB0",
"9  c #5187B9",
"0  c #8DBADA",
"a  c #649ECA",
"b  c #79B7DF",
"c  c #7ABAE1",
"d  c #487EB0",
"e  c #5189BD",
"f  c #4A7A9E",
"g  c #427AA8",
"h  c #B9B0AA",
"i  c #594B43",
"j  c #73ADDB",
"k  c #4E87BA",
"l  c #497EB1",
"m  c #000000",
"n  c #5288B9",
"o  c #497FB1",
"p  c #232B31",
"q  c #4C82B4",
"r  c #E4F1FD",
"s  c #373637",
"t  c #141314",
"u  c #C0BDBE",
"v  c #B9B0A9",
"w  c #4D5E6D",
"x  c #030405",
"y  c #829FB8",
"z  c #4C83B4",
"A  c #4A7FB1",
"B  c #E5F3FE",
"C  c #738B9F",
"D  c #697F92",
"E  c #95B1CA",
"F  c #08090B",
"G  c #4A5865",
"H  c #518ABD",
"I  c #4A80B2",
"J  c #CCC9CA",
"K  c #202020",
"L  c #363636",
"M  c #35414B",
"N  c #15191D",
"O  c #BFD4E8",
"P  c #4F87BA",
"Q  c #4B80B2",
"R  c #5A6D7E",
"S  c #07080A",
"T  c #8CAAC3",
"U  c #5389B9",
"V  c #4B81B2",
"W  c #819AB0",
"X  c #020202",
"Y  c #778EA1",
"Z  c #528ABD",
"`  c #BCBABB",
" . c #100F0F",
".. c #686767",
"+. c #21292F",
"@. c #5289BA",
"#. c #4B81B3",
"$. c #6A93B9",
"%. c #CBC6C2",
"&. c #4B82B3",
"*. c #5388B6",
"=. c #F5FAFF",
"-. c #D189BD",
";. c #CF87BA",
">. c #CF84B6",
",. c #5283B1",
"'. c #D684BF",
"). c #E2B0E4",
"!. c #E1BBE4",
"~. c #D0A4D4",
"{. c #CC7AAB",
"]. c #9FA5A8",
"^. c #8F9795",
"/. c #E8C0E9",
"(. c #FAF2FA",
"_. c #D8B0D9",
":. c #B38AC1",
"<. c #C9719F",
"[. c #77B6DF",
"}. c #78B8E0",
"|. c #9DA7B3",
"1. c #CBCED1",
"2. c #EBEDED",
"3. c #E1E6E2",
"4. c #DDB1DD",
"5. c #C58AC6",
"6. c #BD88C2",
"7. c #C96C99",
"8. c #78B7DE",
"9. c #77B7DE",
"0. c #CB7C2F",
"a. c #8B97A8",
"b. c #E9EDF2",
"c. c #FEFFFF",
"d. c #CCCFCE",
"e. c #818A86",
"f. c #C486C5",
"g. c #B680BD",
"h. c #C86A97",
"i. c #76B4DB",
"j. c #76B5DB",
"k. c #C67C36",
"l. c #FFCF47",
"m. c #FFD36D",
"n. c #DDE4F1",
"o. c #CACFD3",
"p. c #9D9FA0",
"q. c #818383",
"r. c #74827C",
"s. c #CE6A9B",
"t. c #72B0D8",
"u. c #73B2DA",
"v. c #FFCE4A",
"w. c #FFD276",
"x. c #FFF2DC",
"y. c #FFBE58",
"z. c #7B8898",
"A. c #7F838A",
"B. c #636567",
"C. c #6E7A77",
"D. c #396288",
"E. c #72AFD7",
"F. c #FFF2DE",
"G. c #FFBD62",
"H. c #FF9813",
"I. c #FF9B0D",
"J. c #737F8E",
"K. c #72797D",
"L. c #BBBEC2",
"M. c #4273A0",
"N. c #72AED8",
"O. c #70AED7",
"P. c #FFBD63",
"Q. c #FF9817",
"R. c #FF9919",
"S. c #FF9E16",
"T. c #A66F33",
"U. c #87A1B7",
"V. c #9EBCD6",
"W. c #497EAF",
"X. c #FF981A",
"Y. c #FF9E1A",
"Z. c #9C6E3D",
"`. c #829EB5",
" + c #96B7D3",
".+ c #FF9D1A",
"++ c #9A6E3E",
"@+ c #6FABD5",
"#+ c #6FACD5",
"$+ c #C67D36",
"%+ c #FFD277",
"&+ c #7F9BB5",
"*+ c #95B6D3",
"=+ c #6DA7D2",
"-+ c #6EA9D3",
";+ c #F5B842",
">+ c #FFD377",
",+ c #829DB5",
"'+ c #98B8D3",
")+ c #6CA6D0",
"!+ c #6CA7D1",
"~+ c #F5B843",
"{+ c #FFF2DF",
"]+ c #9CBAD5",
"^+ c #6BA5CF",
"/+ c #69A2CE",
"(+ c #69A3CE",
"_+ c #669ECA",
":+ c #67A0CB",
"<+ c #99B9D3",
"[+ c #669FCA",
"}+ c #679FCB",
"|+ c #839EB5",
"1+ c #9BBAD4",
"2+ c #659EC9",
"3+ c #649DC8",
"4+ c #639BC6",
"5+ c #7C9AB5",
"6+ c #94B5D3",
"7+ c #5F97C3",
"8+ c #6099C5",
"9+ c #94B6D3",
"0+ c #6096C2",
"a+ c #859FB6",
"b+ c #9ABAD3",
"c+ c #6095C3",
"d+ c #5F94C2",
"e+ c #CA7E35",
"f+ c #FFCE48",
"g+ c #9DA29E",
"h+ c #DEB45F",
"i+ c #FFDF99",
"j+ c #FFF0DA",
"k+ c #FFBC61",
"l+ c #E5F1FC",
"m+ c #A87F42",
"n+ c #FCE09F",
"o+ c #FFFDF3",
"p+ c #FACF8A",
"q+ c #FF9511",
"r+ c #FF9718",
"s+ c #9FB1BA",
"t+ c #E2BA6B",
"u+ c #FED88C",
"v+ c #F9DAA1",
"w+ c #F4C87F",
"x+ c #FBB55A",
"y+ c #FF9C16",
"z+ c #9B6E3E",
"A+ c #C7A875",
"B+ c #FFE18F",
"C+ c #FCD384",
"D+ c #F9CC81",
"E+ c #F3C27D",
"F+ c #CF974E",
"G+ c #9E6E3B",
"H+ c #5C92BF",
"I+ c #A6C4DE",
"J+ c #917F5E",
"K+ c #7A715E",
"L+ c #FFD789",
"M+ c #D7A760",
"N+ c #966528",
"O+ c #7D7C76",
"P+ c #819EB7",
"Q+ c #5088BA",
"R+ c #5A8EBB",
"S+ c #5B8FBD",
"T+ c #A3A498",
"U+ c #424B5C",
"V+ c #857152",
"W+ c #AB8C5C",
"X+ c #808C90",
"Y+ c #839FB6",
"Z+ c #90AEC7",
"`+ c #A7C4DE",
" @ c #568AB9",
".@ c #598DBB",
"+@ c #598DBC",
"@@ c #877F6E",
"#@ c #988F78",
"$@ c #8097A9",
"%@ c #89A5BD",
"&@ c #96B5CE",
"*@ c #E8EFF6",
"=@ c #588BBA",
"-@ c #5A8DBB",
";@ c #588CBA",
">@ c #E5F2FE",
",@ c #C1CCD6",
"'@ c #BAC6D0",
")@ c #C9D5E0",
"!@ c #D5E2EE",
"~@ c #DDEBF7",
"{@ c #E2F0FC",
"]@ c #5586B2",
"^@ c #598CBA",
"/@ c #5589B8",
"(@ c #4A7FAF",
"_@ c #477BA9",
":@ c #4B7EAB",
"<@ c #4A80B1",
"[@ c #5487B5",
"}@ c #5386B4",
"                                                                                                                                ",
"                                                                                                                                ",
"                                                                                                                                ",
"                                                                                                                                ",
"            . + @ # $ % & * * * * * * * * * * * * * * * & * * * * * * * * * * * * * * * * * * * * * * * * * & =                 ",
"            - ; > , ' ) ! ! ! ! ! ! ! ! ! ! ! ! ! ! ! ! ! ! ! ! ! ! ! ! ! ! ! ! ! ! ! ! ! ! ! ! ! ! ! ! ! ! ! &                 ",
"            ~ { ] ^ ^ / ( _ _ _ _ _ _ _ _ _ _ _ _ _ _ _ _ _ _ _ _ _ _ _ _ _ _ _ _ _ _ _ _ _ _ _ _ _ _ _ _ _ ( *                 ",
"        : < [ } | ^ ^ 1 2 3 3 3 3 3 3 3 3 3 3 3 3 3 3 3 3 3 3 3 3 3 3 3 3 3 3 3 3 3 3 3 3 3 3 3 3 3 3 3 3 3 2 *                 ",
"            4 3 5 6 7 8 ! 3 3 3 3 3 3 3 3 3 3 3 3 3 3 3 3 3 3 3 3 3 3 3 3 3 3 3 3 3 3 3 3 3 3 3 3 3 3 3 3 3 ! *                 ",
"            9 0 a b c d ! 3 3 3 3 3 3 3 3 3 3 3 3 3 3 3 3 3 3 3 3 3 3 3 3 3 3 3 3 3 3 3 3 3 3 3 3 3 3 3 3 3 ! *                 ",
"            e f g ^ ^ d ( _ _ _ _ _ _ _ _ _ _ _ _ _ _ _ _ _ _ _ _ _ _ _ _ _ _ _ _ _ _ _ _ _ _ _ _ _ _ _ _ _ ( *                 ",
"        : < h i j 6 7 d 2 3 3 3 3 3 3 3 3 3 3 3 3 3 3 3 3 3 3 3 3 3 3 3 3 3 3 3 3 3 3 3 3 3 3 3 3 3 3 3 3 3 2 *                 ",
"            k 3 5 b c l ! 3 3 3 m m m m m m m m m m m 3 3 3 3 3 3 3 3 3 3 3 3 3 3 3 3 3 3 3 3 3 3 3 3 3 3 3 ! *                 ",
"            n 0 a ^ ^ o ! 3 3 3 m m m m m m m m m m p 3 3 3 3 3 3 3 3 3 3 3 3 3 3 3 3 3 3 3 3 3 3 3 3 3 3 3 ! q                 ",
"            e f g 6 7 o r _ _ _ _ _ _ _ _ _ _ s m t u _ _ _ _ _ _ _ _ _ _ _ _ _ _ _ _ _ _ _ _ _ _ _ _ _ _ _ r q                 ",
"        : < v i j b c o r 3 3 3 3 3 3 3 3 3 w m x y 3 3 3 3 3 3 3 3 3 3 3 3 3 3 3 3 3 3 3 3 3 3 3 3 3 3 3 3 r z                 ",
"            k 3 5 ^ ^ A B 3 3 3 3 3 3 3 3 C m m D 3 3 3 3 3 3 3 3 3 3 3 3 3 3 3 3 3 3 3 3 3 3 3 3 3 3 3 3 3 B z                 ",
"            - 0 a 6 7 A ! 3 3 3 3 3 3 3 E F m G 3 3 3 3 3 3 3 3 3 3 3 3 3 3 3 3 3 3 3 3 3 3 3 3 3 3 3 3 3 3 ( z                 ",
"            H f g b c I ! _ _ _ _ _ _ J K m L _ _ _ _ _ _ _ _ _ _ _ _ _ _ _ _ _ _ _ _ _ _ _ _ _ _ _ _ _ _ _ 2 z                 ",
"        : < v i j ^ ^ I ( 3 3 3 3 3 3 M m N O 3 3 3 3 3 3 3 3 3 3 3 3 3 3 3 3 3 3 3 3 3 3 3 3 3 3 3 3 3 3 3 ! z                 ",
"            P 3 5 6 7 Q 2 3 3 3 3 3 R m S T 3 3 3 3 3 3 3 3 3 3 3 3 3 3 3 3 3 3 3 3 3 3 3 3 3 3 3 3 3 3 3 3 ! z                 ",
"            U 0 a b c V ! 3 3 3 3 W X m Y 3 3 3 3 3 3 3 3 3 3 3 3 3 3 3 3 3 3 3 3 3 3 3 3 3 3 3 3 3 3 3 3 3 ( z                 ",
"            Z f g ^ ^ V ! _ _ _ `  .m .._ _ _ _ _ _ _ _ _ _ _ _ _ _ _ _ _ _ _ _ _ _ _ _ _ _ _ _ _ _ _ _ _ _ 2 z                 ",
"        : < v i j 6 7 V r 3 3 3 +.m m m m m m m m m m 3 3 3 3 3 3 3 3 3 3 3 3 3 3 3 3 3 3 3 3 3 3 3 3 3 3 3 ! z                 ",
"            P 3 5 b c V r 3 3 3 m m m m m m m m m m m 3 3 3 3 3 3 3 3 3 3 3 3 3 3 3 3 3 3 3 3 3 3 3 3 3 3 3 ! z                 ",
"            @.0 a ^ ^ #.B 3 3 3 3 3 3 3 3 3 3 3 3 3 3 3 3 3 3 3 3 3 3 3 3 3 3 3 3 3 3 3 3 3 3 3 3 3 3 3 3 3 r z                 ",
"            $.f g 6 7 #.2 _ _ _ _ _ _ _ _ _ _ _ _ _ _ _ _ _ _ _ _ _ _ _ _ _ _ _ _ _ _ _ _ _ _ _ _ _ _ _ _ _ r z                 ",
"        : %.[ i j b c &.! 3 3 3 3 3 3 3 3 3 3 3 3 3 3 3 3 3 3 3 3 3 3 3 3 3 3 3 3 3 3 3 3 3 3 3 3 3 3 3 3 3 B z                 ",
"            *.3 =.^ ^ % ! 3 3 3 3 3 3 3 3 3 3 3 3 3 3 3 3 3 3 3 3 3 3 3 3 3 3 3 3 3 3 3 3 3 3 3 3 3 3 3 -.;.>.,.                ",
"            - 0 a 6 7 ) ( 3 3 3 3 3 3 3 3 3 3 3 3 3 3 3 3 3 3 3 3 3 3 3 3 3 3 3 3 3 3 3 3 3 3 3 3 3 3 '.).!.~.{.                ",
"            ~ f g b c / 2 _ _ _ _ _ _ _ _ _ _ _ _ _ _ _ _ _ _ _ _ _ _ _ _ _ _ _ _ _ _ _ _ _ _ _ _ _ ].^./.(._.:.<.              ",
"        : < [ i j [.}.1 ! 3 3 3 3 3 3 3 3 3 3 3 3 3 3 3 3 3 3 3 3 3 3 3 3 3 3 3 3 3 3 3 3 3 3 3 3 |.1.2.3.4.5.6.7.              ",
"            4 3 =.8.9.8 ! 3 3 3 3 3 3 3 3 3 3 3 3 3 3 3 3 3 3 3 3 3 3 3 3 3 3 3 3 3 3 3 3 3 3 3 0.a.b.c.d.e.f.g.h.              ",
"            9 0 a i.j.d r 3 3 3 3 3 3 3 3 3 3 3 3 3 3 3 3 3 3 3 3 3 3 3 3 3 3 3 3 3 3 3 3 3 3 k.l.m.n.o.p.q.r.s.                ",
"            e f g t.u.d r _ _ _ _ _ _ _ _ _ _ _ _ _ _ _ _ _ _ _ _ _ _ _ _ _ _ _ _ _ _ _ _ _ k.v.w.x.y.z.A.B.C.D.                ",
"        : < h i j E.t.d B 3 3 3 3 3 3 3 3 3 3 3 3 3 3 3 3 3 3 3 3 3 3 3 3 3 3 3 3 3 3 3 3 k.v.w.F.G.H.I.J.K.L.M.                ",
"            k 3 5 N.O.l ( 3 3 3 3 3 3 3 3 3 3 3 3 3 3 3 3 3 3 3 3 3 3 3 3 3 3 3 3 3 3 3 k.v.w.F.P.Q.R.S.T.U.V.W.                ",
"            n 0 a E.t.o 2 3 3 3 3 3 3 3 3 3 3 3 3 3 3 3 3 3 3 3 3 3 3 3 3 3 3 3 3 3 3 k.v.w.F.P.Q.X.Y.Z.`. +( q                 ",
"            e f g N.O.o ! _ _ _ _ _ _ _ _ _ _ _ _ _ _ _ _ _ _ _ _ _ _ _ _ _ _ _ _ _ k.v.w.F.P.Q.X..+++U.V._ 2 q                 ",
"        : < v i j @+#+o ! 3 3 3 3 3 3 3 3 3 3 3 3 3 3 3 3 3 3 3 3 3 3 3 3 3 3 3 3 $+v.%+F.P.Q.X..+++&+*+3 3 ! z                 ",
"            k 3 5 =+-+A ( 3 3 3 3 3 3 3 3 3 3 3 3 3 3 3 3 3 3 3 3 3 3 3 3 3 3 3 $+;+>+F.P.Q.X..+++,+'+3 3 3 ! z                 ",
"            - 0 a )+!+A 2 3 3 3 3 3 3 3 3 3 3 3 3 3 3 3 3 3 3 3 3 3 3 3 3 3 3 $+~+>+{+P.Q.X..+++U.]+3 3 3 3 ( z                 ",
"            H f g )+^+I ! _ _ _ _ _ _ _ _ _ _ _ _ _ _ _ _ _ _ _ _ _ _ _ _ _ $+;+>+{+P.Q.X..+++U.V._ _ _ _ _ 2 z                 ",
"        : < v i j /+(+I ! 3 3 3 3 3 3 3 3 3 3 3 3 3 3 3 3 3 3 3 3 3 3 3 3 k.v.>+F.P.Q.X..+++&+*+3 3 3 3 3 3 ! z                 ",
"            P 3 5 _+:+Q r 3 3 3 3 3 3 3 3 3 3 3 3 3 3 3 3 3 3 3 3 3 3 3 k.v.w.F.P.Q.X..+++,+<+3 3 3 3 3 3 3 ! z                 ",
"            U 0 a [+}+V r 3 3 3 3 3 3 3 3 3 3 3 3 3 3 3 3 3 3 3 3 3 3 k.v.w.F.P.Q.X..+++|+1+3 3 3 3 3 3 3 3 r z                 ",
"            Z f g 2+3+V B _ _ _ _ _ _ _ _ _ _ _ _ _ _ _ _ _ _ _ _ _ k.v.w.F.P.Q.X..+++U.V._ _ _ _ _ _ _ _ _ r z                 ",
"        : < v i j 4+4+V ( 3 3 3 3 3 3 3 3 3 3 3 3 3 3 3 3 3 3 3 3 k.v.w.F.P.Q.X..+++5+6+3 3 3 3 3 3 3 3 3 3 B z                 ",
"            P 3 5 7+8+V 2 3 3 3 3 3 3 3 3 3 3 3 3 3 3 3 3 3 3 3 k.v.w.F.P.Q.X..+++,+9+3 3 3 3 3 3 3 3 3 3 3 2 z                 ",
"            @.0 a 0+7+#.! 3 3 3 3 3 3 3 3 3 3 3 3 3 3 3 3 3 3 k.v.w.F.P.Q.X..+++a+b+3 3 3 3 3 3 3 3 3 3 3 3 ! z                 ",
"            $.f g c+d+#.! _ _ _ _ _ _ _ _ _ _ _ _ _ _ _ _ _ e+f+w.F.P.Q.X..+++U.V._ _ _ _ _ _ _ _ _ _ _ _ _ ! z                 ",
"        : < v i j 4+4+V ( 3 3 3 3 3 3 3 3 3 3 3 3 3 3 3 3 g+h+i+j+k+Q.X..+++&+*+3 3 3 3 3 3 3 3 3 3 3 3 3 3 l+z                 ",
"            P 3 5 7+8+V 2 3 3 3 3 3 3 3 3 3 3 3 3 3 3 3 3 m+n+o+p+q+r+.+++`.<+3 3 3 3 3 3 3 3 3 3 3 3 3 3 3 2 z                 ",
"            @.0 a 0+7+#.! 3 3 3 3 3 3 3 3 3 3 3 3 3 3 3 s+t+u+v+w+x+y+z+U.V.3 3 3 3 3 3 3 3 3 3 3 3 3 3 3 3 ! z                 ",
"            $.f g c+d+#.! _ _ _ _ _ _ _ _ _ _ _ _ _ _ _ A+B+C+D+E+F+G+U.V._ _ _ _ _ _ _ _ _ _ _ _ _ _ _ _ _ ! z                 ",
"        : %.[ i j H+H+&.r 3 3 3 3 3 3 3 3 3 3 3 3 3 3 I+J+K+L+M+N+O+P+*+3 3 3 3 3 3 3 3 3 3 3 3 3 3 3 3 3 3 r z                 ",
"            Q+3 5 R+S+&.r 3 3 3 3 3 3 3 3 3 3 3 3 3 3 T+U+V+W+X+Y+Z+`+3 3 3 3 3 3 3 3 3 3 3 3 3 3 3 3 3 3 3 r z                 ",
"             @0 a .@+@z B 3 3 3 3 3 3 3 3 3 3 3 3 3 3 @@#@$@%@&@*@3 3 3 3 3 3 3 3 3 3 3 3 3 3 3 3 3 3 3 3 3 B z                 ",
"            =@f g -@;@@ B >@! ! ! ! ! ! ! ! ! ! ! ! ! ,@'@)@!@~@{@! ! ! ! >@! ! ! ! ! ! ! ! ! ! ! ! ! >@! >@B @                 ",
"            ]@i j ^@;@/@@ z z z z z z z z z z z z z (@_@:@<@z z z z z @ [@z z z z z z @ [@z z z z z z @ }@z @ }@                ",
"                                                                                                                                ",
"                                                                                                                                ",
"                                                                                                                                ",
"                                                                                                                                "};
