/* XPM */
static char * icon48_xpm[] = {
"48 48 359 2",
"   c None",
".  c #5286B4",
"+  c #6193BF",
"@  c #6091BE",
"#  c #6192BE",
"$  c #5287B7",
"%  c #5F90BD",
"&  c #5C8EBC",
"*  c #5C8FBC",
"=  c #5E90BD",
"-  c #5589B8",
";  c #95B6C8",
">  c #8BBAD5",
",  c #B7E4FA",
"'  c #4981B3",
")  c #F4FCFF",
"!  c #DCE0E4",
"~  c #DDE2E5",
"{  c #EFF4F8",
"]  c #5F91BF",
"^  c #282925",
"/  c #D3CECA",
"(  c #564943",
"_  c #5CA8D6",
":  c #7EC2E8",
"<  c #437DB0",
"[  c #EEF8FF",
"}  c #F9F8F8",
"|  c #F8F8F8",
"1  c #F7FBFE",
"2  c #5C8FBE",
"3  c #1A4C79",
"4  c #E6F3FE",
"5  c #DDECF7",
"6  c #76BBE4",
"7  c #457DB1",
"8  c #EFF9FF",
"9  c #FFFFFF",
"0  c #FAFFFF",
"a  c #306292",
"b  c #6297C0",
"c  c #4B88B7",
"d  c #7FC1E7",
"e  c #457EB1",
"f  c #ECF5FD",
"g  c #E2E1E0",
"h  c #E2E2E2",
"i  c #ECF0F3",
"j  c #5D90BE",
"k  c #282924",
"l  c #D2CBC8",
"m  c #574C46",
"n  c #69AADC",
"o  c #F7F7F7",
"p  c #FAFAFA",
"q  c #5C8FBD",
"r  c #DCECF7",
"s  c #75B8E1",
"t  c #467EB2",
"u  c #000000",
"v  c #DFDFDF",
"w  c #306392",
"x  c #80C4EA",
"y  c #467FB2",
"z  c #ECF5FE",
"A  c #E9E9E9",
"B  c #5B5B5B",
"C  c #626262",
"D  c #6D6C6C",
"E  c #2A292A",
"F  c #323234",
"G  c #D5D6D6",
"H  c #ECF0F4",
"I  c #5E90BE",
"J  c #D2CBC7",
"K  c #68A9DC",
"L  c #7DBDE3",
"M  c #457FB2",
"N  c #EFF8FF",
"O  c #F9F8F7",
"P  c #FBFBFB",
"Q  c #FEFDFD",
"R  c #B9C1C8",
"S  c #111315",
"T  c #080B0E",
"U  c #BAC9D6",
"V  c #FAF9F9",
"W  c #F7FBFF",
"X  c #1B4C79",
"Y  c #DCEDF7",
"Z  c #76BDE5",
"`  c #F0FBFF",
" . c #E2E8EE",
".. c #222E38",
"+. c #98ABBC",
"@. c #FBFFFF",
"#. c #316392",
"$. c #80C0E7",
"%. c #4780B2",
"&. c #EBF5FE",
"*. c #E1E1E1",
"=. c #F6F3F2",
"-. c #41505D",
";. c #787F86",
">. c #F0EEEC",
",. c #7EC1E7",
"'. c #4680B3",
"). c #646E76",
"!. c #57636F",
"~. c #F2F5F7",
"{. c #4880B3",
"]. c #9FABB5",
"^. c #010203",
"/. c #252C33",
"(. c #DBEAF6",
"_. c #5D90BD",
":. c #316492",
"<. c #6298C0",
"[. c #4781B3",
"}. c #D4D4D6",
"|. c #10171D",
"1. c #2B2928",
"2. c #C4D0DA",
"3. c #FAF8F6",
"4. c #F2F2F2",
"5. c #F3F3F3",
"6. c #E4E4E4",
"7. c #23292F",
"8. c #0B0B0B",
"9. c #1A1919",
"0. c #171717",
"a. c #090909",
"b. c #DDDDDD",
"c. c #F0F9FF",
"d. c #10100F",
"e. c #1F1F1F",
"f. c #111111",
"g. c #3E6991",
"h. c #6498BF",
"i. c #4781B4",
"j. c #ECF6FE",
"k. c #272924",
"l. c #D1CBC7",
"m. c #F8F7F8",
"n. c #FBFFFC",
"o. c #5D91BE",
"p. c #1F4D76",
"q. c #E6F3FD",
"r. c #75BDE5",
"s. c #4D86B8",
"t. c #FDF8FC",
"u. c #CD80BA",
"v. c #D483B8",
"w. c #6F83B2",
"x. c #306393",
"y. c #80C1E7",
"z. c #437DB1",
"A. c #E3E3E3",
"B. c #DCE0DF",
"C. c #AA86A1",
"D. c #EBC0EF",
"E. c #E4CBE9",
"F. c #C987BB",
"G. c #965375",
"H. c #D1CBC8",
"I. c #7BBCE3",
"J. c #F8F7F7",
"K. c #F0F5FB",
"L. c #ABB2B9",
"M. c #DADEDE",
"N. c #E4DEE4",
"O. c #D7A3D7",
"P. c #BC8AC5",
"Q. c #CA6B97",
"R. c #DCEBF6",
"S. c #73B6DE",
"T. c #447DB1",
"U. c #FAF6F4",
"V. c #C47A27",
"W. c #BBC6D1",
"X. c #FBFDFE",
"Y. c #B8BDBB",
"Z. c #96829A",
"`. c #BA7FBC",
" + c #BE628C",
".+ c #4A87B6",
"++ c #79B8DE",
"@+ c #447DB0",
"#+ c #E2E3E4",
"$+ c #E2D3CB",
"%+ c #DC9C39",
"&+ c #FFD965",
"*+ c #FFE2AC",
"=+ c #A1ADBB",
"-+ c #88898B",
";+ c #68756E",
">+ c #83688D",
",+ c #68A8DB",
"'+ c #75B3DA",
")+ c #F0FAFF",
"!+ c #F4F0ED",
"~+ c #D99836",
"{+ c #FFCD5F",
"]+ c #FEEED4",
"^+ c #FFAE41",
"/+ c #F79914",
"(+ c #687C95",
"_+ c #989897",
":+ c #4D7AA1",
"<+ c #DBEBF6",
"[+ c #6BACD7",
"}+ c #FBF6F4",
"|+ c #CD8125",
"1+ c #FFD868",
"2+ c #FEAE43",
"3+ c #FF9612",
"4+ c #F99A17",
"5+ c #9C774E",
"6+ c #9BBBD7",
"7+ c #5588B7",
"8+ c #76B4DC",
"9+ c #447EB1",
"0+ c #EBF5FD",
"a+ c #FEE5BD",
"b+ c #FFAE45",
"c+ c #FF9512",
"d+ c #EE9019",
"e+ c #92806B",
"f+ c #8BAFCF",
"g+ c #D7E2EB",
"h+ c #5F91BE",
"i+ c #67A8DB",
"j+ c #72AFD7",
"k+ c #D99936",
"l+ c #FFCD60",
"m+ c #FE9618",
"n+ c #FA9919",
"o+ c #8C7D6B",
"p+ c #84A8C8",
"q+ c #FAFBFC",
"r+ c #F8FCFF",
"s+ c #DBEAF5",
"t+ c #67A5D1",
"u+ c #457DB0",
"v+ c #FBF7F4",
"w+ c #CB7D23",
"x+ c #FFCD64",
"y+ c #FFEED4",
"z+ c #89745E",
"A+ c #8DB1D1",
"B+ c #FBFCFD",
"C+ c #4985B5",
"D+ c #70AAD3",
"E+ c #E2D4CB",
"F+ c #D79135",
"G+ c #FFCE65",
"H+ c #FFE6BE",
"I+ c #FEAE45",
"J+ c #90806C",
"K+ c #8FB1D0",
"L+ c #D0D5DA",
"M+ c #E3E3E2",
"N+ c #67A7DA",
"O+ c #6BA5CF",
"P+ c #FECB5F",
"Q+ c #DAE9F4",
"R+ c #5F9BC8",
"S+ c #8EB2D1",
"T+ c #4885B4",
"U+ c #69A1CC",
"V+ c #457EB0",
"W+ c #EDF6FE",
"X+ c #91806C",
"Y+ c #8DB0CF",
"Z+ c #66A6D9",
"`+ c #649CC6",
" @ c #8B7D6B",
".@ c #83A7C8",
"+@ c #D9E8F3",
"@@ c #5793C1",
"#@ c #8BB0D1",
"$@ c #FAFCFD",
"%@ c #4883B3",
"&@ c #6297C4",
"*@ c #447CB0",
"=@ c #E6D3C6",
"-@ c #DD9B36",
";@ c #8EB0CF",
">@ c #D3CCC7",
",@ c #649BC6",
"'@ c #EDEEEF",
")@ c #B5A075",
"!@ c #FBD57E",
"~@ c #FFEACD",
"{@ c #FEAE44",
"]@ c #F8FBFE",
"^@ c #E9E6DF",
"/@ c #D2A960",
"(@ c #FFFBEC",
"_@ c #F9C370",
":@ c #FF940F",
"<@ c #8EB3D1",
"[@ c #6298C4",
"}@ c #E1E2E2",
"|@ c #EAE9E8",
"1@ c #B6AC8D",
"2@ c #FFD982",
"3@ c #FBD38D",
"4@ c #F7C67D",
"5@ c #E09332",
"6@ c #91806A",
"7@ c #8FB2D0",
"8@ c #D1D6DA",
"9@ c #65A5D8",
"0@ c #5D92BF",
"a@ c #FDFBF9",
"b@ c #B4CFE9",
"c@ c #988158",
"d@ c #C7AF7A",
"e@ c #E9B769",
"f@ c #9B6A2E",
"g@ c #80888A",
"h@ c #85A8C7",
"i@ c #1D4D79",
"j@ c #D8E7F2",
"k@ c #5288B8",
"l@ c #AFAD9E",
"m@ c #494F5B",
"n@ c #98815C",
"o@ c #808C90",
"p@ c #90AFC9",
"q@ c #A5C1DA",
"r@ c #FCFDFE",
"s@ c #FEFEFE",
"t@ c #446D94",
"u@ c #6398BF",
"v@ c #4782B2",
"w@ c #5A8DBB",
"x@ c #F9FFFF",
"y@ c #FAFEFF",
"z@ c #B2B2AD",
"A@ c #B4B4AC",
"B@ c #AFC4D7",
"C@ c #BFD5E8",
"D@ c #F9FEFF",
"E@ c #6092BF",
"F@ c #538ABC",
"G@ c #555152",
"H@ c #6DAADB",
"I@ c #588BBA",
"J@ c #5489B9",
"K@ c #6293BF",
"L@ c #5D8FBC",
"M@ c #5686B1",
"N@ c #5988B2",
"O@ c #5B8DBB",
"P@ c #6092BE",
"Q@ c #6493BE",
"R@ c #6393BD",
"                                                                                                ",
"                                                                                                ",
"                                                                                                ",
"        . + @ # $ % & * * * * * * * * * & % & * * * * * * * * * * * * * * * * * = -             ",
"          ; > , ' ) ! ~ ~ ~ ~ ~ ~ ~ ~ ~ ~ ~ ~ ~ ~ ~ ~ ~ ~ ~ ~ ~ ~ ~ ~ ~ ~ ~ ~ ~ { ]             ",
"      ^ / ( _ : < [ } | | | | | | | | | | | | | | | | | | | | | | | | | | | | | 1 2             ",
"        3 4 5 6 7 8 9 9 9 9 9 9 9 9 9 9 9 9 9 9 9 9 9 9 9 9 9 9 9 9 9 9 9 9 9 9 0 2             ",
"        a b c d e f g h h h h h h h h h h h h h h h h h h h h h h h h h h h h h i j             ",
"      k l m n d e [ } o 9 9 9 9 9 9 9 9 p | | | | | | | | | | | | | | | | | | | 1 q             ",
"        3 4 r s t 8 9 9 u u u u u u u u v 9 9 9 9 9 9 9 9 9 9 9 9 9 9 9 9 9 9 9 0 q             ",
"        w b c x y z g A B C C C D E u F G h h h h h h h h h h h h h h h h h h h H I             ",
"      k J m K L M N O | P P P Q R S T U V | | | | | | | | | | | | | | | | | | | W j             ",
"        X 4 Y Z y ` 9 9 9 9 9  ...u +.9 9 9 9 9 9 9 9 9 9 9 9 9 9 9 9 9 9 9 9 9 @.j             ",
"        #.b c $.%.&.g h h *.=.-.u ;.>.*.h h h h h h h h h h h h h h h h h h h h i I             ",
"      k J m n ,.'.N } | | 9 ).u !.~.| | | | | | | | | | | | | | | | | | | | | | W j             ",
"        X 4 r 6 {.8 9 9 9 ].^./.(.9 9 9 9 9 9 9 9 9 9 9 9 9 9 9 9 9 9 9 9 9 9 9 0 _.            ",
"        :.<.c d [.&.g h }.|.1.2.3.4.4.5.6.h h h h h h h h h h h h h h h h h h h i I             ",
"      k J m n d [.N O 9 7.u 8.9.0.0.0.a.b.| | | | | | | | | | | | | | | | | | | W j             ",
"        X 4 r s [.c.9 9 d.e.e.e.e.e.e.f.6.9 9 9 9 9 9 9 9 9 9 9 9 9 9 9 9 9 9 9 0 _.            ",
"        g.h.c x i.j.g *.5.4.4.4.4.4.4.5.6.h h h h h h h h h h h h h h h h h h h H I             ",
"      k.l.m K L i.[ O | | | | | | | | | | | | | | | | | | | | | | | | | | | m.n.0 o.            ",
"        p.q.r r.s.N 9 9 9 9 9 9 9 9 9 9 9 9 9 9 9 9 9 9 9 9 9 9 9 9 9 9 9 9 t.u.v.w.            ",
"        x.b c y.z.f g h h h h h h h h h h h h h h h h h h h h h h h h h A.B.C.D.E.F.G.          ",
"      k H.m K I.< [ O | | | | | | | | | | | | | | | | | | | | | | | | J.K.L.M.N.O.P.Q.          ",
"        3 4 R.S.T.8 9 9 9 9 9 9 9 9 9 9 9 9 9 9 9 9 9 9 9 9 9 9 9 9 9 U.V.W.X.Y.Z.`. +          ",
"        a b .+++@+z g h h h h h h h h h h h h h h h h h h h h h h #+$+%+&+*+=+-+;+>+            ",
"      k l m ,+'+< )+O | | | | | | | | | | | | | | | | | | | | | J.!+~+{+]+^+/+(+_+:+            ",
"        3 4 <+[+T.c.9 9 9 9 9 9 9 9 9 9 9 9 9 9 9 9 9 9 9 9 9 9 }+|+1+]+2+3+4+5+6+7+            ",
"        w b .+8+9+0+g h h h h h h h h h h h h h h h h h h h #+$+%+1+a+b+c+d+e+f+g+h+            ",
"      k J m i+j+@+[ O | | | | | | | | | | | | | | | | | | J.!+k+l+]+b+m+n+o+p+q+r+j             ",
"        X 4 s+t+u+c.9 9 9 9 9 9 9 9 9 9 9 9 9 9 9 9 9 9 9 v+w+x+y+2+c+n+z+A+B+9 0 _.            ",
"        #.b C+D+u+0+g h h h h h h h h h h h h h h h h #+E+F+G+H+I+c+d+J+K+L+M+h i I             ",
"      k J m N+O+T.[ O | | | | | | | | | | | | | | | J.!+~+P+y+I+m+n+o+p+q+} | | W j             ",
"        X 4 Q+R+u+c.9 9 9 9 9 9 9 9 9 9 9 9 9 9 9 9 }+|+1+]+2+c+n+z+S+B+9 9 9 9 0 _.            ",
"        :.<.T+U+V+W+g h h h h h h h h h h h h h #+$+%+1+a+b+c+d+X+Y+L+M+h h h h H I             ",
"      k J m Z+`+u+N } | | | | | | | | | | | | J.!+~+{+]+b+m+n+ @.@q+} | | | | | r+I             ",
"        X 4 +@@@@+8 9 9 9 9 9 9 9 9 9 9 9 9 9 }+|+1+]+2+c+n+z+#@$@9 9 9 9 9 9 9 0 j             ",
"        g.h.%@&@*@&.g h h h h h h h h h h A.=@-@1+a+b+c+d+J+;@L+M+h h h h h h h H I             ",
"      k >@m Z+,@@+N } | | | | | | | | | | '@)@!@~@{@m+n+o+p+q+} | | | | | | | | ]@=             ",
"        X 4 +@@@@+8 9 9 9 9 9 9 9 9 9 9 9 ^@/@(@_@:@n+z+<@B+9 9 9 9 9 9 9 9 9 9 0 _.            ",
"        g.h.%@[@*@&.g h h h h h h h h }@|@1@2@3@4@5@6@7@8@M+h h h h h h h h h h H I             ",
"      k.l.m 9@0@@+N O | | | | | | | | a@b@c@d@e@f@g@h@q+} | | | | | | | | | | | W j             ",
"        i@4 j@k@@+c.9 9 9 9 9 9 9 9 9 9 l@m@n@o@p@q@r@s@9 9 9 9 9 9 9 9 9 9 9 9 @.j             ",
"        t@u@v@w@u+x@@.y@y@y@y@y@y@y@y@9 z@A@B@C@D@9 0 y@@.y@y@y@y@D@y@y@y@y@@.y@9 E@            ",
"        F@G@H@I@J@K@j _._._._._._._.j L@M@N@O@= _._.P@Q@j _._._.P@Q@_._._._.P@R@E@-             ",
"                                                                                                ",
"                                                                                                ",
"                                                                                                "};
