/* XPM */
static char * icon24_xpm[] = {
"24 24 206 2",
"   c None",
".  c #6895BE",
"+  c #5F91BD",
"@  c #6493BD",
"#  c #6293BC",
"$  c #6492BD",
"%  c #6393BD",
"&  c #6494BD",
"*  c #5A8DBA",
"=  c #68605B",
"-  c #5EAEDF",
";  c #9ABAD5",
">  c #E6EAEF",
",  c #E3E8ED",
"'  c #ECEEF1",
")  c #84AACE",
"!  c #A9C4DB",
"~  c #A0C6E1",
"{  c #97BAD7",
"]  c #FAF9F8",
"^  c #FCFCFC",
"/  c #FBFCFC",
"(  c #FBFBFB",
"_  c #F9F9F9",
":  c #F8F8F8",
"<  c #FFFFFC",
"[  c #88AED0",
"}  c #868F98",
"|  c #80B8E0",
"1  c #9BBCD8",
"2  c #FFFFFF",
"3  c #6A6A6A",
"4  c #717171",
"5  c #7B7A7A",
"6  c #878787",
"7  c #E7E7E7",
"8  c #F6F6F6",
"9  c #F5F5F5",
"0  c #FFFCF9",
"a  c #88ADCF",
"b  c #67615E",
"c  c #5FA9E0",
"d  c #9EBED9",
"e  c #FCFBFA",
"f  c #B8B8B8",
"g  c #C9C9C9",
"h  c #46474A",
"i  c #1E2124",
"j  c #F3F4F5",
"k  c #F2F2F2",
"l  c #FCF9F6",
"m  c #AAC4DA",
"n  c #A0C8E1",
"o  c #98BBD7",
"p  c #FAFAF8",
"q  c #C2C8CD",
"r  c #14171A",
"s  c #ECF7FF",
"t  c #FBFAF9",
"u  c #89AED0",
"v  c #80B8E1",
"w  c #9BBED9",
"x  c #F7F6F5",
"y  c #E6E7E9",
"z  c #30373D",
"A  c #DADEE1",
"B  c #88AECF",
"C  c #61AAE0",
"D  c #9EBFD9",
"E  c #2D3236",
"F  c #222224",
"G  c #595959",
"H  c #5F5F5F",
"I  c #E0E0E0",
"J  c #F3F3F3",
"K  c #ABC4DA",
"L  c #9FC6E0",
"M  c #98BCD8",
"N  c #434342",
"O  c #636363",
"P  c #5F5F60",
"Q  c #666666",
"R  c #E6E6E6",
"S  c #FFFFFD",
"T  c #89B0D0",
"U  c #879098",
"V  c #9DBFDA",
"W  c #F6F6F4",
"X  c #F7F7F7",
"Y  c #F2D6E7",
"Z  c #8E99C3",
"`  c #9DBED8",
" . c #F5F5F3",
".. c #F3F2F2",
"+. c #E1EDFB",
"@. c #D8C7D6",
"#. c #C799D0",
"$. c #C05C84",
"%. c #AAC4DB",
"&. c #9EC4DE",
"*. c #96BAD6",
"=. c #F8F9FB",
"-. c #F8ECD8",
";. c #CF984A",
">. c #BFC8C9",
",. c #997BA5",
"'. c #879099",
"). c #7CB4DD",
"!. c #99BBD6",
"~. c #F8F8F6",
"{. c #F5F6F8",
"]. c #E9D1B1",
"^. c #F2CB7B",
"/. c #FFC267",
"(. c #B88643",
"_. c #6087A9",
":. c #67615F",
"<. c #5CA5DC",
"[. c #9CBCD7",
"}. c #F2F2F3",
"|. c #EEE3D0",
"1. c #F4CC7D",
"2. c #FFB050",
"3. c #E7901C",
"4. c #B2BCC3",
"5. c #86ACCF",
"6. c #ABC5DC",
"7. c #9BBFDB",
"8. c #96B8D4",
"9. c #F6EAD9",
"0. c #E09A37",
"a. c #FFC169",
"b. c #E8911D",
"c. c #899DB5",
"d. c #89AECF",
"e. c #79AFD9",
"f. c #98B9D5",
"g. c #E9D2B1",
"h. c #F2C97B",
"i. c #FFC16A",
"j. c #D58522",
"k. c #A4B3BF",
"l. c #FEFFFF",
"m. c #67625F",
"n. c #589FD7",
"o. c #9CBAD5",
"p. c #F5F5F4",
"q. c #F2F3F3",
"r. c #EEE2CF",
"s. c #F4CC7C",
"t. c #A5B4C1",
"u. c #F0F2F3",
"v. c #ACC5DC",
"w. c #95B9D5",
"x. c #94B6D3",
"y. c #F7F8F9",
"z. c #F7EBDB",
"A. c #E19F37",
"B. c #FBFCFE",
"C. c #89AFD0",
"D. c #88919A",
"E. c #77ABD5",
"F. c #97B8D4",
"G. c #F5F6F6",
"H. c #EBE8E3",
"I. c #EAD19A",
"J. c #FFCD7D",
"K. c #D5841F",
"L. c #68635F",
"M. c #569CD4",
"N. c #9AB9D4",
"O. c #F0F2F5",
"P. c #BCBCB0",
"Q. c #F6CA7C",
"R. c #A17338",
"S. c #AAB7C2",
"T. c #F0F1F3",
"U. c #F2F2F1",
"V. c #FBF8F6",
"W. c #ABC7DE",
"X. c #95B6D2",
"Y. c #8DB0CF",
"Z. c #F0F5F9",
"`. c #EEF4F8",
" + c #E9EEF0",
".+ c #888B89",
"++ c #798994",
"@+ c #B2D3F1",
"#+ c #F4F8FB",
"$+ c #EEF3F8",
"%+ c #F6F9FB",
"&+ c #86ADCF",
"*+ c #569BD4",
"=+ c #6191BC",
"-+ c #6A99C2",
";+ c #6998C1",
">+ c #6997C1",
",+ c #6591B8",
"'+ c #6B9DCA",
")+ c #76A1C6",
"!+ c #6D9AC2",
"~+ c #6A98C1",
"{+ c #6E9AC2",
"]+ c #6997C0",
"^+ c #6E9BC2",
"/+ c #5E90BD",
"                                                ",
"      . + @ # # # # $ % # # # # # # # & *       ",
"    = - ; > , , , , , , , , , , , , , ' )       ",
"    ! ~ { ] ^ / / ( _ : : : : : : : : < [       ",
"    } | 1 2 3 4 5 6 7 8 9 9 9 9 9 9 9 0 a       ",
"    b c d e f g h i j k k k k k k k k l a       ",
"    m n o p ( q r s t : : : : : : : : < u       ",
"    } v w x y z A 2 8 9 9 9 9 9 9 9 9 0 B       ",
"    b C D 2 E F G H I J k k k k k k k l a       ",
"    K L M 2 N O P Q R _ : : : : : : : S T       ",
"    U v V W 2 2 2 2 X 9 9 9 9 9 9 9 W Y Z       ",
"    b c `  .k k k k k k k k k k k ..+.@.#.$.    ",
"    %.&.*.t : : : : : : : : : : =.-.;.>.,.      ",
"    '.).!.~.9 9 9 9 9 9 9 9 9 {.].^./.(._.      ",
"    :.<.[. .k k k k k k k k }.|.1.2.3.4.5.      ",
"    6.7.8.t : : : : : : : =.9.0.a.b.c.2 d.      ",
"    '.e.f.~.9 9 9 9 9 9 {.g.h.i.j.k.l.0 B       ",
"    m.n.o.p.k k k k k q.r.s.2.3.t.u.k l d.      ",
"    v.w.x.t : : : : y.z.A.i.b.c.B.: : < C.      ",
"    D.E.F.~.9 9 9 G.H.I.J.K.k.l.9 9 9 0 d.      ",
"    L.M.N. .k k k O.P.Q.R.S.T.U.k k k V.a       ",
"    W.X.Y.Z.`.`.`. +.+++@+#+$+`.`.`.`.%+&+      ",
"      *+=+-+;+;+;+>+,+'+)+!+~+;+{+~+]+^+/+      ",
"                                                "};
