/* XPM */
static char * icon32_xpm[] = {
"32 32 222 2",
"   c None",
".  c #6798C1",
"+  c #6B9BC4",
"@  c #5489B9",
"#  c #7CA5C9",
"$  c #739DC3",
"%  c #739EC3",
"&  c #759EC4",
"*  c #759FC4",
"=  c #5D8FBC",
"-  c #4B4C49",
";  c #716761",
">  c #68B6E3",
",  c #4785B7",
"'  c #FFFFFF",
")  c #F5F4F4",
"!  c #F5F5F4",
"~  c #F4F4F4",
"{  c #F9F8F8",
"]  c #7BA5CC",
"^  c #B7D5EE",
"/  c #B7D5E9",
"(  c #4180B5",
"_  c #FCFFFF",
":  c #F9F9F8",
"<  c #F8F8F8",
"[  c #F9F9F9",
"}  c #FCFCFB",
"|  c #7AA5CB",
"1  c #4C4C48",
"2  c #656160",
"3  c #61AADF",
"4  c #4684B7",
"5  c #FAFEFF",
"6  c #F0EFEF",
"7  c #FAFAFA",
"8  c #F2F2F2",
"9  c #F6F5F5",
"0  c #79A4CA",
"a  c #B7D5ED",
"b  c #B5D4E8",
"c  c #4280B6",
"d  c #000000",
"e  c #A9A9A9",
"f  c #FBFBFB",
"g  c #7AA4CA",
"h  c #60A9DF",
"i  c #4584B7",
"j  c #FBFEFF",
"k  c #DBDBDB",
"l  c #DDDDDD",
"m  c #DDDDDE",
"n  c #393B3E",
"o  c #181C20",
"p  c #E3E6E8",
"q  c #7AA4CB",
"r  c #B6D6E9",
"s  c #4282B6",
"t  c #97A1AA",
"u  c #030507",
"v  c #CEDBE7",
"w  c #FBFAFA",
"x  c #7BA5CB",
"y  c #4685B8",
"z  c #F2F2F1",
"A  c #F7F7F7",
"B  c #A9B0B5",
"C  c #04080B",
"D  c #B9BFC4",
"E  c #F8F7F6",
"F  c #B5D5E9",
"G  c #4483B7",
"H  c #FBFFFF",
"I  c #E4E6E9",
"J  c #131517",
"K  c #717C85",
"L  c #7BA5CA",
"M  c #4786B8",
"N  c #2B3035",
"O  c #080707",
"P  c #444547",
"Q  c #434342",
"R  c #3C3C3C",
"S  c #B9B9B9",
"T  c #F3F3F3",
"U  c #B8D5ED",
"V  c #4283B7",
"W  c #FDFFFF",
"X  c #323231",
"Y  c #4B4B4B",
"Z  c #4A4A4A",
"`  c #444444",
" . c #C0C0C0",
".. c #4B4C48",
"+. c #666160",
"@. c #4785B8",
"#. c #F1F1F0",
"$. c #FCFCFC",
"%. c #F5F5F5",
"&. c #F2F0F1",
"*. c #FCFFFE",
"=. c #7AA8CC",
"-. c #B8D5EC",
";. c #4687BB",
">. c #F9FAF9",
",. c #F0EAEE",
"'. c #D17EBD",
"). c #9385B6",
"!. c #4382B5",
"~. c #F2F1F1",
"{. c #E2ECF7",
"]. c #C3C1C6",
"^. c #E9D4EA",
"/. c #C692CC",
"(. c #C4648E",
"_. c #B5D3E6",
":. c #3F7FB4",
"<. c #F9F9FA",
"[. c #F7EDE1",
"}. c #C88B37",
"|. c #E6EEF7",
"1. c #9FA1A1",
"2. c #A679AB",
"3. c #B1567B",
"4. c #5EA6DC",
"5. c #4280B3",
"6. c #ECE2D6",
"7. c #EFB23E",
"8. c #FFE9BC",
"9. c #F1A232",
"0. c #697F9A",
"a. c #627B98",
"b. c #B2D1E5",
"c. c #3E7DB3",
"d. c #DB9527",
"e. c #FFE9BF",
"f. c #FE9C1D",
"g. c #EE941C",
"h. c #988E80",
"i. c #6798C4",
"j. c #5DA5DB",
"k. c #427FB3",
"l. c #ECE3D6",
"m. c #EFB23F",
"n. c #FE9E2A",
"o. c #EF931B",
"p. c #798D9C",
"q. c #F0F7FC",
"r. c #B1CEE3",
"s. c #3E7BB0",
"t. c #F6ECE1",
"u. c #DA8E24",
"v. c #FFE7BE",
"w. c #F0941C",
"x. c #7B8591",
"y. c #EAF0F6",
"z. c #FBFBFA",
"A. c #5BA2D9",
"B. c #417DB1",
"C. c #EDAF3E",
"D. c #FFE8BF",
"E. c #FD9E2A",
"F. c #EEF3F9",
"G. c #AECBE0",
"H. c #3C79AE",
"I. c #EAF1F6",
"J. c #599FD6",
"K. c #407BAF",
"L. c #788C9C",
"M. c #EDF3F9",
"N. c #F6F6F5",
"O. c #B8D5EE",
"P. c #ACC8DD",
"Q. c #3977AD",
"R. c #FAF9F9",
"S. c #F8ECDF",
"T. c #E9F0F6",
"U. c #666260",
"V. c #599ED5",
"W. c #3F7AAE",
"X. c #DFDCD8",
"Y. c #E6BA61",
"Z. c #FFE4B5",
"`. c #7BA4CA",
" + c #F8F9F9",
".+ c #FDFDFD",
"++ c #DCCFB3",
"@+ c #F8EBCD",
"#+ c #FAB552",
"$+ c #F0931A",
"%+ c #7B8691",
"&+ c #579CD3",
"*+ c #3D78AD",
"=+ c #F4F3F2",
"-+ c #CCE1F8",
";+ c #AA905D",
">+ c #F4C473",
",+ c #A3753B",
"'+ c #788FA2",
")+ c #EEF4F9",
"!+ c #B9D6ED",
"~+ c #AAC4DA",
"{+ c #3774AA",
"]+ c #C8C3B3",
"^+ c #626468",
"/+ c #8A9497",
"(+ c #ADCBE5",
"_+ c #F9FCFE",
":+ c #7DA7CC",
"<+ c #535C67",
"[+ c #62A2D6",
"}+ c #4F85B7",
"|+ c #82AACD",
"1+ c #7CA6CB",
"2+ c #6B93B6",
"3+ c #6D94B7",
"4+ c #709EC7",
"5+ c #7EA8CC",
"6+ c #7DA7CB",
"7+ c #80A7CB",
"8+ c #81A8CB",
"9+ c #5F91BE",
"                                                                ",
"                                                                ",
"      . + @ # $ % % % % % $ & % % % % % % % % % % % * =         ",
"    - ; > , ' ) ) ) ) ) ) ! ~ ) ) ) ) ) ) ) ) ) ) ) { ]         ",
"      ^ / ( _ : < < < < < [ [ [ [ [ [ [ [ [ [ [ [ [ } |         ",
"    1 2 3 4 5 6 ' ' ' ' ' 7 8 8 8 8 8 8 8 8 8 8 8 8 9 0         ",
"      a b c _ ' d d d d d e f [ [ [ [ [ [ [ [ [ [ [ } g         ",
"    1 2 h i j ! k l m n o p 8 8 8 8 8 8 8 8 8 8 8 8 9 q         ",
"      a r s _ : < ' t u v w [ [ [ [ [ [ [ [ [ [ [ [ } x         ",
"    1 2 3 y 5 z A B C D E 8 8 8 8 8 8 8 8 8 8 8 8 8 9 q         ",
"      a F G H { I J K ' ' f [ [ [ [ [ [ [ [ [ [ [ [ } L         ",
"    1 2 3 M 5 ' N O P Q R S T 8 8 8 8 8 8 8 8 8 8 8 9 q         ",
"      U b V W ' X Y Z Z `  .7 [ [ [ [ [ [ [ [ [ [ [ } L         ",
"    ..+.h @.5 #.$.f f f f %.8 8 8 8 8 8 8 8 8 8 8 &.*.=.        ",
"      -.F ;._ : [ [ [ [ [ [ [ [ [ [ [ [ [ [ [ [ >.,.'.).        ",
"    ..2 h !.5 z 8 8 8 8 8 8 8 8 8 8 8 8 8 8 8 ~.{.].^./.(.      ",
"      ^ _.:._ : [ [ [ [ [ [ [ [ [ [ [ [ [ [ <.[.}.|.1.2.3.      ",
"    1 2 4.5._ z 8 8 8 8 8 8 8 8 8 8 8 8 8 z 6.7.8.9.0.a.        ",
"      ^ b.c._ : [ [ [ [ [ [ [ [ [ [ [ [ <.[.d.e.f.g.h.i.        ",
"    1 2 j.k.5 z 8 8 8 8 8 8 8 8 8 8 8 ~.l.m.e.n.o.p.q.x         ",
"      ^ r.s.W : [ [ [ [ [ [ [ [ [ [ <.t.u.v.f.w.x.y.z.L         ",
"    1 2 A.B.5 z 8 8 8 8 8 8 8 8 8 z 6.C.D.E.o.p.F.8 9 q         ",
"      ^ G.H.W : [ [ [ [ [ [ [ [ <.[.d.e.f.w.x.I.< [ } L         ",
"    1 2 J.K.j z 8 8 8 8 8 8 8 z 6.7.e.n.o.L.M.8 8 8 N.x         ",
"      O.P.Q._ : [ [ [ [ [ [ R.S.d.e.f.w.x.T.< [ [ [ } x         ",
"    1 U.V.W.j z 8 8 8 8 8 8 X.Y.Z.n.o.p.M.8 8 8 8 8 9 `.        ",
"      O.P.Q._ : [ [ [ [  +.+++@+#+$+%+I.< [ [ [ [ [ } L         ",
"    ..U.&+*+j z 8 8 8 8 =+-+;+>+,+'+)+8 8 8 8 8 8 8 9 q         ",
"      !+~+{+' ' ' ' ' ' ' ]+^+/+(+_+' ' ' ' ' ' ' ' ' :+        ",
"      <+[+}+|+L L L L L 1+2+3+4+5+6+7+L L 6+7+L L 6+8+9+        ",
"                                                                ",
"                                                                "};
