<!-- This Source Code Form is subject to the terms of the Mozilla Public
   - License, v. 2.0. If a copy of the MPL was not distributed with this
   - file, You can obtain one at http://mozilla.org/MPL/2.0/. -->

<svg xmlns="http://www.w3.org/2000/svg" width="16" height="16" viewBox="0 0 16 16" fill="context-fill">
  <path d="m 6.8594186,10.436707 c -0.006,-1.2630002 -0.004,-2.3150002 0.003,-3.1560002 0.01,-1.092 -0.314,-1.922 -0.905,-2.657 a 6.041,6.041 0 0 0 -0.404,-0.45 c -0.088,-0.09 -0.367,-0.362 -0.384,-0.38 a 1,1 0 1 1 1.414,-1.414 c 0.004,0.004 0.292,0.286 0.397,0.393 0.196,0.199 0.368,0.39 0.535,0.598 0.866,1.076 1.362,2.344 1.347,3.929 -0.008,0.839 -0.009,1.894 -0.003,3.1660002 L 10.236419,9.3187068 a 1,1 0 1 1 1.28,1.5360002 l -3.6400004,3.034 -3.64,-3.034 a 1,1 0 0 1 1.28,-1.5360002 l 1.343,1.1190002 z" />
</svg>
