<svg xmlns="http://www.w3.org/2000/svg"
	width="16"
	height="16"
    viewBox="0 0 512 512">

  <path d="M 64 32 L 98.935547 435.30078 L 255.76953 480 L 413.01367 435.29492 L 448 32 L 64 32 z M 98.896484 64 L 413.09961 64 L 383.04102 410.50977 L 255.7793 446.69727 L 128.91211 410.52734 L 98.896484 64 z "/>
  <path d="M 135.42188,114.1875 139.616,164 l 232.37423,0 4.20899,-49.68359 z"/>
  <rect style="fill:#000000" width="50" height="256" x="231" y="136.1553"/>
  <path style="fill:#ffffff;stroke:none;stroke-width:4;stroke-miterlimit:4;stroke-dasharray:none;stroke-opacity:1"
     d="M 189.52767,426.98676 129.78076,409.67394 115.13364,239.00646 C 107.07773,145.13935 100.52655,67.60678 100.57547,66.711864 c 0.0489,-0.894915 69.89233,-1.627118 155.20758,-1.627118 l 155.11864,0 -0.013,7.050847 c -0.007,3.877966 -6.35295,79.692907 -14.1017,168.477637 -7.74879,88.78473 -14.08867,163.08224 -14.08867,165.10559 0,2.9588 -12.09002,7.13793 -61.77287,21.35288 -33.97509,9.72073 -63.99543,17.57366 -66.71187,17.45097 -2.71645,-0.12279 -31.8251,-8.01386 -64.6859,-17.53591 z m 93.37402,-148.2071 0,-113.8983 45.55933,0 45.55932,0 0,-6.17519 c 0,-3.39635 0.63431,-15.11161 1.4096,-26.0339 l 1.40963,-19.85871 -120.73165,0 -120.73165,0 0,6.17519 c 0,3.39635 0.63433,15.1116 1.40961,26.03389 l 1.40961,19.85872 46.31921,0 46.3192,0 0,113.8983 0,113.89831 26.0339,0 26.03389,0 0,-113.89831 z"/>

</svg>