<?xml version="1.0" encoding="UTF-8" standalone="no"?>
<svg
   xmlns:osb="http://www.openswatchbook.org/uri/2009/osb"
   xmlns:dc="http://purl.org/dc/elements/1.1/"
   xmlns:cc="http://creativecommons.org/ns#"
   xmlns:rdf="http://www.w3.org/1999/02/22-rdf-syntax-ns#"
   xmlns:svg="http://www.w3.org/2000/svg"
   xmlns="http://www.w3.org/2000/svg"
   id="svg4"
   version="1.1"
   viewBox="0 0 16 16"
   height="16"
   width="16"
   fill="rgba(249, 249, 250, 0.7)"
   fill-opacity="1">
  <defs
     id="defs8">
    <linearGradient
       osb:paint="solid"
       id="linearGradient5444">
      <stop
         id="stop5442"
         offset="0"
         style="stop-color:#000000;stop-opacity:1;" />
    </linearGradient>
  </defs>
  <path
     id="path2"
     d="M 5.390625 0.36523438 C 2.6304208 0.36523438 0.390625 2.6050302 0.390625 5.3652344 C 0.390625 8.0470804 2.5064118 10.231303 5.1582031 10.353516 L 6.2910156 9.2910156 C 6.0003136 9.3572723 5.701644 9.4003906 5.390625 9.4003906 C 3.1610331 9.4003906 1.3496094 7.594069 1.3496094 5.359375 C 1.3496094 3.1246811 3.155931 1.3203125 5.390625 1.3203125 C 7.6202169 1.3203125 9.4296875 3.1246811 9.4296875 5.359375 C 9.4296875 5.7682735 9.3527358 6.1555822 9.2402344 6.5273438 L 10.386719 5.453125 C 10.387232 5.4236311 10.390625 5.3948502 10.390625 5.3652344 C 10.390625 2.6050302 8.1508292 0.36523438 5.390625 0.36523438 z M 10.386719 5.453125 C 10.339366 8.1724698 8.1212133 10.365234 5.390625 10.365234 C 5.3122669 10.365234 5.2356831 10.357086 5.1582031 10.353516 L 5.0214844 10.482422 A 1 1 0 0 0 5.5410156 12.197266 L 7.8203125 12.578125 C 8.1153125 14.667126 8.4100781 15.710938 8.7050781 15.710938 C 9.0090781 15.710938 10.003453 14.882656 11.689453 13.222656 L 14.541016 13.697266 A 1 1 0 0 0 15.699219 12.601562 L 14.699219 3.6015625 A 1 1 0 0 0 13.021484 2.9824219 L 10.386719 5.453125 z M 9.2402344 6.5273438 L 6.2910156 9.2910156 C 7.7068411 8.9683211 8.8234695 7.9045453 9.2402344 6.5273438 z M 13.705078 3.7109375 L 10.705078 11.710938 L 9.2050781 14.710938 L 8.7050781 11.710938 L 13.705078 3.7109375 z "
     />
  <g
     transform="matrix(0.05102041,0,0,0.05102041,-22.518349,-4.6498708)"
     id="XMLID_14_"
     >
    <circle
       id="XMLID_834_"
       cx="547.29999"
       cy="196.3"
       r="12.3"
       />
  </g>
  <g
     transform="matrix(0.05102041,0,0,0.05102041,-22.518349,-4.6498708)"
     id="XMLID_17_"
     >
    <path
       id="XMLID_715_"
       d="m 547.7,202.5 -38.5,-25.4 c -2.3,-1.5 -2.9,-4.6 -1.4,-6.9 1.5,-2.3 4.6,-2.9 6.9,-1.4 l 32.2,21.2 42.9,-37.5 c 2.1,-1.8 5.2,-1.6 7.1,0.5 1.8,2.1 1.6,5.2 -0.5,7.1 z"
       />
  </g>
  <g
     transform="matrix(0.05102041,0,0,0.05102041,-22.518349,-4.6498708)"
     id="XMLID_37_"
     >
    <g
       id="XMLID_19_"
       >
      <g
         id="XMLID_20_"
         >
        <rect
           id="XMLID_714_"
           x="597.5"
           y="194.8"
           width="35.799999"
           height="3"
           />
      </g>
      <g
         id="XMLID_21_"
         >
        <rect
           id="XMLID_713_"
           x="460.70001"
           y="194.8"
           width="35.799999"
           height="3"
           />
      </g>
    </g>
    <g
       id="XMLID_22_"
       >
      <g
         id="XMLID_23_"
         >
        <rect
           id="XMLID_712_"
           x="545.5"
           y="110"
           width="3"
           height="35.799999"
           />
      </g>
      <g
         id="XMLID_24_"
         >
        <rect
           id="XMLID_711_"
           x="545.5"
           y="246.8"
           width="3"
           height="35.799999"
           />
      </g>
    </g>
  </g>
</svg>
