<?xml version="1.0" encoding="UTF-8" standalone="no"?>
<!-- Created with Inkscape (http://www.inkscape.org/) -->

<svg
   xmlns:dc="http://purl.org/dc/elements/1.1/"
   xmlns:cc="http://creativecommons.org/ns#"
   xmlns:rdf="http://www.w3.org/1999/02/22-rdf-syntax-ns#"
   xmlns:svg="http://www.w3.org/2000/svg"
   xmlns="http://www.w3.org/2000/svg"
   xmlns:sodipodi="http://sodipodi.sourceforge.net/DTD/sodipodi-0.dtd"
   xmlns:inkscape="http://www.inkscape.org/namespaces/inkscape"
   width="14"
   height="14"
   id="svg2"
   version="1.1"
   inkscape:version="0.91 r13725"
   sodipodi:docname="star-col.svg">
  <metadata
     id="metadata10">
    <rdf:RDF>
      <cc:Work
         rdf:about="">
        <dc:format>image/svg+xml</dc:format>
        <dc:type
           rdf:resource="http://purl.org/dc/dcmitype/StillImage" />
        <dc:title></dc:title>
      </cc:Work>
    </rdf:RDF>
  </metadata>
  <defs
     id="defs8" />
  <sodipodi:namedview
     pagecolor="#ffffff"
     bordercolor="#666666"
     borderopacity="1"
     objecttolerance="10"
     gridtolerance="10"
     guidetolerance="10"
     inkscape:pageopacity="0"
     inkscape:pageshadow="2"
     inkscape:window-width="1680"
     inkscape:window-height="993"
     id="namedview6"
     showgrid="true"
     fit-margin-top="1.3"
     fit-margin-bottom="1.3"
     fit-margin-left="1"
     fit-margin-right="1"
     inkscape:zoom="57.275649"
     inkscape:cx="3.5964653"
     inkscape:cy="6.7567633"
     inkscape:window-x="0"
     inkscape:window-y="0"
     inkscape:window-maximized="1"
     inkscape:current-layer="svg2"
     height="13px"
     showborder="true"
     inkscape:showpageshadow="true"
     showguides="false">
    <inkscape:grid
       type="xygrid"
       id="grid4159"
       originx="2.0115059"
       originy="1.984007" />
  </sodipodi:namedview>
  <path
     d="M 12.980848,5.604786 C 12.68983,4.6583335 8.9214494,4.8562893 8.9214494,4.8562893 c 0,0 -0.9069252,-3.5609224 -1.9018671,-3.5562848 -0.9949416,0.00464 -1.9248815,3.5598363 -1.9248815,3.5598363 0,0 -3.7661371,-0.1902651 -4.0736226,0.7656883 -0.30748175,0.9559546 2.8508055,2.9598413 2.8508055,2.9598413 0,0 -1.398072,3.4552996 -0.591102,4.0263016 0.8069693,0.571003 3.7118363,-1.813289 3.7118363,-1.813289 0,0 2.9033209,2.384216 3.694561,1.802795 0.791241,-0.581421 -0.537215,-4.0360993 -0.537215,-4.0360993 0,0 3.121903,-2.0138475 2.830884,-2.9602927 z"
     style="fill:context-fill;fill-opacity:0.9"
     id="path4"
     inkscape:connector-curvature="0"
     sodipodi:nodetypes="zczczczczcz" />
</svg>
