<?xml version="1.0" encoding="UTF-8" standalone="no"?>
<!-- Created with Inkscape (http://www.inkscape.org/) -->

<svg
   xmlns:dc="http://purl.org/dc/elements/1.1/"
   xmlns:cc="http://creativecommons.org/ns#"
   xmlns:rdf="http://www.w3.org/1999/02/22-rdf-syntax-ns#"
   xmlns:svg="http://www.w3.org/2000/svg"
   xmlns="http://www.w3.org/2000/svg"
   xmlns:sodipodi="http://sodipodi.sourceforge.net/DTD/sodipodi-0.dtd"
   xmlns:inkscape="http://www.inkscape.org/namespaces/inkscape"
   width="48"
   height="48"
   id="svg2"
   version="1.1"
   inkscape:version="0.91 r13725"
   sodipodi:docname="profileswitcher.svg">
  <metadata
     id="metadata10">
    <rdf:RDF>
      <cc:Work
         rdf:about="">
        <dc:format>image/svg+xml</dc:format>
        <dc:type
           rdf:resource="http://purl.org/dc/dcmitype/StillImage" />
        <dc:title></dc:title>
      </cc:Work>
    </rdf:RDF>
  </metadata>
  <defs
     id="defs8" />
  <sodipodi:namedview
     pagecolor="#ffffff"
     bordercolor="#666666"
     borderopacity="1"
     objecttolerance="10"
     gridtolerance="10"
     guidetolerance="10"
     inkscape:pageopacity="0"
     inkscape:pageshadow="2"
     inkscape:window-width="1155"
     inkscape:window-height="847"
     id="namedview6"
     showgrid="true"
     fit-margin-top="0"
     fit-margin-bottom="0"
     fit-margin-left="0"
     fit-margin-right="0"
     inkscape:zoom="10"
     inkscape:cx="-3.538947"
     inkscape:cy="20.636957"
     inkscape:window-x="99"
     inkscape:window-y="70"
     inkscape:window-maximized="0"
     inkscape:current-layer="layer1"
     height="13px"
     showborder="true"
     inkscape:showpageshadow="true"
     showguides="false">
    <inkscape:grid
       type="xygrid"
       id="grid4159"
       originx="0.9658714"
       originy="2.0446184" />
  </sodipodi:namedview>
  <g
     inkscape:groupmode="layer"
     id="layer1"
     inkscape:label="Layer 1">
    <path
       d="m -6,34.785388 c 0,-3.765 0.935,-5.095 4.135,-6.645 4.56,-1.775 5.54,-1.775 3.97,-5.095 -1.49,-1.55 -1.05,-6.65 0.165,-8.2 0.595,-0.885 1.875,-1.545 3.22,-1.77 1.865,-0.22 2.5,0 3.78,1.33 1.285,1.105 1.54,1.995 1.54,4.43 0,1.55 -0.165,3.1 -0.445,3.1 -0.27,0.225 -0.66,1.11 -0.805,1.775 -1.045,2.435 0.88,3.32 4.155,4.43 2.755,0.885 3.675,1.995 4.08,5.76 L 18,49 -6,49 Z"
       style="fill:#3f3fbe;fill-opacity:1"
       id="path4-3"
       inkscape:connector-curvature="0"
       sodipodi:nodetypes="sczczcsccccccs" />
  </g>
  <g
     inkscape:groupmode="layer"
     id="layer2"
     inkscape:label="Layer 2">
    <path
       d="m 29,32.785388 c 0,-3.765 0.935,-5.095 4.135,-6.645 4.56,-1.775 5.54,-1.775 3.97,-5.095 -1.49,-1.55 -1.05,-6.65 0.165,-8.2 0.595,-0.885 1.875,-1.545 3.22,-1.77 1.865,-0.22 2.5,0 3.78,1.33 1.285,1.105 1.54,1.995 1.54,4.43 0,1.55 -0.165,3.1 -0.445,3.1 -0.27,0.225 -0.66,1.11 -0.805,1.775 -1.045,2.435 0.88,3.32 4.155,4.43 2.755,0.885 3.675,1.995 4.08,5.76 L 53,47 29,47 Z"
       style="fill:#d00000;fill-opacity:1"
       id="path4-6"
       inkscape:connector-curvature="0"
       sodipodi:nodetypes="sczczcsccccccs" />
  </g>
  <path
     d="M0 43.57c0-7.53 1.87-10.19 8.27-13.29 9.12-3.55 11.08-3.55 7.94-10.19-2.98-3.1-2.1-13.3.33-16.4C17.73 1.92 20.29.6 22.98.15c3.73-.44 5 0 7.56 2.66 2.57 2.21 3.08 3.99 3.08 8.86 0 3.1-.33 6.2-.89 6.2-.54.45-1.32 2.22-1.61 3.55-2.09 4.87 1.76 6.64 8.31 8.86 5.51 1.77 7.35 3.99 8.16 11.52L48 48H0z"
     style="fill:Highlight;fill-opacity:1"
     id="path4"
     inkscape:connector-curvature="0"
     sodipodi:nodetypes="cczczc" />
</svg>
