<?xml version="1.0" encoding="UTF-8" standalone="no"?>
<svg
   xmlns:dc="http://purl.org/dc/elements/1.1/"
   xmlns:cc="http://creativecommons.org/ns#"
   xmlns:rdf="http://www.w3.org/1999/02/22-rdf-syntax-ns#"
   xmlns:svg="http://www.w3.org/2000/svg"
   xmlns="http://www.w3.org/2000/svg"
   xmlns:sodipodi="http://sodipodi.sourceforge.net/DTD/sodipodi-0.dtd"
   xmlns:inkscape="http://www.inkscape.org/namespaces/inkscape"
   viewBox="0 0 256 256"
   height="256"
   width="256"
   version="1.1"
   id="svg2"
   inkscape:version="0.91 r13725"
   sodipodi:docname="prefsButton.svg">
  <sodipodi:namedview
     pagecolor="#ffffff"
     bordercolor="#666666"
     borderopacity="1"
     objecttolerance="10"
     gridtolerance="10"
     guidetolerance="10"
     inkscape:pageopacity="0"
     inkscape:pageshadow="2"
     inkscape:window-width="640"
     inkscape:window-height="480"
     id="namedview6"
     showgrid="false"
     inkscape:zoom="2.15625"
     inkscape:cx="153.90777"
     inkscape:cy="124.28986"
     inkscape:current-layer="svg2" />
  <metadata
     id="metadata8">
    <rdf:RDF>
      <cc:Work
         rdf:about="">
        <dc:format>image/svg+xml</dc:format>
        <dc:type
           rdf:resource="http://purl.org/dc/dcmitype/StillImage" />
        <dc:title />
      </cc:Work>
    </rdf:RDF>
  </metadata>
  <defs
     id="defs6" />
  <path
     id="path4148"
     d="m 120.80737,5.0002696 c -5.01352,-0.002 -10.39391,0.119283 -15.84211,0.230609 -3.04106,0.06219 -6.416708,3.464657 -6.408452,6.5159144 0.02178,8.09102 0.403898,25.622632 0.403898,25.622632 0,0 -9.037992,2.449296 -13.361877,4.217153 -3.867122,1.5811 -11.173831,5.682585 -11.173831,5.682585 0,0 -9.983793,-9.85577 -18.614483,-18.38733 -1.859576,-1.838208 -6.976927,-1.351257 -8.838319,0.485109 -15.233664,15.028965 -11.465726,10.83585 -17.8021,17.793811 -2.064439,2.266967 -1.699131,7.065042 0.503745,9.196878 6.257631,6.055836 17.990766,17.869141 17.990766,17.869141 0,0 -4.639984,7.652448 -6.356251,11.768518 -1.685672,4.04265 -3.820173,12.57518 -3.820173,12.57518 0,0 -16.760489,-0.33278 -25.146592,-0.19846 -3.1743081,0.0508 -7.181513,2.69685 -7.1933749,5.75794 -0.018845,4.8608 -0.085335,16.51129 -0.1474651,23.29172 -0.062095,6.78043 3.7637012,9.20253 7.273982,9.18494 10.274915,-0.0515 25.109037,0.11582 25.109037,0.11582 0,0 2.362364,8.59298 4.042735,12.70748 1.649655,4.03935 5.897396,11.684 5.897396,11.684 0,0 -11.609396,11.19534 -17.143574,17.44377 -2.209395,2.49451 -2.746015,7.514 -0.52389,9.99712 5.929475,6.62591 11.89354,12.37851 17.508104,17.30134 2.690302,2.35885 8.029644,1.12483 10.638023,-1.32487 4.573155,-4.29491 16.450245,-16.92372 16.450245,-16.92372 0,0 7.604591,4.05898 11.57316,5.72117 2.081382,0.87175 5.278546,1.98181 7.955376,2.87391 2.676866,0.89209 4.833141,1.5665 4.833141,1.5665 0,0 -0.0037,4.03423 -9.23e-4,9.10866 0.0028,5.07448 0.0092,11.18921 0.03118,15.34807 0.0083,1.66414 0.753603,3.59054 1.910557,5.10468 1.15693,1.51414 2.72638,2.61583 4.38528,2.62951 7.89798,0.0636 16.76213,0.0429 25.51662,-0.004 1.48155,-0.005 3.0306,-1.11962 4.20757,-2.60379 1.17698,-1.48418 1.98167,-3.33825 1.97465,-4.82447 -0.0192,-4.09209 0.006,-10.58982 0.0384,-16.06378 0.0316,-5.47392 0.0687,-9.92452 0.0687,-9.92452 0,0 2.12356,-0.47433 4.74339,-1.16501 2.61981,-0.69067 5.73542,-1.59769 7.71908,-2.46229 1.87694,-0.81808 4.51455,-2.39429 6.68232,-3.76604 2.16776,-1.37174 3.86596,-2.53857 3.86596,-2.53857 0,0 3.42799,3.47212 7.53591,7.58995 4.10793,4.11785 8.8962,8.88087 11.61528,11.46258 1.20061,1.13993 2.96931,1.7391 4.85146,1.65011 1.88216,-0.089 3.87711,-0.86626 5.53013,-2.47977 3.46823,-3.38529 6.40972,-6.23921 9.03981,-8.82017 2.63007,-2.58097 4.94894,-4.88832 7.17138,-7.17926 1.09196,-1.12562 1.71512,-2.91975 1.79149,-4.71239 0.0763,-1.7926 -0.39346,-3.5841 -1.48833,-4.70684 -3.07311,-3.15142 -7.92479,-8.01088 -12.00818,-12.08274 -4.08341,-4.07185 -7.39852,-7.35658 -7.39852,-7.35658 0,0 1.17349,-1.78649 2.54431,-4.06649 1.37082,-2.27999 2.93817,-5.0534 3.72765,-7.0258 0.79607,-1.98878 1.58234,-5.10475 2.16882,-7.72411 0.58659,-2.6192 0.97363,-4.74168 0.97363,-4.74168 0,0 18.40157,0.42533 26.79245,0.1277 3.11931,-0.11063 7.03067,-2.94936 7.13844,-6.07856 0.31714,-9.20875 0.33227,-16.59463 0.0923,-24.90323 -0.14505,-5.02601 -3.54772,-7.087 -8.78154,-7.04147 -6.79729,0.0591 -24.82236,0.30505 -24.82236,0.30505 0,0 -1.94172,-8.2631 -3.50967,-12.18839 -1.6083,-4.02632 -6.00181,-11.536075 -6.00181,-11.536075 0,0 12.21399,-12.234525 18.15745,-18.510451 4.05186,-4.278493 1.54246,-9.480837 0.16487,-10.733055 -5.72547,-5.204325 -11.60117,-11.734807 -16.46674,-16.364193 -2.37927,-2.263787 -7.40618,-2.511966 -9.83296,-0.29952 -4.96368,4.525265 -11.93455,12.162548 -18.37727,18.584859 0,0 -7.67084,-4.469023 -11.77467,-6.115332 -3.87382,-1.554039 -12.01824,-3.507857 -12.01824,-3.507857 0,0 0.30714,-17.78237 0.002,-26.735259 -0.10416,-3.0550174 -4.16003,-6.1033344 -7.20348,-6.2541244 -2.67991,-0.118458 -5.55542,-0.16347 -8.56352,-0.16446 z M 118.13113,79.29563 c 18.65925,-0.0588 34.60904,16.30615 37.01284,34.37757 2.72467,19.20522 -12.59696,37.82072 -31.10077,41.38597 -20.82467,4.26442 -42.627051,-13.22133 -44.413209,-34.17546 -1.537459,-20.97096 16.913887,-40.83919 37.609989,-41.57338 0.29748,-0.009 0.59498,-0.0138 0.89115,-0.0147 z"
     style="fill:#0066cc;fill-opacity:1;fill-rule:evenodd;stroke:#000000;stroke-width:0;stroke-linecap:butt;stroke-linejoin:miter;stroke-miterlimit:4;stroke-dasharray:none;stroke-opacity:1"
     inkscape:connector-curvature="0" />
  <path
     id="path4148-3"
     d="m 193.16946,56.684336 c -4.25379,-1.767564 -8.86212,-3.559783 -13.5245,-5.384355 -2.60246,-1.018396 -6.65929,0.676772 -7.72145,3.266097 -2.8166,6.866077 -8.63545,21.861428 -8.63545,21.861428 0,0 -8.52794,-1.107163 -12.81668,-1.131569 -3.83569,-0.02187 -11.47338,0.88128 -11.47338,0.88128 0,0 -5.01884,-11.870741 -9.35341,-22.142427 -0.93394,-2.213139 -5.44718,-3.602782 -7.67024,-2.701786 -18.19356,7.373855 -13.52679,5.146665 -21.34196,8.812851 -2.546243,1.19448 -3.917492,5.390263 -2.795117,7.973214 3.188297,7.337297 9.005697,21.483499 9.005697,21.483499 0,0 -6.61895,4.852375 -9.517656,7.736887 -2.847023,2.833055 -7.648189,9.313905 -7.648189,9.313905 0,0 -14.106452,-6.18538 -21.270016,-9.025256 -2.711532,-1.07499 -7.039257,-0.24343 -8.121937,2.347147 -1.719222,4.113639 -5.857996,13.965829 -8.286593,19.691419 -2.428569,5.7256 -0.03068,9.1262 2.954331,10.34767 8.737431,3.57525 21.267103,8.94197 21.267103,8.94197 0,0 -1.006276,8.11595 -1.022032,12.19548 -0.01549,4.00501 0.910475,11.98117 0.910475,11.98117 0,0 -13.77467,5.40077 -20.660467,8.74807 -2.74899,1.33631 -4.963205,5.4021 -3.947586,8.28959 2.710058,7.70495 5.755482,14.6818 8.795072,20.8322 1.456463,2.94706 6.419867,3.78164 9.491728,2.62385 5.385753,-2.02987 19.889883,-8.55146 19.889883,-8.55146 0,0 5.031031,6.11907 7.816354,8.92581 1.460805,1.47205 3.78497,3.53909 5.74395,5.23811 1.95902,1.69902 3.55253,3.03015 3.55253,3.03015 0,0 -1.41658,3.4184 -3.19243,7.72071 -1.77587,4.30233 -3.912884,9.48784 -5.35151,13.02086 -0.576405,1.4134 -0.61862,3.30896 -0.16738,4.99995 0.451225,1.69094 1.397023,3.17758 2.79999,3.77347 6.67997,2.83575 14.2094,5.94028 21.6548,8.98436 1.2588,0.51809 2.96411,0.11837 4.48294,-0.72515 1.51886,-0.84352 2.85139,-2.13171 3.3662,-3.39399 1.41756,-3.47546 3.71517,-8.97467 5.66137,-13.60303 1.94485,-4.62889 3.53583,-8.3884 3.53583,-8.3884 0,0 1.96828,0.34588 4.4335,0.68317 2.46517,0.3373 5.42694,0.66581 7.41325,0.63161 1.87943,-0.0323 4.67003,-0.43945 6.99026,-0.83871 2.32025,-0.39921 4.17021,-0.79017 4.17021,-0.79017 0,0 1.69239,4.15056 3.73548,9.08793 2.04313,4.93738 4.43752,10.6613 5.8403,13.8074 0.61942,1.38915 1.9104,2.52 3.53878,3.10749 1.62842,0.58746 3.59367,0.63128 5.56181,-0.15419 4.12937,-1.64801 7.62558,-3.03111 10.76185,-4.29252 3.13627,-1.26142 5.91257,-2.40052 8.60131,-3.55966 1.32106,-0.56954 2.47853,-1.87086 3.17149,-3.3635 0.69287,-1.49264 0.92199,-3.17667 0.38629,-4.51399 -1.50361,-3.75371 -3.918,-9.58171 -5.95641,-14.47147 -2.03842,-4.88976 -3.70068,-8.84173 -3.70068,-8.84173 0,0 1.62181,-1.101 3.58403,-2.55083 1.96219,-1.44981 4.26405,-3.24867 5.62516,-4.64251 1.37241,-1.40543 3.13149,-3.76975 4.54701,-5.78351 1.41555,-2.01357 2.48772,-3.67637 2.48772,-3.67637 0,0 15.46666,6.84184 22.69151,9.54496 2.68582,1.00488 6.99972,-0.0237 8.18765,-2.63827 3.4959,-7.69416 6.09675,-13.9495 8.8045,-21.07685 1.63803,-4.31141 -0.52732,-7.25689 -4.98473,-9.06172 -5.78896,-2.34395 -21.17131,-8.48424 -21.17131,-8.48424 0,0 1.24764,-7.68817 1.29251,-11.56773 0.046,-3.9794 -1.05092,-11.89254 -1.05092,-11.89254 0,0 14.65186,-6.06871 21.89461,-9.29516 4.93763,-2.19956 4.63106,-7.4932 3.90079,-9.03986 -3.03506,-6.42807 -5.73293,-14.03319 -8.23973,-19.67104 -1.22583,-2.756936 -5.40472,-4.73786 -8.23936,-3.717215 -5.79788,2.087587 -14.38951,6.106125 -22.10724,9.280805 0,0 -4.94357,-6.48999 -7.84922,-9.330915 -2.74281,-2.6817 -8.96962,-7.206467 -8.96962,-7.206467 0,0 6.49162,-14.96515 9.36958,-22.661673 0.98207,-2.626237 -1.39163,-6.638703 -3.92149,-7.838468 -2.23268,-1.044319 -4.65708,-2.095271 -7.20943,-3.155612 z m -28.30428,62.034284 c 15.85497,6.52221 23.65576,26.01183 19.36337,42.1768 -4.41735,17.23912 -23.9423,27.62213 -40.89401,24.12692 -19.16621,-3.72003 -31.54082,-26.22105 -25.7142,-44.61204 6.04357,-18.31768 28.66335,-28.66025 46.48346,-21.99311 0.25561,0.0971 0.50974,0.19786 0.76139,0.30141 z"
     style="fill:#268bd2;fill-opacity:1;fill-rule:evenodd;stroke:#000000;stroke-width:0;stroke-linecap:butt;stroke-linejoin:miter;stroke-miterlimit:4;stroke-dasharray:none;stroke-opacity:1"
     inkscape:connector-curvature="0" />
</svg>
