<svg width="100" height="100" xmlns="http://www.w3.org/2000/svg" xmlns:xlink="http://www.w3.org/1999/xlink" fill-opacity=".8" viewBox="-20 0 140 140">
  <defs>
    <path d="M95 36.25c0-4.28-3.541-7.75-7.91-7.75-.044-.525 0-1.065 0-1.615 0-5.528-4.573-10.01-10.215-10.01-2.91 0-5.536 1.192-7.397 3.106-1.31-4.048-5.175-6.981-9.74-6.981-5.641 0-10.215 4.482-10.215 10.01 0 1.856.42 3.354 1.318 4.844-1.433-.966-3.073-1.291-4.943-1.291-4.914 0-8.898 3.903-8.898 8.718 0 4.488 3.46 8.184 7.91 8.666L87.75 44c4.06-.355 7.25-3.687 7.25-7.75zM87.388 48H44.276c-.368 0-.722-.06-1.053-.173C37.377 46.832 33 41.68 33 35.56c0-6.87 5.494-12.44 12.27-12.44.113 0 .332-.222.332-.336C45.602 15.172 51.69 9 59.199 9c4.427 0 8.441 2.164 10.944 5.6a13.417 13.417 0 0 1 6.3-1.566c7.113 0 12.95 5.537 13.548 12.59C94.625 27.045 98 31.408 98 36.57c0 5.786-4.256 10.617-9.836 11.338-.25.061-.509.093-.776.093z" id="b"/>
    <filter x="-12.3%" y="-20.5%" width="124.6%" height="141%" filterUnits="objectBoundingBox" id="a">
      <feMorphology radius=".5" operator="dilate" in="SourceAlpha" result="shadowSpreadOuter1"/>
      <feOffset in="shadowSpreadOuter1" result="shadowOffsetOuter1"/>
      <feGaussianBlur stdDeviation="2.5" in="shadowOffsetOuter1" result="shadowBlurOuter1"/>
      <feComposite in="shadowBlurOuter1" in2="SourceAlpha" operator="out" result="shadowBlurOuter1"/>
      <feColorMatrix values="0 0 0 0 0 0 0 0 0 0 0 0 0 0 0 0 0 0 0.190981658 0" in="shadowBlurOuter1"/>
    </filter>
    <path d="M91.357 82.172c0-6.17-4.989-11.172-11.143-11.172-.063-.757 0-1.535 0-2.328 0-7.97-6.444-14.43-14.393-14.43-4.1 0-7.8 1.718-10.42 4.476-1.846-5.835-7.292-10.063-13.722-10.063-7.95 0-14.393 6.461-14.393 14.431 0 2.676.591 4.835 1.857 6.983-2.018-1.393-4.33-1.862-6.964-1.862-6.924 0-12.536 5.627-12.536 12.569 0 6.47 4.875 11.797 11.143 12.492l60.357.077c5.72-.512 10.214-5.316 10.214-11.173zM81.143 98H20.786c-.515 0-1.01-.084-1.473-.24C11.128 96.384 5 89.249 5 80.777c0-9.513 7.691-17.224 17.179-17.224.157 0 .464-.308.464-.466C22.643 52.546 31.165 44 41.679 44A19.02 19.02 0 0 1 57 51.755a18.95 18.95 0 0 1 8.82-2.169c9.958 0 18.13 7.666 18.966 17.433A15.83 15.83 0 0 1 96 82.172c0 8.012-5.958 14.701-13.77 15.7a4.643 4.643 0 0 1-1.087.128z" id="d"/>
    <filter x="-8.2%" y="-13.9%" width="116.5%" height="127.8%" filterUnits="objectBoundingBox" id="c">
      <feOffset in="SourceAlpha" result="shadowOffsetOuter1"/>
      <feGaussianBlur stdDeviation="2.5" in="shadowOffsetOuter1" result="shadowBlurOuter1"/>
      <feColorMatrix values="0 0 0 0 0 0 0 0 0 0 0 0 0 0 0 0 0 0 0.190981658 0" in="shadowBlurOuter1"/>
    </filter>
  </defs>
  <g fill="none">
    <use fill="#000" filter="url(#a)" xlink:href="#b"/>
    <use stroke="#FFF" fill="#FFF" fill-rule="evenodd" xlink:href="#b"/>
    <use fill="#000" filter="url(#c)" xlink:href="#d"/>
    <use fill="#FFF" fill-rule="evenodd" xlink:href="#d"/>
  </g>
</svg>
