<svg width="100" height="100" xmlns="http://www.w3.org/2000/svg" xmlns:xlink="http://www.w3.org/1999/xlink" fill-opacity=".8" viewBox="-20 0 140 140">
  <defs>
    <path d="M26 47c11.598 0 21-9.402 21-21S37.598 5 26 5 5 14.402 5 26s9.402 21 21 21zm0 5C11.64 52 0 40.36 0 26S11.64 0 26 0s26 11.64 26 26-11.64 26-26 26z" id="b"/>
    <filter x="-14.4%" y="-14.4%" width="128.8%" height="128.8%" filterUnits="objectBoundingBox" id="a">
      <feOffset in="SourceAlpha" result="shadowOffsetOuter1"/>
      <feGaussianBlur stdDeviation="2.5" in="shadowOffsetOuter1" result="shadowBlurOuter1"/>
      <feColorMatrix values="0 0 0 0 0 0 0 0 0 0 0 0 0 0 0 0 0 0 0.190981658 0" in="shadowBlurOuter1"/>
    </filter>
    <path d="M19.5 25a3.5 3.5 0 1 0 0-7 3.5 3.5 0 0 0 0 7zm0 4a7.5 7.5 0 1 1 0-15 7.5 7.5 0 0 1 0 15z" id="d"/>
    <filter x="-40%" y="-40%" width="180%" height="180%" filterUnits="objectBoundingBox" id="c">
      <feOffset in="SourceAlpha" result="shadowOffsetOuter1"/>
      <feGaussianBlur stdDeviation="2" in="shadowOffsetOuter1" result="shadowBlurOuter1"/>
      <feColorMatrix values="0 0 0 0 0 0 0 0 0 0 0 0 0 0 0 0 0 0 0.2 0" in="shadowBlurOuter1"/>
    </filter>
    <path d="M24.5 40a1.5 1.5 0 1 0 0-3 1.5 1.5 0 0 0 0 3zm0 3a4.5 4.5 0 1 1 0-9 4.5 4.5 0 0 1 0 9z" id="f"/>
    <filter x="-66.7%" y="-66.7%" width="233.3%" height="233.3%" filterUnits="objectBoundingBox" id="e">
      <feOffset in="SourceAlpha" result="shadowOffsetOuter1"/>
      <feGaussianBlur stdDeviation="2" in="shadowOffsetOuter1" result="shadowBlurOuter1"/>
      <feColorMatrix values="0 0 0 0 0 0 0 0 0 0 0 0 0 0 0 0 0 0 0.2 0" in="shadowBlurOuter1"/>
    </filter>
    <path d="M37.5 26a1.5 1.5 0 1 0 0-3 1.5 1.5 0 0 0 0 3zm0 3a4.5 4.5 0 1 1 0-9 4.5 4.5 0 0 1 0 9z" id="h"/>
    <filter x="-66.7%" y="-66.7%" width="233.3%" height="233.3%" filterUnits="objectBoundingBox" id="g">
      <feOffset in="SourceAlpha" result="shadowOffsetOuter1"/>
      <feGaussianBlur stdDeviation="2" in="shadowOffsetOuter1" result="shadowBlurOuter1"/>
      <feColorMatrix values="0 0 0 0 0 0 0 0 0 0 0 0 0 0 0 0 0 0 0.2 0" in="shadowBlurOuter1"/>
    </filter>
    <path d="M91.357 82.172c0-6.17-4.989-11.172-11.143-11.172-.063-.757 0-1.535 0-2.328 0-7.97-6.444-14.43-14.393-14.43-4.1 0-7.8 1.718-10.42 4.476-1.846-5.835-7.292-10.063-13.722-10.063-7.95 0-14.393 6.461-14.393 14.431 0 2.676.591 4.835 1.857 6.983-2.018-1.393-4.33-1.862-6.964-1.862-6.924 0-12.536 5.627-12.536 12.569 0 6.47 4.875 11.797 11.143 12.492l60.357.077c5.72-.512 10.214-5.316 10.214-11.173zM81.143 98H20.786c-.515 0-1.01-.084-1.473-.24C11.128 96.384 5 89.249 5 80.777c0-9.513 7.691-17.224 17.179-17.224.157 0 .464-.308.464-.466C22.643 52.546 31.165 44 41.679 44A19.02 19.02 0 0 1 57 51.755a18.95 18.95 0 0 1 8.82-2.169c9.958 0 18.13 7.666 18.966 17.433A15.83 15.83 0 0 1 96 82.172c0 8.012-5.958 14.701-13.77 15.7a4.643 4.643 0 0 1-1.087.128z" id="j"/>
    <filter x="-8.2%" y="-13.9%" width="116.5%" height="127.8%" filterUnits="objectBoundingBox" id="i">
      <feOffset in="SourceAlpha" result="shadowOffsetOuter1"/>
      <feGaussianBlur stdDeviation="2.5" in="shadowOffsetOuter1" result="shadowBlurOuter1"/>
      <feColorMatrix values="0 0 0 0 0 0 0 0 0 0 0 0 0 0 0 0 0 0 0.190981658 0" in="shadowBlurOuter1"/>
    </filter>
  </defs>
  <g fill="none">
    <g transform="translate(45 3)">
      <use fill="#000" filter="url(#a)" xlink:href="#b"/>
      <use fill="#FFF" fill-rule="evenodd" xlink:href="#b"/>
    </g>
    <g transform="translate(45 3)">
      <use fill="#000" filter="url(#c)" xlink:href="#d"/>
      <use fill="#FFF" fill-rule="evenodd" xlink:href="#d"/>
    </g>
    <g transform="translate(45 3)">
      <use fill="#000" filter="url(#e)" xlink:href="#f"/>
      <use fill="#FFF" fill-rule="evenodd" xlink:href="#f"/>
    </g>
    <g transform="translate(45 3)">
      <use fill="#000" filter="url(#g)" xlink:href="#h"/>
      <use fill="#FFF" fill-rule="evenodd" xlink:href="#h"/>
    </g>
    <use fill="#000" filter="url(#i)" xlink:href="#j"/>
    <use fill="#FFF" fill-rule="evenodd" xlink:href="#j"/>
  </g>
</svg>
