<svg width="100" height="100" xmlns="http://www.w3.org/2000/svg" xmlns:xlink="http://www.w3.org/1999/xlink" fill-opacity=".8" viewBox="-20 0 140 140">
  <defs>
    <path d="M92.357 40.172c0-6.17-4.989-11.172-11.143-11.172-.063-.757 0-1.535 0-2.328 0-7.97-6.444-14.43-14.393-14.43-4.1 0-7.8 1.718-10.42 4.476-1.846-5.835-7.292-10.063-13.722-10.063-7.95 0-14.393 6.461-14.393 14.431 0 2.676.591 4.835 1.857 6.983-2.018-1.393-4.33-1.862-6.964-1.862-6.924 0-12.536 5.627-12.536 12.569 0 6.47 4.875 11.797 11.143 12.492l60.357.077c5.72-.512 10.214-5.316 10.214-11.173zM82.143 56H21.786c-.515 0-1.01-.084-1.473-.24C12.128 54.384 6 47.249 6 38.777c0-9.513 7.691-17.224 17.179-17.224.157 0 .464-.308.464-.466C23.643 10.546 32.165 2 42.679 2A19.02 19.02 0 0 1 58 9.755a18.95 18.95 0 0 1 8.82-2.169c9.958 0 18.13 7.666 18.966 17.433A15.83 15.83 0 0 1 97 40.172c0 8.012-5.958 14.701-13.77 15.7a4.643 4.643 0 0 1-1.087.128z" id="b"/>
    <filter x="-8.2%" y="-13.9%" width="116.5%" height="127.8%" filterUnits="objectBoundingBox" id="a">
      <feOffset in="SourceAlpha" result="shadowOffsetOuter1"/>
      <feGaussianBlur stdDeviation="2.5" in="shadowOffsetOuter1" result="shadowBlurOuter1"/>
      <feColorMatrix values="0 0 0 0 0 0 0 0 0 0 0 0 0 0 0 0 0 0 0.190981658 0" in="shadowBlurOuter1"/>
    </filter>
    <path d="M34.57 67.37V62.5a1.5 1.5 0 0 1 3 0v4.783l4.17-2.407a1.5 1.5 0 1 1 1.5 2.598l-4.245 2.45 4.246 2.452a1.5 1.5 0 1 1-1.5 2.598l-4.17-2.408V77.5a1.5 1.5 0 0 1-3 0v-5.02l-4.32 2.494a1.5 1.5 0 1 1-1.5-2.598l4.244-2.451-4.245-2.451a1.5 1.5 0 1 1 1.5-2.598l4.32 2.494z" id="d"/>
    <filter x="-46.9%" y="-41.7%" width="193.8%" height="183.3%" filterUnits="objectBoundingBox" id="c">
      <feOffset in="SourceAlpha" result="shadowOffsetOuter1"/>
      <feGaussianBlur stdDeviation="2.5" in="shadowOffsetOuter1" result="shadowBlurOuter1"/>
      <feColorMatrix values="0 0 0 0 0 0 0 0 0 0 0 0 0 0 0 0 0 0 0.190981658 0" in="shadowBlurOuter1"/>
    </filter>
    <path d="M60.57 67.37V62.5a1.5 1.5 0 0 1 3 0v4.783l4.17-2.407a1.5 1.5 0 1 1 1.5 2.598l-4.245 2.45 4.246 2.452a1.5 1.5 0 1 1-1.5 2.598l-4.17-2.408V77.5a1.5 1.5 0 0 1-3 0v-5.02l-4.32 2.494a1.5 1.5 0 1 1-1.5-2.598l4.244-2.451-4.245-2.451a1.5 1.5 0 1 1 1.5-2.598l4.32 2.494z" id="f"/>
    <filter x="-46.9%" y="-41.7%" width="193.8%" height="183.3%" filterUnits="objectBoundingBox" id="e">
      <feOffset in="SourceAlpha" result="shadowOffsetOuter1"/>
      <feGaussianBlur stdDeviation="2.5" in="shadowOffsetOuter1" result="shadowBlurOuter1"/>
      <feColorMatrix values="0 0 0 0 0 0 0 0 0 0 0 0 0 0 0 0 0 0 0.190981658 0" in="shadowBlurOuter1"/>
    </filter>
    <path d="M49.84 89.662v-4.329a1.333 1.333 0 0 1 2.667 0v4.252l3.707-2.14a1.333 1.333 0 1 1 1.333 2.31l-3.773 2.178 3.773 2.179a1.333 1.333 0 0 1-1.333 2.309l-3.707-2.14v4.386a1.333 1.333 0 0 1-2.666 0v-4.463L46 96.42a1.333 1.333 0 0 1-1.334-2.31l3.773-2.178-3.773-2.179A1.333 1.333 0 1 1 46 87.445l3.84 2.217z" id="h"/>
    <filter x="-52.8%" y="-46.9%" width="205.5%" height="193.8%" filterUnits="objectBoundingBox" id="g">
      <feOffset in="SourceAlpha" result="shadowOffsetOuter1"/>
      <feGaussianBlur stdDeviation="2.5" in="shadowOffsetOuter1" result="shadowBlurOuter1"/>
      <feColorMatrix values="0 0 0 0 0 0 0 0 0 0 0 0 0 0 0 0 0 0 0.190981658 0" in="shadowBlurOuter1"/>
    </filter>
    <path d="M26.84 89.662v-4.329a1.333 1.333 0 0 1 2.667 0v4.252l3.707-2.14a1.333 1.333 0 1 1 1.333 2.31l-3.773 2.178 3.773 2.179a1.333 1.333 0 0 1-1.333 2.309l-3.707-2.14v4.386a1.333 1.333 0 0 1-2.666 0v-4.463L23 96.42a1.333 1.333 0 0 1-1.334-2.31l3.773-2.178-3.773-2.179A1.333 1.333 0 1 1 23 87.445l3.84 2.217z" id="j"/>
    <filter x="-52.8%" y="-46.9%" width="205.5%" height="193.8%" filterUnits="objectBoundingBox" id="i">
      <feOffset in="SourceAlpha" result="shadowOffsetOuter1"/>
      <feGaussianBlur stdDeviation="2.5" in="shadowOffsetOuter1" result="shadowBlurOuter1"/>
      <feColorMatrix values="0 0 0 0 0 0 0 0 0 0 0 0 0 0 0 0 0 0 0.190981658 0" in="shadowBlurOuter1"/>
    </filter>
  </defs>
  <g fill="none" fill-rule="evenodd">
    <g fill-rule="nonzero">
      <use fill="#000" filter="url(#a)" xlink:href="#b"/>
      <use fill="#FFF" fill-rule="evenodd" xlink:href="#b"/>
    </g>
    <use fill="#000" filter="url(#c)" xlink:href="#d"/>
    <use fill="#FFF" xlink:href="#d"/>
    <use fill="#000" filter="url(#e)" xlink:href="#f"/>
    <use fill="#FFF" xlink:href="#f"/>
    <use fill="#000" filter="url(#g)" xlink:href="#h"/>
    <use fill="#FFF" xlink:href="#h"/>
    <use fill="#000" filter="url(#i)" xlink:href="#j"/>
    <use fill="#FFF" xlink:href="#j"/>
  </g>
</svg>
