<svg width="100" height="100" xmlns="http://www.w3.org/2000/svg" xmlns:xlink="http://www.w3.org/1999/xlink" fill-opacity=".8" viewBox="-20 0 140 140">
  <defs>
    <path d="M27.5 35.2a7.7 7.7 0 1 0 0-15.4 7.7 7.7 0 0 0 0 15.4zm0 3.3c-6.075 0-11-4.925-11-11s4.925-11 11-11 11 4.925 11 11-4.925 11-11 11z" id="b"/>
    <filter x="-34.1%" y="-34.1%" width="168.2%" height="168.2%" filterUnits="objectBoundingBox" id="a">
      <feOffset in="SourceAlpha" result="shadowOffsetOuter1"/>
      <feGaussianBlur stdDeviation="2.5" in="shadowOffsetOuter1" result="shadowBlurOuter1"/>
      <feColorMatrix values="0 0 0 0 0 0 0 0 0 0 0 0 0 0 0 0 0 0 0.190981658 0" in="shadowBlurOuter1"/>
    </filter>
    <rect id="d" x="25.85" width="3.3" height="13.75" rx="1.65"/>
    <filter x="-227.3%" y="-54.5%" width="554.5%" height="209.1%" filterUnits="objectBoundingBox" id="c">
      <feOffset in="SourceAlpha" result="shadowOffsetOuter1"/>
      <feGaussianBlur stdDeviation="2.5" in="shadowOffsetOuter1" result="shadowBlurOuter1"/>
      <feColorMatrix values="0 0 0 0 0 0 0 0 0 0 0 0 0 0 0 0 0 0 0.190981658 0" in="shadowBlurOuter1"/>
    </filter>
    <rect id="f" x="41.25" y="25.85" width="13.75" height="3.3" rx="1.65"/>
    <filter x="-54.5%" y="-227.3%" width="209.1%" height="554.5%" filterUnits="objectBoundingBox" id="e">
      <feOffset in="SourceAlpha" result="shadowOffsetOuter1"/>
      <feGaussianBlur stdDeviation="2.5" in="shadowOffsetOuter1" result="shadowBlurOuter1"/>
      <feColorMatrix values="0 0 0 0 0 0 0 0 0 0 0 0 0 0 0 0 0 0 0.190981658 0" in="shadowBlurOuter1"/>
    </filter>
    <rect id="h" y="25.85" width="13.75" height="3.3" rx="1.65"/>
    <filter x="-54.5%" y="-227.3%" width="209.1%" height="554.5%" filterUnits="objectBoundingBox" id="g">
      <feOffset in="SourceAlpha" result="shadowOffsetOuter1"/>
      <feGaussianBlur stdDeviation="2.5" in="shadowOffsetOuter1" result="shadowBlurOuter1"/>
      <feColorMatrix values="0 0 0 0 0 0 0 0 0 0 0 0 0 0 0 0 0 0 0.190981658 0" in="shadowBlurOuter1"/>
    </filter>
    <rect id="j" x="25.85" y="41.25" width="3.3" height="13.75" rx="1.65"/>
    <filter x="-227.3%" y="-54.5%" width="554.5%" height="209.1%" filterUnits="objectBoundingBox" id="i">
      <feOffset in="SourceAlpha" result="shadowOffsetOuter1"/>
      <feGaussianBlur stdDeviation="2.5" in="shadowOffsetOuter1" result="shadowBlurOuter1"/>
      <feColorMatrix values="0 0 0 0 0 0 0 0 0 0 0 0 0 0 0 0 0 0 0.190981658 0" in="shadowBlurOuter1"/>
    </filter>
    <path d="M8.867 48.467a1.65 1.65 0 1 1-2.334-2.334l8.8-8.8a1.65 1.65 0 1 1 2.334 2.334l-8.8 8.8z" id="l"/>
    <filter x="-62%" y="-62%" width="224%" height="224%" filterUnits="objectBoundingBox" id="k">
      <feOffset in="SourceAlpha" result="shadowOffsetOuter1"/>
      <feGaussianBlur stdDeviation="2.5" in="shadowOffsetOuter1" result="shadowBlurOuter1"/>
      <feColorMatrix values="0 0 0 0 0 0 0 0 0 0 0 0 0 0 0 0 0 0 0.190981658 0" in="shadowBlurOuter1"/>
    </filter>
    <path d="M39.667 17.667a1.65 1.65 0 1 1-2.334-2.334l8.8-8.8a1.65 1.65 0 0 1 2.334 2.334l-8.8 8.8z" id="n"/>
    <filter x="-62%" y="-62%" width="224%" height="224%" filterUnits="objectBoundingBox" id="m">
      <feOffset in="SourceAlpha" result="shadowOffsetOuter1"/>
      <feGaussianBlur stdDeviation="2.5" in="shadowOffsetOuter1" result="shadowBlurOuter1"/>
      <feColorMatrix values="0 0 0 0 0 0 0 0 0 0 0 0 0 0 0 0 0 0 0.190981658 0" in="shadowBlurOuter1"/>
    </filter>
    <path d="M17.667 15.333a1.65 1.65 0 1 1-2.334 2.334l-8.8-8.8a1.65 1.65 0 0 1 2.334-2.334l8.8 8.8z" id="p"/>
    <filter x="-62%" y="-62%" width="224%" height="224%" filterUnits="objectBoundingBox" id="o">
      <feOffset in="SourceAlpha" result="shadowOffsetOuter1"/>
      <feGaussianBlur stdDeviation="2.5" in="shadowOffsetOuter1" result="shadowBlurOuter1"/>
      <feColorMatrix values="0 0 0 0 0 0 0 0 0 0 0 0 0 0 0 0 0 0 0.190981658 0" in="shadowBlurOuter1"/>
    </filter>
    <path d="M48.467 46.133a1.65 1.65 0 1 1-2.334 2.334l-8.8-8.8a1.65 1.65 0 1 1 2.334-2.334l8.8 8.8z" id="r"/>
    <filter x="-62%" y="-62%" width="224%" height="224%" filterUnits="objectBoundingBox" id="q">
      <feOffset in="SourceAlpha" result="shadowOffsetOuter1"/>
      <feGaussianBlur stdDeviation="2.5" in="shadowOffsetOuter1" result="shadowBlurOuter1"/>
      <feColorMatrix values="0 0 0 0 0 0 0 0 0 0 0 0 0 0 0 0 0 0 0.190981658 0" in="shadowBlurOuter1"/>
    </filter>
    <path d="M91.357 82.172c0-6.17-4.989-11.172-11.143-11.172-.063-.757 0-1.535 0-2.328 0-7.97-6.444-14.43-14.393-14.43-4.1 0-7.8 1.718-10.42 4.476-1.846-5.835-7.292-10.063-13.722-10.063-7.95 0-14.393 6.461-14.393 14.431 0 2.676.591 4.835 1.857 6.983-2.018-1.393-4.33-1.862-6.964-1.862-6.924 0-12.536 5.627-12.536 12.569 0 6.47 4.875 11.797 11.143 12.492l60.357.077c5.72-.512 10.214-5.316 10.214-11.173zM81.143 98H20.786c-.515 0-1.01-.084-1.473-.24C11.128 96.384 5 89.249 5 80.777c0-9.513 7.691-17.224 17.179-17.224.157 0 .464-.308.464-.466C22.643 52.546 31.165 44 41.679 44A19.02 19.02 0 0 1 57 51.755a18.95 18.95 0 0 1 8.82-2.169c9.958 0 18.13 7.666 18.966 17.433A15.83 15.83 0 0 1 96 82.172c0 8.012-5.958 14.701-13.77 15.7a4.643 4.643 0 0 1-1.087.128z" id="t"/>
    <filter x="-8.2%" y="-13.9%" width="116.5%" height="127.8%" filterUnits="objectBoundingBox" id="s">
      <feOffset in="SourceAlpha" result="shadowOffsetOuter1"/>
      <feGaussianBlur stdDeviation="2.5" in="shadowOffsetOuter1" result="shadowBlurOuter1"/>
      <feColorMatrix values="0 0 0 0 0 0 0 0 0 0 0 0 0 0 0 0 0 0 0.190981658 0" in="shadowBlurOuter1"/>
    </filter>
  </defs>
  <g fill="none" fill-rule="evenodd">
    <g fill-rule="nonzero" transform="translate(45)">
      <use fill="#000" filter="url(#a)" xlink:href="#b"/>
      <use fill="#FFF" fill-rule="evenodd" xlink:href="#b"/>
    </g>
    <g transform="translate(45)">
      <use fill="#000" filter="url(#c)" xlink:href="#d"/>
      <use fill="#FFF" xlink:href="#d"/>
    </g>
    <g transform="matrix(1 0 0 -1 45 55)">
      <use fill="#000" filter="url(#e)" xlink:href="#f"/>
      <use fill="#FFF" xlink:href="#f"/>
    </g>
    <g transform="matrix(1 0 0 -1 45 55)">
      <use fill="#000" filter="url(#g)" xlink:href="#h"/>
      <use fill="#FFF" xlink:href="#h"/>
    </g>
    <g transform="translate(45)">
      <use fill="#000" filter="url(#i)" xlink:href="#j"/>
      <use fill="#FFF" xlink:href="#j"/>
    </g>
    <g fill-rule="nonzero" transform="translate(45)">
      <use fill="#000" filter="url(#k)" xlink:href="#l"/>
      <use fill="#FFF" fill-rule="evenodd" xlink:href="#l"/>
    </g>
    <g fill-rule="nonzero" transform="translate(45)">
      <use fill="#000" filter="url(#m)" xlink:href="#n"/>
      <use fill="#FFF" fill-rule="evenodd" xlink:href="#n"/>
    </g>
    <g fill-rule="nonzero" transform="translate(45)">
      <use fill="#000" filter="url(#o)" xlink:href="#p"/>
      <use fill="#FFF" fill-rule="evenodd" xlink:href="#p"/>
    </g>
    <g fill-rule="nonzero" transform="translate(45)">
      <use fill="#000" filter="url(#q)" xlink:href="#r"/>
      <use fill="#FFF" fill-rule="evenodd" xlink:href="#r"/>
    </g>
    <g fill-rule="nonzero">
      <use fill="#000" filter="url(#s)" xlink:href="#t"/>
      <use fill="#FFF" fill-rule="evenodd" xlink:href="#t"/>
    </g>
  </g>
</svg>
