<svg width="100" height="100" xmlns="http://www.w3.org/2000/svg" xmlns:xlink="http://www.w3.org/1999/xlink" fill-opacity=".8" viewBox="-20 0 140 140">
  <defs>
    <path d="M50 64c7.732 0 14-6.268 14-14s-6.268-14-14-14-14 6.268-14 14 6.268 14 14 14zm0 6c-11.046 0-20-8.954-20-20s8.954-20 20-20 20 8.954 20 20-8.954 20-20 20z" id="b"/>
    <filter x="-18.8%" y="-18.8%" width="137.5%" height="137.5%" filterUnits="objectBoundingBox" id="a">
      <feOffset in="SourceAlpha" result="shadowOffsetOuter1"/>
      <feGaussianBlur stdDeviation="2.5" in="shadowOffsetOuter1" result="shadowBlurOuter1"/>
      <feColorMatrix values="0 0 0 0 0 0 0 0 0 0 0 0 0 0 0 0 0 0 0.190981658 0" in="shadowBlurOuter1"/>
    </filter>
    <rect id="d" x="47" width="6" height="25" rx="3"/>
    <filter x="-125%" y="-30%" width="350%" height="160%" filterUnits="objectBoundingBox" id="c">
      <feOffset in="SourceAlpha" result="shadowOffsetOuter1"/>
      <feGaussianBlur stdDeviation="2.5" in="shadowOffsetOuter1" result="shadowBlurOuter1"/>
      <feColorMatrix values="0 0 0 0 0 0 0 0 0 0 0 0 0 0 0 0 0 0 0.190981658 0" in="shadowBlurOuter1"/>
    </filter>
    <rect id="f" x="75" y="47" width="25" height="6" rx="3"/>
    <filter x="-30%" y="-125%" width="160%" height="350%" filterUnits="objectBoundingBox" id="e">
      <feOffset in="SourceAlpha" result="shadowOffsetOuter1"/>
      <feGaussianBlur stdDeviation="2.5" in="shadowOffsetOuter1" result="shadowBlurOuter1"/>
      <feColorMatrix values="0 0 0 0 0 0 0 0 0 0 0 0 0 0 0 0 0 0 0.190981658 0" in="shadowBlurOuter1"/>
    </filter>
    <rect id="h" y="47" width="25" height="6" rx="3"/>
    <filter x="-30%" y="-125%" width="160%" height="350%" filterUnits="objectBoundingBox" id="g">
      <feOffset in="SourceAlpha" result="shadowOffsetOuter1"/>
      <feGaussianBlur stdDeviation="2.5" in="shadowOffsetOuter1" result="shadowBlurOuter1"/>
      <feColorMatrix values="0 0 0 0 0 0 0 0 0 0 0 0 0 0 0 0 0 0 0.190981658 0" in="shadowBlurOuter1"/>
    </filter>
    <rect id="j" x="47" y="75" width="6" height="25" rx="3"/>
    <filter x="-125%" y="-30%" width="350%" height="160%" filterUnits="objectBoundingBox" id="i">
      <feOffset in="SourceAlpha" result="shadowOffsetOuter1"/>
      <feGaussianBlur stdDeviation="2.5" in="shadowOffsetOuter1" result="shadowBlurOuter1"/>
      <feColorMatrix values="0 0 0 0 0 0 0 0 0 0 0 0 0 0 0 0 0 0 0.190981658 0" in="shadowBlurOuter1"/>
    </filter>
    <path d="M16.121 88.121a3 3 0 1 1-4.242-4.242l16-16a3 3 0 1 1 4.242 4.242l-16 16z" id="l"/>
    <filter x="-34.1%" y="-34.1%" width="168.2%" height="168.2%" filterUnits="objectBoundingBox" id="k">
      <feOffset in="SourceAlpha" result="shadowOffsetOuter1"/>
      <feGaussianBlur stdDeviation="2.5" in="shadowOffsetOuter1" result="shadowBlurOuter1"/>
      <feColorMatrix values="0 0 0 0 0 0 0 0 0 0 0 0 0 0 0 0 0 0 0.190981658 0" in="shadowBlurOuter1"/>
    </filter>
    <path d="M72.121 32.121a3 3 0 1 1-4.242-4.242l16-16a3 3 0 1 1 4.242 4.242l-16 16z" id="n"/>
    <filter x="-34.1%" y="-34.1%" width="168.2%" height="168.2%" filterUnits="objectBoundingBox" id="m">
      <feOffset in="SourceAlpha" result="shadowOffsetOuter1"/>
      <feGaussianBlur stdDeviation="2.5" in="shadowOffsetOuter1" result="shadowBlurOuter1"/>
      <feColorMatrix values="0 0 0 0 0 0 0 0 0 0 0 0 0 0 0 0 0 0 0.190981658 0" in="shadowBlurOuter1"/>
    </filter>
    <path d="M32.121 27.879a3 3 0 1 1-4.242 4.242l-16-16a3 3 0 1 1 4.242-4.242l16 16z" id="p"/>
    <filter x="-34.1%" y="-34.1%" width="168.2%" height="168.2%" filterUnits="objectBoundingBox" id="o">
      <feOffset in="SourceAlpha" result="shadowOffsetOuter1"/>
      <feGaussianBlur stdDeviation="2.5" in="shadowOffsetOuter1" result="shadowBlurOuter1"/>
      <feColorMatrix values="0 0 0 0 0 0 0 0 0 0 0 0 0 0 0 0 0 0 0.190981658 0" in="shadowBlurOuter1"/>
    </filter>
    <path d="M88.121 83.879a3 3 0 1 1-4.242 4.242l-16-16a3 3 0 1 1 4.242-4.242l16 16z" id="r"/>
    <filter x="-34.1%" y="-34.1%" width="168.2%" height="168.2%" filterUnits="objectBoundingBox" id="q">
      <feOffset in="SourceAlpha" result="shadowOffsetOuter1"/>
      <feGaussianBlur stdDeviation="2.5" in="shadowOffsetOuter1" result="shadowBlurOuter1"/>
      <feColorMatrix values="0 0 0 0 0 0 0 0 0 0 0 0 0 0 0 0 0 0 0.190981658 0" in="shadowBlurOuter1"/>
    </filter>
  </defs>
  <g fill="none" fill-rule="evenodd">
    <g fill-rule="nonzero">
      <use fill="#000" filter="url(#a)" xlink:href="#b"/>
      <use fill="#FFF" fill-rule="evenodd" xlink:href="#b"/>
    </g>
    <use fill="#000" filter="url(#c)" xlink:href="#d"/>
    <use fill="#FFF" xlink:href="#d"/>
    <g transform="matrix(1 0 0 -1 0 100)">
      <use fill="#000" filter="url(#e)" xlink:href="#f"/>
      <use fill="#FFF" xlink:href="#f"/>
    </g>
    <g transform="matrix(1 0 0 -1 0 100)">
      <use fill="#000" filter="url(#g)" xlink:href="#h"/>
      <use fill="#FFF" xlink:href="#h"/>
    </g>
    <use fill="#000" filter="url(#i)" xlink:href="#j"/>
    <use fill="#FFF" xlink:href="#j"/>
    <g fill-rule="nonzero">
      <use fill="#000" filter="url(#k)" xlink:href="#l"/>
      <use fill="#FFF" fill-rule="evenodd" xlink:href="#l"/>
    </g>
    <g fill-rule="nonzero">
      <use fill="#000" filter="url(#m)" xlink:href="#n"/>
      <use fill="#FFF" fill-rule="evenodd" xlink:href="#n"/>
    </g>
    <g fill-rule="nonzero">
      <use fill="#000" filter="url(#o)" xlink:href="#p"/>
      <use fill="#FFF" fill-rule="evenodd" xlink:href="#p"/>
    </g>
    <g fill-rule="nonzero">
      <use fill="#000" filter="url(#q)" xlink:href="#r"/>
      <use fill="#FFF" fill-rule="evenodd" xlink:href="#r"/>
    </g>
  </g>
</svg>
