<?xml version="1.0" encoding="utf-8"?>
<!-- DeepDark custom icon -->
<!DOCTYPE svg PUBLIC "-//W3C//DTD SVG 1.1//EN" "http://www.w3.org/Graphics/SVG/1.1/DTD/svg11.dtd">
<svg version="1.1" id="junk" xmlns="http://www.w3.org/2000/svg" xmlns:xlink="http://www.w3.org/1999/xlink" x="0px" y="0px"
	 width="36px" height="36px" viewBox="0 0 36 36" enable-background="new 0 0 36 36" xml:space="preserve">
<g>
	<path d="M9,10v21.78C9,32.45,9.55,33,10.22,33h15.56c0.67,0,1.22-0.55,1.22-1.22V10H9z M14,28.98c0,0.01,0,0.02,0,0.02
		c0,0.55-0.45,1-1,1s-1-0.45-1-1c0,0,0-0.01,0-0.02v-15c0-0.55,0.45-1,1-1s1,0.45,1,1V28.98z M19,28.98c0,0.01,0,0.02,0,0.02
		c0,0.55-0.45,1-1,1s-1-0.45-1-1c0,0,0-0.01,0-0.02v-15c0-0.55,0.45-1,1-1s1,0.45,1,1V28.98z M24,28.98c0,0.01,0,0.02,0,0.02
		c0,0.55-0.45,1-1,1s-1-0.45-1-1c0,0,0-0.01,0-0.02v-15c0-0.55,0.45-1,1-1s1,0.45,1,1V28.98z"/>
	<path d="M26.994,5.027h-3.489V4.013C23.505,3.453,23.05,3,22.491,3h-8.986c-0.56,0-1.013,0.454-1.013,1.013v1.014h-3.7
		c-0.558,0-1.012,0.454-1.012,1.013V7c0,0.56,0.454,1.013,1.013,1.013h18.201c0.56,0,1.015-0.453,1.015-1.013V6.04
		C28.009,5.481,27.554,5.027,26.994,5.027z"/>
</g>
</svg>
