<?xml version="1.0" encoding="utf-8"?>
<!-- DeepDark custom icon -->
<!DOCTYPE svg PUBLIC "-//W3C//DTD SVG 1.1//EN" "http://www.w3.org/Graphics/SVG/1.1/DTD/svg11.dtd">
<svg version="1.1" id="RSS" xmlns="http://www.w3.org/2000/svg" xmlns:xlink="http://www.w3.org/1999/xlink" x="0px" y="0px"
	 width="36px" height="36px" viewBox="0 0 36 36" enable-background="new 0 0 36 36" xml:space="preserve">
<g>
	<path fill="context-fill" d="M11.534,21.211c-1.794,0-3.253,1.46-3.253,3.254c0,1.793,1.459,3.253,3.253,3.253c1.795,0,3.254-1.46,3.254-3.253
		C14.788,22.671,13.329,21.211,11.534,21.211z"/>
	<path fill="context-fill" d="M20.299,27.669c-1.055,0-1.91-0.854-1.91-1.91c0-4.491-3.657-8.146-8.151-8.146c-1.055,0-1.91-0.855-1.91-1.91
		c0-1.055,0.855-1.91,1.91-1.91c6.601,0,11.972,5.368,11.972,11.967C22.209,26.812,21.354,27.669,20.299,27.669z"/>
	<path fill="context-fill" d="M27.721,27.669c-1.056,0-1.91-0.854-1.91-1.91c0-8.583-6.986-15.566-15.575-15.566c-1.055,0-1.91-0.855-1.91-1.91
		c0-1.055,0.855-1.91,1.91-1.91c10.694,0,19.395,8.697,19.395,19.387C29.63,26.812,28.773,27.669,27.721,27.669z"/>
</g>
</svg>
