<?xml version="1.0" encoding="utf-8"?>
<!-- DeepDark custom icon -->
<!DOCTYPE svg PUBLIC "-//W3C//DTD SVG 1.1//EN" "http://www.w3.org/Graphics/SVG/1.1/DTD/svg11.dtd">
<svg version="1.1" id="manage_subscriptions" xmlns="http://www.w3.org/2000/svg" xmlns:xlink="http://www.w3.org/1999/xlink"
	 x="0px" y="0px" width="36px" height="36px" viewBox="0 0 36 36" enable-background="new 0 0 36 36" xml:space="preserve" fill="context-fill">
<g>
	<path d="M31.73,24h-5.732c-0.71,0-3.063,3-4.029,3H18h-3.968c-0.97,0-3.321-3-4.031-3H4.27C3.57,24,3,24.568,3,25.271v5.457
		C3,31.426,3.57,32,4.27,32H18h13.73C32.43,32,33,31.43,33,30.729v-5.457C33,24.568,32.43,24,31.73,24z"/>
</g>
<path d="M31,20c-0.021,0-0.038,0.011-0.059,0.012C30.928,20.011,30.915,20,30.9,20H5.1c-0.015,0-0.027,0.011-0.042,0.012
	C5.038,20.011,5.021,20,5,20c-0.552,0-1,0.447-1,1s0.448,1,1,1c0.021,0,0.038-0.011,0.059-0.012C5.073,21.989,5.085,22,5.1,22h25.8
	c0.015,0,0.027-0.011,0.041-0.012C30.962,21.989,30.979,22,31,22c0.553,0,1-0.447,1-1S31.553,20,31,20z"/>
<path d="M31,16c-0.021,0-0.038,0.011-0.059,0.012C30.928,16.011,30.915,16,30.9,16H5.1c-0.015,0-0.027,0.011-0.042,0.012
	C5.038,16.011,5.021,16,5,16c-0.552,0-1,0.448-1,1c0,0.553,0.448,1,1,1c0.021,0,0.038-0.011,0.059-0.012
	C5.073,17.989,5.085,18,5.1,18h25.8c0.015,0,0.027-0.011,0.041-0.012C30.962,17.989,30.979,18,31,18c0.553,0,1-0.447,1-1
	C32,16.448,31.553,16,31,16z"/>
<path d="M31,12c-0.021,0-0.038,0.011-0.059,0.012C30.928,12.011,30.915,12,30.9,12H5.1c-0.015,0-0.027,0.011-0.042,0.012
	C5.038,12.011,5.021,12,5,12c-0.552,0-1,0.448-1,1c0,0.553,0.448,1,1,1c0.021,0,0.038-0.011,0.059-0.012
	C5.073,13.989,5.085,14,5.1,14h25.8c0.015,0,0.027-0.011,0.041-0.012C30.962,13.989,30.979,14,31,14c0.553,0,1-0.447,1-1
	C32,12.448,31.553,12,31,12z"/>
<path d="M31,8c-0.021,0-0.038,0.011-0.059,0.012C30.928,8.011,30.915,8,30.9,8H5.1C5.085,8,5.073,8.011,5.058,8.012
	C5.038,8.011,5.021,8,5,8C4.448,8,4,8.448,4,9c0,0.553,0.448,1,1,1c0.021,0,0.038-0.011,0.059-0.012C5.073,9.989,5.085,10,5.1,10
	h25.8c0.015,0,0.027-0.011,0.041-0.012C30.962,9.989,30.979,10,31,10c0.553,0,1-0.447,1-1C32,8.448,31.553,8,31,8z"/>
<path d="M31,4c-0.021,0-0.038,0.011-0.059,0.012C30.928,4.011,30.915,4,30.9,4H5.1C5.085,4,5.073,4.011,5.058,4.012
	C5.038,4.011,5.021,4,5,4C4.448,4,4,4.448,4,5c0,0.553,0.448,1,1,1c0.021,0,0.038-0.011,0.059-0.012C5.073,5.989,5.085,6,5.1,6h25.8
	c0.015,0,0.027-0.011,0.041-0.012C30.962,5.989,30.979,6,31,6c0.553,0,1-0.447,1-1C32,4.448,31.553,4,31,4z"/>
</svg>
