<?xml version="1.0" encoding="utf-8"?>
<!-- DeepDark custom icon -->
<!DOCTYPE svg PUBLIC "-//W3C//DTD SVG 1.1//EN" "http://www.w3.org/Graphics/SVG/1.1/DTD/svg11.dtd">
<svg version="1.1" id="messages_filters" xmlns="http://www.w3.org/2000/svg" xmlns:xlink="http://www.w3.org/1999/xlink" x="0px"
	 y="0px" width="36px" height="36px" viewBox="0 0 36 36" enable-background="new 0 0 36 36" xml:space="preserve" fill="context-fill">
<g>
	<polygon points="28.31,16 24.33,20 11.67,20 7.69,16 	"/>
	<path d="M22.32,22l-3.681,3.7c-0.18,0.17-0.399,0.26-0.63,0.26h-0.02c-0.23,0-0.45-0.09-0.63-0.26L13.68,22H22.32z"/>
	<path d="M33,10.94c0,0.23-0.1,0.45-0.24,0.61l-0.04,0.04L30.32,14H5.68l-2.4-2.41l-0.04-0.04C3.1,11.39,3,11.17,3,10.94
		c0-0.5,0.4-0.9,0.89-0.9h28.22C32.6,10.04,33,10.44,33,10.94z"/>
</g>
</svg>
