<?xml version="1.0" encoding="utf-8"?>
<!-- DeepDark custom icon -->
<!DOCTYPE svg PUBLIC "-//W3C//DTD SVG 1.1//EN" "http://www.w3.org/Graphics/SVG/1.1/DTD/svg11.dtd">
<svg version="1.1" id="create_account" xmlns="http://www.w3.org/2000/svg" xmlns:xlink="http://www.w3.org/1999/xlink" x="0px"
	 y="0px" width="36px" height="36px" viewBox="0 0 36 36" enable-background="new 0 0 36 36" xml:space="preserve" fill="context-fill">
<g>
	<path d="M23.959,10h-3.96V5.91c0-1.06-0.94-1.91-2-1.91c-1.05,0-2,0.85-2,1.91V10h-4.09c-1.06,0-1.91,0.94-1.91,2
		c0,1.05,0.851,2,1.91,2h4.09v3.96c0,1.05,0.95,2.04,2,2.04c1.06,0,2-0.99,2-2.04V14h3.96c1.05,0,2.04-0.95,2.04-2
		C25.999,10.94,25.009,10,23.959,10z"/>
	<g>
		<path d="M31.708,22h-5.861c-0.711,0-3.063,3.023-4.023,3.023h-7.643c-0.97,0-3.315-3.01-4.025-3.01H4.288
			c-0.7,0-1.268,0.568-1.268,1.266v7.449C3.021,31.428,3.588,32,4.288,32h27.42c0.698,0,1.271-0.572,1.271-1.271v-7.463
			C32.978,22.564,32.406,22,31.708,22z"/>
	</g>
</g>
</svg>
