<?xml version="1.0" encoding="utf-8"?>
<!-- DeepDark custom icon -->
<!DOCTYPE svg PUBLIC "-//W3C//DTD SVG 1.1//EN" "http://www.w3.org/Graphics/SVG/1.1/DTD/svg11.dtd">
<svg version="1.1" id="offline" xmlns="http://www.w3.org/2000/svg" xmlns:xlink="http://www.w3.org/1999/xlink" x="0px" y="0px"
	 width="32px" height="32px" viewBox="0 0 32 32" enable-background="new 0 0 32 32" xml:space="preserve" fill="context-fill">
<g opacity="0.5">
	<path opacity="0.2" enable-background="new    " d="M20.01,6v4h-8.35C10.19,10,9,11.19,9,12.66V16H2.01V6H20.01z"/>
	<path d="M20.34,4H1.66C0.75,4,0,4.74,0,5.66v10.65c0,0.92,0.75,1.7,1.66,1.7H9V16H2.01V6h18v4H22V5.66C22,4.74,21.25,4,20.34,4z
		 M6,20c-0.55,0-1,0.45-1,1s0.45,1,1,1h3v-2H6z"/>
</g>
<g>
	<rect x="12.01" y="13" opacity="0.2" enable-background="new    " width="18" height="10"/>
	<path d="M30.34,11H11.66C10.75,11,10,11.74,10,12.66V23.31c0,0.921,0.75,1.7,1.66,1.7H20V27h-4c-0.552,0-1,0.447-1,1s0.448,1,1,1
		h10c0.553,0,1-0.447,1-1s-0.447-1-1-1h-4v-2h8.34c0.91,0,1.66-0.74,1.66-1.66V12.66C32,11.74,31.25,11,30.34,11z M30.01,23h-18V13
		h18V23z"/>
</g>
</svg>
