<?xml version="1.0" encoding="utf-8"?>
<!-- DeepDark custom icon -->
<!DOCTYPE svg PUBLIC "-//W3C//DTD SVG 1.1//EN" "http://www.w3.org/Graphics/SVG/1.1/DTD/svg11.dtd">
<svg version="1.1" id="read_messages" xmlns="http://www.w3.org/2000/svg" xmlns:xlink="http://www.w3.org/1999/xlink" x="0px"
	 y="0px" width="32px" height="32px" viewBox="0 0 32 32" enable-background="new 0 0 32 32" xml:space="preserve" fill="context-fill">
<g>
	<path opacity="0.3" enable-background="new    " d="M29.01,14.629V29H2.99V14.629l12.11,7.609l0.461,0.291
		C15.7,22.619,15.85,22.66,16,22.66s0.3-0.041,0.439-0.131l0.461-0.291L29.01,14.629z"/>
	<path d="M31,12.87c0-0.3-0.16-0.58-0.43-0.72c-0.262-0.15-0.58-0.14-0.84,0.02L28,13.24V1.83C28,1.37,27.63,1,27.17,1H4.83
		C4.37,1,4,1.37,4,1.83v11.41l-1.73-1.07C2.01,12.01,1.69,12,1.43,12.15C1.16,12.29,1,12.57,1,12.87l-0.01,17.3
		c0,0.46,0.37,0.83,0.83,0.83h28.36c0.461,0,0.83-0.37,0.83-0.83L31,12.87z M5.98,3h20.04l-0.01,7L26,14.37l-10,6.29L6,14.37
		L5.99,10L5.98,3z M29.01,29H2.99V14.629l12.109,7.61l0.461,0.29c0.14,0.09,0.29,0.131,0.44,0.131s0.3-0.041,0.439-0.131l0.461-0.29
		l12.107-7.61L29.01,29L29.01,29z"/>
	<path d="M18,5h-8C9.448,5,9,5.448,9,6s0.448,1,1,1h8c0.553,0,1-0.448,1-1S18.553,5,18,5z"/>
	<path d="M22,9H10c-0.552,0-1,0.448-1,1s0.448,1,1,1h12c0.553,0,1-0.448,1-1S22.553,9,22,9z"/>
	<path d="M22,13H10c-0.552,0-1,0.448-1,1s0.448,1,1,1h12c0.553,0,1-0.448,1-1S22.553,13,22,13z"/>
</g>
</svg>
