<?xml version="1.0" encoding="utf-8"?>
<!-- DeepDark custom icon -->
<!DOCTYPE svg PUBLIC "-//W3C//DTD SVG 1.1//EN" "http://www.w3.org/Graphics/SVG/1.1/DTD/svg11.dtd">
<svg version="1.1" id="search" xmlns="http://www.w3.org/2000/svg" xmlns:xlink="http://www.w3.org/1999/xlink" x="0px" y="0px"
	 width="36px" height="36px" viewBox="0 0 36 36" enable-background="new 0 0 36 36" xml:space="preserve" fill="context-fill">
<path d="M29.725,27.915l-6.852-6.852c1.227-1.608,1.964-3.61,1.964-5.789c0-5.279-4.28-9.56-9.561-9.56
	c-5.279,0-9.56,4.28-9.56,9.56c0,5.28,4.28,9.561,9.56,9.561c2.178,0,4.179-0.736,5.786-1.962l6.852,6.853
	c0.5,0.499,1.311,0.499,1.811,0C30.225,29.227,30.225,28.415,29.725,27.915z M8.276,15.275c0-3.859,3.131-7,7-7c3.87,0,7,3.141,7,7
	c0,3.87-3.13,7-7,7C11.407,22.275,8.276,19.145,8.276,15.275z"/>
<path opacity="0.15" enable-background="new    " d="M15.276,8.275c-3.869,0-7,3.141-7,7c0,3.87,3.131,7,7,7c3.87,0,7-3.131,7-7
	C22.276,11.416,19.146,8.275,15.276,8.275z"/>
</svg>
