<?xml version="1.0" encoding="utf-8"?>
<!-- DeepDark custom icon -->
<!DOCTYPE svg PUBLIC "-//W3C//DTD SVG 1.1//EN" "http://www.w3.org/Graphics/SVG/1.1/DTD/svg11.dtd">
<svg version="1.1" id="write_message" xmlns="http://www.w3.org/2000/svg" xmlns:xlink="http://www.w3.org/1999/xlink" x="0px"
	 y="0px" width="36px" height="36px" viewBox="0 0 36 36" enable-background="new 0 0 36 36" xml:space="preserve" fill="context-fill">
<g>
	<path d="M6.942,25.743l3.316,3.32l-5.417,2.892C4.831,31.97,4.831,31.97,4.831,31.97l-0.04,0.002l-0.02,0.005
		c-0.199,0.056-0.438,0.015-0.597-0.144c-0.167-0.167-0.206-0.406-0.152-0.607v-0.013l0.012-0.025
		c0.006-0.006,0.004-0.031,0.014-0.04L6.942,25.743z"/>
	<path d="M31.31,4.687c-0.911-0.911-2.396-0.92-3.318,0L8.68,24.007l3.318,3.317L31.313,8.005
		C32.229,7.084,32.229,5.607,31.31,4.687z"/>
</g>
</svg>
