<!-- This Source Code Form is subject to the terms of the Mozilla Public
   - License, v. 2.0. If a copy of the MPL was not distributed with this
   - file, You can obtain one at http://mozilla.org/MPL/2.0/. -->
<!-- transform from thunderbird repo -->
<svg xmlns="http://www.w3.org/2000/svg" width="16" height="16" fill="context-fill" fill-opacity="context-fill-opacity" viewBox="0 0 16 16">
  <path d="m16,16l-0.671,0l0.671,0zm-3.535,-8a4.502,4.502 0 0 0 -4.229,3.058a5.006,5.006 0 0 0 -3.82,2.942l3.84,0a4.51,4.51 0 0 0 1.415,2l-7.671,0a7.003,7.003 0 0 1 4.812,-6.651a4,4 0 1 1 5.653,-1.349zm-3.465,0a2,2 0 1 0 0,-4a2,2 0 0 0 0,4z" fill="black"/>
  <path d="m4.049,6.7a4,4 0 0 1 5.651,-5.651a5,5 0 0 0 -5.651,5.651zm-2.797,7.3l-1.252,0a7,7 0 0 1 4.249,-6.439c0.178,0.543 0.447,1.045 0.788,1.488a8.016,8.016 0 0 0 -3.785,4.951z"/>
  <path d="m12.5,16a3.5,3.5 0 1 1 0,-7a3.5,3.5 0 0 1 0,7zm0.5,-4l0,-1.5a0.5,0.5 0 1 0 -1,0l0,1.5l-1.5,0a0.5,0.5 0 1 0 0,1l1.5,0l0,1.5a0.5,0.5 0 1 0 1,0l0,-1.5l1.5,0a0.5,0.5 0 1 0 0,-1l-1.5,0z" fill="#007f00"/>
</svg>