<svg width="14" height="14" xmlns="http://www.w3.org/2000/svg" xmlns:svg="http://www.w3.org/2000/svg">
  <metadata id="metadata4348">image/svg+xml</metadata>
  <g class="layer">
    <title>Layer 1</title>
    <g id="surface1" transform="matrix(0.07806774179925967,0,0,0.07483541219123173,-0.11331346773472264,9.784174401466956) ">
      <path fill="#d70022" d="m91.14929,-20.47921l12.26333,-18.8295l-24.52665,0l12.26332,18.8295" id="path4297"/>
      <path fill="#d70022" d="m80.0989,-45.8256c0,0 -15.76809,0.17864 -25.37772,-9.3155c-9.60962,-9.48091 -9.42868,-25.04866 -9.42868,-25.04866c0,0 15.76139,-0.17864 25.37771,9.30227c9.60962,9.49415 9.42869,25.06189 9.42869,25.06189" id="path4299"/>
      <path fill="#d70022" d="m102.19969,-45.8256c0,0 15.76139,0.17864 25.37771,-9.3155c9.60962,-9.48091 9.42199,-25.04866 9.42199,-25.04866c0,0 -15.76809,-0.17864 -25.37101,9.30227c-9.60963,9.49415 -9.42869,25.06189 -9.42869,25.06189" id="path4301"/>
      <path fill="#d70022" d="m91.31799,-1.74258c-43.88663,0 -71.17203,-17.86992 -71.17203,-51.93635c0,-34.14584 4.63727,-46.6403 27.97707,-46.4516c20.0265,0.16192 21.0975,2.76515 29.00976,5.47473l14.0098,5.98073l16.28994,-5.44409c0.21444,-0.13232 8.04354,-4.04368 28.30148,-4.04368c23.33384,0 27.80167,10.33807 27.80167,44.48391c0,34.06643 -28.33777,51.93635 -72.21769,51.93635zm88.18756,-51.93635c0,-7.54239 -0.55621,-14.17175 -1.5614,-20.00718l0.0604,0.07939l0,-40.13342l-39.81225,0c-0.88457,-0.03969 -1.76243,-0.06616 -2.6336,-0.06616c-18.89758,0 -37.9694,9.30889 -44.41602,12.77574c-6.45337,-3.46685 -25.52519,-12.77574 -44.42277,-12.77574c-0.87117,0 -1.74904,0.02647 -2.6336,0.06616l-39.55764,0l0,38.93591c-1.13252,6.10006 -1.76244,13.09331 -1.76244,21.12529c0,28.18471 20.88116,52.53867 50.94306,63.79271c-2.82123,1.89882 -4.67748,5.08779 -4.67748,8.69358c0,6.41764 8.27606,20.53647 9.76375,21.25101c0.87116,0.44989 1.95677,0.17201 2.52638,-0.60869c0.37527,-0.52268 1.96347,-2.96402 3.6991,-6.10669c1.95677,3.59917 3.85323,6.40441 4.48315,6.71538c0.88456,0.44989 1.96347,0.17201 2.54648,-0.60869c0.38197,-0.52929 1.96347,-2.96402 3.6991,-6.11331c1.96347,3.60579 3.86663,6.41103 4.50326,6.722c0.87786,0.44989 1.96347,0.17201 2.54648,-0.60869c0.74384,-1.06519 6.43322,-9.90435 8.36318,-16.7388c1.99028,6.99324 7.8606,16.75203 9.10034,17.34749c0.85776,0.44989 1.93666,0.17201 2.51296,-0.60869c0.38198,-0.52268 1.97018,-2.96402 3.70581,-6.10669c1.95678,3.59917 3.85993,6.40441 4.48985,6.71538c0.87787,0.44989 1.97018,0.17201 2.53979,-0.60869c0.37527,-0.52929 1.96347,-2.97064 3.70579,-6.11331c1.95678,3.59918 3.85994,6.41103 4.48985,6.722c0.89798,0.44989 1.97018,0.17201 2.55319,-0.60869c0.91807,-1.28352 9.00651,-13.90048 9.00651,-20.64232c0,-3.60579 -1.85625,-6.80137 -4.68419,-8.69358c30.0552,-11.26066 50.92296,-35.61462 50.92296,-63.7927" id="path4303"/>
    </g>
    <path d="m149.26128,113.60537c0.006,-0.47794 0.0708,-0.6384 0.14426,-0.35657c0.0734,0.28184 0.0686,0.67288 -0.0107,0.86899c-0.0794,0.19611 -0.13944,-0.0345 -0.13353,-0.51242l-0.00003,0z" id="path841" transform="scale(0.75) "/>
  </g>
</svg>