<?xml version="1.0" encoding="UTF-8" standalone="no"?>
<svg
   xmlns:dc="http://purl.org/dc/elements/1.1/"
   xmlns:cc="http://creativecommons.org/ns#"
   xmlns:rdf="http://www.w3.org/1999/02/22-rdf-syntax-ns#"
   xmlns:svg="http://www.w3.org/2000/svg"
   xmlns="http://www.w3.org/2000/svg"
   xmlns:sodipodi="http://sodipodi.sourceforge.net/DTD/sodipodi-0.dtd"
   xmlns:inkscape="http://www.inkscape.org/namespaces/inkscape"
   id="svg4"
   version="1.1"
   viewBox="0 0 16 16"
   height="16"
   width="16"
   fill="context-fill"
   fill-opacity="context-fill-opacity"
   sodipodi:docname="outlook-appointment-icon.svg"
   inkscape:version="0.92.2 5c3e80d, 2017-08-06">
  <metadata
     id="metadata35">
    <rdf:RDF>
      <cc:Work
         rdf:about="">
        <dc:format>image/svg+xml</dc:format>
        <dc:type
           rdf:resource="http://purl.org/dc/dcmitype/StillImage" />
        <dc:title></dc:title>
      </cc:Work>
    </rdf:RDF>
  </metadata>
  <sodipodi:namedview
     pagecolor="#ffffff"
     bordercolor="#666666"
     borderopacity="1"
     objecttolerance="10"
     gridtolerance="10"
     guidetolerance="10"
     inkscape:pageopacity="0"
     inkscape:pageshadow="2"
     inkscape:window-width="1120"
     inkscape:window-height="842"
     id="namedview33"
     showgrid="false"
     inkscape:zoom="20.85965"
     inkscape:cx="2.1192019"
     inkscape:cy="3.810489"
     inkscape:window-x="792"
     inkscape:window-y="120"
     inkscape:window-maximized="0"
     inkscape:current-layer="svg4" />
  <style
     id="style2">
		path {
			display: block;
			stroke-width: 1;
		}
		.normal {
			fill: #505050;
			fill-opacity: 0.8;
			stroke: #404040;
		}
		@media (-moz-windows-default-theme) and (-moz-os-version: windows-win8) {
			.normal {
				fill: #797c80;
				fill-opacity: 1;
				stroke: none;
			}
		}
		@media (-moz-windows-default-theme) and (-moz-os-version: windows-win10) {
			.normal {
				fill: #4c4c4c;
				fill-opacity: 1;
				stroke: none;
			}
		}
		@media (-moz-windows-default-theme) and (-moz-os-version: windows-vista),
			 (-moz-windows-default-theme) and (-moz-os-version: windows-win7) {
			.normal {
				fill: url(#win1);
				fill-opacity: 1;
				stroke: url(#win2);
			}
		}
		@media (-moz-mac-yosemite-theme) {
			.normal {
				fill: #4d4d4d;
				fill-opacity: 1;
				stroke: none;
			}
		}
		.inverted {
			fill: #fff;
			fill-opacity: 1;
			stroke: #111922;
		}
	</style>
  <defs
     id="defs14">
    <linearGradient
       id="win1"
       x1="8"
       y1="1"
       x2="8"
       y2="15"
       gradientUnits="userSpaceOnUse">
      <stop
         stop-color="#3f4f5a"
         offset="0"
         id="stop4" />
      <stop
         stop-color="#7e8c97"
         offset="1"
         id="stop6" />
    </linearGradient>
    <linearGradient
       id="win2"
       x1="8"
       y1="1"
       x2="8"
       y2="15"
       gradientUnits="userSpaceOnUse">
      <stop
         stop-color="#0c1b25"
         offset="0"
         id="stop9" />
      <stop
         stop-color="#4f585f"
         stop-opacity="0.9"
         offset="1"
         id="stop11" />
    </linearGradient>
  </defs>
  <path
     d="M 8.2926106,0.44416683 H 9.347231 c 0,1.17630737 0,2.35085117 0,3.52715857 1.827068,0.00353 3.652373,-0.00529 5.477677,0 0.35977,-0.017636 0.851809,0.086415 0.844755,0.5396553 0.06702,2.2309278 0.0018,4.4671464 0.03174,6.6998373 0.0071,0.395042 -0.0053,1.017586 -0.543182,1.022876 -1.934647,0.06702 -3.874584,0.0053 -5.810994,0.02645 0,1.116346 0,2.234455 0,3.350801 H 8.2538118 C 5.566117,15.122437 2.8713678,14.672725 0.18014581,14.200085 0.17838223,10.085655 0.17838223,5.9712244 0.17838223,1.8585574 2.8837129,1.3841546 5.5890435,0.92562398 8.2926106,0.44416683 Z"
     id="path18"
     inkscape:connector-curvature="0"
     style="display:block;fill:#ffffff;stroke-width:0.60240364;fill-opacity:1;stroke:#000000;stroke-opacity:1;stroke-miterlimit:4;stroke-dasharray:none" />
  <path
     d="m 9.4263133,4.7711879 c 1.7902697,0.00161 3.5789237,-0.00485 5.3691937,0.00323 -0.0307,0.2116655 -0.09533,0.4200994 -0.273065,0.5525923 -1.069637,0.9969282 -2.132812,1.9987037 -3.199218,2.9988635 -0.64146,-0.5800604 -1.265145,-1.1795099 -1.8969107,-1.7692649 0,-0.5962179 0,-1.1908202 0,-1.7854225 z"
     id="path64"
     inkscape:connector-curvature="0"
     style="display:block;fill:#ffffff;fill-opacity:1;stroke:#000000;stroke-width:0.55191386;stroke-miterlimit:4;stroke-dasharray:none;stroke-opacity:1" />
  <path
     d="M 4.2471329,5.2417481 C 5.2417917,4.8661058 6.4039904,5.393416 6.8254859,6.3545667 7.4004127,7.6772512 7.3192881,9.4866835 6.1764887,10.486633 5.1236319,11.387822 3.358289,10.874621 2.8785954,9.5942619 2.247234,8.118146 2.5540968,5.8466558 4.2471329,5.2417481 Z"
     id="path76"
     inkscape:connector-curvature="0"
     style="display:block;fill:#ffffff;fill-opacity:1;stroke:#000000;stroke-width:0.60240364;stroke-miterlimit:4;stroke-dasharray:none;stroke-opacity:1" />
  <path
     d="m 11.830575,8.4696785 c 0.971075,-0.9226029 1.95023,-1.8387428 2.926154,-2.7564984 0.0049,1.8936788 0,3.7889735 0.0016,5.6826519 -1.777345,0 -3.554688,0 -5.3320318,0 0,-1.4089485 -0.00161,-2.8178971 0.00161,-4.2252301 0.6026808,0.533203 1.1423468,1.1407315 1.7821908,1.6270773 0.26337,0.048473 0.441104,-0.1793502 0.620455,-0.3280007 z"
     id="path92"
     inkscape:connector-curvature="0"
     style="display:block;fill:#ffffff;fill-opacity:1;stroke:#000000;stroke-width:0.55191386;stroke-miterlimit:4;stroke-dasharray:none;stroke-opacity:1" />
  <path
     d="M 4.4182001,6.3016593 C 4.8873122,6.0776847 5.4745841,6.3051865 5.6950316,6.7690078 6.0477474,7.4673852 6.0459838,8.319194 5.8149549,9.0563702 5.6509421,9.5801532 5.0777788,10.01223 4.5222513,9.8058914 3.8291647,9.5872075 3.6192987,8.7653796 3.6122444,8.1216731 3.6034265,7.4550402 3.7568579,6.6243943 4.4182001,6.3016593 Z"
     id="path96"
     inkscape:connector-curvature="0"
     style="display:block;fill:#ffffff;fill-opacity:1;stroke:#000000;stroke-width:0.60240364;stroke-miterlimit:4;stroke-dasharray:none;stroke-opacity:1" />
</svg>
