<?xml version="1.0" encoding="UTF-8" standalone="no"?>
<svg
   xmlns:dc="http://purl.org/dc/elements/1.1/"
   xmlns:cc="http://creativecommons.org/ns#"
   xmlns:rdf="http://www.w3.org/1999/02/22-rdf-syntax-ns#"
   xmlns:svg="http://www.w3.org/2000/svg"
   xmlns="http://www.w3.org/2000/svg"
   viewBox="0 0 256 256"
   height="256"
   width="256"
   version="1.1"
   id="svg2">
  <metadata
     id="metadata8">
    <rdf:RDF>
      <cc:Work
         rdf:about="">
        <dc:format>image/svg+xml</dc:format>
        <dc:type
           rdf:resource="http://purl.org/dc/dcmitype/StillImage" />
        <dc:title></dc:title>
      </cc:Work>
    </rdf:RDF>
  </metadata>
  <defs
     id="defs6" />
  <path
     id="path4148"
     d="m 131.5851,6.4371535 c -5.43446,-0.0022 -11.2666,0.1288925 -17.17224,0.2491874 -3.2964,0.067199 -6.95546,3.7437741 -6.94651,7.0408451 0.0236,8.742845 0.43781,27.686828 0.43781,27.686828 0,0 -9.796839,2.646616 -14.483765,4.556894 -4.191813,1.708476 -12.112006,6.140382 -12.112006,6.140382 0,0 -10.82205,-10.649765 -20.177388,-19.86864 -2.01571,-1.986297 -7.562722,-1.460117 -9.5804,0.52419 -16.512711,16.23972 -12.428409,11.708802 -19.296796,19.227306 -2.237774,2.449598 -1.841794,7.634213 0.54604,9.937793 6.783033,6.543702 19.501303,19.308705 19.501303,19.308705 0,0 -5.029566,8.268944 -6.889933,12.716605 -1.827205,4.368332 -4.140922,13.588261 -4.140922,13.588261 0,0 -18.16773,-0.35959 -27.257945,-0.21445 -3.440828,0.0549 -7.7844859,2.91411 -7.7973438,6.22181 -0.020427,5.25239 -0.092499,17.84146 -0.1598465,25.16813 -0.067309,7.32667 4.0797083,9.9439 7.8847183,9.92489 11.137616,-0.0557 27.217237,0.12515 27.217237,0.12515 0,0 2.560712,9.28524 4.38217,13.73122 1.788164,4.36477 6.392552,12.62528 6.392552,12.62528 0,0 -12.584141,12.09725 -18.582979,18.84906 -2.3949,2.69547 -2.976575,8.11934 -0.567877,10.80251 6.427324,7.1597 12.892143,13.37574 18.978116,18.69515 2.916185,2.54889 8.703828,1.21545 11.531211,-1.43159 4.957125,-4.64092 17.831437,-18.28713 17.831437,-18.28713 0,0 8.243086,4.38598 12.544863,6.18207 2.256138,0.94199 5.721742,2.14148 8.623324,3.10545 2.90162,0.96395 5.23894,1.69269 5.23894,1.69269 0,0 -0.004,4.35924 -0.001,9.84248 0.003,5.48328 0.01,12.09062 0.0338,16.58453 0.009,1.7982 0.81687,3.87979 2.07097,5.51592 1.25407,1.63611 2.95528,2.82656 4.75347,2.84135 8.56111,0.0688 18.16951,0.0464 27.65904,-0.004 1.60595,-0.005 3.28506,-1.20982 4.56085,-2.81356 1.2758,-1.60374 2.14805,-3.60717 2.14044,-5.21313 -0.0209,-4.42176 0.006,-11.44295 0.0416,-17.3579 0.0342,-5.91491 0.0744,-10.72406 0.0744,-10.72406 0,0 2.30185,-0.51254 5.14165,-1.25886 2.83977,-0.74631 6.21698,-1.72641 8.36719,-2.66066 2.03453,-0.88398 4.8936,-2.58718 7.24337,-4.06944 2.34978,-1.48224 4.19056,-2.74307 4.19056,-2.74307 0,0 3.71581,3.75183 8.16863,8.2014 4.45285,4.44959 9.64315,9.59633 12.59053,12.38602 1.30142,1.23177 3.21861,1.87921 5.25879,1.78305 2.0402,-0.0962 4.20264,-0.93605 5.99445,-2.67954 3.75943,-3.65802 6.9479,-6.74185 9.79881,-9.53074 2.8509,-2.7889 5.36446,-5.28213 7.77351,-7.75763 1.18364,-1.2163 1.85912,-3.15497 1.9419,-5.09203 0.0827,-1.93701 -0.42649,-3.87284 -1.61329,-5.08603 -3.33114,-3.4053 -8.59017,-8.65625 -13.01641,-13.05614 -4.42626,-4.39989 -8.01972,-7.94924 -8.01972,-7.94924 0,0 1.27202,-1.93041 2.75795,-4.39409 1.48591,-2.46367 3.18485,-5.46051 4.04063,-7.59181 0.8629,-2.149 1.71519,-5.51599 2.35091,-8.34638 0.63584,-2.8302 1.05538,-5.12367 1.05538,-5.12367 0,0 19.9466,0.45959 29.042,0.13799 3.3812,-0.11955 7.62097,-3.18697 7.73779,-6.56826 0.34377,-9.95063 0.36016,-17.93152 0.1001,-26.90948 -0.15723,-5.43091 -3.8456,-7.65793 -9.51886,-7.60873 -7.36801,0.0639 -26.90649,0.32962 -26.90649,0.32962 0,0 -2.10475,-8.928785 -3.80435,-13.170304 -1.74334,-4.350689 -6.50574,-12.465437 -6.50574,-12.465437 0,0 13.23951,-13.220157 19.68198,-20.00168 4.39207,-4.623175 1.67198,-10.244628 0.17872,-11.597727 -6.20619,-5.623592 -12.57523,-12.68018 -17.84932,-17.682516 -2.57903,-2.44616 -8.02801,-2.714333 -10.65855,-0.323649 -5.38044,4.889827 -12.93659,13.14238 -19.92026,20.082083 0,0 -8.3149,-4.829055 -12.76328,-6.607993 -4.19908,-1.679234 -13.02733,-3.790455 -13.02733,-3.790455 0,0 0.33293,-19.214944 0.002,-28.889091 -0.1129,-3.301068 -4.50931,-6.5949623 -7.80829,-6.7578998 -2.90492,-0.1280015 -6.02187,-0.1766391 -9.28254,-0.1777094 z m -2.90094,80.2806985 c 20.22591,-0.06354 37.51488,17.619798 40.1205,37.147078 2.95345,20.75243 -13.65462,40.86761 -33.71204,44.72009 -22.57315,4.60796 -46.206091,-14.28646 -48.142217,-36.92868 -1.666547,-22.66042 18.334007,-44.129267 40.767787,-44.922603 0.32246,-0.0098 0.64493,-0.01492 0.96597,-0.0159 z"
     style="fill:#268bd2;fill-opacity:1;fill-rule:evenodd;stroke:#000000;stroke-width:0;stroke-linecap:butt;stroke-linejoin:miter;stroke-miterlimit:4;stroke-dasharray:none;stroke-opacity:1" />
</svg>
