<!-- This Source Code Form is subject to the terms of the Mozilla Public
   - License, v. 2.0. If a copy of the MPL was not distributed with this
   - file, You can obtain one at http://mozilla.org/MPL/2.0/. -->
<svg xmlns="http://www.w3.org/2000/svg" viewBox="0 0 16 16" width="16" height="16"><path fill="context-fill" d="M 8 1 a 7 7 0 1 0 7 7 a 7.008 7.008 0 0 0 -7 -7 Z m 0 13 a 6 6 0 1 1 6 -6 a 6.007 6.007 0 0 1 -6 6 Z M 8 3.125 A 2.7 2.7 0 0 0 5.125 6 a 0.875 0.875 0 0 0 1.75 0 c 0 -1 0.6 -1.125 1.125 -1.125 a 1.105 1.105 0 0 1 1.13 0.744 a 0.894 0.894 0 0 1 -0.53 1.016 A 2.738 2.738 0 0 0 7.125 9 v 0.337 a 0.875 0.875 0 0 0 1.75 0 v -0.37 a 1.041 1.041 0 0 1 0.609 -0.824 A 2.637 2.637 0 0 0 10.82 5.16 A 2.838 2.838 0 0 0 8 3.125 Z m 0 7.625 A 1.25 1.25 0 1 0 9.25 12 A 1.25 1.25 0 0 0 8 10.75 Z" /></svg>