<!-- This Source Code Form is subject to the terms of the Mozilla Public
   - License, v. 2.0. If a copy of the MPL was not distributed with this
   - file, You can obtain one at http://mozilla.org/MPL/2.0/. -->
<svg xmlns="http://www.w3.org/2000/svg" viewBox="0 0 16 16" width="16" height="16"><path fill="context-fill" d="M 14.742 12.106 L 9.789 2.2 a 2 2 0 0 0 -3.578 0 l -4.953 9.91 A 2 2 0 0 0 3.047 15 h 9.905 a 2 2 0 0 0 1.79 -2.894 Z M 7 5 a 1 1 0 0 1 2 0 v 4 a 1 1 0 0 1 -2 0 Z m 1 8.25 A 1.25 1.25 0 1 1 9.25 12 A 1.25 1.25 0 0 1 8 13.25 Z" /></svg>