<?xml version="1.0" encoding="utf-8"?>
<!-- DeepDark custom icon -->
<!DOCTYPE svg PUBLIC "-//W3C//DTD SVG 1.1//EN" "http://www.w3.org/Graphics/SVG/1.1/DTD/svg11.dtd">
<svg version="1.1" id="Layer_1" xmlns="http://www.w3.org/2000/svg" xmlns:xlink="http://www.w3.org/1999/xlink" x="0px" y="0px"
	 width="16px" height="16px" viewBox="0 0 16 16" enable-background="new 0 0 16 16" xml:space="preserve" fill="context-fill">
<g>
	<g>
		<path d="M8,12.5c0,0.85,0.23,1.64,0.65,2.31H2.57C2.83,12.04,5.16,9.86,8,9.86c0.28,0,0.55,0.02,0.82,0.069
			C8.3,10.66,8,11.54,8,12.5z"/>
	</g>
	<circle cx="8" cy="4.741" r="3.551"/>
</g>
<path d="M12.5,16C10.566,16,9,14.434,9,12.5S10.566,9,12.5,9s3.5,1.566,3.5,3.5S14.434,16,12.5,16z M13,12v-1.5
	c0-0.275-0.225-0.5-0.5-0.5S12,10.225,12,10.5V12h-1.5c-0.275,0-0.5,0.225-0.5,0.5s0.225,0.5,0.5,0.5H12v1.5
	c0,0.275,0.225,0.5,0.5,0.5s0.5-0.225,0.5-0.5V13h1.5c0.275,0,0.5-0.225,0.5-0.5S14.775,12,14.5,12H13z"/>
</svg>
