<?xml version="1.0" encoding="utf-8"?>
<!-- DeepDark custom icon -->
<!DOCTYPE svg PUBLIC "-//W3C//DTD SVG 1.1//EN" "http://www.w3.org/Graphics/SVG/1.1/DTD/svg11.dtd">
<svg version="1.1" id="Layer_1" xmlns="http://www.w3.org/2000/svg" xmlns:xlink="http://www.w3.org/1999/xlink" x="0px" y="0px"
	 width="16px" height="16px" viewBox="0 0 16 16" enable-background="new 0 0 16 16" xml:space="preserve" fill="context-fill">
<path d="M7.29,10.6c-2.05,0.23-3.78,1.5-4.65,3.301H0c0.47-2.28,2.47-3.94,4.85-3.94C5.73,9.96,6.57,10.19,7.29,10.6z"/>
<path d="M3.45,5.93c0,0.64,0.13,1.25,0.38,1.81C2.37,7.3,1.3,5.95,1.3,4.33c0-1.96,1.59-3.55,3.55-3.55c0.8,0,1.54,0.27,2.13,0.72
	C4.96,1.96,3.45,3.77,3.45,5.93z"/>
<path d="M8.23,13.9c0.19,0.6,0.51,1.14,0.93,1.6H3.15c0.12-0.58,0.33-1.12,0.63-1.6C4.66,12.47,6.22,11.55,8,11.55h0.1
	C8.03,11.86,8,12.17,8,12.5C8,12.99,8.08,13.46,8.23,13.9z"/>
<g>
	<path d="M11.55,5.93c0,1.96-1.59,3.55-3.55,3.55c-1.24,0-2.33-0.641-2.96-1.601C4.67,7.32,4.45,6.65,4.45,5.93
		c0-1.9,1.49-3.45,3.37-3.54C7.88,2.38,7.94,2.38,8,2.38C9.96,2.38,11.55,3.97,11.55,5.93z"/>
</g>
<path d="M12.5,16C10.566,16,9,14.434,9,12.5S10.566,9,12.5,9s3.5,1.566,3.5,3.5S14.434,16,12.5,16z M13,12v-1.5
	c0-0.275-0.225-0.5-0.5-0.5S12,10.225,12,10.5V12h-1.5c-0.275,0-0.5,0.225-0.5,0.5s0.225,0.5,0.5,0.5H12v1.5
	c0,0.275,0.225,0.5,0.5,0.5s0.5-0.225,0.5-0.5V13h1.5c0.275,0,0.5-0.225,0.5-0.5S14.775,12,14.5,12H13z"/>
</svg>
