<?xml version="1.0" encoding="utf-8"?>
<!-- DeepDark custom icon -->
<!DOCTYPE svg PUBLIC "-//W3C//DTD SVG 1.1//EN" "http://www.w3.org/Graphics/SVG/1.1/DTD/svg11.dtd">
<svg version="1.1" id="Layer_1" xmlns="http://www.w3.org/2000/svg" xmlns:xlink="http://www.w3.org/1999/xlink" x="0px" y="0px"
	 width="32px" height="32px" viewBox="0 0 32 32" enable-background="new 0 0 32 32" xml:space="preserve">
<path opacity="0.7" fill="#F9F9FA" enable-background="new    " d="M26.87,19.52l-2.7,2.69c-0.52,0.5-1.34,0.479-1.83-0.03
	c-0.898-0.898,0.26-2.13-0.898-3.3c-1.172-1.159-2.842-0.68-4.16,0.64c-1.32,1.312-1.63,3.16-0.602,4.19
	c1.03,1.03,2.4,0,3.291,0.899c0.479,0.511,0.479,1.301,0,1.801L14.88,31.5c-0.33,0.33-0.77,0.5-1.2,0.5c-0.43,0-0.87-0.17-1.2-0.5
	l-5.09-5.09c-0.48-0.51-0.48-1.301,0-1.801c0.9-0.899,2.26,0.131,3.3-0.899c1.02-1.03,0.71-2.88-0.61-4.19
	c-1.31-1.318-2.99-1.799-4.15-0.64c-1.17,1.16,0,2.399-0.9,3.3c-0.5,0.512-1.32,0.53-1.83,0.03l-2.7-2.69
	c-0.67-0.658-0.67-1.738,0-2.398l3.93-3.93c0.45-0.51,0.43-1.27-0.04-1.76c-0.9-0.9-2.26,0.13-3.29-0.9C0.07,9.5,0.34,7.69,1.7,6.33
	c1.35-1.35,3.03-1.76,4.19-0.6c1.16,1.17,0,2.4,0.9,3.3C7.31,9.52,8.12,9.51,8.62,9l3.86-3.86c0.33-0.34,0.77-0.5,1.2-0.5
	c0.43,0,0.87,0.16,1.2,0.49l3.25,3.25l-1.77,3.33c-0.48,0.91-0.48,1.82,0,2.57c0.43,0.8,1.281,1.23,2.25,1.23h6.649l1.61,1.61
	C27.529,17.779,27.529,18.85,26.87,19.52z"/>
<path fill="#FFCD02" d="M30.27,12.52L24.76,2.19c-0.38-0.8-1.068-0.8-1.5,0l-2.08,3.89l-0.14,0.26l-1.62,3.02l-1.67,3.1
	c-0.43,0.81-0.05,1.45,0.859,1.45v0.05H29.41C30.32,13.96,30.7,13.32,30.27,12.52z M24.01,5.46c1.28,0,1.07,1.01,1.021,1.71
	C24.971,7.86,24.6,9.41,24.6,9.41s-0.06,0.38-0.59,0.38c-0.539,0-0.59-0.38-0.59-0.38s-0.37-1.49-0.43-2.24
	C22.939,6.47,22.73,5.46,24.01,5.46z M24.01,12.84c-0.59,0-1.068-0.48-1.068-1.07c0-0.13,0.02-0.26,0.068-0.38
	c0.15-0.4,0.54-0.69,1-0.69c0.301,0,0.58,0.13,0.78,0.33c0.181,0.19,0.29,0.45,0.29,0.74C25.08,12.36,24.6,12.84,24.01,12.84z"/>
</svg>
