<?xml version="1.0" encoding="utf-8"?>
<!-- DeepDark custom icon -->
<!DOCTYPE svg PUBLIC "-//W3C//DTD SVG 1.1//EN" "http://www.w3.org/Graphics/SVG/1.1/DTD/svg11.dtd">
<svg version="1.1" id="Layer_1" xmlns="http://www.w3.org/2000/svg" xmlns:xlink="http://www.w3.org/1999/xlink" x="0px" y="0px"
	 width="32px" height="32px" viewBox="0 0 32 32" enable-background="new 0 0 32 32" xml:space="preserve">
<path opacity="0.7" fill="#F9F9FA" enable-background="new    " d="M26.87,19.52l-2.7,2.69c-0.52,0.5-1.34,0.479-1.83-0.03
	c-0.898-0.898,0.26-2.13-0.898-3.3c-1.172-1.159-2.842-0.68-4.16,0.64c-1.32,1.312-1.63,3.16-0.602,4.19
	c1.03,1.03,2.4,0,3.291,0.899c0.479,0.511,0.479,1.301,0,1.801L14.88,31.5c-0.33,0.33-0.77,0.5-1.2,0.5c-0.43,0-0.87-0.17-1.2-0.5
	l-5.09-5.09c-0.48-0.51-0.48-1.301,0-1.801c0.9-0.899,2.26,0.131,3.3-0.899c1.02-1.03,0.71-2.88-0.61-4.19
	c-1.31-1.318-2.99-1.799-4.15-0.64c-1.17,1.16,0,2.399-0.9,3.3c-0.5,0.512-1.32,0.53-1.83,0.03l-2.7-2.69
	c-0.67-0.658-0.67-1.738,0-2.398l3.93-3.93c0.45-0.51,0.43-1.27-0.04-1.76c-0.9-0.9-2.26,0.13-3.29-0.9C0.07,9.5,0.34,7.69,1.7,6.33
	c1.35-1.35,3.03-1.76,4.19-0.6c1.16,1.17,0,2.4,0.9,3.3C7.31,9.52,8.12,9.51,8.62,9l3.86-3.86c0.33-0.34,0.77-0.5,1.2-0.5
	c0.43,0,0.87,0.16,1.2,0.49l1.28,1.28C16.05,6.92,16,7.45,16,8c0,4.42,3.58,8,8,8c0.55,0,1.08-0.05,1.59-0.16l1.28,1.28
	C27.529,17.779,27.529,18.85,26.87,19.52z"/>
<g>
	<path fill="#90FE22" d="M24,1.6c-3.529,0-6.4,2.87-6.4,6.4s2.871,6.4,6.4,6.4s6.4-2.87,6.4-6.4S27.529,1.6,24,1.6z M27.63,6.56
		c0,0-3.58,4.32-3.68,4.43c-0.22,0.26-0.8,0.16-0.91,0c-0.11-0.16-2.67-3.1-2.67-3.1c-0.16-0.16-0.16-0.37,0-0.53l0.54-0.53
		c0.21-0.22,0.479,0,0.64,0.16c0.16,0.21,1.812,2.02,1.812,2.02s2.77-3.25,2.88-3.41c0.271-0.43,0.85-0.43,1.01-0.27l0.38,0.32
		C27.79,5.92,27.79,6.4,27.63,6.56z"/>
</g>
</svg>
