<?xml version="1.0" encoding="utf-8"?>
<!-- DeepDark custom icon -->
<!DOCTYPE svg PUBLIC "-//W3C//DTD SVG 1.1//EN" "http://www.w3.org/Graphics/SVG/1.1/DTD/svg11.dtd">
<svg version="1.1" id="Layer_1" xmlns="http://www.w3.org/2000/svg" xmlns:xlink="http://www.w3.org/1999/xlink" x="0px" y="0px"
	 width="16px" height="16px" viewBox="8 16 16 16" enable-background="new 8 16 16 16" xml:space="preserve" fill="context-fill">
<path d="M23.71,23.298L21.411,21c-0.261-0.298-0.252-0.745,0.021-1.031c0.526-0.525,1.324,0.077,1.928-0.525
	c0.603-0.604,0.441-1.661-0.351-2.453s-1.773-1.03-2.453-0.351c-0.68,0.681,0,1.402-0.525,1.928
	c-0.304,0.288-0.781,0.278-1.073-0.021l-2.256-2.257C16.507,16.096,16.253,16,16,16c-0.254,0-0.507,0.097-0.701,0.291l-2.257,2.257
	c-0.292,0.299-0.77,0.309-1.072,0.021c-0.525-0.525,0.154-1.248-0.525-1.928c-0.68-0.68-1.662-0.442-2.454,0.35
	c-0.792,0.793-0.953,1.85-0.35,2.453s1.401,0,1.927,0.526c0.272,0.286,0.281,0.733,0.021,1.03L8.29,23.299
	c-0.387,0.387-0.387,1.015,0,1.402l1.577,1.576c0.303,0.287,0.781,0.279,1.072-0.02c0.526-0.527-0.154-1.248,0.526-1.929
	c0.68-0.68,1.661-0.399,2.432,0.372c0.771,0.771,0.953,1.85,0.351,2.453c-0.603,0.602-1.401,0-1.927,0.525
	c-0.279,0.295-0.279,0.756,0,1.051l2.979,2.979C15.493,31.902,15.746,32,16,32c0.253,0,0.507-0.098,0.701-0.291l2.979-2.979
	c0.279-0.295,0.279-0.756,0-1.051c-0.526-0.525-1.325,0.076-1.928-0.525c-0.604-0.604-0.42-1.684,0.351-2.453
	c0.771-0.771,1.752-1.052,2.433-0.372c0.679,0.681,0,1.401,0.525,1.929c0.291,0.299,0.77,0.307,1.072,0.02l1.577-1.576
	C24.097,24.313,24.097,23.686,23.71,23.298z"/>
</svg>
