<?xml version="1.0" encoding="utf-8"?>
<!-- DeepDark custom icon -->
<!DOCTYPE svg PUBLIC "-//W3C//DTD SVG 1.1//EN" "http://www.w3.org/Graphics/SVG/1.1/DTD/svg11.dtd">
<svg version="1.1" id="Layer_1" xmlns="http://www.w3.org/2000/svg" xmlns:xlink="http://www.w3.org/1999/xlink" x="0px" y="0px"
	 width="32px" height="32px" viewBox="0 0 32 32" enable-background="new 0 0 32 32" xml:space="preserve">
<path opacity="0.7" fill="#F9F9FA" d="M26.87,19.52l-2.7,2.69c-0.52,0.5-1.34,0.48-1.83-0.03c-0.899-0.899,0.26-2.13-0.899-3.3
	c-1.171-1.16-2.841-0.68-4.16,0.64c-1.32,1.311-1.63,3.16-0.601,4.19c1.03,1.03,2.4,0,3.29,0.9c0.48,0.51,0.48,1.3,0,1.8l-5.09,5.09
	c-0.33,0.33-0.77,0.5-1.2,0.5c-0.43,0-0.87-0.17-1.2-0.5l-5.09-5.09c-0.48-0.51-0.48-1.3,0-1.8c0.9-0.9,2.26,0.13,3.3-0.9
	c1.02-1.03,0.71-2.88-0.61-4.19c-1.31-1.319-2.99-1.8-4.15-0.64c-1.17,1.16,0,2.4-0.9,3.3c-0.5,0.511-1.32,0.53-1.83,0.03l-2.7-2.69
	c-0.67-0.659-0.67-1.739,0-2.399l3.93-3.93c0.45-0.51,0.43-1.27-0.04-1.76c-0.9-0.9-2.26,0.13-3.29-0.9C0.07,9.5,0.34,7.69,1.7,6.33
	c1.35-1.35,3.03-1.76,4.19-0.6c1.16,1.17,0,2.4,0.9,3.3C7.31,9.52,8.12,9.51,8.62,9l3.86-3.86c0.33-0.34,0.77-0.5,1.2-0.5
	c0.43,0,0.87,0.16,1.2,0.49l1.28,1.28C16.05,6.92,16,7.45,16,8c0,4.42,3.58,8,8,8c0.55,0,1.08-0.05,1.59-0.16l1.28,1.28
	C27.53,17.78,27.53,18.85,26.87,19.52z"/>
<g>
	<path fill="#00ADEE" d="M24,1.6c-3.53,0-6.4,2.87-6.4,6.4s2.87,6.4,6.4,6.4s6.4-2.87,6.4-6.4S27.53,1.6,24,1.6z M27.57,8.59
		l-2.98,2.93c-0.16,0.16-0.38,0.21-0.59,0.21s-0.37-0.05-0.53-0.21L20.48,8.59C20.16,8.27,20.21,8,20.69,8h1.71V4.8
		c0-0.32,0.27-0.53,0.59-0.53h2.13c0.32,0,0.53,0.21,0.53,0.53V8h1.71C27.79,8,27.89,8.27,27.57,8.59z"/>
</g>
</svg>
