<?xml version="1.0" encoding="utf-8"?>
<!-- DeepDark custom icon -->
<!DOCTYPE svg PUBLIC "-//W3C//DTD SVG 1.1//EN" "http://www.w3.org/Graphics/SVG/1.1/DTD/svg11.dtd">
<svg version="1.1" id="Layer_1" xmlns="http://www.w3.org/2000/svg" xmlns:xlink="http://www.w3.org/1999/xlink" x="0px" y="0px"
	 width="16px" height="16px" viewBox="0 0 16 16" enable-background="new 0 0 16 16" xml:space="preserve" fill="context-fill">
<g>
	<g>
		<g>
			<path d="M14.406,9h-2.738c-0.332,0-1.432,2-1.881,2H6.215c-0.452,0-1.549-2-1.881-2h-2.74C1.266,9,1,9.268,1,9.594v3.813
				C1,13.73,1.266,14,1.594,14h12.813C14.732,14,15,13.73,15,13.407V9.594C15,9.266,14.732,9,14.406,9z"/>
		</g>
	</g>
	<path d="M13.5,3h-11C2.224,3,2,3.224,2,3.5S2.224,4,2.5,4h11C13.775,4,14,3.776,14,3.5S13.775,3,13.5,3z"/>
	<path d="M13.5,5h-11C2.224,5,2,5.224,2,5.5S2.224,6,2.5,6h11C13.775,6,14,5.776,14,5.5S13.775,5,13.5,5z"/>
	<path d="M13.5,7h-11C2.224,7,2,7.224,2,7.5S2.224,8,2.5,8h11C13.775,8,14,7.776,14,7.5S13.775,7,13.5,7z"/>
</g>
</svg>
