<?xml version="1.0" encoding="utf-8"?>
<!-- DeepDark custom icon -->
<!DOCTYPE svg PUBLIC "-//W3C//DTD SVG 1.1//EN" "http://www.w3.org/Graphics/SVG/1.1/DTD/svg11.dtd">
<svg version="1.1" id="chat" xmlns="http://www.w3.org/2000/svg" xmlns:xlink="http://www.w3.org/1999/xlink" x="0px" y="0px"
	 width="16px" height="16px" viewBox="0 0 16 16" enable-background="new 0 0 16 16" xml:space="preserve" fill="context-fill">
<g>
	<path opacity="0.7" enable-background="new    " d="M8.09,8.001H6V9.41C6,9.914,6.411,10,6.911,10H9V8.912
		C9,8.407,8.588,8.001,8.09,8.001z"/>
	<path opacity="0.7" enable-background="new    " d="M6,4.903V6h3.568c0.498,0,0.91-0.406,0.91-0.91V3.992H6.911
		C6.411,3.992,6,4.398,6,4.903z"/>
</g>
<path opacity="0.8" enable-background="new    " d="M15.09,4l-4.611-0.008V5.09c0,0.504-0.412,0.91-0.91,0.91H6v2.001h2.09
	C8.588,8.001,9,8.407,9,8.912V10h4.389l1.836,2.836c0.088,0.088,0.201,0.135,0.318,0.135c0.062,0,0.119-0.014,0.174-0.035
	c0.174-0.065,0.281-0.231,0.281-0.42V4.911C16,4.406,15.588,4,15.09,4z"/>
<path opacity="0.7" enable-background="new    " d="M8.09,8.001H6V9.41C6,9.914,6.411,10,6.911,10H9V8.912
	C9,8.407,8.588,8.001,8.09,8.001z"/>
<path opacity="0.2" enable-background="new    " d="M9.568,0.044H0.91C0.412,0.044,0,0.451,0,0.956v7.968
	c0,0.186,0.11,0.352,0.281,0.42c0.056,0.021,0.114,0.035,0.174,0.035c0.118,0,0.233-0.047,0.321-0.135L2.612,6H6V4.903
	c0-0.505,0.411-0.911,0.911-0.911h3.567V0.955C10.479,0.45,10.066,0.044,9.568,0.044z"/>
<path opacity="0.4" enable-background="new    " d="M4,8H2.52v0.001H0.911C0.412,8.001,0,8.407,0,8.912v3.162
	c0,0.504,0.412,0.91,0.911,0.91h5.476l1.836,2.836c0.088,0.088,0.203,0.135,0.321,0.135c0.06,0,0.118-0.014,0.174-0.035
	C8.889,15.85,9,15.684,9,15.5V10H6.911C6.411,10,6,9.914,6,9.41V8.001L4,8"/>
<path opacity="0.5" enable-background="new    " d="M6,4.911V6h3.568c0.498,0,0.91-0.406,0.91-0.91V3.992L6.911,4
	C6.411,4,6,4.406,6,4.911z"/>
</svg>
