<?xml version="1.0" encoding="utf-8"?>
<!-- DeepDark custom icon -->
<!DOCTYPE svg PUBLIC "-//W3C//DTD SVG 1.1//EN" "http://www.w3.org/Graphics/SVG/1.1/DTD/svg11.dtd">
<svg version="1.1" id="column_headers" xmlns="http://www.w3.org/2000/svg" xmlns:xlink="http://www.w3.org/1999/xlink" x="0px"
	 y="0px" width="96px" height="16px" viewBox="0 0 96 16" enable-background="new 0 0 96 16" xml:space="preserve">
<g>
	<path fill="context-fill" d="M93.898,9.613c0,0.055-0.017,0.107-0.043,0.156l-1.452,2.516c-0.055,0.094-0.158,0.156-0.27,0.156
		c-0.11,0-0.213-0.061-0.269-0.156l-1.452-2.518c-0.026-0.047-0.041-0.1-0.041-0.154s0.015-0.107,0.041-0.154
		c0.055-0.094,0.159-0.154,0.27-0.154h2.904c0.109,0,0.212,0.059,0.27,0.154C93.882,9.506,93.898,9.559,93.898,9.613L93.898,9.613z"
		/>
	<path fill="context-fill" d="M88.695,11.369V6.902h3.779V8.05h0.802c0.035,0,0.068,0.011,0.104,0.014V4.808c0-0.689-0.559-1.249-1.247-1.249h-7.777
		c-0.688,0-1.249,0.559-1.249,1.249v6.222c0,0.688,0.561,1.246,1.249,1.246h5.966l-0.521-0.906H88.695L88.695,11.369z M88.695,4.464
		h3.438c0.188,0,0.342,0.154,0.342,0.344v1.189h-3.779V4.464z M87.791,11.369h-3.436c-0.19,0-0.345-0.152-0.345-0.34V6.901h3.78
		V11.369z M87.791,5.997h-3.78V4.808c0-0.189,0.154-0.344,0.345-0.344h3.436V5.997z"/>
</g>
<circle fill="context-fill" cx="55.958" cy="8.042" r="3.042"/>
<path fill="context-fill" d="M42.827,4.229c-0.112-0.155-0.315-0.212-0.491-0.14s-0.278,0.256-0.249,0.445c0.083,0.498,0.076,0.984-0.022,1.407
	c-0.381,1.642-1.568,2.571-2.333,2.375c-0.839-0.206-1.184-1.427-0.819-2.899c0.249-0.986,1.021-2.106,1.424-2.686
	c0.102-0.148,0.094-0.347-0.017-0.488c-0.113-0.143-0.304-0.193-0.471-0.126c-1.067,0.419-4.15,3.558-4.15,6.541
	c0,2.857,1.724,4.703,4.394,4.703c2.671,0,4.395-1.846,4.395-4.703C44.485,6.819,43.446,5.092,42.827,4.229z"/>
<g>
	<path fill="context-fill" d="M29.376,6.708c-0.083-0.249-0.296-0.434-0.558-0.481l-2.688-0.481l-1.268-2.541c-0.177-0.358-0.612-0.503-0.97-0.325
		c-0.139,0.068-0.255,0.184-0.322,0.325l-1.272,2.541l-2.683,0.48c-0.392,0.069-0.656,0.442-0.588,0.836
		c0.024,0.139,0.087,0.266,0.183,0.37l1.925,2.072l-0.4,2.866c-0.054,0.397,0.221,0.762,0.618,0.817
		c0.147,0.018,0.3-0.007,0.436-0.077l2.426-1.264l2.427,1.267c0.354,0.187,0.792,0.048,0.977-0.303
		c0.07-0.136,0.097-0.29,0.076-0.44l-0.402-2.869l1.924-2.069C29.399,7.237,29.459,6.959,29.376,6.708z"/>
</g>
<path fill="context-fill" d="M73,11.09V5.01c0-0.51-0.42-0.93-0.93-0.93H68.05v1.88h3.07v2.08h-3.07v1.89h3.07v2.11c0,0.52,0.41,0.94,0.93,0.94h4.931
	V11.09H73z"/>
<path fill="context-fill" d="M10.482,4.907c-0.237,0-0.424,0.187-0.424,0.424v5.088c0,1.407-1.136,2.544-2.543,2.544s-2.543-1.137-2.543-2.544V5.331
	V4.483c0-0.933,0.763-1.696,1.696-1.696c0.932,0,1.696,0.763,1.696,1.696v0.848V9.57c0,0.466-0.382,0.849-0.848,0.849
	S6.667,10.036,6.667,9.57V6.179c0-0.237-0.188-0.424-0.424-0.424S5.819,5.942,5.819,6.179V9.57c0,0.933,0.764,1.696,1.696,1.696
	S9.21,10.503,9.21,9.57V4.483c0-1.408-1.136-2.544-2.543-2.544c-1.408,0-2.544,1.136-2.544,2.544v5.936
	c0,1.864,1.526,3.392,3.392,3.392s3.392-1.527,3.392-3.392V5.331C10.906,5.094,10.719,4.907,10.482,4.907z"/>
</svg>
