<?xml version="1.0" encoding="utf-8"?>
<!-- DeepDark custom icon -->
<!DOCTYPE svg PUBLIC "-//W3C//DTD SVG 1.1//EN" "http://www.w3.org/Graphics/SVG/1.1/DTD/svg11.dtd">
<svg version="1.1" id="Layer_1" xmlns="http://www.w3.org/2000/svg" xmlns:xlink="http://www.w3.org/1999/xlink" x="0px" y="0px"
	 width="16px" height="16px" viewBox="0 0 16 16" enable-background="new 0 0 16 16" xml:space="preserve" fill="context-fill">
<g>
	<path d="M13.475,2.018H9.986V1.481C9.986,1.215,9.771,1,9.507,1H6.466C6.195,1,5.987,1.216,5.987,1.481v0.537H2.519
		c-0.269,0-0.479,0.215-0.479,0.481v0.02C2.04,2.785,2.257,3,2.519,3h10.959c0.271,0,0.479-0.215,0.479-0.481V2.5
		C13.956,2.234,13.738,2.018,13.475,2.018z"/>
	<path d="M3,4v9c0,1.11,0.9,2,2,2h6c1.1,0,2-0.89,2-2V4H3z M7,13H6c-0.55,0-1-0.45-1-1V6h2V13z M11,12c0,0.55-0.45,1-1,1H9V6h2V12z"
		/>
</g>
</svg>
