<?xml version="1.0" encoding="utf-8"?>
<!-- DeepDark custom icon -->
<!DOCTYPE svg PUBLIC "-//W3C//DTD SVG 1.1//EN" "http://www.w3.org/Graphics/SVG/1.1/DTD/svg11.dtd">
<svg version="1.1" id="Layer_1" xmlns="http://www.w3.org/2000/svg" xmlns:xlink="http://www.w3.org/1999/xlink" x="0px" y="0px"
	 width="9px" height="19px" viewBox="0 0 9 19" enable-background="new 0 0 9 19" xml:space="preserve">
<g>
	<path fill="context-fill" d="M7.894,1.309C7.792,1.133,7.604,1.025,7.401,1.025H1.6c-0.204,0-0.391,0.108-0.493,0.284c-0.102,0.176-0.102,0.393,0,0.569
		l2.651,4.592v10.762c0,0.41,0.333,0.742,0.743,0.742s0.742-0.332,0.742-0.742V6.471l2.65-4.592
		C7.995,1.702,7.995,1.485,7.894,1.309z"/>
	<path fill="rgb(30,30,30)" d="M7.401,1.025c0.203,0,0.391,0.108,0.492,0.284c0.102,0.176,0.102,0.393,0,0.569l-2.65,4.592v10.762
		c0,0.41-0.332,0.742-0.742,0.742s-0.743-0.332-0.743-0.742V6.471L1.107,1.878c-0.102-0.176-0.102-0.393,0-0.569
		C1.208,1.133,1.396,1.025,1.6,1.025H7.401 M7.401,0.275H1.6c-0.47,0-0.907,0.252-1.142,0.659c-0.235,0.407-0.235,0.913,0,1.32
		l2.55,4.417v10.561c0,0.823,0.669,1.492,1.493,1.492s1.492-0.669,1.492-1.492V6.671l2.55-4.418c0.234-0.407,0.234-0.912,0-1.319
		C8.309,0.527,7.871,0.275,7.401,0.275L7.401,0.275z"/>
</g>
</svg>
