<?xml version="1.0" encoding="utf-8"?>
<!-- DeepDark custom icon -->
<!DOCTYPE svg PUBLIC "-//W3C//DTD SVG 1.1//EN" "http://www.w3.org/Graphics/SVG/1.1/DTD/svg11.dtd">
<svg version="1.1" id="folder-pane_1_" xmlns="http://www.w3.org/2000/svg" xmlns:xlink="http://www.w3.org/1999/xlink" x="0px"
	 y="0px" width="224px" height="16px" viewBox="0 0 224 16" enable-background="new 0 0 224 16" xml:space="preserve" fill="context-fill">
<path d="M191.12,4.01h-7.71l-2.021-1.85C181.24,2.06,181.061,2,180.88,2h-4c-0.229,0-0.46,0.09-0.62,0.26
	C176.09,2.42,176,2.65,176,2.88v11.229c0,0.24,0.09,0.471,0.26,0.631c0.16,0.17,0.391,0.26,0.62,0.26h14.229
	c0.49,0,0.891-0.391,0.891-0.891V4.9C192,4.41,191.6,4.01,191.12,4.01z"/>
<g>
	<path d="M211.828,10.342c-1.008,0-1.828,0.821-1.828,1.832c0,1.008,0.82,1.826,1.828,1.826c1.01,0,1.83-0.818,1.83-1.826
		C213.657,11.163,212.837,10.342,211.828,10.342z"/>
	<path d="M216.756,13.975c-0.594,0-1.074-0.479-1.074-1.074c0-2.521-2.056-4.579-4.582-4.579c-0.594,0-1.074-0.481-1.074-1.073
		s0.48-1.073,1.074-1.073c3.709,0,6.729,3.019,6.729,6.726C217.829,13.494,217.348,13.975,216.756,13.975z"/>
	<path d="M220.926,13.975c-0.593,0-1.072-0.479-1.072-1.074c0-4.823-3.927-8.75-8.754-8.75c-0.594,0-1.074-0.481-1.074-1.075
		C210.025,2.48,210.505,2,211.1,2c6.013,0,10.9,4.891,10.9,10.9C222,13.494,221.52,13.975,220.926,13.975z"/>
</g>
<path d="M123.421,3.658c-0.14-0.193-0.394-0.262-0.614-0.174c-0.221,0.091-0.348,0.319-0.311,0.554
	c0.104,0.618,0.094,1.221-0.028,1.746c-0.477,2.041-1.963,3.192-2.921,2.95c-1.05-0.256-1.48-1.771-1.023-3.604
	c0.313-1.226,1.277-2.616,1.781-3.335c0.129-0.185,0.118-0.43-0.021-0.605c-0.142-0.177-0.38-0.24-0.591-0.158
	c-1.334,0.521-5.192,4.42-5.192,8.124c0,3.549,2.157,5.841,5.5,5.841s5.5-2.292,5.5-5.841
	C125.498,6.875,124.195,4.732,123.421,3.658z"/>
<polygon points="49,1 49,6 60.57,8 49,10 49,15 64,8 "/>
<path d="M76.043,3.632L76.043,3.632L72.721,0.31c-0.005-0.005-0.006-0.011-0.011-0.016C72.514,0.097,72.257,0,72,0
	c-0.131,0-0.262,0.025-0.385,0.077c-0.129,0.053-0.243,0.134-0.338,0.234l-3.32,3.32c-0.391,0.391-0.39,1.024,0.001,1.415
	c0.39,0.39,1.022,0.39,1.414,0l1.625-1.625V9v0.001c0,0.552,0.447,0.999,0.999,0.999c0.553,0,1.001-0.447,1.001-0.999V9V3.414
	l1.631,1.631l0.001,0.001c0.39,0.391,1.022,0.391,1.413,0C76.433,4.655,76.433,4.022,76.043,3.632z"/>
<path d="M35.957,6.369L35.957,6.369l3.322,3.322c0.005,0.004,0.006,0.012,0.011,0.017C39.485,9.902,39.743,10,40,10
	c0.131,0,0.262-0.025,0.385-0.077c0.129-0.053,0.243-0.134,0.338-0.233l3.32-3.315c0.391-0.391,0.39-1.024-0.001-1.415
	c-0.39-0.39-1.022-0.39-1.414,0L41.003,6.58V1l0,0c0-0.552-0.447-1-0.999-1c-0.553,0-1.001,0.448-1.001,1l0,0v5.586l-1.631-1.631
	l-0.001-0.001c-0.39-0.391-1.022-0.391-1.413,0C35.567,5.345,35.566,5.979,35.957,6.369z"/>
<g>
	<g>
		<path d="M206.406,9h-2.738c-0.332,0-1.432,2-1.881,2h-3.572c-0.451,0-1.549-2-1.881-2h-2.74C193.266,9,193,9.268,193,9.594v3.813
			c0,0.323,0.266,0.593,0.594,0.593h12.813c0.325,0,0.594-0.27,0.594-0.593V9.594C207,9.266,206.732,9,206.406,9z"/>
	</g>
</g>
<g>
	<path d="M109.586,1h-6.308l0,0h-4.864C98.194,1,98,1.186,98,1.412v13.175C98,14.814,98.194,15,98.414,15h4.864h6.308
		c0.22,0,0.414-0.186,0.414-0.413V1.412C110,1.186,109.805,1,109.586,1z M109,14.002H99V1.999h10V14.002z"/>
	<rect x="99" y="1.999" opacity="0.2" enable-background="new    " width="10" height="12.003"/>
	<path d="M100.076,3.004v2.99h7.874v-2.99H100.076z M107,4.997h-5.976V4.001H107V4.997z"/>
	<path d="M107.953,7.938V6.991h-3v5.995h3V12.04h-0.002V7.938H107.953z M106.953,11.989h-1V7.988h1V11.989z"/>
	<path d="M100.074,6.991v5.995h3.879V6.991H100.074z M102.953,11.989h-1.879V7.988h1.879V11.989z"/>
</g>
<path d="M93.587,2H82.415c-0.22,0-0.414,0.186-0.414,0.412V4h-0.002v1h0.002v1h-0.002v1h0.002v1h-0.002v1h0.002v1h-0.002v1h0.002v1
	h-0.002v1h0.002v1.588c0,0.227,0.194,0.412,0.414,0.412h11.172c0.22,0,0.414-0.186,0.414-0.412V2.412
	C94.001,2.186,93.806,2,93.587,2z M93.001,2.999V4h-7V2.999H93.001z M86.001,10V9h7v1H86.001z M93.001,11v1h-7v-1H93.001z M86.001,8
	V7h7v1H86.001z M86.001,6V5h7v1H86.001z M83.001,2.999h2V4h-2V2.999z M83.001,5h2v1h-2V5z M83.001,7h2v1h-2V7z M83.001,9h2v1h-2V9z
	 M83.001,11h2v1h-2V11z M83.001,14.002V13h2v1.002H83.001z M86.001,14.002V13h7v1.002H86.001z"/>
<path d="M31.12,4.01h-7.71l-2.02-1.85C21.24,2.06,21.06,2,20.88,2h-4c-0.23,0-0.46,0.09-0.62,0.26C16.09,2.42,16,2.65,16,2.88
	v11.229c0,0.24,0.09,0.471,0.26,0.631c0.16,0.17,0.39,0.26,0.62,0.26h14.23C31.6,15,32,14.609,32,14.109V4.9
	C32,4.41,31.6,4.01,31.12,4.01z"/>
<path d="M205.5,3h-11c-0.275,0-0.5,0.224-0.5,0.5s0.225,0.5,0.5,0.5h11c0.275,0,0.5-0.224,0.5-0.5S205.775,3,205.5,3z"/>
<path d="M205.5,5h-11c-0.275,0-0.5,0.224-0.5,0.5s0.225,0.5,0.5,0.5h11c0.275,0,0.5-0.224,0.5-0.5S205.775,5,205.5,5z"/>
<path d="M205.5,7h-11c-0.275,0-0.5,0.224-0.5,0.5s0.225,0.5,0.5,0.5h11c0.275,0,0.5-0.224,0.5-0.5S205.775,7,205.5,7z"/>
<g>
	<g>
		<path d="M78.406,10.104h-2.738c-0.332,0-1.432,2-1.881,2h-3.572c-0.452,0-1.549-2-1.881-2h-2.74C65.266,10.104,65,10.374,65,10.7
			v3.812c0,0.322,0.266,0.595,0.594,0.595h12.813c0.326,0,0.594-0.271,0.594-0.595V10.7C79,10.368,78.732,10.104,78.406,10.104z"/>
	</g>
</g>
<g>
	<g>
		<path d="M46.406,10.104h-2.738c-0.332,0-1.432,2-1.881,2h-3.572c-0.452,0-1.549-2-1.881-2h-2.74C33.266,10.104,33,10.374,33,10.7
			v3.812c0,0.322,0.266,0.595,0.594,0.595h12.813c0.326,0,0.594-0.271,0.594-0.595V10.7C47,10.368,46.732,10.104,46.406,10.104z"/>
	</g>
</g>
<g>
	<path d="M141.475,2.018h-3.487V1.481c0-0.266-0.216-0.481-0.479-0.481h-3.041c-0.271,0-0.479,0.216-0.479,0.481v0.537h-3.467
		c-0.271,0-0.479,0.215-0.479,0.481v0.02c0,0.266,0.217,0.481,0.479,0.481h10.959c0.271,0,0.479-0.215,0.479-0.481V2.5
		C141.956,2.234,141.738,2.018,141.475,2.018z"/>
	<path d="M131,4v9c0,1.109,0.9,2,2,2h6c1.1,0,2-0.891,2-2V4H131z M135,13h-1c-0.55,0-1-0.45-1-1V6h2V13z M139,12c0,0.55-0.45,1-1,1
		h-1V6h2V12z"/>
</g>
<path d="M15.12,4.01H7.41L5.39,2.16C5.24,2.06,5.06,2,4.88,2h-4C0.65,2,0.42,2.09,0.26,2.26C0.09,2.42,0,2.65,0,2.88v11.229
	c0,0.24,0.09,0.471,0.26,0.631C0.42,14.91,0.65,15,0.88,15h14.23C15.6,15,16,14.609,16,14.109V4.9C16,4.41,15.6,4.01,15.12,4.01z"/>
<g>
	<path d="M175.12,4.01h-7.71l-2.021-1.85C165.24,2.06,165.061,2,164.88,2h-4c-0.229,0-0.46,0.09-0.62,0.26
		C160.09,2.42,160,2.65,160,2.88v11.229c0,0.24,0.09,0.471,0.26,0.631c0.16,0.17,0.391,0.26,0.62,0.26h14.229
		c0.49,0,0.891-0.391,0.891-0.891V4.9C176,4.41,175.6,4.01,175.12,4.01z M173.59,12.68c-0.1,0.25-0.39,0.381-0.648,0.271
		l-3.182-1.29c-0.56,0.84-1.5,1.34-2.49,1.34c-0.379,0-0.76-0.069-1.129-0.22c-1.529-0.62-2.271-2.37-1.649-3.9
		C164.96,7.71,166.08,7,167.27,7c0.371,0,0.75,0.07,1.121,0.22c1.409,0.57,2.141,2.089,1.771,3.53l3.16,1.28
		C173.57,12.13,173.7,12.42,173.59,12.68z"/>
	<path d="M168.109,7.92c-0.271-0.11-0.551-0.17-0.84-0.17c-0.92,0-1.739,0.55-2.091,1.41c-0.22,0.56-0.22,1.17,0.021,1.72
		c0.229,0.55,0.67,0.979,1.229,1.21c0.271,0.11,0.552,0.16,0.841,0.16c0.92,0,1.739-0.55,2.09-1.41
		c0.221-0.55,0.221-1.17-0.021-1.72S168.67,8.14,168.109,7.92z M168.27,10.57h-0.5v0.5c0,0.279-0.229,0.5-0.5,0.5
		c-0.278,0-0.5-0.221-0.5-0.5v-0.5h-0.5c-0.278,0-0.5-0.221-0.5-0.5c0-0.271,0.222-0.5,0.5-0.5h0.5v-0.5c0-0.271,0.222-0.5,0.5-0.5
		c0.271,0,0.5,0.229,0.5,0.5v0.5h0.5c0.271,0,0.5,0.229,0.5,0.5C168.77,10.35,168.54,10.57,168.27,10.57z"/>
</g>
<path d="M156.91,2H147.1c-0.569,0-1.04,0.44-1.1,1c-0.01,0.03-0.01,0.07-0.01,0.11v6.77c0,0.62,0.5,1.12,1.109,1.12h6.9l4,4V3.11
	C158,2.5,157.51,2,156.91,2z"/>
</svg>
