<?xml version="1.0" encoding="utf-8"?>
<!-- DeepDark custom icon -->
<!DOCTYPE svg PUBLIC "-//W3C//DTD SVG 1.1//EN" "http://www.w3.org/Graphics/SVG/1.1/DTD/svg11.dtd">
<svg version="1.1" id="Layer_1" xmlns="http://www.w3.org/2000/svg" xmlns:xlink="http://www.w3.org/1999/xlink" x="0px" y="0px"
	 width="16px" height="16px" viewBox="0 0 16 16" enable-background="new 0 0 16 16" xml:space="preserve" fill="context-fill">
<path d="M9.639,10.666c-0.201,0.2-0.5,0-0.5-0.2v-2.23c-1.642,0-4.582,0.401-4.582,1.741c0,1.33,1,3.198,1.601,3.858
	c0.22,0.24,0,0.62-0.351,0.472c-1.899-0.972-3.8-3.602-3.84-5.65c0-3.6,4.38-4.94,7.16-4.7v-2c0-0.27,0.301-0.399,0.5-0.2
	l4.33,4.261c0.102,0.12,0.102,0.3,0,0.42L9.639,10.666z"/>
</svg>
