<?xml version="1.0" encoding="utf-8"?>
<!-- DeepDark custom icon -->
<!DOCTYPE svg PUBLIC "-//W3C//DTD SVG 1.1//EN" "http://www.w3.org/Graphics/SVG/1.1/DTD/svg11.dtd">
<svg version="1.1" id="Layer_1" xmlns="http://www.w3.org/2000/svg" xmlns:xlink="http://www.w3.org/1999/xlink" x="0px" y="0px"
	 width="16px" height="16px" viewBox="0 0 16 16" enable-background="new 0 0 16 16" xml:space="preserve" fill="context-fill">
<g>
	<g>
		<path d="M3.957,7.266L3.957,7.266l3.321,3.322c0.006,0.004,0.007,0.012,0.012,0.018c0.194,0.193,0.453,0.291,0.71,0.291
			c0.131,0,0.262-0.024,0.385-0.076c0.129-0.053,0.242-0.135,0.338-0.233l3.32-3.319c0.391-0.391,0.391-1.024-0.002-1.415
			c-0.389-0.39-1.021-0.39-1.414,0L9.002,7.477v-5.58l0,0c0-0.552-0.445-1-0.998-1s-1.001,0.448-1.001,1l0,0v5.586L5.372,5.852
			L5.371,5.851c-0.391-0.391-1.022-0.391-1.413,0C3.566,6.241,3.565,6.875,3.957,7.266z"/>
		<g>
			<g>
				<path d="M14.406,11h-2.738c-0.332,0-1.432,2-1.881,2H6.215c-0.452,0-1.549-2-1.881-2h-2.74C1.266,11,1,11.27,1,11.595v3.813
					C1,15.73,1.266,16,1.594,16h12.813C14.732,16,15,15.73,15,15.407v-3.813C15,11.266,14.732,11,14.406,11z"/>
			</g>
		</g>
	</g>
</g>
</svg>
