<?xml version="1.0" encoding="utf-8"?>
<!-- DeepDark custom icon -->
<!DOCTYPE svg PUBLIC "-//W3C//DTD SVG 1.1//EN" "http://www.w3.org/Graphics/SVG/1.1/DTD/svg11.dtd">
<svg version="1.1" id="Layer_1" xmlns="http://www.w3.org/2000/svg" xmlns:xlink="http://www.w3.org/1999/xlink" x="0px" y="0px"
	 width="16px" height="16px" viewBox="0 0 16 16" enable-background="new 0 0 16 16" xml:space="preserve" fill="context-fill" fill-opacity="context-fill-opacity">
<g>
	<path opacity="0.4" enable-background="new    " d="M15.094,1H6.947c-0.5,0-0.911,0.406-0.911,0.911V4h3.026
		c0.5,0,0.91,0.406,0.91,0.911v4.09h3.409l2.613,4V1.911C16.004,1.407,15.592,1,15.094,1z"/>
	<path opacity="0.8" enable-background="new    " d="M6.036,8.089V4H0.914c-0.498,0-0.91,0.406-0.91,0.911l0.017,11.09l2.611-4
		h6.431c0.5,0,0.912-0.406,0.912-0.91v-2.09h-3.03C6.447,9.001,6.036,8.594,6.036,8.089z"/>
	<path d="M9.062,4H6.042v4.089c0,0.504,0.411,0.912,0.911,0.912h3.031v-4.09C9.975,4.406,9.562,4,9.062,4z"/>
</g>
</svg>
