<?xml version="1.0" encoding="utf-8"?>
<!-- DeepDark custom icon -->
<!DOCTYPE svg PUBLIC "-//W3C//DTD SVG 1.1//EN" "http://www.w3.org/Graphics/SVG/1.1/DTD/svg11.dtd">
<svg version="1.1" id="Layer_1" xmlns="http://www.w3.org/2000/svg" xmlns:xlink="http://www.w3.org/1999/xlink" x="0px" y="0px"
	 width="16px" height="16px" viewBox="0 0 16 16" enable-background="new 0 0 16 16" xml:space="preserve" fill="context-fill">
<g>
	<path d="M13.684,1.709V9.24h-2.347c-0.86,0-1.559,0.698-1.559,1.559v1.297L8.357,9.94c-0.289-0.438-0.778-0.7-1.301-0.7h-4.74
		V1.709H13.684 M13.982,0.15H2.02c-0.698,0-1.263,0.562-1.263,1.265v8.119c0,0.701,0.564,1.265,1.263,1.265h5.036l3.21,4.864
		c0.126,0.121,0.28,0.187,0.442,0.187c0.081,0,0.168-0.019,0.241-0.049c0.237-0.098,0.388-0.327,0.388-0.582v-4.42h2.646
		c0.698,0,1.261-0.563,1.261-1.265V1.415C15.243,0.713,14.672,0.15,13.982,0.15L13.982,0.15z"/>
	<circle cx="4.881" cy="5.485" r="1.039"/>
	<circle cx="8" cy="5.485" r="1.039"/>
	<circle cx="11.118" cy="5.485" r="1.039"/>
</g>
</svg>
