<?xml version="1.0" encoding="utf-8"?>
<!-- DeepDark custom icon -->
<!DOCTYPE svg PUBLIC "-//W3C//DTD SVG 1.1//EN" "http://www.w3.org/Graphics/SVG/1.1/DTD/svg11.dtd">
<svg version="1.1" id="junk" xmlns="http://www.w3.org/2000/svg" xmlns:xlink="http://www.w3.org/1999/xlink" x="0px" y="0px"
	 width="16px" height="16px" viewBox="0 0 16 16" enable-background="new 0 0 16 16" xml:space="preserve" fill="context-fill">
<path fill="context-fill" d="M11.401,3.648c-0.139-0.193-0.392-0.265-0.61-0.175c-0.22,0.09-0.348,0.32-0.311,0.555c0.104,0.62,0.094,1.225-0.027,1.751
	c-0.475,2.043-1.952,3.2-2.903,2.957C6.505,8.48,6.077,6.959,6.53,5.126c0.31-1.228,1.271-2.621,1.772-3.343
	C8.429,1.6,8.42,1.354,8.282,1.177C8.141,1,7.904,0.938,7.696,1.021C6.366,1.543,2.53,5.45,2.53,9.162
	c0,3.557,2.146,5.854,5.47,5.854c3.323,0,5.47-2.297,5.47-5.854C13.466,6.873,12.172,4.723,11.401,3.648z"/>
</svg>
