<?xml version="1.0" encoding="utf-8"?>
<!-- DeepDark custom icon -->
<!DOCTYPE svg PUBLIC "-//W3C//DTD SVG 1.1//EN" "http://www.w3.org/Graphics/SVG/1.1/DTD/svg11.dtd">
<svg version="1.1" id="Layer_1" xmlns="http://www.w3.org/2000/svg" xmlns:xlink="http://www.w3.org/1999/xlink" x="0px" y="0px"
	 width="16px" height="16px" viewBox="4 4 16 16" enable-background="new 4 4 16 16" xml:space="preserve">
<g>
	<path fill="#F9F9FA" fill-opacity="0" d="M12,7.333c2.574,0,4.667,2.094,4.667,4.667c0,2.574-2.093,4.667-4.667,4.667
		c-2.574,0-4.667-2.093-4.667-4.667C7.333,9.426,9.426,7.333,12,7.333 M12,4c-4.418,0-8,3.582-8,8s3.582,8,8,8s8-3.582,8-8
		S16.418,4,12,4L12,4z"/>
	<path fill="context-fill" d="M11.997,4.667c-4.04,0-7.333,3.287-7.333,7.333c0,0.554,0.453,1,1,1c0.553,0,1-0.446,1-1c0-2.94,2.393-5.333,5.333-5.333
		c0.553,0,1-0.446,1-1C12.997,5.113,12.55,4.667,11.997,4.667z"/>
	
		<animateTransform  fill="remove" type="rotate" additive="replace" restart="always" accumulate="none" repeatCount="indefinite" dur="0.5s" values="0 12 12;10 12 12;20 12 12;30 12 12;40 12 12;50 12 12;60 12 12;70 12 12;80 12 12;90 12 12;100 12 12;110 12 12;120 12 12;130 12 12;140 12 12;150 12 12;160 12 12;170 12 12;180 12 12;190 12 12;200 12 12;210 12 12;220 12 12;230 12 12;240 12 12;250 12 12;260 12 12;270 12 12;280 12 12;290 12 12;300 12 12;310 12 12;320 12 12;330 12 12;340 12 12;350 12 12;" calcMode="discrete" attributeName="transform">
		</animateTransform>
</g>
</svg>
