<?xml version="1.0" encoding="utf-8"?>
<!-- DeepDark custom icon -->
<!DOCTYPE svg PUBLIC "-//W3C//DTD SVG 1.1//EN" "http://www.w3.org/Graphics/SVG/1.1/DTD/svg11.dtd">
<svg version="1.1" id="message_closed_kill" xmlns="http://www.w3.org/2000/svg" xmlns:xlink="http://www.w3.org/1999/xlink"
	 x="0px" y="0px" width="16.198px" height="16.198px" viewBox="0 0 16.198 16.198" enable-background="new 0 0 16.198 16.198"
	 xml:space="preserve">
<polygon fill="context-fill" points="8.998,12.168 6.053,12.168 6.053,9.123 7.024,9.123 7.024,8.119 4.079,8.119 4.079,5.074 4.974,5.074 4.974,4.07 
	2.028,4.07 2.028,1.024 1.024,1.024 1.024,4.07 1.024,5.074 3.075,5.074 3.075,9.123 5.049,9.123 5.049,13.172 7.096,13.172 
	7.096,16.198 8.1,16.198 8.1,13.172 8.998,13.172 "/>
<path fill="#CD1818" d="M12.046,9.377c-1.791,0-3.248,1.461-3.248,3.248c0,1.791,1.457,3.248,3.248,3.248s3.248-1.457,3.248-3.248
	C15.294,10.838,13.837,9.377,12.046,9.377z M12.046,15.625c-1.658,0-3-1.343-3-3.002c0-1.651,1.342-2.999,3-2.999s3,1.348,3,3.001
	C15.046,14.283,13.704,15.625,12.046,15.625z"/>
<circle fill="#F12525" cx="12.046" cy="12.625" r="3"/>
<rect x="10.329" y="12.116" fill="#FFFFFF" width="3.417" height="0.928"/>
</svg>
