<?xml version="1.0" encoding="utf-8"?>
<!DOCTYPE svg PUBLIC "-//W3C//DTD SVG 1.1//EN" "http://www.w3.org/Graphics/SVG/1.1/DTD/svg11.dtd">
<svg version="1.1" id="Layer_1" xmlns="http://www.w3.org/2000/svg" xmlns:xlink="http://www.w3.org/1999/xlink" x="0px" y="0px"
	 width="22px" height="22px" viewBox="0 0 22 22" enable-background="new 0 0 22 22" xml:space="preserve" fill="context-fill" fill-opacity="context-fill-opacity">
<g>
	<g>
		<path d="M11,2c4.963,0,9,4.038,9,9c0,4.963-4.037,9-9,9c-4.962,0-9-4.037-9-9C2,6.038,6.038,2,11,2 M11,0C4.926,0,0,4.925,0,11
			c0,6.074,4.926,11,11,11c6.075,0,11-4.926,11-11C22,4.925,17.075,0,11,0L11,0z"/>
	</g>
	<path d="M16.5,11c0-0.553-0.447-1-1-1h-9c-0.553,0-1,0.447-1,1s0.447,1,1,1h9C16.053,12,16.5,11.553,16.5,11z"/>
</g>
</svg>
