<?xml version="1.0" encoding="utf-8"?>
<!-- DeepDark custom icon -->
<!DOCTYPE svg PUBLIC "-//W3C//DTD SVG 1.1//EN" "http://www.w3.org/Graphics/SVG/1.1/DTD/svg11.dtd">
<svg version="1.1" id="unread_mail" xmlns="http://www.w3.org/2000/svg" xmlns:xlink="http://www.w3.org/1999/xlink" x="0px"
	 y="0px" width="16px" height="16px" viewBox="-3 -2.5 16 16" enable-background="new -3 -2.5 16 16" xml:space="preserve" fill="rgb(255,150,75)">
<g>
	<rect x="4.251" y="-0.5" width="1.499" height="3"/>
	<rect x="4.251" y="8.5" width="1.499" height="3"/>
	<rect x="1.068" y="0.818" transform="matrix(0.7069 -0.7073 0.7073 0.7069 -1.1074 1.9655)" width="1.499" height="3.001"/>
	<rect x="7.435" y="7.181" transform="matrix(0.7071 -0.7071 0.7071 0.7071 -3.741 8.3299)" width="1.5" height="3"/>
	<rect x="-1" y="4.75" width="3.001" height="1.5"/>
	<rect x="8" y="4.75" width="3" height="1.5"/>
	<rect x="1.069" y="7.181" transform="matrix(-0.7076 -0.7066 0.7066 -0.7076 -3.0306 16.1121)" width="1.499" height="3.003"/>
	<rect x="7.433" y="0.817" transform="matrix(-0.7066 -0.7076 0.7076 -0.7066 12.3255 9.7456)" width="1.501" height="3"/>
</g>
</svg>
