<?xml version="1.0" encoding="utf-8"?>
<!-- DeepDark custom icon -->
<!DOCTYPE svg PUBLIC "-//W3C//DTD SVG 1.1//EN" "http://www.w3.org/Graphics/SVG/1.1/DTD/svg11.dtd">
<svg version="1.1" id="icon" xmlns="http://www.w3.org/2000/svg" xmlns:xlink="http://www.w3.org/1999/xlink" x="0px" y="0px"
	 width="16px" height="16px" viewBox="0 0 16 16" enable-background="new 0 0 16 16" xml:space="preserve" fill="context-fill">
<g>
	<g id="folder_2_">
		<g>
			<path d="M9.985,2H1.011C0.457,2,0,2.244,0,2.814v5.321C0,8.705,0.457,9,1.011,9h2.965V8H1V3h8.991v1h1.006V2.814
				C10.997,2.244,10.542,2,9.985,2z"/>
		</g>
	</g>
	<rect x="6" y="6" opacity="0.2" enable-background="new    " width="8.982" height="5"/>
	<path d="M15.92,5.622C15.766,5.255,15.404,5,14.984,5h-0.002H6.021H6.02C5.88,5,5.747,5.029,5.626,5.08
		C5.26,5.233,5.003,5.595,5.003,6.021v5.097c0,0.426,0.257,0.648,0.623,0.803C5.747,11.973,5.88,12,6.02,12h0.001H10v1H8
		c-0.319,0-0.572,0.174-0.572,0.5C7.428,13.824,7.681,14,8,14h5c0.32,0,0.57-0.176,0.57-0.5c0-0.326-0.25-0.5-0.57-0.5h-2v-1h3.982
		h0.002c0.42,0,0.781-0.117,0.936-0.484C15.971,11.395,16,11.26,16,11.117V6.021C16,5.878,15.971,5.743,15.92,5.622z M14.982,11H6
		V6.002h8.982V11z"/>
	<path d="M2.97,10c-0.309,0-0.571,0.178-0.571,0.5c0,0.314,0.263,0.5,0.571,0.5c0.011,0,0.011,0,0.011,0H4v-1H2.97z"/>
</g>
<path opacity="0.2" enable-background="new    " d="M9.991,3v1H6C4.886,4,3.976,4.892,3.976,6.026V8H1V3H9.991z"/>
</svg>
