<?xml version="1.0" encoding="utf-8"?>
<!-- DeepDark custom icon -->
<!DOCTYPE svg PUBLIC "-//W3C//DTD SVG 1.1//EN" "http://www.w3.org/Graphics/SVG/1.1/DTD/svg11.dtd">
<svg version="1.1" id="Layer_1" xmlns="http://www.w3.org/2000/svg" xmlns:xlink="http://www.w3.org/1999/xlink" x="0px" y="0px"
	 width="22px" height="22px" viewBox="0 0 22 22" enable-background="new 0 0 22 22" xml:space="preserve" fill="context-fill" fill-opacity="context-fill-opacity">
<g>
	<path d="M11,2c4.963,0,9,4.038,9,9c0,4.963-4.037,9-9,9c-4.962,0-9-4.037-9-9C2,6.038,6.038,2,11,2 M11,0C4.926,0,0,4.925,0,11
		c0,6.074,4.926,11,11,11c6.075,0,11-4.926,11-11C22,4.925,17.075,0,11,0L11,0z"/>
	<path d="M15.5,10H12V6.5c0-0.553-0.447-1-1-1s-1,0.447-1,1V10H6.5c-0.553,0-1,0.447-1,1s0.447,1,1,1H10v3.5c0,0.553,0.447,1,1,1
		s1-0.447,1-1V12h3.5c0.553,0,1-0.447,1-1S16.053,10,15.5,10z"/>
</g>
</svg>
