<?xml version="1.0" encoding="utf-8"?>
<!-- DeepDark custom icon -->
<!DOCTYPE svg PUBLIC "-//W3C//DTD SVG 1.1//EN" "http://www.w3.org/Graphics/SVG/1.1/DTD/svg11.dtd">
<svg version="1.1" id="Layer_1" xmlns="http://www.w3.org/2000/svg" xmlns:xlink="http://www.w3.org/1999/xlink" x="0px" y="0px"
	 width="16px" height="16px" viewBox="0 0 16 16" enable-background="new 0 0 16 16" xml:space="preserve" fill="context-fill">
<path d="M2.04,6.02c-0.1,0.12-0.1,0.3,0,0.42l2.85,2.81v1.22c0,0.2-0.29,0.4-0.5,0.2L0.08,6.44c-0.11-0.12-0.11-0.3,0-0.42
	l4.33-4.26c0.2-0.2,0.5-0.07,0.5,0.2V3.2L2.04,6.02z"/>
<g>
	<path d="M3.473,6.437c-0.101-0.12-0.101-0.3,0-0.42l4.33-4.26c0.2-0.2,0.5-0.07,0.5,0.2v2c2.78-0.24,7.159,1.1,7.159,4.7
		c-0.039,2.05-1.939,4.68-3.84,5.65c-0.35,0.148-0.569-0.23-0.35-0.472c0.6-0.66,1.6-2.528,1.6-3.858c0-1.34-2.939-1.74-4.58-1.74
		v2.229c0,0.2-0.299,0.4-0.5,0.2L3.473,6.437z"/>
</g>
</svg>
