<?xml version="1.0" encoding="utf-8"?>
<!-- DeepDark custom icon -->
<!DOCTYPE svg PUBLIC "-//W3C//DTD SVG 1.1//EN" "http://www.w3.org/Graphics/SVG/1.1/DTD/svg11.dtd">
<svg version="1.1" id="rss_feed" xmlns="http://www.w3.org/2000/svg" xmlns:xlink="http://www.w3.org/1999/xlink" x="0px" y="0px"
	 width="16px" height="16px" viewBox="0 0 16 16" enable-background="new 0 0 16 16" xml:space="preserve">
<g opacity="0.7">
	<path fill="context-fill" d="M3.827,10.333c-1.009,0-1.829,0.818-1.829,1.824c0,1.003,0.82,1.819,1.829,1.819
		c1.01,0,1.83-0.816,1.83-1.819C5.656,11.151,4.836,10.333,3.827,10.333z"/>
	<path fill="context-fill" d="M8.756,13.95c-0.594,0-1.075-0.479-1.075-1.069c0-2.516-2.056-4.562-4.584-4.562
		c-0.593,0-1.073-0.479-1.073-1.07c0-0.591,0.48-1.07,1.073-1.07c3.712,0,6.733,3.006,6.733,6.702
		C9.83,13.472,9.348,13.95,8.756,13.95z"/>
	<path fill="context-fill" d="M12.928,13.95c-0.594,0-1.074-0.479-1.074-1.069c0-4.809-3.927-8.719-8.757-8.719
		c-0.593,0-1.074-0.479-1.074-1.07s0.48-1.069,1.074-1.069c6.014,0,10.905,4.872,10.905,10.858
		C14.002,13.472,13.521,13.95,12.928,13.95z"/>
</g>
</svg>
