<?xml version="1.0" encoding="utf-8"?>
<!DOCTYPE svg PUBLIC "-//W3C//DTD SVG 1.1//EN" "http://www.w3.org/Graphics/SVG/1.1/DTD/svg11.dtd">
<svg version="1.1" id="Layer_1" xmlns="http://www.w3.org/2000/svg" xmlns:xlink="http://www.w3.org/1999/xlink" x="0px" y="0px"
	 width="16px" height="16px" viewBox="0 0 16 16" enable-background="new 0 0 16 16" xml:space="preserve" fill="context-fill">
<g>
	<path d="M14.41,4.41l-2.82-2.82C11.21,1.21,10.7,1,10.17,1H3C1.9,1,1,1.9,1,3v10c0,1.1,0.9,2,2,2h10c1.1,0,2-0.9,2-2V5.83
		C15,5.3,14.79,4.79,14.41,4.41z M3,4.89V2.32h6v2.57c0,0.55-0.45,1-1,1H4C3.45,5.89,3,5.44,3,4.89z M8,12c-1.1,0-2-0.9-2-2
		s0.9-2,2-2c1.1,0,2,0.9,2,2S9.1,12,8,12z"/>
</g>
</svg>
