<?xml version="1.0" encoding="utf-8"?>
<!-- DeepDark custom icon -->
<!DOCTYPE svg PUBLIC "-//W3C//DTD SVG 1.1//EN" "http://www.w3.org/Graphics/SVG/1.1/DTD/svg11.dtd">
<svg version="1.1" id="search-not-found" xmlns="http://www.w3.org/2000/svg" xmlns:xlink="http://www.w3.org/1999/xlink" x="0px"
	 y="0px" width="64px" height="64px" viewBox="-24 -24 64 64" enable-background="new -24 -24 64 64" xml:space="preserve" fill="context-fill" fill-opacity="context-fill-opacity">
<g>
	<path d="M38.88,33.231L19.623,13.974c7.697-10.813,5.171-25.819-5.647-33.518c-10.814-7.7-25.825-5.167-33.521,5.646
		c-7.699,10.814-5.167,25.82,5.647,33.519c8.342,5.936,19.531,5.936,27.869,0l19.257,19.257c1.588,1.532,4.115,1.489,5.647-0.094
		C40.374,37.232,40.374,34.783,38.88,33.231z M0.115,16.088c-8.821,0-15.975-7.152-15.975-15.974s7.153-15.973,15.975-15.973
		S16.09-8.707,16.09,0.114S8.937,16.088,0.115,16.088z"/>
	<path d="M2.938,0.114l4.237-4.237c0.778-0.777,0.778-2.045,0-2.823c-0.778-0.777-2.046-0.781-2.823,0L0.115-2.709l-4.237-4.237
		c-0.778-0.777-2.046-0.781-2.823,0c-0.778,0.778-0.778,2.046,0,2.823l4.237,4.237l-4.237,4.237c-0.778,0.778-0.778,2.045,0,2.823
		c0.777,0.782,2.045,0.782,2.823,0l4.237-4.237l4.237,4.237c0.777,0.782,2.045,0.782,2.823,0c0.778-0.778,0.778-2.041,0-2.823
		L2.938,0.114z"/>
</g>
</svg>
