<?xml version="1.0" encoding="utf-8"?>
<!-- DeepDark custom icon -->
<!DOCTYPE svg PUBLIC "-//W3C//DTD SVG 1.1//EN" "http://www.w3.org/Graphics/SVG/1.1/DTD/svg11.dtd">
<svg version="1.1" id="Layer_1" xmlns="http://www.w3.org/2000/svg" xmlns:xlink="http://www.w3.org/1999/xlink" x="0px" y="0px"
	 width="112px" height="16px" viewBox="0 0 112 16" enable-background="new 0 0 112 16" xml:space="preserve" fill="context-fill">
<g>
	<g>
		<path opacity="0.2" enable-background="new    " d="M102.23,8.36l-1.48,1.49c-0.01,0.013-0.02,0.021-0.04,0.041
			c-0.149,0.17-0.25,0.379-0.3,0.602c-0.021-0.04-0.03-0.08-0.061-0.11c-0.07-0.13-0.171-0.239-0.291-0.33
			c-0.229-0.188-0.511-0.29-0.811-0.29h-0.08c-0.7,0.051-1.229,0.66-1.188,1.36c0.027,0.319,0.078,0.62,0.147,0.897H97V4.33
			L102.23,8.36z"/>
		<path opacity="0.2" enable-background="new    " d="M111,4.34v6.391c0-0.318-0.13-0.641-0.37-0.881l-2.938-2.97L111,4.34z"/>
		<path opacity="0.2" enable-background="new    " d="M110.891,11.24C110.96,11.08,111,10.9,111,10.73v1.289h-1.279
			C110.24,12.02,110.689,11.721,110.891,11.24z"/>
		<path opacity="0.2" enable-background="new    " d="M109.83,3.98l-2.801,2.22l-0.079-0.08L106.6,5.77
			c-0.27-0.24-0.58-0.36-0.908-0.36c-0.342,0-0.659,0.13-0.892,0.36l-1.858,1.87l-0.069,0.07l-4.7-3.73H109.83z"/>
	</g>
	<g>
		<path d="M111.971,3.3c-0.011-0.01-0.011-0.03-0.021-0.04c-0.021-0.04-0.05-0.08-0.08-0.11c0-0.01-0.011-0.01-0.011-0.02
			c-0.029-0.03-0.069-0.05-0.102-0.07c-0.01-0.01-0.02-0.01-0.027-0.01C111.67,3.02,111.609,3,111.529,3H96.46c0,0-0.01,0-0.021,0
			c-0.039,0.01-0.08,0.02-0.119,0.03C96.3,3.04,96.279,3.05,96.26,3.05c-0.01,0.01-0.01,0.01-0.02,0.01
			c-0.04,0.02-0.07,0.05-0.102,0.08c-0.011,0-0.011,0-0.011,0c-0.028,0.04-0.062,0.08-0.09,0.13c0,0.01,0,0.02-0.011,0.03
			C96.01,3.35,96,3.4,96,3.46v9.08c0,0.25,0.21,0.46,0.46,0.46h2.021c-0.09-0.189-0.17-0.391-0.229-0.58
			c-0.05-0.13-0.09-0.26-0.12-0.4H97V4.33l5.23,4.03l0.078-0.08l0.562-0.57l-4.7-3.73h11.66l-2.801,2.22l0.57,0.59l0.09,0.09
			L111,4.34v7.68h-2.7c-0.03,0.131-0.069,0.25-0.108,0.371C108.122,12.6,108.05,12.8,107.952,13h3.58c0.26,0,0.47-0.21,0.47-0.46
			V3.46C112,3.4,111.98,3.35,111.971,3.3z"/>
	</g>
</g>
<g>
	<g>
		<path opacity="0.2" enable-background="new    " d="M23,9.42c-0.55,0-1,0.45-1,1v1.6h-5V4.33l6.48,4.99
			c0,0.039-0.01,0.067-0.01,0.1H23z"/>
		<path opacity="0.2" enable-background="new    " d="M31,4.34v5.08h-0.47c-0.03-1.34-0.88-2.56-2.12-3.09L31,4.34z"/>
		<path opacity="0.2" enable-background="new    " d="M29.83,3.98l-2.6,2.06C27.15,6.03,27.08,6.03,27,6.03
			c-0.12,0-0.24,0-0.37,0.02c-1.34,0.12-2.5,1.02-2.95,2.3l-5.51-4.37H29.83z"/>
	</g>
	<g>
		<path d="M31.97,3.3c-0.01-0.01-0.01-0.03-0.02-0.04c-0.02-0.04-0.05-0.08-0.08-0.11c0-0.01,0-0.01-0.01-0.02
			c-0.03-0.03-0.06-0.05-0.1-0.07c-0.01-0.01-0.02-0.01-0.03-0.01C31.67,3.02,31.61,3,31.53,3H16.44c-0.04,0.01-0.08,0.02-0.12,0.03
			c-0.02,0.01-0.04,0.01-0.06,0.02c-0.01,0.01-0.01,0.01-0.02,0.01c-0.04,0.02-0.07,0.04-0.1,0.07c0,0.01,0,0.01-0.01,0.01
			c-0.03,0.04-0.06,0.08-0.08,0.13c-0.01,0.01-0.01,0.02-0.02,0.03C16.02,3.35,16,3.4,16,3.46v9.08c0,0.25,0.21,0.46,0.47,0.46H22
			v-0.98h-5V4.33l6.48,4.99V9.29c0-0.04,0.01-0.101,0.02-0.149c0.02-0.229,0.06-0.439,0.12-0.641c0.01-0.02,0.01-0.04,0.02-0.06
			c0.01-0.03,0.02-0.06,0.04-0.09l-5.51-4.37h11.66l-2.6,2.06c0.06,0,0.11,0.01,0.16,0.01c0.08,0.01,0.16,0.02,0.25,0.04
			c0.28,0.05,0.53,0.13,0.76,0.24h0.01L31,4.34v5.08c0.55,0,1,0.45,1,1V3.46C32,3.4,31.99,3.35,31.97,3.3z"/>
	</g>
</g>
<g>
	<g>
		<g>
			<g>
				<g>
					<path d="M109.971,10.85c-0.041,0.11-0.141,0.17-0.25,0.17h-2.271c-0.021,0.353-0.091,0.683-0.2,1c0,0.03-0.01,0.052-0.02,0.08
						c-0.103,0.32-0.25,0.621-0.433,0.9c-0.021,0.04-0.04,0.07-0.06,0.1c-0.75,1.15-2.051,1.9-3.53,1.9
						c-1.46,0-2.771-0.75-3.529-1.9c-0.021-0.028-0.04-0.06-0.061-0.1c-0.181-0.279-0.32-0.58-0.42-0.9
						c-0.011-0.028-0.021-0.05-0.021-0.08c-0.108-0.31-0.17-0.629-0.198-0.97c-0.012-0.149,0.101-0.28,0.25-0.29
						c0.011,0,0.011,0,0.021,0c0.069,0,0.13,0.021,0.181,0.07c0.029,0.02,0.051,0.04,0.069,0.07c0.01,0.028,0.021,0.06,0.03,0.1
						c0.05,0.38,0.18,0.73,0.397,1.02c0.013,0.03,0.03,0.052,0.052,0.08c0.398,0.53,1.039,0.871,1.75,0.871s1.351-0.341,1.75-0.871
						c0.021-0.028,0.039-0.05,0.051-0.08c0.22-0.289,0.35-0.629,0.397-1h-2.27c-0.11,0-0.21-0.06-0.261-0.17
						c-0.041-0.1-0.012-0.22,0.061-0.3l1.561-1.569l0.012-0.01l0.619-0.631l0.011-0.01l1.84-1.85c0.101-0.1,0.28-0.1,0.39,0
						l0.342,0.34l0.011,0.01l0.647,0.66l3.03,3.06C110,10.63,110.02,10.75,109.971,10.85z"/>
					<path fill="#FFFFFF" d="M105.5,6.48c0.05-0.05,0.12-0.07,0.189-0.07c0.068,0,0.141,0.02,0.198,0.07
						C105.779,6.38,105.6,6.38,105.5,6.48z"/>
				</g>
				<path fill="#FFFFFF" d="M105.891,6.48c-0.061-0.05-0.131-0.07-0.199-0.07c-0.069,0-0.142,0.02-0.189,0.07
					C105.6,6.38,105.779,6.38,105.891,6.48z"/>
			</g>
		</g>
	</g>
</g>
<g>
	<path d="M84.523,9.95c-0.84,0-1.523,0.686-1.523,1.528C83,12.314,83.684,13,84.523,13c0.838,0,1.521-0.686,1.521-1.521
		C86.048,10.636,85.363,9.95,84.523,9.95z"/>
	<path d="M88.629,12.979c-0.494,0-0.895-0.396-0.895-0.896c0-2.104-1.713-3.815-3.822-3.815c-0.493,0-0.895-0.401-0.895-0.894
		c0-0.494,0.396-0.896,0.895-0.896c3.097,0,5.611,2.514,5.611,5.607C89.525,12.575,89.124,12.979,88.629,12.979z"/>
	<path d="M92.107,12.979c-0.498,0-0.897-0.396-0.897-0.896c0-4.02-3.271-7.291-7.298-7.291c-0.493,0-0.896-0.4-0.896-0.895
		S83.419,3,83.912,3C88.923,3,93,7.076,93,12.083C93.003,12.575,92.602,12.979,92.107,12.979z"/>
</g>
<g>
	<path opacity="0.4" enable-background="new    " d="M63.09,1h-8.147c-0.5,0-0.911,0.406-0.911,0.911V4h3.026
		c0.5,0,0.911,0.406,0.911,0.911V8h3.41l2.613,4V1.911C64,1.407,63.588,1,63.09,1z"/>
	<path opacity="0.8" enable-background="new    " d="M54.032,7.089V4H48.91C48.412,4,48,4.406,48,4.911L48.018,15l2.611-4h6.43
		c0.5,0,0.912-0.406,0.912-0.91V8h-3.03C54.443,8,54.032,7.593,54.032,7.089z"/>
	<path opacity="0.4" enable-background="new    " d="M57.059,4h-3.021v3.089C54.038,7.593,54.449,8,54.949,8h3.031V4.911
		C57.971,4.406,57.559,4,57.059,4z"/>
	<path d="M57.059,4h-3.021v3.089C54.038,7.593,54.449,8,54.949,8h3.031V4.911C57.971,4.406,57.559,4,57.059,4z"/>
</g>
<g>
	<path opacity="0.4" enable-background="new    " d="M80,1.91v5.18c0,0.47-0.37,0.86-0.82,0.9c-0.369-0.75-1.01-1.35-1.789-1.67
		c-0.279-0.13-0.601-0.22-0.939-0.26C76.29,6.04,76.141,6.03,76,6.03c-0.12,0-0.25,0-0.37,0.02c-0.58,0.04-1.149,0.26-1.649,0.6
		c0,0,0,0-0.011,0.01V4.91c0-0.13-0.028-0.24-0.069-0.35c-0.021-0.04-0.039-0.08-0.061-0.12c-0.02-0.03-0.04-0.06-0.06-0.09
		c-0.062-0.07-0.13-0.14-0.21-0.19c-0.051-0.04-0.102-0.07-0.16-0.09H73.4C73.35,4.05,73.3,4.03,73.24,4.02
		C73.18,4.01,73.12,4,73.061,4H70.04V1.91c0-0.5,0.41-0.91,0.91-0.91h8.14C79.59,1,80,1.41,80,1.91z"/>
	<path opacity="0.8" enable-background="new    " d="M72,9.42c-0.55,0-1,0.45-1,1V11h-4.392L64,15V4.91C64,4.41,64.42,4,64.91,4
		h5.13v3.09c0,0.5,0.41,0.91,0.91,0.91h1.87C72.76,8.11,72.72,8.22,72.68,8.34l-0.01,0.01c-0.02,0.05-0.029,0.09-0.05,0.14
		c-0.06,0.199-0.101,0.41-0.12,0.64c-0.02,0.11-0.03,0.21-0.03,0.29H72z"/>
	<path opacity="0.4" enable-background="new    " d="M73.98,4.91v1.74c0,0,0,0-0.012,0.01c-0.29,0.2-0.55,0.45-0.779,0.74
		c-0.021,0.02-0.029,0.04-0.051,0.07C73.01,7.64,72.9,7.82,72.82,8h-1.87c-0.5,0-0.91-0.41-0.91-0.91V4h3.021
		c0.061,0,0.119,0.01,0.181,0.02c0.06,0.01,0.108,0.03,0.159,0.05h0.011c0.06,0.02,0.108,0.05,0.16,0.09
		c0.079,0.05,0.148,0.12,0.21,0.19c0.02,0.03,0.04,0.06,0.06,0.09c0.021,0.04,0.04,0.08,0.062,0.12
		C73.95,4.67,73.98,4.78,73.98,4.91z"/>
	<path d="M73.98,4.91v1.74c0,0,0,0-0.012,0.01c-0.29,0.2-0.55,0.45-0.779,0.74c-0.021,0.02-0.029,0.04-0.051,0.07
		C73.01,7.64,72.9,7.82,72.82,8h-1.87c-0.5,0-0.91-0.41-0.91-0.91V4h3.021c0.061,0,0.119,0.01,0.181,0.02
		c0.06,0.01,0.108,0.03,0.159,0.05h0.011c0.06,0.02,0.108,0.05,0.16,0.09c0.079,0.05,0.148,0.12,0.21,0.19
		c0.02,0.03,0.04,0.06,0.06,0.09c0.021,0.04,0.04,0.08,0.062,0.12C73.95,4.67,73.98,4.78,73.98,4.91z"/>
</g>
<rect x="32.997" y="3" opacity="0.2" enable-background="new    " width="14.003" height="7"/>
<path d="M47.938,2.622C47.783,2.255,47.422,2,47.002,2H47H33.019h-0.001c-0.14,0-0.273,0.029-0.394,0.08
	C32.257,2.233,32,2.595,32,3.021v7.097c0,0.426,0.257,0.647,0.623,0.803c0.121,0.054,0.254,0.08,0.394,0.08h0.001h5.971v2H36
	c-0.319,0-0.572,0.174-0.572,0.5c0,0.324,0.253,0.5,0.572,0.5h8c0.32,0,0.57-0.176,0.57-0.5c0-0.326-0.25-0.5-0.57-0.5h-3v-2h6
	h0.002c0.42,0,0.781-0.117,0.936-0.483c0.051-0.121,0.08-0.257,0.08-0.396v-7.1C48.018,2.878,47.988,2.743,47.938,2.622z M47,10
	H32.997V3.002H47V10z"/>
<g>
	<g>
		<path opacity="0.2" enable-background="new    " d="M7.75,9.529L1,4.335v7.685h14V4.336L8.245,9.529
			C8.093,9.625,7.901,9.625,7.75,9.529z"/>
		<polygon opacity="0.2" enable-background="new    " points="13.832,3.981 2.167,3.981 7.997,8.604 		"/>
	</g>
	<g>
		<path d="M15.968,3.303c-0.006-0.015-0.012-0.028-0.02-0.043c-0.021-0.04-0.045-0.078-0.077-0.111
			c-0.004-0.005-0.006-0.01-0.011-0.015c-0.031-0.03-0.064-0.057-0.103-0.078c-0.007-0.004-0.016-0.002-0.023-0.006
			C15.672,3.02,15.606,3,15.533,3H0.467C0.458,3,0.451,3.005,0.442,3.005C0.4,3.009,0.359,3.017,0.318,3.031
			c-0.02,0.007-0.039,0.015-0.057,0.022C0.254,3.057,0.248,3.058,0.242,3.062c-0.039,0.02-0.074,0.045-0.103,0.074
			C0.136,3.137,0.135,3.139,0.133,3.141c-0.037,0.037-0.064,0.08-0.086,0.125c-0.006,0.011-0.01,0.021-0.014,0.032
			C0.014,3.349,0,3.402,0,3.458v0.258v8.494v0.331C0,12.788,0.208,13,0.467,13h0.288h14.327h0.452c0.258,0,0.467-0.212,0.467-0.459
			V12.21V3.716V3.458C16,3.404,15.986,3.353,15.968,3.303z M13.832,3.981L7.997,8.604l-5.83-4.623H13.832z M7.75,9.529
			c0.151,0.096,0.344,0.096,0.495,0L15,4.336v7.684H1V4.335L7.75,9.529z"/>
	</g>
</g>
<g>
	<g>
		<g>
			<g>
				<g>
					<g>
						<path d="M78.53,10.42V9.49c0-0.28-0.05-0.562-0.142-0.812C78.3,8.43,78.17,8.2,78,8c-0.26-0.33-0.609-0.6-1.01-0.76
							c-0.21-0.1-0.44-0.16-0.67-0.19C76.22,7.04,76.109,7.03,76,7.03c-0.08,0-0.16,0-0.24,0.01C75.04,7.1,74.41,7.47,73.99,8h-0.01
							v0.01c0,0.01-0.012,0.01-0.012,0.021c-0.148,0.2-0.27,0.41-0.35,0.649C73.609,8.7,73.6,8.73,73.59,8.75c0,0,0,0,0,0.01
							c-0.06,0.16-0.09,0.33-0.1,0.51C73.47,9.34,73.47,9.42,73.47,9.49v0.93H72v5.61h8v-5.61H78.53z M74.439,10.42V9.49
							c0-0.12,0.011-0.24,0.029-0.352c0.04-0.158,0.11-0.318,0.2-0.46c0.17-0.26,0.41-0.47,0.71-0.6c0.189-0.07,0.4-0.12,0.62-0.12
							h0.021c0.859,0.02,1.539,0.7,1.539,1.53v0.93L74.439,10.42L74.439,10.42z"/>
						<path fill="#FFFFFF" d="M73.97,8v0.03c0-0.01,0.011-0.01,0.011-0.021V8H73.97z"/>
					</g>
				</g>
			</g>
		</g>
	</g>
</g>
<path d="M29.53,10.42V9.49c0-1.01-0.64-1.89-1.54-2.25c-0.17-0.09-0.36-0.14-0.55-0.17c-0.01,0-0.01,0-0.02,0
	c-0.03-0.01-0.07-0.02-0.1-0.02c-0.1-0.01-0.21-0.02-0.32-0.02c-0.08,0-0.16,0-0.24,0.01c-1.02,0.09-1.87,0.78-2.17,1.71
	c0,0,0,0,0,0.01c-0.06,0.16-0.09,0.33-0.1,0.51c-0.01,0.021-0.01,0.052-0.01,0.08v0.03c-0.01,0.04-0.01,0.08-0.01,0.11v0.93H23
	v5.609h8V10.42H29.53z M28.56,9.49v0.93h-3.12V9.49c0-0.12,0.01-0.24,0.03-0.353C25.64,8.47,26.26,7.96,27,7.96h0.02
	C27.88,7.98,28.56,8.66,28.56,9.49z"/>
</svg>
