<?xml version="1.0" encoding="utf-8"?>
<!-- DeepDark custom icon -->
<!DOCTYPE svg PUBLIC "-//W3C//DTD SVG 1.1//EN" "http://www.w3.org/Graphics/SVG/1.1/DTD/svg11.dtd">
<svg version="1.1" id="Layer_1" xmlns="http://www.w3.org/2000/svg" xmlns:xlink="http://www.w3.org/1999/xlink" x="0px" y="0px"
	 width="24px" height="24px" viewBox="0 0 24 24" enable-background="new 0 0 24 24" xml:space="preserve" fill="context-fill">
<g>
	<path d="M12,1C5.926,1,1,5.925,1,12.001C1,18.075,5.926,23,12,23c6.075,0,11-4.925,11-10.999C23,5.925,18.075,1,12,1z
		 M5.752,14.046c-0.964,0-1.744-0.78-1.744-1.745c0-0.963,0.78-1.743,1.744-1.743c0.963,0,1.744,0.78,1.744,1.743
		C7.496,13.266,6.715,14.046,5.752,14.046z M12,17.762c-1.725,0-4.012-1.66-4.012-2.914c0-0.187,0.151-0.339,0.339-0.339h7.347
		c0.188,0,0.338,0.151,0.338,0.339C16.012,16.102,13.725,17.762,12,17.762z M16.455,12.2c0-0.964,0.779-1.744,1.744-1.744
		c0.963,0,1.744,0.78,1.744,1.744c0,0.962-0.781,1.743-1.744,1.743C17.234,13.943,16.455,13.162,16.455,12.2z"/>
</g>
</svg>
