<?xml version="1.0" encoding="utf-8"?>
<!-- DeepDark custom icon -->
<!DOCTYPE svg PUBLIC "-//W3C//DTD SVG 1.1//EN" "http://www.w3.org/Graphics/SVG/1.1/DTD/svg11.dtd">
<svg version="1.1" xmlns="http://www.w3.org/2000/svg" xmlns:xlink="http://www.w3.org/1999/xlink" x="0px" y="0px" width="32px"
	 height="32px" viewBox="0 0 32 32" enable-background="new 0 0 32 32" xml:space="preserve" fill="context-fill" fill-opacity="context-fill-opacity">
<g id="spring" display="none">
	<image display="inline" overflow="visible" width="32" height="32" xlink:href="spring.png">
	</image>
</g>
<g id="Layer_2">
	<g>
		<path d="M5.512,13.074l-4.317,2.493C1.04,15.656,0.945,15.821,0.945,16s0.095,0.344,0.25,0.433l4.317,2.493
			c0.077,0.045,0.164,0.067,0.25,0.067s0.173-0.022,0.25-0.067c0.155-0.089,0.25-0.254,0.25-0.433v-4.986
			c0-0.179-0.095-0.344-0.25-0.433C5.858,12.985,5.667,12.985,5.512,13.074z"/>
		<path d="M30.805,15.567l-4.317-2.493c-0.154-0.089-0.346-0.089-0.5,0c-0.154,0.089-0.25,0.254-0.25,0.433v4.986
			c0,0.179,0.096,0.344,0.25,0.433c0.077,0.045,0.164,0.067,0.25,0.067s0.173-0.022,0.25-0.067l4.317-2.493
			c0.154-0.089,0.25-0.254,0.25-0.433S30.959,15.656,30.805,15.567z"/>
		<path d="M14.597,15.5h-1.871c-0.276,0-0.5,0.224-0.5,0.5s0.224,0.5,0.5,0.5h1.871c0.276,0,0.5-0.224,0.5-0.5
			S14.873,15.5,14.597,15.5z"/>
		<path d="M9.919,15.5H8.048c-0.276,0-0.5,0.224-0.5,0.5s0.224,0.5,0.5,0.5h1.871c0.276,0,0.5-0.224,0.5-0.5S10.196,15.5,9.919,15.5
			z"/>
		<path d="M23.951,15.5H22.08c-0.276,0-0.5,0.224-0.5,0.5s0.224,0.5,0.5,0.5h1.871c0.276,0,0.5-0.224,0.5-0.5
			S24.228,15.5,23.951,15.5z"/>
		<path d="M19.273,15.5h-1.87c-0.276,0-0.5,0.224-0.5,0.5s0.224,0.5,0.5,0.5h1.87c0.276,0,0.5-0.224,0.5-0.5S19.55,15.5,19.273,15.5
			z"/>
	</g>
</g>
</svg>
