<?xml version="1.0" encoding="utf-8"?>
<!-- DeepDark custom icon -->
<!DOCTYPE svg PUBLIC "-//W3C//DTD SVG 1.1//EN" "http://www.w3.org/Graphics/SVG/1.1/DTD/svg11.dtd">
<svg version="1.1" id="Layer_1" xmlns="http://www.w3.org/2000/svg" xmlns:xlink="http://www.w3.org/1999/xlink" x="0px" y="0px"
	 width="16px" height="16px" viewBox="0 0 16 16" enable-background="new 0 0 16 16" xml:space="preserve" fill="context-fill">
<path d="M10.646,9.244l2.293-2.293c0.391-0.391,0.391-1.023,0-1.414c-0.826-0.831-1.949-1.296-3.121-1.293H9.646
	c-1.333,0-2.413-1.081-2.413-2.414V1.244c0-0.552-0.448-1-1-1c-0.265,0-0.52,0.105-0.707,0.293l-5,5
	c-0.391,0.391-0.39,1.024,0,1.414c0.188,0.188,0.442,0.293,0.707,0.293h0.586c1.333,0,2.414,1.081,2.414,2.414v0.169
	c-0.048,1.202,0.442,2.362,1.337,3.166c0.396,0.351,0.996,0.332,1.37-0.042l2.292-2.293c0,0,6.132,5.475,6.516,5.077
	C16.122,15.348,10.646,9.244,10.646,9.244z"/>
</svg>
