<?xml version="1.0" encoding="utf-8"?>
<!-- DeepDark custom icon -->
<!DOCTYPE svg PUBLIC "-//W3C//DTD SVG 1.1//EN" "http://www.w3.org/Graphics/SVG/1.1/DTD/svg11.dtd">
<svg version="1.1" id="symbol-replied" xmlns="http://www.w3.org/2000/svg" xmlns:xlink="http://www.w3.org/1999/xlink" x="0px"
	 y="0px" width="16px" height="16px" viewBox="-2.5 0 16 16" enable-background="new -2.5 0 16 16" xml:space="preserve" fill="context-fill">
<g>
	<path d="M8.119,4.691C7.641,4.497,7.102,4.395,6.563,4.395V3.07c0-0.194-0.112-0.371-0.289-0.453
		C6.098,2.533,5.889,2.562,5.739,2.688L2.286,5.597C2.174,5.692,2.108,5.832,2.108,5.979s0.065,0.287,0.178,0.382l3.453,2.911
		c0.093,0.076,0.206,0.117,0.322,0.117c0.071,0,0.145-0.017,0.211-0.048C6.449,9.26,6.563,9.083,6.563,8.889V7.524
		c1.36,0.001,2.469,1.14,2.469,2.541c0,0.809-0.381,1.574-1.02,2.049c-0.207,0.154-0.263,0.441-0.127,0.662
		c0.094,0.154,0.258,0.238,0.426,0.238c0.076,0,0.152-0.017,0.225-0.053C10.057,12.201,11,10.654,11,8.925
		C11,7.032,9.836,5.329,8.119,4.691z"/>
	<path d="M4.45,10.02c0,0.149-0.07,0.289-0.18,0.379l-3.45,2.91c-0.15,0.131-0.36,0.16-0.54,0.07c-0.15-0.07-0.26-0.221-0.28-0.38
		V7.038c0.02-0.159,0.13-0.31,0.28-0.379c0.07-0.03,0.14-0.051,0.21-0.051c0.12,0,0.23,0.04,0.33,0.12l3.45,2.911
		C4.38,9.729,4.45,9.869,4.45,10.02z"/>
</g>
</svg>
