<?xml version="1.0" encoding="utf-8"?>
<!-- DeepDark custom icon -->
<!DOCTYPE svg PUBLIC "-//W3C//DTD SVG 1.1//EN" "http://www.w3.org/Graphics/SVG/1.1/DTD/svg11.dtd">
<svg version="1.1" id="symbol-replied" xmlns="http://www.w3.org/2000/svg" xmlns:xlink="http://www.w3.org/1999/xlink" x="0px"
	 y="0px" width="16px" height="16px" viewBox="0 0 16 16" enable-background="new 0 0 16 16" xml:space="preserve" fill="context-fill">
<path d="M6.435,5.217C6.914,5.022,7.453,4.92,7.993,4.92V3.595c0-0.194,0.113-0.371,0.289-0.453
	c0.176-0.083,0.384-0.055,0.533,0.071l3.453,2.909c0.112,0.095,0.179,0.235,0.179,0.382s-0.066,0.288-0.179,0.383l-3.453,2.91
	C8.722,9.874,8.608,9.914,8.493,9.914c-0.072,0-0.144-0.016-0.211-0.047c-0.177-0.082-0.289-0.26-0.289-0.453V8.05
	c-1.361,0.001-2.469,1.14-2.469,2.54c0,0.809,0.381,1.575,1.019,2.049c0.207,0.155,0.263,0.442,0.127,0.664
	c-0.094,0.152-0.258,0.237-0.426,0.237c-0.076,0-0.152-0.017-0.224-0.054c-1.522-0.76-2.466-2.307-2.466-4.036
	C3.554,7.557,4.718,5.854,6.435,5.217z"/>
</svg>
