<?xml version="1.0" encoding="utf-8"?>
<!DOCTYPE svg PUBLIC "-//W3C//DTD SVG 1.1//EN" "http://www.w3.org/Graphics/SVG/1.1/DTD/svg11.dtd">
<svg version="1.1" id="symbol_imapdeleted" xmlns="http://www.w3.org/2000/svg" xmlns:xlink="http://www.w3.org/1999/xlink" x="0px"
	 y="0px" width="16px" height="16px" viewBox="-2.5 0 16 16" enable-background="new -2.5 0 16 16" xml:space="preserve" fill="context-fill">
<path d="M9.035,4.464c-1.951-1.953-5.118-1.953-7.071,0c-1.953,1.952-1.953,5.119,0,7.072c1.953,1.952,5.12,1.952,7.071,0
	C10.987,9.583,10.988,6.417,9.035,4.464z M2.937,5.438c1.257-1.259,3.211-1.391,4.625-0.41l-5.033,5.035
	C1.547,8.648,1.679,6.695,2.937,5.438z M3.507,11.027l5.021-5.021c0.927,1.406,0.771,3.32-0.465,4.556
	C6.828,11.799,4.913,11.954,3.507,11.027z"/>
</svg>
