<?xml version="1.0" encoding="utf-8"?>
<!-- DeepDark custom icon -->
<!DOCTYPE svg PUBLIC "-//W3C//DTD SVG 1.1//EN" "http://www.w3.org/Graphics/SVG/1.1/DTD/svg11.dtd">
<svg version="1.1" id="Layer_1" xmlns="http://www.w3.org/2000/svg" xmlns:xlink="http://www.w3.org/1999/xlink" x="0px" y="0px"
	 width="24px" height="24px" viewBox="0 0 24 24" enable-background="new 0 0 24 24" xml:space="preserve" fill="context-fill" fill-opacity="context-fill-opacity">
<g>
	<path d="M19.779,19.783c0.053-0.053,0.084-0.124,0.084-0.198c0-0.076-0.031-0.146-0.084-0.198l-2.373-2.375
		c-0.109-0.108-0.286-0.108-0.398,0c-2.761,2.764-7.256,2.762-10.017-0.003c-0.351-0.348-0.67-0.753-0.952-1.195l4.066-1.147
		c0.096-0.023,0.171-0.101,0.195-0.197c0.027-0.097-0.002-0.197-0.072-0.269L2.752,6.727C2.688,6.665,2.601,6.635,2.515,6.648
		c-0.09,0.014-0.164,0.066-0.207,0.145C1.453,8.387,1,10.188,1,12.004c0,2.938,1.145,5.7,3.22,7.777
		C8.509,24.072,15.488,24.072,19.779,19.783z"/>
	<path d="M21.247,17.271c0.065,0.061,0.153,0.092,0.239,0.079c0.088-0.015,0.164-0.067,0.205-0.145
		C22.548,15.611,23,13.812,23,11.995l0,0c0-2.938-1.146-5.7-3.221-7.778C15.491-0.072,8.511-0.072,4.22,4.216
		c-0.104,0.104-0.104,0.291,0,0.396l2.376,2.375c0.109,0.108,0.287,0.108,0.397,0c2.761-2.763,7.254-2.761,10.016,0.002
		c0.354,0.349,0.671,0.753,0.952,1.196l-4.064,1.146c-0.098,0.027-0.172,0.104-0.198,0.2c-0.021,0.094,0.003,0.198,0.075,0.269
		L21.247,17.271z"/>
</g>
</svg>
