<?xml version="1.0" encoding="utf-8"?>
<!-- DeepDark custom icon -->
<!DOCTYPE svg PUBLIC "-//W3C//DTD SVG 1.1//EN" "http://www.w3.org/Graphics/SVG/1.1/DTD/svg11.dtd">
<svg version="1.1" id="Layer_1" xmlns="http://www.w3.org/2000/svg" xmlns:xlink="http://www.w3.org/1999/xlink" x="0px" y="0px"
	 width="16px" height="16px" viewBox="0 0 16 16" enable-background="new 0 0 16 16" xml:space="preserve" fill="context-fill" fill-opacity="context-fill-opacity">
<path d="M14.21,7.38l-5.5-5.5C8.14,1.32,7.38,1,6.59,1H1.911C1.411,1,1,1.41,1,1.91v4.68c0,0.79,0.32,1.55,0.88,2.12l5.5,5.5
	c1.169,1.17,3.07,1.17,4.24,0l2.59-2.59C15.38,10.45,15.38,8.55,14.21,7.38z M5.43,7.11c-0.93,0-1.68-0.75-1.68-1.68
	c0-0.93,0.75-1.68,1.68-1.68c0.93,0,1.681,0.75,1.68,1.68C7.11,6.359,6.36,7.109,5.43,7.11z"/>
</svg>
