<?xml version="1.0" encoding="utf-8"?>
<!-- DeepDark custom icon -->
<!DOCTYPE svg PUBLIC "-//W3C//DTD SVG 1.1//EN" "http://www.w3.org/Graphics/SVG/1.1/DTD/svg11.dtd">
<svg version="1.1" id="thread-closed-eye" xmlns="http://www.w3.org/2000/svg" xmlns:xlink="http://www.w3.org/1999/xlink" x="0px"
	 y="0px" width="12.801px" height="12.801px" viewBox="0 0 12.801 12.801" enable-background="new 0 0 12.801 12.801"
	 xml:space="preserve" fill="context-fill">
<path d="M11.9,6.07c-0.08-0.09-1.52-1.74-3.57-2.48C7.74,3.371,7.091,3.23,6.4,3.23c-0.69,0-1.34,0.14-1.93,0.36
	C2.42,4.331,0.98,5.98,0.9,6.07L0.621,6.4L0.9,6.73C1,6.84,3.371,9.57,6.4,9.57c3.03,0,5.4-2.73,5.5-2.84l0.28-0.33L11.9,6.07z
	 M6.4,4.23c0.44,0,0.87,0.07,1.27,0.19c0.101,0.19,0.15,0.4,0.15,0.63c0,0.78-0.64,1.42-1.42,1.42c-0.78,0-1.42-0.64-1.42-1.42
	c0-0.23,0.05-0.44,0.15-0.63C5.53,4.3,5.96,4.23,6.4,4.23z M6.4,8.57c-1.99,0-3.74-1.49-4.43-2.17c0.39-0.38,1.11-1.02,2.02-1.51
	C3.98,4.94,3.98,5,3.98,5.05c0,1.34,1.08,2.42,2.42,2.42s2.42-1.08,2.42-2.42c0-0.05,0-0.1-0.01-0.15c0.91,0.48,1.63,1.12,2.02,1.5
	C10.141,7.08,8.391,8.57,6.4,8.57z"/>
</svg>
