<?xml version="1.0" encoding="utf-8"?>
<!-- DeepDark custom icon -->
<!DOCTYPE svg PUBLIC "-//W3C//DTD SVG 1.1//EN" "http://www.w3.org/Graphics/SVG/1.1/DTD/svg11.dtd">
<svg version="1.1" id="thread_closed_kill" xmlns="http://www.w3.org/2000/svg" xmlns:xlink="http://www.w3.org/1999/xlink" x="0px"
	 y="0px" width="16px" height="16px" viewBox="0 0 16 16" enable-background="new 0 0 16 16" xml:space="preserve">
<path fill="#CD1818" d="M8,1.53c-3.63,0-6.58,2.96-6.58,6.581c0,3.63,2.95,6.58,6.58,6.58s6.58-2.95,6.58-6.58
	C14.58,4.49,11.63,1.53,8,1.53z M8,14.19c-3.36,0-6.08-2.721-6.08-6.08C1.92,4.76,4.64,2.03,8,2.03c3.36,0,6.08,2.73,6.08,6.081
	C14.08,11.47,11.36,14.19,8,14.19z"/>
<circle fill="#F12525" cx="8" cy="8.114" r="6.08"/>
<rect x="4.519" y="7.079" fill="#FFFFFF" width="6.927" height="1.882"/>
</svg>
