<?xml version="1.0" encoding="utf-8"?>
<!DOCTYPE svg PUBLIC "-//W3C//DTD SVG 1.1//EN" "http://www.w3.org/Graphics/SVG/1.1/DTD/svg11.dtd">
<svg version="1.1" id="question" xmlns="http://www.w3.org/2000/svg" xmlns:xlink="http://www.w3.org/1999/xlink" x="0px" y="0px"
	 width="16px" height="16px" viewBox="0 0 16 16" enable-background="new 0 0 16 16" xml:space="preserve" fill="context-fill">
<path d="M12,8.5c-1.934,0-3.5,1.566-3.5,3.5s1.566,3.5,3.5,3.5s3.5-1.566,3.5-3.5S13.934,8.5,12,8.5z M12.46,14.427h-0.875v-0.844
	h0.875V14.427z M13.294,11.465c-0.075,0.105-0.216,0.241-0.425,0.405l-0.209,0.161c-0.11,0.09-0.186,0.189-0.227,0.305
	c-0.019,0.076-0.033,0.189-0.033,0.35l0.006,0.307h-0.801v-0.307c0.012-0.332,0.043-0.561,0.097-0.685
	c0.049-0.126,0.179-0.271,0.389-0.435l0.214-0.17c0.069-0.051,0.125-0.109,0.164-0.17c0.081-0.108,0.122-0.225,0.122-0.354
	c0-0.149-0.047-0.285-0.129-0.405c-0.092-0.125-0.245-0.185-0.476-0.185c-0.226,0-0.385,0.073-0.479,0.224
	c-0.096,0.15-0.146,0.312-0.146,0.473h-0.844c0.022-0.556,0.213-0.949,0.584-1.185c0.229-0.146,0.51-0.221,0.844-0.221
	c0.445,0,0.81,0.104,1.1,0.312c0.294,0.211,0.439,0.525,0.439,0.938C13.482,11.075,13.419,11.291,13.294,11.465z"/>
<circle opacity="0.25" fill="#1E1E00" enable-background="new    " cx="12" cy="12" r="4"/>
<rect x="11.579" y="13.587" fill="#1E1E1E" enable-background="new    " width="0.881" height="0.84"/>
<path fill="#1E1E1E" enable-background="new    " d="M13.479,10.826c0,0.25-0.06,0.46-0.19,0.641c-0.069,0.1-0.21,0.24-0.42,0.399
	l-0.21,0.16c-0.109,0.09-0.189,0.19-0.229,0.311c-0.021,0.069-0.03,0.189-0.03,0.35l0.01,0.3H11.6v-0.3
	c0.02-0.33,0.05-0.56,0.1-0.69c0.051-0.119,0.181-0.27,0.391-0.43l0.21-0.17c0.069-0.05,0.13-0.11,0.17-0.17
	c0.08-0.11,0.12-0.23,0.12-0.36c0-0.14-0.051-0.279-0.13-0.399c-0.091-0.13-0.24-0.19-0.471-0.19c-0.229,0-0.39,0.08-0.479,0.23
	c-0.101,0.149-0.15,0.31-0.15,0.47h-0.84c0.02-0.55,0.21-0.95,0.58-1.18c0.229-0.15,0.51-0.221,0.84-0.221
	c0.45,0,0.811,0.101,1.1,0.311C13.34,10.097,13.479,10.406,13.479,10.826z"/>
</svg>
