<?xml version="1.0" encoding="utf-8"?>
<!DOCTYPE svg PUBLIC "-//W3C//DTD SVG 1.1//EN" "http://www.w3.org/Graphics/SVG/1.1/DTD/svg11.dtd">
<svg version="1.1" id="question" xmlns="http://www.w3.org/2000/svg" xmlns:xlink="http://www.w3.org/1999/xlink" x="0px" y="0px"
	 width="16px" height="16px" viewBox="0 0 16 16" enable-background="new 0 0 16 16" xml:space="preserve" fill="context-fill">
<circle opacity="0.25" fill="#1E1E1E" enable-background="new    " cx="8" cy="8" r="8"/>
<path d="M8,0.99C4.13,0.99,0.99,4.13,0.99,8S4.13,15.01,8,15.01s7.01-3.14,7.01-7.01S11.87,0.99,8,0.99z M8.92,12.859H7.17V11.17
	h1.75V12.859z M10.59,6.93c-0.148,0.21-0.43,0.48-0.85,0.81L9.32,8.06C9.1,8.24,8.95,8.44,8.87,8.67C8.83,8.82,8.8,9.05,8.8,9.37
	l0.011,0.61H7.21V9.37C7.23,8.71,7.29,8.25,7.4,8c0.1-0.25,0.36-0.54,0.78-0.87l0.429-0.34c0.141-0.1,0.25-0.22,0.33-0.34
	C9.1,6.23,9.18,6,9.18,5.74c0-0.3-0.09-0.57-0.26-0.81C8.74,4.68,8.43,4.56,7.97,4.56c-0.45,0-0.77,0.15-0.96,0.45
	c-0.19,0.3-0.29,0.62-0.29,0.94H5.03c0.05-1.11,0.43-1.9,1.17-2.37c0.46-0.29,1.02-0.44,1.69-0.44c0.889,0,1.62,0.21,2.2,0.63
	c0.59,0.42,0.881,1.05,0.881,1.88C10.971,6.15,10.84,6.58,10.59,6.93z"/>
<rect x="7.17" y="11.17" fill="#1E1E1E" enable-background="new    " width="1.75" height="1.689"/>
<path fill="#1E1E1E" enable-background="new    " d="M10.97,5.649c0,0.5-0.13,0.93-0.38,1.28c-0.15,0.21-0.43,0.479-0.85,0.81
	L9.319,8.06C9.09,8.239,8.95,8.439,8.87,8.67C8.83,8.819,8.8,9.05,8.8,9.369l0.01,0.61h-1.6v-0.61C7.22,8.71,7.29,8.25,7.39,8
	C7.5,7.75,7.76,7.46,8.18,7.13L8.6,6.789c0.15-0.1,0.25-0.22,0.33-0.34C9.09,6.229,9.18,6,9.18,5.739c0-0.3-0.09-0.569-0.26-0.81
	C8.74,4.68,8.43,4.56,7.97,4.56c-0.45,0-0.77,0.15-0.96,0.45c-0.2,0.3-0.29,0.62-0.29,0.939h-1.69C5.08,4.84,5.46,4.05,6.2,3.579
	C6.66,3.289,7.22,3.14,7.88,3.14c0.89,0,1.63,0.21,2.21,0.63C10.68,4.189,10.97,4.819,10.97,5.649z"/>
</svg>
