<?xml version="1.0" encoding="utf-8"?>
<!DOCTYPE svg PUBLIC "-//W3C//DTD SVG 1.1//EN" "http://www.w3.org/Graphics/SVG/1.1/DTD/svg11.dtd">
<svg version="1.1" id="Layer_1" xmlns="http://www.w3.org/2000/svg" xmlns:xlink="http://www.w3.org/1999/xlink" x="0px" y="0px"
	 width="1235px" height="650px" viewBox="0 0 1235 650" enable-background="new 0 0 1235 650" xml:space="preserve">
<g>
	<rect x="0" y="0" fill="#B22234" width="1235" height="50"/>
	<rect x="0" y="50" fill="#FFFFFF" width="1235" height="50"/>
	<rect x="0" y="100" fill="#B22234" width="1235" height="50"/>
	<rect x="0" y="150" fill="#FFFFFF" width="1235" height="50"/>
	<rect x="0" y="200" fill="#B22234" width="1235" height="50"/>
	<rect x="0" y="250" fill="#FFFFFF" width="1235" height="50"/>
	<rect x="0" y="300" fill="#B22234" width="1235" height="50"/>
	<rect x="0" y="350" fill="#FFFFFF" width="1235" height="50"/>
	<rect x="0" y="400" fill="#B22234" width="1235" height="50"/>
	<rect x="0" y="450" fill="#FFFFFF" width="1235" height="50"/>
	<rect x="0" y="500" fill="#B22234" width="1235" height="50"/>
	<rect x="0" y="550" fill="#FFFFFF" width="1235" height="50"/>
	<rect x="0" y="600" fill="#B22234" width="1235" height="50"/>
	<g>
		<path fill="#3C3B6E" d="M0,0v75v100v100v75h494v-75V175V75V0H0z M448.343,28.82L452.833,15l4.49,13.819h14.53l-11.755,8.541
			l4.49,13.82l-11.756-8.541l-11.756,8.541l4.49-13.819l-11.756-8.541H448.343z M366.01,28.82L370.5,15l4.49,13.819h14.531
			l-11.756,8.541l4.49,13.819L370.5,42.639l-11.755,8.541l4.49-13.819l-11.756-8.541H366.01z M464.589,261.18l-11.756-8.541
			l-11.756,8.541l4.49-13.819l-11.756-8.541h14.531l4.49-13.819l4.49,13.819h14.53l-11.755,8.541L464.589,261.18z M423.422,226.18
			l-11.756-8.541l-11.756,8.541l4.49-13.82l-11.755-8.541h14.53l4.49-13.819l4.49,13.819h14.531l-11.756,8.541L423.422,226.18z
			 M341.089,226.18l-11.756-8.541l-11.756,8.541l4.49-13.819l-11.756-8.541h14.531l4.49-13.819l4.49,13.819h14.53l-11.755,8.541
			L341.089,226.18z M258.756,226.18L247,217.639l-11.756,8.541l4.49-13.819l-11.756-8.541h14.531L247,190l4.49,13.819h14.53
			l-11.755,8.541L258.756,226.18z M176.422,226.18l-11.755-8.541l-11.755,8.541l4.49-13.819l-11.756-8.541h14.531l4.49-13.819
			l4.49,13.819h14.531l-11.756,8.541L176.422,226.18z M94.089,226.18l-11.756-8.541l-11.756,8.541l4.49-13.819l-11.756-8.541h14.531
			L82.333,190l4.49,13.819h14.531l-11.756,8.541L94.089,226.18z M52.922,261.18l-11.755-8.541l-11.755,8.541l4.49-13.819
			l-11.756-8.541h14.531L41.166,225l4.49,13.819h14.531l-11.756,8.541L52.922,261.18z M52.922,121.18l-11.755-8.541l-11.755,8.541
			l4.49-13.819L22.146,98.82h14.531L41.166,85l4.49,13.819h14.531l-11.756,8.541L52.922,121.18z M341.089,156.18l-11.756-8.541
			l-11.756,8.541l4.49-13.819l-11.756-8.541h14.531l4.49-13.819l4.49,13.819h14.53l-11.755,8.541L341.089,156.18z M299.922,121.18
			l-11.755-8.541l-11.755,8.541l4.49-13.819l-11.756-8.541h14.531L288.166,85l4.49,13.819h14.531l-11.756,8.541L299.922,121.18z
			 M258.756,156.18L247,147.639l-11.756,8.541l4.49-13.819l-11.756-8.541h14.531L247,120l4.49,13.819h14.53l-11.755,8.541
			L258.756,156.18z M217.589,121.18l-11.756-8.541l-11.756,8.541l4.49-13.819l-11.756-8.541h14.531L205.833,85l4.49,13.819h14.531
			l-11.756,8.541L217.589,121.18z M176.422,156.18l-11.755-8.541l-11.755,8.541l4.49-13.819l-11.756-8.541h14.531l4.49-13.819
			l4.49,13.819h14.531l-11.756,8.541L176.422,156.18z M135.256,121.18l-11.756-8.541l-11.756,8.541l4.49-13.819l-11.756-8.541
			h14.531L123.5,85l4.49,13.819h14.53l-11.755,8.541L135.256,121.18z M94.089,156.18l-11.756-8.541l-11.756,8.541l4.49-13.819
			l-11.756-8.541h14.531L82.333,120l4.49,13.819h14.531l-11.756,8.541L94.089,156.18z M135.256,261.18l-11.756-8.541l-11.756,8.541
			l4.49-13.819l-11.756-8.541h14.531L123.5,225l4.49,13.819h14.53l-11.755,8.541L135.256,261.18z M135.256,191.18l-11.756-8.541
			l-11.756,8.541l4.49-13.819l-3.249-2.36l-8.507-6.181h14.531L123.5,155l4.49,13.819h14.53L134.014,175l-3.248,2.36L135.256,191.18
			z M217.589,261.18l-11.756-8.541l-11.756,8.541l4.49-13.819l-11.756-8.541h14.531l4.49-13.819l4.49,13.819h14.531l-11.756,8.541
			L217.589,261.18z M217.589,191.18l-11.756-8.541l-11.756,8.541l4.49-13.819l-3.249-2.36l-8.507-6.181h14.531l4.49-13.819
			l4.49,13.819h14.531L216.347,175l-3.249,2.36L217.589,191.18z M299.922,261.18l-11.755-8.541l-11.755,8.541l4.49-13.819
			l-11.756-8.541h14.531l4.49-13.819l4.49,13.819h14.531l-11.756,8.541L299.922,261.18z M299.922,191.18l-11.755-8.541
			l-11.755,8.541l4.49-13.819l-3.249-2.36l-8.507-6.181h14.531l4.49-13.819l4.49,13.819h14.531L298.681,175l-3.249,2.36
			L299.922,191.18z M382.255,261.18l-11.755-8.541l-11.755,8.541l4.49-13.819l-11.756-8.541h14.531L370.5,225l4.49,13.819h14.531
			l-11.756,8.541L382.255,261.18z M382.255,191.18l-11.755-8.541l-11.755,8.541l4.49-13.819l-3.249-2.36l-8.507-6.181h14.531
			L370.5,155l4.49,13.819h14.531L381.014,175l-3.249,2.36L382.255,191.18z M382.255,121.18l-11.755-8.541l-11.755,8.541l4.49-13.819
			l-11.756-8.541h14.531L370.5,85l4.49,13.819h14.531l-11.756,8.541L382.255,121.18z M423.422,156.18l-11.756-8.541l-11.756,8.541
			l4.49-13.82l-11.755-8.541h14.53l4.49-13.819l4.49,13.819h14.531l-11.756,8.541L423.422,156.18z M324.843,63.82L329.333,50
			l4.49,13.819h14.53l-11.755,8.541l0.857,2.64l3.633,11.18l-11.756-8.541l-11.756,8.541L321.21,75l0.857-2.64l-11.756-8.541
			H324.843z M283.677,28.82L288.166,15l4.49,13.819h14.531l-11.756,8.541l4.49,13.819l-11.755-8.541l-11.755,8.541l4.49-13.819
			l-11.756-8.541H283.677z M242.51,63.82L247,50l4.49,13.819h14.53l-11.755,8.541l0.857,2.64l3.633,11.18L247,77.639l-11.756,8.541
			L238.877,75l0.857-2.64l-11.756-8.541H242.51z M201.343,28.82L205.833,15l4.49,13.819h14.531l-11.756,8.541l4.49,13.819
			l-11.756-8.541l-11.756,8.541l4.49-13.819l-11.756-8.541H201.343z M160.177,63.82L164.666,50l4.49,13.819h14.531l-11.756,8.541
			l0.857,2.64l3.633,11.18l-11.755-8.541l-11.755,8.541L156.544,75l0.858-2.64l-11.756-8.541H160.177z M119.01,28.82L123.5,15
			l4.49,13.819h14.53l-11.755,8.541l4.49,13.82L123.5,42.639l-11.756,8.541l4.49-13.819l-11.756-8.541H119.01z M36.677,28.82
			L41.166,15l4.49,13.819h14.531l-11.756,8.541l4.49,13.819l-11.755-8.541L29.411,51.18l4.49-13.819L22.146,28.82H36.677z
			 M63.312,63.82h14.531L82.333,50l4.49,13.819h14.531l-11.756,8.541L90.456,75l3.633,11.18l-11.756-8.541L70.577,86.18L74.21,75
			l0.857-2.64L63.312,63.82z M22.146,168.82h14.531L41.166,155l4.49,13.819h14.531L51.681,175l-3.249,2.36l4.49,13.819
			l-11.755-8.541l-11.755,8.541l4.49-13.819L30.653,175L22.146,168.82z M52.922,331.18l-11.755-8.541l-11.755,8.541l4.49-13.819
			l-11.756-8.541h14.531L41.166,295l4.49,13.819h14.531l-11.756,8.541L52.922,331.18z M94.089,296.18l-11.756-8.541l-11.756,8.541
			l4.49-13.819L64.937,275l-1.625-1.181h14.531L82.333,260l4.49,13.819h14.531L99.73,275l-10.131,7.36L94.089,296.18z
			 M135.256,331.18l-11.756-8.541l-11.756,8.541l4.49-13.819l-11.756-8.541h14.531L123.5,295l4.49,13.819h14.53l-11.755,8.541
			L135.256,331.18z M176.422,296.18l-11.755-8.541l-11.755,8.541l4.49-13.819L147.271,275l-1.625-1.181h14.531l4.49-13.819
			l4.49,13.819h14.531L182.063,275l-10.131,7.36L176.422,296.18z M217.589,331.18l-11.756-8.541l-11.756,8.541l4.49-13.819
			l-11.756-8.541h14.531l4.49-13.819l4.49,13.819h14.531l-11.756,8.541L217.589,331.18z M258.756,296.18L247,287.639l-11.756,8.541
			l4.49-13.819L229.604,275l-1.625-1.181h14.531L247,260l4.49,13.819h14.53L264.396,275l-10.13,7.36L258.756,296.18z
			 M299.922,331.18l-11.755-8.541l-11.755,8.541l4.49-13.819l-11.756-8.541h14.531l4.49-13.819l4.49,13.819h14.531l-11.756,8.541
			L299.922,331.18z M341.089,296.18l-11.756-8.541l-11.756,8.541l4.49-13.819L311.937,275l-1.625-1.181h14.531l4.49-13.819
			l4.49,13.819h14.53L346.729,275l-10.13,7.36L341.089,296.18z M382.255,331.18l-11.755-8.541l-11.755,8.541l4.49-13.819
			l-11.756-8.541h14.531L370.5,295l4.49,13.819h14.531l-11.756,8.541L382.255,331.18z M464.589,331.18l-11.756-8.541l-11.756,8.541
			l4.49-13.819l-11.756-8.541h14.531l4.49-13.819l4.49,13.819h14.53l-11.755,8.541L464.589,331.18z M423.422,296.18l-11.756-8.541
			l-11.756,8.541l4.49-13.82l-10.13-7.36l-1.625-1.181h14.53l4.49-13.819l4.49,13.819h14.531L429.063,275l-10.131,7.36
			L423.422,296.18z M464.589,191.18l-11.756-8.541l-11.756,8.541l4.49-13.819l-3.249-2.36l-8.507-6.181h14.531l4.49-13.819
			l4.49,13.819h14.53L463.347,175l-3.248,2.36L464.589,191.18z M464.589,121.18l-11.756-8.541l-11.756,8.541l4.49-13.819
			l-11.756-8.541h14.531L452.833,85l4.49,13.819h14.53l-11.755,8.541L464.589,121.18z M423.422,86.18l-11.756-8.541L399.91,86.18
			L403.543,75l0.857-2.64l-11.755-8.541h14.53L411.666,50l4.49,13.819h14.531l-11.756,8.541l0.857,2.64L423.422,86.18z"/>
		<polygon fill="#FFFFFF" points="29.411,51.18 41.167,42.639 33.902,37.361 		"/>
		<polygon fill="#FFFFFF" points="45.656,28.82 48.432,37.361 60.188,28.82 		"/>
		<polygon fill="#FFFFFF" points="36.677,28.82 33.902,37.361 41.167,42.639 48.432,37.361 45.656,28.82 		"/>
		<polygon fill="#FFFFFF" points="41.166,15 36.677,28.82 45.656,28.82 		"/>
		<polygon fill="#FFFFFF" points="22.146,28.82 33.902,37.361 36.677,28.82 		"/>
		<polygon fill="#FFFFFF" points="52.922,51.18 48.432,37.361 41.167,42.639 		"/>
		<polygon fill="#FFFFFF" points="33.902,107.361 36.677,98.82 22.146,98.82 		"/>
		<polygon fill="#FFFFFF" points="41.167,112.639 48.432,107.361 45.656,98.82 36.677,98.82 33.902,107.361 		"/>
		<polygon fill="#FFFFFF" points="29.411,121.18 41.167,112.639 33.902,107.361 		"/>
		<polygon fill="#FFFFFF" points="60.188,98.82 45.656,98.82 48.432,107.361 		"/>
		<polygon fill="#FFFFFF" points="41.166,85 36.677,98.82 45.656,98.82 		"/>
		<polygon fill="#FFFFFF" points="52.922,121.18 48.432,107.361 41.167,112.639 		"/>
		<polygon fill="#FFFFFF" points="36.677,168.82 22.146,168.82 30.653,175 34.668,175 		"/>
		<polygon fill="#FFFFFF" points="29.411,191.18 41.167,182.639 33.902,177.361 		"/>
		<polygon fill="#FFFFFF" points="47.665,175 45.656,168.82 36.677,168.82 34.668,175 		"/>
		<polygon fill="#FFFFFF" points="41.166,155 36.677,168.82 45.656,168.82 		"/>
		<polygon fill="#FFFFFF" points="52.922,191.18 48.432,177.361 41.167,182.639 		"/>
		<polygon fill="#FFFFFF" points="30.653,175 33.902,177.361 34.668,175 		"/>
		<polygon fill="#FFFFFF" points="48.432,177.361 51.681,175 47.665,175 		"/>
		<polygon fill="#FFFFFF" points="34.668,175 33.902,177.361 41.167,182.639 48.432,177.361 47.665,175 		"/>
		<polygon fill="#FFFFFF" points="45.656,168.82 47.665,175 51.681,175 60.188,168.82 		"/>
		<polygon fill="#FFFFFF" points="36.677,238.82 33.902,247.361 41.167,252.639 48.432,247.361 45.656,238.82 		"/>
		<polygon fill="#FFFFFF" points="45.656,238.82 48.432,247.361 60.188,238.82 		"/>
		<polygon fill="#FFFFFF" points="29.411,261.18 41.167,252.639 33.902,247.361 		"/>
		<polygon fill="#FFFFFF" points="52.922,261.18 48.432,247.361 41.167,252.639 		"/>
		<polygon fill="#FFFFFF" points="22.146,238.82 33.902,247.361 36.677,238.82 		"/>
		<polygon fill="#FFFFFF" points="41.166,225 36.677,238.82 45.656,238.82 		"/>
		<polygon fill="#FFFFFF" points="41.166,295 36.677,308.82 45.656,308.82 		"/>
		<polygon fill="#FFFFFF" points="22.146,308.82 33.902,317.361 36.677,308.82 		"/>
		<polygon fill="#FFFFFF" points="45.656,308.82 48.432,317.361 60.188,308.82 		"/>
		<polygon fill="#FFFFFF" points="36.677,308.82 33.902,317.361 41.167,322.639 48.432,317.361 45.656,308.82 		"/>
		<polygon fill="#FFFFFF" points="52.922,331.18 48.432,317.361 41.167,322.639 		"/>
		<polygon fill="#FFFFFF" points="29.411,331.18 41.167,322.639 33.902,317.361 		"/>
		<polygon fill="#FFFFFF" points="101.355,63.82 86.823,63.82 89.599,72.361 		"/>
		<polygon fill="#FFFFFF" points="85.966,75 89.599,72.361 86.823,63.82 77.843,63.82 75.068,72.361 78.701,75 		"/>
		<polygon fill="#FFFFFF" points="82.333,50 77.843,63.82 86.823,63.82 		"/>
		<polygon fill="#FFFFFF" points="63.312,63.82 75.068,72.361 77.843,63.82 		"/>
		<polygon fill="#FFFFFF" points="78.701,75 82.333,77.639 85.966,75 		"/>
		<polygon fill="#FFFFFF" points="82.333,77.639 94.089,86.18 90.456,75 85.966,75 		"/>
		<polygon fill="#FFFFFF" points="75.068,72.361 74.21,75 78.701,75 		"/>
		<polygon fill="#FFFFFF" points="85.966,75 90.456,75 89.599,72.361 		"/>
		<polygon fill="#FFFFFF" points="74.21,75 70.577,86.18 82.333,77.639 78.701,75 		"/>
		<polygon fill="#FFFFFF" points="101.355,133.82 86.823,133.82 89.599,142.361 		"/>
		<polygon fill="#FFFFFF" points="70.577,156.18 82.333,147.639 75.068,142.361 		"/>
		<polygon fill="#FFFFFF" points="94.089,156.18 89.599,142.361 82.333,147.639 		"/>
		<polygon fill="#FFFFFF" points="82.333,120 77.843,133.82 86.823,133.82 		"/>
		<polygon fill="#FFFFFF" points="77.843,133.82 63.312,133.82 75.068,142.361 		"/>
		<polygon fill="#FFFFFF" points="82.333,147.639 89.599,142.361 86.823,133.82 77.843,133.82 75.068,142.361 		"/>
		<polygon fill="#FFFFFF" points="82.333,190 77.843,203.82 86.823,203.82 		"/>
		<polygon fill="#FFFFFF" points="70.577,226.18 82.333,217.639 75.068,212.361 		"/>
		<polygon fill="#FFFFFF" points="101.355,203.82 86.823,203.82 89.599,212.361 		"/>
		<polygon fill="#FFFFFF" points="82.333,217.639 89.599,212.361 86.823,203.82 77.843,203.82 75.068,212.361 		"/>
		<polygon fill="#FFFFFF" points="94.089,226.18 89.599,212.361 82.333,217.639 		"/>
		<polygon fill="#FFFFFF" points="75.068,212.361 77.843,203.82 63.312,203.82 		"/>
		<polygon fill="#FFFFFF" points="70.577,296.18 82.333,287.639 75.068,282.361 		"/>
		<polygon fill="#FFFFFF" points="64.937,275 75.068,282.361 77.459,275 		"/>
		<polygon fill="#FFFFFF" points="77.459,275 75.068,282.361 82.333,287.639 89.599,282.361 87.207,275 		"/>
		<polygon fill="#FFFFFF" points="87.207,275 86.823,273.82 77.843,273.82 77.459,275 		"/>
		<polygon fill="#FFFFFF" points="89.599,282.361 99.73,275 87.207,275 		"/>
		<polygon fill="#FFFFFF" points="82.333,260 77.843,273.82 86.823,273.82 		"/>
		<polygon fill="#FFFFFF" points="94.089,296.18 89.599,282.361 82.333,287.639 		"/>
		<polygon fill="#FFFFFF" points="77.843,273.82 63.312,273.82 64.937,275 77.459,275 		"/>
		<polygon fill="#FFFFFF" points="86.823,273.82 87.207,275 99.73,275 101.355,273.82 		"/>
		<polygon fill="#FFFFFF" points="135.256,51.18 130.766,37.36 123.5,42.639 		"/>
		<polygon fill="#FFFFFF" points="123.5,42.639 130.766,37.36 127.99,28.82 119.01,28.82 116.235,37.361 		"/>
		<polygon fill="#FFFFFF" points="111.744,51.18 123.5,42.639 116.235,37.361 		"/>
		<polygon fill="#FFFFFF" points="142.521,28.82 127.99,28.82 130.766,37.36 		"/>
		<polygon fill="#FFFFFF" points="123.5,15 119.01,28.82 127.99,28.82 		"/>
		<polygon fill="#FFFFFF" points="116.235,37.361 119.01,28.82 104.479,28.82 		"/>
		<polygon fill="#FFFFFF" points="135.256,121.18 130.766,107.36 123.5,112.639 		"/>
		<polygon fill="#FFFFFF" points="111.744,121.18 123.5,112.639 116.235,107.361 		"/>
		<polygon fill="#FFFFFF" points="116.235,107.361 119.01,98.82 104.479,98.82 		"/>
		<polygon fill="#FFFFFF" points="142.521,98.82 127.99,98.82 130.766,107.36 		"/>
		<polygon fill="#FFFFFF" points="123.5,112.639 130.766,107.36 127.99,98.82 119.01,98.82 116.235,107.361 		"/>
		<polygon fill="#FFFFFF" points="123.5,85 119.01,98.82 127.99,98.82 		"/>
		<polygon fill="#FFFFFF" points="135.256,191.18 130.766,177.36 123.5,182.639 		"/>
		<polygon fill="#FFFFFF" points="129.999,175 127.99,168.82 119.01,168.82 117.002,175 		"/>
		<polygon fill="#FFFFFF" points="119.01,168.82 104.479,168.82 112.986,175 117.002,175 		"/>
		<polygon fill="#FFFFFF" points="123.5,155 119.01,168.82 127.99,168.82 		"/>
		<polygon fill="#FFFFFF" points="111.744,191.18 123.5,182.639 116.235,177.361 		"/>
		<polygon fill="#FFFFFF" points="112.986,175 116.235,177.361 117.002,175 		"/>
		<polygon fill="#FFFFFF" points="117.002,175 116.235,177.361 123.5,182.639 130.766,177.36 129.999,175 		"/>
		<polygon fill="#FFFFFF" points="127.99,168.82 129.999,175 134.014,175 142.521,168.82 		"/>
		<polygon fill="#FFFFFF" points="130.766,177.36 134.014,175 129.999,175 		"/>
		<polygon fill="#FFFFFF" points="123.5,225 119.01,238.82 127.99,238.82 		"/>
		<polygon fill="#FFFFFF" points="123.5,252.639 130.766,247.36 127.99,238.82 119.01,238.82 116.235,247.361 		"/>
		<polygon fill="#FFFFFF" points="111.744,261.18 123.5,252.639 116.235,247.361 		"/>
		<polygon fill="#FFFFFF" points="119.01,238.82 104.479,238.82 116.235,247.361 		"/>
		<polygon fill="#FFFFFF" points="142.521,238.82 127.99,238.82 130.766,247.36 		"/>
		<polygon fill="#FFFFFF" points="135.256,261.18 130.766,247.36 123.5,252.639 		"/>
		<polygon fill="#FFFFFF" points="135.256,331.18 130.766,317.36 123.5,322.639 		"/>
		<polygon fill="#FFFFFF" points="119.01,308.82 116.235,317.361 123.5,322.639 130.766,317.36 127.99,308.82 		"/>
		<polygon fill="#FFFFFF" points="123.5,295 119.01,308.82 127.99,308.82 		"/>
		<polygon fill="#FFFFFF" points="104.479,308.82 116.235,317.361 119.01,308.82 		"/>
		<polygon fill="#FFFFFF" points="111.744,331.18 123.5,322.639 116.235,317.361 		"/>
		<polygon fill="#FFFFFF" points="127.99,308.82 130.766,317.36 142.521,308.82 		"/>
		<polygon fill="#FFFFFF" points="168.299,75 171.932,72.361 169.156,63.82 160.177,63.82 157.402,72.361 161.034,75 		"/>
		<polygon fill="#FFFFFF" points="157.402,72.361 156.544,75 161.034,75 		"/>
		<polygon fill="#FFFFFF" points="168.299,75 172.789,75 171.932,72.361 		"/>
		<polygon fill="#FFFFFF" points="164.667,77.639 176.422,86.18 172.789,75 168.299,75 		"/>
		<polygon fill="#FFFFFF" points="161.034,75 164.667,77.639 168.299,75 		"/>
		<polygon fill="#FFFFFF" points="156.544,75 152.911,86.18 164.667,77.639 161.034,75 		"/>
		<polygon fill="#FFFFFF" points="145.646,63.82 157.402,72.361 160.177,63.82 		"/>
		<polygon fill="#FFFFFF" points="183.688,63.82 169.156,63.82 171.932,72.361 		"/>
		<polygon fill="#FFFFFF" points="164.666,50 160.177,63.82 169.156,63.82 		"/>
		<polygon fill="#FFFFFF" points="152.911,156.18 164.667,147.639 157.402,142.361 		"/>
		<polygon fill="#FFFFFF" points="164.667,147.639 171.932,142.361 169.156,133.82 160.177,133.82 157.402,142.361 		"/>
		<polygon fill="#FFFFFF" points="176.422,156.18 171.932,142.361 164.667,147.639 		"/>
		<polygon fill="#FFFFFF" points="183.688,133.82 169.156,133.82 171.932,142.361 		"/>
		<polygon fill="#FFFFFF" points="164.666,120 160.177,133.82 169.156,133.82 		"/>
		<polygon fill="#FFFFFF" points="160.177,133.82 145.646,133.82 157.402,142.361 		"/>
		<polygon fill="#FFFFFF" points="176.422,226.18 171.932,212.361 164.667,217.639 		"/>
		<polygon fill="#FFFFFF" points="152.911,226.18 164.667,217.639 157.402,212.361 		"/>
		<polygon fill="#FFFFFF" points="164.667,217.639 171.932,212.361 169.156,203.82 160.177,203.82 157.402,212.361 		"/>
		<polygon fill="#FFFFFF" points="183.688,203.82 169.156,203.82 171.932,212.361 		"/>
		<polygon fill="#FFFFFF" points="157.402,212.361 160.177,203.82 145.646,203.82 		"/>
		<polygon fill="#FFFFFF" points="164.666,190 160.177,203.82 169.156,203.82 		"/>
		<polygon fill="#FFFFFF" points="147.271,275 157.402,282.361 159.793,275 		"/>
		<polygon fill="#FFFFFF" points="169.156,273.82 169.54,275 182.063,275 183.688,273.82 		"/>
		<polygon fill="#FFFFFF" points="160.177,273.82 145.646,273.82 147.271,275 159.793,275 		"/>
		<polygon fill="#FFFFFF" points="171.932,282.361 182.063,275 169.54,275 		"/>
		<polygon fill="#FFFFFF" points="169.54,275 169.156,273.82 160.177,273.82 159.793,275 		"/>
		<polygon fill="#FFFFFF" points="159.793,275 157.402,282.361 164.667,287.639 171.932,282.361 169.54,275 		"/>
		<polygon fill="#FFFFFF" points="164.666,260 160.177,273.82 169.156,273.82 		"/>
		<polygon fill="#FFFFFF" points="152.911,296.18 164.667,287.639 157.402,282.361 		"/>
		<polygon fill="#FFFFFF" points="176.422,296.18 171.932,282.361 164.667,287.639 		"/>
		<polygon fill="#FFFFFF" points="205.833,15 201.343,28.82 210.323,28.82 		"/>
		<polygon fill="#FFFFFF" points="224.855,28.82 210.323,28.82 213.099,37.361 		"/>
		<polygon fill="#FFFFFF" points="194.077,51.18 205.833,42.639 198.568,37.361 		"/>
		<polygon fill="#FFFFFF" points="217.589,51.18 213.099,37.361 205.833,42.639 		"/>
		<polygon fill="#FFFFFF" points="198.568,37.361 201.343,28.82 186.812,28.82 		"/>
		<polygon fill="#FFFFFF" points="205.833,42.639 213.099,37.361 210.323,28.82 201.343,28.82 198.568,37.361 		"/>
		<polygon fill="#FFFFFF" points="194.077,121.18 205.833,112.639 198.568,107.361 		"/>
		<polygon fill="#FFFFFF" points="224.855,98.82 210.323,98.82 213.099,107.361 		"/>
		<polygon fill="#FFFFFF" points="205.833,85 201.343,98.82 210.323,98.82 		"/>
		<polygon fill="#FFFFFF" points="205.833,112.639 213.099,107.361 210.323,98.82 201.343,98.82 198.568,107.361 		"/>
		<polygon fill="#FFFFFF" points="198.568,107.361 201.343,98.82 186.812,98.82 		"/>
		<polygon fill="#FFFFFF" points="217.589,121.18 213.099,107.361 205.833,112.639 		"/>
		<polygon fill="#FFFFFF" points="217.589,191.18 213.099,177.361 205.833,182.639 		"/>
		<polygon fill="#FFFFFF" points="210.323,168.82 212.332,175 216.347,175 224.855,168.82 		"/>
		<polygon fill="#FFFFFF" points="194.077,191.18 205.833,182.639 198.568,177.361 		"/>
		<polygon fill="#FFFFFF" points="205.833,155 201.343,168.82 210.323,168.82 		"/>
		<polygon fill="#FFFFFF" points="201.343,168.82 186.812,168.82 195.319,175 199.335,175 		"/>
		<polygon fill="#FFFFFF" points="195.319,175 198.568,177.361 199.335,175 		"/>
		<polygon fill="#FFFFFF" points="213.099,177.361 216.347,175 212.332,175 		"/>
		<polygon fill="#FFFFFF" points="212.332,175 210.323,168.82 201.343,168.82 199.335,175 		"/>
		<polygon fill="#FFFFFF" points="199.335,175 198.568,177.361 205.833,182.639 213.099,177.361 212.332,175 		"/>
		<polygon fill="#FFFFFF" points="224.855,238.82 210.323,238.82 213.099,247.361 		"/>
		<polygon fill="#FFFFFF" points="205.833,252.639 213.099,247.361 210.323,238.82 201.343,238.82 198.568,247.361 		"/>
		<polygon fill="#FFFFFF" points="194.077,261.18 205.833,252.639 198.568,247.361 		"/>
		<polygon fill="#FFFFFF" points="217.589,261.18 213.099,247.361 205.833,252.639 		"/>
		<polygon fill="#FFFFFF" points="205.833,225 201.343,238.82 210.323,238.82 		"/>
		<polygon fill="#FFFFFF" points="201.343,238.82 186.812,238.82 198.568,247.361 		"/>
		<polygon fill="#FFFFFF" points="205.833,295 201.343,308.82 210.323,308.82 		"/>
		<polygon fill="#FFFFFF" points="186.812,308.82 198.568,317.361 201.343,308.82 		"/>
		<polygon fill="#FFFFFF" points="201.343,308.82 198.568,317.361 205.833,322.639 213.099,317.361 210.323,308.82 		"/>
		<polygon fill="#FFFFFF" points="210.323,308.82 213.099,317.361 224.855,308.82 		"/>
		<polygon fill="#FFFFFF" points="194.077,331.18 205.833,322.639 198.568,317.361 		"/>
		<polygon fill="#FFFFFF" points="217.589,331.18 213.099,317.361 205.833,322.639 		"/>
		<polygon fill="#FFFFFF" points="247,50 242.51,63.82 251.49,63.82 		"/>
		<polygon fill="#FFFFFF" points="247,77.639 258.756,86.18 255.123,75 250.632,75 		"/>
		<polygon fill="#FFFFFF" points="227.979,63.82 239.735,72.361 242.51,63.82 		"/>
		<polygon fill="#FFFFFF" points="250.632,75 254.266,72.36 251.49,63.82 242.51,63.82 239.735,72.361 243.368,75 		"/>
		<polygon fill="#FFFFFF" points="266.021,63.82 251.49,63.82 254.266,72.36 		"/>
		<polygon fill="#FFFFFF" points="239.735,72.361 238.877,75 243.368,75 		"/>
		<polygon fill="#FFFFFF" points="243.368,75 247,77.639 250.632,75 		"/>
		<polygon fill="#FFFFFF" points="238.877,75 235.244,86.18 247,77.639 243.368,75 		"/>
		<polygon fill="#FFFFFF" points="250.632,75 255.123,75 254.266,72.36 		"/>
		<polygon fill="#FFFFFF" points="235.244,156.18 247,147.639 239.735,142.361 		"/>
		<polygon fill="#FFFFFF" points="242.51,133.82 227.979,133.82 239.735,142.361 		"/>
		<polygon fill="#FFFFFF" points="258.756,156.18 254.266,142.36 247,147.639 		"/>
		<polygon fill="#FFFFFF" points="247,147.639 254.266,142.36 251.49,133.82 242.51,133.82 239.735,142.361 		"/>
		<polygon fill="#FFFFFF" points="266.021,133.82 251.49,133.82 254.266,142.36 		"/>
		<polygon fill="#FFFFFF" points="247,120 242.51,133.82 251.49,133.82 		"/>
		<polygon fill="#FFFFFF" points="247,190 242.51,203.82 251.49,203.82 		"/>
		<polygon fill="#FFFFFF" points="266.021,203.82 251.49,203.82 254.266,212.36 		"/>
		<polygon fill="#FFFFFF" points="239.735,212.361 242.51,203.82 227.979,203.82 		"/>
		<polygon fill="#FFFFFF" points="258.756,226.18 254.266,212.36 247,217.639 		"/>
		<polygon fill="#FFFFFF" points="247,217.639 254.266,212.36 251.49,203.82 242.51,203.82 239.735,212.361 		"/>
		<polygon fill="#FFFFFF" points="235.244,226.18 247,217.639 239.735,212.361 		"/>
		<polygon fill="#FFFFFF" points="254.266,282.36 264.396,275 251.874,275 		"/>
		<polygon fill="#FFFFFF" points="251.49,273.82 251.874,275 264.396,275 266.021,273.82 		"/>
		<polygon fill="#FFFFFF" points="242.126,275 239.735,282.361 247,287.639 254.266,282.36 251.874,275 		"/>
		<polygon fill="#FFFFFF" points="235.244,296.18 247,287.639 239.735,282.361 		"/>
		<polygon fill="#FFFFFF" points="258.756,296.18 254.266,282.36 247,287.639 		"/>
		<polygon fill="#FFFFFF" points="229.604,275 239.735,282.361 242.126,275 		"/>
		<polygon fill="#FFFFFF" points="251.874,275 251.49,273.82 242.51,273.82 242.126,275 		"/>
		<polygon fill="#FFFFFF" points="242.51,273.82 227.979,273.82 229.604,275 242.126,275 		"/>
		<polygon fill="#FFFFFF" points="247,260 242.51,273.82 251.49,273.82 		"/>
		<polygon fill="#FFFFFF" points="288.167,42.639 295.432,37.361 292.656,28.82 283.677,28.82 280.902,37.361 		"/>
		<polygon fill="#FFFFFF" points="280.902,37.361 283.677,28.82 269.146,28.82 		"/>
		<polygon fill="#FFFFFF" points="299.922,51.18 295.432,37.361 288.167,42.639 		"/>
		<polygon fill="#FFFFFF" points="276.411,51.18 288.167,42.639 280.902,37.361 		"/>
		<polygon fill="#FFFFFF" points="288.166,15 283.677,28.82 292.656,28.82 		"/>
		<polygon fill="#FFFFFF" points="307.188,28.82 292.656,28.82 295.432,37.361 		"/>
		<polygon fill="#FFFFFF" points="288.167,112.639 295.432,107.361 292.656,98.82 283.677,98.82 280.902,107.361 		"/>
		<polygon fill="#FFFFFF" points="276.411,121.18 288.167,112.639 280.902,107.361 		"/>
		<polygon fill="#FFFFFF" points="280.902,107.361 283.677,98.82 269.146,98.82 		"/>
		<polygon fill="#FFFFFF" points="299.922,121.18 295.432,107.361 288.167,112.639 		"/>
		<polygon fill="#FFFFFF" points="307.188,98.82 292.656,98.82 295.432,107.361 		"/>
		<polygon fill="#FFFFFF" points="288.166,85 283.677,98.82 292.656,98.82 		"/>
		<polygon fill="#FFFFFF" points="299.922,191.18 295.432,177.361 288.167,182.639 		"/>
		<polygon fill="#FFFFFF" points="276.411,191.18 288.167,182.639 280.902,177.361 		"/>
		<polygon fill="#FFFFFF" points="281.668,175 280.902,177.361 288.167,182.639 295.432,177.361 294.665,175 		"/>
		<polygon fill="#FFFFFF" points="277.653,175 280.902,177.361 281.668,175 		"/>
		<polygon fill="#FFFFFF" points="292.656,168.82 294.665,175 298.681,175 307.188,168.82 		"/>
		<polygon fill="#FFFFFF" points="295.432,177.361 298.681,175 294.665,175 		"/>
		<polygon fill="#FFFFFF" points="294.665,175 292.656,168.82 283.677,168.82 281.668,175 		"/>
		<polygon fill="#FFFFFF" points="288.166,155 283.677,168.82 292.656,168.82 		"/>
		<polygon fill="#FFFFFF" points="283.677,168.82 269.146,168.82 277.653,175 281.668,175 		"/>
		<polygon fill="#FFFFFF" points="276.411,261.18 288.167,252.639 280.902,247.361 		"/>
		<polygon fill="#FFFFFF" points="299.922,261.18 295.432,247.361 288.167,252.639 		"/>
		<polygon fill="#FFFFFF" points="307.188,238.82 292.656,238.82 295.432,247.361 		"/>
		<polygon fill="#FFFFFF" points="288.167,252.639 295.432,247.361 292.656,238.82 283.677,238.82 280.902,247.361 		"/>
		<polygon fill="#FFFFFF" points="288.166,225 283.677,238.82 292.656,238.82 		"/>
		<polygon fill="#FFFFFF" points="283.677,238.82 269.146,238.82 280.902,247.361 		"/>
		<polygon fill="#FFFFFF" points="283.677,308.82 280.902,317.361 288.167,322.639 295.432,317.361 292.656,308.82 		"/>
		<polygon fill="#FFFFFF" points="288.166,295 283.677,308.82 292.656,308.82 		"/>
		<polygon fill="#FFFFFF" points="269.146,308.82 280.902,317.361 283.677,308.82 		"/>
		<polygon fill="#FFFFFF" points="299.922,331.18 295.432,317.361 288.167,322.639 		"/>
		<polygon fill="#FFFFFF" points="276.411,331.18 288.167,322.639 280.902,317.361 		"/>
		<polygon fill="#FFFFFF" points="292.656,308.82 295.432,317.361 307.188,308.82 		"/>
		<polygon fill="#FFFFFF" points="325.701,75 329.333,77.639 332.965,75 		"/>
		<polygon fill="#FFFFFF" points="322.068,72.361 321.21,75 325.701,75 		"/>
		<polygon fill="#FFFFFF" points="321.21,75 317.577,86.18 329.333,77.639 325.701,75 		"/>
		<polygon fill="#FFFFFF" points="332.965,75 336.599,72.36 333.823,63.82 324.843,63.82 322.068,72.361 325.701,75 		"/>
		<polygon fill="#FFFFFF" points="348.354,63.82 333.823,63.82 336.599,72.36 		"/>
		<polygon fill="#FFFFFF" points="329.333,77.639 341.089,86.18 337.456,75 332.965,75 		"/>
		<polygon fill="#FFFFFF" points="310.312,63.82 322.068,72.361 324.843,63.82 		"/>
		<polygon fill="#FFFFFF" points="329.333,50 324.843,63.82 333.823,63.82 		"/>
		<polygon fill="#FFFFFF" points="332.965,75 337.456,75 336.599,72.36 		"/>
		<polygon fill="#FFFFFF" points="329.333,120 324.843,133.82 333.823,133.82 		"/>
		<polygon fill="#FFFFFF" points="341.089,156.18 336.599,142.36 329.333,147.639 		"/>
		<polygon fill="#FFFFFF" points="348.354,133.82 333.823,133.82 336.599,142.36 		"/>
		<polygon fill="#FFFFFF" points="329.333,147.639 336.599,142.36 333.823,133.82 324.843,133.82 322.068,142.361 		"/>
		<polygon fill="#FFFFFF" points="317.577,156.18 329.333,147.639 322.068,142.361 		"/>
		<polygon fill="#FFFFFF" points="324.843,133.82 310.312,133.82 322.068,142.361 		"/>
		<polygon fill="#FFFFFF" points="341.089,226.18 336.599,212.36 329.333,217.639 		"/>
		<polygon fill="#FFFFFF" points="322.068,212.361 324.843,203.82 310.312,203.82 		"/>
		<polygon fill="#FFFFFF" points="317.577,226.18 329.333,217.639 322.068,212.361 		"/>
		<polygon fill="#FFFFFF" points="348.354,203.82 333.823,203.82 336.599,212.36 		"/>
		<polygon fill="#FFFFFF" points="329.333,217.639 336.599,212.36 333.823,203.82 324.843,203.82 322.068,212.361 		"/>
		<polygon fill="#FFFFFF" points="329.333,190 324.843,203.82 333.823,203.82 		"/>
		<polygon fill="#FFFFFF" points="329.333,260 324.843,273.82 333.823,273.82 		"/>
		<polygon fill="#FFFFFF" points="333.823,273.82 334.207,275 346.729,275 348.354,273.82 		"/>
		<polygon fill="#FFFFFF" points="334.207,275 333.823,273.82 324.843,273.82 324.459,275 		"/>
		<polygon fill="#FFFFFF" points="324.843,273.82 310.312,273.82 311.937,275 324.459,275 		"/>
		<polygon fill="#FFFFFF" points="317.577,296.18 329.333,287.639 322.068,282.361 		"/>
		<polygon fill="#FFFFFF" points="324.459,275 322.068,282.361 329.333,287.639 336.599,282.36 334.207,275 		"/>
		<polygon fill="#FFFFFF" points="336.599,282.36 346.729,275 334.207,275 		"/>
		<polygon fill="#FFFFFF" points="311.937,275 322.068,282.361 324.459,275 		"/>
		<polygon fill="#FFFFFF" points="341.089,296.18 336.599,282.36 329.333,287.639 		"/>
		<polygon fill="#FFFFFF" points="363.235,37.361 366.01,28.82 351.479,28.82 		"/>
		<polygon fill="#FFFFFF" points="370.5,15 366.01,28.82 374.99,28.82 		"/>
		<polygon fill="#FFFFFF" points="389.521,28.82 374.99,28.82 377.765,37.361 		"/>
		<polygon fill="#FFFFFF" points="358.744,51.18 370.5,42.639 363.235,37.361 		"/>
		<polygon fill="#FFFFFF" points="382.255,51.18 377.765,37.361 370.5,42.639 		"/>
		<polygon fill="#FFFFFF" points="370.5,42.639 377.765,37.361 374.99,28.82 366.01,28.82 363.235,37.361 		"/>
		<polygon fill="#FFFFFF" points="358.744,121.18 370.5,112.639 363.235,107.361 		"/>
		<polygon fill="#FFFFFF" points="363.235,107.361 366.01,98.82 351.479,98.82 		"/>
		<polygon fill="#FFFFFF" points="370.5,112.639 377.765,107.361 374.99,98.82 366.01,98.82 363.235,107.361 		"/>
		<polygon fill="#FFFFFF" points="382.255,121.18 377.765,107.361 370.5,112.639 		"/>
		<polygon fill="#FFFFFF" points="389.521,98.82 374.99,98.82 377.765,107.361 		"/>
		<polygon fill="#FFFFFF" points="370.5,85 366.01,98.82 374.99,98.82 		"/>
		<polygon fill="#FFFFFF" points="382.255,191.18 377.765,177.361 370.5,182.639 		"/>
		<polygon fill="#FFFFFF" points="358.744,191.18 370.5,182.639 363.235,177.361 		"/>
		<polygon fill="#FFFFFF" points="370.5,155 366.01,168.82 374.99,168.82 		"/>
		<polygon fill="#FFFFFF" points="376.998,175 374.99,168.82 366.01,168.82 364.002,175 		"/>
		<polygon fill="#FFFFFF" points="364.002,175 363.235,177.361 370.5,182.639 377.765,177.361 376.998,175 		"/>
		<polygon fill="#FFFFFF" points="377.765,177.361 381.014,175 376.998,175 		"/>
		<polygon fill="#FFFFFF" points="359.986,175 363.235,177.361 364.002,175 		"/>
		<polygon fill="#FFFFFF" points="374.99,168.82 376.998,175 381.014,175 389.521,168.82 		"/>
		<polygon fill="#FFFFFF" points="366.01,168.82 351.479,168.82 359.986,175 364.002,175 		"/>
		<polygon fill="#FFFFFF" points="382.255,261.18 377.765,247.361 370.5,252.639 		"/>
		<polygon fill="#FFFFFF" points="389.521,238.82 374.99,238.82 377.765,247.361 		"/>
		<polygon fill="#FFFFFF" points="370.5,225 366.01,238.82 374.99,238.82 		"/>
		<polygon fill="#FFFFFF" points="370.5,252.639 377.765,247.361 374.99,238.82 366.01,238.82 363.235,247.361 		"/>
		<polygon fill="#FFFFFF" points="358.744,261.18 370.5,252.639 363.235,247.361 		"/>
		<polygon fill="#FFFFFF" points="366.01,238.82 351.479,238.82 363.235,247.361 		"/>
		<polygon fill="#FFFFFF" points="358.744,331.18 370.5,322.639 363.235,317.361 		"/>
		<polygon fill="#FFFFFF" points="351.479,308.82 363.235,317.361 366.01,308.82 		"/>
		<polygon fill="#FFFFFF" points="370.5,295 366.01,308.82 374.99,308.82 		"/>
		<polygon fill="#FFFFFF" points="374.99,308.82 377.765,317.361 389.521,308.82 		"/>
		<polygon fill="#FFFFFF" points="366.01,308.82 363.235,317.361 370.5,322.639 377.765,317.361 374.99,308.82 		"/>
		<polygon fill="#FFFFFF" points="382.255,331.18 377.765,317.361 370.5,322.639 		"/>
		<polygon fill="#FFFFFF" points="403.543,75 399.91,86.18 411.666,77.639 408.034,75 		"/>
		<polygon fill="#FFFFFF" points="408.034,75 411.666,77.639 415.299,75 		"/>
		<polygon fill="#FFFFFF" points="411.666,77.639 423.422,86.18 419.789,75 415.299,75 		"/>
		<polygon fill="#FFFFFF" points="415.299,75 419.789,75 418.932,72.361 		"/>
		<polygon fill="#FFFFFF" points="430.688,63.82 416.156,63.82 418.932,72.361 		"/>
		<polygon fill="#FFFFFF" points="415.299,75 418.932,72.361 416.156,63.82 407.176,63.82 404.401,72.36 408.034,75 		"/>
		<polygon fill="#FFFFFF" points="411.666,50 407.176,63.82 416.156,63.82 		"/>
		<polygon fill="#FFFFFF" points="404.401,72.36 403.543,75 408.034,75 		"/>
		<polygon fill="#FFFFFF" points="392.646,63.82 404.401,72.36 407.176,63.82 		"/>
		<polygon fill="#FFFFFF" points="399.91,156.18 411.666,147.639 404.401,142.36 		"/>
		<polygon fill="#FFFFFF" points="423.422,156.18 418.932,142.361 411.666,147.639 		"/>
		<polygon fill="#FFFFFF" points="411.666,120 407.176,133.82 416.156,133.82 		"/>
		<polygon fill="#FFFFFF" points="411.666,147.639 418.932,142.361 416.156,133.82 407.176,133.82 404.401,142.36 		"/>
		<polygon fill="#FFFFFF" points="407.176,133.82 392.646,133.82 404.401,142.36 		"/>
		<polygon fill="#FFFFFF" points="430.688,133.82 416.156,133.82 418.932,142.361 		"/>
		<polygon fill="#FFFFFF" points="411.666,217.639 418.932,212.361 416.156,203.82 407.176,203.82 404.401,212.36 		"/>
		<polygon fill="#FFFFFF" points="423.422,226.18 418.932,212.361 411.666,217.639 		"/>
		<polygon fill="#FFFFFF" points="430.688,203.82 416.156,203.82 418.932,212.361 		"/>
		<polygon fill="#FFFFFF" points="399.91,226.18 411.666,217.639 404.401,212.36 		"/>
		<polygon fill="#FFFFFF" points="411.666,190 407.176,203.82 416.156,203.82 		"/>
		<polygon fill="#FFFFFF" points="404.401,212.36 407.176,203.82 392.646,203.82 		"/>
		<polygon fill="#FFFFFF" points="423.422,296.18 418.932,282.361 411.666,287.639 		"/>
		<polygon fill="#FFFFFF" points="399.91,296.18 411.666,287.639 404.401,282.36 		"/>
		<polygon fill="#FFFFFF" points="394.271,275 404.401,282.36 406.792,275 		"/>
		<polygon fill="#FFFFFF" points="416.54,275 416.156,273.82 407.176,273.82 406.792,275 		"/>
		<polygon fill="#FFFFFF" points="411.666,260 407.176,273.82 416.156,273.82 		"/>
		<polygon fill="#FFFFFF" points="416.156,273.82 416.54,275 429.063,275 430.688,273.82 		"/>
		<polygon fill="#FFFFFF" points="406.792,275 404.401,282.36 411.666,287.639 418.932,282.361 416.54,275 		"/>
		<polygon fill="#FFFFFF" points="407.176,273.82 392.646,273.82 394.271,275 406.792,275 		"/>
		<polygon fill="#FFFFFF" points="418.932,282.361 429.063,275 416.54,275 		"/>
		<polygon fill="#FFFFFF" points="441.077,51.18 452.833,42.639 445.568,37.361 		"/>
		<polygon fill="#FFFFFF" points="452.833,42.639 460.099,37.36 457.323,28.82 448.343,28.82 445.568,37.361 		"/>
		<polygon fill="#FFFFFF" points="464.589,51.18 460.099,37.36 452.833,42.639 		"/>
		<polygon fill="#FFFFFF" points="445.568,37.361 448.343,28.82 433.812,28.82 		"/>
		<polygon fill="#FFFFFF" points="471.854,28.82 457.323,28.82 460.099,37.36 		"/>
		<polygon fill="#FFFFFF" points="452.833,15 448.343,28.82 457.323,28.82 		"/>
		<polygon fill="#FFFFFF" points="445.568,107.361 448.343,98.82 433.812,98.82 		"/>
		<polygon fill="#FFFFFF" points="464.589,121.18 460.099,107.36 452.833,112.639 		"/>
		<polygon fill="#FFFFFF" points="452.833,112.639 460.099,107.36 457.323,98.82 448.343,98.82 445.568,107.361 		"/>
		<polygon fill="#FFFFFF" points="441.077,121.18 452.833,112.639 445.568,107.361 		"/>
		<polygon fill="#FFFFFF" points="471.854,98.82 457.323,98.82 460.099,107.36 		"/>
		<polygon fill="#FFFFFF" points="452.833,85 448.343,98.82 457.323,98.82 		"/>
		<polygon fill="#FFFFFF" points="464.589,191.18 460.099,177.36 452.833,182.639 		"/>
		<polygon fill="#FFFFFF" points="442.319,175 445.568,177.361 446.335,175 		"/>
		<polygon fill="#FFFFFF" points="446.335,175 445.568,177.361 452.833,182.639 460.099,177.36 459.332,175 		"/>
		<polygon fill="#FFFFFF" points="460.099,177.36 463.347,175 459.332,175 		"/>
		<polygon fill="#FFFFFF" points="441.077,191.18 452.833,182.639 445.568,177.361 		"/>
		<polygon fill="#FFFFFF" points="457.323,168.82 459.332,175 463.347,175 471.854,168.82 		"/>
		<polygon fill="#FFFFFF" points="452.833,155 448.343,168.82 457.323,168.82 		"/>
		<polygon fill="#FFFFFF" points="459.332,175 457.323,168.82 448.343,168.82 446.335,175 		"/>
		<polygon fill="#FFFFFF" points="448.343,168.82 433.812,168.82 442.319,175 446.335,175 		"/>
		<polygon fill="#FFFFFF" points="464.589,261.18 460.099,247.36 452.833,252.639 		"/>
		<polygon fill="#FFFFFF" points="471.854,238.82 457.323,238.82 460.099,247.36 		"/>
		<polygon fill="#FFFFFF" points="452.833,225 448.343,238.82 457.323,238.82 		"/>
		<polygon fill="#FFFFFF" points="441.077,261.18 452.833,252.639 445.568,247.361 		"/>
		<polygon fill="#FFFFFF" points="452.833,252.639 460.099,247.36 457.323,238.82 448.343,238.82 445.568,247.361 		"/>
		<polygon fill="#FFFFFF" points="448.343,238.82 433.812,238.82 445.568,247.361 		"/>
		<polygon fill="#FFFFFF" points="457.323,308.82 460.099,317.36 471.854,308.82 		"/>
		<polygon fill="#FFFFFF" points="448.343,308.82 445.568,317.361 452.833,322.639 460.099,317.36 457.323,308.82 		"/>
		<polygon fill="#FFFFFF" points="452.833,295 448.343,308.82 457.323,308.82 		"/>
		<polygon fill="#FFFFFF" points="433.812,308.82 445.568,317.361 448.343,308.82 		"/>
		<polygon fill="#FFFFFF" points="441.077,331.18 452.833,322.639 445.568,317.361 		"/>
		<polygon fill="#FFFFFF" points="464.589,331.18 460.099,317.36 452.833,322.639 		"/>
	</g>
</g>
</svg>
