<?xml version="1.0" encoding="utf-8"?>
<!-- DeepDark custom icon -->
<!DOCTYPE svg PUBLIC "-//W3C//DTD SVG 1.1//EN" "http://www.w3.org/Graphics/SVG/1.1/DTD/svg11.dtd">
<svg version="1.1" id="Layer_1" xmlns="http://www.w3.org/2000/svg" xmlns:xlink="http://www.w3.org/1999/xlink" x="0px" y="0px"
	 width="16px" height="16px" viewBox="0 0 16 16" enable-background="new 0 0 16 16" xml:space="preserve" fill="context-fill">
<path d="M15.71,13.11L9.08,1.64C8.86,1.25,8.45,1.02,8,1.02S7.14,1.25,6.92,1.64L0.3,13.11c-0.23,0.39-0.23,0.859,0,1.25
	c0.22,0.39,0.63,0.62,1.08,0.62h13.24c0.45,0,0.86-0.23,1.09-0.62C15.93,13.97,15.93,13.5,15.71,13.11z M7.1,4.92
	c0-0.5,0.4-0.9,0.9-0.9s0.9,0.4,0.9,0.9v3.9C8.9,9.31,8.5,9.72,8,9.72S7.1,9.31,7.1,8.82V4.92z M8,13.31
	c-0.62,0-1.13-0.51-1.13-1.13c0-0.63,0.51-1.13,1.13-1.13s1.13,0.5,1.13,1.13C9.13,12.8,8.62,13.31,8,13.31z"/>
</svg>
