<?xml version="1.0" encoding="UTF-8" standalone="no"?>
<svg
   xmlns="http://www.w3.org/2000/svg"
   version="1.1"
   viewBox="0 0 48 48"
   height="48"
   width="48">
   <path
      id="rect1366-2"
      d="m 15.56226,14.65644 c -1.545513,0 -2.820353,1.27797 -2.820353,2.82728 v 20.8538 c 0,1.54931 1.27484,2.82728 2.820353,2.82728 H 45.18701 C 46.732523,41.1648 48,39.88683 48,38.33752 v -20.8538 c 0,-1.54931 -1.267477,-2.82728 -2.81299,-2.82728 z"
      style="color:#000000;font-style:normal;font-variant:normal;font-weight:normal;font-stretch:normal;font-size:medium;line-height:normal;font-family:sans-serif;font-variant-ligatures:normal;font-variant-position:normal;font-variant-caps:normal;font-variant-numeric:normal;font-variant-alternates:normal;font-feature-settings:normal;text-indent:0;text-align:start;text-decoration:none;text-decoration-line:none;text-decoration-style:solid;text-decoration-color:#000000;letter-spacing:normal;word-spacing:normal;text-transform:none;writing-mode:lr-tb;direction:ltr;text-orientation:mixed;dominant-baseline:auto;baseline-shift:baseline;text-anchor:start;white-space:normal;shape-padding:0;clip-rule:nonzero;display:inline;overflow:visible;visibility:visible;opacity:1;isolation:auto;mix-blend-mode:normal;color-interpolation:sRGB;color-interpolation-filters:linearRGB;solid-color:#000000;solid-opacity:1;vector-effect:none;fill:#aaaaaa;fill-opacity:1;fill-rule:nonzero;stroke:none;stroke-width:1.53112507;stroke-linecap:butt;stroke-linejoin:miter;stroke-miterlimit:4;stroke-dasharray:none;stroke-dashoffset:0;stroke-opacity:1;color-rendering:auto;image-rendering:auto;shape-rendering:auto;text-rendering:auto;enable-background:accumulate" />
   <rect
      ry="2.0540042"
      y="12.029732"
      x="10.723005"
      height="24.968454"
      width="33.724651"
      id="rect1366"
      style="fill:#fffae1;fill-opacity:1;stroke:#505050;stroke-width:1.53094602;stroke-miterlimit:4;stroke-dasharray:none;stroke-opacity:1" />
   <path
      id="path1385"
      d="m 10.580675,18.32678 17.003918,8.91046 17.003921,-8.91046"
      style="fill:none;stroke:#505050;stroke-width:1.49816549;stroke-linecap:butt;stroke-linejoin:miter;stroke-miterlimit:4;stroke-dasharray:none;stroke-opacity:1" />
   <path
      id="path5172"
      d="m 33.02656,24.38472 11.688651,6.12514"
      style="fill:none;stroke:#505050;stroke-width:1.49816549;stroke-linecap:butt;stroke-linejoin:miter;stroke-miterlimit:4;stroke-dasharray:none;stroke-opacity:1" />
   <path
      id="path1385-1"
      d="M 10.707372,30.50986 22.269357,24.45109"
      style="fill:none;stroke:#505050;stroke-width:1.49816549;stroke-linecap:butt;stroke-linejoin:miter;stroke-miterlimit:4;stroke-dasharray:none;stroke-opacity:1" />
   <path
      id="rect5191"
      d="M 37.3125,0 A 37.678575,38.303573 0 0 1 37.857422,6.48242 37.678575,38.303573 0 0 1 0.17773438,44.78517 37.678575,38.303573 0 0 1 0,44.77538 V 48 H 48 V 0 Z"
      style="fill:#434343;fill-opacity:0.42995169;stroke:none;stroke-width:1.32258356;stroke-miterlimit:4;stroke-dasharray:none;stroke-opacity:1" />
   <path
      id="path5213"
      d="M 9.0833395,1.5406387 10.892473,7.651589 9.8537696,8.0948893 6.9571436,2.1915047 Z"
      style="fill:#ff9755;fill-opacity:1;stroke:none;stroke-width:0.79438186px;stroke-linecap:butt;stroke-linejoin:miter;stroke-opacity:1" />
   <path
      id="path5213-7"
      d="M 1.424599,8.767703 7.3598238,11.089292 7.8897378,10.091991 2.2536875,6.7044657 Z"
      style="fill:#ff9755;fill-opacity:1;stroke:none;stroke-width:0.79438186px;stroke-linecap:butt;stroke-linejoin:miter;stroke-opacity:1" />
   <path
      id="path5213-7-5"
      d="M 0.54703919,14.887614 6.8596913,14.01177 7.1428318,15.105045 0.87294419,17.087187 Z"
      style="fill:#ff9755;fill-opacity:1;stroke:none;stroke-width:0.79438186px;stroke-linecap:butt;stroke-linejoin:miter;stroke-opacity:1" />
</svg>
