<svg xmlns="http://www.w3.org/2000/svg"
     width="64"
     height="64"
     fill="context-fill"
     fill-opacity="context-fill-opacity"
     viewBox="0 0 64 64">
  <path
     d="M 17.921507,62.020452 C 19.345001,60.909203 20.979593,60 21.553932,60 23.367887,60 26.666667,52.30022 26.666667,48.066213 26.666667,44.617808 26.160211,44 23.333333,44 21.5,44 20.023823,43.55 20.05294,43 c 0.02912,-0.55 2.762819,-3.945272 6.074892,-7.545049 l 6.021951,-6.54505 5.865358,6.54505 C 41.241089,39.054728 43.907389,42.45 43.940251,43 c 0.03286,0.55 -1.365251,1 -3.106918,1 -2.450846,0 -3.347248,0.902904 -3.965526,3.994297 -1.643083,8.215414 -7.134026,12.973083 -17.534474,15.192876 -3.77205,0.805078 -3.852506,0.73859 -1.411826,-1.166721 z M 2.6666667,52 C 0.21107468,49.544408 0,47.555556 0,26.873317 0,6.8077401 0.25994696,4.1780515 2.4383209,2.2066501 4.5404217,0.30427503 8.6486273,0 32.231671,0 57.039456,0 59.792179,0.22705141 61.793349,2.4383209 63.660913,4.5019555 64,8.2923769 64,27.104988 c 0,20.618959 -0.197563,22.425908 -2.72868,24.957025 -2.269979,2.269979 -4.116871,2.662222 -10.986609,2.333334 -6.519268,-0.312108 -8.348844,-0.872756 -8.68974,-2.662848 -0.363454,-1.908538 0.900892,-2.330694 7.986608,-2.666667 L 58,48.666667 58.375647,33 58.751295,17.333333 H 32 5.2487059 L 5.6243529,33 6,48.666667 13,49.06968 c 5.910564,0.340289 7,0.807191 7,3 0,2.258973 -0.954476,2.596987 -7.333333,2.596987 C 7.1111111,54.666667 4.6868687,54.020203 2.6666667,52 Z M 58.666667,10 c 0,-1.6752137 -2.814815,-2 -17.333334,-2 C 26.814815,8 24,8.3247863 24,10 c 0,1.675214 2.814815,2 17.333333,2 14.518519,0 17.333334,-0.324786 17.333334,-2 z"
     fill="forestgreen" />
</svg>
