<?xml version="1.0" encoding="UTF-8" standalone="no"?>
<svg
   xmlns="http://www.w3.org/2000/svg"
   version="1.1"
   width="64"
   height="64"
   viewBox="0 0 64 64"
>
  <path
     d="m 57.864407,8.1355932 -18,0 c 0,-4.42 -3.58,-7.99999998 -8,-7.99999998 -4.42,0 -8,3.57999998 -8,7.99999998 l -18.0000002,0 c -1.104,0 -2,0.896 -2,1.9999998 l 0,52 c 0,1.104 0.896,2 2,2 l 52.0000002,0 c 1.104,0 2,-0.896 2,-2 l 0,-52 c 0,-1.1039998 -0.896,-1.9999998 -2,-1.9999998 z m -26,-4 c 2.208,0 4,1.792 4,4 0,2.2079998 -1.792,3.9999998 -4,3.9999998 -2.208,0 -4,-1.792 -4,-3.9999998 0,-2.208 1.792,-4 4,-4 z m 24,55.9999998 -48.0000002,0 0,-48 8.0000002,0 0,6 c 0,1.104 0.896,2 2,2 l 28,0 c 1.104,0 2,-0.896 2,-2 l 0,-6 8,0 0,48 z" />
  <path
     d="m 37.265382,33.813844 -2.03,-2.028 -10.15,10.148001 c -1.682,1.682 -1.682,4.408 0,6.088 1.682,1.68 4.408,1.682 6.09,0 l 12.18,-12.178001 c 2.804,-2.802 2.804,-7.346 0,-10.148 -2.804,-2.802 -7.348,-2.804 -10.15,0 l -12.788,12.786 c -0.01,0.01 -0.02,0.018 -0.028,0.026 -3.91,3.910001 -3.91,10.246001 0,14.154001 3.91,3.908 10.246,3.908 14.156,0 0.008,-0.008 0.016,-0.018 0.026,-0.028 l 0.002,0.002 8.73,-8.728 -2.03,-2.028 -8.73,8.726 c -0.01,0.008 -0.018,0.018 -0.026,0.026 -2.784,2.784 -7.312,2.784 -10.096,0 -2.784,-2.784 -2.784,-7.31 0,-10.094001 0.01,-0.01 0.018,-0.018 0.028,-0.026 l -0.002,-0.002 12.79,-12.786 c 1.678,-1.68 4.41,-1.68 6.09,0 1.68,1.68 1.678,4.41 0,6.088 l -12.18,12.178001 c -0.56,0.56 -1.47,0.56 -2.03,0 -0.56,-0.56 -0.56,-1.47 0,-2.028 l 10.15,-10.150001 z" />
</svg>
