<?xml version="1.0" encoding="UTF-8" standalone="no"?>
<!-- Created with Inkscape (http://www.inkscape.org/) -->

<svg
   xmlns:dc="http://purl.org/dc/elements/1.1/"
   xmlns:cc="http://creativecommons.org/ns#"
   xmlns:rdf="http://www.w3.org/1999/02/22-rdf-syntax-ns#"
   xmlns:svg="http://www.w3.org/2000/svg"
   xmlns="http://www.w3.org/2000/svg"
   xmlns:sodipodi="http://sodipodi.sourceforge.net/DTD/sodipodi-0.dtd"
   xmlns:inkscape="http://www.inkscape.org/namespaces/inkscape"
   width="16"
   height="16"
   id="svg2"
   version="1.1"
   inkscape:version="0.91 r13725"
   sodipodi:docname="attachment.svg">
  <metadata
     id="metadata10">
    <rdf:RDF>
      <cc:Work
         rdf:about="">
        <dc:format>image/svg+xml</dc:format>
        <dc:type
           rdf:resource="http://purl.org/dc/dcmitype/StillImage" />
        <dc:title></dc:title>
      </cc:Work>
    </rdf:RDF>
  </metadata>
  <defs
     id="defs8" />
  <sodipodi:namedview
     pagecolor="#ffffff"
     bordercolor="#666666"
     borderopacity="1"
     objecttolerance="10"
     gridtolerance="10"
     guidetolerance="10"
     inkscape:pageopacity="0"
     inkscape:pageshadow="2"
     inkscape:window-width="1680"
     inkscape:window-height="993"
     id="namedview6"
     showgrid="true"
     fit-margin-top="1"
     fit-margin-bottom="1"
     fit-margin-left="4"
     fit-margin-right="4"
     inkscape:zoom="40.5"
     inkscape:cx="3.8518519"
     inkscape:cy="8"
     inkscape:window-x="0"
     inkscape:window-y="0"
     inkscape:window-maximized="1"
     inkscape:current-layer="svg2"
     height="13px"
     showborder="true"
     inkscape:showpageshadow="true">
    <inkscape:grid
       type="xygrid"
       id="grid4159"
       originx="3.0114329"
       originy="3.9838628" />
  </sodipodi:namedview>
  <path
     d="M 4,11 4,4.2142857 c 0,-0.24 0.22,-0.4285714 0.5,-0.4285714 0.28,0 0.5,0.1885714 0.5,0.4285714 L 5,11 Z M 9,5.2142857 9,11 l 1,0 0,-5.7857143 c 0,-0.24 -0.22,-0.4285714 -0.5,-0.4285714 -0.28,0 -0.5,0.1885714 -0.5,0.4285714 z M 12,4 C 12,2.5771428 10.66,1 9,1 7.34,1 6,2.5771428 6,4 l 0,7 1,0 0,-6.5714286 4,0 L 11,11 12,11 Z M 9,11 C 9,11.471429 8.55,12 8,12 7.45,12 7,11.471429 7,11 l -1,0 c 0,0.942857 0.9,2 2,2 1.1,0 2,-1.057143 2,-2 z m 2,0 c 0,1.422857 -1.34,3 -3,3 -1.66,0 -3,-1.577143 -3,-3 l -1,0 c 0,1.885714 1.8,4 4,4 2.2,0 4,-2.114286 4,-4 z m 0,-7 0,0.4285714 -4,0 L 7,4 Z M 7,4 C 7,3.0571428 7.9,2 9,2 c 1.1,0 2,1.0571428 2,2 z"
     style="fill:context-fill;fill-opacity:0.9"
     id="path4"
     inkscape:connector-curvature="0"
     sodipodi:nodetypes="csssccsccssssssccccccscsccscccsccsccccccccscc" />
</svg>
