<?xml version="1.0" encoding="UTF-8" standalone="no"?>
<!-- Created with Inkscape (http://www.inkscape.org/) -->

<svg
   xmlns:dc="http://purl.org/dc/elements/1.1/"
   xmlns:cc="http://creativecommons.org/ns#"
   xmlns:rdf="http://www.w3.org/1999/02/22-rdf-syntax-ns#"
   xmlns:svg="http://www.w3.org/2000/svg"
   xmlns="http://www.w3.org/2000/svg"
   xmlns:sodipodi="http://sodipodi.sourceforge.net/DTD/sodipodi-0.dtd"
   xmlns:inkscape="http://www.inkscape.org/namespaces/inkscape"
   width="14"
   height="14"
   id="svg2"
   version="1.1"
   inkscape:version="0.91 r13725"
   sodipodi:docname="columnpicker.svg">
  <metadata
     id="metadata10">
    <rdf:RDF>
      <cc:Work
         rdf:about="">
        <dc:format>image/svg+xml</dc:format>
        <dc:type
           rdf:resource="http://purl.org/dc/dcmitype/StillImage" />
        <dc:title></dc:title>
      </cc:Work>
    </rdf:RDF>
  </metadata>
  <defs
     id="defs8" />
  <sodipodi:namedview
     pagecolor="#ffffff"
     bordercolor="#666666"
     borderopacity="1"
     objecttolerance="10"
     gridtolerance="10"
     guidetolerance="10"
     inkscape:pageopacity="0"
     inkscape:pageshadow="2"
     inkscape:window-width="1680"
     inkscape:window-height="993"
     id="namedview6"
     showgrid="true"
     fit-margin-top="0"
     fit-margin-bottom="2"
     fit-margin-left="3"
     fit-margin-right="3"
     inkscape:zoom="40.5"
     inkscape:cx="2.8518519"
     inkscape:cy="7"
     inkscape:window-x="0"
     inkscape:window-y="0"
     inkscape:window-maximized="1"
     inkscape:current-layer="svg2"
     height="13px"
     showborder="true"
     inkscape:showpageshadow="true">
    <inkscape:grid
       type="xygrid"
       id="grid4159"
       originx="2.0114329"
       originy="2.9838628" />
  </sodipodi:namedview>
  <path
     d="m 2.03125,2.06225 -0.03125,8 4,0 0,-1 -3,0 0.03125,-4 2.96875,0 0,1.96875 1,0 0,-1.96875 2.96875,0 0,2 1,0 0,-5 -8.9375,0 z m 1,1 2.96875,0 0,1 -2.96875,0 0,-1 z m 3.96875,0 2.96875,0 0,1 -2.96875,0 0,-1 z M 12.53125,8.031 6.59375,8.06225 9.5,11.406 12.53125,8.031 Z"
     style="fill:context-fill;fill-opacity:0.9"
     id="path4"
     inkscape:connector-curvature="0"
     sodipodi:nodetypes="csssccsccssssssccccccscsccscccsccsccccccccscc" />
</svg>
