<?xml version="1.0" encoding="UTF-8" standalone="no"?>
<!-- Created with Inkscape (http://www.inkscape.org/) -->

<svg
   xmlns:dc="http://purl.org/dc/elements/1.1/"
   xmlns:cc="http://creativecommons.org/ns#"
   xmlns:rdf="http://www.w3.org/1999/02/22-rdf-syntax-ns#"
   xmlns:svg="http://www.w3.org/2000/svg"
   xmlns="http://www.w3.org/2000/svg"
   xmlns:sodipodi="http://sodipodi.sourceforge.net/DTD/sodipodi-0.dtd"
   xmlns:inkscape="http://www.inkscape.org/namespaces/inkscape"
   width="14"
   height="14"
   id="svg2"
   version="1.1"
   inkscape:version="0.91 r13725"
   sodipodi:docname="junk-col.svg">
  <metadata
     id="metadata10">
    <rdf:RDF>
      <cc:Work
         rdf:about="">
        <dc:format>image/svg+xml</dc:format>
        <dc:type
           rdf:resource="http://purl.org/dc/dcmitype/StillImage" />
        <dc:title></dc:title>
      </cc:Work>
    </rdf:RDF>
  </metadata>
  <defs
     id="defs8" />
  <sodipodi:namedview
     pagecolor="#ffffff"
     bordercolor="#666666"
     borderopacity="1"
     objecttolerance="10"
     gridtolerance="10"
     guidetolerance="10"
     inkscape:pageopacity="0"
     inkscape:pageshadow="2"
     inkscape:window-width="1680"
     inkscape:window-height="993"
     id="namedview6"
     showgrid="true"
     fit-margin-top="2"
     fit-margin-bottom="2"
     fit-margin-left="2"
     fit-margin-right="2"
     inkscape:zoom="40.5"
     inkscape:cx="2.8518519"
     inkscape:cy="6"
     inkscape:window-x="0"
     inkscape:window-y="0"
     inkscape:window-maximized="1"
     inkscape:current-layer="svg2"
     height="13px"
     showborder="true"
     inkscape:showpageshadow="true">
    <inkscape:grid
       type="xygrid"
       id="grid4159"
       originx="2.0114329"
       originy="1.9838628" />
  </sodipodi:namedview>
  <path
     d="m 2,7 c 0,2.5580857 2,5 5,5 3,0 5,-2 5,-5 C 12,4 10,2 7,2 4,2 2,4 2,7 Z M 4,5.25 8.75,10 C 8.75,10 6.0114329,11.016137 4.6,9.4 3.0114329,8.0161372 4,5.25 4,5.25 Z M 9.4,4.6 C 11.011433,6.0161372 10,8.75 10,8.75 L 5.25,4 c 0,0 2.7614329,-0.9838628 4.15,0.6 z"
     style="fill:context-fill;fill-opacity:0.9"
     id="path4"
     inkscape:connector-curvature="0"
     sodipodi:nodetypes="csssccscccssc" />
</svg>
