<?xml version="1.0" encoding="UTF-8" standalone="no"?><!-- Generator: Gravit.io --><svg xmlns="http://www.w3.org/2000/svg" xmlns:xlink="http://www.w3.org/1999/xlink" style="isolation:isolate" viewBox="0 0 573 573" width="573pt" height="573pt"><defs><clipPath id="_clipPath_YsBDOVFAv8mTsw28LxfhyhEsZpmaV9KK"><rect width="573" height="573"/></clipPath></defs><g clip-path="url(#_clipPath_YsBDOVFAv8mTsw28LxfhyhEsZpmaV9KK)"><g><path d=" M 0.5 0 L 573 0.5 L 572.5 573 L 0 572.5 L 0.5 0 Z " fill="rgb(253,253,253)"/><path d=" M 472.5 152 Q 480.5 151 484.5 154 Q 486.75 150.75 494.5 153 Q 511.579 154.421 523.5 161 L 525.5 160 Q 533.751 166.249 545 169.5 Q 547.306 173.694 554 173.5 Q 555.25 178.75 552.5 180 Q 539.299 178.701 531.5 172 L 529.5 172 C 514.96 165.021 498.808 161.941 482.802 160.948 C 444.249 158.555 403.21 168.987 372.5 193 L 372.5 193 L 370.5 193 Q 321.896 225.896 260.5 246 Q 258 242.75 255.5 247 Q 235.52 256.52 206.5 257 L 201.5 256 C 196.505 260.565 188.647 260.045 182.5 259 L 182.5 259 L 180.5 256 L 170.5 259 C 151.481 256.48 132.619 252.361 114.5 246 L 114.5 246 L 107.5 248 L 95.5 241 Q 94.25 243.25 89.5 242 Q 67.586 230.414 39.5 225 Q 24.686 223.814 17 215.5 L 18.5 213 Q 34.78 212.22 43 219.5 Q 60.008 221.992 72.5 229 Q 80.761 235.239 94.5 236 Q 116.125 234.875 127.5 244 L 129.5 244 C 152.903 252.836 178.887 253.263 203.5 251 L 203.5 251 L 213.5 247 L 215.5 247 C 235.94 246.062 256.902 241.914 274.5 231 L 274.5 231 L 278.5 233 C 309.508 219.412 339.29 202.972 367 183.5 L 367 183.5 L 368.5 181 Q 387.69 176.19 401.5 166 Q 430.106 152.106 472.5 152 Z  M 469.5 241 C 496.652 238.953 524.529 239.55 551 246.5 L 551 246.5 L 553.5 250 L 555 250.5 L 554.5 254 L 552 255.5 L 551.5 258 C 536.61 249.973 519.19 247.814 502.5 248 L 502.5 248 L 500.5 249 Q 498 245.5 489.5 248 Q 434.725 247.725 398 265.5 L 397.5 268 C 387.315 269.67 377.251 273.17 369 279.5 L 369 279.5 L 366.5 283 Q 340.358 291.358 321.5 307 Q 314.5 316 299.5 317 Q 283.811 326.311 261.5 329 Q 258.477 334.477 248.5 333 Q 234.868 337.868 216.5 338 L 214.5 337 C 204.07 341.034 192.554 341.652 181.5 341 L 181.5 341 L 168.5 338 Q 165.75 341.75 156.5 339 Q 153.667 335.333 146.5 336 L 143.5 337 Q 114.492 321.508 76.5 315 Q 75.25 317.25 70.5 316 L 66.5 311 C 57.93 311.823 47.644 310.921 42.5 303 L 42.5 303 L 39.5 304 Q 32.311 298.189 20 297.5 Q 19.5 293.5 22.5 293 Q 37.138 291.862 43 299.5 L 43.5 302 L 45.5 299 C 74.349 305.835 102.808 314.394 130.5 325 L 130.5 325 L 133.5 324 L 135.5 328 Q 136.75 325.75 141.5 327 Q 144.286 331.714 153.5 330 Q 160.444 334.556 172.5 334 Q 269.737 335.737 325 295.5 Q 343.064 289.564 356.5 279 Q 361.464 270.464 373.5 269 Q 388.866 259.366 409 254.5 L 409.5 251 C 429.079 245.588 449.26 242.503 469.5 241 L 469.5 241 Z  M 464.5 322 Q 485.617 320.383 499.5 326 Q 502.571 321.071 512.5 323 Q 534.595 324.405 549 333.5 Q 549.75 337.25 547.5 338 L 529.5 333 C 525.785 338.573 518.906 331.119 514.5 332 L 514.5 332 L 512.5 333 L 499.5 330 L 497.5 330 L 494 329.5 L 493.5 328 Q 460.099 326.599 438 336.5 Q 420.402 345.402 398 349.5 L 396.5 352 C 385.994 354.458 375.914 359.052 368 366.5 L 368 366.5 L 367.5 368 Q 341.092 386.092 307.5 397 Q 275.441 418.441 223.5 420 L 221.5 419 C 220.106 421.323 216.61 420.575 214.5 420 L 214.5 420 L 187.5 422 L 178.5 420 C 177.063 422.367 173.911 422.364 171.5 422 L 171.5 422 L 147.5 415 C 141.022 409.648 131.052 416.475 125 409.5 L 125 409.5 L 124.5 408 C 105.605 404.952 86.948 399.515 70 390.5 L 70 390.5 L 69.5 389 Q 62.1 390.4 59.5 387 Q 56 383 46.5 385 Q 32.038 384.962 26 376.5 L 25 374.5 L 30.5 373 C 34.902 377.525 41.409 378.908 47.5 379 L 47.5 379 L 52.5 378 C 59.607 382.312 67.799 384.525 76 385.5 L 76 385.5 L 77.5 389 L 87.5 388 C 88.246 392.639 92.141 394.253 96.5 394 L 96.5 394 L 98.5 393 C 102.629 397.563 109.121 398.643 115 398.5 L 115 398.5 L 115.5 401 Q 128.417 401.083 137 405.5 Q 152.341 411.659 172.5 413 L 177.5 412 Q 187.563 420.438 211.5 415 Q 261.167 409.667 299.5 393 Q 320.776 379.776 346.5 371 Q 367.898 355.398 394.5 345 Q 421.274 325.274 464.5 322 Z " fill-rule="evenodd" fill="rgb(255,0,0)"/></g></g></svg>