/* XPM */
static char *msgMailRedirectWindow[] = {
"32 32 104 2 0 0",
"   c #399627",
".  c #3A9B27",
"X  c #3B9E28",
"o  c #3DAB2B",
"O  c #3FAA2A",
"+  c #4FA529",
"@  c #40B32D",
"#  c #41B82E",
"$  c #43BB2F",
"%  c #45C331",
"&  c #47C832",
"*  c #48CA32",
"=  c #48CB33",
"-  c #49CC34",
";  c #4FCB3A",
":  c #4ECD39",
">  c #51CE3C",
",  c #5EA24F",
"<  c #55CF41",
"1  c #58D044",
"2  c #5ED14B",
"3  c #62D34F",
"4  c #6BD559",
"5  c #6CD55B",
"6  c #70D75F",
"7  c #7DD96B",
"8  c #7EDA6C",
"9  c #B18266",
"0  c #B4866B",
"q  c #B5896D",
"w  c #BA8F73",
"e  c #BC9376",
"r  c #B8927D",
"t  c #C29C7D",
"y  c #82DB71",
"u  c #84DB73",
"i  c #85DC74",
"p  c #8ADD79",
"a  c #B69681",
"s  c #91BB87",
"d  c #BFA28C",
"f  c #C3A492",
"g  c #C6AE9E",
"h  c #CAAC9A",
"j  c #CEB3A2",
"k  c #D4BAAA",
"l  c #8DD482",
"z  c #93DF81",
"x  c #9AC891",
"c  c #9AE189",
"v  c #A1E391",
"b  c #A4E393",
"n  c #A4E096",
"m  c #A8E498",
"M  c #ACE49F",
"N  c #B7D0B2",
"B  c #B0E7A1",
"V  c #B1E7A3",
"C  c #B4E6A6",
"Z  c #B4E6A7",
"A  c #B3E8A4",
"S  c #BAE8AD",
"D  c #BBEAAC",
"F  c #BAE5B4",
"G  c #DBC7BB",
"H  c #C5EDB9",
"J  c #C9EEBE",
"K  c #E4D5C5",
"L  c #E7D8C5",
"P  c #E9D9C4",
"I  c #E6D9CC",
"U  c #EADCCA",
"Y  c #CCEFC1",
"T  c #D1E0CE",
"R  c #CEF0C2",
"E  c #CAF0C4",
"W  c #CEF0C4",
"Q  c #D4F1CB",
"!  c #D6F2CC",
"~  c #DDE8DA",
"^  c #D9F3D1",
"/  c #DBF3D3",
"(  c #DFF6DC",
")  c #EDE1CD",
"_  c #F2E3CC",
"`  c #EFE5D3",
"'  c #ECE4DA",
"]  c #E0E9DD",
"[  c #F2E6D3",
"{  c #F2E8D7",
"}  c #F4ECDC",
"|  c #F2EBE7",
" . c #E6F6E4",
".. c #E8F8E3",
"X. c #F8F1E4",
"o. c #FAF4E6",
"O. c #FCF6EB",
"+. c #F1FBEE",
"@. c #FDF9EE",
"#. c #F9F5F3",
"$. c #FEFCF6",
"%. c #FDFCFB",
"&. c #FCFEFB",
"*. c None",
"*.*.*.*.*.*.*.*.*.*.*.*.*.*.*.*.*.*.*.*.*.*.*.*.*.*.*.*.*.*.*.*.",
"*.*.*.*.*.*.*.*.*.*.*.*.*.*.*.*.*.*.*.*.*.*.*.*.*.*.*.*.*.*.*.*.",
"*.*.*.*.*.*.*.*.*.*.*.*.*.*.*.*.*.*.*.*.*.*.*.*.*.*.*.*.*.*.*.*.",
"*.*.*.*.*.*.*.*.*.*.*.*.*.*.*.*.*.*.*.*.*.*.*.*.*.*.*.*.*.*.*.*.",
"*.*.*.*.*.*.*.*.*.*.*.*.*.*.*.*.*.*.*.*.*.*.*.*.*.*.*.*.*.*.*.*.",
"*.*.q q q q q q 0 0 0 0 0 9 0 0 0 0 0 0 0 0 0 0 q q q q q q *.*.",
"*.*.q P _ _ _ _ _ _ _ _ _ _ _ _ _ _ _ _ _ _ _ _ _ _ _ _ P q *.*.",
"*.*.w U L [ } } } } } } } } } } } } } } } } } } } } [ L U w *.*.",
"*.*.w ) ) K [ o.o.o.o.o.o.o.o.o.o.o.o.o.o.o.o.o.o.[ K ) ) w *.*.",
"*.*.w ` ` ` K ` $.$.$.$.$.$.$.$.$.$.$.$.$.$.$.$.` K ` ` ` w *.*.",
"*.*.e { [ [ [ L K %.%.%.%.%.%.%.%.%.%.%.%.%.%.K L [ [ [ { e *.*.",
"*.*.e } } } { [ U G %.%.%.%.%.%.%.%.%.%.%.%.G U [ { } } } e *.*.",
"*.*.r } } }  .F F l l D %.%.%.+ ] %.%.%.#.k ` } } } } } } r *.*.",
"*.*.r o.X.| &.+.+...^ 7 | %.%.+ + ] %.| j [ } } } | | X.o.r *.*.",
"*.*.t o.o.o.( E E 5 R $ f ' %.+ / + ] f a I | X.X.o.o.o.o.t *.*.",
"*.*.t O.O.O.O.o.o.* V # %.f G + Q ! + ] #.d K o.o.O.O.O.O.t *.*.",
"*.*.t @.@.@.O.O.K * V # %.%.h + W m J + ] %.g K O.O.@.@.@.t *.*.",
"*.*.e { [ [ [ L K O i % @ @ . o b v V Y + ] %.K L [ [ [ { e *.*.",
"*.*.w ` ` ` K ` $.o 5 u p p z A b v v V Y + ] $.` K ` ` ` w *.*.",
"*.*.w ) ) K [ o.o., < 1 * * & & = > > 2 6 H + o.o.[ K ) ) w *.*.",
"*.*.w U L [ } } } ~   y ; ; * = = = = & : Z Z + } } [ L U w *.*.",
"*.*.q P _ _ _ _ _ ~   y ; ; * = = = = & : Z + _ _ _ _ _ P q *.*.",
"*.*.q q q q q q 0 0 s X c c z u - & & 3 S + T 0 q q q q q q *.*.",
"*.*.*.*.*.*.*.*.*.*.*.x + + + + 8 4 4 M + T *.*.*.*.*.*.*.*.*.*.",
"*.*.*.*.*.*.*.*.*.*.*.*.*.*.*.+ B C C + T *.*.*.*.*.*.*.*.*.*.*.",
"*.*.*.*.*.*.*.*.*.*.*.*.*.*.*.+ B C + T *.*.*.*.*.*.*.*.*.*.*.*.",
"*.*.*.*.*.*.*.*.*.*.*.*.*.*.*.+ n + T *.*.*.*.*.*.*.*.*.*.*.*.*.",
"*.*.*.*.*.*.*.*.*.*.*.*.*.*.*.+ + N *.*.*.*.*.*.*.*.*.*.*.*.*.*.",
"*.*.*.*.*.*.*.*.*.*.*.*.*.*.*.+ ~ *.*.*.*.*.*.*.*.*.*.*.*.*.*.*.",
"*.*.*.*.*.*.*.*.*.*.*.*.*.*.*.*.*.*.*.*.*.*.*.*.*.*.*.*.*.*.*.*.",
"*.*.*.*.*.*.*.*.*.*.*.*.*.*.*.*.*.*.*.*.*.*.*.*.*.*.*.*.*.*.*.*.",
"*.*.*.*.*.*.*.*.*.*.*.*.*.*.*.*.*.*.*.*.*.*.*.*.*.*.*.*.*.*.*.*."
};
