/* XPM */
static char *msgMailRedirectWindow16[] = {
"16 16 41 1 0",
"  c #4A9C2E",
". c #4B9E2E",
"X c #4DA12F",
"o c #50A832",
"O c #51AA32",
"+ c #54B636",
"@ c #5EC63E",
"# c #66C848",
"$ c #6AC949",
"% c #6ECA4E",
"& c #77CD59",
"* c #7DD060",
"= c #83B171",
"- c #C59E7B",
"; c #82D266",
": c #BF9E8A",
"> c #C5A181",
", c #C6AB92",
"< c #CEB7A1",
"1 c #D1BBAA",
"2 c #99D880",
"3 c #AEDF99",
"4 c #B2E19D",
"5 c #B5C9AB",
"6 c #B7E3A1",
"7 c #CBEABA",
"8 c #E7D7C6",
"9 c #ECDDC9",
"0 c #D1ECC2",
"q c #F5E9D7",
"w c #F5EDDE",
"e c #F8EEDD",
"r c #F3EDE1",
"t c #F5EFEB",
"y c #F9F3E6",
"u c #F5F0ED",
"i c #FBF5E9",
"p c #FDF9EF",
"a c #FEFCF6",
"s c #FEFEFE",
"d c None",
"dddddddddddddddd",
"dddddddddddddddd",
"d>------------>d",
"d-9qeeeeeeeeq9-d",
"d-q9rssssssr9q-d",
"d-rw88ssss88wr-d",
"d-i5y,<ut<,yyi-d",
"d-a@28s+:s81pa-d",
"d-qO+ss  ssr9q-d",
"d-9o3   0 eeq9-d",
"d>-X#66647 --->d",
"ddd ;$&%@*0 dddd",
"dddd ;;;+; ddddd",
"ddddd   ;.dddddd",
"ddddddd  ddddddd",
"ddddddd=dddddddd"
};
