<!DOCTYPE svg PUBLIC "-//W3C//DTD SVG 20010904//EN" "http://www.w3.org/TR/2001/REC-SVG-20010904/DTD/svg10.dtd">
<svg version="1.0" xmlns="http://www.w3.org/2000/svg" width="64px" height="64px" viewBox="0 0 640 640" preserveAspectRatio="xMidYMid meet">
<g id="layer101" fill="#131415" stroke="none">
 <path d="M235 630 c-3 -6 -17 -7 -30 -4 -12 3 -25 1 -29 -4 -3 -5 -17 -7 -30 -5 -21 4 -28 -2 -49 -43 -44 -87 -89 -234 -94 -309 -6 -77 1 -125 18 -125 11 0 31 -15 57 -43 9 -9 21 -17 27 -17 6 0 21 -10 35 -23 79 -71 129 -73 175 -7 41 59 198 174 280 205 25 10 45 20 45 23 0 3 -8 14 -17 25 -17 18 -17 19 0 28 9 6 17 15 17 22 0 7 -59 70 -130 140 -122 120 -133 128 -161 122 -20 -5 -38 -1 -54 9 -28 18 -51 21 -60 6z"/>
 </g>
<g id="layer102" fill="#505026" stroke="none">
 <path d="M235 630 c-3 -6 -17 -7 -30 -4 -12 3 -25 1 -29 -4 -3 -5 -17 -7 -30 -5 -21 4 -28 -2 -49 -43 -85 -169 -129 -434 -72 -434 8 0 15 -4 15 -9 0 -14 31 -22 44 -13 20 16 66 23 66 11 0 -7 -3 -9 -7 -6 -3 4 -12 2 -19 -3 -6 -6 -17 -9 -24 -8 -24 6 -21 -22 3 -31 14 -6 28 -15 32 -21 4 -6 14 -9 22 -6 10 4 13 2 10 -7 -3 -8 8 -21 28 -31 50 -27 86 -15 124 42 l32 47 -40 -45 c-23 -25 -41 -40 -41 -33 0 12 -37 12 -56 1 -5 -4 -16 -3 -23 1 -9 6 -6 10 11 16 29 9 27 9 59 1 53 -12 39 19 -32 73 -38 29 -69 55 -69 58 0 2 34 -19 75 -48 65 -45 76 -50 91 -38 9 7 23 14 31 15 20 3 43 24 40 36 -3 14 103 90 163 119 25 12 48 26 51 31 4 7 9 6 13 -1 5 -8 -51 -41 -70 -41 -10 0 -144 -94 -140 -97 2 -3 34 16 70 40 36 25 86 53 111 62 49 19 53 26 30 45 -8 7 -15 10 -15 6 0 -3 -17 13 -37 36 -72 83 -77 92 -21 39 37 -36 62 -52 72 -48 22 9 20 34 -2 41 -10 4 -36 25 -58 49 l-39 42 41 -35 c22 -19 -11 16 -74 78 -105 104 -116 113 -143 107 -20 -5 -38 -1 -54 9 -28 18 -51 21 -60 6z m64 -19 c20 -15 30 -17 47 -9 21 10 32 3 104 -62 44 -40 78 -75 75 -78 -3 -3 -34 22 -68 56 -34 34 -67 62 -72 62 -4 0 -43 -28 -84 -62 -42 -34 -70 -54 -62 -45 8 10 43 41 79 69 36 29 60 54 53 56 -41 14 -257 -209 -313 -323 -19 -38 -31 -86 -21 -84 5 1 17 1 28 0 19 -2 19 -2 2 -12 -10 -6 -25 -8 -34 -5 -11 5 -14 2 -9 -9 4 -10 2 -14 -5 -9 -8 4 -10 36 -7 91 3 64 9 88 23 101 17 16 17 16 11 -3 -4 -11 -9 -33 -12 -50 -3 -21 2 -14 15 20 11 28 20 44 20 36 2 -23 29 6 41 45 10 30 19 38 41 36 3 -1 41 34 84 78 l77 78 -27 18 c-31 20 -29 21 -93 -61 l-24 -30 22 38 c12 21 20 41 17 44 -15 14 -36 -10 -67 -76 -19 -39 -36 -69 -38 -67 -2 2 10 32 27 65 16 34 26 61 21 61 -5 0 -14 -9 -20 -20 -6 -11 -15 -18 -21 -15 -5 4 -9 1 -9 -6 0 -7 -2 -10 -5 -7 -3 3 2 22 12 43 14 29 22 36 40 32 13 -2 26 0 29 5 3 5 19 6 34 3 16 -3 31 -2 35 4 9 16 27 13 54 -8z m-136 -118 c-5 -12 -3 -14 7 -8 9 5 11 4 6 -4 -4 -6 -12 -8 -18 -5 -8 5 -9 1 -4 -12 5 -14 4 -16 -4 -8 -9 9 -9 17 -1 33 14 25 23 28 14 4z m107 -57 c0 -2 -17 -16 -37 -31 l-38 -26 35 30 c34 31 40 35 40 27z m-126 -95 c3 -4 -4 -17 -16 -27 -11 -11 -34 -39 -50 -64 -38 -58 -27 -21 15 48 31 52 41 60 51 43z m-24 -190 c0 -4 -14 -7 -30 -6 -24 1 -30 -2 -25 -13 4 -12 3 -13 -10 -2 -20 17 -20 18 18 28 33 9 47 7 47 -7z m70 -51 c0 -4 -7 -10 -15 -14 -17 -6 -47 3 -41 13 6 9 56 10 56 1z m30 -30 c-20 -13 -43 -13 -35 0 3 6 16 10 28 10 18 0 19 -2 7 -10z"/>
 </g>
<g id="layer103" fill="#383d45" stroke="none">
 <path d="M235 630 c-3 -6 -17 -7 -30 -4 -12 3 -25 1 -29 -4 -3 -5 -17 -7 -30 -5 -21 4 -28 -2 -49 -43 -44 -87 -89 -234 -94 -309 -6 -77 1 -125 18 -125 11 0 31 -15 57 -43 9 -9 22 -17 28 -17 6 0 17 -7 24 -15 7 -9 21 -13 31 -10 11 4 19 2 19 -4 0 -6 -6 -11 -12 -11 -7 0 2 -9 21 -21 52 -31 90 -20 130 39 l32 47 -41 -45 c-23 -25 -44 -40 -46 -34 -3 7 -14 10 -24 7 -11 -3 -17 -9 -14 -14 8 -13 -8 -10 -29 5 -17 13 -16 14 3 19 11 3 20 11 20 17 0 9 -3 10 -13 1 -8 -6 -17 -8 -20 -4 -14 13 -6 23 18 23 16 0 25 -6 25 -15 0 -8 6 -15 14 -15 8 0 21 -3 29 -6 8 -3 17 1 20 9 3 9 -20 33 -64 66 -38 29 -69 55 -69 58 0 2 34 -19 75 -48 65 -45 76 -50 91 -38 9 7 23 14 31 15 20 3 43 24 40 36 -3 14 103 90 163 119 25 12 48 26 51 31 4 7 9 6 13 -1 5 -8 -51 -41 -70 -41 -10 0 -144 -94 -140 -97 2 -3 34 16 70 40 36 25 86 53 111 62 49 19 53 26 30 45 -8 7 -15 10 -15 6 0 -3 -17 13 -37 36 -72 83 -77 92 -21 39 37 -36 62 -52 72 -48 22 9 20 34 -2 41 -10 4 -36 25 -58 49 l-39 42 41 -35 c22 -19 -11 16 -74 78 -105 104 -116 113 -143 107 -20 -5 -38 -1 -54 9 -28 18 -51 21 -60 6z m64 -19 c20 -15 30 -17 47 -9 21 10 32 3 104 -62 44 -40 78 -75 75 -78 -3 -3 -34 22 -68 56 -34 34 -67 62 -72 62 -4 0 -43 -28 -84 -62 -42 -34 -70 -54 -62 -45 8 10 43 41 79 69 36 29 60 54 53 56 -41 14 -257 -209 -313 -323 -19 -38 -31 -86 -21 -84 25 4 43 -3 43 -16 0 -9 7 -15 16 -13 10 2 19 -3 22 -11 2 -8 0 -11 -6 -7 -5 3 -21 2 -34 -3 -14 -6 -17 -10 -8 -12 22 -2 23 -2 53 5 23 5 27 3 27 -14 0 -17 4 -20 20 -15 32 10 23 -12 -9 -23 -23 -8 -31 -7 -35 4 -3 8 -1 14 4 14 6 0 10 4 10 9 0 4 -11 6 -25 3 -14 -2 -36 3 -52 13 -23 15 -24 19 -10 27 25 14 20 26 -8 20 -14 -2 -22 -9 -18 -15 4 -6 1 -7 -7 -2 -20 13 -9 171 15 193 17 16 17 16 11 -3 -4 -11 -9 -33 -12 -50 -3 -21 2 -14 15 20 11 28 20 44 20 36 2 -23 29 6 41 45 10 30 19 38 41 36 3 -1 41 34 84 78 l77 78 -27 18 c-31 20 -29 21 -93 -61 l-24 -30 22 38 c12 21 20 41 17 44 -15 14 -36 -10 -67 -76 -19 -39 -36 -69 -38 -67 -2 2 10 32 27 65 16 34 26 61 21 61 -5 0 -14 -9 -20 -20 -6 -11 -15 -18 -21 -15 -5 4 -9 1 -9 -6 0 -7 -2 -10 -5 -7 -3 3 2 22 12 43 14 29 22 36 40 32 13 -2 26 0 29 5 3 5 19 6 34 3 16 -3 31 -2 35 4 9 16 27 13 54 -8z m-136 -118 c-5 -12 -3 -14 7 -8 9 5 11 4 6 -4 -4 -6 -12 -8 -18 -5 -8 5 -9 1 -4 -12 5 -14 4 -16 -4 -8 -9 9 -9 17 -1 33 14 25 23 28 14 4z m107 -57 c0 -2 -17 -16 -37 -31 l-38 -26 35 30 c34 31 40 35 40 27z m-126 -95 c3 -4 -4 -17 -16 -27 -11 -11 -34 -39 -50 -64 -38 -58 -27 -21 15 48 31 52 41 60 51 43z"/>
 </g>
<g id="layer104" fill="#4e555d" stroke="none">
 <path d="M235 630 c-3 -6 -17 -7 -30 -4 -12 3 -25 1 -29 -4 -3 -5 -17 -7 -30 -5 -21 4 -28 -2 -49 -43 -44 -87 -89 -234 -94 -309 -6 -77 1 -125 18 -125 11 0 31 -15 57 -43 9 -9 21 -17 26 -17 5 0 18 -7 28 -17 17 -15 19 -15 38 2 25 23 20 28 -13 16 -19 -7 -28 -7 -33 1 -4 7 -2 14 4 16 22 7 12 19 -12 15 -13 -3 -32 0 -43 7 -14 9 -15 10 -1 6 9 -2 22 2 28 10 15 17 10 17 -24 4 -14 -5 -28 -5 -31 -1 -3 5 2 11 10 15 25 9 17 24 -10 18 -14 -2 -22 -9 -18 -15 4 -6 1 -7 -7 -2 -16 10 -9 178 9 198 6 8 7 18 3 22 -4 5 -1 5 7 0 11 -6 13 -2 7 21 -5 23 -4 26 5 14 8 -12 9 -8 5 15 -5 23 -4 27 4 15 9 -12 10 -10 5 10 -5 19 -4 21 4 10 6 -8 7 -26 4 -40 -3 -14 -3 -23 -1 -20 11 10 78 174 73 178 -2 3 -10 -7 -16 -21 -7 -15 -17 -24 -22 -20 -6 4 -8 0 -4 -11 5 -11 3 -15 -5 -10 -8 5 -9 2 -5 -9 3 -10 4 -24 0 -33 -5 -13 -7 -13 -14 -2 -13 19 -11 36 2 18 8 -12 9 -11 4 6 -3 13 3 41 17 69 19 39 27 46 46 42 12 -2 25 0 28 5 4 5 17 7 29 4 13 -3 27 -2 30 4 10 15 37 11 64 -9 14 -10 32 -16 40 -13 20 6 15 2 -68 -69 -112 -95 -210 -226 -236 -316 -5 -19 -3 -21 20 -17 23 4 30 -4 26 -30 -1 -5 6 -6 15 -2 11 4 18 0 21 -13 3 -11 11 -17 18 -15 7 3 15 -4 18 -15 3 -14 10 -19 21 -15 10 4 18 0 22 -10 3 -9 11 -16 16 -16 6 0 16 -6 22 -14 6 -8 20 -16 30 -18 43 -7 22 25 -58 88 -93 73 -115 97 -38 42 141 -102 140 -102 158 -87 9 7 23 14 31 15 8 2 25 11 37 22 32 30 154 110 177 117 11 4 18 9 16 12 -9 9 -129 -62 -187 -111 -25 -21 -25 -21 -8 0 24 28 148 112 186 125 18 6 32 15 32 21 0 5 5 6 12 2 7 -5 5 -11 -7 -21 -21 -14 -8 -18 14 -4 12 8 13 12 1 25 -7 9 -15 15 -17 12 -2 -2 -23 17 -46 42 -76 86 -82 98 -20 38 41 -39 67 -57 77 -53 22 9 20 34 -2 41 -10 4 -34 23 -53 44 l-34 37 40 -35 c22 -19 6 0 -35 43 -71 74 -196 185 -157 141 16 -20 16 -21 -5 -31 -13 -6 -57 -39 -98 -73 -65 -53 -68 -55 -25 -13 28 27 66 61 85 77 22 17 30 30 22 33 -6 2 -10 8 -7 13 3 4 -4 6 -15 3 -11 -3 -31 2 -45 11 -28 18 -51 21 -60 6z m265 -134 c24 -25 40 -46 34 -46 -5 0 -39 30 -74 67 -36 36 -51 57 -35 45 17 -11 50 -41 75 -66z m-180 -37 c-30 -16 -73 -44 -95 -61 -33 -25 -35 -26 -15 -5 27 28 137 97 154 97 6 0 -14 -14 -44 -31z m-120 -32 c0 -2 -15 -16 -32 -33 l-33 -29 29 33 c28 30 36 37 36 29z m-67 -111 c-27 -29 -57 -69 -67 -87 l-17 -34 6 30 c8 39 76 139 85 125 5 -7 11 -6 20 5 7 8 15 15 17 15 3 0 -17 -24 -44 -54z"/>
 <path d="M226 586 c-30 -39 -34 -55 -9 -35 9 8 -1 -12 -22 -43 -20 -32 -41 -55 -46 -52 -5 3 -9 1 -9 -5 0 -27 23 -13 94 58 l78 78 -23 17 c-31 22 -33 21 -63 -18z"/>
 <path d="M170 580 c-6 -11 -8 -26 -4 -32 4 -6 3 -8 -3 -5 -10 7 -93 -166 -93 -192 0 -22 21 0 37 40 8 21 19 39 25 39 5 0 6 4 3 10 -3 5 1 23 10 40 9 17 14 34 11 39 -3 4 1 8 9 8 19 0 18 -7 0 -31 -8 -11 -15 -25 -15 -30 0 -6 11 6 25 26 27 39 31 53 15 43 -15 -9 -12 7 5 29 19 25 19 36 0 36 -8 0 -19 -9 -25 -20z"/>
 <path d="M51 359 c-7 -22 -11 -43 -8 -45 2 -2 9 14 16 37 7 22 11 43 8 45 -2 2 -9 -14 -16 -37z"/>
 <path d="M306 58 c-21 -25 -39 -38 -42 -32 -3 7 -14 10 -24 7 -11 -3 -17 -9 -14 -14 3 -5 1 -9 -5 -9 -5 0 -13 5 -16 10 -3 6 -11 10 -18 10 -6 0 -1 -7 11 -16 38 -27 83 -11 121 41 41 57 35 58 -13 3z"/>
 <path d="M205 61 c-3 -6 -11 -9 -16 -6 -5 4 -9 1 -9 -4 0 -6 6 -11 14 -11 16 0 31 18 23 26 -3 3 -8 0 -12 -5z"/>
 </g>
<g id="layer105" fill="#747a88" stroke="none">
 <path d="M235 630 c-3 -6 -17 -7 -30 -4 -12 3 -26 1 -29 -5 -4 -5 -14 -8 -24 -5 -14 5 -14 4 -2 -4 10 -8 18 -8 27 -1 6 6 21 8 31 5 11 -4 24 0 32 9 7 8 10 15 7 15 -3 0 -9 -5 -12 -10z"/>
 <path d="M238 592 c-44 -49 -56 -70 -23 -42 32 28 31 24 -29 -60 -16 -22 -27 -41 -25 -43 2 -1 36 30 75 68 70 71 70 71 49 87 -21 16 -23 16 -47 -10z"/>
 <path d="M174 573 c-4 -16 -13 -40 -21 -55 -22 -45 -7 -32 25 21 17 27 28 52 25 55 -13 13 -23 5 -29 -21z"/>
 <path d="M279 533 c-41 -38 -94 -89 -117 -114 -43 -47 -112 -155 -112 -173 1 -6 8 3 17 19 39 73 132 180 213 247 49 40 89 76 89 81 2 17 -19 3 -90 -60z"/>
 <path d="M112 512 c-18 -38 -32 -73 -32 -78 1 -5 16 24 35 65 20 41 34 76 32 78 -2 2 -18 -28 -35 -65z"/>
 <path d="M304 516 c-83 -66 -164 -148 -164 -167 0 -6 24 10 53 35 54 48 200 130 219 124 6 -2 -12 -14 -40 -25 -104 -43 -259 -169 -296 -240 -16 -32 -16 -32 18 -66 18 -19 41 -37 50 -40 9 -4 16 -13 16 -21 0 -10 6 -13 15 -10 8 4 17 -1 21 -9 3 -9 12 -13 20 -10 10 4 17 -2 21 -16 3 -13 11 -20 19 -17 8 3 14 1 14 -5 0 -6 4 -7 10 -4 20 12 8 25 -95 105 -58 45 -105 84 -105 87 0 3 6 1 13 -4 9 -7 181 -128 225 -159 2 -2 -4 -14 -15 -28 -18 -25 -43 -35 -43 -17 0 5 -9 7 -20 4 -11 -3 -17 -9 -14 -14 3 -5 1 -9 -5 -9 -5 0 -13 5 -16 10 -3 6 -11 10 -18 10 -6 0 -3 -6 8 -14 17 -12 32 -13 81 -7 13 1 55 58 58 77 3 17 46 64 59 64 6 0 2 -10 -9 -22 -11 -12 1 -6 27 13 85 63 105 81 59 51 -70 -45 -74 -47 -65 -33 11 18 154 110 182 117 12 4 23 11 23 18 0 6 7 2 15 -8 8 -11 15 -15 15 -9 0 12 -19 30 -35 34 -11 2 -53 49 -125 139 -28 35 -14 24 40 -33 58 -62 85 -85 91 -76 4 7 5 17 2 23 -4 5 -1 6 6 2 7 -5 10 -15 7 -23 -3 -8 -1 -11 4 -8 16 10 11 33 -9 40 -10 3 -27 16 -37 28 l-19 22 25 -20 c14 -10 -18 25 -70 78 -52 53 -97 97 -100 97 -2 0 31 -36 75 -80 44 -44 75 -80 69 -80 -5 0 -41 32 -79 71 -39 39 -77 74 -86 79 -12 7 -36 -7 -95 -54z"/>
 <path d="M76 530 c-22 -56 -19 -65 5 -11 11 24 18 46 15 48 -2 2 -11 -14 -20 -37z"/>
 <path d="M31 405 c-12 -37 -21 -75 -20 -84 0 -9 11 20 24 64 13 44 22 82 20 83 -2 2 -13 -26 -24 -63z"/>
 <path d="M3 230 c0 -41 2 -58 4 -37 2 20 2 54 0 75 -2 20 -4 3 -4 -38z"/>
 <path d="M548 244 c-39 -21 -35 -28 5 -8 37 19 44 24 31 24 -5 -1 -21 -8 -36 -16z"/>
 <path d="M40 170 c-23 -5 -23 -7 -6 -13 11 -4 24 -3 30 3 14 14 5 18 -24 10z"/>
 <path d="M75 140 c-19 -8 -19 -9 2 -9 12 -1 25 4 28 9 7 12 -2 12 -30 0z"/>
 <path d="M79 98 c9 -10 20 -18 25 -18 5 0 18 -7 28 -17 17 -15 19 -15 38 2 25 22 21 28 -11 17 -16 -6 -32 -4 -49 5 l-25 13 28 0 c15 0 27 3 27 8 0 4 -17 7 -38 7 -36 1 -37 0 -23 -17z"/>
 <path d="M205 61 c-3 -6 -11 -9 -16 -6 -5 4 -9 1 -9 -4 0 -6 6 -11 14 -11 16 0 31 18 23 26 -3 3 -8 0 -12 -5z"/>
 </g>
<g id="layer106" fill="#9a9a5a" stroke="none">
 <path d="M235 630 c-3 -6 -17 -7 -30 -4 -12 3 -25 2 -28 -3 -8 -13 51 -9 65 5 6 6 9 12 6 12 -4 0 -10 -5 -13 -10z"/>
 <path d="M234 588 c-40 -46 -50 -65 -21 -39 15 14 27 19 27 13 0 -6 -4 -14 -10 -17 -5 -3 -24 -27 -41 -53 l-32 -47 69 65 c38 36 70 66 73 67 7 4 -21 33 -33 33 -7 0 -21 -10 -32 -22z"/>
 <path d="M179 593 c-1 -5 -3 -19 -4 -32 l-2 -24 18 24 c17 23 17 39 -2 39 -5 0 -10 -3 -10 -7z"/>
 <path d="M238 491 c-102 -98 -165 -180 -183 -236 -4 -11 5 -1 18 23 52 86 122 166 207 235 49 40 89 75 89 80 2 21 -28 -3 -131 -102z"/>
 <path d="M304 516 c-87 -70 -164 -149 -164 -168 0 -7 17 4 38 23 20 20 51 46 69 58 43 29 149 81 165 81 7 -1 -18 -16 -56 -36 -38 -19 -88 -48 -111 -64 -47 -32 -165 -147 -165 -160 0 -4 52 -45 116 -90 l116 -82 42 40 c56 54 174 137 219 153 20 7 37 18 37 24 0 5 7 1 15 -9 8 -11 15 -15 15 -9 0 13 -25 35 -32 28 -3 -3 -36 32 -73 77 -104 126 -106 131 -12 33 76 -79 97 -92 87 -50 -1 6 -3 15 -3 22 0 6 -43 54 -96 105 l-96 93 85 -87 c46 -49 80 -88 74 -88 -5 0 -30 21 -54 46 -25 25 -66 63 -91 84 l-46 39 -79 -63z"/>
 <path d="M112 515 c-17 -37 -14 -45 4 -12 9 16 14 31 11 33 -2 2 -9 -7 -15 -21z"/>
 <path d="M3 230 c0 -41 2 -58 4 -37 2 20 2 54 0 75 -2 20 -4 3 -4 -38z"/>
 <path d="M65 220 c-6 -10 29 -50 45 -50 6 0 10 -7 10 -15 0 -9 6 -12 16 -8 10 4 17 -1 21 -16 3 -12 13 -21 24 -21 11 0 19 -7 19 -16 0 -9 5 -12 12 -8 6 4 16 0 22 -8 13 -18 56 -33 56 -20 0 9 -203 172 -214 172 -3 0 -7 -4 -11 -10z"/>
 <path d="M450 180 c-31 -21 -62 -46 -70 -56 -13 -16 6 -2 106 73 48 36 23 25 -36 -17z"/>
 <path d="M40 170 c-23 -5 -23 -7 -6 -13 11 -4 24 -3 30 3 14 14 5 18 -24 10z"/>
 <path d="M75 140 c-19 -8 -19 -9 2 -9 12 -1 25 4 28 9 7 12 -2 12 -30 0z"/>
 <path d="M107 113 c-29 -5 -33 -24 -6 -31 11 -3 11 -2 -1 7 -12 9 -10 11 13 11 15 0 27 5 27 10 0 6 -1 9 -2 9 -2 -1 -16 -4 -31 -6z"/>
 <path d="M155 81 c-11 -5 -24 -6 -30 -3 -5 2 -2 -4 8 -14 17 -18 18 -18 39 4 23 23 18 27 -17 13z"/>
 <path d="M205 61 c-3 -6 -11 -9 -16 -6 -5 4 -9 1 -9 -4 0 -6 6 -11 14 -11 16 0 31 18 23 26 -3 3 -8 0 -12 -5z"/>
 <path d="M302 45 c-20 -25 -42 -33 -42 -16 0 5 -9 7 -20 4 -11 -3 -17 -9 -14 -14 3 -5 1 -9 -5 -9 -5 0 -13 4 -16 10 -3 5 -11 10 -18 10 -6 0 -3 -6 8 -14 11 -7 31 -12 45 -10 14 1 30 3 36 3 5 1 20 14 32 31 27 36 22 40 -6 5z"/>
 </g>
<g id="layer107" fill="#8d949f" stroke="none">
 <path d="M235 630 c-3 -6 -17 -7 -30 -4 -12 3 -25 2 -28 -3 -8 -13 51 -9 65 5 6 6 9 12 6 12 -4 0 -10 -5 -13 -10z"/>
 <path d="M234 588 c-40 -46 -50 -65 -21 -39 15 14 27 19 27 13 0 -6 -4 -14 -10 -17 -5 -3 -24 -27 -41 -53 l-32 -47 69 65 c38 36 70 66 73 67 7 4 -21 33 -33 33 -7 0 -21 -10 -32 -22z"/>
 <path d="M179 593 c-1 -5 -3 -19 -4 -32 l-2 -24 18 24 c17 23 17 39 -2 39 -5 0 -10 -3 -10 -7z"/>
 <path d="M238 491 c-102 -98 -165 -180 -183 -236 -4 -11 5 -1 18 23 52 86 122 166 207 235 49 40 89 75 89 80 2 21 -28 -3 -131 -102z"/>
 <path d="M304 516 c-87 -70 -164 -149 -164 -168 0 -7 17 4 38 23 20 20 51 46 69 58 43 29 149 81 165 81 7 -1 -18 -16 -56 -36 -38 -19 -88 -48 -111 -64 -47 -32 -165 -147 -165 -160 0 -4 52 -45 116 -90 l116 -82 42 40 c56 54 174 137 219 153 20 7 37 18 37 24 0 5 7 1 15 -9 8 -11 15 -15 15 -9 0 13 -25 35 -32 28 -3 -3 -36 32 -73 77 -104 126 -106 131 -12 33 76 -79 97 -92 87 -50 -1 6 -3 15 -3 22 0 6 -43 54 -96 105 l-96 93 85 -87 c46 -49 80 -88 74 -88 -5 0 -30 21 -54 46 -25 25 -66 63 -91 84 l-46 39 -79 -63z"/>
 <path d="M112 515 c-17 -37 -14 -45 4 -12 9 16 14 31 11 33 -2 2 -9 -7 -15 -21z"/>
 <path d="M3 230 c0 -41 2 -58 4 -37 2 20 2 54 0 75 -2 20 -4 3 -4 -38z"/>
 <path d="M65 220 c-6 -10 29 -50 45 -50 6 0 10 -7 10 -15 0 -9 6 -12 16 -8 10 4 17 -1 21 -16 3 -12 13 -21 24 -21 11 0 19 -7 19 -16 0 -9 5 -12 12 -8 6 4 16 0 22 -8 13 -18 56 -33 56 -20 0 9 -203 172 -214 172 -3 0 -7 -4 -11 -10z"/>
 <path d="M450 180 c-31 -21 -62 -46 -70 -56 -13 -16 6 -2 106 73 48 36 23 25 -36 -17z"/>
 <path d="M38 158 c9 -9 15 -9 24 0 9 9 7 12 -12 12 -19 0 -21 -3 -12 -12z"/>
 <path d="M135 61 c13 -14 17 -13 32 2 17 17 16 18 -15 15 -28 -2 -30 -4 -17 -17z"/>
 <path d="M302 45 c-17 -21 -25 -24 -52 -18 -24 4 -31 3 -26 -5 4 -7 3 -12 -3 -12 -5 0 -13 4 -16 10 -3 5 -11 10 -18 10 -6 0 -3 -6 8 -14 11 -7 31 -12 45 -10 14 1 30 3 36 3 5 1 20 14 32 31 27 36 22 40 -6 5z"/>
 <path d="M180 48 c0 -11 28 -10 35 1 3 6 -4 9 -15 8 -11 -1 -20 -5 -20 -9z"/>
 </g>
<g id="layer108" fill="#b5b8d2" stroke="none">
 <path d="M241 591 c-6 -10 -8 -21 -4 -24 3 -3 -8 -23 -24 -44 -53 -68 -47 -69 20 -4 60 58 64 66 49 77 -23 18 -30 17 -41 -5z"/>
 <path d="M323 568 c-84 -70 -177 -166 -214 -220 -54 -79 -42 -73 15 6 40 56 107 123 221 220 17 14 27 26 23 26 -4 0 -24 -14 -45 -32z"/>
 <path d="M176 574 c-4 -10 -1 -14 6 -12 15 5 23 28 10 28 -5 0 -13 -7 -16 -16z"/>
 <path d="M500 495 c47 -47 87 -85 90 -85 2 0 -33 38 -80 85 -47 47 -87 85 -90 85 -2 0 33 -38 80 -85z"/>
 <path d="M289 501 c-81 -65 -161 -151 -142 -151 5 0 22 14 38 30 37 39 104 82 178 114 88 39 68 15 -29 -34 -81 -41 -220 -155 -244 -200 -7 -14 10 -30 100 -93 59 -43 113 -77 119 -77 6 0 35 21 63 48 64 57 173 128 211 137 15 4 27 9 27 11 0 3 -40 53 -90 111 -91 109 -117 153 -38 67 23 -27 59 -66 79 -88 21 -23 41 -36 48 -32 6 4 8 13 4 20 -12 20 -219 206 -229 206 -5 0 -48 -31 -95 -69z"/>
 <path d="M2 270 c0 -19 2 -27 5 -17 2 9 2 25 0 35 -3 9 -5 1 -5 -18z"/>
 <path d="M66 215 c-3 -9 0 -15 9 -15 8 0 15 -7 15 -15 0 -8 7 -15 15 -15 8 0 15 -7 15 -15 0 -9 6 -12 16 -8 10 4 17 -1 21 -15 3 -13 10 -19 20 -15 9 4 16 -2 20 -16 3 -11 10 -18 16 -14 5 3 15 -1 21 -9 13 -18 60 -35 55 -20 -4 9 -206 172 -214 172 -2 0 -5 -7 -9 -15z"/>
 </g>
<g id="layer109" fill="#bcc8d1" stroke="none">
 <path d="M240 585 c-10 -12 -10 -15 1 -15 8 0 6 -8 -7 -22 -46 -53 -46 -60 1 -19 28 23 50 48 50 54 0 18 -30 20 -45 2z"/>
 <path d="M299 546 c-35 -29 -86 -78 -114 -107 -40 -43 -35 -40 25 16 41 39 95 87 120 107 25 20 43 37 39 38 -3 0 -34 -24 -70 -54z"/>
 <path d="M495 500 c44 -44 82 -80 85 -80 2 0 -31 36 -75 80 -44 44 -82 80 -85 80 -2 0 31 -36 75 -80z"/>
 <path d="M332 535 c-64 -50 -117 -99 -160 -147 l-37 -43 35 28 c76 59 148 105 201 127 l57 23 89 -93 c53 -55 92 -89 96 -83 7 11 -212 223 -229 222 -5 0 -29 -15 -52 -34z"/>
 <path d="M361 475 c-74 -34 -166 -102 -229 -169 l-54 -57 24 -17 c78 -60 198 -142 206 -142 5 0 32 20 58 44 64 56 201 146 225 146 11 0 19 2 19 5 0 10 -173 210 -184 212 -6 1 -35 -9 -65 -22z"/>
 <path d="M140 159 c-12 -8 -11 -9 5 -7 16 2 19 -2 17 -19 -2 -17 1 -21 12 -17 21 8 20 17 -2 37 -12 11 -22 13 -32 6z"/>
 <path d="M203 109 c-1 -14 5 -19 22 -19 18 0 23 -4 19 -15 -4 -10 0 -15 15 -15 29 0 27 4 -17 38 -34 27 -38 28 -39 11z"/>
 </g>
<g id="layer110" fill="#dcdb97" stroke="none">
 <path d="M323 526 c-32 -25 -85 -73 -118 -107 l-60 -62 70 53 c65 49 179 110 206 110 7 0 51 -41 99 -92 50 -53 89 -88 93 -81 6 9 -211 223 -226 223 -3 0 -31 -20 -64 -44z"/>
 <path d="M380 481 c-73 -28 -160 -89 -234 -163 -38 -38 -67 -70 -65 -72 25 -22 222 -156 229 -156 4 0 32 22 62 49 60 55 170 129 205 137 13 4 23 10 23 15 0 10 -162 207 -170 208 -3 0 -25 -8 -50 -18z"/>
 <path d="M179 433 l-34 -38 38 34 c34 33 42 41 34 41 -2 0 -19 -17 -38 -37z"/>
 </g>
<g id="layer111" fill="#e4e4fb" stroke="none">
 <path d="M323 526 c-32 -25 -85 -73 -118 -107 l-60 -62 70 53 c65 49 179 110 206 110 7 0 51 -41 99 -92 50 -53 89 -88 93 -81 6 9 -211 223 -226 223 -3 0 -31 -20 -64 -44z"/>
 <path d="M380 481 c-73 -28 -160 -89 -234 -163 -38 -38 -67 -70 -65 -72 25 -22 222 -156 229 -156 4 0 32 22 62 49 60 55 170 129 205 137 13 4 23 10 23 15 0 10 -162 207 -170 208 -3 0 -25 -8 -50 -18z"/>
 <path d="M179 433 l-34 -38 38 34 c34 33 42 41 34 41 -2 0 -19 -17 -38 -37z"/>
 </g>

</svg>