<?xml version="1.0" standalone="no"?>
<!DOCTYPE svg PUBLIC "-//W3C//DTD SVG 20010904//EN"
 "http://www.w3.org/TR/2001/REC-SVG-20010904/DTD/svg10.dtd">
<svg version="1.0" xmlns="http://www.w3.org/2000/svg"
 width="16.000000pt" height="16.000000pt" viewBox="0 0 64.000000 64.000000"
 preserveAspectRatio="xMidYMid meet">
<g transform="translate(0.000000,64.000000) scale(0.100000,-0.100000)"
fill="#000000" stroke="none">
<path d="M202 620 c-47 -26 -48 -27 -26 -52 18 -20 18 -21 1 -15 -10 4 -23 7
-28 7 -6 0 -7 4 -4 10 3 5 -8 2 -25 -8 l-30 -17 25 -3 c14 -2 25 -7 25 -11 0
-4 -13 -6 -30 -3 -19 3 -42 -4 -66 -18 l-36 -23 4 -96 c5 -99 37 -213 91 -321
22 -44 23 -44 73 -45 28 0 57 -5 66 -12 11 -10 21 -8 48 8 27 17 38 19 57 10
21 -10 34 0 155 118 131 126 132 129 119 154 -12 22 -12 29 -1 42 15 18 16 17
-38 39 -66 25 -180 106 -243 172 -48 50 -91 86 -101 83 -2 0 -18 -9 -36 -19z
m144 -91 c39 -41 180 -141 224 -159 19 -7 37 -15 39 -16 2 -2 -29 -43 -70 -91
-108 -130 -112 -138 -18 -39 70 74 87 87 92 72 5 -14 -14 -37 -80 -101 -49
-45 -102 -94 -119 -108 l-31 -26 -79 63 c-87 70 -164 149 -164 168 0 7 17 -4
38 -23 20 -20 51 -46 69 -58 43 -29 149 -81 165 -81 7 1 -18 16 -56 36 -38 19
-88 48 -111 64 -55 38 -167 149 -163 162 3 9 217 166 229 167 3 1 18 -13 35
-30z"/>
</g>
</svg>
