<?xml version="1.0" standalone="no"?>
<!DOCTYPE svg PUBLIC "-//W3C//DTD SVG 20010904//EN"
 "http://www.w3.org/TR/2001/REC-SVG-20010904/DTD/svg10.dtd">
<svg version="1.0" xmlns="http://www.w3.org/2000/svg"
 width="16.000000pt" height="16.000000pt" viewBox="0 0 64.000000 64.000000"
 preserveAspectRatio="xMidYMid meet">

<g transform="translate(0.000000,64.000000) scale(0.100000,-0.100000)"
fill="#000000" stroke="none">
<path d="M180 609 c-25 -18 -46 -36 -48 -41 -2 -4 -8 -8 -14 -8 -12 0 -86 -56
-106 -79 -31 -37 10 -235 81 -394 27 -61 33 -68 53 -63 13 4 26 2 29 -4 3 -6
17 -7 31 -4 13 4 31 1 39 -6 12 -10 22 -8 50 10 28 17 39 19 50 10 19 -16 32
-6 177 135 115 113 118 118 102 136 -13 15 -15 22 -6 31 21 21 13 36 -24 48
-59 20 -209 126 -266 189 -69 76 -90 82 -148 40z m34 -17 c2 -4 -4 -8 -15 -8
-10 0 -19 4 -19 8 0 4 6 8 14 8 8 0 17 -4 20 -8z m-30 -97 c-75 -58 -111 -81
-116 -72 -4 7 -2 13 7 15 8 2 15 9 15 16 0 7 16 18 35 26 22 9 35 20 35 32 0
11 5 15 15 12 8 -4 17 1 21 10 3 9 15 16 25 16 10 0 19 7 19 15 0 10 10 15 26
15 22 0 8 -14 -82 -85z m184 11 c59 -55 198 -146 223 -146 11 0 19 -2 19 -5 0
-7 -171 -209 -180 -213 -15 -6 -124 49 -184 92 -33 24 -85 69 -115 100 l-53
57 63 46 c35 25 84 61 109 79 25 18 51 34 58 34 7 0 34 -20 60 -44z m-275 -3
c-7 -2 -19 -2 -25 0 -7 3 -2 5 12 5 14 0 19 -2 13 -5z m521 -226 c-7 -15 -219
-207 -229 -207 -8 0 -66 44 -138 105 -44 37 -114 115 -103 115 2 0 28 -20 56
-44 50 -42 159 -106 207 -120 19 -6 36 7 109 83 47 50 90 88 95 86 4 -3 6 -11
3 -18z m-483 -4 c13 -16 12 -17 -3 -4 -10 7 -18 15 -18 17 0 8 8 3 21 -13z
m194 -192 c34 -29 39 -35 15 -20 -19 13 -73 61 -120 108 -68 68 -71 72 -15 20
39 -35 93 -84 120 -108z m-35 -21 c0 -4 -6 -13 -13 -19 -11 -8 -18 -7 -31 7
-9 10 -13 21 -10 25 3 3 -7 23 -22 44 l-29 38 53 -44 c28 -24 52 -47 52 -51z
m-96 5 c3 -8 1 -15 -4 -15 -6 0 -10 7 -10 15 0 8 2 15 4 15 2 0 6 -7 10 -15z"/>
</g>
</svg>
