<!DOCTYPE svg PUBLIC "-//W3C//DTD SVG 20010904//EN" "http://www.w3.org/TR/2001/REC-SVG-20010904/DTD/svg10.dtd">
<svg version="1.0" xmlns="http://www.w3.org/2000/svg" width="32px" height="32px" viewBox="0 0 320 320" preserveAspectRatio="xMidYMid meet">
<g id="layer101" fill="#242729" stroke="none">
 <path d="M47 293 c-24 -46 -47 -134 -47 -177 1 -38 5 -44 52 -79 29 -20 58 -37 66 -37 8 0 41 25 75 55 33 30 75 60 93 67 51 18 43 50 -33 128 l-63 66 -65 2 c-61 3 -65 1 -78 -25z"/>
 </g>
<g id="layer102" fill="#3f413d" stroke="none">
 <path d="M111 309 c13 -8 6 -13 -14 -10 -4 1 -10 -6 -13 -14 -3 -8 -10 -12 -15 -9 -5 3 -6 -2 -3 -10 3 -9 10 -13 15 -10 5 3 9 0 9 -7 0 -7 13 -1 28 14 35 34 36 52 4 54 -18 1 -21 -1 -11 -8z"/>
 <path d="M183 308 c16 -12 16 -14 -5 -27 -21 -13 -22 -13 -9 2 25 31 -5 17 -39 -18 -18 -19 -38 -31 -43 -28 -6 3 -7 1 -4 -4 4 -6 0 -16 -8 -23 -9 -7 -13 -21 -10 -30 3 -10 -2 -23 -12 -31 -16 -13 -17 -12 -4 4 8 9 11 20 8 23 -9 9 -29 -35 -21 -48 4 -7 3 -8 -4 -4 -16 10 -15 -7 1 -23 10 -11 8 -13 -11 -8 -15 3 -22 1 -22 -9 0 -8 6 -11 17 -7 10 4 14 2 10 -4 -4 -6 9 -23 27 -37 24 -18 37 -23 42 -14 4 6 3 9 -2 6 -11 -7 -35 17 -27 26 4 3 -1 6 -11 6 -10 0 -14 5 -10 12 5 8 13 5 24 -10 10 -12 20 -18 24 -15 3 4 6 1 6 -5 0 -7 6 -12 14 -12 8 0 18 -4 21 -10 3 -5 0 -7 -8 -4 -8 3 -18 1 -22 -5 -3 -7 2 -11 14 -11 11 0 42 25 72 58 29 31 49 50 43 42 -5 -9 2 -4 15 10 13 14 20 19 16 12 -6 -11 -3 -12 14 -3 26 14 27 28 4 55 -16 19 -16 19 -1 7 10 -7 23 -11 30 -9 14 5 -118 148 -136 148 -5 0 -2 -6 7 -12z m-9 -250 c15 12 14 9 -3 -11 -14 -15 -25 -26 -25 -24 -1 1 -10 13 -21 26 l-20 25 24 -17 c23 -16 26 -15 45 1z"/>
 <path d="M46 244 c-4 -10 -2 -22 3 -27 7 -7 13 -5 17 7 4 10 2 22 -3 27 -7 7 -13 5 -17 -7z"/>
 </g>
<g id="layer103" fill="#575538" stroke="none">
 <path d="M111 309 c13 -8 6 -13 -14 -10 -4 1 -10 -6 -13 -14 -3 -8 -10 -12 -15 -9 -5 3 -6 -2 -3 -10 3 -9 10 -13 15 -10 5 3 9 0 9 -7 0 -7 13 -1 28 14 35 34 36 52 4 54 -18 1 -21 -1 -11 -8z"/>
 <path d="M183 308 c16 -12 16 -14 -5 -27 -22 -13 -22 -13 -8 4 14 17 13 17 -5 8 -11 -6 -31 -23 -44 -37 -13 -14 -28 -23 -34 -19 -6 3 -7 1 -4 -4 4 -6 0 -16 -8 -23 -9 -7 -13 -21 -10 -30 3 -10 -2 -23 -12 -31 -16 -13 -17 -12 -4 4 8 9 11 20 8 23 -9 9 -29 -35 -21 -48 4 -7 3 -8 -4 -4 -16 9 -15 -7 0 -22 9 -9 7 -12 -10 -12 -12 0 -22 -4 -22 -8 0 -4 12 -7 28 -6 27 1 52 -11 52 -27 0 -5 -5 -9 -11 -9 -5 0 -8 4 -5 9 3 5 -5 11 -19 13 -14 3 -25 4 -25 3 0 -2 15 -14 34 -29 24 -18 37 -23 42 -14 4 7 3 8 -4 4 -7 -4 -12 -3 -12 3 0 20 18 20 41 1 15 -12 17 -18 8 -14 -10 3 -20 1 -24 -5 -3 -7 2 -11 14 -11 11 0 42 25 72 58 29 31 47 48 39 37 -7 -11 0 -5 18 12 31 33 50 44 36 21 -4 -7 -3 -8 4 -4 17 10 15 26 -5 50 -16 19 -16 19 -1 7 10 -7 23 -11 30 -9 14 5 -118 148 -136 148 -5 0 -2 -6 7 -12z m-8 -258 c-16 -16 -29 -29 -29 -27 -1 1 -10 13 -21 26 l-20 24 26 -17 c24 -15 27 -15 44 4 10 11 20 20 23 20 3 0 -7 -13 -23 -30z"/>
 <path d="M46 244 c-4 -10 -2 -22 3 -27 7 -7 13 -5 17 7 4 10 2 22 -3 27 -7 7 -13 5 -17 -7z"/>
 </g>
<g id="layer104" fill="#4c5154" stroke="none">
 <path d="M111 309 c13 -8 6 -13 -14 -10 -4 1 -10 -6 -13 -14 -3 -8 -10 -12 -15 -9 -5 3 -6 -2 -3 -10 3 -9 10 -13 15 -10 5 3 9 0 9 -7 0 -7 13 -1 28 14 35 34 36 52 4 54 -18 1 -21 -1 -11 -8z"/>
 <path d="M183 308 c16 -12 16 -14 -5 -27 -22 -13 -22 -13 -8 4 14 17 13 17 -5 8 -11 -6 -31 -23 -44 -37 -13 -14 -28 -23 -34 -19 -6 3 -7 1 -4 -4 4 -6 0 -16 -8 -23 -9 -7 -13 -21 -10 -30 3 -10 -2 -23 -12 -31 -16 -13 -17 -12 -4 4 8 9 11 20 8 23 -9 9 -29 -35 -21 -48 4 -7 3 -8 -4 -4 -24 14 -11 -13 18 -41 31 -29 37 -43 19 -43 -5 0 -8 4 -5 9 3 5 -5 11 -19 13 -14 3 -25 4 -25 3 0 -2 15 -14 34 -29 24 -18 37 -23 42 -14 4 7 3 8 -4 4 -7 -4 -12 -3 -12 3 0 19 17 20 41 3 l23 -16 -24 -7 c-23 -6 -23 -7 -3 -8 14 -1 39 18 74 57 29 31 47 48 39 37 -7 -11 0 -5 18 12 31 33 50 44 36 21 -4 -7 -3 -8 4 -4 17 10 15 26 -5 50 -16 19 -16 19 -1 7 10 -7 23 -11 30 -9 14 5 -118 148 -136 148 -5 0 -2 -6 7 -12z m-8 -258 c-16 -16 -29 -29 -29 -27 -1 1 -10 13 -21 26 l-20 24 26 -17 c24 -15 27 -15 44 4 10 11 20 20 23 20 3 0 -7 -13 -23 -30z"/>
 <path d="M46 244 c-4 -10 -2 -22 3 -27 7 -7 13 -5 17 7 4 10 2 22 -3 27 -7 7 -13 5 -17 -7z"/>
 </g>
<g id="layer105" fill="#838792" stroke="none">
 <path d="M106 314 c15 -6 6 -43 -14 -66 -8 -10 -12 -18 -7 -18 4 0 1 -8 -6 -17 -13 -16 -12 -17 3 -4 10 7 15 18 11 24 -4 6 -1 7 7 2 9 -6 11 -4 5 5 -6 9 -4 11 6 5 8 -5 11 -4 6 0 -4 5 2 19 14 31 l21 22 -20 11 c-12 6 -24 11 -29 10 -4 0 -3 -3 3 -5z"/>
 <path d="M145 273 c-17 -14 -23 -22 -15 -18 8 3 -7 -14 -34 -39 -26 -26 -40 -43 -30 -39 14 5 12 -1 -9 -29 -15 -19 -27 -38 -27 -41 0 -10 92 -77 104 -77 6 1 -7 17 -29 36 l-40 36 40 -26 c22 -14 46 -26 54 -26 11 0 11 -3 0 -18 -7 -9 -1 -6 14 7 30 27 37 41 10 20 -14 -11 -14 -9 1 9 11 12 26 20 33 17 8 -2 11 -1 8 5 -8 13 41 43 56 34 7 -4 9 -3 5 4 -3 5 0 12 6 15 9 3 3 16 -17 38 -24 27 -25 29 -4 11 29 -25 48 -30 29 -7 -7 8 -9 15 -5 15 5 0 0 9 -10 20 -10 11 -21 18 -25 15 -4 -2 -18 7 -31 21 -39 42 -51 45 -84 17z"/>
 </g>
<g id="layer106" fill="#b6bcce" stroke="none">
 <path d="M113 274 c-12 -26 -12 -26 7 -9 20 18 26 35 13 35 -5 0 -13 -12 -20 -26z"/>
 <path d="M142 250 c-29 -23 -52 -44 -52 -46 0 -2 25 10 55 27 31 17 58 29 61 26 3 -2 -14 -14 -38 -26 -24 -11 -63 -40 -86 -63 l-44 -42 26 -18 c14 -11 23 -25 20 -32 -3 -7 2 -16 12 -20 14 -5 15 -4 4 9 -16 19 -1 19 27 0 12 -9 29 -12 40 -8 16 6 17 5 3 -13 -14 -19 -14 -19 7 0 13 10 20 22 18 26 -5 8 66 65 89 73 7 2 4 13 -6 28 -10 13 -27 38 -39 54 -12 17 -3 11 20 -14 23 -24 43 -42 46 -39 2 2 -22 30 -53 61 l-58 58 -52 -41z"/>
 </g>
<g id="layer107" fill="#e2e2fb" stroke="none">
 <path d="M148 250 l-33 -29 46 22 c26 12 44 25 42 30 -8 13 -22 7 -55 -23z"/>
 <path d="M172 233 c-48 -24 -127 -97 -118 -111 3 -6 27 -25 51 -41 l45 -31 60 44 c33 25 65 46 72 48 8 3 -1 23 -27 56 -21 29 -42 52 -45 52 -3 0 -20 -8 -38 -17z"/>
 <path d="M240 237 c0 -2 15 -16 33 -33 l32 -29 -29 33 c-28 30 -36 37 -36 29z"/>
 </g>

</svg>