<?xml version="1.0" encoding="UTF-8" standalone="no"?>
<svg
   xmlns:dc="http://purl.org/dc/elements/1.1/"
   xmlns:cc="http://creativecommons.org/ns#"
   xmlns:rdf="http://www.w3.org/1999/02/22-rdf-syntax-ns#"
   xmlns:svg="http://www.w3.org/2000/svg"
   xmlns="http://www.w3.org/2000/svg"
   xmlns:sodipodi="http://sodipodi.sourceforge.net/DTD/sodipodi-0.dtd"
   xmlns:inkscape="http://www.inkscape.org/namespaces/inkscape"
   width="14.999999pt"
   height="15pt"
   viewBox="0 0 14.999999 15"
   version="1.1"
   id="svg4342"
   sodipodi:docname="icon18x16.svg"
   inkscape:version="0.92.2 5c3e80d, 2017-08-06">
  <metadata
     id="metadata4348">
    <rdf:RDF>
      <cc:Work
         rdf:about="">
        <dc:format>image/svg+xml</dc:format>
        <dc:type
           rdf:resource="http://purl.org/dc/dcmitype/StillImage" />
        <dc:title />
      </cc:Work>
    </rdf:RDF>
  </metadata>
  <defs
     id="defs4346">
    <inkscape:perspective
       sodipodi:type="inkscape:persp3d"
       inkscape:vp_x="0 : 97.434997 : 1"
       inkscape:vp_y="0 : 1000 : 0"
       inkscape:vp_z="194.87 : 97.434997 : 1"
       inkscape:persp3d-origin="97.435 : 64.956665 : 1"
       id="perspective4389" />
  </defs>
  <sodipodi:namedview
     pagecolor="#ffffff"
     bordercolor="#666666"
     borderopacity="1"
     objecttolerance="10"
     gridtolerance="10"
     guidetolerance="10"
     inkscape:pageopacity="0"
     inkscape:pageshadow="2"
     inkscape:window-width="1920"
     inkscape:window-height="1108"
     id="namedview4344"
     showgrid="false"
     inkscape:zoom="44.750001"
     inkscape:cx="5.9776527"
     inkscape:cy="9.9999995"
     inkscape:window-x="0"
     inkscape:window-y="0"
     inkscape:window-maximized="1"
     inkscape:current-layer="svg4342"
     inkscape:measure-start="0,0"
     inkscape:measure-end="0,0" />
  <g
     id="surface1"
     transform="matrix(0.07638368,0,0,0.07788141,0.12133144,-1.2366694)"
     style="fill:#d02d5b;fill-opacity:1;stroke:#000000;stroke-width:0;stroke-miterlimit:4;stroke-dasharray:none;stroke-opacity:1">
    <path
       style="fill:#d02d5b;fill-opacity:1;fill-rule:nonzero;stroke:#000000;stroke-width:0;stroke-miterlimit:4;stroke-dasharray:none;stroke-opacity:1"
       d="m 97.107152,130.72558 12.263328,-18.8295 H 84.843828 l 12.263324,18.8295"
       id="path4297"
       inkscape:connector-curvature="0" />
    <path
       style="fill:#d02d5b;fill-opacity:1;fill-rule:nonzero;stroke:#000000;stroke-width:0;stroke-miterlimit:4;stroke-dasharray:none;stroke-opacity:1"
       d="m 86.056756,105.37919 c 0,0 -15.76809,0.17864 -25.377711,-9.315503 -9.609623,-9.480911 -9.428688,-25.048659 -9.428688,-25.048659 0,0 15.761389,-0.178637 25.37771,9.302275 9.609625,9.494143 9.428689,25.061887 9.428689,25.061887"
       id="path4299"
       inkscape:connector-curvature="0" />
    <path
       style="fill:#d02d5b;fill-opacity:1;fill-rule:nonzero;stroke:#000000;stroke-width:0;stroke-miterlimit:4;stroke-dasharray:none;stroke-opacity:1"
       d="m 108.15755,105.37919 c 0,0 15.76139,0.17864 25.37771,-9.315503 9.60962,-9.480911 9.42199,-25.048659 9.42199,-25.048659 0,0 -15.76809,-0.178637 -25.37101,9.302275 -9.60963,9.494143 -9.42869,25.061887 -9.42869,25.061887"
       id="path4301"
       inkscape:connector-curvature="0" />
    <path
       style="fill:#d02d5b;fill-opacity:1;fill-rule:nonzero;stroke:#000000;stroke-width:0;stroke-miterlimit:4;stroke-dasharray:none;stroke-opacity:1"
       d="m 97.275846,149.46221 c -43.886623,0 -71.172026,-17.86992 -71.172026,-51.936355 0,-34.145837 4.637273,-46.640299 27.977067,-46.451594 20.026501,0.161917 21.097499,2.765153 29.009759,5.474727 l 14.009805,5.980733 16.289939,-5.444091 c 0.21444,-0.13232 8.04354,-4.043685 28.30148,-4.043685 23.33384,0 27.80167,10.338073 27.80167,44.48391 0,34.066435 -28.33777,51.936355 -72.217694,51.936355 z M 185.46341,97.525855 c 0,-7.542389 -0.55621,-14.171748 -1.5614,-20.007174 l 0.0604,0.07939 V 37.464646 h -39.81225 c -0.88457,-0.03969 -1.76243,-0.06616 -2.6336,-0.06616 -18.89758,0 -37.9694,9.308892 -44.416021,12.775742 -6.45337,-3.46685 -25.525189,-12.775742 -44.422773,-12.775742 -0.871165,0 -1.749031,0.02647 -2.633598,0.06616 H 10.486525 v 38.93591 c -1.1325144,6.100069 -1.7624354,13.093317 -1.7624354,21.125299 0,28.184705 20.8811614,52.538665 50.9430634,63.792705 -2.821237,1.89882 -4.677488,5.08779 -4.677488,8.69358 0,6.41764 8.276069,20.53647 9.763753,21.25101 0.871164,0.44989 1.956769,0.17201 2.526379,-0.60869 0.37527,-0.52268 1.963471,-2.96402 3.699101,-6.10669 1.956771,3.59917 3.853231,6.40441 4.48315,6.71538 0.884567,0.44989 1.963472,0.17201 2.546483,-0.60869 0.381972,-0.52929 1.963471,-2.96402 3.699101,-6.11331 1.963472,3.60579 3.866633,6.41103 4.503254,6.722 0.877868,0.44989 1.963472,0.17201 2.546484,-0.60869 0.74384,-1.06519 6.433219,-9.90435 8.363185,-16.7388 1.990277,6.99324 7.860595,16.75203 9.100335,17.34749 0.85776,0.44989 1.93666,0.17201 2.51296,-0.60869 0.38198,-0.52268 1.97018,-2.96402 3.70581,-6.10669 1.95678,3.59917 3.85993,6.40441 4.48985,6.71538 0.87787,0.44989 1.97018,0.17201 2.53979,-0.60869 0.37527,-0.52929 1.96347,-2.97064 3.70579,-6.11331 1.95678,3.59918 3.85994,6.41103 4.48985,6.722 0.89798,0.44989 1.97018,0.17201 2.55319,-0.60869 0.91807,-1.28352 9.00651,-13.90048 9.00651,-20.64232 0,-3.60579 -1.85625,-6.80137 -4.68419,-8.69358 30.0552,-11.26066 50.92296,-35.61462 50.92296,-63.792705"
       id="path4303"
       inkscape:connector-curvature="0"
       sodipodi:nodetypes="ssscccssscccccscscccscscccccccccccccccccscc" />
  </g>
  <path
     style="fill:#000000;fill-opacity:1;stroke:#bebebe;stroke-width:0.0157365;stroke-opacity:1"
     d="m 7.7499198,7.9440891 c 3.531e-4,-0.02664 0.00375,-0.0356 0.00764,-0.01984 0.00389,0.01568 0.00363,0.03752 -5.649e-4,0.0484 -0.00421,0.01096 -0.00739,-0.0016 -0.00707,-0.02856 z"
     id="path841"
     inkscape:connector-curvature="0" />
</svg>
