<svg xmlns="http://www.w3.org/2000/svg"
	viewBox="0 0 512 512">

<path class ="inverted"
     style="fill:#000000;fill-opacity:1;stroke:none;stroke-opacity:1"
     d="M 64,32 98.936,435.301 255.769,480 413.014,435.295 448,32 64,32 Z M 383.041,410.51 255.779,446.697 128.912,410.528 98.896,64 413.1,64 383.041,410.51 Z" /><polygon
     style="fill:#000000;fill-opacity:1;stroke:none;stroke-opacity:1"
     points="309.411,327.986 255.991,342.734 202.225,328.064 198.801,289 150.55,289 157.313,366.336 255.991,394.146 354.486,366.163 367.991,215 191.991,215 188,164 371.991,164 376.199,114.316 135.421,114.188 147.991,264 314.984,264 " /><path
     style="fill:#ffffff;fill-opacity:1;stroke:none;stroke-width:4;stroke-miterlimit:4;stroke-dasharray:none;stroke-opacity:1"
     d="m 192.43671,428.40582 c -34.06118,-9.75805 -62.2419,-17.85957 -62.62383,-18.00338 -0.52918,-0.19925 -4.25884,-41.39416 -15.67419,-173.12489 C 105.89982,142.20266 99.156307,64.354824 99.153109,64.282353 c -0.0032,-0.07247 70.554181,-0.131765 156.794181,-0.131765 148.98764,0 156.79926,0.04596 156.7851,0.922353 -0.0452,2.796191 -29.92978,344.906249 -30.14791,345.124379 -0.58302,0.58302 -125.96056,36.08202 -127.18469,36.01066 -0.56852,-0.0331 -28.90191,-8.04411 -62.96308,-17.80216 z m 113.15184,-48.06771 c 26.61543,-7.56322 48.56235,-13.91233 48.77095,-14.10914 0.35715,-0.33699 13.58779,-146.06042 13.58779,-149.65716 l 0,-1.67931 -87.87815,-0.13331 -87.87814,-0.13331 -1.67182,-21.60941 c -0.9195,-11.88518 -1.81457,-23.21035 -1.98906,-25.16706 l -0.31724,-3.55765 91.93751,0 91.93753,0 0.31476,-2.76705 c 0.59477,-5.22852 4.02002,-46.9097 3.86705,-47.05732 -0.0842,-0.0812 -54.34638,-0.22186 -120.58271,-0.31255 l -120.42968,-0.16487 0.13324,1.82854 c 0.0733,1.0057 2.85865,34.45915 6.18969,74.341 3.33104,39.88185 6.05644,72.90867 6.05644,73.39294 0,0.81891 5.84244,0.88049 83.53882,0.88049 66.49649,0 83.53239,0.13441 83.50731,0.65882 -0.0173,0.36236 -1.26251,14.62268 -2.76706,31.68961 l -2.73554,31.03078 -26.35295,7.32762 -26.35294,7.32762 -26.88,-7.23384 c -14.784,-3.9786 -26.93889,-7.26584 -27.01087,-7.30496 -0.072,-0.0391 -0.9021,-8.82729 -1.84471,-19.52927 l -1.71383,-19.45814 -24.40324,-0.13705 -24.40324,-0.13705 0.3179,3.03587 c 0.17485,1.66973 1.71793,19.1335 3.42908,38.80837 1.71114,19.67488 3.18108,35.84199 3.26651,35.92691 0.42842,0.42583 97.33519,27.57661 98.54954,27.61105 0.77845,0.0221 23.19163,-6.14796 49.80706,-13.71117 z"
/>

</svg>