<svg xmlns="http://www.w3.org/2000/svg" viewBox="0 0 512 512">

  <path 
     fill="#E34F26"
     d="M71,460 L30,0 481,0 440,460 255,512" />
  <path
     fill="#FFF"
     d="M256,208 L181,208 176,150 256,150 256,94 255,94 114,94 115,109 129,265 256,265zM256,355 L255,355 192,338 188,293 158,293 132,293 139,382 255,414 256,414z" />
  <rect
     fill="#E34F26"
     width="256"
     height="247"
     x="256"
     y="265"
     ry="112.14827" />
  <path
     fill="#FFF"
     d="M255,208 L255,265 325,265 318,338 255,355 255,414 371,382 372,372 385,223 387,208 371,208zM255,94 L255,129 255,150 255,150 392,150 392,150 392,150 393,138 396,109 397,94z" />
  <path
     style="fill:#000000;fill-opacity:1;stroke-width:10;stroke-linejoin:miter;stroke-miterlimit:4;stroke-dasharray:none;stroke-opacity:1;stroke:#ffffff"
     d="m 365.49189,280.10123 v 86.37583 h -86.37583 v 48.37049 h 86.37583 v 86.37582 h 48.37048 v -86.37582 h 86.37583 v -48.37049 h -86.37583 v -86.37583 z" />

</svg>
