<?xml version="1.0" encoding="UTF-8" standalone="no"?>
<!-- Created with Inkscape (http://www.inkscape.org/) -->

<svg
   xmlns:osb="http://www.openswatchbook.org/uri/2009/osb"
   xmlns:dc="http://purl.org/dc/elements/1.1/"
   xmlns:cc="http://creativecommons.org/ns#"
   xmlns:rdf="http://www.w3.org/1999/02/22-rdf-syntax-ns#"
   xmlns:svg="http://www.w3.org/2000/svg"
   xmlns="http://www.w3.org/2000/svg"
   xmlns:sodipodi="http://sodipodi.sourceforge.net/DTD/sodipodi-0.dtd"
   xmlns:inkscape="http://www.inkscape.org/namespaces/inkscape"
   sodipodi:docname="removedupes.svg"
   inkscape:export-filename="removedupes.png"
   inkscape:export-xdpi="270"
   inkscape:export-ydpi="270"
   height="32"
   id="svg7384"
   style="enable-background:new"
   version="1.1"
   inkscape:version="0.91 r13725"
   width="32">
  <sodipodi:namedview
     inkscape:bbox-nodes="true"
     inkscape:bbox-paths="false"
     bordercolor="#666666"
     borderlayer="false"
     borderopacity="1"
     inkscape:current-layer="layer15"
     inkscape:cx="-5.9787161"
     inkscape:cy="19.863667"
     gridtolerance="10"
     inkscape:guide-bbox="true"
     guidetolerance="10"
     id="namedview88"
     inkscape:object-nodes="true"
     inkscape:object-paths="true"
     objecttolerance="10"
     pagecolor="#f7f7f7"
     inkscape:pageopacity="0"
     inkscape:pageshadow="2"
     showborder="true"
     showgrid="true"
     showguides="true"
     inkscape:showpageshadow="false"
     inkscape:snap-bbox="true"
     inkscape:snap-bbox-edge-midpoints="false"
     inkscape:snap-bbox-midpoints="true"
     inkscape:snap-center="false"
     inkscape:snap-global="true"
     inkscape:snap-grids="true"
     inkscape:snap-intersection-paths="true"
     inkscape:snap-midpoints="true"
     inkscape:snap-nodes="true"
     inkscape:snap-object-midpoints="true"
     inkscape:snap-others="true"
     inkscape:snap-page="false"
     inkscape:snap-smooth-nodes="true"
     inkscape:snap-to-guides="true"
     inkscape:window-height="993"
     inkscape:window-maximized="1"
     inkscape:window-width="1680"
     inkscape:window-x="0"
     inkscape:window-y="0"
     inkscape:zoom="16"
     fit-margin-top="0"
     fit-margin-left="0"
     fit-margin-right="0"
     fit-margin-bottom="0">
    <inkscape:grid
       color="#000000"
       dotted="false"
       empcolor="#0800ff"
       empopacity="0.4627451"
       empspacing="4"
       enabled="true"
       id="grid4866"
       opacity="0.16470588"
       originx="-499.98999"
       originy="-457.34431"
       snapvisiblegridlinesonly="true"
       spacingx="0.25px"
       spacingy="0.25px"
       type="xygrid"
       visible="true" />
  </sodipodi:namedview>
  <metadata
     id="metadata90">
    <rdf:RDF>
      <cc:Work
         rdf:about="">
        <dc:format>image/svg+xml</dc:format>
        <dc:type
           rdf:resource="http://purl.org/dc/dcmitype/StillImage" />
        <dc:title>Remove Duplicates</dc:title>
      </cc:Work>
    </rdf:RDF>
  </metadata>
  <title
     id="title8473">Remove Duplicates</title>
  <defs
     id="defs7386">
    <linearGradient
       id="linearGradient5606"
       osb:paint="solid">
      <stop
         id="stop5608"
         offset="0"
         style="stop-color:#000000;stop-opacity:1;" />
    </linearGradient>
    <filter
       inkscape:collect="always"
       id="filter7554"
       style="color-interpolation-filters:sRGB">
      <feBlend
         inkscape:collect="always"
         id="feBlend7556"
         in2="BackgroundImage"
         mode="darken" />
    </filter>
  </defs>
  <g
     inkscape:groupmode="layer"
     id="layer9"
     inkscape:label="status"
     style="display:inline"
     transform="translate(-740.99019,256.3443)" />
  <g
     inkscape:groupmode="layer"
     id="layer10"
     inkscape:label="devices"
     style="display:inline;filter:url(#filter7554)"
     transform="translate(-740.99019,256.3443)" />
  <g
     inkscape:groupmode="layer"
     id="layer1"
     inkscape:label="places"
     style="display:inline"
     transform="translate(-499.98999,-360.6557)" />
  <g
     inkscape:groupmode="layer"
     id="layer14"
     inkscape:label="mimetypes"
     style="display:inline"
     transform="translate(-740.99019,256.3443)" />
  <g
     inkscape:groupmode="layer"
     id="layer15"
     inkscape:label="emblems"
     style="display:inline"
     transform="translate(-740.99019,256.3443)">
    <path
       inkscape:connector-curvature="0"
       d="m 747.11519,-255.9437 c -0.375,0.0625 -1.125,0.33333 -1.125,1.33333 l 0,1.33334 4,0 0.54167,0 0.41666,0.41666 5.33334,5.33334 0.375,0.375 0,0.54166 c 0.004,1.69718 -0.003,4.01392 0,5.91667 3.6e-4,0.29525 -1.6e-4,0.47835 0,0.75 l 1.33333,0 c 1.33333,0 1.33333,-1.33333 1.33333,-1.33333 0.0251,-0.0615 0.007,-5.9372 0,-9.33334 l -5.33333,-5.33333 -6.66667,0 c 0,0 -0.0833,-0.0208 -0.20833,0 z"
       id="path8077-7"
       sodipodi:nodetypes="cscccccccccsccccc"
       style="display:inline;fill:#ff0000;fill-opacity:1;stroke:none;enable-background:new" />
    <path
       inkscape:connector-curvature="0"
       d="m 743.11519,-251.98379 c -0.375,0.0625 -1.125,0.33333 -1.125,1.33333 l 0,13.33333 c 0,1.33334 1.33333,1.33334 1.33333,1.33334 l 10.66667,0 c 1.33333,0 1.33333,-1.33334 1.33333,-1.33334 0.0251,-0.0615 0.007,-5.9372 0,-9.33333 l -5.33333,-5.33333 -6.66667,0 c 0,0 -0.0833,-0.0208 -0.20833,0 z"
       id="path8075-3"
       sodipodi:nodetypes="csscsccccc"
       style="display:inline;fill:highlight;fill-opacity:1;stroke:none;enable-background:new" />
    <path
       inkscape:connector-curvature="0"
       d="m 751.96768,-240.8443 0,14.85 c 10e-5,0.86391 0.78611,1.64992 1.65,1.65 l 13.2,0 1.65,0 c 0.86392,-8e-5 1.64992,-0.78609 1.65,-1.65 l 0,-14.85 z"
       id="path8476"
       sodipodi:nodetypes="cccccccc"
       style="display:inline;fill:#999999;fill-opacity:1;stroke:none;enable-background:new" />
    <path
       inkscape:connector-curvature="0"
       d="m 750.31768,-244.1443 0,1.65 21.45034,-0.005 -3.4e-4,-1.64506 c 0,-1.65 -1.64966,-1.65554 -1.64966,-1.65554 l -4.95,0 c 0,0 0,-1.65 -1.65,-1.65 l -4.95,0 c -1.65,0 -1.65,1.65 -1.65,1.65 l -4.95,0 c 0,0 -1.65033,0.005 -1.65033,1.65554 z"
       id="path8478"
       sodipodi:nodetypes="ccccccccccc"
       style="display:inline;fill:#666666;fill-opacity:1;stroke:none;enable-background:new" />
  </g>
  <g
     inkscape:groupmode="layer"
     id="g71291"
     inkscape:label="emotes"
     style="display:inline"
     transform="translate(-740.99019,256.3443)" />
  <g
     inkscape:groupmode="layer"
     id="layer2"
     inkscape:label="categories"
     style="display:inline"
     transform="translate(-499.98999,-210.6557)" />
  <g
     inkscape:groupmode="layer"
     id="g6058"
     inkscape:label="apps"
     style="display:inline"
     transform="translate(-499.98999,-210.6557)" />
  <g
     inkscape:groupmode="layer"
     id="layer12"
     inkscape:label="actions"
     style="display:inline"
     transform="translate(-740.99019,256.3443)" />
</svg>
