<svg xmlns="http://www.w3.org/2000/svg" width="16" height="16" fill="context-fill" fill-opacity="context-fill-opacity">
  <path
     d="m 9.5786468,8.3591551 a 2.7725531,4.5250296 0 1 1 3.0338672,0 4.8540473,7.9221959 0 0 1 3.334688,7.5239929 H 6.2432664 A 4.8540473,7.9221959 0 0 1 9.5786468,8.3591551 Z M 11.095233,6.8330887 a 1.3862764,2.2625149 0 1 0 0,-4.5250297 1.3862764,2.2625149 0 0 0 0,4.5250297 z m 0,3.3937723 A 3.4663846,5.6574185 0 0 0 7.9178885,13.620632 H 14.27258 a 3.4663846,5.6574185 0 0 0 -3.177347,-3.393771 z"
     style="stroke-width:0.88550431" />
  <rect
     width="6.0704308"
     height="1.8698912"
     x="0.13022456"
     y="1.7116276"
     ry="0.93494558"
     style="stroke-width:1.62508023" />
  <rect
     width="6.0704308"
     height="1.8698912"
     x="0.13022456"
     y="5.1352053"
     ry="0.93494558"
     style="stroke-width:1.62508023" />
  <rect
     width="6.0704308"
     height="1.8698912"
     x="0.13022456"
     y="8.5844584"
     ry="0.93494558"
     style="stroke-width:1.62508023" />
</svg>
