<svg xmlns="http://www.w3.org/2000/svg" width="24" height="24" fill="context-fill" fill-opacity="context-fill-opacity">
  <path
     d="m 14.403835,12.619076 a 4.1002899,6.7743637 0 1 1 4.486744,0 7.1785823,11.860218 0 0 1 4.931623,11.264072 H 9.471188 a 7.1785823,11.860218 0 0 1 4.932647,-11.264072 z m 2.242859,-2.284654 a 2.0501453,3.3871829 0 1 0 0,-6.7743657 2.0501453,3.3871828 0 0 0 0,6.7743657 z m 0,5.080771 a 5.1263876,8.4696485 0 0 0 -4.698931,5.08077 h 9.397864 a 5.1263876,8.4696485 0 0 0 -4.698933,-5.08077 z"
     style="stroke-width:1.31759369" />
  <rect
     width="9.0927935"
     height="2.8100429"
     x="0.13022456"
     y="2.586412"
     ry="1.4050214"
     style="stroke-width:2.43815899" />
  <rect
     width="9.0927935"
     height="2.8100429"
     x="0.13022456"
     y="7.7313099"
     ry="1.4050214"
     style="stroke-width:2.43815899" />
  <rect
     width="9.0927935"
     height="2.8100429"
     x="0.13022456"
     y="12.914791"
     ry="1.4050214"
     style="stroke-width:2.43815899" />
</svg>
