<?xml version="1.0" encoding="UTF-8" standalone="no"?>
<svg
   xmlns:dc="http://purl.org/dc/elements/1.1/"
   xmlns:cc="http://creativecommons.org/ns#"
   xmlns:rdf="http://www.w3.org/1999/02/22-rdf-syntax-ns#"
   xmlns:svg="http://www.w3.org/2000/svg"
   xmlns="http://www.w3.org/2000/svg"
   xmlns:sodipodi="http://sodipodi.sourceforge.net/DTD/sodipodi-0.dtd"
   xmlns:inkscape="http://www.inkscape.org/namespaces/inkscape"
   width="194.869995pt"
   height="194.869995pt"
   viewBox="0 0 194.869995 194.869995"
   version="1.1"
   id="svg4342"
   sodipodi:docname="light-logosignalspam.svg"
   inkscape:version="0.92.2 5c3e80d, 2017-08-06">
  <metadata
     id="metadata4348">
    <rdf:RDF>
      <cc:Work
         rdf:about="">
        <dc:format>image/svg+xml</dc:format>
        <dc:type
           rdf:resource="http://purl.org/dc/dcmitype/StillImage" />
        <dc:title></dc:title>
      </cc:Work>
    </rdf:RDF>
  </metadata>
  <defs
     id="defs4346">
    <inkscape:perspective
       sodipodi:type="inkscape:persp3d"
       inkscape:vp_x="0 : 97.434997 : 1"
       inkscape:vp_y="0 : 1000 : 0"
       inkscape:vp_z="194.86999 : 97.434997 : 1"
       inkscape:persp3d-origin="97.434997 : 64.956665 : 1"
       id="perspective4389" />
  </defs>
  <sodipodi:namedview
     pagecolor="#ffffff"
     bordercolor="#666666"
     borderopacity="1"
     objecttolerance="10"
     gridtolerance="10"
     guidetolerance="10"
     inkscape:pageopacity="0"
     inkscape:pageshadow="2"
     inkscape:window-width="1920"
     inkscape:window-height="1112"
     id="namedview4344"
     showgrid="false"
     inkscape:zoom="2"
     inkscape:cx="-44.983902"
     inkscape:cy="113.34046"
     inkscape:window-x="0"
     inkscape:window-y="0"
     inkscape:window-maximized="1"
     inkscape:current-layer="svg4342"
     inkscape:measure-start="0,0"
     inkscape:measure-end="0,0" />
  <g
     id="surface1"
     transform="matrix(1.0816448,0,0,1.0481867,-7.2345263,-20.537836)"
     style="fill:#111111;fill-opacity:1;stroke:#111111;stroke-opacity:1;stroke-width:0;stroke-miterlimit:4;stroke-dasharray:none">
    <path
       style="fill:#111111;fill-opacity:1;fill-rule:nonzero;stroke:#111111;stroke-width:0;stroke-miterlimit:4;stroke-dasharray:none;stroke-opacity:1"
       d="m 97.107152,130.72558 12.263328,-18.8295 H 84.843828 l 12.263324,18.8295"
       id="path4297"
       inkscape:connector-curvature="0" />
    <path
       style="fill:#111111;fill-opacity:1;fill-rule:nonzero;stroke:#111111;stroke-width:0;stroke-miterlimit:4;stroke-dasharray:none;stroke-opacity:1"
       d="m 86.056756,105.37919 c 0,0 -15.76809,0.17864 -25.377711,-9.315503 -9.609623,-9.480911 -9.428688,-25.048659 -9.428688,-25.048659 0,0 15.761389,-0.178637 25.37771,9.302275 9.609625,9.494143 9.428689,25.061887 9.428689,25.061887"
       id="path4299"
       inkscape:connector-curvature="0" />
    <path
       style="fill:#111111;fill-opacity:1;fill-rule:nonzero;stroke:#111111;stroke-width:0;stroke-miterlimit:4;stroke-dasharray:none;stroke-opacity:1"
       d="m 108.15755,105.37919 c 0,0 15.76139,0.17864 25.37771,-9.315503 9.60962,-9.480911 9.42199,-25.048659 9.42199,-25.048659 0,0 -15.76809,-0.178637 -25.37101,9.302275 -9.60963,9.494143 -9.42869,25.061887 -9.42869,25.061887"
       id="path4301"
       inkscape:connector-curvature="0" />
    <path
       style="fill:#111111;fill-opacity:1;fill-rule:nonzero;stroke:#111111;stroke-width:0;stroke-miterlimit:4;stroke-dasharray:none;stroke-opacity:1"
       d="m 97.275846,149.46221 c -43.886623,0 -71.172026,-17.86992 -71.172026,-51.936355 0,-34.145837 4.637273,-46.640299 27.977067,-46.451594 20.026501,0.161917 21.097499,2.765153 29.009759,5.474727 l 14.009805,5.980733 16.289939,-5.444091 c 0.21444,-0.13232 8.04354,-4.043685 28.30148,-4.043685 23.33384,0 27.80167,10.338073 27.80167,44.48391 0,34.066435 -28.33777,51.936355 -72.217694,51.936355 z M 185.46341,97.525855 c 0,-7.542389 -0.55621,-14.171748 -1.5614,-20.007174 l 0.0604,0.07939 V 37.464646 h -39.81225 c -0.88457,-0.03969 -1.76243,-0.06616 -2.6336,-0.06616 -18.89758,0 -37.9694,9.308892 -44.416021,12.775742 -6.45337,-3.46685 -25.525189,-12.775742 -44.422773,-12.775742 -0.871165,0 -1.749031,0.02647 -2.633598,0.06616 H 10.486525 v 38.93591 c -1.1325144,6.100069 -1.7624354,13.093317 -1.7624354,21.125299 0,28.184705 20.8811614,52.538665 50.9430634,63.792705 -2.821237,1.89882 -4.677488,5.08779 -4.677488,8.69358 0,6.41764 8.276069,20.53647 9.763753,21.25101 0.871164,0.44989 1.956769,0.17201 2.526379,-0.60869 0.37527,-0.52268 1.963471,-2.96402 3.699101,-6.10669 1.956771,3.59917 3.853231,6.40441 4.48315,6.71538 0.884567,0.44989 1.963472,0.17201 2.546483,-0.60869 0.381972,-0.52929 1.963471,-2.96402 3.699101,-6.11331 1.963472,3.60579 3.866633,6.41103 4.503254,6.722 0.877868,0.44989 1.963472,0.17201 2.546484,-0.60869 0.74384,-1.06519 6.433219,-9.90435 8.363185,-16.7388 1.990277,6.99324 7.860595,16.75203 9.100335,17.34749 0.85776,0.44989 1.93666,0.17201 2.51296,-0.60869 0.38198,-0.52268 1.97018,-2.96402 3.70581,-6.10669 1.95678,3.59917 3.85993,6.40441 4.48985,6.71538 0.87787,0.44989 1.97018,0.17201 2.53979,-0.60869 0.37527,-0.52929 1.96347,-2.97064 3.70579,-6.11331 1.95678,3.59918 3.85994,6.41103 4.48985,6.722 0.89798,0.44989 1.97018,0.17201 2.55319,-0.60869 0.91807,-1.28352 9.00651,-13.90048 9.00651,-20.64232 0,-3.60579 -1.85625,-6.80137 -4.68419,-8.69358 30.0552,-11.26066 50.92296,-35.61462 50.92296,-63.792705"
       id="path4303"
       inkscape:connector-curvature="0"
       sodipodi:nodetypes="ssscccssscccccscscccscscccccccccccccccccscc" />
  </g>
  <path
     style="fill:#111111;fill-opacity:1;stroke:#bebebe;stroke-width:0.28966182;stroke-opacity:1"
     d="m 149.26128,113.60537 c 0.006,-0.47794 0.0708,-0.6384 0.14426,-0.35657 0.0734,0.28184 0.0686,0.67288 -0.0107,0.86899 -0.0794,0.19611 -0.13944,-0.0345 -0.13353,-0.51242 z"
     id="path841"
     inkscape:connector-curvature="0"
     transform="scale(0.75)" />
  <path
     style="fill:#b3b3b3;fill-opacity:1;stroke:#000000;stroke-width:0;stroke-miterlimit:4;stroke-dasharray:none;stroke-opacity:1"
     d="m 81.991178,237.5112 c -4.158885,-5.77592 -9.529885,-16.30188 -11.128985,-21.81032 -1.06111,-3.65522 -0.83271,-8.76676 0.516745,-11.56468 0.530535,-1.1 1.94595,-2.95563 3.14536,-4.12362 1.892925,-1.84334 2.059395,-2.16619 1.261275,-2.44607 -3.997735,-1.40191 -10.48031,-4.30568 -16.072085,-7.19925 C 25.400215,172.61123 4.7196962,143.78197 3.2691405,111.68215 2.9529045,104.68407 3.7416217,91.46181 4.8948376,84.428555 5.4381954,81.114715 5.6006289,73.895602 5.6073684,52.7612 l 0.00873,-27.375 30.1249996,-0.06294 c 16.56875,-0.03462 32.15,-0.01995 34.625,0.03259 14.9212,0.316778 35.394902,5.922213 54.305732,14.868206 l 5.80573,2.746472 2.94427,-1.480709 c 18.29292,-9.199739 41.61868,-15.808606 56.94427,-16.133969 2.475,-0.05254 18.16875,-0.06721 34.875,-0.03259 l 30.375,0.06294 v 28.539969 c 0,23.903506 0.13571,29.528511 0.83535,34.625001 1.22916,8.9536 1.21254,27.46467 -0.0304,33.83503 -5.62552,28.8327 -26.18681,53.50185 -57.62138,69.13337 -3.53848,1.75958 -8.29729,3.94019 -10.57514,4.84581 l -4.14155,1.64657 1.98608,1.7 c 4.50881,3.85938 5.80632,10.06857 3.54906,16.98394 -1.38614,4.24657 -6.72682,14.74068 -9.89361,19.44031 -3.60933,5.35638 -4.66144,5.13509 -9.19627,-1.93431 -2.24976,-3.50718 -2.64967,-3.90679 -3.12127,-3.11891 -0.29749,0.49701 -1.66589,2.62481 -3.04089,4.72844 -3.73677,5.71692 -4.74506,5.5502 -9.29081,-1.53621 l -2.53334,-3.94926 -3.08793,4.65513 c -3.31307,4.99454 -4.54491,5.77777 -6.41926,4.08151 -2.46434,-2.23019 -10.11018,-16.26654 -11.91914,-21.88134 l -0.62985,-1.95495 -1.60464,3.95495 c -2.19622,5.413 -4.35292,9.5741 -7.95659,15.35127 -4.41827,7.0831 -5.36137,7.1314 -9.64307,0.49387 -3.33099,-5.16373 -3.24286,-5.05594 -3.51444,-4.29834 -0.76142,2.12405 -5.56215,8.72872 -6.52481,8.9766 -1.821502,0.46903 -2.385287,-0.0209 -5.547662,-4.82119 -2.959005,-4.49156 -3.021295,-4.54841 -3.73372,-3.40751 -0.398485,0.63814 -1.559965,2.51025 -2.58107,4.16025 -3.1996,5.17021 -4.735305,5.55993 -7.38859,1.875 z M 142.3661,181.37666 c 43.43243,-2.5542 72.6544,-16.75246 85.49142,-41.53825 6.27653,-12.11876 8.00574,-23.86702 6.79823,-46.18729 -1.85068,-34.209105 -8.98236,-44.46715 -32.53965,-46.804296 -9.38015,-0.930615 -28.7327,0.252573 -38.13719,2.331655 -1.98705,0.439282 -9.46281,2.71419 -16.61281,5.055351 -7.15,2.34116 -13.87978,4.541146 -14.95506,4.888857 -1.89097,0.611479 -2.21055,0.526346 -9.75,-2.597349 C 94.285423,44.768939 91.711188,44.156794 70.616098,44.149223 c -14.92505,-0.0054 -17.24248,0.340951 -23.986184,3.5844 -9.4232,4.532177 -14.843639,14.179093 -17.223168,30.652577 -1.047509,7.251915 -1.965879,26.60143 -1.578117,33.25 1.292782,22.16602 9.170316,37.71337 25.220624,49.7762 19.71894,14.82005 52.436497,22.13313 89.316847,19.96426 z"
     id="path818"
     inkscape:connector-curvature="0"
     transform="scale(0.75)" />
  <path
     style="fill:#b3b3b3;fill-opacity:1;stroke:#000000;stroke-width:0;stroke-miterlimit:4;stroke-dasharray:none;stroke-opacity:1"
     d="m 122.1161,142.56727 c -4.5375,-6.72817 -8.325,-12.44635 -8.41667,-12.70706 -0.10287,-0.29258 6.26037,-0.47401 16.625,-0.47401 9.23542,0 16.79167,0.11594 16.79167,0.25764 0,0.26052 -15.85772,24.21022 -16.43689,24.82441 -0.17221,0.18263 -4.02561,-5.17281 -8.56311,-11.90098 z"
     id="path820"
     inkscape:connector-curvature="0"
     transform="scale(0.75)" />
  <path
     style="fill:#b3b3b3;fill-opacity:1;stroke:#000000;stroke-width:0;stroke-miterlimit:4;stroke-dasharray:none;stroke-opacity:1"
     d="M 111.6161,119.55499 C 95.51173,117.97976 84.42638,113.40584 76.702987,105.14951 70.133838,98.127067 65.73624,87.386188 64.823235,76.133902 l -0.333733,-4.113073 2.688298,0.207195 c 25.047757,1.930509 40.29302,13.73921 45.41309,35.176146 1.12037,4.69081 1.89018,12.52305 1.21897,12.40201 -0.24407,-0.044 -1.23126,-0.15705 -2.19376,-0.25119 z"
     id="path822"
     inkscape:connector-curvature="0"
     transform="scale(0.75)" />
  <path
     style="fill:#666666;fill-opacity:1;stroke:#000000;stroke-width:0;stroke-miterlimit:4;stroke-dasharray:none;stroke-opacity:1"
     d="m 146.84435,115.78929 c 1.05252,-12.06584 6.25299,-24.006116 13.3877,-30.738118 7.63256,-7.201763 19.69565,-11.871175 33.0768,-12.803456 l 2.94275,-0.205025 -0.31784,4.046755 c -0.90274,11.494017 -5.46118,22.468649 -12.23937,29.466844 -7.68112,7.93044 -20.06513,12.97916 -34.26096,13.96756 l -2.93266,0.20419 z m 2.6133,-2.49684 c -0.15961,-0.39887 -0.27809,-0.28039 -0.30208,0.30208 -0.0217,0.52709 0.0965,0.8224 0.26261,0.65625 0.16615,-0.16614 0.18391,-0.59739 0.0395,-0.95833 z"
     id="path824"
     inkscape:connector-curvature="0"
     transform="scale(0.75)" />
  <path
     style="fill:#666666;fill-opacity:1;stroke:#000000;stroke-width:0;stroke-miterlimit:4;stroke-dasharray:none;stroke-opacity:1"
     d="M 104.8661,118.40992 C 93.297925,116.34045 85.357817,112.83469 79.084457,107.02666 70.841393,99.395041 66.632006,89.801509 64.896971,74.692245 l -0.280645,-2.443956 3.874886,0.345867 c 21.791438,1.945074 36.394328,12.247249 42.425418,29.930654 1.43839,4.21744 2.69947,10.95705 2.69947,14.42689 v 2.4345 l -1.875,-0.0409 c -1.03125,-0.0225 -4.125,-0.44342 -6.875,-0.93537 z"
     id="path826"
     inkscape:connector-curvature="0"
     transform="scale(0.75)" />
  <path
     style="fill:#666666;fill-opacity:1;stroke:#000000;stroke-width:0;stroke-miterlimit:4;stroke-dasharray:none;stroke-opacity:1"
     d="m 129.10241,152.2612 c -0.66096,-0.89375 -4.31527,-6.2375 -8.12068,-11.875 l -6.91893,-10.25 7.88171,-0.30623 c 4.33495,-0.16843 11.65882,-0.16843 16.27528,0 l 8.39355,0.30623 -7.87362,11.86215 c -4.33049,6.52418 -8.00006,11.86793 -8.15459,11.875 -0.15454,0.007 -0.82176,-0.7184 -1.48272,-1.61215 z"
     id="path828"
     inkscape:connector-curvature="0"
     transform="scale(0.75)" />
  <path
     style="fill:#333333;fill-opacity:1;stroke:#000000;stroke-width:0;stroke-miterlimit:4;stroke-dasharray:none;stroke-opacity:1"
     d="m 83.026798,238.29061 c -1.839765,-1.96948 -6.399645,-9.65746 -8.766845,-14.78095 -2.916075,-6.31147 -3.644855,-8.93475 -3.632875,-13.07673 0.01295,-4.48523 0.87433,-6.69357 3.970055,-10.17843 l 2.11576,-2.38171 -2.4234,-1.06262 C 64.020128,192.30723 61.271168,191.00315 56.866098,188.54469 26.621825,171.66545 7.8058865,146.57085 4.0737966,118.1362 3.3952988,112.96675 3.740292,93.74881 4.6123453,88.1362 5.1628531,84.593085 5.4534932,70.181412 5.5584326,41.223542 l 0.057665,-15.912659 35.8750004,0.217342 c 33.98334,0.205882 36.17255,0.27346 41.51798,1.281604 13.836485,2.60955 27.687422,7.145291 41.301682,13.524983 2.99456,1.403264 5.71774,2.551388 6.0515,2.551388 0.33376,0 3.17334,-1.210582 6.31016,-2.690182 15.66011,-7.386665 34.75779,-12.935015 49.19368,-14.291984 3.1224,-0.293505 19.3873,-0.517179 37.625,-0.517416 l 32.125,-4.18e-4 0.0223,28.125 c 0.0122,15.46875 0.10103,29.1375 0.19732,30.375 0.0963,1.2375 0.45647,5.49192 0.80039,9.45427 0.39428,4.542565 0.51962,10.91579 0.33925,17.25 -0.25403,8.92103 -0.45083,10.68949 -1.75782,15.79573 -3.94127,15.39802 -11.26537,28.3583 -22.82586,40.39122 -12.52278,13.03453 -25.15798,21.23424 -47.20553,30.63436 -1.17676,0.50172 -1.17358,0.50997 1.15494,2.99935 3.15701,3.3751 3.95969,5.40428 3.94583,9.97507 -0.0136,4.50064 -0.6786,6.52148 -5.03529,15.30271 -4.04206,8.14705 -7.53333,13.38731 -9.06799,13.61067 -1.49424,0.21749 -2.23958,-0.47261 -5.11873,-4.73932 -1.33799,-1.98282 -2.65091,-3.73998 -2.91761,-3.90481 -0.26669,-0.16482 -1.8511,1.73217 -3.52091,4.21554 -4.21253,6.26493 -4.90415,6.16777 -9.76023,-1.37112 -1.1,-1.70771 -2.14232,-3.10689 -2.31627,-3.10929 -0.17395,-0.002 -1.23599,1.40187 -2.36009,3.12062 -2.83236,4.33069 -4.45084,5.96365 -5.72744,5.77865 -0.58311,-0.0845 -1.91599,-1.27865 -2.96196,-2.65365 -1.89125,-2.48617 -9.19349,-16.44872 -10.30604,-19.70608 -0.32049,-0.93834 -0.68338,-1.60541 -0.80641,-1.48238 -0.12304,0.12304 -1.31728,2.69755 -2.65387,5.72114 -2.96701,6.71183 -7.70915,14.88758 -9.93073,17.12121 -2.15293,2.16461 -2.76051,1.82272 -6.4727,-3.64222 -1.59217,-2.34392 -3.07349,-4.26167 -3.29183,-4.26167 -0.21835,0 -0.71702,0.61875 -1.10816,1.375 -0.39113,0.75625 -1.75675,2.79525 -3.0347,4.5311 -3.18619,4.32786 -4.044352,4.20433 -7.762307,-1.11738 -1.52213,-2.17871 -3.04007,-4.05081 -3.3732,-4.16023 -0.333135,-0.10942 -1.609275,1.36673 -2.83587,3.28035 -2.233845,3.48503 -4.09926,5.59116 -4.95211,5.59116 -0.250315,0 -1.125845,-0.71802 -1.945625,-1.59559 z M 141.61497,181.5112 c -5e-4,-0.20625 1.57438,-0.30028 3.5,-0.20897 1.92562,0.0913 3.50316,-0.0212 3.50565,-0.25 0.002,-0.22881 1.63374,-0.44883 3.625,-0.48892 5.59944,-0.11273 24.44853,-3.55605 25.37048,-4.63463 0.1375,-0.16086 0.92284,-0.34224 1.74519,-0.40307 0.82236,-0.0608 1.56815,-0.32943 1.65731,-0.59691 0.0892,-0.26748 0.48507,-0.36239 0.8798,-0.21091 0.39473,0.15147 0.7177,0.0334 0.7177,-0.2624 0,-0.29579 0.3375,-0.40829 0.75,-0.25 0.4125,0.15829 0.75,0.0255 0.75,-0.2952 0,-0.32065 0.1969,-0.46131 0.43757,-0.31257 0.60888,0.37631 5.06243,-1.19657 5.06243,-1.78793 0,-0.26538 0.22872,-0.34115 0.50827,-0.16838 0.27954,0.17277 2.88394,-0.8207 5.78754,-2.20773 18.55385,-8.86298 31.42377,-23.10258 36.46627,-40.34718 0.7157,-2.44761 1.34327,-5.51719 1.3946,-6.82129 0.0513,-1.3041 0.27927,-2.37285 0.50655,-2.375 0.22728,-0.002 0.34895,-0.89432 0.27037,-1.98261 -0.0786,-1.08828 0.0167,-2.13828 0.21177,-2.33333 0.47656,-0.47657 0.45663,-22.18808 -0.0204,-22.18756 -0.20625,2.2e-4 -0.4038,-1.74353 -0.43899,-3.875 -0.0352,-2.131475 -0.0821,-4.812585 -0.10416,-5.95802 -0.0221,-1.145435 -0.25342,-2.21441 -0.51407,-2.375495 -0.26065,-0.16109 -0.35716,-0.739305 -0.21448,-1.28492 0.14268,-0.545615 0.0858,-1.389145 -0.12632,-1.874505 -0.21216,-0.48536 -0.33857,-1.08556 -0.28092,-1.33378 0.16806,-0.723655 -1.56013,-8.298654 -1.89339,-8.299043 -0.16647,-1.94e-4 -0.33662,-0.586804 -0.37811,-1.303578 -0.11696,-2.019939 -3.40617,-8.250345 -5.77837,-10.945308 -2.39428,-2.720048 -7.75072,-6.413582 -8.74679,-6.031354 -0.35718,0.137065 -0.64942,0.03755 -0.64942,-0.221132 0,-0.555915 -5.44062,-2.224319 -5.86607,-1.79887 -0.16056,0.160556 -0.59059,0.04405 -0.95563,-0.258906 -0.36503,-0.302954 -2.01516,-0.582252 -3.66695,-0.620662 -1.65179,-0.03841 -3.00507,-0.238587 -3.0073,-0.444837 -0.002,-0.20625 -4.16655,-0.375 -9.25405,-0.375 -5.0875,0 -9.24953,0.16875 -9.24895,0.375 5e-4,0.20625 -1.46193,0.299552 -3.25,0.207337 -1.78808,-0.09221 -3.25105,0.03136 -3.25105,0.274599 0,0.243245 -0.73125,0.35835 -1.625,0.25579 -2.29772,-0.263671 -10.85157,1.185038 -15.875,2.688644 -2.3375,0.699657 -9.81916,3.065305 -16.6259,5.256995 l -12.3759,3.984891 -14.5653,-5.828642 c -8.01091,-3.205753 -15.09784,-5.859236 -15.74874,-5.896628 -0.650902,-0.03739 -1.183617,-0.260808 -1.183807,-0.49648 -1.95e-4,-0.235672 -0.337855,-0.298984 -0.750355,-0.140693 -0.4125,0.158292 -0.75,0.105668 -0.75,-0.11694 0,-0.519631 -5.334135,-1.725399 -5.94975,-1.344928 -0.255665,0.158007 -0.547925,0.03802 -0.64948,-0.266631 -0.10829,-0.324868 -1.89113,-0.628885 -4.31148,-0.735212 -2.269765,-0.09971 -4.287145,-0.279035 -4.483065,-0.398495 -0.420945,-0.256663 -21.51374,0.01703 -25.856225,0.335511 -3.103065,0.227576 -8.75,2.077262 -8.75,2.866114 0,0.246611 -0.335604,0.3196 -0.745786,0.162199 -0.425208,-0.163168 -0.87758,0.05727 -1.052392,0.51282 -0.168634,0.439453 -0.479922,0.691891 -0.691752,0.560973 -0.599825,-0.370712 -4.022728,2.304805 -6.562338,5.129463 -2.455757,2.731393 -6.2324,9.749202 -5.705416,10.601881 0.174185,0.281838 0.05435,0.512432 -0.266302,0.512432 -0.320652,0 -0.45907,0.322964 -0.307597,0.717696 0.151473,0.394733 0.0331,0.798467 -0.263064,0.897186 -0.296158,0.09872 -0.564768,0.900243 -0.596911,1.781164 -0.03214,0.880921 -0.201715,1.602187 -0.376827,1.602814 -0.462667,0.0016 -1.588008,6.34358 -1.228775,6.924835 0.166865,0.26999 0.06306,0.571005 -0.230679,0.66892 -0.301272,0.10042 -0.620878,2.040135 -0.733221,4.449965 -0.109534,2.34957 -0.349404,4.663495 -0.533044,5.142055 -0.18364,0.478555 -0.226892,2.53737 -0.09612,4.575135 0.130776,2.037765 0.04707,3.58717 -0.186003,3.44312 -0.233077,-0.14405 -0.423777,4.25137 -0.423777,9.7676 0,5.51623 0.186031,10.02951 0.413403,10.02951 0.227372,0 0.319571,0.63933 0.204887,1.42072 -0.442682,3.01618 3.265877,18.57928 4.427291,18.57928 0.282389,0 0.373997,0.22562 0.203571,0.50137 -0.399601,0.64657 3.018775,7.47548 5.770151,11.52706 2.609783,3.84307 8.623747,10.20357 12.758614,13.49379 3.892648,3.09747 10.240228,7.02558 10.796928,6.68153 0.233835,-0.14452 0.425155,0.013 0.425155,0.35008 0,0.33706 0.131515,0.48132 0.29226,0.32058 0.16074,-0.16074 0.716365,0.0709 1.23472,0.51471 1.330785,1.13945 10.95157,5.18316 11.51026,4.83787 0.25452,-0.1573 0.46276,-0.0237 0.46276,0.297 0,0.32065 0.322965,0.45907 0.717695,0.3076 0.394735,-0.15148 0.795395,-0.0423 0.890355,0.24257 0.09497,0.28489 0.78434,0.5535 1.531955,0.59691 0.74761,0.0434 1.35945,0.21079 1.35964,0.37196 5e-4,0.43702 5.993055,2.0205 6.48824,1.71446 0.234685,-0.14504 0.502245,-0.0371 0.594575,0.23989 0.09232,0.27698 1.067795,0.55963 2.167705,0.62811 1.09991,0.0685 2.112335,0.26587 2.249835,0.43865 0.565045,0.71 16.175196,3.00374 24.500006,3.6 4.83645,0.34641 24.99993,0.31484 24.99887,-0.0392 z"
     id="path830"
     inkscape:connector-curvature="0"
     transform="scale(0.75)" />
  <path
     style="fill:#333333;fill-opacity:1;stroke:#000000;stroke-width:0;stroke-miterlimit:4;stroke-dasharray:none;stroke-opacity:1"
     d="m 111.1161,119.35785 c 0.57154,-0.39097 0.3336,-0.49164 -1,-0.42311 -0.9625,0.0495 -2.14711,-0.0791 -2.63247,-0.28567 -0.48536,-0.20657 -1.31833,-0.26162 -1.85103,-0.12231 -0.53271,0.1393 -1.03786,0.0454 -1.12257,-0.20875 -0.0847,-0.25412 -1.21892,-0.51148 -2.52049,-0.57192 -1.30157,-0.0604 -2.368051,-0.30488 -2.369964,-0.54321 -0.0019,-0.23832 -0.453478,-0.31563 -1.003478,-0.17181 -0.55,0.14383 -1,0.10052 -1,-0.0962 0,-0.48812 -5.056432,-2.07277 -5.580482,-1.74889 -0.230735,0.1426 -0.419518,0.0627 -0.419518,-0.17763 0,-0.69333 -3.401138,-2.12866 -4.261613,-1.79847 -0.428604,0.16447 -0.71383,0.0714 -0.633834,-0.20682 0.08,-0.27823 -1.207496,-1.41385 -2.861093,-2.52361 -1.653597,-1.10976 -4.466097,-3.56426 -6.25,-5.45445 -3.443955,-3.64915 -6.021172,-6.63876 -5.722991,-6.63876 0.09913,0 -0.587229,-1.63125 -1.525247,-3.625 -1.969039,-4.185176 -4.111512,-11.311661 -4.567774,-15.19374 -0.173321,-1.474693 -0.487741,-2.68126 -0.69871,-2.68126 -0.21097,0 -0.258246,-0.934443 -0.105059,-2.076541 0.200591,-1.495519 0.117328,-1.976918 -0.297578,-1.720492 -0.327889,0.202647 -0.576101,0.06045 -0.576101,-0.330028 0,-0.474783 0.731439,-0.708815 2.375,-0.759906 1.821773,-0.05663 2.142062,0.03567 1.375,0.396269 -0.800107,0.376127 -0.600213,0.458792 1,0.413547 1.1,-0.0311 2.397112,0.111396 2.882472,0.316663 0.485359,0.205266 1.318321,0.259234 1.851026,0.119929 0.532705,-0.139306 1.037737,-0.04573 1.122294,0.207937 0.08456,0.253671 1.311302,0.511035 2.7261,0.571921 1.414798,0.06089 2.482959,0.25545 2.37369,0.432364 -0.272584,0.441334 2.225221,1.03012 2.817412,0.664126 0.262353,-0.162143 0.477006,-0.03245 0.477006,0.288197 0,0.320652 0.322963,0.45907 0.717696,0.307597 0.394733,-0.151473 0.788483,-0.109096 0.875,0.09417 0.08652,0.203268 1.937334,1.209268 4.112927,2.235554 7.971688,3.760464 14.183139,9.436376 18.348259,16.766307 1.1946,2.102311 2.33354,3.893171 2.53097,3.979688 0.19744,0.08652 0.24617,0.451256 0.1083,0.810531 -0.13786,0.359274 0.0616,0.965497 0.44327,1.347167 0.38166,0.38166 0.60085,0.97317 0.48709,1.31446 -0.11377,0.3413 -0.0194,0.62099 0.20982,0.62153 0.22917,5.5e-4 0.46694,0.71483 0.52839,1.58729 0.0614,0.87246 0.28644,1.71576 0.5,1.874 0.21355,0.15825 0.45398,1.30022 0.53428,2.53772 0.0803,1.2375 0.31107,2.30817 0.51281,2.37927 0.20174,0.0711 0.28115,1.02735 0.17648,2.125 -0.10468,1.09765 0.008,1.99573 0.2504,1.99573 0.2424,0 0.35687,0.87943 0.25436,1.95428 -0.14226,1.49181 -0.44119,2.02264 -1.26321,2.24317 -1.62908,0.43705 -2.16301,0.34618 -1.32684,-0.2258 z"
     id="path832"
     inkscape:connector-curvature="0"
     transform="scale(0.75)" />
  <path
     style="fill:#333333;fill-opacity:1;stroke:#000000;stroke-width:0;stroke-miterlimit:4;stroke-dasharray:none;stroke-opacity:1"
     d="m 148.51804,119.48494 -1.84806,-0.15589 0.26459,-2.59643 c 0.14553,-1.42803 0.46808,-3.80372 0.71679,-5.27932 0.24871,-1.47559 0.34111,-2.86262 0.20535,-3.08229 -0.13576,-0.21967 -0.0281,-0.47487 0.23916,-0.5671 0.2673,-0.0922 0.54995,-0.95521 0.62812,-1.91771 0.0782,-0.9625 0.30529,-1.87234 0.50473,-2.02186 0.19944,-0.14952 0.42444,-0.82452 0.5,-1.5 0.0756,-0.67548 0.27418,-1.34064 0.44137,-1.47814 0.1672,-0.1375 0.79797,-1.375 1.40171,-2.75 3.13715,-7.144753 9.46497,-14.503583 15.30635,-17.800255 1.50587,-0.849862 2.73795,-1.762004 2.73795,-2.026982 0,-0.264979 0.225,-0.342722 0.5,-0.172763 0.275,0.16996 0.5,0.05746 0.5,-0.25 0,-0.307459 0.20814,-0.430379 0.46253,-0.273156 0.57676,0.356456 3.03747,-0.726356 3.03747,-1.33661 0,-0.247088 0.18787,-0.333138 0.4175,-0.191222 0.48262,0.298278 4.08232,-0.722602 4.08285,-1.157902 2e-4,-0.160111 0.56354,-0.32361 1.25187,-0.363333 0.68833,-0.03972 1.64443,-0.235325 2.12465,-0.434672 0.48022,-0.199347 1.43563,-0.430445 2.12313,-0.513552 1.75544,-0.212203 7.14883,-1.05896 7.75,-1.216743 1.57582,-0.413593 4.17279,0.0648 4.46344,0.822215 0.17623,0.459264 0.12184,0.965514 -0.12087,1.125 -0.24271,0.159487 -0.58436,1.866968 -0.75922,3.794404 -0.17486,1.927436 -0.7573,5.177979 -1.29431,7.223428 -0.53702,2.04545 -0.86471,3.899707 -0.72821,4.120571 0.1365,0.220865 0.0513,0.401572 -0.18932,0.401572 -0.24062,0 -0.97149,1.29375 -1.62416,2.875 -2.71161,6.569622 -7.593,12.90784 -12.99493,16.87322 -5.4712,4.01623 -14.56368,7.59331 -22.25242,8.75434 -2.2,0.33221 -4.45,0.74983 -5,0.92804 -0.55,0.17822 -1.83163,0.25388 -2.84806,0.16814 z"
     id="path834"
     inkscape:connector-curvature="0"
     transform="scale(0.75)" />
  <path
     style="fill:#333333;fill-opacity:1;stroke:#000000;stroke-width:0;stroke-miterlimit:4;stroke-dasharray:none;stroke-opacity:1"
     d="m 127.48255,149.5112 c -1.48634,-2.13125 -4.68604,-6.8 -7.11045,-10.375 -2.42441,-3.575 -4.65507,-6.72581 -4.95701,-7.00181 -1.26882,-1.15977 -0.65051,-1.61756 2.59938,-1.92452 4.37628,-0.41334 19.39324,-0.41306 24.28513,4.5e-4 l 3.83437,0.32413 -0.77046,1.17587 c -0.42376,0.64674 -0.59653,1.18272 -0.38394,1.19108 0.21259,0.008 0.002,0.23932 -0.46771,0.51323 -0.52125,0.30389 -0.73175,0.81719 -0.54003,1.31682 0.1871,0.48755 0.11022,0.69272 -0.19004,0.50716 -0.27733,-0.17141 -3.29519,3.84168 -6.70636,8.91797 -3.41116,5.07629 -6.35699,9.22962 -6.54629,9.22962 -0.18929,0 -1.56026,-1.74375 -3.04659,-3.875 z"
     id="path836"
     inkscape:connector-curvature="0"
     transform="scale(0.75)" />
  <path
     style="fill:#000000;fill-opacity:1;stroke:#000000;stroke-width:0;stroke-miterlimit:4;stroke-dasharray:none;stroke-opacity:1"
     d="m 83.249853,238.2612 c -1.61619,-1.74734 -6.609605,-10.19063 -8.64932,-14.625 -2.890075,-6.28305 -3.66011,-9.09056 -3.634175,-13.25 0.02765,-4.43769 0.75623,-6.40681 3.57585,-9.66462 1.14064,-1.31791 2.07389,-2.55876 2.07389,-2.75745 0,-0.19869 -2.98125,-1.67975 -6.625,-3.29125 -17.686477,-7.8221 -30.176746,-16.35917 -41.875,-28.62149 C 15.565113,152.89523 7.9980061,138.42556 4.8315133,121.52707 4.1513365,117.8972 4.0608327,114.87104 4.2894728,103.40293 4.4404301,95.831225 4.7862796,86.3737 5.0580274,82.3862 5.3297752,78.3987 5.5665106,63.940421 5.5841061,50.25669 l 0.031992,-24.87951 29.8749999,0.260215 c 37.87554,0.329901 42.831205,0.508925 49.45103,1.786419 11.444315,2.208525 25.012492,6.700621 38.416052,12.718621 3.36107,1.509071 6.50482,2.743765 6.98611,2.743765 0.4813,0 3.60809,-1.222193 6.94844,-2.715985 14.25263,-6.373722 26.42111,-10.278286 40.05012,-12.851091 6.59287,-1.244565 24.58733,-1.839488 57.366,-1.896605 l 20.84276,-0.03632 0.28295,32.875 c 0.15562,18.08125 0.40888,38.77096 0.5628,45.977131 0.32429,15.18243 -0.0857,18.69893 -3.30273,28.32837 -4.74027,14.18886 -12.08224,25.48926 -24.16558,37.1945 -6.36828,6.16901 -13.57743,11.76589 -20.17367,15.66199 -4.70721,2.78034 -16.00281,8.48516 -21.26428,10.73949 -1.85625,0.79532 -3.375,1.57447 -3.375,1.73142 0,0.15696 1.10364,1.59064 2.45253,3.18596 3.41794,4.04235 4.26354,7.91799 3.00648,13.77948 -0.65056,3.03345 -7.01023,15.98852 -10.07658,20.52666 -1.86433,2.75916 -2.41693,3.25 -3.65896,3.25 -1.25459,0 -1.89104,-0.58489 -4.46823,-4.10632 -1.65288,-2.25848 -3.17115,-4.11473 -3.37393,-4.125 -0.20278,-0.0102 -1.76328,1.89382 -3.46777,4.23132 -4.23237,5.80416 -4.6689,5.75195 -9.40587,-1.125 -1.18391,-1.71875 -2.32339,-3.125 -2.53217,-3.125 -0.20878,0 -1.69493,1.80452 -3.30255,4.01005 -3.01885,4.14161 -4.54017,5.13372 -6.01221,3.92079 -1.41184,-1.16333 -4.19857,-5.86014 -8.41383,-14.18084 -2.22903,-4.4 -4.19279,-8.1125 -4.36389,-8.25 -0.17111,-0.1375 -2.34493,3.8 -4.8307,8.75 -4.29331,8.54938 -7.29004,13.28145 -9.13541,14.42552 -1.12341,0.69649 -1.81654,0.0625 -5.18122,-4.73927 -1.51701,-2.16494 -2.9594,-3.93625 -3.20532,-3.93625 -0.24592,0 -1.70258,1.79167 -3.23703,3.98149 -1.53445,2.18982 -3.24679,4.22601 -3.80522,4.52487 -1.171362,0.62689 -2.230702,-0.30883 -5.886667,-5.19971 -1.1817,-1.58085 -2.4192,-2.78588 -2.75,-2.67783 -0.3308,0.10805 -1.455925,1.41454 -2.50028,2.90331 -2.566835,3.65915 -4.226705,5.46787 -5.017875,5.46787 -0.36244,0 -1.12724,-0.50625 -1.699545,-1.125 z M 153.6161,180.70348 c 7.55738,-0.86437 19.34,-2.95375 22.60494,-4.00848 1.17978,-0.38112 4.50756,-1.42685 7.39506,-2.32384 2.8875,-0.89699 5.475,-1.78106 5.75,-1.9646 0.275,-0.18354 2.13441,-0.95933 4.13202,-1.72398 3.85631,-1.47611 12.21256,-6.29532 16.36798,-9.43973 7.21175,-5.45714 14.83261,-14.48605 18.66457,-22.1131 4.6118,-9.17925 6.11999,-16.32131 6.43932,-30.49355 0.48774,-21.64714 -1.55749,-37.504754 -6.02956,-46.75 -1.82629,-3.775536 -7.45757,-9.744226 -10.57433,-11.207906 -1.1,-0.516577 -2.39407,-1.133232 -2.87571,-1.370343 -0.48164,-0.237111 -2.84414,-0.901554 -5.25,-1.476539 -9.02085,-2.155926 -34.50206,-1.585946 -46.12429,1.031738 -2.3375,0.526477 -10.80617,3.067735 -18.81926,5.647242 l -14.56925,4.690011 -12.43075,-4.919929 c -13.00591,-5.147572 -21.216922,-8.025591 -25.430742,-8.913653 -5.54115,-1.167798 -13.41731,-1.572554 -25.5,-1.310445 -10.76789,0.233588 -12.96474,0.415675 -15.853876,1.314059 -1.844631,0.573593 -3.48916,1.261792 -3.654508,1.529331 -0.165348,0.267539 -0.737354,0.486434 -1.271125,0.486434 -0.53377,0 -0.970491,0.170075 -0.970491,0.377945 0,0.207869 -0.647146,0.664398 -1.438101,1.014509 -1.549833,0.686023 -5.989984,4.993323 -7.6145,7.386672 -1.725834,2.542616 -3.345333,5.944012 -4.411328,9.265007 -0.565972,1.763227 -1.249176,3.880867 -1.518231,4.705867 -2.184782,6.699185 -3.76293,35.50115 -2.575274,47 0.58225,5.63733 2.478682,14.03673 3.886902,17.2153 4.714931,10.64234 6.567505,13.47495 13.376962,20.45355 5.581406,5.72005 10.13743,9.12888 17.331635,12.96759 6.88512,3.67379 17.543955,7.71471 24.711935,9.36866 1.925,0.44418 4.85,1.12168 6.5,1.50555 2.478345,0.57659 11.576652,1.92486 19.750002,2.92672 4.12754,0.50595 33.56818,-0.13446 40,-0.87009 z"
     id="path838"
     inkscape:connector-curvature="0"
     transform="scale(0.75)" />
  <path
     style="fill:#f9f9f9;fill-opacity:1;stroke:#000000;stroke-width:0;stroke-miterlimit:4;stroke-dasharray:none;stroke-opacity:1"
     d="m 109.1161,118.83701 c -8.50386,-1.33678 -14.417986,-2.90586 -18.782864,-4.98329 -1.118075,-0.53213 -2.311336,-0.96752 -2.651692,-0.96752 -1.017001,0 -7.046581,-5.07598 -11.176243,-9.40869 -4.042392,-4.241141 -5.773877,-7.294666 -8.132166,-14.34131 -1.319837,-3.943719 -3.257037,-12.752736 -3.257037,-14.810708 0,-0.745777 -0.28125,-1.469445 -0.625,-1.608151 -2.011272,-0.811567 9.29272,0.574341 13.665452,1.675429 1.077751,0.271387 2.872653,0.722508 3.98867,1.002492 2.599972,0.652276 9.426865,4.080657 12.970878,6.513813 1.5125,1.038414 4.141987,3.314322 5.843302,5.057575 3.17081,3.248964 8.6567,11.42127 8.6567,12.895847 0,0.453033 0.20946,1.037453 0.46547,1.298703 0.6856,0.69964 2.40697,7.6416 3.0384,12.25331 0.56846,4.15177 0.35977,6.0143 -0.66257,5.91324 -0.32521,-0.0322 -1.8288,-0.25298 -3.3413,-0.49074 z"
     id="path840"
     inkscape:connector-curvature="0"
     transform="scale(0.75)" />
  <path
     style="fill:#f9f9f9;fill-opacity:1;stroke:#000000;stroke-width:0;stroke-miterlimit:4;stroke-dasharray:none;stroke-opacity:1"
     d="m 147.03321,117.41563 c -0.11037,-1.1573 -0.009,-2.22259 0.22507,-2.3673 0.23415,-0.14472 0.36441,-0.97489 0.28946,-1.84483 -0.075,-0.86993 0.0368,-1.86172 0.24832,-2.20397 0.21152,-0.34225 0.24841,-1.05133 0.082,-1.57573 -0.16643,-0.52439 -0.0531,-1.10764 0.25182,-1.2961 0.30493,-0.18846 0.43641,-0.65019 0.29217,-1.02606 -0.14424,-0.37588 -0.0434,-0.81867 0.22407,-0.98398 0.26748,-0.16531 0.35078,-0.51987 0.18512,-0.78791 -0.16566,-0.26805 -5.8e-4,-0.84958 0.36684,-1.2923 0.36743,-0.44272 0.59474,-0.88661 0.50515,-0.98642 -0.34507,-0.38442 0.51778,-3.16483 0.98213,-3.16483 0.26938,0 0.35073,-0.225 0.18077,-0.5 -0.16996,-0.275 -0.0778,-0.5 0.2048,-0.5 0.2826,0 0.37014,-0.37441 0.19454,-0.832022 -0.1985,-0.517265 -0.11994,-0.708821 0.20766,-0.506355 0.50406,0.311529 2.01126,-2.500003 1.76188,-3.286623 -0.0654,-0.20625 0.0762,-0.375 0.31467,-0.375 0.23846,0 1.06329,-0.95625 1.83296,-2.125 2.0333,-3.087573 7.52028,-8.633941 10.31683,-10.42848 1.32916,-0.852921 2.41666,-1.765589 2.41666,-2.028151 0,-0.262562 0.225,-0.338328 0.5,-0.168369 0.275,0.16996 0.5,0.0859 0.5,-0.186797 0,-0.497236 1.92163,-1.348072 2.625,-1.162265 0.20625,0.05448 0.375,-0.139217 0.375,-0.430446 0,-0.29123 0.22672,-0.389384 0.50383,-0.218121 0.27711,0.171263 0.85775,-0.04252 1.29031,-0.475088 0.43256,-0.432561 0.97779,-0.668236 1.21162,-0.523722 0.23383,0.144513 0.56039,0.04391 0.7257,-0.223568 0.16531,-0.267475 0.63086,-0.359573 1.03455,-0.204661 0.40855,0.156777 0.73399,-6.98e-4 0.73399,-0.355171 0,-0.350255 0.14805,-0.48878 0.32899,-0.307832 0.18095,0.180947 0.61535,0.09134 0.96534,-0.199123 0.34999,-0.290465 1.33497,-0.547981 2.18884,-0.572259 0.85387,-0.02428 1.67251,-0.238342 1.81921,-0.4757 0.14669,-0.237357 0.44697,-0.320156 0.66728,-0.183996 0.22031,0.136159 2.55311,-0.113115 5.18399,-0.553944 2.63089,-0.440828 5.33412,-0.663291 6.00719,-0.494362 1.09926,0.275898 1.21996,0.558996 1.18641,2.782864 -0.0219,1.44953 -0.23675,2.352487 -0.5184,2.178415 -0.29414,-0.18179 -0.37412,0.499925 -0.20584,1.754532 0.15544,1.158955 0.061,2.123252 -0.21712,2.215947 -0.27078,0.09026 -0.52913,1.112603 -0.57411,2.271874 -0.045,1.159271 -0.2746,2.109039 -0.51028,2.110595 -0.23567,0.0016 -0.30141,0.333989 -0.1461,0.73874 0.33471,0.872222 -0.60697,3.857009 -1.3823,4.381432 -0.32267,0.218249 -0.34017,0.373558 -0.0431,0.382656 0.28182,0.0086 0.25508,0.175602 -0.0613,0.382657 -0.30871,0.202039 -1.37332,1.984754 -2.3658,3.96159 -0.99247,1.976835 -2.85047,4.901833 -4.12888,6.500003 -2.28592,2.85768 -7.6788,8.23361 -7.70992,7.6857 -0.009,-0.15397 -0.34625,0.1568 -0.75,0.69062 -0.40376,0.53381 -0.7341,0.80928 -0.7341,0.61215 0,-0.19712 -0.675,-0.009 -1.5,0.41728 -0.825,0.42662 -1.5,1.00818 -1.5,1.29235 0,0.28417 -0.225,0.37761 -0.5,0.20765 -0.275,-0.16996 -0.5,-0.0575 -0.5,0.25 0,0.30746 -0.20055,0.43507 -0.44566,0.28359 -0.50319,-0.31099 -5.21905,1.63921 -5.46165,2.25861 -0.0865,0.22089 -0.48026,0.27769 -0.875,0.12622 -0.39473,-0.15148 -0.71821,-0.0826 -0.71883,0.15309 -6.5e-4,0.23567 -0.7219,0.45479 -1.60282,0.48693 -0.88092,0.0321 -1.67869,0.28951 -1.77283,0.57192 -0.0941,0.28242 -0.61037,0.39863 -1.14719,0.25825 -0.53681,-0.14038 -0.97602,-0.0352 -0.97602,0.23374 0,0.26894 -0.5625,0.38145 -1.25,0.25003 -0.6875,-0.13143 -1.25,-0.044 -1.25,0.19433 0,0.23831 -0.73125,0.45724 -1.625,0.48652 -0.89375,0.0293 -3.11725,0.22809 -4.94111,0.4418 l -3.31612,0.38858 z"
     id="path842"
     inkscape:connector-curvature="0"
     transform="scale(0.75)" />
  <path
     style="fill:#f9f9f9;fill-opacity:1;stroke:#000000;stroke-width:0;stroke-miterlimit:4;stroke-dasharray:none;stroke-opacity:1"
     d="m 128.95892,151.2612 c -0.66444,-0.89375 -4.0706,-5.76204 -7.56925,-10.81842 -4.30837,-6.22664 -6.16968,-9.31177 -5.76778,-9.56016 1.67456,-1.03494 30.03338,-1.08398 29.97774,-0.0518 -0.0601,1.11421 -14.3739,22.03992 -15.08309,22.0503 -0.19225,0.003 -0.89318,-0.72613 -1.55762,-1.61988 z"
     id="path844"
     inkscape:connector-curvature="0"
     transform="scale(0.75)" />
  <path
     style="fill:#ececec;fill-opacity:1;stroke:#000000;stroke-width:0;stroke-miterlimit:4;stroke-dasharray:none;stroke-opacity:1"
     d="m 103.55813,117.60725 c -3.19438,-0.65389 -7.356881,-1.77143 -9.249999,-2.48341 -1.893118,-0.71199 -4.382389,-1.63496 -5.531713,-2.05105 C 84.592842,111.55821 74.551614,101.84039 71.779003,96.622831 69.184554,91.740537 66.563028,82.836929 65.415799,75.0112 c -0.308767,-2.106227 -0.297957,-2.125 1.223614,-2.125 5.022198,0 15.217162,2.387783 20.38035,4.773323 10.382811,4.797154 19.210537,13.865376 22.811937,23.433397 1.55015,4.11839 3.2844,12.30109 3.2844,15.49682 v 2.29646 l -1.875,-0.045 c -1.03125,-0.0248 -4.48859,-0.58003 -7.68297,-1.23393 z"
     id="path846"
     inkscape:connector-curvature="0"
     transform="scale(0.75)" />
  <path
     style="fill:#ececec;fill-opacity:1;stroke:#000000;stroke-width:0;stroke-miterlimit:4;stroke-dasharray:none;stroke-opacity:1"
     d="m 147.36724,118.3898 c -0.37381,-1.17776 0.541,-8.26589 1.54921,-12.0036 0.40798,-1.5125 0.85369,-3.28095 0.99045,-3.92988 0.40606,-1.92675 4.02852,-8.413458 6.40706,-11.473075 3.69513,-4.753208 13.1883,-13.097045 14.90112,-13.097045 0.27494,0 1.20889,-0.310673 2.07545,-0.690385 5.27756,-2.312533 14.55033,-4.309615 20.01023,-4.309615 h 2.31534 l -0.0365,1.875 c -0.0379,1.944766 -0.3784,4.150037 -1.6638,10.774451 -0.78227,4.031464 -2.98131,8.629723 -6.98248,14.600549 -2.25668,3.36758 -9.47352,10.75 -10.50889,10.75 -0.37041,0 -1.25168,0.45482 -1.95837,1.0107 -0.7067,0.55589 -2.20427,1.33508 -3.32794,1.73153 -1.12367,0.39646 -2.76956,1.04707 -3.65753,1.4458 -2.92293,1.31252 -8.54415,2.75859 -12.86449,3.30943 -2.3375,0.29802 -4.85617,0.63737 -5.59705,0.75411 -1.00267,0.15799 -1.42496,-0.0332 -1.65181,-0.74797 z"
     id="path848"
     inkscape:connector-curvature="0"
     transform="scale(0.75)" />
  <path
     style="fill:#e6e6e6;fill-opacity:1;stroke:#000000;stroke-width:0;stroke-miterlimit:4;stroke-dasharray:none;stroke-opacity:1"
     d="m 128.94902,150.7612 c -2.43595,-3.25 -11.94845,-17.16002 -12.6228,-18.45816 l -0.69253,-1.33317 3.6162,-0.33377 c 4.4549,-0.41119 25.15448,-0.13068 25.63111,0.34733 0.53963,0.5412 -13.45201,21.3832 -14.36446,21.39735 -0.19225,0.003 -0.89764,-0.72583 -1.56752,-1.61958 z"
     id="path850"
     inkscape:connector-curvature="0"
     transform="scale(0.75)" />
  <path
     style="fill:#e6e6e6;fill-opacity:1;stroke:#000000;stroke-width:0;stroke-miterlimit:4;stroke-dasharray:none;stroke-opacity:1"
     d="m 103.41468,117.58682 c -7.283255,-1.51007 -15.52965,-4.551 -18.748015,-6.9135 C 80.360692,107.51245 73.253962,99.635408 71.422779,95.993912 69.339256,91.850613 67.457733,85.969713 66.127954,79.444378 64.780079,72.830244 64.774205,72.8862 66.816412,72.8862 c 3.045182,0 12.967626,1.920985 16.418342,3.178592 3.319379,1.20974 10.119826,4.661618 11.671377,5.92434 7.404919,6.026459 13.247709,13.708113 15.375889,20.215068 1.65175,5.05023 2.83408,10.95792 2.83408,14.16092 v 2.52108 l -1.875,-0.0327 c -1.03125,-0.018 -4.55314,-0.588 -7.82642,-1.26666 z"
     id="path852"
     inkscape:connector-curvature="0"
     transform="scale(0.75)" />
  <path
     style="fill:#e6e6e6;fill-opacity:1;stroke:#000000;stroke-width:0;stroke-miterlimit:4;stroke-dasharray:none;stroke-opacity:1"
     d="m 147.30482,118.6568 c -0.82947,-2.16156 2.07854,-16.3224 4.07887,-19.862446 0.67071,-1.186984 1.37276,-2.495654 1.56012,-2.908154 0.86767,-1.910357 3.64831,-5.552046 6.64161,-8.698262 3.31444,-3.483746 10.62614,-9.299137 11.69897,-9.304818 0.31994,-0.0017 1.17473,-0.312505 1.89954,-0.69069 3.78334,-1.974042 14.57018,-4.276887 20.12897,-4.297261 l 2.4468,-0.009 -0.31808,3.375 c -0.17494,1.85625 -0.66617,5.0625 -1.09162,7.125 -0.42544,2.0625 -0.82087,4.0875 -0.87872,4.5 -0.15426,1.099933 -4.73826,9.884929 -6.52249,12.500001 -2.13312,3.12643 -9.37099,10.28907 -10.85601,10.74317 -0.67468,0.20631 -1.56418,0.65969 -1.97668,1.00752 -0.89986,0.75877 -8.65328,3.81946 -12.5,4.93442 -2.42381,0.70254 -4.66593,1.08674 -12.13765,2.07985 -1.38147,0.18362 -1.96434,0.0511 -2.17363,-0.49436 z"
     id="path854"
     inkscape:connector-curvature="0"
     transform="scale(0.75)" />
  <path
     style="fill:#e6e6e6;fill-opacity:1;stroke:#000000;stroke-width:0;stroke-miterlimit:4;stroke-dasharray:none;stroke-opacity:1"
     d="m 129.28863,151.2612 c -1.37877,-1.54836 -10.70519,-15.0925 -12.36781,-17.96095 l -1.35397,-2.33594 2.69382,-0.33657 c 1.48161,-0.18512 7.95839,-0.25894 14.39286,-0.16406 10.97871,0.1619 11.71017,0.2304 11.88,1.11261 0.0995,0.51704 -0.0294,1.07954 -0.28652,1.25 -0.25711,0.17045 -1.10631,1.43491 -1.88711,2.80991 -1.87675,3.305 -11.29024,16.75 -11.72747,16.75 -0.18811,0 -0.79282,-0.50625 -1.3438,-1.125 z"
     id="path856"
     inkscape:connector-curvature="0"
     transform="scale(0.75)" />
  <path
     style="fill:#808080;fill-opacity:1;stroke:#000000;stroke-width:0;stroke-miterlimit:4;stroke-dasharray:none;stroke-opacity:1"
     d="m 147.29597,118.63374 c -0.41024,-1.06906 0.65293,-8.99577 1.84767,-13.77583 1.67765,-6.712092 5.83599,-13.306527 12.28971,-19.489428 5.88274,-5.635882 8.64082,-7.355341 15.18275,-9.465314 5.95863,-1.921842 11.88078,-3.006796 16.4473,-3.013191 l 2.6973,-0.0038 -0.30953,3.314666 c -0.61645,6.601477 -1.904,11.886006 -3.90178,16.014234 -8.24614,17.039913 -19.01379,24.015853 -41.56201,26.926443 -1.92469,0.24844 -2.43841,0.15152 -2.69141,-0.5078 z"
     id="path858"
     inkscape:connector-curvature="0"
     transform="scale(0.75)" />
  <path
     style="fill:#808080;fill-opacity:1;stroke:#000000;stroke-width:0;stroke-miterlimit:4;stroke-dasharray:none;stroke-opacity:1"
     d="m 104.3661,117.85626 c -5.865,-1.21713 -11.918154,-3.11771 -16.125045,-5.06297 -2.707066,-1.25174 -4.488124,-2.67014 -8.999957,-7.16741 -3.09375,-3.08377 -5.625,-5.861735 -5.625,-6.173264 0,-0.311529 -0.194113,-0.566416 -0.431362,-0.566416 -0.669719,0 -3.336734,-5.806378 -4.760114,-10.36328 -1.249335,-3.999702 -3.308524,-13.236118 -3.308524,-14.840262 0,-1.036198 2.397122,-1.047487 8.309505,-0.03913 6.548947,1.116918 10.872126,2.533035 16.190495,5.30342 7.458748,3.885328 13.270972,9.430239 17.880832,17.058461 2.8703,4.749671 5.5944,14.583131 5.61133,20.255791 l 0.008,2.625 -2.125,-0.048 c -1.16875,-0.0264 -4.15,-0.46828 -6.625,-0.9819 z"
     id="path860"
     inkscape:connector-curvature="0"
     transform="scale(0.75)" />
  <path
     style="fill:#808080;fill-opacity:1;stroke:#000000;stroke-width:0;stroke-miterlimit:4;stroke-dasharray:none;stroke-opacity:1"
     d="m 129.27914,151.2612 c -1.38381,-1.53945 -10.70526,-15.07793 -12.36638,-17.96095 l -1.34591,-2.33594 2.64962,-0.32124 c 1.4573,-0.17668 7.93426,-0.2505 14.39326,-0.16405 10.6362,0.14236 11.75921,0.2383 11.90881,1.01736 0.0908,0.47311 -0.88901,2.49811 -2.17747,4.5 -3.45734,5.37176 -11.33518,16.38982 -11.7186,16.38982 -0.18263,0 -0.78713,-0.50625 -1.34333,-1.125 z"
     id="path862"
     inkscape:connector-curvature="0"
     transform="scale(0.75)" />
  <path
     style="fill:#000000;fill-opacity:1;stroke:#000000;stroke-width:0;stroke-miterlimit:4;stroke-dasharray:none;stroke-opacity:1"
     d="m 105.6161,118.91049 c 0,-0.24803 0.39375,-0.56549 0.875,-0.70546 0.55752,-0.16215 0.42145,-0.23919 -0.375,-0.21232 -0.6875,0.0232 -1.5875,-0.0942 -2,-0.26096 -0.4125,-0.16672 -2.1,-0.64234 -3.75,-1.05692 -1.650002,-0.41459 -4.320151,-1.20859 -5.933666,-1.76446 -1.613514,-0.55587 -3.132264,-0.88793 -3.375,-0.73791 -0.242735,0.15001 -0.441336,0.0729 -0.441336,-0.17128 0,-0.24422 -1.18125,-0.98522 -2.625,-1.64667 C 84.192899,110.6144 73.754055,100.20022 71.73437,96.1362 69.646719,91.93542 67.777678,86.115265 66.484656,79.788708 65.781734,76.349419 65.150757,74.3862 64.748295,74.3862 c -0.347709,0 -0.632197,-0.238279 -0.632197,-0.529508 0,-0.29123 0.184883,-0.415245 0.41085,-0.275589 0.225968,0.139655 1.009657,-0.05675 1.741532,-0.436447 0.903776,-0.468885 1.435292,-0.521105 1.656754,-0.162772 0.200946,0.325138 1.307431,0.412907 2.883467,0.228722 1.854059,-0.216676 2.351131,-0.155069 1.807397,0.224009 -0.546252,0.380833 -0.07084,0.447919 1.75,0.246942 1.850149,-0.204212 2.240059,-0.146693 1.5,0.221279 -0.873313,0.434228 -0.825805,0.473454 0.375,0.309628 0.75625,-0.103176 1.375,0.03245 1.375,0.301388 0,0.268939 0.439212,0.374123 0.976026,0.233743 0.536815,-0.14038 1.043065,-0.102044 1.125,0.08519 0.08194,0.187235 1.810505,0.948418 3.841265,1.691519 12.499185,4.573732 22.350651,14.148869 26.351031,25.611896 0.76776,2.2 1.52209,4.1125 1.6763,4.25 0.15421,0.1375 0.33995,1.0375 0.41277,2 0.0728,0.9625 0.25767,2.0875 0.4108,2.5 0.15313,0.4125 0.37643,2.38922 0.49623,4.3927 l 0.21781,3.6427 -2.37861,-0.30956 c -1.30824,-0.17026 -2.99737,-0.0713 -3.75362,0.21992 -0.75895,0.29226 -1.375,0.32744 -1.375,0.0785 z"
     id="path883"
     inkscape:connector-curvature="0"
     transform="scale(0.75)" />
  <path
     style="fill:#000000;fill-opacity:1;stroke:#000000;stroke-width:0;stroke-miterlimit:4;stroke-dasharray:none;stroke-opacity:1"
     d="m 149.53578,118.9872 -1.83032,-0.15604 -0.16968,-2.77095 c -0.0933,-1.52402 -9.3e-4,-2.87491 0.20532,-3.00198 0.61659,-0.37989 0.42395,-2.56894 -0.25,-2.84089 -0.35127,-0.14174 -0.2144,-0.26948 0.3125,-0.29167 0.7651,-0.0322 0.88362,-0.30884 0.64453,-1.50431 -0.16113,-0.80567 -0.0806,-1.53692 0.17889,-1.625 0.25953,-0.0881 0.54995,-0.83516 0.64538,-1.66016 0.22237,-1.92232 3.26286,-8.466875 5.38329,-11.587327 3.82114,-5.623243 13.03593,-13.936952 17.33541,-15.640233 0.89375,-0.354068 1.625,-0.793249 1.625,-0.975957 0,-0.182708 0.39375,-0.356165 0.875,-0.385459 0.48125,-0.02929 3.4625,-0.728093 6.625,-1.552886 3.1625,-0.824794 7.83487,-1.660713 10.38305,-1.857599 l 4.63304,-0.357975 -0.50804,1.336268 c -0.27943,0.734947 -0.51101,2.05287 -0.51462,2.928718 -0.0257,6.223432 -4.00674,16.991897 -8.71174,23.56454 -2.25337,3.14785 -11.28169,11.95719 -11.28169,11.00806 0,-0.1068 -1.84435,0.69773 -4.09855,1.78784 -2.25421,1.0901 -4.39171,1.98201 -4.75,1.98201 -0.3583,0 -0.65145,0.23828 -0.65145,0.52951 0,0.29123 -0.1842,0.41567 -0.40932,0.27653 -0.22513,-0.13913 -2.03618,0.16549 -4.02456,0.67695 -1.98837,0.51146 -4.78543,1.08721 -6.21568,1.27945 -1.43024,0.19224 -2.82544,0.49467 -3.10044,0.67207 -0.275,0.17739 -1.32365,0.25231 -2.33032,0.16649 z"
     id="path885"
     inkscape:connector-curvature="0"
     transform="scale(0.75)" />
  <path
     style="fill:#000000;fill-opacity:1;stroke:#000000;stroke-width:0;stroke-miterlimit:4;stroke-dasharray:none;stroke-opacity:1"
     d="m 128.44823,149.7612 c -2.28009,-2.7929 -12.33213,-17.80338 -12.33213,-18.41528 0,-0.29248 5.33849,-0.42438 13.86835,-0.34263 12.17072,0.11664 13.88694,0.22956 14.0202,0.92243 0.22928,1.19212 -12.40951,19.96048 -13.44158,19.96048 -0.20901,0 -1.16069,-0.95625 -2.11484,-2.125 z"
     id="path887"
     inkscape:connector-curvature="0"
     transform="scale(0.75)" />
  <path
     style="fill:#ffffff;fill-opacity:1;stroke:#000000;stroke-width:0;stroke-miterlimit:4;stroke-dasharray:none;stroke-opacity:1"
     d="m 83.341988,237.94647 c -3.111125,-3.29624 -10.09861,-16.60319 -11.457145,-21.81896 -0.87824,-3.37179 -0.99585,-7.70604 -0.277105,-10.21216 0.2704,-0.94284 1.5079,-3.0229 2.75,-4.62237 1.2421,-1.59947 2.25836,-3.09192 2.25836,-3.31657 0,-0.22465 -3.09375,-1.83814 -6.875,-3.58554 C 51.995916,186.19041 41.010631,178.79461 29.952235,167.60317 17.015956,154.51125 9.4057015,141.02182 5.5707744,124.3862 4.5835107,120.10353 4.4828389,118.3818 4.547526,106.8862 4.586986,99.8737 4.8404437,89.7487 5.110765,84.3862 5.3810863,79.0237 5.6053722,63.583908 5.6091781,50.075551 l 0.00692,-24.560649 24.8749999,0.210359 c 35.219955,0.297842 49.656915,0.852721 55.875,2.147534 10.064285,2.095719 22.326902,6.156094 35.325152,11.696796 4.27934,1.824135 8.18302,3.316609 8.67485,3.316609 0.49182,0 4.34069,-1.469109 8.55304,-3.264687 13.5416,-5.772314 24.16953,-9.217176 35.43965,-11.487153 8.028,-1.616964 18.55647,-2.119486 53.05304,-2.532212 l 28.04574,-0.335547 0.35167,47.184799 c 0.39109,52.47448 0.50826,50.09838 -2.97533,60.3339 -4.61152,13.54963 -11.41885,24.19221 -22.62228,35.36771 -10.56157,10.53524 -18.05691,15.71915 -34.20268,23.65514 -6.52143,3.20543 -11.86518,5.95747 -11.875,6.11566 -0.01,0.15818 0.97984,1.57243 2.19924,3.14278 1.2194,1.57035 2.50622,3.69092 2.85959,4.71239 1.06899,3.09003 0.73728,7.90049 -0.81762,11.85722 -1.87292,4.766 -7.43136,15.46862 -9.54312,18.375 -2.53493,3.48879 -3.4754,3.29482 -7.27295,-1.5 -1.68797,-2.13125 -3.24709,-3.9438 -3.46471,-4.0279 -0.21762,-0.0841 -1.78952,1.64528 -3.49309,3.84304 -1.70358,2.19777 -3.39531,4.11025 -3.75939,4.24996 -0.99363,0.38129 -2.87663,-1.32379 -5.46005,-4.94413 -1.27395,-1.78528 -2.51676,-3.24597 -2.76179,-3.24597 -0.24503,0 -1.52742,1.40615 -2.84974,3.12478 -3.26358,4.24167 -3.9591,4.87522 -5.3521,4.87522 -1.52289,0 -3.06768,-2.32892 -9.05212,-13.647 -2.475,-4.68084 -4.699,-8.5314 -4.94222,-8.55681 -0.24322,-0.0254 -2.33304,3.55381 -4.64404,7.95381 -4.77467,9.09065 -8.00136,14.131 -9.31274,14.54726 -1.18498,0.37614 -1.96237,-0.32498 -5.17084,-4.66348 -1.47802,-1.99858 -2.88367,-3.63378 -3.12366,-3.63378 -0.24,0 -1.39606,1.29375 -2.56903,2.875 -2.84168,3.8308 -4.53751,5.625 -5.31661,5.625 -0.353117,0 -2.131212,-1.8 -3.951317,-4 -1.820105,-2.2 -3.49974,-4 -3.73252,-4 -0.23278,0 -1.801085,1.78111 -3.485125,3.95802 -1.68404,2.17691 -3.376785,4.07885 -3.761655,4.22654 -0.38487,0.14769 -1.29133,-0.35824 -2.014355,-1.12429 z M 144.1161,181.39938 c 27.13585,-1.33173 49.88455,-8.25021 65.5,-19.92028 6.86004,-5.12679 14.1086,-13.4042 18.29742,-20.89451 2.39673,-4.28575 5.02039,-11.74667 6.01301,-17.09923 1.7652,-9.51855 1.43263,-34.733895 -0.62118,-47.09916 -2.2619,-13.618028 -7.78694,-22.542754 -16.43925,-26.554726 -5.70585,-2.645731 -10.02618,-3.196297 -25,-3.1859 -20.6743,0.01435 -23.93802,0.566526 -47.47314,8.031727 L 130.7359,59.009237 119.551,54.632634 C 92.569353,44.074834 92.848133,44.1362 71.866098,44.1362 c -10.99852,0 -16.822315,0.194098 -18.63063,0.620929 -4.634804,1.093992 -9.589999,3.905191 -13.237485,7.509937 -8.994991,8.889594 -12.365865,23.495199 -12.37493,53.619134 -0.003,10.11372 0.586083,15.48971 2.547842,23.25 1.244125,4.92149 6.045331,14.96179 9.085671,19 3.511666,4.66423 12.289579,12.90092 17.068082,16.0157 12.598515,8.21213 29.67729,13.8851 50.291452,16.70506 7.73657,1.05834 22.60515,1.2734 37.5,0.54242 z"
     id="path908"
     inkscape:connector-curvature="0"
     transform="scale(0.75)" />
  <path
     style="fill:#ffffff;fill-opacity:1;stroke:#000000;stroke-width:0;stroke-miterlimit:4;stroke-dasharray:none;stroke-opacity:1"
     d="M 106.3661,118.05015 C 100.80671,116.82681 90.334707,113.39021 87.992575,112.0205 84.554034,110.0096 76.976159,102.91757 73.915429,98.845902 71.249315,95.299188 69.209416,90.114857 67.121887,81.580361 66.25831,78.049782 65.342985,74.909583 65.087831,74.60214 c -0.882125,-1.062895 1.57178,-1.598243 5.278267,-1.151515 5.702019,0.687241 8.498863,1.400681 13.553397,3.457302 5.5855,2.272664 8.693088,4.09066 13.249062,7.750947 8.934743,7.178206 15.447543,20.277186 15.447543,31.069156 v 2.65817 l -2.625,-0.058 c -1.44375,-0.0319 -3.075,-0.15702 -3.625,-0.27805 z"
     id="path910"
     inkscape:connector-curvature="0"
     transform="scale(0.75)" />
  <path
     style="fill:#ffffff;fill-opacity:1;stroke:#000000;stroke-width:0;stroke-miterlimit:4;stroke-dasharray:none;stroke-opacity:1"
     d="m 147.86398,117.7612 c -0.37949,-1.57439 -0.0781,-7.86466 0.37712,-7.87033 0.20625,-0.003 0.375,-0.51277 0.375,-1.13378 0,-1.76392 2.72578,-9.034439 4.73218,-12.622214 2.0206,-3.613177 8.99512,-11.224382 13.25119,-14.46086 4.56699,-3.472908 7.33342,-4.716284 13.95634,-6.27269 5.29745,-1.244917 14.55239,-2.689692 14.91389,-2.328185 0.44374,0.443735 -1.71267,11.015694 -3.03759,14.892047 -2.59936,7.605004 -5.29197,11.867474 -11.31601,17.913512 -5.05021,5.06865 -5.4593,5.35957 -10.75,7.64455 -3.93415,1.69911 -7.55754,2.80066 -12.72703,3.86916 -8.78873,1.81659 -9.42037,1.84042 -9.77509,0.36879 z"
     id="path912"
     inkscape:connector-curvature="0"
     transform="scale(0.75)" />
  <path
     style="fill:#ffffff;fill-opacity:1;stroke:#000000;stroke-width:0;stroke-miterlimit:4;stroke-dasharray:none;stroke-opacity:1"
     d="m 128.08743,148.79111 c -2.38524,-3.01665 -11.47133,-16.53814 -11.47133,-17.07108 0,-0.19259 6.01875,-0.29024 13.375,-0.217 12.43184,0.12378 13.37001,0.19544 13.30422,1.0162 -0.13565,1.69224 -11.26561,18.31243 -12.54987,18.74052 -0.30735,0.10245 -1.50346,-1.00844 -2.65802,-2.46864 z"
     id="path914"
     inkscape:connector-curvature="0"
     transform="scale(0.75)" />
</svg>
