<svg xmlns="http://www.w3.org/2000/svg"
     width="64"
     height="64"
     fill="context-fill"
     fill-opacity="context-fill-opacity"
     viewBox="0 0 64 64">
  <path
     d="M 4,42.928223 V 25.856445 l 4.6666667,-4.523112 c 3.1482823,-3.051434 4.6666663,-5.739481 4.6666663,-8.261555 0,-3.3550823 0.46011,-3.7384447 4.486855,-3.7384447 2.467928,0 6.012289,-1.1999068 7.876973,-2.6666666 4.30256,-3.3843942 8.303118,-3.3843942 12.605678,0 1.864684,1.4667598 5.409045,2.6666666 7.876973,2.6666666 4.026745,0 4.486855,0.3833624 4.486855,3.7384447 0,2.522074 1.518384,5.210121 4.666666,8.261555 L 60,25.856445 V 42.928223 60 H 32 4 Z M 57.111111,56.147127 C 56.249449,53.847379 34.203139,37.333333 31.994631,37.333333 c -2.26711,0 -24.2875339,16.444404 -25.1057421,18.748456 C 6.6219251,56.833552 16.64958,57.333333 32,57.333333 c 14.368079,0 25.360991,-0.519286 25.111111,-1.186206 z M 19.867273,41.333333 c 0.01053,-0.366666 -2.955304,-2.960501 -6.590734,-5.764077 L 6.6666667,30.471844 v 10.784349 10.78435 L 13.257401,47.020271 C 16.882305,44.259123 19.856748,41.7 19.867273,41.333333 Z m 37.46606,-0.09741 V 30.471844 l -6.609872,5.097412 c -3.63543,2.803576 -6.600821,5.397411 -6.589757,5.764077 0.01695,0.561736 11.871957,10.306743 12.866296,10.576303 0.183333,0.0497 0.333333,-4.753471 0.333333,-10.673713 z m -31.25484,-4.526852 c 3.457151,-2.614856 7.521476,-2.530576 12.377986,0.256677 3.825728,2.195665 4.130461,2.186371 6.77472,-0.206651 C 47.612673,34.603892 48,32.696857 48,23.126683 V 12 H 32 16 v 10.895012 c 0,8.266824 0.532307,11.483205 2.206651,13.333333 2.669724,2.950012 4.462412,3.05949 7.871842,0.480726 z M 19.333333,25.333333 C 20.410276,23.590804 36,23.590804 36,25.333333 c 0,0.753367 -3.804008,1.333334 -8.745356,1.333334 -5.490712,0 -8.438681,-0.49621 -7.921311,-1.333334 z m 0,-6.666666 C 19.786559,17.933333 25.486559,17.333333 32,17.333333 c 6.513441,0 12.213441,0.6 12.666667,1.333334 C 45.195291,19.521999 40.654283,20 32,20 23.345717,20 18.804709,19.521999 19.333333,18.666667 Z m -6,8 c 0,-4.565038 -0.791367,-4.903772 -4.2159345,-1.804582 -2.2996321,2.081139 -2.305097,2.287147 -0.1049876,3.957595 3.4926381,2.651811 4.3209221,2.239096 4.3209221,-2.153013 z m 41.654256,2.153013 c 2.20011,-1.670448 2.194644,-1.876456 -0.104986,-3.957595 -3.424568,-3.09919 -4.215936,-2.760456 -4.215936,1.804582 0,4.392109 0.828284,4.804824 4.320922,2.153013 z M 35.333333,8 C 34.880108,7.2666667 33.380108,6.6666667 32,6.6666667 c -1.380108,0 -2.880108,0.6 -3.333333,1.3333333 C 28.184601,8.779998 29.56794,9.3333333 32,9.3333333 34.43206,9.3333333 35.815399,8.779998 35.333333,8 Z"
     fill="forestgreen" />
</svg>
