<svg xmlns="http://www.w3.org/2000/svg" viewBox="0 0 360.38 48.19"><defs><style>.cls-1{fill:#2e2e31;}.cls-2{fill:#2d2d30;}</style></defs><title>Kundenmeister-typo</title><g id="Ebene_2" data-name="Ebene 2"><g id="Ebene_1-2" data-name="Ebene 1"><path class="cls-1" d="M67.75,23.47,78.83,9.57h6.64L73.33,24.8,87,40.57h-7l-12.18-14v14H62.44v-31h5.31Z"/><path class="cls-1" d="M88.4,33.17V19.58h5.32V31.71c0,3.1,1.46,4.43,4.16,4.43A5.15,5.15,0,0,0,102,33.57v-14h5.32v21h-5V37.51a7.57,7.57,0,0,1-14-4.34Z"/><path class="cls-1" d="M131.7,27v13.6h-5.32V28.3c0-3-1.86-4.29-4.16-4.29-2.75,0-4.16,2.7-4.16,2.7V40.57h-5.32v-21h5v3.05A7.26,7.26,0,0,1,124,19.05,7.52,7.52,0,0,1,131.7,27Z"/><path class="cls-1" d="M157.21,40.57H152.3V37.82A7.27,7.27,0,0,1,146,41.1c-5.44,0-10.23-4.56-10.23-11s4.79-11,10.23-11a7.5,7.5,0,0,1,5.94,2.74V7.09h5.31ZM151.9,26.93a5.83,5.83,0,0,0-5-2.92c-3.58,0-5.75,2.61-5.75,6.06s2.17,6.07,5.75,6.07a5.83,5.83,0,0,0,5-2.92Z"/><path class="cls-1" d="M182.75,30c0,.39,0,1.19,0,2H167a6,6,0,0,0,5.89,4.25,8.44,8.44,0,0,0,5.76-2.13l2.66,4a13.48,13.48,0,0,1-8.42,3,11,11,0,0,1-11.29-11c0-6.15,4.47-11,10.54-11A10.56,10.56,0,0,1,182.75,30Zm-5.31-1.86c-.09-1.82-1.77-4.26-5.27-4.26A4.83,4.83,0,0,0,167,28.13Z"/><path class="cls-1" d="M205.82,27v13.6h-5.31V28.3c0-3-1.87-4.29-4.17-4.29-2.74,0-4.16,2.7-4.16,2.7V40.57h-5.32v-21h5v3.05a7.26,7.26,0,0,1,6.29-3.58A7.51,7.51,0,0,1,205.82,27Z"/><path class="cls-1" d="M216.73,9.57l10.1,15.59,10.1-15.59h4.92v31h-5.32V19.75l-9.7,14.75-9.7-14.75V40.57h-5.31v-31Z"/><path class="cls-1" d="M267.78,30c0,.39,0,1.19,0,2H252.06A6,6,0,0,0,258,36.23a8.47,8.47,0,0,0,5.76-2.13l2.65,4a13.44,13.44,0,0,1-8.41,3,11,11,0,0,1-11.3-11c0-6.15,4.48-11,10.55-11A10.56,10.56,0,0,1,267.78,30Zm-5.31-1.86c-.09-1.82-1.78-4.26-5.27-4.26a4.82,4.82,0,0,0-5.14,4.26Z"/><path class="cls-1" d="M274.77,9.3a3.5,3.5,0,1,1-3.5,3.5A3.48,3.48,0,0,1,274.77,9.3Zm-2.66,10.28h5.31v21h-5.31Z"/><path class="cls-1" d="M284.49,33.44s2.79,3,6.33,3c2.17,0,4-.62,4-1.9s-1-1.64-4.16-2.31c-4.17-.88-7.8-2.65-7.8-6.64,0-3.28,3.28-6.55,9-6.55a13.4,13.4,0,0,1,7.88,2.56l-2.66,3.9a9.75,9.75,0,0,0-5.22-1.81c-2,0-3.81.7-3.81,2s1.42,1.59,5,2.35c4.16.88,7.13,2.26,7.13,6.6,0,3.58-3.81,6.46-9.17,6.46a13.09,13.09,0,0,1-9.48-3.81Z"/><path class="cls-1" d="M302.62,19.58h4.12V13.33h5.31v6.25h6.34v4.78h-6.34v8.46c0,2.57,1.33,3.32,2.75,3.32a4.22,4.22,0,0,0,2.21-.75L319,39.73a9.56,9.56,0,0,1-5,1.37c-4.07,0-7.17-3-7.17-7.44v-9.3h-4.12Z"/><path class="cls-1" d="M341.87,30c0,.39,0,1.19,0,2H326.15A6,6,0,0,0,332,36.23a8.44,8.44,0,0,0,5.76-2.13l2.65,4a13.44,13.44,0,0,1-8.41,3,11,11,0,0,1-11.29-11c0-6.15,4.47-11,10.54-11A10.56,10.56,0,0,1,341.87,30Zm-5.31-1.86c-.09-1.82-1.77-4.26-5.27-4.26a4.83,4.83,0,0,0-5.14,4.26Z"/><path class="cls-1" d="M360.38,19.71l-1.86,4.78A6.23,6.23,0,0,0,356,24a5.54,5.54,0,0,0-4.69,2.83V40.57H346v-21h5v3.05a6.85,6.85,0,0,1,5.72-3.58A11.51,11.51,0,0,1,360.38,19.71Z"/><path class="cls-2" d="M20.69,24.77,36.2,9.26a5.42,5.42,0,0,0-7.67-7.67L1.59,28.53A5.42,5.42,0,0,0,9.26,36.2L13,32.44,27.17,46.6a5.42,5.42,0,0,0,7.67-7.67Z"/><path class="cls-2" d="M5.42,16.35c3,0,5.43-1.45,5.43-4.45V5.5c0-3-2.43-4.45-5.43-4.45S0,2.5,0,5.5v6.4C0,14.9,2.43,16.35,5.42,16.35Z"/></g></g></svg>