<?xml version="1.0" encoding="utf-8"?>
<!-- DeepDark custom icon -->
<!DOCTYPE svg PUBLIC "-//W3C//DTD SVG 1.1//EN" "http://www.w3.org/Graphics/SVG/1.1/DTD/svg11.dtd">
<svg version="1.1" id="Layer_1" xmlns="http://www.w3.org/2000/svg" xmlns:xlink="http://www.w3.org/1999/xlink" x="0px" y="0px"
	 width="12px" height="12px" viewBox="2 0 12 12" enable-background="new 2 0 12 12" xml:space="preserve">
<g>
	<path fill="rgb(255,255,255)" d="M13.705,4.146c0-1.646-1.335-2.981-2.98-2.981c-1.219,0-2.262,0.732-2.725,1.78c-0.463-1.048-1.506-1.78-2.725-1.78
		c-1.646,0-2.98,1.335-2.98,2.981c0,0.409,0.083,0.799,0.232,1.153C2.537,5.32,2.548,5.34,2.558,5.36
		c0.035,0.077,0.079,0.149,0.12,0.223c-0.044-0.081-0.092-0.162-0.13-0.241c0.056,0.125,0.122,0.246,0.194,0.361
		c0.007,0.01,0.012,0.022,0.019,0.033C4.117,8.088,7.548,10.835,8,10.835c0.453,0,3.911-2.771,5.256-5.13
		c-0.002,0.005-0.006,0.008-0.009,0.013C13.533,5.26,13.705,4.725,13.705,4.146z M13.013,6.034c0.007-0.009,0.014-0.017,0.021-0.024
		C13.026,6.018,13.02,6.026,13.013,6.034z"/>
</g>
</svg>
