<!-- This Source Code Form is subject to the terms of the Mozilla Public
   - License, v. 2.0. If a copy of the MPL was not distributed with this
   - file, You can obtain one at http://mozilla.org/MPL/2.0/. -->
<svg xmlns="http://www.w3.org/2000/svg" fill="context-fill" fill-opacity="context-fill-opacity" width="50" height="30" viewBox="0 0 50 30">
	<path d="M 36.421033,0.920044 A 12.54,12.54 0 0 0 24.319931,10.325045 H 1.9360313 a 3.1350006,3.1350006 0 0 0 0,6.270001 v 3.134999 a 3.1350006,3.1350006 0 0 0 6.2700003,0 v -3.134999 h 3.1349994 v 3.134999 a 3.1350006,3.1350006 0 0 0 6.270001,0 v -3.134999 h 6.708899 A 12.54,12.54 0 1 0 36.421033,0.920044 Z m 0,18.810001 a 6.2700002,6.2700002 0 1 1 6.27,-6.27 6.2700002,6.2700002 0 0 1 -6.27,6.27 z"></path>
</svg>
