<?xml version="1.0" encoding="utf-8"?>
<!-- DeepDark custom icon -->
<!DOCTYPE svg PUBLIC "-//W3C//DTD SVG 1.1//EN" "http://www.w3.org/Graphics/SVG/1.1/DTD/svg11.dtd">
<svg version="1.1" id="Layer_2" xmlns="http://www.w3.org/2000/svg" xmlns:xlink="http://www.w3.org/1999/xlink" x="0px" y="0px"
	 width="64px" height="32px" viewBox="0 0 64 32" enable-background="new 0 0 64 32" xml:space="preserve" fill="context-fill">
<g>
	<g>
		<circle cx="4.534" cy="6.49" r="1.52"/>
		<g>
			<rect x="8.044" y="5.997" width="5.989" height="0.984"/>
		</g>
		<g>
			<rect x="8.044" y="7.993" width="5.989" height="0.984"/>
		</g>
		<g>
			<rect x="8.044" y="9.989" width="5.989" height="0.984"/>
		</g>
	</g>
	<path d="M0,2.983v11.003h16.027V2.983H0z M0.985,13.002V3.969h14.057v9.034L0.985,13.002L0.985,13.002z"/>
	<path d="M6.994,10.997h-4.9c0.22-1.15,1.24-2.02,2.45-2.02S6.774,9.846,6.994,10.997z"/>
</g>
<g opacity="0.5">
	<g>
		<circle cx="4.534" cy="22.568" r="1.52"/>
		<g>
			<rect x="8.044" y="22.074" width="5.989" height="0.984"/>
		</g>
		<g>
			<rect x="8.044" y="24.07" width="5.989" height="0.984"/>
		</g>
		<g>
			<rect x="8.044" y="26.066" width="5.989" height="0.983"/>
		</g>
	</g>
	<path d="M0,19.061v11.004h16.027V19.061H0z M0.985,29.08v-9.034h14.057v9.034H0.985z"/>
	<path d="M6.994,27.074h-4.9c0.22-1.15,1.24-2.02,2.45-2.02S6.774,25.924,6.994,27.074z"/>
</g>
<g>
	<path d="M52.01,15.006H62V0.979h-9.99V15.006z M61.016,14.022h-8.021V1.964h8.021V14.022z"/>
	<circle cx="59.016" cy="7.982" r="1"/>
</g>
<g opacity="0.5">
	<path d="M52.01,31H62V16.973h-9.99V31z M61.016,30.016h-8.021V17.957h8.021V30.016z"/>
	<circle cx="59.016" cy="23.976" r="1"/>
</g>
<g>
	<circle cx="37.516" cy="7.47" r="2.5"/>
	<rect x="43.044" y="4.997" width="2.989" height="0.984"/>
	<rect x="43.044" y="6.993" width="2.989" height="0.984"/>
	<rect x="43.044" y="8.989" width="2.989" height="0.984"/>
	<path d="M48.027,2.983H32v9.003h0.984v2.016h5v-2.016h4.058v2.016h5v-2.016h0.985V2.983z M36.984,13.002h-3v-1.016h3V13.002z
		 M46.042,13.002h-3v-1.016h3V13.002z M47.042,11.002H32.984V3.969h14.058V11.002z"/>
</g>
<g>
	<g>
		<path d="M20.48,6.512c0,0.83,0.287,1.59,0.781,2.19c-0.366,0.21-0.792,0.329-1.236,0.329c-1.384,0-2.512-1.129-2.512-2.519
			c0-1.389,1.127-2.519,2.512-2.519c0.445,0,0.86,0.12,1.226,0.32C20.767,4.913,20.48,5.683,20.48,6.512z"/>
		<path d="M18.986,13.8l-0.04,0.19H16c0.366-1.91,2.047-3.349,4.045-3.349c0.287,0,0.563,0.03,0.831,0.09
			C19.916,11.471,19.233,12.541,18.986,13.8z"/>
	</g>
	<g>
		<path d="M24.435,6.512c0,0.83,0.287,1.59,0.781,2.19c-0.366,0.21-0.791,0.329-1.236,0.329c-1.384,0-2.512-1.129-2.512-2.519
			c0-1.389,1.127-2.519,2.512-2.519c0.445,0,0.86,0.12,1.226,0.32C24.722,4.913,24.435,5.683,24.435,6.512z"/>
		<g>
			<path d="M22.942,13.8l-0.04,0.19h-2.947c0.366-1.91,2.047-3.349,4.044-3.349c0.287,0,0.563,0.03,0.831,0.09
				C23.871,11.461,23.179,12.541,22.942,13.8z"/>
		</g>
	</g>
	<g>
		<ellipse cx="27.938" cy="6.511" rx="2.509" ry="2.521"/>
		<g>
			<path d="M32,13.987h-8.09c0.364-1.908,2.047-3.35,4.044-3.35C29.953,10.637,31.637,12.079,32,13.987z"/>
		</g>
	</g>
</g>
<g opacity="0.5">
	<circle cx="37.516" cy="23.54" r="2.5"/>
	<rect x="43.044" y="21.066" width="2.989" height="0.983"/>
	<rect x="43.044" y="23.063" width="2.989" height="0.984"/>
	<rect x="43.044" y="25.059" width="2.989" height="0.984"/>
	<path d="M48.027,19.055H32v9.002h0.984v2.017h5v-2.017h4.058v2.017h5v-2.017h0.985V19.055z M36.984,29.072h-3v-1.016h3V29.072z
		 M46.042,29.072h-3v-1.016h3V29.072z M47.042,27.072H32.984v-7.033h14.058V27.072z"/>
</g>
<g opacity="0.5">
	<g>
		<path d="M20.48,22.582c0,0.83,0.287,1.59,0.781,2.189c-0.366,0.211-0.792,0.33-1.236,0.33c-1.384,0-2.512-1.129-2.512-2.521
			c0-1.39,1.127-2.519,2.512-2.519c0.445,0,0.86,0.119,1.226,0.319C20.767,20.982,20.48,21.754,20.48,22.582z"/>
		<path d="M18.986,29.87l-0.04,0.19H16c0.366-1.91,2.047-3.351,4.045-3.351c0.287,0,0.563,0.03,0.831,0.09
			C19.916,27.541,19.233,28.611,18.986,29.87z"/>
	</g>
	<g>
		<path d="M24.435,22.582c0,0.83,0.287,1.59,0.781,2.189c-0.366,0.211-0.791,0.33-1.236,0.33c-1.384,0-2.512-1.129-2.512-2.521
			c0-1.39,1.127-2.519,2.512-2.519c0.445,0,0.86,0.119,1.226,0.319C24.722,20.982,24.435,21.754,24.435,22.582z"/>
		<g>
			<path d="M22.942,29.87l-0.04,0.19h-2.947c0.366-1.91,2.047-3.351,4.044-3.351c0.287,0,0.563,0.03,0.831,0.09
				C23.871,27.531,23.179,28.611,22.942,29.87z"/>
		</g>
	</g>
	<g>
		<ellipse cx="27.938" cy="22.582" rx="2.509" ry="2.521"/>
		<g>
			<path d="M32,30.057h-8.09c0.364-1.908,2.047-3.35,4.044-3.35C29.953,26.707,31.637,28.148,32,30.057z"/>
		</g>
	</g>
</g>
</svg>
