<?xml version="1.0" encoding="utf-8"?>
<!-- DeepDark custom icon -->
<!DOCTYPE svg PUBLIC "-//W3C//DTD SVG 1.1//EN" "http://www.w3.org/Graphics/SVG/1.1/DTD/svg11.dtd">
<svg version="1.1" id="Layer_2" xmlns="http://www.w3.org/2000/svg" xmlns:xlink="http://www.w3.org/1999/xlink" x="0px" y="0px"
	 width="221.973px" height="27.996px" viewBox="0 0 221.973 27.996" enable-background="new 0 0 221.973 27.996"
	 xml:space="preserve" fill="context-fill">
<g>
	<g>
		<g>
			<path fill="#FFD250" d="M175.911,12h-3.805c-0.657-1.667-2.051-2.914-3.77-3.358c0.796-0.624,1.788-1,2.873-1
				C173.671,7.641,175.688,9.565,175.911,12z"/>
		</g>
		<path fill="#FFD250" d="M174.286,3.128c0,1.727-1.375,3.128-3.076,3.128c-0.206,0-0.401-0.017-0.59-0.06
			c0.162-0.436,0.248-0.906,0.248-1.394c0-1.53-0.854-2.872-2.12-3.529C169.304,0.496,170.201,0,171.21,0
			C172.911,0,174.286,1.402,174.286,3.128z"/>
	</g>
	<g>
		<path d="M171.514,14h-9.398c0.226-2.439,2.241-4.36,4.699-4.36S171.288,11.561,171.514,14z"/>
		<g>
			<ellipse cx="166.814" cy="5.128" rx="3.073" ry="3.128"/>
		</g>
	</g>
</g>
<g>
	<path d="M216.72,14.021h-9.396c0.226-2.44,2.242-4.36,4.699-4.36C214.48,9.661,216.496,11.581,216.72,14.021z"/>
	<g>
		<ellipse cx="212.022" cy="5.149" rx="3.072" ry="3.128"/>
	</g>
</g>
<circle fill="#FFD250" cx="30" cy="7" r="6"/>
<circle fill="#FFFFFF" cx="42" cy="7" r="6"/>
<g>
	<circle fill="#FA6464" cx="18" cy="7" r="6"/>
	<rect x="15.016" y="6" fill="#FFFFFF" width="5.984" height="2"/>
</g>
<g>
	<path fill="#90FE22" d="M6,1C2.69,1,0,3.69,0,7s2.69,6,6,6s6-2.69,6-6S9.31,1,6,1z M4.95,11.2L1.67,7.14l1.1-1.05l2.16,2.45
		L8.71,2.8l1.06,1.05L4.95,11.2z"/>
</g>
<circle fill="#CCCCCC" cx="30" cy="21" r="6"/>
<circle fill="#FFFFFF" cx="42" cy="21" r="6"/>
<g>
	<circle fill="#4B4B4B" cx="18" cy="21" r="6"/>
	<rect x="15.016" y="20" fill="#FFFFFF" width="5.984" height="2"/>
</g>
<g>
	<path fill="#8A8A8A" d="M6,15c-3.31,0-6,2.69-6,6s2.69,6,6,6s6-2.69,6-6S9.31,15,6,15z M4.95,25.2L1.67,21.14l1.1-1.05l2.16,2.45
		l3.78-5.74l1.06,1.05L4.95,25.2z"/>
</g>
<path d="M91,0c-3.313,0-6,2.687-6,6s2.687,6,6,6s6-2.687,6-6S94.313,0,91,0z M95,7h-3v3h-2V7h-3V5h3V2h2v3h3V7z"/>
<path d="M103,0c-3.313,0-6,2.687-6,6s2.687,6,6,6s6-2.687,6-6S106.313,0,103,0z M107,7h-8V5h8V7z"/>
<path d="M128.446,12.874l9.214-5.57c0.558-0.336,0.558-1.291,0-1.625l-9.214-5.57c-0.279-0.168-0.622-0.168-0.899,0
	c-0.28,0.168-0.45,0.475-0.45,0.813v11.143c0,0.336,0.17,0.646,0.449,0.812C127.821,13.04,128.164,13.04,128.446,12.874z"/>
<path d="M119.632,0.108l-9.214,5.57c-0.558,0.336-0.558,1.291,0,1.625l9.214,5.57c0.279,0.168,0.622,0.168,0.899,0
	c0.28-0.168,0.45-0.475,0.45-0.813V0.917c0-0.336-0.17-0.646-0.449-0.812C120.257-0.058,119.914-0.058,119.632,0.108z"/>
<path opacity="0.5" d="M128.446,26.883l9.214-5.57c0.558-0.336,0.558-1.291,0-1.625l-9.214-5.57c-0.279-0.168-0.622-0.168-0.899,0
	c-0.28,0.169-0.45,0.476-0.45,0.814v11.143c0,0.336,0.17,0.645,0.449,0.812C127.821,27.049,128.164,27.049,128.446,26.883z"/>
<path opacity="0.5" d="M119.632,14.116l-9.214,5.569c-0.558,0.337-0.558,1.291,0,1.625l9.214,5.57c0.279,0.168,0.622,0.168,0.899,0
	c0.28-0.168,0.45-0.475,0.45-0.813V14.925c0-0.337-0.17-0.646-0.449-0.812C120.257,13.95,119.914,13.95,119.632,14.116z"/>
<g>
	<g>
		<path d="M60.021,13H49.979c0.241-2.643,2.396-4.723,5.022-4.723C57.628,8.277,59.782,10.357,60.021,13z"/>
		<g>
			<path d="M58.28,3.39c0,1.87-1.47,3.39-3.28,3.39c-0.75,0-1.44-0.26-2-0.71V5h2.01V1H53V0.71C53.56,0.26,54.25,0,55,0
				C56.81,0,58.28,1.52,58.28,3.39z"/>
		</g>
	</g>
	<g>
		<polygon fill="#90FE22" points="54.013,2 52,2 52,0 49.979,0 49.979,2 48,2 48,4 49.979,4 49.979,6 52,6 52,4 54.013,4 		"/>
	</g>
</g>
<g>
	<g>
		<path d="M72.021,13H61.979c0.241-2.643,2.396-4.723,5.022-4.723C69.628,8.277,71.782,10.357,72.021,13z"/>
		<g>
			<path d="M66.4,5.19l-0.75,0.74l-1.86-1.86c-0.05-0.22-0.07-0.45-0.07-0.68c0-1.46,0.89-2.7,2.15-3.18l0.53,0.53l-2.22,2.22
				L66.4,5.19z"/>
			<path d="M70.28,3.39c0,1.87-1.47,3.39-3.28,3.39c-0.3,0-0.59-0.04-0.87-0.12l0.13-0.13L67,5.79l0.6-0.6L67,4.58l-1.62-1.62
				L67,1.35l0.6-0.61L67,0.14l-0.13-0.13C66.91,0,66.96,0,67,0C68.81,0,70.28,1.52,70.28,3.39z"/>
		</g>
	</g>
	<g>
		<polygon fill="#FA6464" points="66.398,0.743 65.655,0 63.434,2.221 61.212,0 60.469,0.743 62.69,2.964 60.469,5.186 
			61.212,5.929 63.434,3.708 65.655,5.929 66.398,5.186 64.177,2.964 		"/>
	</g>
</g>
<g opacity="0.5">
	<g>
		<path d="M60.021,27H49.979c0.241-2.644,2.396-4.724,5.022-4.724C57.628,22.276,59.782,24.356,60.021,27z"/>
		<g>
			<path d="M58.28,17.39c0,1.87-1.47,3.39-3.28,3.39c-0.75,0-1.44-0.26-2-0.71V19h2.01v-4H53v-0.291C53.56,14.26,54.25,14,55,14
				C56.81,14,58.28,15.52,58.28,17.39z"/>
		</g>
	</g>
	<g>
		<polygon points="54.013,16 52,16 52,14 49.979,14 49.979,16 48,16 48,18 49.979,18 49.979,20 52,20 52,18 54.013,18 		"/>
	</g>
</g>
<g opacity="0.5">
	<g>
		<path d="M72.021,27H61.979c0.241-2.644,2.396-4.724,5.022-4.724C69.628,22.276,71.782,24.356,72.021,27z"/>
		<g>
			<path d="M66.4,19.189l-0.75,0.74l-1.86-1.86c-0.05-0.22-0.07-0.45-0.07-0.68c0-1.46,0.89-2.7,2.15-3.181l0.53,0.531l-2.22,2.219
				L66.4,19.189z"/>
			<path d="M70.28,17.39c0,1.87-1.47,3.39-3.28,3.39c-0.3,0-0.59-0.039-0.87-0.119l0.13-0.131l0.74-0.74l0.6-0.6L67,18.58
				l-1.62-1.621L67,15.35l0.6-0.609L67,14.14l-0.13-0.13C66.91,14,66.96,14,67,14C68.81,14,70.28,15.52,70.28,17.39z"/>
		</g>
	</g>
	<g>
		<polygon points="66.398,14.742 65.655,14 63.434,16.221 61.212,14 60.469,14.742 62.69,16.964 60.469,19.186 61.212,19.928 
			63.434,17.707 65.655,19.928 66.398,19.186 64.177,16.964 		"/>
	</g>
</g>
<g opacity="0.5">
	<g>
		<g>
			<path d="M84.01,27H81v-4.28C82.65,23.449,83.84,25.08,84.01,27z"/>
		</g>
	</g>
	<rect x="72" y="22" width="8" height="5"/>
	<g>
		<path d="M82.273,17.389c0,1.87-1.47,3.39-3.28,3.39c-0.75,0-1.44-0.26-2-0.71v-1.069h2.01v-4h-2.01v-0.291
			c0.56-0.449,1.25-0.709,2-0.709C80.804,13.999,82.273,15.519,82.273,17.389z"/>
	</g>
	<g>
		<polygon points="78.007,15.999 75.994,15.999 75.994,13.999 73.972,13.999 73.972,15.999 71.994,15.999 71.994,17.999 
			73.972,17.999 73.972,19.999 75.994,19.999 75.994,17.999 78.007,17.999 		"/>
	</g>
</g>
<g>
	<g>
		<g>
			<path d="M84.01,13H81V8.72C82.65,9.449,83.84,11.08,84.01,13z"/>
		</g>
	</g>
	<rect x="72" y="8" width="8" height="5"/>
	<g>
		<path d="M82.273,3.389c0,1.87-1.47,3.39-3.28,3.39c-0.75,0-1.44-0.26-2-0.71V4.999h2.01v-4h-2.01V0.708
			c0.56-0.449,1.25-0.709,2-0.709C80.804-0.001,82.273,1.519,82.273,3.389z"/>
	</g>
	<g>
		<polygon fill="#90FE22" points="78.007,1.999 75.994,1.999 75.994,-0.001 73.972,-0.001 73.972,1.999 71.994,1.999 71.994,3.999 
			73.972,3.999 73.972,5.999 75.994,5.999 75.994,3.999 78.007,3.999 		"/>
	</g>
</g>
<g>
	<rect x="185" y="5" width="11" height="4"/>
	<path d="M189,3.6c0,0.136-0.016,0.272-0.04,0.4h-3.92C185.016,3.872,185,3.736,185,3.6c0-1.104,0.896-2,2-2S189,2.496,189,3.6z"/>
	<path d="M196,3.6c0,0.136-0.016,0.272-0.04,0.4h-3.92C192.016,3.872,192,3.736,192,3.6c0-1.104,0.896-2,2-2S196,2.496,196,3.6z"/>
	<path d="M192,10.399c0-0.136,0.016-0.272,0.04-0.4h3.92c0.024,0.128,0.04,0.264,0.04,0.4c0,1.104-0.896,2-2,2
		S192,11.503,192,10.399z"/>
	<path d="M197.4,9c-0.137,0-0.272-0.016-0.4-0.04V5.04c0.128-0.024,0.264-0.04,0.4-0.04c1.104,0,2,0.896,2,2S198.504,9,197.4,9z"/>
	<path d="M183.6,9c0.137,0,0.272-0.016,0.4-0.04V5.04C183.872,5.016,183.736,5,183.6,5c-1.104,0-2,0.896-2,2S182.496,9,183.6,9z"/>
	<path d="M185,10.399c0-0.136,0.016-0.272,0.04-0.4h3.92c0.024,0.128,0.04,0.264,0.04,0.4c0,1.104-0.896,2-2,2
		S185,11.503,185,10.399z"/>
</g>
<path opacity="0.5" d="M91,14c-3.313,0-6,2.687-6,6s2.687,6,6,6s6-2.687,6-6S94.313,14,91,14z M95,21h-3v3h-2v-3h-3v-2h3v-3h2v3h3
	V21z"/>
<path opacity="0.5" d="M103,14c-3.313,0-6,2.687-6,6s2.687,6,6,6s6-2.687,6-6S106.313,14,103,14z M107,21h-8v-2h8V21z"/>
<g>
	<path fill="#FFD250" d="M153.695,14.021h-9.396c0.226-2.44,2.242-4.36,4.699-4.36C151.456,9.661,153.472,11.581,153.695,14.021z"/>
	<g>
		<ellipse fill="#FFD250" cx="148.998" cy="5.149" rx="3.072" ry="3.128"/>
	</g>
</g>
</svg>
