<?xml version="1.0" encoding="utf-8"?>
<!-- DeepDark custom icon -->
<!DOCTYPE svg PUBLIC "-//W3C//DTD SVG 1.1//EN" "http://www.w3.org/Graphics/SVG/1.1/DTD/svg11.dtd">
<svg version="1.1" id="checkbox_img" xmlns="http://www.w3.org/2000/svg" xmlns:xlink="http://www.w3.org/1999/xlink" x="0px"
	 y="0px" width="64px" height="16px" viewBox="0 0 64 16" enable-background="new 0 0 64 16" xml:space="preserve" fill="context-fill">
<path d="M12.469,14H3.531C2.687,14,2,13.313,2,12.469V3.531C2,2.687,2.687,2,3.531,2h8.938C13.313,2,14,2.687,14,3.531v8.938
	C14,13.313,13.313,14,12.469,14z M3.531,3C3.238,3,3,3.238,3,3.531v8.938C3,12.762,3.238,13,3.531,13h8.938
	C12.762,13,13,12.762,13,12.469V3.531C13,3.238,12.762,3,12.469,3H3.531z"/>
<g>
	<path d="M28.469,14h-8.938C18.687,14,18,13.313,18,12.469V3.531C18,2.687,18.687,2,19.531,2h8.938C29.313,2,30,2.687,30,3.531
		v8.938C30,13.313,29.313,14,28.469,14z M19.531,3C19.238,3,19,3.238,19,3.531v8.938C19,12.762,19.238,13,19.531,13h8.938
		C28.762,13,29,12.762,29,12.469V3.531C29,3.238,28.762,3,28.469,3H19.531z"/>
	<g>
		<path d="M23.348,11.562l4.09-6.234l-0.896-0.891l-3.206,4.869L21.5,7.229l-0.938,0.891L23.348,11.562z"/>
	</g>
</g>
<path d="M44.468,14H35.53c-0.845,0-1.531-0.687-1.531-1.531V3.531C33.999,2.687,34.686,2,35.53,2h8.938
	c0.845,0,1.531,0.687,1.531,1.531v8.938C45.999,13.313,45.312,14,44.468,14z M35.53,3c-0.293,0-0.531,0.238-0.531,0.531v8.938
	c0,0.293,0.238,0.531,0.531,0.531h8.938c0.293,0,0.531-0.238,0.531-0.531V3.531C44.999,3.238,44.761,3,44.468,3H35.53z"/>
<g>
	<path d="M60.468,14H51.53c-0.845,0-1.531-0.687-1.531-1.531V3.531C49.999,2.687,50.686,2,51.53,2h8.938
		c0.845,0,1.531,0.687,1.531,1.531v8.938C61.999,13.313,61.312,14,60.468,14z M51.53,3c-0.293,0-0.531,0.238-0.531,0.531v8.938
		c0,0.293,0.238,0.531,0.531,0.531h8.938c0.293,0,0.531-0.238,0.531-0.531V3.531C60.999,3.238,60.761,3,60.468,3H51.53z"/>
	<g>
		<path d="M55.347,11.562l4.09-6.234L58.54,4.438l-3.205,4.869l-1.836-2.078l-0.938,0.891L55.347,11.562z"/>
	</g>
</g>
</svg>
