<?xml version="1.0" encoding="utf-8"?>
<!-- DeepDark custom icon -->
<!DOCTYPE svg PUBLIC "-//W3C//DTD SVG 1.1//EN" "http://www.w3.org/Graphics/SVG/1.1/DTD/svg11.dtd">
<svg version="1.1" id="Layer_1" xmlns="http://www.w3.org/2000/svg" xmlns:xlink="http://www.w3.org/1999/xlink" x="0px" y="0px"
	 width="16px" height="16px" viewBox="0 0 16 16" enable-background="new 0 0 16 16" xml:space="preserve" fill="context-fill">
<g>
	<path d="M1.009,14.602c-0.004,0.004-0.004,0.018-0.006,0.02l-0.008,0.013v0.009c-0.023,0.094-0.005,0.206,0.074,0.287
		c0.077,0.075,0.191,0.095,0.287,0.065h0.009h0.019c0,0,0,0,0.006-0.007l3.42-0.93l-2.875-2.863L1.009,14.602z"/>
	<path d="M14.398,4.51c0.004-0.005,0.011-0.009,0.017-0.014c0.794-0.791,0.794-2.074,0-2.866c-0.794-0.79-2.082-0.79-2.875,0.001
		c-0.007,0.006-0.011,0.013-0.018,0.019H11.52L8.664,4.496l-5.77,5.746l2.875,2.863l5.733-5.707l2.895-2.883
		C14.396,4.514,14.396,4.512,14.398,4.51z"/>
</g>
</svg>
