<?xml version="1.0" encoding="utf-8"?>
<!-- DeepDark custom icon -->
<!DOCTYPE svg PUBLIC "-//W3C//DTD SVG 1.1//EN" "http://www.w3.org/Graphics/SVG/1.1/DTD/svg11.dtd">
<svg version="1.1" id="lightning" xmlns="http://www.w3.org/2000/svg" xmlns:xlink="http://www.w3.org/1999/xlink" x="0px" y="0px"
	 width="36px" height="36px" viewBox="-2 -2 36 36" enable-background="new -2 -2 36 36" xml:space="preserve" fill="context-fill">
<g>
	<g>
		<g id="agenda_1_">
			<g>
				<g>
					<path d="M29.34,3H2.63C1.713,3,1,3.865,1,4.782V27.34C1,28.257,2.019,29,2.936,29H29.34c0.918,0,1.66-0.743,1.66-1.66V4.66
						C31,3.743,30.258,3,29.34,3z M29,27H3V7.042h26V27L29,27z"/>
				</g>
			</g>
		</g>
	</g>
	<rect x="5" y="15" width="4" height="4"/>
	<rect x="5" y="21.027" width="4" height="3.973"/>
	<rect x="11" y="9" width="4" height="4"/>
	<rect x="5" y="9" opacity="0.25" enable-background="new    " width="4" height="4"/>
	<rect x="11" y="15" width="4" height="4"/>
	<rect x="11" y="21.027" width="4" height="3.973"/>
	<rect x="17" y="9" width="4" height="4"/>
	<rect x="17" y="15" width="4" height="4"/>
	<rect x="17" y="21.027" width="4" height="3.973"/>
	<rect x="23" y="21.027" opacity="0.25" enable-background="new    " width="4" height="3.973"/>
	<rect x="23" y="9" width="4" height="4"/>
	<rect x="23" y="15" width="4" height="4"/>
</g>
</svg>
