<?xml version="1.0" encoding="utf-8"?>
<!-- DeepDark custom icon -->
<!DOCTYPE svg PUBLIC "-//W3C//DTD SVG 1.1//EN" "http://www.w3.org/Graphics/SVG/1.1/DTD/svg11.dtd">
<svg version="1.1" id="Layer_1" xmlns="http://www.w3.org/2000/svg" xmlns:xlink="http://www.w3.org/1999/xlink" x="0px" y="0px"
	 width="16px" height="16px" viewBox="0 0 16 16" enable-background="new 0 0 16 16" xml:space="preserve" fill="context-fill">
<g>
	<path d="M14.41,4.41l-2.82-2.82C11.21,1.21,10.7,1,10.17,1H3C1.9,1,1,1.9,1,3v10c0,1.1,0.9,2,2,2h5.76C8.28,14.28,8,13.43,8,12.5
		c0-0.17,0.01-0.34,0.03-0.5H8c-1.1,0-2-0.9-2-2s0.9-2,2-2c0.09,0,0.19,0.01,0.28,0.02C8.36,8.03,8.43,8.05,8.5,8.07
		C8.68,8.11,8.84,8.18,9,8.27C9.07,8.31,9.14,8.35,9.2,8.4c0.03,0.02,0.05,0.04,0.08,0.07c0.04,0.04,0.09,0.08,0.13,0.12
		c0.12,0.12,0.22,0.24,0.31,0.38C10.49,8.36,11.45,8,12.5,8c0.93,0,1.78,0.28,2.5,0.76V5.83C15,5.3,14.79,4.79,14.41,4.41z M9,4.89
		c0,0.55-0.45,1-1,1H4c-0.26,0-0.49-0.1-0.67-0.26C3.13,5.45,3,5.18,3,4.89V2.32h6V4.89z"/>
</g>
<g>
	<path d="M12.5,9C10.57,9,9,10.57,9,12.5s1.57,3.5,3.5,3.5s3.5-1.57,3.5-3.5S14.43,9,12.5,9z M14.49,10.82l-2.681,4.04L9.86,12.58
		c-0.19-0.21-0.16-0.53,0.05-0.7c0.21-0.18,0.52-0.16,0.7,0.05l1.1,1.271l1.95-2.94c0.149-0.229,0.47-0.29,0.689-0.14
		C14.58,10.28,14.65,10.59,14.49,10.82z"/>
</g>
</svg>
