<?xml version="1.0" encoding="utf-8"?>
<!-- DeepDark custom icon -->
<!DOCTYPE svg PUBLIC "-//W3C//DTD SVG 1.1//EN" "http://www.w3.org/Graphics/SVG/1.1/DTD/svg11.dtd">
<svg version="1.1" id="lightning" xmlns="http://www.w3.org/2000/svg" xmlns:xlink="http://www.w3.org/1999/xlink" x="0px" y="0px"
	 width="65px" height="13px" viewBox="-24.5 1.5 65 13" enable-background="new -24.5 1.5 65 13" xml:space="preserve">
<g fill="rgba(249,249,250,.7)">
	<polygon points="-17.252,9.287 -16.965,3.392 -19.035,3.392 -18.735,9.287 	"/>
	<path d="M-17.994,10.425c-0.635,0-1.079,0.456-1.079,1.092c0,0.623,0.432,1.092,1.079,1.092c0.648,0,1.067-0.469,1.067-1.092
		C-16.938,10.881-17.358,10.425-17.994,10.425z"/>
</g>
<g fill="#FA6464">
	<polygon points="21.748,9.287 22.035,3.392 19.965,3.392 20.265,9.287 	"/>
	<path d="M21.006,10.425c-0.635,0-1.079,0.456-1.079,1.092c0,0.623,0.432,1.092,1.079,1.092
		c0.648,0,1.067-0.469,1.067-1.092C22.062,10.881,21.642,10.425,21.006,10.425z"/>
</g>
<g opacity="0.5" fill="rgba(249,249,250,.7)">
	<polygon points="34.748,9.287 35.035,3.392 32.965,3.392 33.265,9.287 	"/>
	<path d="M34.006,10.425c-0.635,0-1.079,0.456-1.079,1.092c0,0.623,0.432,1.092,1.079,1.092c0.648,0,1.067-0.469,1.067-1.092
		C35.062,10.881,34.642,10.425,34.006,10.425z"/>
</g>
<polygon fill="#00ADEE" points="-4.399,3.392 -4.775,3.392 -5.225,3.392 -5.601,3.392 -5.601,8.724 -7.244,8.724 -5,12.609 
	-2.756,8.724 -4.399,8.724 "/>
<polygon opacity="0.5" fill="rgba(249,249,250,.7)" points="8.601,8.724 8.601,3.392 8.225,3.392 7.775,3.392 7.399,3.392 7.399,8.724 5.756,8.724 8,12.609 
	10.244,8.724 "/>
</svg>
