<svg xmlns="http://www.w3.org/2000/svg"
     xmlns:xlink="http://www.w3.org/1999/xlink"
     viewBox="0 0 18 18">
  <style>
    path {
      display: none;
    }
    path:target {
      display: block;
      stroke-width: 1;
    }
    .normal {
      fill: #505050;
      fill-opacity: 0.8;
      stroke: #404040;
    }
    @media (-moz-windows-default-theme) and (-moz-os-version: windows-win8) {
      .normal {
        fill: #797c80;
        fill-opacity: 1;
        stroke: none;
      }
    }
    @media (-moz-windows-default-theme) and (-moz-os-version: windows-win10) {
      .normal {
        fill: #4c4c4c;
        fill-opacity: 1;
        stroke: none;
      }
    }
    @media (-moz-windows-default-theme) and (-moz-os-version: windows-vista),
       (-moz-windows-default-theme) and (-moz-os-version: windows-win7) {
      .normal {
        fill: url(#win1);
        fill-opacity: 1;
        stroke: url(#win2);
      }
    }
    @media (-moz-mac-yosemite-theme) {
      .normal {
        fill: #4d4d4d;
        fill-opacity: 1;
        stroke: none;
      }
    }
    .inverted {
      fill: #fff;
      fill-opacity: 1;
      stroke: #111922;
    }
    .unread {
      fill: #3971c3;
      fill-opacity: 1;
      stroke: #115174;
    }
  </style>
  <defs>
    <linearGradient
       id="win1"
       x1="8"
       y1="1"
       x2="8"
       y2="15"
       gradientUnits="userSpaceOnUse">
       <stop stop-color="#3f4f5a" offset="0"/>
       <stop stop-color="#7e8c97" offset="1"/>
    </linearGradient>
    <linearGradient
       id="win2"
       x1="8"
       y1="1"
       x2="8"
       y2="15"
       gradientUnits="userSpaceOnUse">
      <stop stop-color="#0c1b25" offset="0"/>
      <stop stop-color="#4f585f" stop-opacity="0.9" offset="1"/>
    </linearGradient>
  </defs>
  <path id="redirect" class="normal"
    d="m 7,16.5 c 0,0 -5.4,-2 -5.5,-6 0,-2.4 2,-4 5.5,-4 h 3.5 v -3.5 l 5.5,5.5
      -5.5,5.5 v -3.5 h -3.5 c -2.8,0 -0.9,4.2 0,6 z"/>
  <path id="redirect-flat" class="normal"
    d="m 8,16 c 0,0 -4.9,-2.2 -5,-6 0,-1.7 1.5,-3 5,-3 h 2 v -3.5 l 5.5,5
      -5.5,5 v -3.5 h -2 c -3.7,0 -0.9,4.2 0,6 z"/>
  <path id="redirect-inverted" class="inverted"
    d="m 7,16.5 c 0,0 -5.4,-2 -5.5,-6 0,-2.4 2,-4 5.5,-4 h 3.5 v -3.5 l 5.5,5.5
      -5.5,5.5 v -3.5 h -3.5 c -2.8,0 -0.9,4.2 0,6 z"/>
</svg>
