<?xml version="1.0" encoding="UTF-8" standalone="no"?>
<!-- Created with Inkscape (http://www.inkscape.org/) -->

<svg
   xmlns:dc="http://purl.org/dc/elements/1.1/"
   xmlns:cc="http://creativecommons.org/ns#"
   xmlns:rdf="http://www.w3.org/1999/02/22-rdf-syntax-ns#"
   xmlns:svg="http://www.w3.org/2000/svg"
   xmlns="http://www.w3.org/2000/svg"
   xmlns:sodipodi="http://sodipodi.sourceforge.net/DTD/sodipodi-0.dtd"
   xmlns:inkscape="http://www.inkscape.org/namespaces/inkscape"
   id="svg2"
   version="1.1"
   inkscape:version="0.91 r13725"
   width="256"
   height="256"
   sodipodi:docname="devToolsButton.svg">
  <metadata
     id="metadata8">
    <rdf:RDF>
      <cc:Work
         rdf:about="">
        <dc:format>image/svg+xml</dc:format>
        <dc:type
           rdf:resource="http://purl.org/dc/dcmitype/StillImage" />
        <dc:title />
      </cc:Work>
    </rdf:RDF>
  </metadata>
  <defs
     id="defs6" />
  <sodipodi:namedview
     pagecolor="#ffffff"
     bordercolor="#666666"
     borderopacity="1"
     objecttolerance="10"
     gridtolerance="10"
     guidetolerance="10"
     inkscape:pageopacity="0"
     inkscape:pageshadow="2"
     inkscape:window-width="1030"
     inkscape:window-height="633"
     id="namedview4"
     showgrid="false"
     inkscape:zoom="1.4523077"
     inkscape:cx="112.65558"
     inkscape:cy="136.76353"
     inkscape:window-x="179"
     inkscape:window-y="67"
     inkscape:window-maximized="0"
     inkscape:current-layer="svg2" />
  <path
     inkscape:connector-curvature="0"
     id="path2990"
     d="M 117.72809,245.33001 C 66.715762,240.38619 25.154533,204.51554 13.410812,155.29585 11.008177,145.22606 10.4,139.70092 10.4,127.9433 c 0,-11.75762 0.608177,-17.28276 3.010812,-27.35253 10.279352,-43.082249 44.120578,-76.907232 87.223518,-87.181647 10.07463,-2.401495 15.60242,-3.009379 27.36568,-3.009379 11.76323,0 17.29101,0.607884 27.36562,3.009379 43.10294,10.274415 76.94418,44.099398 87.22356,87.181647 2.40261,10.06977 3.01081,15.59491 3.01081,27.35253 0,11.75762 -0.6082,17.28276 -3.01081,27.35255 -11.21352,46.99743 -49.72926,82.07098 -98.01004,89.25074 -6.39554,0.95108 -20.78816,1.371 -26.85106,0.78342 z M 78.935801,183.70705 c 6.522673,-4.31998 11.950464,-8.16724 12.061805,-8.54948 0.111353,-0.38224 0.507236,-2.31216 0.879822,-4.28874 l 0.677437,-3.59376 9.932355,-9.99285 c 5.46278,-5.49607 9.93232,-10.25425 9.93232,-10.57373 0,-0.77677 -6.80837,-7.58458 -7.5852,-7.58458 -0.33585,0 -5.009063,4.39906 -10.384909,9.77568 l -9.77426,9.77569 -3.006647,0.64346 c -6.629702,1.41887 -5.125815,-0.0165 -13.886459,13.25322 -4.297786,6.50979 -7.902663,12.17436 -8.010868,12.58792 -0.279999,1.0702 5.383446,6.77929 6.506234,6.55866 0.439458,-0.0864 6.13572,-3.69152 12.65837,-8.01149 z M 178.7,191.07593 c 4.88431,-1.51942 9.10441,-5.23545 11.38476,-10.02477 1.17784,-2.47377 1.23582,-2.83057 1.23582,-7.60756 0,-5.01113 -3.3e-4,-5.0126 -1.55133,-8.18579 -1.52121,-3.11219 -2.18912,-3.81274 -34.43395,-36.11659 l -32.8827,-32.942828 0.0159,-4.791683 c 0.009,-2.969541 -0.21823,-5.789522 -0.59974,-7.415689 -2.83796,-12.096705 -11.77246,-20.932269 -24.030882,-23.764758 -5.613697,-1.29713 -17.678307,0.06738 -18.453697,2.087001 -0.161333,0.420212 2.693413,3.546934 9.184899,10.059905 5.180437,5.19759 9.6099,9.956014 9.843264,10.574273 0.540727,1.432592 0.542386,3.504769 0.0037,4.920345 -0.567704,1.492446 -8.597094,9.607965 -10.450057,10.562156 -1.656891,0.85322 -3.916591,0.990738 -5.235674,0.318644 -0.479932,-0.244531 -5.01619,-4.557042 -10.080572,-9.583375 -5.064443,-5.02632 -9.518307,-9.138752 -9.897531,-9.138752 -0.837853,0 -1.355441,1.262597 -2.101468,5.12628 -1.527076,7.908557 0.182489,16.064491 4.830871,23.047251 5.843116,8.77743 15.339888,13.7537 26.24768,13.7537 l 3.71313,0 32.957752,32.95637 c 18.12675,18.126 33.81385,33.50946 34.86013,34.18544 4.19302,2.70903 10.49776,3.51773 15.43945,1.98043 z m -8.35315,-9.03908 c -6.30354,-2.84219 -7.1542,-11.40724 -1.51077,-15.21119 2.30566,-1.5541 4.68874,-1.95437 7.17792,-1.20558 2.72596,0.82 4.13618,1.99779 5.34225,4.46179 2.01489,4.11627 0.78371,8.70076 -3.0107,11.21053 -2.01751,1.33452 -5.89059,1.695 -7.9987,0.74445 z m 1.28669,-79.94869 c 20.83297,-20.860267 20.08653,-19.862025 20.08653,-26.861789 0,-3.93047 -0.0834,-4.370491 -1.29493,-6.830137 -3.05074,-6.194066 -9.56976,-9.61888 -16.50463,-8.670924 -5.09013,0.695789 -5.43722,0.977846 -24.44588,19.866003 -9.61209,9.551126 -17.58584,17.709937 -17.71942,18.1307 -0.30678,0.966156 3.99247,5.464257 5.2227,5.464257 0.53948,0 6.72943,-5.917446 18.38943,-17.579826 17.9886,-17.992215 18.96724,-18.823526 19.30959,-16.402701 0.11294,0.798273 -2.78369,3.877146 -17.47812,18.578245 -9.6873,9.691754 -17.61338,17.881702 -17.61338,18.199862 0,0.65083 5.14842,5.98918 5.77612,5.98918 0.22237,0 8.41157,-7.99612 18.19826,-17.769172 9.78669,-9.773045 18.00114,-17.769165 18.25444,-17.769165 0.60076,0 1.71609,1.122593 1.71609,1.727302 0,0.259762 -7.83132,8.287989 -17.40287,17.84046 -9.57158,9.552485 -17.58091,17.688345 -17.79859,18.079725 -0.32433,0.58312 0.0522,1.17787 2.08541,3.29429 1.36468,1.42048 2.6821,2.58269 2.92744,2.58269 0.24548,0 8.47677,-8.04104 18.29181,-17.869 z"
     style="fill:#268bd2;fill-opacity:1" />
</svg>
