<?xml version="1.0" encoding="utf-8"?>
<!-- DeepDark custom icon -->
<!DOCTYPE svg PUBLIC "-//W3C//DTD SVG 1.1//EN" "http://www.w3.org/Graphics/SVG/1.1/DTD/svg11.dtd">
<svg version="1.1" id="Layer_1" xmlns="http://www.w3.org/2000/svg" xmlns:xlink="http://www.w3.org/1999/xlink" x="0px" y="0px"
	 width="32px" height="32px" viewBox="0 0 32 32" enable-background="new 0 0 32 32" xml:space="preserve" fill="context-fill">
<g>
	<path d="M16,4C9.374,4,4,9.373,4,16c0,6.626,5.374,12,12,12c6.628,0,12-5.374,12-12C28,9.373,22.628,4,16,4z M16,25.818
		c-5.413,0-9.818-4.404-9.818-9.818c0-5.413,4.406-9.818,9.818-9.818c5.414,0,9.818,4.406,9.818,9.818
		C25.818,21.414,21.414,25.818,16,25.818z"/>
	<path d="M20.909,14.909h-3.818v-3.818C17.091,10.487,16.604,10,16,10c-0.604,0-1.091,0.487-1.091,1.091v3.818h-3.817
		C10.487,14.909,10,15.396,10,16c0,0.604,0.487,1.091,1.091,1.091h3.818v3.817C14.909,21.512,15.396,22,16,22
		c0.604,0,1.091-0.488,1.091-1.092v-3.817h3.818C21.512,17.091,22,16.604,22,16C22,15.396,21.512,14.909,20.909,14.909z"/>
</g>
</svg>
