<?xml version="1.0" encoding="utf-8"?>
<!-- DeepDark custom icon -->
<!DOCTYPE svg PUBLIC "-//W3C//DTD SVG 1.1//EN" "http://www.w3.org/Graphics/SVG/1.1/DTD/svg11.dtd">
<svg version="1.1" id="Layer_2" xmlns="http://www.w3.org/2000/svg" xmlns:xlink="http://www.w3.org/1999/xlink" x="0px" y="0px"
	 width="48px" height="64px" viewBox="0 0 48 64" enable-background="new 0 0 48 64" xml:space="preserve" fill="context-fill">
<g>
	<g opacity="0.25">
		<path d="M8,1C4.135,1,1,4.134,1,8c0,3.865,3.135,7,7,7c3.866,0,7-3.135,7-7C15,4.134,11.866,1,8,1L8,1z"/>
	</g>
	<path d="M11.72,10.367L9.353,8l2.367-2.367c0.373-0.373,0.373-0.978,0-1.353c-0.375-0.374-0.98-0.372-1.353,0L8,6.647L5.633,4.28
		c-0.375-0.374-0.978-0.374-1.353,0c-0.374,0.375-0.374,0.979,0,1.353L6.647,8L4.28,10.367c-0.374,0.375-0.374,0.978,0,1.353
		c0.375,0.373,0.979,0.373,1.353,0L8,9.353l2.367,2.367c0.373,0.373,0.979,0.373,1.353,0C12.094,11.345,12.093,10.74,11.72,10.367z"
		/>
</g>
<g opacity="0.5">
	<g opacity="0.25">
		<path d="M24,1c-3.865,0-7,3.134-7,7c0,3.865,3.135,7,7,7c3.866,0,7-3.135,7-7C31,4.134,27.866,1,24,1L24,1z"/>
	</g>
	<path d="M27.721,10.367L25.354,8l2.367-2.367c0.372-0.373,0.373-0.978,0-1.353c-0.375-0.374-0.98-0.372-1.354,0L24,6.647
		L21.633,4.28c-0.375-0.374-0.978-0.374-1.353,0c-0.374,0.375-0.374,0.979,0,1.353L22.647,8l-2.368,2.367
		c-0.374,0.375-0.374,0.978,0,1.353c0.375,0.373,0.979,0.373,1.353,0L24,9.353l2.367,2.367c0.373,0.373,0.979,0.373,1.354,0
		C28.094,11.345,28.093,10.74,27.721,10.367z"/>
</g>
<g opacity="0.75">
	<g opacity="0.25">
		<path d="M40,1c-3.865,0-7,3.134-7,7c0,3.865,3.135,7,7,7c3.866,0,7-3.135,7-7C47,4.134,43.866,1,40,1L40,1z"/>
	</g>
	<path d="M43.721,10.367L41.354,8l2.367-2.367c0.372-0.373,0.373-0.978,0-1.353c-0.375-0.374-0.98-0.372-1.354,0L40,6.647
		L37.633,4.28c-0.375-0.374-0.979-0.374-1.354,0c-0.373,0.375-0.373,0.979,0,1.353L38.647,8l-2.368,2.367
		c-0.373,0.375-0.373,0.978,0,1.353c0.375,0.373,0.979,0.373,1.354,0L40,9.353l2.367,2.367c0.373,0.373,0.979,0.373,1.354,0
		C44.094,11.345,44.093,10.74,43.721,10.367z"/>
</g>
<g>
	<g>
		<g opacity="0.25">
			<path d="M8,17c-3.865,0-7,3.134-7,7c0,3.865,3.135,7,7,7c3.866,0,7-3.135,7-7C15,20.134,11.866,17,8,17L8,17z"/>
		</g>
	</g>
	<path d="M5.788,19.501c0.141,0,0.276,0.037,0.397,0.108l6.417,3.704C12.848,23.454,13,23.716,13,24
		c0,0.282-0.152,0.545-0.396,0.688l-6.421,3.706c-0.119,0.069-0.256,0.106-0.395,0.106c-0.138,0-0.275-0.037-0.393-0.106
		C5.151,28.25,5,27.988,5,27.706v-7.413c0-0.282,0.151-0.543,0.396-0.685C5.512,19.54,5.651,19.501,5.788,19.501L5.788,19.501z"/>
</g>
<g opacity="0.5">
	<g>
		<g opacity="0.25">
			<path d="M24,17c-3.865,0-7,3.134-7,7c0,3.865,3.135,7,7,7c3.866,0,7-3.135,7-7C31,20.134,27.866,17,24,17L24,17z"/>
		</g>
	</g>
	<path d="M21.788,19.501c0.141,0,0.276,0.037,0.397,0.108l6.417,3.704C28.848,23.454,29,23.716,29,24
		c0,0.282-0.152,0.545-0.396,0.688l-6.421,3.706c-0.119,0.069-0.256,0.106-0.395,0.106c-0.138,0-0.275-0.037-0.393-0.106
		C21.151,28.25,21,27.988,21,27.706v-7.413c0-0.282,0.151-0.543,0.396-0.685C21.512,19.54,21.651,19.501,21.788,19.501
		L21.788,19.501z"/>
</g>
<g>
	<g opacity="0.75">
		<g opacity="0.25">
			<path d="M40,17c-3.865,0-7,3.134-7,7c0,3.865,3.135,7,7,7c3.866,0,7-3.135,7-7C47,20.134,43.866,17,40,17L40,17z"/>
		</g>
	</g>
	<path opacity="0.75" d="M37.788,19.501c0.141,0,0.276,0.037,0.397,0.108l6.417,3.704C44.848,23.454,45,23.716,45,24
		c0,0.282-0.152,0.545-0.396,0.688l-6.421,3.706c-0.119,0.069-0.256,0.106-0.396,0.106c-0.138,0-0.274-0.037-0.393-0.106
		C37.151,28.25,37,27.988,37,27.706v-7.413c0-0.282,0.151-0.543,0.396-0.685C37.512,19.54,37.65,19.501,37.788,19.501L37.788,19.501
		z"/>
</g>
<g>
	<g>
		<g opacity="0.25">
			<path d="M8,49c-3.865,0-7,3.135-7,7s3.135,7,7,7c3.866,0,7-3.135,7-7S11.866,49,8,49L8,49z"/>
		</g>
	</g>
	<g>
		<rect x="4.959" y="53" width="2.027" height="6"/>
		<rect x="9.014" y="53" width="2.027" height="6"/>
	</g>
</g>
<g opacity="0.5">
	<g>
		<g opacity="0.25">
			<path d="M24,49c-3.865,0-7,3.135-7,7s3.135,7,7,7c3.866,0,7-3.135,7-7S27.865,49,24,49L24,49z"/>
		</g>
	</g>
	<g>
		<rect x="20.958" y="53" width="2.027" height="6"/>
		<rect x="25.014" y="53" width="2.027" height="6"/>
	</g>
</g>
<g opacity="0.75">
	<g>
		<g opacity="0.25">
			<path d="M39.999,49c-3.865,0-7,3.135-7,7s3.135,7,7,7C43.865,63,47,59.865,47,56S43.865,49,39.999,49L39.999,49z"/>
		</g>
	</g>
	<g>
		<rect x="36.958" y="53" width="2.027" height="6"/>
		<rect x="41.014" y="53" width="2.027" height="6"/>
	</g>
</g>
<g>
	<g>
		<g opacity="0.25">
			<path d="M8,33c-3.865,0-7,3.135-7,7s3.135,7,7,7c3.866,0,7-3.135,7-7S11.866,33,8,33L8,33z"/>
		</g>
	</g>
	<path d="M8.583,44.962c0.033-0.003,0.066-0.007,0.104-0.012c0.163-0.024,0.321-0.054,0.483-0.092
		c0.035-0.009,0.067-0.017,0.101-0.024c0.167-0.046,0.333-0.097,0.491-0.158c0.021-0.004,0.042-0.013,0.063-0.021
		c0.633-0.245,1.217-0.625,1.712-1.116c1.95-1.95,1.95-5.125,0-7.076c-0.046-0.045-0.132-0.045-0.179-0.001l-1.08,1.08
		c-0.05,0.051-0.049,0.135,0.001,0.185c1.254,1.254,1.254,3.296,0,4.55c-0.159,0.162-0.343,0.308-0.546,0.434l-0.004-0.014
		C9.228,43.021,8.636,43.208,8,43.208c-0.637,0-1.23-0.187-1.73-0.513l-0.004,0.014c-0.2-0.126-0.383-0.271-0.542-0.43
		c-0.549-0.55-0.858-1.245-0.929-1.962c0-0.005,0-0.005,0-0.009c-0.009-0.066-0.008-0.133-0.008-0.203
		c-0.004-0.035-0.009-0.071-0.009-0.106c0-0.032,0.005-0.069,0.009-0.103c0-0.071,0-0.14,0.008-0.204c0-0.005,0-0.005,0-0.009
		c0.071-0.717,0.38-1.412,0.929-1.963c0.159-0.158,0.342-0.304,0.542-0.429l0.003,0.013l0.518,1.833
		c0.012,0.044,0.045,0.08,0.091,0.087c0.042,0.014,0.086-0.001,0.121-0.029l2.176-2.179l1.22-1.221
		c0.03-0.029,0.042-0.066,0.038-0.11c-0.007-0.04-0.03-0.073-0.066-0.094C9.642,35.205,8.825,35,8,35
		c-1.338,0-2.592,0.521-3.538,1.462c-0.18,0.18-0.333,0.371-0.479,0.571c-0.554,0.742-0.875,1.604-0.963,2.488
		c-0.003,0.05-0.003,0.1-0.003,0.15C3.008,39.784,3,39.893,3,40c0,0.105,0.008,0.209,0.017,0.313c0,0.055,0,0.112,0.003,0.167
		c0.046,0.479,0.163,0.95,0.345,1.4c0,0.004,0,0.004,0,0.004c0.029,0.079,0.071,0.153,0.109,0.233
		c0.238,0.513,0.563,0.996,0.987,1.419c0.496,0.493,1.079,0.867,1.712,1.117c0.021,0.01,0.047,0.019,0.071,0.027
		c0.154,0.057,0.314,0.107,0.476,0.148c0.042,0.013,0.083,0.021,0.125,0.034c0.145,0.032,0.295,0.063,0.445,0.082
		c0.046,0.005,0.093,0.014,0.137,0.021C7.612,44.986,7.796,45,7.982,45H8C8.197,45,8.392,44.988,8.583,44.962z"/>
</g>
<g opacity="0.5">
	<g>
		<g opacity="0.25">
			<path d="M24,33c-3.865,0-7,3.135-7,7s3.135,7,7,7c3.866,0,7-3.135,7-7S27.866,33,24,33L24,33z"/>
		</g>
	</g>
	<path d="M24.584,44.962c0.031-0.003,0.065-0.007,0.103-0.012c0.163-0.024,0.322-0.054,0.483-0.092
		c0.035-0.009,0.068-0.017,0.101-0.024c0.168-0.046,0.334-0.097,0.492-0.158c0.021-0.004,0.042-0.013,0.063-0.021
		c0.634-0.245,1.217-0.625,1.713-1.116c1.948-1.95,1.948-5.125-0.002-7.076c-0.046-0.045-0.133-0.045-0.179-0.001l-1.079,1.08
		c-0.051,0.051-0.049,0.135,0,0.185c1.255,1.254,1.255,3.296,0.001,4.55c-0.16,0.162-0.343,0.308-0.546,0.434l-0.005-0.014
		c-0.5,0.325-1.093,0.513-1.729,0.513c-0.637,0-1.23-0.187-1.73-0.513l-0.004,0.014c-0.2-0.126-0.383-0.271-0.542-0.43
		c-0.549-0.55-0.858-1.245-0.929-1.962c0-0.005,0-0.005,0-0.009c-0.009-0.066-0.008-0.133-0.008-0.203
		c-0.004-0.035-0.009-0.071-0.009-0.106c0-0.032,0.005-0.069,0.009-0.103c0-0.071,0-0.14,0.008-0.204c0-0.005,0-0.005,0-0.009
		c0.071-0.717,0.38-1.412,0.929-1.963c0.159-0.158,0.342-0.304,0.542-0.429l0.003,0.013l0.518,1.833
		c0.012,0.044,0.045,0.08,0.091,0.087c0.042,0.014,0.086-0.001,0.121-0.029l2.176-2.179l1.221-1.221
		c0.029-0.029,0.041-0.066,0.036-0.11c-0.007-0.04-0.029-0.073-0.065-0.094C25.641,35.205,24.825,35,24,35
		c-1.338,0-2.592,0.521-3.538,1.462c-0.18,0.18-0.333,0.371-0.479,0.571c-0.554,0.742-0.875,1.604-0.963,2.488
		c-0.003,0.05-0.003,0.1-0.003,0.15C19.008,39.784,19,39.893,19,40c0,0.105,0.008,0.209,0.017,0.313c0,0.055,0,0.112,0.003,0.167
		c0.046,0.479,0.163,0.95,0.345,1.4c0,0.004,0,0.004,0,0.004c0.029,0.079,0.071,0.153,0.109,0.233
		c0.238,0.513,0.563,0.996,0.987,1.419c0.496,0.493,1.079,0.867,1.712,1.117c0.021,0.01,0.047,0.019,0.071,0.027
		c0.154,0.057,0.314,0.107,0.476,0.148c0.042,0.013,0.083,0.021,0.125,0.034c0.145,0.032,0.295,0.063,0.445,0.082
		c0.046,0.005,0.093,0.014,0.137,0.021C23.612,44.986,23.796,45,23.982,45H24C24.196,45,24.391,44.988,24.584,44.962z"/>
</g>
<g opacity="0.75">
	<g>
		<g opacity="0.25">
			<path d="M40,33c-3.865,0-7,3.135-7,7s3.135,7,7,7c3.866,0,7-3.135,7-7S43.866,33,40,33L40,33z"/>
		</g>
	</g>
	<path d="M40.584,44.962c0.031-0.003,0.065-0.007,0.103-0.012c0.163-0.024,0.322-0.054,0.483-0.092
		c0.035-0.009,0.068-0.017,0.101-0.024c0.168-0.046,0.334-0.097,0.492-0.158c0.021-0.004,0.042-0.013,0.063-0.021
		c0.634-0.245,1.217-0.625,1.713-1.116c1.948-1.95,1.948-5.125-0.002-7.076c-0.046-0.045-0.133-0.045-0.179-0.001l-1.079,1.08
		c-0.051,0.051-0.049,0.135,0,0.185c1.255,1.254,1.255,3.296,0.001,4.55c-0.16,0.162-0.343,0.308-0.546,0.434l-0.005-0.014
		c-0.5,0.325-1.093,0.513-1.729,0.513c-0.637,0-1.23-0.187-1.73-0.513l-0.004,0.014c-0.199-0.126-0.384-0.271-0.542-0.43
		c-0.548-0.55-0.858-1.245-0.929-1.962c0-0.005,0-0.005,0-0.009c-0.009-0.066-0.008-0.133-0.008-0.203
		c-0.005-0.035-0.01-0.071-0.01-0.106c0-0.032,0.005-0.069,0.01-0.103c0-0.071,0-0.14,0.008-0.204c0-0.005,0-0.005,0-0.009
		c0.07-0.717,0.381-1.412,0.93-1.963c0.159-0.158,0.342-0.304,0.542-0.429l0.003,0.013l0.518,1.833
		c0.012,0.044,0.046,0.08,0.091,0.087c0.043,0.014,0.087-0.001,0.121-0.029l2.176-2.179l1.221-1.221
		c0.029-0.029,0.041-0.066,0.036-0.11c-0.007-0.04-0.029-0.073-0.065-0.094C41.641,35.205,40.825,35,40,35
		c-1.338,0-2.593,0.521-3.537,1.462c-0.181,0.18-0.335,0.371-0.479,0.571c-0.555,0.742-0.877,1.604-0.965,2.488
		c-0.002,0.05-0.002,0.1-0.002,0.15C35.008,39.784,35,39.893,35,40c0,0.105,0.008,0.209,0.018,0.313c0,0.055,0,0.112,0.002,0.167
		c0.047,0.479,0.164,0.95,0.346,1.4c0,0.004,0,0.004,0,0.004c0.029,0.079,0.07,0.153,0.108,0.233
		c0.239,0.513,0.564,0.996,0.987,1.419c0.496,0.493,1.079,0.867,1.713,1.117c0.021,0.01,0.047,0.019,0.071,0.027
		c0.153,0.057,0.313,0.107,0.476,0.148c0.042,0.013,0.083,0.021,0.125,0.034c0.145,0.032,0.295,0.063,0.445,0.082
		c0.045,0.005,0.093,0.014,0.138,0.021C39.612,44.986,39.796,45,39.983,45H40C40.196,45,40.391,44.988,40.584,44.962z"/>
</g>
</svg>
