<?xml version="1.0" encoding="utf-8"?>
<!DOCTYPE svg PUBLIC "-//W3C//DTD SVG 1.1//EN" "http://www.w3.org/Graphics/SVG/1.1/DTD/svg11.dtd">
<svg version="1.1" id="Layer_1" xmlns="http://www.w3.org/2000/svg" xmlns:xlink="http://www.w3.org/1999/xlink" x="0px" y="0px"
	 width="32px" height="32px" viewBox="0 0 32 32" enable-background="new 0 0 32 32" xml:space="preserve" fill="context-fill">
<g>
	<path d="M16.8,9.574l-4.174-4.158c-1.92-1.888-5.023-1.888-6.878,0c-1.919,1.903-1.919,4.957,0,6.878l4.158,4.109L16.8,9.574z"/>
	<path d="M10.482,17.106l6.99-6.813l1.391,1.375l-6.957,6.862L10.482,17.106z"/>
	<path d="M16.831,23.044c0,0,0,0,0-0.227c0-0.158,0-0.318,0.256-0.414c0.241,0,0.538,0,0.656,0.19l2.366,4.367l0,0
		c0.721-0.287,1.44-0.688,2.079-1.119l-3.197-4.64c0,0,0-0.159,0-0.271c0,0,0-0.318,0.209-0.4c0.223,0,0,0,0.671,0l3.199,4.753
		c0.881-0.784,1.662-1.601,2.351-2.466l-4.719-3.199c0,0-0.208-0.238-0.208-0.4c0,0,0-0.189,0-0.271c0-0.207,0.449-0.271,0.673,0
		l4.734,3.198c0.48-0.717,0.896-1.472,1.199-2.239l-4.254-2.432c-0.161,0-0.257-0.255-0.257-0.414c0,0,0,0,0-0.225
		c0-0.223,0.416-0.319,0.641-0.191l4.205,2.24c0.163-0.594,0.257-1.184,0.257-1.6c0-1.439,0-1.809,0-1.809l-7.869-3.375l-7.55,7.358
		L15.504,28c0,0,1.583-0.159,3.599-0.735L16.831,23.044z"/>
</g>
</svg>
