<?xml version="1.0" encoding="utf-8"?>
<!-- DeepDark custom icon -->
<!DOCTYPE svg PUBLIC "-//W3C//DTD SVG 1.1//EN" "http://www.w3.org/Graphics/SVG/1.1/DTD/svg11.dtd">
<svg version="1.1" id="Layer_1" xmlns="http://www.w3.org/2000/svg" xmlns:xlink="http://www.w3.org/1999/xlink" x="0px" y="0px"
	 width="32px" height="32px" viewBox="0 0 32 32" enable-background="new 0 0 32 32" xml:space="preserve" fill="context-fill">
<g>
	<g opacity="0.6">
		<path d="M25.405,5.755c-0.009-0.022-0.016-0.037-0.023-0.06c-0.029-0.053-0.06-0.105-0.104-0.143
			C25.27,5.545,25.27,5.537,25.262,5.53c-0.045-0.045-0.082-0.075-0.135-0.105c-0.008-0.007-0.023,0-0.03-0.007
			c-0.082-0.045-0.172-0.068-0.27-0.068H4.623c-0.008,0-0.016,0.008-0.03,0.008c-0.053,0-0.112,0.016-0.165,0.03
			c-0.03,0.015-0.053,0.022-0.075,0.03C4.338,5.425,4.33,5.425,4.323,5.433C4.271,5.463,4.225,5.493,4.188,5.53
			C4.181,5.537,4.181,5.537,4.181,5.537C4.128,5.59,4.09,5.643,4.061,5.703C4.053,5.718,4.053,5.732,4.045,5.748
			C4.016,5.815,4,5.891,4,5.965v12.173c0,0.337,0.277,0.622,0.623,0.622H6.55V17.44H5.343V7.143l7.927,6.098h2.91l7.928-6.098v6.098
			h1.342V5.965C25.449,5.891,25.435,5.823,25.405,5.755z M14.725,12.865L6.902,6.662h15.646L14.725,12.865z"/>
	</g>
	<g>
		<g>
			<path opacity="0.6" enable-background="new    " d="M16.939,21.998l-9.051-6.965v10.302h18.771V15.034l-9.058,6.964
				C17.398,22.126,17.14,22.126,16.939,21.998z"/>
			<polygon opacity="0.6" enable-background="new    " points="25.092,14.56 9.453,14.56 17.271,20.756 			"/>
		</g>
		<g>
			<path d="M27.954,13.65c-0.007-0.021-0.016-0.038-0.026-0.059c-0.029-0.054-0.061-0.105-0.103-0.148
				c-0.004-0.007-0.008-0.014-0.015-0.021c-0.042-0.04-0.087-0.075-0.141-0.103c-0.006-0.006-0.02-0.003-0.027-0.01
				c-0.083-0.039-0.174-0.065-0.27-0.065H7.174c-0.013,0-0.021,0.006-0.034,0.006c-0.055,0.005-0.11,0.017-0.165,0.035
				c-0.027,0.01-0.053,0.021-0.076,0.029c-0.01,0.005-0.018,0.007-0.025,0.014c-0.053,0.026-0.1,0.06-0.139,0.098
				c-0.003,0.002-0.006,0.005-0.008,0.007c-0.05,0.05-0.086,0.107-0.115,0.168c-0.008,0.015-0.014,0.027-0.019,0.043
				c-0.026,0.069-0.044,0.139-0.044,0.215v0.346v11.387v0.444c0,0.33,0.278,0.615,0.625,0.615h0.387h19.207h0.606
				c0.346,0,0.626-0.285,0.626-0.615v-0.444V14.204v-0.346C28,13.785,27.98,13.718,27.954,13.65z M25.092,14.56l-7.821,6.196
				L9.453,14.56H25.092z M16.939,21.998c0.2,0.128,0.461,0.128,0.662,0l9.058-6.964v10.301H7.889V15.033L16.939,21.998z"/>
		</g>
	</g>
	<path opacity="0.3" enable-background="new    " d="M5.343,7.143l7.927,6.098H7.173c-0.008,0-0.022,0.007-0.03,0.007
		c-0.06,0.008-0.112,0.016-0.165,0.038c-0.029,0.008-0.053,0.022-0.082,0.029c-0.008,0.008-0.016,0.008-0.022,0.016
		c-0.053,0.022-0.098,0.06-0.143,0.098c0,0,0,0-0.008,0.007C6.678,13.48,6.641,13.54,6.61,13.6c-0.008,0.016-0.016,0.03-0.016,0.045
		C6.565,13.713,6.55,13.78,6.55,13.855v3.585H5.343V7.143z"/>
	<polygon opacity="0.3" enable-background="new    " points="24.107,7.143 24.107,13.24 16.18,13.24 	"/>
	<polygon opacity="0.3" enable-background="new    " points="22.545,6.666 6.905,6.666 14.723,12.862 	"/>
</g>
</svg>
