<?xml version="1.0" encoding="utf-8"?>
<!-- DeepDark custom icon -->
<!DOCTYPE svg PUBLIC "-//W3C//DTD SVG 1.1//EN" "http://www.w3.org/Graphics/SVG/1.1/DTD/svg11.dtd">
<svg version="1.1" id="Layer_1" xmlns="http://www.w3.org/2000/svg" xmlns:xlink="http://www.w3.org/1999/xlink" x="0px" y="0px"
	 width="32px" height="32px" viewBox="0 0 32 32" enable-background="new 0 0 32 32" xml:space="preserve" fill="context-fill">
<g>
	<path d="M25.388,5.745h-5.98v-0.92C19.408,4.369,19.039,4,18.586,4h-5.213c-0.465,0-0.821,0.371-0.821,0.825v0.92H6.606
		c-0.461,0-0.821,0.369-0.821,0.825v0.034c0,0.456,0.372,0.825,0.821,0.825h18.788c0.464,0,0.82-0.369,0.82-0.825V6.571
		C26.213,6.115,25.839,5.745,25.388,5.745z"/>
	<path d="M7.431,9.143v15.428c0,1.902,1.543,3.429,3.429,3.429h10.286c1.885,0,3.429-1.526,3.429-3.429V9.143H7.431z M14.288,24.571
		h-1.715c-0.942,0-1.714-0.771-1.714-1.714V12.571h3.429V24.571z M21.146,22.857c0,0.942-0.771,1.714-1.715,1.714h-1.714v-12h3.429
		V22.857z"/>
</g>
</svg>
