<?xml version="1.0" encoding="utf-8"?>
<!-- DeepDark custom icon -->
<!DOCTYPE svg PUBLIC "-//W3C//DTD SVG 1.1//EN" "http://www.w3.org/Graphics/SVG/1.1/DTD/svg11.dtd">
<svg version="1.1" id="Layer_1" xmlns="http://www.w3.org/2000/svg" xmlns:xlink="http://www.w3.org/1999/xlink" x="0px" y="0px"
	 width="32px" height="32px" viewBox="0 0 32 32" enable-background="new 0 0 32 32" xml:space="preserve" fill="context-fill">
<path d="M27.58,25.462l-7.222-7.222c2.886-4.055,1.938-9.684-2.118-12.569C14.186,2.784,8.557,3.732,5.671,7.788
	c-2.887,4.056-1.938,9.683,2.117,12.57c3.128,2.226,7.324,2.226,10.452,0l7.222,7.222c0.596,0.576,1.543,0.559,2.118-0.036
	C28.14,26.963,28.14,26.043,27.58,25.462z M13.043,19.033c-3.308,0-5.99-2.683-5.99-5.99c0-3.308,2.682-5.99,5.99-5.99
	c3.308,0,5.991,2.682,5.991,5.99C19.034,16.35,16.351,19.033,13.043,19.033z"/>
</svg>
