<?xml version="1.0" encoding="utf-8"?>
<!-- DeepDark custom icon -->
<!DOCTYPE svg PUBLIC "-//W3C//DTD SVG 1.1//EN" "http://www.w3.org/Graphics/SVG/1.1/DTD/svg11.dtd">
<svg version="1.1" id="Layer_1" xmlns="http://www.w3.org/2000/svg" xmlns:xlink="http://www.w3.org/1999/xlink" x="0px" y="0px"
	 width="32px" height="32px" viewBox="0 0 32 32" enable-background="new 0 0 32 32" xml:space="preserve" fill="context-fill">
<g>
	<g>
		<path d="M19.285,25.703L19.285,25.703l7.975-7.971c0.01-0.015,0.027-0.017,0.043-0.028C27.766,17.237,28,16.616,28,16
			c0-0.314-0.057-0.629-0.183-0.923c-0.126-0.31-0.323-0.581-0.558-0.812l-7.965-7.969c-0.941-0.938-2.458-0.938-3.396,0.004
			c-0.937,0.933-0.937,2.452,0,3.394l3.894,3.9H6.4l0,0c-1.325,0-2.4,1.069-2.4,2.396s1.076,2.403,2.4,2.403l0,0h13.406
			l-3.914,3.914l-0.002,0.003c-0.938,0.938-0.938,2.451,0,3.391C16.827,26.641,18.348,26.642,19.285,25.703z"/>
	</g>
</g>
</svg>
