<?xml version="1.0" encoding="utf-8"?>
<!-- DeepDark custom icon -->
<!DOCTYPE svg PUBLIC "-//W3C//DTD SVG 1.1//EN" "http://www.w3.org/Graphics/SVG/1.1/DTD/svg11.dtd">
<svg version="1.1" id="Layer_1" xmlns="http://www.w3.org/2000/svg" xmlns:xlink="http://www.w3.org/1999/xlink" x="0px" y="0px"
	 width="32px" height="32px" viewBox="0 0 32 32" enable-background="new 0 0 32 32" xml:space="preserve" fill="context-fill">
<g>
	<path d="M24.486,24.49c0.057-0.057,0.092-0.135,0.092-0.216c0-0.083-0.035-0.159-0.092-0.216l-2.589-2.591
		c-0.119-0.117-0.312-0.117-0.435,0c-3.012,3.016-7.916,3.013-10.928-0.004c-0.382-0.379-0.73-0.821-1.038-1.303l4.436-1.252
		c0.105-0.024,0.187-0.109,0.212-0.214c0.03-0.106-0.002-0.215-0.078-0.294l-8.156-8.154c-0.07-0.067-0.165-0.101-0.259-0.086
		c-0.099,0.016-0.179,0.072-0.226,0.158C4.494,12.059,4,14.023,4,16.004c0,3.204,1.25,6.219,3.513,8.485
		C12.191,29.171,19.806,29.171,24.486,24.49z"/>
	<path d="M26.088,21.751c0.071,0.066,0.167,0.1,0.261,0.085c0.096-0.016,0.179-0.073,0.225-0.158c0.934-1.738,1.427-3.7,1.427-5.683
		l0,0c0-3.205-1.251-6.218-3.514-8.486c-4.678-4.679-12.293-4.679-16.973,0C7.4,7.622,7.4,7.825,7.513,7.94l2.592,2.591
		c0.119,0.119,0.313,0.119,0.433,0c3.012-3.015,7.914-3.012,10.926,0.002c0.387,0.38,0.732,0.821,1.039,1.305l-4.434,1.25
		c-0.107,0.029-0.188,0.113-0.216,0.219c-0.023,0.101,0.004,0.215,0.081,0.292L26.088,21.751z"/>
</g>
</svg>
