<?xml version="1.0" encoding="utf-8"?>
<!-- DeepDark custom icon -->
<!DOCTYPE svg PUBLIC "-//W3C//DTD SVG 1.1//EN" "http://www.w3.org/Graphics/SVG/1.1/DTD/svg11.dtd">
<svg version="1.1" id="Layer_1" xmlns="http://www.w3.org/2000/svg" xmlns:xlink="http://www.w3.org/1999/xlink" x="0px" y="0px"
	 width="32px" height="32px" viewBox="0 0 32 32" enable-background="new 0 0 32 32" xml:space="preserve" fill="context-fill">
<path d="M4.151,12.893c-0.201-0.242-0.201-0.6,0-0.837l8.614-8.475c0.398-0.398,0.993-0.14,0.993,0.398v3.978
	C19.289,7.476,28,10.145,28,17.305c-0.074,4.081-3.859,9.312-7.637,11.241c-0.698,0.296-1.134-0.46-0.698-0.944
	c1.191-1.313,3.178-5.025,3.178-7.669c0-2.669-5.843-3.466-9.106-3.466v4.435c0,0.402-0.595,0.796-0.993,0.402L4.151,12.893z"/>
</svg>
