<?xml version="1.0" encoding="utf-8"?>
<!-- DeepDark custom icon -->
<!DOCTYPE svg PUBLIC "-//W3C//DTD SVG 1.1//EN" "http://www.w3.org/Graphics/SVG/1.1/DTD/svg11.dtd">
<svg version="1.1" id="Layer_1" xmlns="http://www.w3.org/2000/svg" xmlns:xlink="http://www.w3.org/1999/xlink" x="0px" y="0px"
	 width="32px" height="32px" viewBox="0 0 32 32" enable-background="new 0 0 32 32" xml:space="preserve" fill="context-fill">
<path d="M27.749,23.786L17.644,6.307c-0.335-0.595-0.959-0.946-1.646-0.946c-0.686,0-1.31,0.352-1.646,0.946L4.263,23.786
	c-0.351,0.596-0.351,1.311,0,1.906c0.335,0.595,0.96,0.946,1.646,0.946h20.179c0.686,0,1.312-0.352,1.661-0.946
	C28.083,25.1,28.083,24.382,27.749,23.786z M14.627,11.305c0-0.762,0.609-1.371,1.371-1.371c0.761,0,1.373,0.609,1.373,1.371v5.946
	c0,0.746-0.611,1.371-1.373,1.371s-1.371-0.625-1.371-1.371V11.305z M15.998,24.094c-0.945,0-1.722-0.779-1.722-1.724
	c0-0.96,0.777-1.723,1.722-1.723s1.722,0.763,1.722,1.723C17.72,23.314,16.943,24.094,15.998,24.094z"/>
</svg>
